%TF.GenerationSoftware,KiCad,Pcbnew,4.0.4-stable*%
%TF.CreationDate,2017-03-14T02:45:12+02:00*%
%TF.ProjectId,zerophone_audio_buffer,7A65726F70686F6E655F617564696F5F,rev?*%
%TF.FileFunction,Copper,L1,Top,Signal*%
%FSLAX46Y46*%
G04 Gerber Fmt 4.6, Leading zero omitted, Abs format (unit mm)*
G04 Created by KiCad (PCBNEW 4.0.4-stable) date 03/14/17 02:45:12*
%MOMM*%
%LPD*%
G01*
G04 APERTURE LIST*
%ADD10C,0.200000*%
%ADD11R,1.700000X1.700000*%
%ADD12O,1.700000X1.700000*%
%ADD13R,0.650000X0.400000*%
%ADD14C,1.500000*%
%ADD15C,0.600000*%
%ADD16C,0.250000*%
%ADD17C,0.400000*%
%ADD18C,0.160000*%
G04 APERTURE END LIST*
D10*
D11*
X137160000Y-101600000D03*
D12*
X137160000Y-99060000D03*
X137160000Y-96520000D03*
D11*
X127000000Y-101600000D03*
D12*
X127000000Y-99060000D03*
X127000000Y-96520000D03*
X127000000Y-93980000D03*
D13*
X133030000Y-99710000D03*
X133030000Y-98410000D03*
X131130000Y-99060000D03*
X133030000Y-99060000D03*
X131130000Y-98410000D03*
X131130000Y-99710000D03*
D14*
X132080000Y-93980000D03*
X137160000Y-93980000D03*
D15*
X134366000Y-99060000D03*
X137160000Y-93980000D03*
X132065000Y-99060000D03*
D16*
X133238000Y-99710000D02*
X135128000Y-101600000D01*
X135128000Y-101600000D02*
X137160000Y-101600000D01*
X133030000Y-99710000D02*
X133238000Y-99710000D01*
X133238000Y-98410000D02*
X135128000Y-96520000D01*
X135128000Y-96520000D02*
X137160000Y-96520000D01*
X133030000Y-98410000D02*
X133238000Y-98410000D01*
X130922000Y-99710000D02*
X129032000Y-101600000D01*
X129032000Y-101600000D02*
X127000000Y-101600000D01*
X131130000Y-99710000D02*
X130922000Y-99710000D01*
X130922000Y-98410000D02*
X129032000Y-96520000D01*
X129032000Y-96520000D02*
X127000000Y-96520000D01*
X131130000Y-98410000D02*
X130922000Y-98410000D01*
X127000000Y-93980000D02*
X132334000Y-93980000D01*
D17*
X132065000Y-99060000D02*
X131130000Y-99060000D01*
D18*
G36*
X138329000Y-102769000D02*
X125831000Y-102769000D01*
X125831000Y-99256497D01*
X125887216Y-99256497D01*
X125896724Y-99304305D01*
X126074197Y-99707914D01*
X126392616Y-100012884D01*
X126803503Y-100172786D01*
X126980000Y-100119825D01*
X126980000Y-99080000D01*
X127020000Y-99080000D01*
X127020000Y-100119825D01*
X127196497Y-100172786D01*
X127607384Y-100012884D01*
X127925803Y-99707914D01*
X128103276Y-99304305D01*
X128112784Y-99256497D01*
X128059811Y-99080000D01*
X127020000Y-99080000D01*
X126980000Y-99080000D01*
X125940189Y-99080000D01*
X125887216Y-99256497D01*
X125831000Y-99256497D01*
X125831000Y-98863503D01*
X125887216Y-98863503D01*
X125940189Y-99040000D01*
X126980000Y-99040000D01*
X126980000Y-98000175D01*
X127020000Y-98000175D01*
X127020000Y-99040000D01*
X128059811Y-99040000D01*
X128112784Y-98863503D01*
X128103276Y-98815695D01*
X127925803Y-98412086D01*
X127607384Y-98107116D01*
X127196497Y-97947214D01*
X127020000Y-98000175D01*
X126980000Y-98000175D01*
X126803503Y-97947214D01*
X126392616Y-98107116D01*
X126074197Y-98412086D01*
X125896724Y-98815695D01*
X125887216Y-98863503D01*
X125831000Y-98863503D01*
X125831000Y-96520000D01*
X125847862Y-96520000D01*
X125933878Y-96952432D01*
X126178831Y-97319031D01*
X126545430Y-97563984D01*
X126977862Y-97650000D01*
X127022138Y-97650000D01*
X127454570Y-97563984D01*
X127821169Y-97319031D01*
X128066122Y-96952432D01*
X128071579Y-96925000D01*
X128864244Y-96925000D01*
X130519515Y-98580272D01*
X130519515Y-98610000D01*
X130539039Y-98713762D01*
X130552133Y-98734110D01*
X130542007Y-98748930D01*
X130519515Y-98860000D01*
X130519515Y-99260000D01*
X130539039Y-99363762D01*
X130552133Y-99384110D01*
X130542007Y-99398930D01*
X130519515Y-99510000D01*
X130519515Y-99539728D01*
X128864244Y-101195000D01*
X128135485Y-101195000D01*
X128135485Y-100750000D01*
X128115961Y-100646238D01*
X128054638Y-100550940D01*
X127961070Y-100487007D01*
X127850000Y-100464515D01*
X126150000Y-100464515D01*
X126046238Y-100484039D01*
X125950940Y-100545362D01*
X125887007Y-100638930D01*
X125864515Y-100750000D01*
X125864515Y-102450000D01*
X125884039Y-102553762D01*
X125945362Y-102649060D01*
X126038930Y-102712993D01*
X126150000Y-102735485D01*
X127850000Y-102735485D01*
X127953762Y-102715961D01*
X128049060Y-102654638D01*
X128112993Y-102561070D01*
X128135485Y-102450000D01*
X128135485Y-102005000D01*
X129032000Y-102005000D01*
X129186987Y-101974171D01*
X129318378Y-101886378D01*
X131009272Y-100195485D01*
X131455000Y-100195485D01*
X131558762Y-100175961D01*
X131654060Y-100114638D01*
X131717993Y-100021070D01*
X131740485Y-99910000D01*
X131740485Y-99553264D01*
X131949125Y-99639899D01*
X132179863Y-99640101D01*
X132393114Y-99551987D01*
X132419515Y-99525632D01*
X132419515Y-99910000D01*
X132439039Y-100013762D01*
X132500362Y-100109060D01*
X132593930Y-100172993D01*
X132705000Y-100195485D01*
X133150729Y-100195485D01*
X134841622Y-101886379D01*
X134920386Y-101939006D01*
X134973013Y-101974171D01*
X135128000Y-102005000D01*
X136024515Y-102005000D01*
X136024515Y-102450000D01*
X136044039Y-102553762D01*
X136105362Y-102649060D01*
X136198930Y-102712993D01*
X136310000Y-102735485D01*
X138010000Y-102735485D01*
X138113762Y-102715961D01*
X138209060Y-102654638D01*
X138272993Y-102561070D01*
X138295485Y-102450000D01*
X138295485Y-100750000D01*
X138275961Y-100646238D01*
X138214638Y-100550940D01*
X138121070Y-100487007D01*
X138010000Y-100464515D01*
X136310000Y-100464515D01*
X136206238Y-100484039D01*
X136110940Y-100545362D01*
X136047007Y-100638930D01*
X136024515Y-100750000D01*
X136024515Y-101195000D01*
X135295757Y-101195000D01*
X133640485Y-99539729D01*
X133640485Y-99510000D01*
X133620961Y-99406238D01*
X133606685Y-99384053D01*
X133635000Y-99315695D01*
X133635000Y-99174863D01*
X133785899Y-99174863D01*
X133874013Y-99388114D01*
X134037027Y-99551413D01*
X134250125Y-99639899D01*
X134480863Y-99640101D01*
X134694114Y-99551987D01*
X134857413Y-99388973D01*
X134945899Y-99175875D01*
X134946000Y-99060000D01*
X136007862Y-99060000D01*
X136093878Y-99492432D01*
X136338831Y-99859031D01*
X136705430Y-100103984D01*
X137137862Y-100190000D01*
X137182138Y-100190000D01*
X137614570Y-100103984D01*
X137981169Y-99859031D01*
X138226122Y-99492432D01*
X138312138Y-99060000D01*
X138226122Y-98627568D01*
X137981169Y-98260969D01*
X137614570Y-98016016D01*
X137182138Y-97930000D01*
X137137862Y-97930000D01*
X136705430Y-98016016D01*
X136338831Y-98260969D01*
X136093878Y-98627568D01*
X136007862Y-99060000D01*
X134946000Y-99060000D01*
X134946101Y-98945137D01*
X134857987Y-98731886D01*
X134694973Y-98568587D01*
X134481875Y-98480101D01*
X134251137Y-98479899D01*
X134037886Y-98568013D01*
X133874587Y-98731027D01*
X133786101Y-98944125D01*
X133785899Y-99174863D01*
X133635000Y-99174863D01*
X133635000Y-99150000D01*
X133565000Y-99080000D01*
X133050000Y-99080000D01*
X133050000Y-99100000D01*
X133010000Y-99100000D01*
X133010000Y-99080000D01*
X132990000Y-99080000D01*
X132990000Y-99040000D01*
X133010000Y-99040000D01*
X133010000Y-99020000D01*
X133050000Y-99020000D01*
X133050000Y-99040000D01*
X133565000Y-99040000D01*
X133635000Y-98970000D01*
X133635000Y-98804305D01*
X133607117Y-98736988D01*
X133617993Y-98721070D01*
X133640485Y-98610000D01*
X133640485Y-98580271D01*
X135295757Y-96925000D01*
X136088421Y-96925000D01*
X136093878Y-96952432D01*
X136338831Y-97319031D01*
X136705430Y-97563984D01*
X137137862Y-97650000D01*
X137182138Y-97650000D01*
X137614570Y-97563984D01*
X137981169Y-97319031D01*
X138226122Y-96952432D01*
X138312138Y-96520000D01*
X138226122Y-96087568D01*
X137981169Y-95720969D01*
X137614570Y-95476016D01*
X137182138Y-95390000D01*
X137137862Y-95390000D01*
X136705430Y-95476016D01*
X136338831Y-95720969D01*
X136093878Y-96087568D01*
X136088421Y-96115000D01*
X135128000Y-96115000D01*
X134973013Y-96145829D01*
X134920386Y-96180994D01*
X134841622Y-96233621D01*
X133150729Y-97924515D01*
X132705000Y-97924515D01*
X132601238Y-97944039D01*
X132505940Y-98005362D01*
X132442007Y-98098930D01*
X132419515Y-98210000D01*
X132419515Y-98594174D01*
X132393973Y-98568587D01*
X132180875Y-98480101D01*
X131950137Y-98479899D01*
X131740485Y-98566526D01*
X131740485Y-98210000D01*
X131720961Y-98106238D01*
X131659638Y-98010940D01*
X131566070Y-97947007D01*
X131455000Y-97924515D01*
X131009272Y-97924515D01*
X129318378Y-96233622D01*
X129318377Y-96233621D01*
X129186987Y-96145829D01*
X129032000Y-96115000D01*
X128071579Y-96115000D01*
X128066122Y-96087568D01*
X127821169Y-95720969D01*
X127454570Y-95476016D01*
X127022138Y-95390000D01*
X126977862Y-95390000D01*
X126545430Y-95476016D01*
X126178831Y-95720969D01*
X125933878Y-96087568D01*
X125847862Y-96520000D01*
X125831000Y-96520000D01*
X125831000Y-93980000D01*
X125847862Y-93980000D01*
X125933878Y-94412432D01*
X126178831Y-94779031D01*
X126545430Y-95023984D01*
X126977862Y-95110000D01*
X127022138Y-95110000D01*
X127454570Y-95023984D01*
X127821169Y-94779031D01*
X128066122Y-94412432D01*
X128071579Y-94385000D01*
X131132881Y-94385000D01*
X131206299Y-94562686D01*
X131495790Y-94852682D01*
X131874221Y-95009821D01*
X132283981Y-95010179D01*
X132662686Y-94853701D01*
X132829588Y-94687089D01*
X136481195Y-94687089D01*
X136559012Y-94841214D01*
X136934332Y-95005646D01*
X137344008Y-95013933D01*
X137725670Y-94864813D01*
X137760988Y-94841214D01*
X137838805Y-94687089D01*
X137160000Y-94008284D01*
X136481195Y-94687089D01*
X132829588Y-94687089D01*
X132952682Y-94564210D01*
X133109821Y-94185779D01*
X133109840Y-94164008D01*
X136126067Y-94164008D01*
X136275187Y-94545670D01*
X136298786Y-94580988D01*
X136452911Y-94658805D01*
X137131716Y-93980000D01*
X137188284Y-93980000D01*
X137867089Y-94658805D01*
X138021214Y-94580988D01*
X138185646Y-94205668D01*
X138193933Y-93795992D01*
X138044813Y-93414330D01*
X138021214Y-93379012D01*
X137867089Y-93301195D01*
X137188284Y-93980000D01*
X137131716Y-93980000D01*
X136452911Y-93301195D01*
X136298786Y-93379012D01*
X136134354Y-93754332D01*
X136126067Y-94164008D01*
X133109840Y-94164008D01*
X133110179Y-93776019D01*
X132953701Y-93397314D01*
X132829515Y-93272911D01*
X136481195Y-93272911D01*
X137160000Y-93951716D01*
X137838805Y-93272911D01*
X137760988Y-93118786D01*
X137385668Y-92954354D01*
X136975992Y-92946067D01*
X136594330Y-93095187D01*
X136559012Y-93118786D01*
X136481195Y-93272911D01*
X132829515Y-93272911D01*
X132664210Y-93107318D01*
X132285779Y-92950179D01*
X131876019Y-92949821D01*
X131497314Y-93106299D01*
X131207318Y-93395790D01*
X131132903Y-93575000D01*
X128071579Y-93575000D01*
X128066122Y-93547568D01*
X127821169Y-93180969D01*
X127454570Y-92936016D01*
X127022138Y-92850000D01*
X126977862Y-92850000D01*
X126545430Y-92936016D01*
X126178831Y-93180969D01*
X125933878Y-93547568D01*
X125847862Y-93980000D01*
X125831000Y-93980000D01*
X125831000Y-92811000D01*
X138329000Y-92811000D01*
X138329000Y-102769000D01*
X138329000Y-102769000D01*
G37*
X138329000Y-102769000D02*
X125831000Y-102769000D01*
X125831000Y-99256497D01*
X125887216Y-99256497D01*
X125896724Y-99304305D01*
X126074197Y-99707914D01*
X126392616Y-100012884D01*
X126803503Y-100172786D01*
X126980000Y-100119825D01*
X126980000Y-99080000D01*
X127020000Y-99080000D01*
X127020000Y-100119825D01*
X127196497Y-100172786D01*
X127607384Y-100012884D01*
X127925803Y-99707914D01*
X128103276Y-99304305D01*
X128112784Y-99256497D01*
X128059811Y-99080000D01*
X127020000Y-99080000D01*
X126980000Y-99080000D01*
X125940189Y-99080000D01*
X125887216Y-99256497D01*
X125831000Y-99256497D01*
X125831000Y-98863503D01*
X125887216Y-98863503D01*
X125940189Y-99040000D01*
X126980000Y-99040000D01*
X126980000Y-98000175D01*
X127020000Y-98000175D01*
X127020000Y-99040000D01*
X128059811Y-99040000D01*
X128112784Y-98863503D01*
X128103276Y-98815695D01*
X127925803Y-98412086D01*
X127607384Y-98107116D01*
X127196497Y-97947214D01*
X127020000Y-98000175D01*
X126980000Y-98000175D01*
X126803503Y-97947214D01*
X126392616Y-98107116D01*
X126074197Y-98412086D01*
X125896724Y-98815695D01*
X125887216Y-98863503D01*
X125831000Y-98863503D01*
X125831000Y-96520000D01*
X125847862Y-96520000D01*
X125933878Y-96952432D01*
X126178831Y-97319031D01*
X126545430Y-97563984D01*
X126977862Y-97650000D01*
X127022138Y-97650000D01*
X127454570Y-97563984D01*
X127821169Y-97319031D01*
X128066122Y-96952432D01*
X128071579Y-96925000D01*
X128864244Y-96925000D01*
X130519515Y-98580272D01*
X130519515Y-98610000D01*
X130539039Y-98713762D01*
X130552133Y-98734110D01*
X130542007Y-98748930D01*
X130519515Y-98860000D01*
X130519515Y-99260000D01*
X130539039Y-99363762D01*
X130552133Y-99384110D01*
X130542007Y-99398930D01*
X130519515Y-99510000D01*
X130519515Y-99539728D01*
X128864244Y-101195000D01*
X128135485Y-101195000D01*
X128135485Y-100750000D01*
X128115961Y-100646238D01*
X128054638Y-100550940D01*
X127961070Y-100487007D01*
X127850000Y-100464515D01*
X126150000Y-100464515D01*
X126046238Y-100484039D01*
X125950940Y-100545362D01*
X125887007Y-100638930D01*
X125864515Y-100750000D01*
X125864515Y-102450000D01*
X125884039Y-102553762D01*
X125945362Y-102649060D01*
X126038930Y-102712993D01*
X126150000Y-102735485D01*
X127850000Y-102735485D01*
X127953762Y-102715961D01*
X128049060Y-102654638D01*
X128112993Y-102561070D01*
X128135485Y-102450000D01*
X128135485Y-102005000D01*
X129032000Y-102005000D01*
X129186987Y-101974171D01*
X129318378Y-101886378D01*
X131009272Y-100195485D01*
X131455000Y-100195485D01*
X131558762Y-100175961D01*
X131654060Y-100114638D01*
X131717993Y-100021070D01*
X131740485Y-99910000D01*
X131740485Y-99553264D01*
X131949125Y-99639899D01*
X132179863Y-99640101D01*
X132393114Y-99551987D01*
X132419515Y-99525632D01*
X132419515Y-99910000D01*
X132439039Y-100013762D01*
X132500362Y-100109060D01*
X132593930Y-100172993D01*
X132705000Y-100195485D01*
X133150729Y-100195485D01*
X134841622Y-101886379D01*
X134920386Y-101939006D01*
X134973013Y-101974171D01*
X135128000Y-102005000D01*
X136024515Y-102005000D01*
X136024515Y-102450000D01*
X136044039Y-102553762D01*
X136105362Y-102649060D01*
X136198930Y-102712993D01*
X136310000Y-102735485D01*
X138010000Y-102735485D01*
X138113762Y-102715961D01*
X138209060Y-102654638D01*
X138272993Y-102561070D01*
X138295485Y-102450000D01*
X138295485Y-100750000D01*
X138275961Y-100646238D01*
X138214638Y-100550940D01*
X138121070Y-100487007D01*
X138010000Y-100464515D01*
X136310000Y-100464515D01*
X136206238Y-100484039D01*
X136110940Y-100545362D01*
X136047007Y-100638930D01*
X136024515Y-100750000D01*
X136024515Y-101195000D01*
X135295757Y-101195000D01*
X133640485Y-99539729D01*
X133640485Y-99510000D01*
X133620961Y-99406238D01*
X133606685Y-99384053D01*
X133635000Y-99315695D01*
X133635000Y-99174863D01*
X133785899Y-99174863D01*
X133874013Y-99388114D01*
X134037027Y-99551413D01*
X134250125Y-99639899D01*
X134480863Y-99640101D01*
X134694114Y-99551987D01*
X134857413Y-99388973D01*
X134945899Y-99175875D01*
X134946000Y-99060000D01*
X136007862Y-99060000D01*
X136093878Y-99492432D01*
X136338831Y-99859031D01*
X136705430Y-100103984D01*
X137137862Y-100190000D01*
X137182138Y-100190000D01*
X137614570Y-100103984D01*
X137981169Y-99859031D01*
X138226122Y-99492432D01*
X138312138Y-99060000D01*
X138226122Y-98627568D01*
X137981169Y-98260969D01*
X137614570Y-98016016D01*
X137182138Y-97930000D01*
X137137862Y-97930000D01*
X136705430Y-98016016D01*
X136338831Y-98260969D01*
X136093878Y-98627568D01*
X136007862Y-99060000D01*
X134946000Y-99060000D01*
X134946101Y-98945137D01*
X134857987Y-98731886D01*
X134694973Y-98568587D01*
X134481875Y-98480101D01*
X134251137Y-98479899D01*
X134037886Y-98568013D01*
X133874587Y-98731027D01*
X133786101Y-98944125D01*
X133785899Y-99174863D01*
X133635000Y-99174863D01*
X133635000Y-99150000D01*
X133565000Y-99080000D01*
X133050000Y-99080000D01*
X133050000Y-99100000D01*
X133010000Y-99100000D01*
X133010000Y-99080000D01*
X132990000Y-99080000D01*
X132990000Y-99040000D01*
X133010000Y-99040000D01*
X133010000Y-99020000D01*
X133050000Y-99020000D01*
X133050000Y-99040000D01*
X133565000Y-99040000D01*
X133635000Y-98970000D01*
X133635000Y-98804305D01*
X133607117Y-98736988D01*
X133617993Y-98721070D01*
X133640485Y-98610000D01*
X133640485Y-98580271D01*
X135295757Y-96925000D01*
X136088421Y-96925000D01*
X136093878Y-96952432D01*
X136338831Y-97319031D01*
X136705430Y-97563984D01*
X137137862Y-97650000D01*
X137182138Y-97650000D01*
X137614570Y-97563984D01*
X137981169Y-97319031D01*
X138226122Y-96952432D01*
X138312138Y-96520000D01*
X138226122Y-96087568D01*
X137981169Y-95720969D01*
X137614570Y-95476016D01*
X137182138Y-95390000D01*
X137137862Y-95390000D01*
X136705430Y-95476016D01*
X136338831Y-95720969D01*
X136093878Y-96087568D01*
X136088421Y-96115000D01*
X135128000Y-96115000D01*
X134973013Y-96145829D01*
X134920386Y-96180994D01*
X134841622Y-96233621D01*
X133150729Y-97924515D01*
X132705000Y-97924515D01*
X132601238Y-97944039D01*
X132505940Y-98005362D01*
X132442007Y-98098930D01*
X132419515Y-98210000D01*
X132419515Y-98594174D01*
X132393973Y-98568587D01*
X132180875Y-98480101D01*
X131950137Y-98479899D01*
X131740485Y-98566526D01*
X131740485Y-98210000D01*
X131720961Y-98106238D01*
X131659638Y-98010940D01*
X131566070Y-97947007D01*
X131455000Y-97924515D01*
X131009272Y-97924515D01*
X129318378Y-96233622D01*
X129318377Y-96233621D01*
X129186987Y-96145829D01*
X129032000Y-96115000D01*
X128071579Y-96115000D01*
X128066122Y-96087568D01*
X127821169Y-95720969D01*
X127454570Y-95476016D01*
X127022138Y-95390000D01*
X126977862Y-95390000D01*
X126545430Y-95476016D01*
X126178831Y-95720969D01*
X125933878Y-96087568D01*
X125847862Y-96520000D01*
X125831000Y-96520000D01*
X125831000Y-93980000D01*
X125847862Y-93980000D01*
X125933878Y-94412432D01*
X126178831Y-94779031D01*
X126545430Y-95023984D01*
X126977862Y-95110000D01*
X127022138Y-95110000D01*
X127454570Y-95023984D01*
X127821169Y-94779031D01*
X128066122Y-94412432D01*
X128071579Y-94385000D01*
X131132881Y-94385000D01*
X131206299Y-94562686D01*
X131495790Y-94852682D01*
X131874221Y-95009821D01*
X132283981Y-95010179D01*
X132662686Y-94853701D01*
X132829588Y-94687089D01*
X136481195Y-94687089D01*
X136559012Y-94841214D01*
X136934332Y-95005646D01*
X137344008Y-95013933D01*
X137725670Y-94864813D01*
X137760988Y-94841214D01*
X137838805Y-94687089D01*
X137160000Y-94008284D01*
X136481195Y-94687089D01*
X132829588Y-94687089D01*
X132952682Y-94564210D01*
X133109821Y-94185779D01*
X133109840Y-94164008D01*
X136126067Y-94164008D01*
X136275187Y-94545670D01*
X136298786Y-94580988D01*
X136452911Y-94658805D01*
X137131716Y-93980000D01*
X137188284Y-93980000D01*
X137867089Y-94658805D01*
X138021214Y-94580988D01*
X138185646Y-94205668D01*
X138193933Y-93795992D01*
X138044813Y-93414330D01*
X138021214Y-93379012D01*
X137867089Y-93301195D01*
X137188284Y-93980000D01*
X137131716Y-93980000D01*
X136452911Y-93301195D01*
X136298786Y-93379012D01*
X136134354Y-93754332D01*
X136126067Y-94164008D01*
X133109840Y-94164008D01*
X133110179Y-93776019D01*
X132953701Y-93397314D01*
X132829515Y-93272911D01*
X136481195Y-93272911D01*
X137160000Y-93951716D01*
X137838805Y-93272911D01*
X137760988Y-93118786D01*
X137385668Y-92954354D01*
X136975992Y-92946067D01*
X136594330Y-93095187D01*
X136559012Y-93118786D01*
X136481195Y-93272911D01*
X132829515Y-93272911D01*
X132664210Y-93107318D01*
X132285779Y-92950179D01*
X131876019Y-92949821D01*
X131497314Y-93106299D01*
X131207318Y-93395790D01*
X131132903Y-93575000D01*
X128071579Y-93575000D01*
X128066122Y-93547568D01*
X127821169Y-93180969D01*
X127454570Y-92936016D01*
X127022138Y-92850000D01*
X126977862Y-92850000D01*
X126545430Y-92936016D01*
X126178831Y-93180969D01*
X125933878Y-93547568D01*
X125847862Y-93980000D01*
X125831000Y-93980000D01*
X125831000Y-92811000D01*
X138329000Y-92811000D01*
X138329000Y-102769000D01*
M02*
