%TF.GenerationSoftware,KiCad,Pcbnew,4.0.4-stable*%
%TF.CreationDate,2017-03-14T02:45:12+02:00*%
%TF.ProjectId,zerophone_audio_buffer,7A65726F70686F6E655F617564696F5F,rev?*%
%TF.FileFunction,Copper,L2,Bot,Signal*%
%FSLAX46Y46*%
G04 Gerber Fmt 4.6, Leading zero omitted, Abs format (unit mm)*
G04 Created by KiCad (PCBNEW 4.0.4-stable) date 03/14/17 02:45:12*
%MOMM*%
%LPD*%
G01*
G04 APERTURE LIST*
%ADD10C,0.200000*%
%ADD11R,1.500000X1.250000*%
%ADD12R,1.700000X1.700000*%
%ADD13O,1.700000X1.700000*%
%ADD14R,3.400000X1.600000*%
%ADD15R,1.500000X2.000000*%
%ADD16C,0.600000*%
%ADD17C,0.500000*%
%ADD18C,1.000000*%
%ADD19C,0.100000*%
G04 APERTURE END LIST*
D10*
D11*
X133604000Y-93472000D03*
X131104000Y-93472000D03*
D12*
X137160000Y-101600000D03*
D13*
X137160000Y-99060000D03*
X137160000Y-96520000D03*
D12*
X127000000Y-101600000D03*
D13*
X127000000Y-99060000D03*
X127000000Y-96520000D03*
X127000000Y-93980000D03*
D14*
X132080000Y-102025000D03*
D15*
X132080000Y-95910000D03*
X134380000Y-95910000D03*
X129780000Y-95910000D03*
D16*
X134366000Y-99060000D03*
X137160000Y-93980000D03*
X132065000Y-99060000D03*
D17*
X132080000Y-102025000D02*
X132080000Y-99075000D01*
X132080000Y-99075000D02*
X132065000Y-99060000D01*
X132080000Y-97410000D02*
X132065000Y-97425000D01*
X132065000Y-97425000D02*
X132065000Y-99060000D01*
X133604000Y-93472000D02*
X132080000Y-94996000D01*
X132080000Y-94996000D02*
X132080000Y-95910000D01*
X132080000Y-95910000D02*
X132080000Y-97410000D01*
X130830000Y-102108000D02*
X130830000Y-101834000D01*
D18*
X137160000Y-99060000D02*
X134380000Y-96280000D01*
X134380000Y-96280000D02*
X134380000Y-95910000D01*
D19*
G36*
X138359000Y-102799000D02*
X134034897Y-102799000D01*
X134034897Y-101225000D01*
X134017465Y-101132356D01*
X133962712Y-101047268D01*
X133879169Y-100990185D01*
X133780000Y-100970103D01*
X132580000Y-100970103D01*
X132580000Y-100750000D01*
X136055103Y-100750000D01*
X136055103Y-102450000D01*
X136072535Y-102542644D01*
X136127288Y-102627732D01*
X136210831Y-102684815D01*
X136310000Y-102704897D01*
X138010000Y-102704897D01*
X138102644Y-102687465D01*
X138187732Y-102632712D01*
X138244815Y-102549169D01*
X138264897Y-102450000D01*
X138264897Y-100750000D01*
X138247465Y-100657356D01*
X138192712Y-100572268D01*
X138109169Y-100515185D01*
X138010000Y-100495103D01*
X136310000Y-100495103D01*
X136217356Y-100512535D01*
X136132268Y-100567288D01*
X136075185Y-100650831D01*
X136055103Y-100750000D01*
X132580000Y-100750000D01*
X132580000Y-99253940D01*
X132614904Y-99169882D01*
X132614904Y-99168922D01*
X133815905Y-99168922D01*
X133899461Y-99371143D01*
X134054043Y-99525995D01*
X134256118Y-99609904D01*
X134474922Y-99610095D01*
X134677143Y-99526539D01*
X134831995Y-99371957D01*
X134915904Y-99169882D01*
X134916095Y-98951078D01*
X134832539Y-98748857D01*
X134677957Y-98594005D01*
X134475882Y-98510096D01*
X134257078Y-98509905D01*
X134054857Y-98593461D01*
X133900005Y-98748043D01*
X133816096Y-98950118D01*
X133815905Y-99168922D01*
X132614904Y-99168922D01*
X132615095Y-98951078D01*
X132565000Y-98829839D01*
X132565000Y-97485411D01*
X132580000Y-97410000D01*
X132580000Y-97164897D01*
X132830000Y-97164897D01*
X132922644Y-97147465D01*
X133007732Y-97092712D01*
X133064815Y-97009169D01*
X133084897Y-96910000D01*
X133084897Y-94910000D01*
X133375103Y-94910000D01*
X133375103Y-96910000D01*
X133392535Y-97002644D01*
X133447288Y-97087732D01*
X133530831Y-97144815D01*
X133630000Y-97164897D01*
X134204237Y-97164897D01*
X136048552Y-99009212D01*
X136038450Y-99060000D01*
X136122183Y-99480952D01*
X136360633Y-99837817D01*
X136717498Y-100076267D01*
X137138450Y-100160000D01*
X137181550Y-100160000D01*
X137602502Y-100076267D01*
X137959367Y-99837817D01*
X138197817Y-99480952D01*
X138281550Y-99060000D01*
X138197817Y-98639048D01*
X137959367Y-98282183D01*
X137602502Y-98043733D01*
X137181550Y-97960000D01*
X137138450Y-97960000D01*
X137123612Y-97962952D01*
X136655504Y-97494844D01*
X136717498Y-97536267D01*
X137138450Y-97620000D01*
X137181550Y-97620000D01*
X137602502Y-97536267D01*
X137959367Y-97297817D01*
X138197817Y-96940952D01*
X138281550Y-96520000D01*
X138197817Y-96099048D01*
X137959367Y-95742183D01*
X137602502Y-95503733D01*
X137181550Y-95420000D01*
X137138450Y-95420000D01*
X136717498Y-95503733D01*
X136360633Y-95742183D01*
X136122183Y-96099048D01*
X136038450Y-96520000D01*
X136122183Y-96940952D01*
X136163606Y-97002946D01*
X135384897Y-96224237D01*
X135384897Y-94910000D01*
X135367465Y-94817356D01*
X135312712Y-94732268D01*
X135229169Y-94675185D01*
X135130000Y-94655103D01*
X133630000Y-94655103D01*
X133537356Y-94672535D01*
X133452268Y-94727288D01*
X133395185Y-94810831D01*
X133375103Y-94910000D01*
X133084897Y-94910000D01*
X133067465Y-94817356D01*
X133027640Y-94755466D01*
X133431210Y-94351897D01*
X134354000Y-94351897D01*
X134446644Y-94334465D01*
X134531732Y-94279712D01*
X134588815Y-94196169D01*
X134608897Y-94097000D01*
X134608897Y-92847000D01*
X134596478Y-92781000D01*
X138359000Y-92781000D01*
X138359000Y-102799000D01*
X138359000Y-102799000D01*
G37*
X138359000Y-102799000D02*
X134034897Y-102799000D01*
X134034897Y-101225000D01*
X134017465Y-101132356D01*
X133962712Y-101047268D01*
X133879169Y-100990185D01*
X133780000Y-100970103D01*
X132580000Y-100970103D01*
X132580000Y-100750000D01*
X136055103Y-100750000D01*
X136055103Y-102450000D01*
X136072535Y-102542644D01*
X136127288Y-102627732D01*
X136210831Y-102684815D01*
X136310000Y-102704897D01*
X138010000Y-102704897D01*
X138102644Y-102687465D01*
X138187732Y-102632712D01*
X138244815Y-102549169D01*
X138264897Y-102450000D01*
X138264897Y-100750000D01*
X138247465Y-100657356D01*
X138192712Y-100572268D01*
X138109169Y-100515185D01*
X138010000Y-100495103D01*
X136310000Y-100495103D01*
X136217356Y-100512535D01*
X136132268Y-100567288D01*
X136075185Y-100650831D01*
X136055103Y-100750000D01*
X132580000Y-100750000D01*
X132580000Y-99253940D01*
X132614904Y-99169882D01*
X132614904Y-99168922D01*
X133815905Y-99168922D01*
X133899461Y-99371143D01*
X134054043Y-99525995D01*
X134256118Y-99609904D01*
X134474922Y-99610095D01*
X134677143Y-99526539D01*
X134831995Y-99371957D01*
X134915904Y-99169882D01*
X134916095Y-98951078D01*
X134832539Y-98748857D01*
X134677957Y-98594005D01*
X134475882Y-98510096D01*
X134257078Y-98509905D01*
X134054857Y-98593461D01*
X133900005Y-98748043D01*
X133816096Y-98950118D01*
X133815905Y-99168922D01*
X132614904Y-99168922D01*
X132615095Y-98951078D01*
X132565000Y-98829839D01*
X132565000Y-97485411D01*
X132580000Y-97410000D01*
X132580000Y-97164897D01*
X132830000Y-97164897D01*
X132922644Y-97147465D01*
X133007732Y-97092712D01*
X133064815Y-97009169D01*
X133084897Y-96910000D01*
X133084897Y-94910000D01*
X133375103Y-94910000D01*
X133375103Y-96910000D01*
X133392535Y-97002644D01*
X133447288Y-97087732D01*
X133530831Y-97144815D01*
X133630000Y-97164897D01*
X134204237Y-97164897D01*
X136048552Y-99009212D01*
X136038450Y-99060000D01*
X136122183Y-99480952D01*
X136360633Y-99837817D01*
X136717498Y-100076267D01*
X137138450Y-100160000D01*
X137181550Y-100160000D01*
X137602502Y-100076267D01*
X137959367Y-99837817D01*
X138197817Y-99480952D01*
X138281550Y-99060000D01*
X138197817Y-98639048D01*
X137959367Y-98282183D01*
X137602502Y-98043733D01*
X137181550Y-97960000D01*
X137138450Y-97960000D01*
X137123612Y-97962952D01*
X136655504Y-97494844D01*
X136717498Y-97536267D01*
X137138450Y-97620000D01*
X137181550Y-97620000D01*
X137602502Y-97536267D01*
X137959367Y-97297817D01*
X138197817Y-96940952D01*
X138281550Y-96520000D01*
X138197817Y-96099048D01*
X137959367Y-95742183D01*
X137602502Y-95503733D01*
X137181550Y-95420000D01*
X137138450Y-95420000D01*
X136717498Y-95503733D01*
X136360633Y-95742183D01*
X136122183Y-96099048D01*
X136038450Y-96520000D01*
X136122183Y-96940952D01*
X136163606Y-97002946D01*
X135384897Y-96224237D01*
X135384897Y-94910000D01*
X135367465Y-94817356D01*
X135312712Y-94732268D01*
X135229169Y-94675185D01*
X135130000Y-94655103D01*
X133630000Y-94655103D01*
X133537356Y-94672535D01*
X133452268Y-94727288D01*
X133395185Y-94810831D01*
X133375103Y-94910000D01*
X133084897Y-94910000D01*
X133067465Y-94817356D01*
X133027640Y-94755466D01*
X133431210Y-94351897D01*
X134354000Y-94351897D01*
X134446644Y-94334465D01*
X134531732Y-94279712D01*
X134588815Y-94196169D01*
X134608897Y-94097000D01*
X134608897Y-92847000D01*
X134596478Y-92781000D01*
X138359000Y-92781000D01*
X138359000Y-102799000D01*
G36*
X130104000Y-92797272D02*
X130104000Y-93359500D01*
X130166500Y-93422000D01*
X131054000Y-93422000D01*
X131054000Y-93402000D01*
X131154000Y-93402000D01*
X131154000Y-93422000D01*
X132041500Y-93422000D01*
X132104000Y-93359500D01*
X132104000Y-92797272D01*
X132097260Y-92781000D01*
X132612468Y-92781000D01*
X132599103Y-92847000D01*
X132599103Y-93769790D01*
X131726447Y-94642447D01*
X131717990Y-94655103D01*
X131330000Y-94655103D01*
X131237356Y-94672535D01*
X131152268Y-94727288D01*
X131095185Y-94810831D01*
X131075103Y-94910000D01*
X131075103Y-96910000D01*
X131092535Y-97002644D01*
X131147288Y-97087732D01*
X131230831Y-97144815D01*
X131330000Y-97164897D01*
X131580000Y-97164897D01*
X131580000Y-97349589D01*
X131565000Y-97425000D01*
X131565000Y-98829936D01*
X131515096Y-98950118D01*
X131514905Y-99168922D01*
X131580000Y-99326464D01*
X131580000Y-100970103D01*
X130380000Y-100970103D01*
X130287356Y-100987535D01*
X130202268Y-101042288D01*
X130145185Y-101125831D01*
X130125103Y-101225000D01*
X130125103Y-102799000D01*
X125801000Y-102799000D01*
X125801000Y-100750000D01*
X125895103Y-100750000D01*
X125895103Y-102450000D01*
X125912535Y-102542644D01*
X125967288Y-102627732D01*
X126050831Y-102684815D01*
X126150000Y-102704897D01*
X127850000Y-102704897D01*
X127942644Y-102687465D01*
X128027732Y-102632712D01*
X128084815Y-102549169D01*
X128104897Y-102450000D01*
X128104897Y-100750000D01*
X128087465Y-100657356D01*
X128032712Y-100572268D01*
X127949169Y-100515185D01*
X127850000Y-100495103D01*
X126150000Y-100495103D01*
X126057356Y-100512535D01*
X125972268Y-100567288D01*
X125915185Y-100650831D01*
X125895103Y-100750000D01*
X125801000Y-100750000D01*
X125801000Y-99281284D01*
X125922488Y-99281284D01*
X126081608Y-99665447D01*
X126383211Y-99970814D01*
X126778715Y-100137517D01*
X126950000Y-100096368D01*
X126950000Y-99110000D01*
X127050000Y-99110000D01*
X127050000Y-100096368D01*
X127221285Y-100137517D01*
X127616789Y-99970814D01*
X127918392Y-99665447D01*
X128077512Y-99281284D01*
X128036294Y-99110000D01*
X127050000Y-99110000D01*
X126950000Y-99110000D01*
X125963706Y-99110000D01*
X125922488Y-99281284D01*
X125801000Y-99281284D01*
X125801000Y-98838716D01*
X125922488Y-98838716D01*
X125963706Y-99010000D01*
X126950000Y-99010000D01*
X126950000Y-98023632D01*
X127050000Y-98023632D01*
X127050000Y-99010000D01*
X128036294Y-99010000D01*
X128077512Y-98838716D01*
X127918392Y-98454553D01*
X127616789Y-98149186D01*
X127221285Y-97982483D01*
X127050000Y-98023632D01*
X126950000Y-98023632D01*
X126778715Y-97982483D01*
X126383211Y-98149186D01*
X126081608Y-98454553D01*
X125922488Y-98838716D01*
X125801000Y-98838716D01*
X125801000Y-96520000D01*
X125878450Y-96520000D01*
X125962183Y-96940952D01*
X126200633Y-97297817D01*
X126557498Y-97536267D01*
X126978450Y-97620000D01*
X127021550Y-97620000D01*
X127442502Y-97536267D01*
X127799367Y-97297817D01*
X128037817Y-96940952D01*
X128121550Y-96520000D01*
X128037817Y-96099048D01*
X127986670Y-96022500D01*
X128780000Y-96022500D01*
X128780000Y-96959728D01*
X128818060Y-97051614D01*
X128888386Y-97121940D01*
X128980272Y-97160000D01*
X129667500Y-97160000D01*
X129730000Y-97097500D01*
X129730000Y-95960000D01*
X129830000Y-95960000D01*
X129830000Y-97097500D01*
X129892500Y-97160000D01*
X130579728Y-97160000D01*
X130671614Y-97121940D01*
X130741940Y-97051614D01*
X130780000Y-96959728D01*
X130780000Y-96022500D01*
X130717500Y-95960000D01*
X129830000Y-95960000D01*
X129730000Y-95960000D01*
X128842500Y-95960000D01*
X128780000Y-96022500D01*
X127986670Y-96022500D01*
X127799367Y-95742183D01*
X127442502Y-95503733D01*
X127021550Y-95420000D01*
X126978450Y-95420000D01*
X126557498Y-95503733D01*
X126200633Y-95742183D01*
X125962183Y-96099048D01*
X125878450Y-96520000D01*
X125801000Y-96520000D01*
X125801000Y-93980000D01*
X125878450Y-93980000D01*
X125962183Y-94400952D01*
X126200633Y-94757817D01*
X126557498Y-94996267D01*
X126978450Y-95080000D01*
X127021550Y-95080000D01*
X127442502Y-94996267D01*
X127646032Y-94860272D01*
X128780000Y-94860272D01*
X128780000Y-95797500D01*
X128842500Y-95860000D01*
X129730000Y-95860000D01*
X129730000Y-94722500D01*
X129830000Y-94722500D01*
X129830000Y-95860000D01*
X130717500Y-95860000D01*
X130780000Y-95797500D01*
X130780000Y-94860272D01*
X130741940Y-94768386D01*
X130671614Y-94698060D01*
X130579728Y-94660000D01*
X129892500Y-94660000D01*
X129830000Y-94722500D01*
X129730000Y-94722500D01*
X129667500Y-94660000D01*
X128980272Y-94660000D01*
X128888386Y-94698060D01*
X128818060Y-94768386D01*
X128780000Y-94860272D01*
X127646032Y-94860272D01*
X127799367Y-94757817D01*
X128037817Y-94400952D01*
X128121550Y-93980000D01*
X128042880Y-93584500D01*
X130104000Y-93584500D01*
X130104000Y-94146728D01*
X130142060Y-94238614D01*
X130212386Y-94308940D01*
X130304272Y-94347000D01*
X130991500Y-94347000D01*
X131054000Y-94284500D01*
X131054000Y-93522000D01*
X131154000Y-93522000D01*
X131154000Y-94284500D01*
X131216500Y-94347000D01*
X131903728Y-94347000D01*
X131995614Y-94308940D01*
X132065940Y-94238614D01*
X132104000Y-94146728D01*
X132104000Y-93584500D01*
X132041500Y-93522000D01*
X131154000Y-93522000D01*
X131054000Y-93522000D01*
X130166500Y-93522000D01*
X130104000Y-93584500D01*
X128042880Y-93584500D01*
X128037817Y-93559048D01*
X127799367Y-93202183D01*
X127442502Y-92963733D01*
X127021550Y-92880000D01*
X126978450Y-92880000D01*
X126557498Y-92963733D01*
X126200633Y-93202183D01*
X125962183Y-93559048D01*
X125878450Y-93980000D01*
X125801000Y-93980000D01*
X125801000Y-92781000D01*
X130110740Y-92781000D01*
X130104000Y-92797272D01*
X130104000Y-92797272D01*
G37*
X130104000Y-92797272D02*
X130104000Y-93359500D01*
X130166500Y-93422000D01*
X131054000Y-93422000D01*
X131054000Y-93402000D01*
X131154000Y-93402000D01*
X131154000Y-93422000D01*
X132041500Y-93422000D01*
X132104000Y-93359500D01*
X132104000Y-92797272D01*
X132097260Y-92781000D01*
X132612468Y-92781000D01*
X132599103Y-92847000D01*
X132599103Y-93769790D01*
X131726447Y-94642447D01*
X131717990Y-94655103D01*
X131330000Y-94655103D01*
X131237356Y-94672535D01*
X131152268Y-94727288D01*
X131095185Y-94810831D01*
X131075103Y-94910000D01*
X131075103Y-96910000D01*
X131092535Y-97002644D01*
X131147288Y-97087732D01*
X131230831Y-97144815D01*
X131330000Y-97164897D01*
X131580000Y-97164897D01*
X131580000Y-97349589D01*
X131565000Y-97425000D01*
X131565000Y-98829936D01*
X131515096Y-98950118D01*
X131514905Y-99168922D01*
X131580000Y-99326464D01*
X131580000Y-100970103D01*
X130380000Y-100970103D01*
X130287356Y-100987535D01*
X130202268Y-101042288D01*
X130145185Y-101125831D01*
X130125103Y-101225000D01*
X130125103Y-102799000D01*
X125801000Y-102799000D01*
X125801000Y-100750000D01*
X125895103Y-100750000D01*
X125895103Y-102450000D01*
X125912535Y-102542644D01*
X125967288Y-102627732D01*
X126050831Y-102684815D01*
X126150000Y-102704897D01*
X127850000Y-102704897D01*
X127942644Y-102687465D01*
X128027732Y-102632712D01*
X128084815Y-102549169D01*
X128104897Y-102450000D01*
X128104897Y-100750000D01*
X128087465Y-100657356D01*
X128032712Y-100572268D01*
X127949169Y-100515185D01*
X127850000Y-100495103D01*
X126150000Y-100495103D01*
X126057356Y-100512535D01*
X125972268Y-100567288D01*
X125915185Y-100650831D01*
X125895103Y-100750000D01*
X125801000Y-100750000D01*
X125801000Y-99281284D01*
X125922488Y-99281284D01*
X126081608Y-99665447D01*
X126383211Y-99970814D01*
X126778715Y-100137517D01*
X126950000Y-100096368D01*
X126950000Y-99110000D01*
X127050000Y-99110000D01*
X127050000Y-100096368D01*
X127221285Y-100137517D01*
X127616789Y-99970814D01*
X127918392Y-99665447D01*
X128077512Y-99281284D01*
X128036294Y-99110000D01*
X127050000Y-99110000D01*
X126950000Y-99110000D01*
X125963706Y-99110000D01*
X125922488Y-99281284D01*
X125801000Y-99281284D01*
X125801000Y-98838716D01*
X125922488Y-98838716D01*
X125963706Y-99010000D01*
X126950000Y-99010000D01*
X126950000Y-98023632D01*
X127050000Y-98023632D01*
X127050000Y-99010000D01*
X128036294Y-99010000D01*
X128077512Y-98838716D01*
X127918392Y-98454553D01*
X127616789Y-98149186D01*
X127221285Y-97982483D01*
X127050000Y-98023632D01*
X126950000Y-98023632D01*
X126778715Y-97982483D01*
X126383211Y-98149186D01*
X126081608Y-98454553D01*
X125922488Y-98838716D01*
X125801000Y-98838716D01*
X125801000Y-96520000D01*
X125878450Y-96520000D01*
X125962183Y-96940952D01*
X126200633Y-97297817D01*
X126557498Y-97536267D01*
X126978450Y-97620000D01*
X127021550Y-97620000D01*
X127442502Y-97536267D01*
X127799367Y-97297817D01*
X128037817Y-96940952D01*
X128121550Y-96520000D01*
X128037817Y-96099048D01*
X127986670Y-96022500D01*
X128780000Y-96022500D01*
X128780000Y-96959728D01*
X128818060Y-97051614D01*
X128888386Y-97121940D01*
X128980272Y-97160000D01*
X129667500Y-97160000D01*
X129730000Y-97097500D01*
X129730000Y-95960000D01*
X129830000Y-95960000D01*
X129830000Y-97097500D01*
X129892500Y-97160000D01*
X130579728Y-97160000D01*
X130671614Y-97121940D01*
X130741940Y-97051614D01*
X130780000Y-96959728D01*
X130780000Y-96022500D01*
X130717500Y-95960000D01*
X129830000Y-95960000D01*
X129730000Y-95960000D01*
X128842500Y-95960000D01*
X128780000Y-96022500D01*
X127986670Y-96022500D01*
X127799367Y-95742183D01*
X127442502Y-95503733D01*
X127021550Y-95420000D01*
X126978450Y-95420000D01*
X126557498Y-95503733D01*
X126200633Y-95742183D01*
X125962183Y-96099048D01*
X125878450Y-96520000D01*
X125801000Y-96520000D01*
X125801000Y-93980000D01*
X125878450Y-93980000D01*
X125962183Y-94400952D01*
X126200633Y-94757817D01*
X126557498Y-94996267D01*
X126978450Y-95080000D01*
X127021550Y-95080000D01*
X127442502Y-94996267D01*
X127646032Y-94860272D01*
X128780000Y-94860272D01*
X128780000Y-95797500D01*
X128842500Y-95860000D01*
X129730000Y-95860000D01*
X129730000Y-94722500D01*
X129830000Y-94722500D01*
X129830000Y-95860000D01*
X130717500Y-95860000D01*
X130780000Y-95797500D01*
X130780000Y-94860272D01*
X130741940Y-94768386D01*
X130671614Y-94698060D01*
X130579728Y-94660000D01*
X129892500Y-94660000D01*
X129830000Y-94722500D01*
X129730000Y-94722500D01*
X129667500Y-94660000D01*
X128980272Y-94660000D01*
X128888386Y-94698060D01*
X128818060Y-94768386D01*
X128780000Y-94860272D01*
X127646032Y-94860272D01*
X127799367Y-94757817D01*
X128037817Y-94400952D01*
X128121550Y-93980000D01*
X128042880Y-93584500D01*
X130104000Y-93584500D01*
X130104000Y-94146728D01*
X130142060Y-94238614D01*
X130212386Y-94308940D01*
X130304272Y-94347000D01*
X130991500Y-94347000D01*
X131054000Y-94284500D01*
X131054000Y-93522000D01*
X131154000Y-93522000D01*
X131154000Y-94284500D01*
X131216500Y-94347000D01*
X131903728Y-94347000D01*
X131995614Y-94308940D01*
X132065940Y-94238614D01*
X132104000Y-94146728D01*
X132104000Y-93584500D01*
X132041500Y-93522000D01*
X131154000Y-93522000D01*
X131054000Y-93522000D01*
X130166500Y-93522000D01*
X130104000Y-93584500D01*
X128042880Y-93584500D01*
X128037817Y-93559048D01*
X127799367Y-93202183D01*
X127442502Y-92963733D01*
X127021550Y-92880000D01*
X126978450Y-92880000D01*
X126557498Y-92963733D01*
X126200633Y-93202183D01*
X125962183Y-93559048D01*
X125878450Y-93980000D01*
X125801000Y-93980000D01*
X125801000Y-92781000D01*
X130110740Y-92781000D01*
X130104000Y-92797272D01*
M02*
