%
M48
METRIC,000.000
T01C0.40
T02C0.76
T03C0.80
T04C1.00
T05C1.30
T06C2.30
T10C1.20
T11C1.60
T12C1.70
T13C3.00
T14C0.51
T15C1.50
%
T01
X061000Y096500
X061000Y094500
X061000Y092500
X061000Y090500
X061000Y088500
X061000Y086500
X061000Y084500
X061000Y082500
X061000Y080500
X061934Y027159
X062315Y059355
X062315Y056815
X062315Y054275
X062315Y051735
X062315Y049194
X062315Y046655
X062315Y044114
X062315Y041575
X062315Y039035
X062315Y036495
X062315Y033955
X062315Y031415
X062315Y028875
X063306Y062022
X063500Y099000
X063712Y064498
X064283Y065069
X064423Y063190
X064918Y065705
X065500Y099000
X065541Y064308
X065947Y094077
X066269Y065730
X067268Y073452
X067268Y072436
X067268Y071420
X067268Y070404
X067268Y069388
X067500Y099000
X068283Y073452
X068283Y072436
X068283Y071420
X068283Y070404
X068283Y069388
X069300Y073452
X069300Y072436
X069300Y071420
X069300Y070404
X069300Y069388
X069500Y099000
X070316Y073452
X070316Y072436
X070316Y071420
X070316Y070404
X070316Y069388
X070570Y091740
X071195Y078451
X071332Y073452
X071332Y072436
X071332Y071420
X071332Y070404
X071332Y069388
X071500Y099000
X071840Y093009
X073110Y094280
X073110Y091740
X073110Y086660
X073110Y084374
X073227Y062626
X073500Y099000
X073618Y037003
X073857Y075327
X074380Y093009
X074380Y090470
X074761Y080056
X075137Y075311
X075250Y068769
X075500Y099000
X075650Y094280
X075650Y091740
X075787Y063038
X076006Y079497
X076473Y075311
X076793Y074532
X076920Y095550
X076920Y093009
X076920Y090470
X077500Y099000
X077791Y020305
X078190Y096820
X078190Y094280
X078190Y091740
X078317Y078339
X079000Y099000
X079308Y080358
X079460Y095550
X079460Y093009
X079460Y090470
X079612Y069378
X079777Y071484
X080593Y084128
X080729Y096820
X080729Y094280
X080729Y091740
X080763Y080386
X080866Y069403
X081000Y099000
X081787Y084110
X082000Y095550
X082000Y093009
X082084Y080333
X082889Y084128
X083000Y099000
X083270Y096820
X083270Y094280
X083270Y091740
X083270Y002205
X083587Y042845
X083841Y007284
X084191Y020305
X084191Y018944
X084489Y062072
X084540Y093009
X085000Y099000
X085810Y002205
X087000Y099000
X088350Y061387
X088350Y002205
X089000Y099000
X089620Y083485
X089683Y079675
X089747Y080818
X090636Y063292
X090636Y060244
X090687Y076124
X090890Y002205
X091000Y099000
X091906Y076119
X092858Y076119
X093000Y099000
X093430Y092375
X093430Y091104
X093430Y089835
X093748Y076119
X094065Y002205
X094192Y063292
X094192Y060244
X094700Y092375
X094700Y091104
X094700Y089835
X094979Y069048
X095000Y099000
X095213Y045705
X095272Y008745
X095411Y054351
X095906Y045257
X095906Y018584
X095906Y007729
X095970Y092375
X095970Y091104
X095970Y089835
X096234Y072126
X096524Y051013
X096541Y019159
X096544Y047803
X096605Y002205
X096859Y045345
X096859Y041661
X097000Y099000
X097641Y076525
X097875Y018080
X097875Y015540
X097875Y013000
X097875Y010460
X097875Y007919
X097875Y003474
X098764Y054147
X099145Y051735
X099145Y049194
X099145Y046655
X099145Y044114
X099145Y041575
X099145Y039035
X099145Y036495
X099252Y076652
X033550Y073350
X035099Y075725
X035500Y078300
X040000Y077000
X040224Y072375
X040250Y075675
X042675Y078275
X043074Y076950
X007935Y043060
X005633Y043060
X002840Y037980
X032448Y006650
X030900Y004275
X030500Y001700
X026000Y003000
X025775Y007625
X025750Y004325
X023324Y001725
X022925Y003050
T02
X090484Y072690
X090484Y070658
X095056Y072690
X095056Y070658
X009530Y029908
X006990Y001968
X006990Y004508
X006990Y007048
X006990Y029908
X006990Y032448
X004450Y004508
X004450Y007048
X004450Y012128
X004450Y022288
X004450Y027368
T03
X091144Y056688
X091144Y008427
X093684Y056688
X093684Y008427
T04
X061743Y009951
X062569Y025700
X062569Y023159
X062569Y020620
X062569Y018080
X062569Y015540
X062569Y013000
X062950Y093009
X062950Y090470
X062950Y087930
X062950Y085390
X064283Y009951
X066100Y092299
X066100Y089759
X066100Y087219
X066100Y084679
X066100Y082139
X066823Y009951
X070062Y058974
X070062Y056434
X070062Y053894
X070062Y051354
X070062Y048813
X070062Y046274
X070062Y043733
X070062Y041194
X070062Y038654
X070062Y036114
X070062Y033574
X070062Y031034
X070062Y028494
X074444Y009951
X074890Y053030
X076983Y009951
X077237Y013950
X077277Y016607
X077390Y053030
X079523Y009951
X079777Y013950
X079818Y016607
X081807Y013950
X081848Y016607
X082063Y009951
X084347Y013950
X084388Y016607
X084591Y053030
X084603Y009951
X086064Y010967
X086064Y008427
X087091Y053030
X087800Y092299
X087800Y089759
X087800Y087219
X087800Y084679
X087800Y082139
X087800Y079598
X088604Y010967
X088604Y008427
X090077Y096210
X090077Y093670
X090077Y091130
X090077Y088590
X090077Y086050
X091144Y054147
X091144Y051608
X091144Y049068
X091144Y046528
X091144Y043988
X091144Y041447
X091144Y038908
X091144Y036367
X091144Y033828
X091144Y031287
X091144Y028748
X091144Y026208
X091144Y023668
X091144Y021128
X091144Y018587
X091144Y016047
X091144Y013507
X091144Y010967
X093684Y054147
X093684Y051608
X093684Y049068
X093684Y046528
X093684Y043988
X093684Y041447
X093684Y038908
X093684Y036367
X093684Y033828
X093684Y031287
X093684Y028748
X093684Y026208
X093684Y023668
X093684Y021128
X093684Y018587
X093684Y016047
X093684Y013507
X093684Y010967
X034294Y070650
X036835Y070650
X039375Y070650
X041914Y070650
X044455Y070650
X046995Y070650
X054705Y009350
X052164Y009350
X051340Y002200
X051340Y004740
X049625Y009350
X048800Y002200
X048800Y004740
X047085Y009350
X046259Y002200
X046259Y004740
X044544Y009350
X042004Y009350
X013000Y037980
X013000Y040520
X013000Y043060
X013000Y045600
X002840Y040520
X002840Y043060
X002840Y045600
X031705Y009350
X029164Y009350
X026625Y009350
X024085Y009350
X021544Y009350
X019004Y009350
T05
X060824Y078819
X060824Y065019
X083684Y078819
X083684Y075819
X083684Y068019
X083684Y065019
T06
X074228Y013936
X074237Y016620
X087388Y013936
X087397Y016620
T10
X022679Y073392
X022679Y069892
T11
X028449Y092250
X028449Y019750
X047550Y092250
X047550Y019750
T12
X055199Y092000
T13
X020500Y083500
X055500Y028500
T14
X009530Y009668
X009530Y011668
X009530Y013668
X009530Y015668
X009530Y017668
X009530Y019668
X006990Y013652
X004450Y018986
T15
X003199Y058525
X003275Y054250
X011824Y054175
X011849Y058599
M30