%MOIN*%
%OFA0B0*%
%FSLAX44Y44*%
%IPPOS*%
%LPD*%
%ADD10C,0*%
D10*
X00001204Y00026400D02*
X00001204Y00026400D01*
X00001199Y00026310D01*
X00001175Y00026223D01*
X00001133Y00026143D01*
X00001074Y00026074D01*
X00001002Y00026020D01*
X00000920Y00025982D01*
X00000832Y00025962D01*
X00000742Y00025962D01*
X00000654Y00025982D01*
X00000572Y00026020D01*
X00000500Y00026074D01*
X00000441Y00026143D01*
X00000399Y00026223D01*
X00000375Y00026310D01*
X00000370Y00026400D01*
X00000385Y00026489D01*
X00000418Y00026573D01*
X00000469Y00026648D01*
X00000534Y00026710D01*
X00000612Y00026756D01*
X00000697Y00026785D01*
X00000787Y00026795D01*
X00000877Y00026785D01*
X00000962Y00026756D01*
X00001040Y00026710D01*
X00001105Y00026648D01*
X00001156Y00026573D01*
X00001189Y00026489D01*
X00001204Y00026400D01*
X00016929Y00013385D02*
X00016929Y00013385D01*
X00012992Y00013385D01*
X00012992Y00019685D01*
X00016929Y00019685D01*
X00016929Y00013385D01*
X00007086Y00015123D02*
X00007086Y00015123D01*
X00007086Y00011671D01*
X00007085Y00011638D01*
X00007081Y00011606D01*
X00007074Y00011574D01*
X00007065Y00011543D01*
X00007053Y00011512D01*
X00007038Y00011483D01*
X00007022Y00011455D01*
X00007003Y00011428D01*
X00006981Y00011404D01*
X00006958Y00011381D01*
X00006933Y00011360D01*
X00006907Y00011341D01*
X00006878Y00011324D01*
X00006849Y00011310D01*
X00006819Y00011298D01*
X00006787Y00011289D01*
X00006755Y00011282D01*
X00006723Y00011279D01*
X00006690Y00011277D01*
X00006657Y00011279D01*
X00005210Y00011408D01*
X00005181Y00011411D01*
X00005153Y00011417D01*
X00005125Y00011425D01*
X00005097Y00011435D01*
X00005071Y00011447D01*
X00005045Y00011461D01*
X00005020Y00011477D01*
X00004997Y00011494D01*
X00004975Y00011513D01*
X00004955Y00011534D01*
X00004936Y00011556D01*
X00004919Y00011580D01*
X00004903Y00011605D01*
X00004890Y00011631D01*
X00004878Y00011657D01*
X00004869Y00011685D01*
X00004861Y00011713D01*
X00004856Y00011742D01*
X00004853Y00011771D01*
X00004851Y00011800D01*
X00004851Y00013174D01*
X00001351Y00013174D01*
X00001351Y00000374D01*
X00004851Y00000374D01*
X00004851Y00003234D01*
X00004841Y00003234D01*
X00004783Y00003239D01*
X00004727Y00003251D01*
X00004673Y00003272D01*
X00004622Y00003301D01*
X00004577Y00003336D01*
X00004537Y00003378D01*
X00004503Y00003426D01*
X00004477Y00003478D01*
X00004459Y00003533D01*
X00004449Y00003590D01*
X00004448Y00003648D01*
X00004455Y00003705D01*
X00004471Y00003761D01*
X00004494Y00003814D01*
X00004525Y00003863D01*
X00004563Y00003907D01*
X00004607Y00003945D01*
X00004656Y00003976D01*
X00004709Y00003999D01*
X00004765Y00004014D01*
X00005042Y00004069D01*
X00005076Y00004074D01*
X00005111Y00004076D01*
X00005145Y00004075D01*
X00005180Y00004071D01*
X00005214Y00004064D01*
X00005247Y00004054D01*
X00005280Y00004041D01*
X00005310Y00004025D01*
X00005340Y00004007D01*
X00005368Y00003986D01*
X00005394Y00003963D01*
X00005417Y00003938D01*
X00005439Y00003910D01*
X00005457Y00003881D01*
X00005474Y00003850D01*
X00005487Y00003818D01*
X00005498Y00003785D01*
X00005505Y00003751D01*
X00005510Y00003717D01*
X00005511Y00003682D01*
X00005511Y00000196D01*
X00013090Y00000196D01*
X00013090Y00000946D01*
X00013091Y00000975D01*
X00013094Y00001004D01*
X00013100Y00001033D01*
X00013108Y00001062D01*
X00013117Y00001089D01*
X00013129Y00001116D01*
X00013143Y00001142D01*
X00013158Y00001167D01*
X00013176Y00001191D01*
X00013195Y00001213D01*
X00013216Y00001234D01*
X00013238Y00001253D01*
X00013262Y00001271D01*
X00013287Y00001286D01*
X00013313Y00001300D01*
X00013340Y00001312D01*
X00013367Y00001322D01*
X00013396Y00001329D01*
X00013425Y00001335D01*
X00013454Y00001338D01*
X00014143Y00001390D01*
X00014175Y00001392D01*
X00014208Y00001390D01*
X00014240Y00001386D01*
X00014271Y00001379D01*
X00014303Y00001370D01*
X00014333Y00001358D01*
X00014362Y00001343D01*
X00014389Y00001327D01*
X00014416Y00001308D01*
X00014440Y00001287D01*
X00014463Y00001264D01*
X00014484Y00001239D01*
X00014503Y00001212D01*
X00014519Y00001185D01*
X00014534Y00001155D01*
X00014545Y00001125D01*
X00014554Y00001094D01*
X00014561Y00001062D01*
X00014565Y00001030D01*
X00014566Y00000998D01*
X00014566Y00000196D01*
X00022145Y00000196D01*
X00022145Y00000845D01*
X00022147Y00000884D01*
X00022153Y00000923D01*
X00022163Y00000961D01*
X00022176Y00000998D01*
X00022193Y00001034D01*
X00022214Y00001067D01*
X00022237Y00001098D01*
X00022264Y00001127D01*
X00022294Y00001153D01*
X00022326Y00001176D01*
X00022360Y00001196D01*
X00022395Y00001212D01*
X00022433Y00001224D01*
X00022471Y00001233D01*
X00022510Y00001238D01*
X00022549Y00001239D01*
X00022588Y00001236D01*
X00022627Y00001229D01*
X00022665Y00001218D01*
X00022701Y00001204D01*
X00023573Y00000809D01*
X00023585Y00000803D01*
X00023596Y00000798D01*
X00023607Y00000791D01*
X00023618Y00000785D01*
X00023629Y00000778D01*
X00023639Y00000771D01*
X00023649Y00000763D01*
X00023659Y00000755D01*
X00023669Y00000747D01*
X00023678Y00000739D01*
X00023688Y00000730D01*
X00023697Y00000721D01*
X00023705Y00000712D01*
X00023713Y00000702D01*
X00023721Y00000692D01*
X00023729Y00000682D01*
X00023736Y00000671D01*
X00023743Y00000661D01*
X00023750Y00000650D01*
X00023756Y00000639D01*
X00023809Y00000542D01*
X00023910Y00000407D01*
X00024029Y00000288D01*
X00024164Y00000187D01*
X00024312Y00000106D01*
X00024470Y00000047D01*
X00024635Y00000012D01*
X00024803Y00000000D01*
X00038188Y00000000D01*
X00038357Y00000012D01*
X00038521Y00000047D01*
X00038679Y00000106D01*
X00038827Y00000187D01*
X00038962Y00000288D01*
X00039081Y00000407D01*
X00039182Y00000542D01*
X00039263Y00000690D01*
X00039322Y00000848D01*
X00039358Y00001013D01*
X00039370Y00001181D01*
X00039370Y00038188D01*
X00039358Y00038357D01*
X00039322Y00038521D01*
X00039263Y00038679D01*
X00039182Y00038827D01*
X00039081Y00038962D01*
X00038962Y00039081D01*
X00038827Y00039182D01*
X00038679Y00039263D01*
X00038521Y00039322D01*
X00038357Y00039358D01*
X00038188Y00039370D01*
X00024803Y00039370D01*
X00024635Y00039358D01*
X00024470Y00039322D01*
X00024312Y00039263D01*
X00024164Y00039182D01*
X00024029Y00039081D01*
X00023910Y00038962D01*
X00023809Y00038827D01*
X00023728Y00038679D01*
X00023669Y00038521D01*
X00023634Y00038357D01*
X00023622Y00038188D01*
X00023622Y00036378D01*
X00023622Y00036375D01*
X00023617Y00036314D01*
X00023602Y00036254D01*
X00023579Y00036197D01*
X00023546Y00036144D01*
X00023506Y00036097D01*
X00023459Y00036057D01*
X00023407Y00036025D01*
X00023350Y00036001D01*
X00023289Y00035987D01*
X00023228Y00035982D01*
X00023166Y00035987D01*
X00023106Y00036001D01*
X00023049Y00036025D01*
X00022996Y00036057D01*
X00022949Y00036097D01*
X00022909Y00036144D01*
X00022877Y00036197D01*
X00022853Y00036254D01*
X00022839Y00036314D01*
X00022834Y00036375D01*
X00022834Y00038188D01*
X00022822Y00038357D01*
X00022786Y00038521D01*
X00022727Y00038679D01*
X00022647Y00038827D01*
X00022546Y00038962D01*
X00022427Y00039081D01*
X00022292Y00039182D01*
X00022144Y00039263D01*
X00021986Y00039322D01*
X00021821Y00039358D01*
X00021653Y00039370D01*
X00008267Y00039370D01*
X00008099Y00039358D01*
X00007934Y00039322D01*
X00007777Y00039263D01*
X00007629Y00039182D01*
X00007494Y00039081D01*
X00007375Y00038962D01*
X00007274Y00038827D01*
X00007193Y00038679D01*
X00007134Y00038521D01*
X00007098Y00038357D01*
X00007086Y00038188D01*
X00007086Y00037303D01*
X00009842Y00037303D01*
X00009842Y00034547D01*
X00007086Y00034547D01*
X00007086Y00032233D01*
X00007085Y00032210D01*
X00007083Y00032187D01*
X00007080Y00032163D01*
X00007075Y00032141D01*
X00007069Y00032118D01*
X00007062Y00032096D01*
X00007053Y00032075D01*
X00007043Y00032054D01*
X00007032Y00032033D01*
X00007019Y00032013D01*
X00007006Y00031995D01*
X00006991Y00031976D01*
X00006975Y00031959D01*
X00006959Y00031943D01*
X00006941Y00031928D01*
X00006923Y00031914D01*
X00006903Y00031901D01*
X00006883Y00031889D01*
X00006863Y00031878D01*
X00006841Y00031869D01*
X00006448Y00031708D01*
X00006411Y00031695D01*
X00006374Y00031686D01*
X00006336Y00031680D01*
X00006297Y00031678D01*
X00006259Y00031680D01*
X00006221Y00031686D01*
X00006183Y00031696D01*
X00006147Y00031709D01*
X00006112Y00031725D01*
X00006079Y00031745D01*
X00006048Y00031768D01*
X00006020Y00031794D01*
X00005994Y00031823D01*
X00005971Y00031854D01*
X00005951Y00031887D01*
X00005935Y00031922D01*
X00005922Y00031958D01*
X00005913Y00031995D01*
X00005907Y00032033D01*
X00005905Y00032072D01*
X00005905Y00038385D01*
X00005893Y00038539D01*
X00005857Y00038689D01*
X00005798Y00038832D01*
X00005717Y00038964D01*
X00005617Y00039081D01*
X00005499Y00039182D01*
X00005368Y00039262D01*
X00005225Y00039321D01*
X00005075Y00039357D01*
X00004921Y00039370D01*
X00000984Y00039370D01*
X00000830Y00039357D01*
X00000680Y00039321D01*
X00000537Y00039262D01*
X00000405Y00039182D01*
X00000288Y00039081D01*
X00000187Y00038964D01*
X00000107Y00038832D01*
X00000048Y00038689D01*
X00000012Y00038539D01*
X00000000Y00038385D01*
X00000000Y00026574D01*
X00000012Y00026420D01*
X00000048Y00026270D01*
X00000107Y00026127D01*
X00000187Y00025996D01*
X00000288Y00025878D01*
X00000405Y00025778D01*
X00000537Y00025697D01*
X00000680Y00025638D01*
X00000830Y00025602D01*
X00000984Y00025590D01*
X00004921Y00025590D01*
X00005075Y00025602D01*
X00005225Y00025638D01*
X00005368Y00025697D01*
X00005499Y00025778D01*
X00005617Y00025878D01*
X00005717Y00025996D01*
X00005798Y00026127D01*
X00005857Y00026270D01*
X00005893Y00026420D01*
X00005905Y00026574D01*
X00005905Y00029344D01*
X00005905Y00029344D01*
X00005907Y00029383D01*
X00005913Y00029421D01*
X00005922Y00029458D01*
X00005935Y00029495D01*
X00005951Y00029530D01*
X00005971Y00029563D01*
X00005994Y00029594D01*
X00006020Y00029622D01*
X00006048Y00029648D01*
X00006079Y00029671D01*
X00006112Y00029691D01*
X00006147Y00029708D01*
X00006183Y00029721D01*
X00006221Y00029730D01*
X00006259Y00029736D01*
X00006297Y00029738D01*
X00006336Y00029736D01*
X00006374Y00029731D01*
X00006411Y00029722D01*
X00006448Y00029709D01*
X00006841Y00029548D01*
X00006863Y00029538D01*
X00006883Y00029528D01*
X00006903Y00029516D01*
X00006923Y00029503D01*
X00006941Y00029489D01*
X00006959Y00029473D01*
X00006975Y00029457D01*
X00006991Y00029440D01*
X00007006Y00029422D01*
X00007019Y00029403D01*
X00007032Y00029383D01*
X00007043Y00029363D01*
X00007053Y00029342D01*
X00007062Y00029320D01*
X00007069Y00029298D01*
X00007075Y00029276D01*
X00007080Y00029253D01*
X00007083Y00029230D01*
X00007085Y00029207D01*
X00007086Y00029183D01*
X00007086Y00023017D01*
X00007084Y00022975D01*
X00007077Y00022934D01*
X00007066Y00022893D01*
X00007051Y00022854D01*
X00007032Y00022817D01*
X00007009Y00022782D01*
X00006982Y00022750D01*
X00006952Y00022721D01*
X00006919Y00022695D01*
X00006884Y00022673D01*
X00006846Y00022654D01*
X00006807Y00022640D01*
X00006766Y00022630D01*
X00006725Y00022625D01*
X00006683Y00022623D01*
X00006641Y00022626D01*
X00006600Y00022634D01*
X00006560Y00022646D01*
X00006522Y00022662D01*
X00006485Y00022682D01*
X00006190Y00022865D01*
X00006173Y00022876D01*
X00006157Y00022888D01*
X00006141Y00022901D01*
X00006126Y00022914D01*
X00006112Y00022928D01*
X00006099Y00022943D01*
X00006086Y00022958D01*
X00006074Y00022975D01*
X00006063Y00022991D01*
X00006053Y00023008D01*
X00006044Y00023026D01*
X00006035Y00023044D01*
X00006028Y00023063D01*
X00006022Y00023082D01*
X00006016Y00023101D01*
X00006012Y00023120D01*
X00006008Y00023140D01*
X00006005Y00023160D01*
X00006004Y00023180D01*
X00006003Y00023200D01*
X00006003Y00023818D01*
X00000000Y00023818D01*
X00000000Y00019488D01*
X00006003Y00019488D01*
X00006003Y00020106D01*
X00006004Y00020126D01*
X00006005Y00020146D01*
X00006008Y00020166D01*
X00006012Y00020186D01*
X00006016Y00020205D01*
X00006022Y00020224D01*
X00006028Y00020243D01*
X00006035Y00020262D01*
X00006044Y00020280D01*
X00006053Y00020298D01*
X00006063Y00020315D01*
X00006074Y00020332D01*
X00006086Y00020348D01*
X00006099Y00020363D01*
X00006112Y00020378D01*
X00006126Y00020392D01*
X00006141Y00020405D01*
X00006157Y00020418D01*
X00006173Y00020430D01*
X00006190Y00020441D01*
X00006485Y00020624D01*
X00006522Y00020644D01*
X00006560Y00020660D01*
X00006600Y00020672D01*
X00006641Y00020680D01*
X00006683Y00020683D01*
X00006725Y00020682D01*
X00006766Y00020676D01*
X00006807Y00020666D01*
X00006846Y00020652D01*
X00006884Y00020633D01*
X00006919Y00020611D01*
X00006952Y00020585D01*
X00006982Y00020556D01*
X00007009Y00020524D01*
X00007032Y00020489D01*
X00007051Y00020452D01*
X00007066Y00020413D01*
X00007077Y00020372D01*
X00007084Y00020331D01*
X00007086Y00020289D01*
X00007086Y00017788D01*
X00007084Y00017752D01*
X00007080Y00017717D01*
X00007071Y00017682D01*
X00007060Y00017648D01*
X00007046Y00017615D01*
X00007029Y00017583D01*
X00007009Y00017553D01*
X00006986Y00017526D01*
X00006961Y00017500D01*
X00006933Y00017477D01*
X00006904Y00017456D01*
X00006873Y00017438D01*
X00006840Y00017423D01*
X00006806Y00017411D01*
X00006772Y00017402D01*
X00006736Y00017397D01*
X00006700Y00017394D01*
X00006664Y00017395D01*
X00006629Y00017399D01*
X00006594Y00017407D01*
X00006013Y00017557D01*
X00005988Y00017565D01*
X00005963Y00017574D01*
X00005940Y00017584D01*
X00005917Y00017596D01*
X00005895Y00017610D01*
X00005873Y00017625D01*
X00005853Y00017641D01*
X00005834Y00017659D01*
X00005817Y00017678D01*
X00005800Y00017698D01*
X00005785Y00017719D01*
X00005771Y00017741D01*
X00005759Y00017763D01*
X00005748Y00017787D01*
X00005739Y00017811D01*
X00005731Y00017836D01*
X00005725Y00017861D01*
X00005721Y00017887D01*
X00005718Y00017913D01*
X00005718Y00017939D01*
X00005718Y00018552D01*
X00000518Y00018552D01*
X00000518Y00014352D01*
X00005718Y00014352D01*
X00005718Y00014972D01*
X00005718Y00014998D01*
X00005721Y00015024D01*
X00005725Y00015050D01*
X00005731Y00015075D01*
X00005739Y00015100D01*
X00005748Y00015124D01*
X00005759Y00015147D01*
X00005771Y00015170D01*
X00005785Y00015192D01*
X00005800Y00015213D01*
X00005817Y00015233D01*
X00005834Y00015252D01*
X00005853Y00015270D01*
X00005873Y00015286D01*
X00005895Y00015301D01*
X00005917Y00015314D01*
X00005940Y00015327D01*
X00005963Y00015337D01*
X00005988Y00015346D01*
X00006013Y00015353D01*
X00006594Y00015504D01*
X00006629Y00015511D01*
X00006664Y00015515D01*
X00006700Y00015516D01*
X00006736Y00015514D01*
X00006772Y00015508D01*
X00006806Y00015500D01*
X00006840Y00015488D01*
X00006873Y00015473D01*
X00006904Y00015455D01*
X00006933Y00015434D01*
X00006961Y00015411D01*
X00006986Y00015385D01*
X00007009Y00015357D01*
X00007029Y00015328D01*
X00007046Y00015296D01*
X00007060Y00015263D01*
X00007071Y00015229D01*
X00007080Y00015194D01*
X00007084Y00015159D01*
X00007086Y00015123D01*
X00027433Y00000807D02*
X00027433Y00000807D01*
X00027306Y00000814D01*
X00027182Y00000849D01*
X00027070Y00000908D01*
X00026972Y00000991D01*
X00026895Y00001093D01*
X00026841Y00001209D01*
X00026814Y00001333D01*
X00026814Y00001461D01*
X00026841Y00001586D01*
X00026895Y00001702D01*
X00026972Y00001803D01*
X00027070Y00001886D01*
X00027182Y00001946D01*
X00027306Y00001980D01*
X00027433Y00001987D01*
X00027559Y00001966D01*
X00027678Y00001919D01*
X00027783Y00001847D01*
X00027871Y00001755D01*
X00027937Y00001645D01*
X00027978Y00001524D01*
X00027992Y00001397D01*
X00027978Y00001270D01*
X00027937Y00001149D01*
X00027871Y00001040D01*
X00027783Y00000947D01*
X00027678Y00000875D01*
X00027559Y00000828D01*
X00027433Y00000807D01*
X00036423Y00000807D02*
X00036423Y00000807D01*
X00036296Y00000814D01*
X00036173Y00000849D01*
X00036060Y00000908D01*
X00035962Y00000991D01*
X00035885Y00001093D01*
X00035832Y00001209D01*
X00035804Y00001333D01*
X00035804Y00001461D01*
X00035832Y00001586D01*
X00035885Y00001702D01*
X00035962Y00001803D01*
X00036060Y00001886D01*
X00036173Y00001946D01*
X00036296Y00001980D01*
X00036423Y00001987D01*
X00036549Y00001966D01*
X00036668Y00001919D01*
X00036774Y00001847D01*
X00036861Y00001755D01*
X00036927Y00001645D01*
X00036968Y00001524D01*
X00036982Y00001397D01*
X00036968Y00001270D01*
X00036927Y00001149D01*
X00036861Y00001040D01*
X00036774Y00000947D01*
X00036668Y00000875D01*
X00036549Y00000828D01*
X00036423Y00000807D01*
X00026883Y00008138D02*
X00026883Y00008138D01*
X00026283Y00008718D01*
X00026283Y00009918D01*
X00026883Y00010498D01*
X00028003Y00010498D01*
X00028003Y00008138D01*
X00026883Y00008138D01*
X00027453Y00023603D02*
X00027453Y00023603D01*
X00027325Y00023610D01*
X00027202Y00023644D01*
X00027089Y00023704D01*
X00026992Y00023786D01*
X00026915Y00023888D01*
X00026861Y00024004D01*
X00026834Y00024129D01*
X00026834Y00024256D01*
X00026861Y00024381D01*
X00026915Y00024497D01*
X00026992Y00024599D01*
X00027089Y00024681D01*
X00027202Y00024741D01*
X00027325Y00024775D01*
X00027453Y00024782D01*
X00027579Y00024761D01*
X00027697Y00024714D01*
X00027803Y00024643D01*
X00027891Y00024550D01*
X00027957Y00024440D01*
X00027998Y00024319D01*
X00028011Y00024192D01*
X00027998Y00024065D01*
X00027957Y00023944D01*
X00027891Y00023835D01*
X00027803Y00023742D01*
X00027697Y00023671D01*
X00027579Y00023623D01*
X00027453Y00023603D01*
X00036423Y00023607D02*
X00036423Y00023607D01*
X00036296Y00023614D01*
X00036173Y00023649D01*
X00036060Y00023708D01*
X00035962Y00023791D01*
X00035885Y00023893D01*
X00035832Y00024009D01*
X00035804Y00024133D01*
X00035804Y00024261D01*
X00035832Y00024386D01*
X00035885Y00024502D01*
X00035962Y00024603D01*
X00036060Y00024686D01*
X00036173Y00024746D01*
X00036296Y00024780D01*
X00036423Y00024787D01*
X00036549Y00024766D01*
X00036668Y00024719D01*
X00036774Y00024647D01*
X00036861Y00024555D01*
X00036927Y00024445D01*
X00036968Y00024324D01*
X00036982Y00024197D01*
X00036968Y00024070D01*
X00036927Y00023949D01*
X00036861Y00023840D01*
X00036774Y00023747D01*
X00036668Y00023675D01*
X00036549Y00023628D01*
X00036423Y00023607D01*
X00023622Y00029881D02*
X00023622Y00029881D01*
X00025787Y00029881D01*
X00025787Y00026732D01*
X00023622Y00026732D01*
X00023622Y00018847D01*
X00023617Y00018786D01*
X00023602Y00018725D01*
X00023579Y00018668D01*
X00023546Y00018616D01*
X00023506Y00018569D01*
X00023459Y00018529D01*
X00023407Y00018496D01*
X00023350Y00018473D01*
X00023289Y00018458D01*
X00023228Y00018453D01*
X00023166Y00018458D01*
X00023106Y00018473D01*
X00023049Y00018496D01*
X00022996Y00018529D01*
X00022949Y00018569D01*
X00022909Y00018616D01*
X00022877Y00018668D01*
X00022853Y00018725D01*
X00022839Y00018786D01*
X00023228Y00018847D01*
X00022834Y00018847D01*
X00022834Y00024803D01*
X00011811Y00024803D01*
X00011811Y00027609D01*
X00011811Y00027633D01*
X00011813Y00027656D01*
X00011817Y00027680D01*
X00011822Y00027704D01*
X00011829Y00027727D01*
X00011837Y00027749D01*
X00011846Y00027771D01*
X00011856Y00027793D01*
X00011868Y00027814D01*
X00011881Y00027834D01*
X00011896Y00027853D01*
X00011911Y00027871D01*
X00011928Y00027889D01*
X00011945Y00027905D01*
X00011964Y00027920D01*
X00011983Y00027934D01*
X00012003Y00027947D01*
X00012024Y00027959D01*
X00012046Y00027969D01*
X00012068Y00027978D01*
X00012363Y00028087D01*
X00012400Y00028098D01*
X00012437Y00028106D01*
X00012474Y00028110D01*
X00012512Y00028111D01*
X00012550Y00028108D01*
X00012587Y00028101D01*
X00012624Y00028091D01*
X00012659Y00028077D01*
X00012693Y00028060D01*
X00012725Y00028040D01*
X00012755Y00028017D01*
X00012782Y00027991D01*
X00012807Y00027963D01*
X00012829Y00027932D01*
X00012849Y00027899D01*
X00012864Y00027865D01*
X00012877Y00027829D01*
X00012886Y00027793D01*
X00012891Y00027755D01*
X00012893Y00027717D01*
X00012893Y00027263D01*
X00019291Y00027263D01*
X00019291Y00025275D01*
X00020472Y00025275D01*
X00020472Y00031299D01*
X00012893Y00031299D01*
X00012893Y00030549D01*
X00012891Y00030512D01*
X00012886Y00030474D01*
X00012877Y00030437D01*
X00012864Y00030402D01*
X00012849Y00030367D01*
X00012829Y00030335D01*
X00012807Y00030304D01*
X00012782Y00030276D01*
X00012755Y00030250D01*
X00012725Y00030227D01*
X00012693Y00030206D01*
X00012659Y00030189D01*
X00012624Y00030176D01*
X00012587Y00030166D01*
X00012550Y00030159D01*
X00012512Y00030156D01*
X00012474Y00030157D01*
X00012437Y00030161D01*
X00012400Y00030169D01*
X00012363Y00030180D01*
X00012068Y00030289D01*
X00012046Y00030298D01*
X00012024Y00030308D01*
X00012003Y00030320D01*
X00011983Y00030332D01*
X00011964Y00030346D01*
X00011945Y00030362D01*
X00011928Y00030378D01*
X00011911Y00030395D01*
X00011896Y00030414D01*
X00011881Y00030433D01*
X00011868Y00030453D01*
X00011856Y00030474D01*
X00011846Y00030495D01*
X00011837Y00030517D01*
X00011829Y00030540D01*
X00011822Y00030563D01*
X00011817Y00030587D01*
X00011813Y00030610D01*
X00011811Y00030634D01*
X00011811Y00030658D01*
X00011811Y00032283D01*
X00022834Y00032283D01*
X00022834Y00033328D01*
X00022839Y00033390D01*
X00022853Y00033450D01*
X00022877Y00033507D01*
X00022909Y00033560D01*
X00022949Y00033606D01*
X00022996Y00033647D01*
X00023049Y00033679D01*
X00023106Y00033703D01*
X00023166Y00033717D01*
X00023228Y00033722D01*
X00023289Y00033717D01*
X00023350Y00033703D01*
X00023407Y00033679D01*
X00023459Y00033647D01*
X00023506Y00033606D01*
X00023546Y00033560D01*
X00023579Y00033507D01*
X00023602Y00033450D01*
X00023617Y00033390D01*
X00023622Y00033328D01*
X00023622Y00033326D01*
X00023622Y00029881D01*
X00023622Y00003574D02*
X00023622Y00003574D01*
X00023621Y00003550D01*
X00023619Y00003526D01*
X00023615Y00003503D01*
X00023610Y00003479D01*
X00023604Y00003456D01*
X00023596Y00003434D01*
X00023587Y00003412D01*
X00023576Y00003390D01*
X00023564Y00003370D01*
X00023551Y00003350D01*
X00023537Y00003330D01*
X00023522Y00003312D01*
X00023506Y00003295D01*
X00023488Y00003278D01*
X00023470Y00003263D01*
X00023451Y00003249D01*
X00023430Y00003236D01*
X00023410Y00003225D01*
X00023388Y00003214D01*
X00023366Y00003205D01*
X00022677Y00002947D01*
X00022641Y00002935D01*
X00022604Y00002927D01*
X00022566Y00002923D01*
X00022528Y00002922D01*
X00022490Y00002925D01*
X00022453Y00002931D01*
X00022416Y00002941D01*
X00022381Y00002955D01*
X00022347Y00002972D01*
X00022315Y00002992D01*
X00022284Y00003015D01*
X00022257Y00003041D01*
X00022232Y00003069D01*
X00022209Y00003100D01*
X00022190Y00003133D01*
X00022174Y00003167D01*
X00022162Y00003203D01*
X00022152Y00003240D01*
X00022147Y00003278D01*
X00022145Y00003316D01*
X00022145Y00004232D01*
X00015748Y00004232D01*
X00015748Y00006220D01*
X00014566Y00006220D01*
X00014566Y00003726D01*
X00014565Y00003693D01*
X00014561Y00003661D01*
X00014554Y00003629D01*
X00014545Y00003598D01*
X00014534Y00003568D01*
X00014519Y00003539D01*
X00014503Y00003511D01*
X00014484Y00003485D01*
X00014463Y00003460D01*
X00014440Y00003437D01*
X00014416Y00003416D01*
X00014389Y00003397D01*
X00014362Y00003380D01*
X00014333Y00003366D01*
X00014303Y00003354D01*
X00014271Y00003344D01*
X00014240Y00003338D01*
X00014208Y00003333D01*
X00014175Y00003332D01*
X00014143Y00003333D01*
X00013454Y00003385D01*
X00013425Y00003389D01*
X00013396Y00003394D01*
X00013367Y00003402D01*
X00013340Y00003411D01*
X00013313Y00003423D01*
X00013287Y00003437D01*
X00013262Y00003453D01*
X00013238Y00003470D01*
X00013216Y00003489D01*
X00013195Y00003510D01*
X00013176Y00003532D01*
X00013158Y00003556D01*
X00013143Y00003581D01*
X00013129Y00003607D01*
X00013117Y00003634D01*
X00013108Y00003662D01*
X00013100Y00003690D01*
X00013094Y00003719D01*
X00013091Y00003748D01*
X00013090Y00003778D01*
X00013090Y00004232D01*
X00006692Y00004232D01*
X00006692Y00006220D01*
X00005511Y00006220D01*
X00005511Y00005766D01*
X00005509Y00005721D01*
X00005501Y00005677D01*
X00005489Y00005634D01*
X00005472Y00005593D01*
X00005450Y00005554D01*
X00005424Y00005518D01*
X00005394Y00005485D01*
X00005361Y00005456D01*
X00005324Y00005430D01*
X00005285Y00005409D01*
X00005244Y00005393D01*
X00005201Y00005381D01*
X00005157Y00005374D01*
X00005112Y00005372D01*
X00005068Y00005375D01*
X00005024Y00005383D01*
X00004981Y00005396D01*
X00004941Y00005414D01*
X00004902Y00005436D01*
X00004866Y00005463D01*
X00004244Y00005979D01*
X00004231Y00005990D01*
X00004218Y00006002D01*
X00004206Y00006015D01*
X00004195Y00006028D01*
X00004184Y00006041D01*
X00004174Y00006055D01*
X00004164Y00006069D01*
X00004155Y00006084D01*
X00004147Y00006099D01*
X00004139Y00006115D01*
X00004132Y00006130D01*
X00004126Y00006147D01*
X00004120Y00006163D01*
X00004115Y00006179D01*
X00004111Y00006196D01*
X00004108Y00006213D01*
X00004105Y00006230D01*
X00004103Y00006247D01*
X00004102Y00006265D01*
X00004101Y00006282D01*
X00004101Y00008314D01*
X00004851Y00008314D01*
X00004851Y00009459D01*
X00004853Y00009488D01*
X00004856Y00009517D01*
X00004861Y00009546D01*
X00004869Y00009574D01*
X00004878Y00009601D01*
X00004890Y00009628D01*
X00004903Y00009654D01*
X00004919Y00009679D01*
X00004936Y00009702D01*
X00004955Y00009725D01*
X00004975Y00009745D01*
X00004997Y00009765D01*
X00005020Y00009782D01*
X00005045Y00009798D01*
X00005071Y00009812D01*
X00005097Y00009824D01*
X00005125Y00009834D01*
X00005153Y00009842D01*
X00005181Y00009847D01*
X00005210Y00009851D01*
X00006657Y00009980D01*
X00006690Y00009981D01*
X00006723Y00009980D01*
X00006755Y00009976D01*
X00006787Y00009970D01*
X00006819Y00009961D01*
X00006849Y00009949D01*
X00006878Y00009935D01*
X00006907Y00009918D01*
X00006933Y00009899D01*
X00006958Y00009878D01*
X00006981Y00009855D01*
X00007003Y00009830D01*
X00007022Y00009804D01*
X00007038Y00009776D01*
X00007053Y00009746D01*
X00007065Y00009716D01*
X00007074Y00009685D01*
X00007081Y00009653D01*
X00007085Y00009620D01*
X00007086Y00009588D01*
X00007086Y00004724D01*
X00012204Y00004724D01*
X00012204Y00006692D01*
X00017716Y00006692D01*
X00017716Y00004724D01*
X00022834Y00004724D01*
X00022834Y00015798D01*
X00022834Y00015798D01*
X00022839Y00015859D01*
X00022853Y00015919D01*
X00022877Y00015976D01*
X00022909Y00016029D01*
X00022949Y00016076D01*
X00022996Y00016116D01*
X00023049Y00016148D01*
X00023106Y00016172D01*
X00023166Y00016186D01*
X00023228Y00016191D01*
X00023289Y00016186D01*
X00023350Y00016172D01*
X00023407Y00016148D01*
X00023459Y00016116D01*
X00023506Y00016076D01*
X00023546Y00016029D01*
X00023579Y00015976D01*
X00023602Y00015919D01*
X00023617Y00015859D01*
X00023622Y00015798D01*
X00023622Y00003574D01*
M02*