%MOIN*%
%OFA0B0*%
%FSLAX46Y46*%
%IPPOS*%
%LPD*%
%ADD10C,0.0039370078740157488*%
%ADD11C,0.011811023622047244*%
%ADD12C,0.005905511811023622*%
%ADD13C,0.0047244094488188976*%
%ADD24C,0.0078740157480314977*%
%ADD25C,0.0078740157480314977*%
%ADD26C,0.0078740157480314977*%
%ADD27C,0.0078740157480314977*%
%ADD28C,0.0047244094488188976*%
%ADD29C,0.005905511811023622*%
%ADD30C,0.0078740157480314977*%
%ADD31C,0.0078740157480314977*%
%ADD32C,0.0078740157480314977*%
%LPD*%
G01G01*
D10*
D11*
X0003877061Y0001590323D02*
X0003818006Y0001590323D01*
X0003818006Y0001576263D01*
X0003820818Y0001567826D01*
X0003826443Y0001562202D01*
X0003832067Y0001559390D01*
X0003843316Y0001556578D01*
X0003851752Y0001556578D01*
X0003863001Y0001559390D01*
X0003868625Y0001562202D01*
X0003874249Y0001567826D01*
X0003877061Y0001576263D01*
X0003877061Y0001590323D01*
X0003874249Y0001508771D02*
X0003877061Y0001514395D01*
X0003877061Y0001525644D01*
X0003874249Y0001531268D01*
X0003868625Y0001534081D01*
X0003846128Y0001534081D01*
X0003840503Y0001531268D01*
X0003837691Y0001525644D01*
X0003837691Y0001514395D01*
X0003840503Y0001508771D01*
X0003846128Y0001505959D01*
X0003851752Y0001505959D01*
X0003857376Y0001534081D01*
X0003874249Y0001483462D02*
X0003877061Y0001477838D01*
X0003877061Y0001466589D01*
X0003874249Y0001460965D01*
X0003868625Y0001458153D01*
X0003865813Y0001458153D01*
X0003860188Y0001460965D01*
X0003857376Y0001466589D01*
X0003857376Y0001475025D01*
X0003854564Y0001480650D01*
X0003848940Y0001483462D01*
X0003846128Y0001483462D01*
X0003840503Y0001480650D01*
X0003837691Y0001475025D01*
X0003837691Y0001466589D01*
X0003840503Y0001460965D01*
X0003877061Y0001432843D02*
X0003837691Y0001432843D01*
X0003818006Y0001432843D02*
X0003820818Y0001435655D01*
X0003823631Y0001432843D01*
X0003820818Y0001430031D01*
X0003818006Y0001432843D01*
X0003823631Y0001432843D01*
X0003837691Y0001379412D02*
X0003885498Y0001379412D01*
X0003891122Y0001382225D01*
X0003893934Y0001385037D01*
X0003896746Y0001390661D01*
X0003896746Y0001399097D01*
X0003893934Y0001404722D01*
X0003874249Y0001379412D02*
X0003877061Y0001385037D01*
X0003877061Y0001396285D01*
X0003874249Y0001401910D01*
X0003871437Y0001404722D01*
X0003865813Y0001407534D01*
X0003848940Y0001407534D01*
X0003843316Y0001404722D01*
X0003840503Y0001401910D01*
X0003837691Y0001396285D01*
X0003837691Y0001385037D01*
X0003840503Y0001379412D01*
X0003837691Y0001351291D02*
X0003877061Y0001351291D01*
X0003843316Y0001351291D02*
X0003840503Y0001348479D01*
X0003837691Y0001342854D01*
X0003837691Y0001334418D01*
X0003840503Y0001328794D01*
X0003846128Y0001325981D01*
X0003877061Y0001325981D01*
X0003874249Y0001275363D02*
X0003877061Y0001280987D01*
X0003877061Y0001292236D01*
X0003874249Y0001297860D01*
X0003868625Y0001300672D01*
X0003846128Y0001300672D01*
X0003840503Y0001297860D01*
X0003837691Y0001292236D01*
X0003837691Y0001280987D01*
X0003840503Y0001275363D01*
X0003846128Y0001272551D01*
X0003851752Y0001272551D01*
X0003857376Y0001300672D01*
X0003877061Y0001221932D02*
X0003818006Y0001221932D01*
X0003874249Y0001221932D02*
X0003877061Y0001227556D01*
X0003877061Y0001238805D01*
X0003874249Y0001244429D01*
X0003871437Y0001247241D01*
X0003865813Y0001250054D01*
X0003848940Y0001250054D01*
X0003843316Y0001247241D01*
X0003840503Y0001244429D01*
X0003837691Y0001238805D01*
X0003837691Y0001227556D01*
X0003840503Y0001221932D01*
X0003877061Y0001148816D02*
X0003837691Y0001148816D01*
X0003818006Y0001148816D02*
X0003820818Y0001151628D01*
X0003823631Y0001148816D01*
X0003820818Y0001146004D01*
X0003818006Y0001148816D01*
X0003823631Y0001148816D01*
X0003837691Y0001120695D02*
X0003877061Y0001120695D01*
X0003843316Y0001120695D02*
X0003840503Y0001117882D01*
X0003837691Y0001112258D01*
X0003837691Y0001103822D01*
X0003840503Y0001098197D01*
X0003846128Y0001095385D01*
X0003877061Y0001095385D01*
X0003877061Y0001022269D02*
X0003818006Y0001022269D01*
X0003877061Y0000988524D02*
X0003843316Y0001013833D01*
X0003818006Y0000988524D02*
X0003851752Y0001022269D01*
X0003877061Y0000963214D02*
X0003837691Y0000963214D01*
X0003818006Y0000963214D02*
X0003820818Y0000966027D01*
X0003823631Y0000963214D01*
X0003820818Y0000960402D01*
X0003818006Y0000963214D01*
X0003823631Y0000963214D01*
X0003871437Y0000901347D02*
X0003874249Y0000904159D01*
X0003877061Y0000912596D01*
X0003877061Y0000918220D01*
X0003874249Y0000926656D01*
X0003868625Y0000932281D01*
X0003863001Y0000935093D01*
X0003851752Y0000937905D01*
X0003843316Y0000937905D01*
X0003832067Y0000935093D01*
X0003826443Y0000932281D01*
X0003820818Y0000926656D01*
X0003818006Y0000918220D01*
X0003818006Y0000912596D01*
X0003820818Y0000904159D01*
X0003823631Y0000901347D01*
X0003877061Y0000850728D02*
X0003846128Y0000850728D01*
X0003840503Y0000853541D01*
X0003837691Y0000859165D01*
X0003837691Y0000870413D01*
X0003840503Y0000876038D01*
X0003874249Y0000850728D02*
X0003877061Y0000856353D01*
X0003877061Y0000870413D01*
X0003874249Y0000876038D01*
X0003868625Y0000878850D01*
X0003863001Y0000878850D01*
X0003857376Y0000876038D01*
X0003854564Y0000870413D01*
X0003854564Y0000856353D01*
X0003851752Y0000850728D01*
X0003877061Y0000797298D02*
X0003818006Y0000797298D01*
X0003874249Y0000797298D02*
X0003877061Y0000802922D01*
X0003877061Y0000814170D01*
X0003874249Y0000819795D01*
X0003871437Y0000822607D01*
X0003865813Y0000825419D01*
X0003848940Y0000825419D01*
X0003843316Y0000822607D01*
X0003840503Y0000819795D01*
X0003837691Y0000814170D01*
X0003837691Y0000802922D01*
X0003840503Y0000797298D01*
X0003727514Y0003916150D02*
X0003688143Y0003916150D01*
X0003727514Y0003857095D01*
X0003688143Y0003857095D01*
X0003643149Y0003859907D02*
X0003648773Y0003857095D01*
X0003660022Y0003857095D01*
X0003665646Y0003859907D01*
X0003668458Y0003865532D01*
X0003668458Y0003888029D01*
X0003665646Y0003893653D01*
X0003660022Y0003896465D01*
X0003648773Y0003896465D01*
X0003643149Y0003893653D01*
X0003640337Y0003888029D01*
X0003640337Y0003882404D01*
X0003668458Y0003876780D01*
X0003615028Y0003857095D02*
X0003615028Y0003896465D01*
X0003615028Y0003885217D02*
X0003612215Y0003890841D01*
X0003609403Y0003893653D01*
X0003603779Y0003896465D01*
X0003598155Y0003896465D01*
X0003570033Y0003857095D02*
X0003575658Y0003859907D01*
X0003578470Y0003862719D01*
X0003581282Y0003868344D01*
X0003581282Y0003885217D01*
X0003578470Y0003890841D01*
X0003575658Y0003893653D01*
X0003570033Y0003896465D01*
X0003561597Y0003896465D01*
X0003555973Y0003893653D01*
X0003553160Y0003890841D01*
X0003550348Y0003885217D01*
X0003550348Y0003868344D01*
X0003553160Y0003862719D01*
X0003555973Y0003859907D01*
X0003561597Y0003857095D01*
X0003570033Y0003857095D01*
X0003525039Y0003857095D02*
X0003525039Y0003916150D01*
X0003502542Y0003916150D01*
X0003496917Y0003913338D01*
X0003494105Y0003910526D01*
X0003491293Y0003904902D01*
X0003491293Y0003896465D01*
X0003494105Y0003890841D01*
X0003496917Y0003888029D01*
X0003502542Y0003885217D01*
X0003525039Y0003885217D01*
X0003465984Y0003857095D02*
X0003465984Y0003916150D01*
X0003440674Y0003857095D02*
X0003440674Y0003888029D01*
X0003443487Y0003893653D01*
X0003449111Y0003896465D01*
X0003457547Y0003896465D01*
X0003463172Y0003893653D01*
X0003465984Y0003890841D01*
X0003404116Y0003857095D02*
X0003409741Y0003859907D01*
X0003412553Y0003862719D01*
X0003415365Y0003868344D01*
X0003415365Y0003885217D01*
X0003412553Y0003890841D01*
X0003409741Y0003893653D01*
X0003404116Y0003896465D01*
X0003395680Y0003896465D01*
X0003390056Y0003893653D01*
X0003387244Y0003890841D01*
X0003384431Y0003885217D01*
X0003384431Y0003868344D01*
X0003387244Y0003862719D01*
X0003390056Y0003859907D01*
X0003395680Y0003857095D01*
X0003404116Y0003857095D01*
X0003359122Y0003896465D02*
X0003359122Y0003857095D01*
X0003359122Y0003890841D02*
X0003356310Y0003893653D01*
X0003350686Y0003896465D01*
X0003342249Y0003896465D01*
X0003336625Y0003893653D01*
X0003333813Y0003888029D01*
X0003333813Y0003857095D01*
X0003283194Y0003859907D02*
X0003288818Y0003857095D01*
X0003300067Y0003857095D01*
X0003305691Y0003859907D01*
X0003308503Y0003865532D01*
X0003308503Y0003888029D01*
X0003305691Y0003893653D01*
X0003300067Y0003896465D01*
X0003288818Y0003896465D01*
X0003283194Y0003893653D01*
X0003280382Y0003888029D01*
X0003280382Y0003882404D01*
X0003308503Y0003876780D01*
X0003179145Y0003913338D02*
X0003184769Y0003916150D01*
X0003193205Y0003916150D01*
X0003201642Y0003913338D01*
X0003207266Y0003907714D01*
X0003210078Y0003902090D01*
X0003212890Y0003890841D01*
X0003212890Y0003882404D01*
X0003210078Y0003871156D01*
X0003207266Y0003865532D01*
X0003201642Y0003859907D01*
X0003193205Y0003857095D01*
X0003187581Y0003857095D01*
X0003179145Y0003859907D01*
X0003176332Y0003862719D01*
X0003176332Y0003882404D01*
X0003187581Y0003882404D01*
X0003125714Y0003857095D02*
X0003125714Y0003888029D01*
X0003128526Y0003893653D01*
X0003134150Y0003896465D01*
X0003145399Y0003896465D01*
X0003151023Y0003893653D01*
X0003125714Y0003859907D02*
X0003131338Y0003857095D01*
X0003145399Y0003857095D01*
X0003151023Y0003859907D01*
X0003153835Y0003865532D01*
X0003153835Y0003871156D01*
X0003151023Y0003876780D01*
X0003145399Y0003879592D01*
X0003131338Y0003879592D01*
X0003125714Y0003882404D01*
X0003097592Y0003857095D02*
X0003097592Y0003896465D01*
X0003097592Y0003890841D02*
X0003094780Y0003893653D01*
X0003089156Y0003896465D01*
X0003080719Y0003896465D01*
X0003075095Y0003893653D01*
X0003072283Y0003888029D01*
X0003072283Y0003857095D01*
X0003072283Y0003888029D02*
X0003069471Y0003893653D01*
X0003063847Y0003896465D01*
X0003055410Y0003896465D01*
X0003049786Y0003893653D01*
X0003046974Y0003888029D01*
X0003046974Y0003857095D01*
X0003018852Y0003857095D02*
X0003018852Y0003896465D01*
X0003018852Y0003890841D02*
X0003016040Y0003893653D01*
X0003010416Y0003896465D01*
X0003001979Y0003896465D01*
X0002996355Y0003893653D01*
X0002993543Y0003888029D01*
X0002993543Y0003857095D01*
X0002993543Y0003888029D02*
X0002990731Y0003893653D01*
X0002985106Y0003896465D01*
X0002976670Y0003896465D01*
X0002971046Y0003893653D01*
X0002968233Y0003888029D01*
X0002968233Y0003857095D01*
X0002914803Y0003857095D02*
X0002914803Y0003888029D01*
X0002917615Y0003893653D01*
X0002923239Y0003896465D01*
X0002934488Y0003896465D01*
X0002940112Y0003893653D01*
X0002914803Y0003859907D02*
X0002920427Y0003857095D01*
X0002934488Y0003857095D01*
X0002940112Y0003859907D01*
X0002942924Y0003865532D01*
X0002942924Y0003871156D01*
X0002940112Y0003876780D01*
X0002934488Y0003879592D01*
X0002920427Y0003879592D01*
X0002914803Y0003882404D01*
D12*
X0003149987Y0003211214D02*
X0003149987Y0003116725D01*
X0003205105Y0003211214D02*
X0003149987Y0003211214D01*
X0003205105Y0003116725D02*
X0003205105Y0003211214D01*
X0003149987Y0003116725D02*
X0003205105Y0003116725D01*
D13*
X0003058267Y0002404015D02*
X0003058267Y0002367401D01*
X0003058267Y0002279606D02*
X0003058267Y0002316220D01*
X0003058267Y0002279606D02*
X0002933858Y0002279606D01*
X0003058267Y0002404015D02*
X0003000787Y0002404015D01*
D12*
X0002342850Y0003170047D02*
X0003366472Y0003170047D01*
X0002342850Y0002492881D02*
X0002342850Y0003170047D01*
X0003366472Y0002492881D02*
X0002342850Y0002492881D01*
X0003366472Y0003170047D02*
X0003366472Y0002492881D01*
X0003858795Y0003212188D02*
X0003858795Y0003259433D01*
X0003789897Y0003259433D02*
X0003789897Y0003212188D01*
D13*
X0003262078Y0002347181D02*
X0003549480Y0002347181D01*
X0003549480Y0002347181D02*
X0003549480Y0002268440D01*
X0003549480Y0002268440D02*
X0003262078Y0002268440D01*
X0002996346Y0003754771D02*
X0002896346Y0003754771D01*
X0002896346Y0003824850D02*
X0002996346Y0003824850D01*
X0002896346Y0003824850D02*
X0002896346Y0003754771D01*
X0002996346Y0003754771D02*
X0002996346Y0003824850D01*
X0003416425Y0002353606D02*
X0003416425Y0002390220D01*
X0003416425Y0002478015D02*
X0003416425Y0002441401D01*
X0003416425Y0002478015D02*
X0003540834Y0002478015D01*
X0003416425Y0002353606D02*
X0003473905Y0002353606D01*
D12*
X0003165874Y0002404562D02*
X0003213118Y0002404562D01*
X0003213118Y0002473459D02*
X0003165874Y0002473459D01*
X0003762795Y0003212188D02*
X0003762795Y0003259433D01*
X0003693897Y0003259433D02*
X0003693897Y0003212188D01*
X0003667322Y0003211614D02*
X0003667322Y0003258858D01*
X0003598425Y0003258858D02*
X0003598425Y0003211614D01*
X0003056968Y0002283759D02*
X0003009724Y0002283759D01*
X0003009724Y0002214862D02*
X0003056968Y0002214862D01*
X0003020354Y0000027433D02*
X0003020354Y0000029401D01*
X0003183740Y0000027433D02*
X0003183740Y0000033141D01*
X0003183740Y0000230188D02*
X0003183740Y0000224480D01*
X0003020354Y0000230188D02*
X0003020354Y0000224480D01*
X0003020354Y0000027433D02*
X0003183740Y0000027433D01*
X0003020354Y0000230188D02*
X0003183740Y0000230188D01*
X0003020354Y0000029401D02*
X0002965236Y0000029401D01*
D13*
X0002905748Y0000112204D02*
X0002905748Y0000155511D01*
X0002830944Y0000112204D02*
X0002830944Y0000155511D01*
X0002903779Y0000027559D02*
X0002832913Y0000027559D01*
X0002883795Y0003862771D02*
X0002655448Y0003862771D01*
X0002883795Y0003732850D02*
X0002655448Y0003732850D01*
X0002883795Y0003862771D02*
X0002883795Y0003732850D01*
D12*
X0003818897Y0003700787D02*
X0003622047Y0003700787D01*
X0003622047Y0003700787D02*
X0003622047Y0003503937D01*
X0003622047Y0003503937D02*
X0003818897Y0003503937D01*
X0003818897Y0003503937D02*
X0003818897Y0003700787D01*
D13*
X0003163661Y0000830275D02*
X0003203031Y0000830275D01*
X0003203031Y0000763346D02*
X0003163661Y0000763346D01*
X0002693448Y0003737275D02*
X0002732818Y0003737275D01*
X0002732818Y0003670346D02*
X0002693448Y0003670346D01*
X0003373661Y0003785275D02*
X0003413031Y0003785275D01*
X0003413031Y0003718346D02*
X0003373661Y0003718346D01*
X0002804881Y0002132913D02*
X0002804881Y0002172283D01*
X0002871811Y0002172283D02*
X0002871811Y0002132913D01*
X0003733031Y0003768346D02*
X0003693661Y0003768346D01*
X0003693661Y0003835275D02*
X0003733031Y0003835275D01*
X0003814881Y0002061338D02*
X0003814881Y0002100708D01*
X0003881811Y0002100708D02*
X0003881811Y0002061338D01*
X0003277166Y0003448788D02*
X0003304725Y0003448788D01*
X0003304725Y0003496033D02*
X0003277166Y0003496033D01*
X0003395968Y0003497631D02*
X0003395968Y0003525190D01*
X0003348724Y0003525190D02*
X0003348724Y0003497631D01*
X0003304925Y0003575033D02*
X0003277366Y0003575033D01*
X0003277366Y0003527788D02*
X0003304925Y0003527788D01*
X0002801727Y0003352033D02*
X0002774168Y0003352033D01*
X0002774168Y0003304788D02*
X0002801727Y0003304788D01*
X0002726968Y0003356031D02*
X0002726968Y0003383590D01*
X0002679724Y0003383590D02*
X0002679724Y0003356031D01*
X0002774566Y0003388188D02*
X0002802125Y0003388188D01*
X0002802125Y0003435433D02*
X0002774566Y0003435433D01*
X0002804724Y0003495433D02*
X0002777165Y0003495433D01*
X0002777165Y0003448188D02*
X0002804724Y0003448188D01*
X0002731968Y0003503031D02*
X0002731968Y0003530590D01*
X0002684724Y0003530590D02*
X0002684724Y0003503031D01*
X0002774566Y0003538188D02*
X0002802125Y0003538188D01*
X0002802125Y0003585433D02*
X0002774566Y0003585433D01*
X0002998031Y0000273346D02*
X0002958661Y0000273346D01*
X0002958661Y0000340275D02*
X0002998031Y0000340275D01*
D12*
X0002425905Y0000256555D02*
X0002425905Y0000189625D01*
X0002370787Y0000256555D02*
X0002425905Y0000256555D01*
X0002370787Y0000189625D02*
X0002370787Y0000256555D01*
X0002370787Y0000256555D02*
X0002425905Y0000256555D01*
X0002370787Y0000189625D02*
X0002425905Y0000189625D01*
X0003204387Y0003210914D02*
X0003204387Y0003116425D01*
X0003259505Y0003210914D02*
X0003204387Y0003210914D01*
X0003259505Y0003116425D02*
X0003259505Y0003210914D01*
X0003204387Y0003116425D02*
X0003259505Y0003116425D01*
X0003149705Y0003116325D02*
X0003149705Y0003210814D01*
X0003094587Y0003116325D02*
X0003149705Y0003116325D01*
X0003094587Y0003210814D02*
X0003094587Y0003116325D01*
X0003149705Y0003210814D02*
X0003094587Y0003210814D01*
X0003208405Y0000326496D02*
X0003208405Y0000259566D01*
X0003153287Y0000326496D02*
X0003208405Y0000326496D01*
X0003153287Y0000259566D02*
X0003153287Y0000326496D01*
X0003153287Y0000326496D02*
X0003208405Y0000326496D01*
X0003153287Y0000259566D02*
X0003208405Y0000259566D01*
X0003260905Y0000326496D02*
X0003260905Y0000259566D01*
X0003205787Y0000326496D02*
X0003260905Y0000326496D01*
X0003205787Y0000259566D02*
X0003205787Y0000326496D01*
X0003205787Y0000326496D02*
X0003260905Y0000326496D01*
X0003205787Y0000259566D02*
X0003260905Y0000259566D01*
X0003150905Y0000326496D02*
X0003150905Y0000259566D01*
X0003095787Y0000326496D02*
X0003150905Y0000326496D01*
X0003095787Y0000259566D02*
X0003095787Y0000326496D01*
X0003095787Y0000326496D02*
X0003150905Y0000326496D01*
X0003095787Y0000259566D02*
X0003150905Y0000259566D01*
D13*
X0003475885Y0000504311D02*
X0003475885Y0000596043D01*
X0002885728Y0000504311D02*
X0002885728Y0000596043D01*
X0003475885Y0000504311D02*
X0002885728Y0000504311D01*
X0003475885Y0001059035D02*
X0002885728Y0001059035D01*
X0003475885Y0000712578D02*
X0003475885Y0001059035D01*
X0002885728Y0000712578D02*
X0002885728Y0001059035D01*
X0002887307Y0000698692D02*
X0002887307Y0000606960D01*
X0003477464Y0000698692D02*
X0003477464Y0000606960D01*
X0002887307Y0000698692D02*
X0003477464Y0000698692D01*
X0002887307Y0000143968D02*
X0003477464Y0000143968D01*
X0002887307Y0000490425D02*
X0002887307Y0000143968D01*
X0003477464Y0000490425D02*
X0003477464Y0000143968D01*
D12*
X0002901212Y0000851590D02*
X0002901212Y0002150803D01*
X0003476015Y0000851590D02*
X0002901212Y0000851590D01*
X0003476015Y0002150803D02*
X0003476015Y0000851590D01*
X0002901212Y0002150803D02*
X0003476015Y0002150803D01*
D13*
X0003721307Y0002664362D02*
X0003721307Y0002892708D01*
X0003591385Y0002664362D02*
X0003591385Y0002892708D01*
X0003721307Y0002664362D02*
X0003591385Y0002664362D01*
X0003843307Y0002194362D02*
X0003843307Y0002422708D01*
X0003713385Y0002194362D02*
X0003713385Y0002422708D01*
X0003843307Y0002194362D02*
X0003713385Y0002194362D01*
X0003328946Y0003202448D02*
X0002626584Y0003202448D01*
X0002626584Y0003202448D02*
X0002626584Y0003307173D01*
X0002626584Y0003307173D02*
X0003328946Y0003307173D01*
X0003328946Y0003307173D02*
X0003328946Y0003202448D01*
X0003378946Y0003202448D02*
X0003431308Y0003202448D01*
X0003431308Y0003202448D02*
X0003431308Y0003254811D01*
X0003853012Y0003035215D02*
X0003853012Y0002998601D01*
X0003853012Y0002910806D02*
X0003853012Y0002947420D01*
X0003853012Y0002910806D02*
X0003728603Y0002910806D01*
X0003853012Y0003035215D02*
X0003795532Y0003035215D01*
X0003433100Y0002680083D02*
X0003433100Y0002632839D01*
X0003502392Y0002632839D02*
X0003502392Y0002680083D01*
D12*
X0003658028Y0002568251D02*
X0003768264Y0002568251D01*
X0003768264Y0002568251D02*
X0003768264Y0002623370D01*
X0003768264Y0002623370D02*
X0003658028Y0002623370D01*
X0003658028Y0002623370D02*
X0003658028Y0002568251D01*
X0003831256Y0002526913D02*
X0003831256Y0002552503D01*
X0003831256Y0002664708D02*
X0003831256Y0002639118D01*
X0003595036Y0002639118D02*
X0003595036Y0002664708D01*
X0003595036Y0002526913D02*
X0003595036Y0002552503D01*
X0003831256Y0002526913D02*
X0003595036Y0002526913D01*
X0003595036Y0002664708D02*
X0003831256Y0002664708D01*
G04 next file*
G04 Gerber Fmt 4.6, Leading zero omitted, Abs format (unit mm)*
G04 Created by KiCad (PCBNEW 4.0.4-stable) date 05/07/17 02:49:31*
G01G01*
G04 APERTURE LIST*
G04 APERTURE END LIST*
D24*
G04 next file*
G04 Gerber Fmt 4.6, Leading zero omitted, Abs format (unit mm)*
G04 Created by KiCad (PCBNEW 4.0.4-stable) date 05/07/17 05:40:39*
G01G01*
G04 APERTURE LIST*
G04 APERTURE END LIST*
D25*
G04 next file*
G04 Gerber Fmt 4.6, Leading zero omitted, Abs format (unit mm)*
G04 Created by KiCad (PCBNEW 4.0.4-stable) date 05/07/17 06:05:31*
G01G01*
G04 APERTURE LIST*
G04 APERTURE END LIST*
D26*
G04 next file*
G04 Gerber Fmt 4.6, Leading zero omitted, Abs format (unit mm)*
G04 Created by KiCad (PCBNEW 4.0.4-stable) date 03/14/17 02:45:12*
G01G01*
G04 APERTURE LIST*
G04 APERTURE END LIST*
D27*
D28*
X0000320708Y0001441811D02*
X0000281338Y0001441811D01*
X0000281338Y0001508740D02*
X0000320708Y0001508740D01*
X0000177559Y0001770472D02*
X0000227165Y0001770472D01*
X0000446062Y0001770472D02*
X0000396456Y0001770472D01*
X0000177559Y0001622440D02*
X0000177559Y0001770472D01*
X0000446062Y0001533858D02*
X0000446062Y0001770472D01*
G04 next file*
G04 Gerber Fmt 4.6, Leading zero omitted, Abs format (unit mm)*
G04 Created by KiCad (PCBNEW 4.0.4-stable) date 03/14/17 04:06:51*
G01G01*
G04 APERTURE LIST*
G04 APERTURE END LIST*
D29*
G04 next file*
G04 Gerber Fmt 4.6, Leading zero omitted, Abs format (unit mm)*
G04 Created by KiCad (PCBNEW 4.0.4-stable) date 05/07/17 07:19:11*
G01G01*
G04 APERTURE LIST*
G04 APERTURE END LIST*
D30*
G04 next file*
G04 Gerber Fmt 4.6, Leading zero omitted, Abs format (unit mm)*
G04 Created by KiCad (PCBNEW 4.0.4-stable) date 05/07/17 05:40:39*
G01G01*
G04 APERTURE LIST*
G04 APERTURE END LIST*
D31*
G04 next file*
G04 Gerber Fmt 4.6, Leading zero omitted, Abs format (unit mm)*
G04 Created by KiCad (PCBNEW 4.0.4-stable) date 05/08/17 19:25:46*
G01G01*
G04 APERTURE LIST*
G04 APERTURE END LIST*
D32*
M02*