%
M48
METRIC,000.000
T01C0.50
%
T01
X059750Y047087
X059750Y046087
X059750Y045087
X059750Y044087
X059750Y043087
X059750Y042087
X059750Y041087
X059750Y040087
X058250Y040821
X058250Y041821
X058250Y042821
X058250Y043821
X058250Y044821
X058250Y045821
X058250Y046821
X058250Y047821
X059750Y092302
X059750Y091302
X059750Y090302
X059750Y089302
X059750Y088302
X059750Y087302
X059750Y086302
X059750Y085302
X058250Y085036
X058250Y086036
X058250Y087036
X058250Y088036
X058250Y089036
X058250Y090036
X058250Y091036
X058250Y092036
X030250Y070929
X030250Y071929
X030250Y072929
X030250Y073929
X030250Y074929
X030250Y075929
X030250Y076929
X032500Y077228
X032500Y076228
X032500Y075228
X032500Y074228
X032500Y073228
X032500Y072228
X032500Y071228
X059750Y009087
X059750Y008087
X059750Y007087
X059750Y006087
X059750Y005087
X059750Y004087
X059750Y003087
X059877Y002099
X056500Y002107
X056500Y003107
X056500Y004107
X056500Y005107
X056500Y006107
X056500Y007107
X056500Y008107
X036750Y009420
X036750Y008420
X036750Y007420
X036750Y006420
X036750Y005420
X036750Y004420
X036750Y003420
X036750Y002420
X033500Y003107
X033500Y004107
X033500Y005107
X033500Y006107
X033500Y007107
X033500Y008107
X033500Y009107
X012373Y008461
X011373Y008466
X010669Y008761
X010669Y009761
X010669Y010761
X010669Y011761
X010669Y012761
X010669Y013761
X010669Y014761
X010669Y015761
X013750Y014420
X013750Y013420
X013750Y012420
X013750Y011420
X013750Y010420
X013750Y009420
X017750Y028950
X017750Y027950
X017750Y026950
X017750Y025950
X017750Y024950
X012574Y023963
X012574Y024963
X012574Y025963
X012574Y026963
X012574Y027963
X012574Y028963
X012574Y029963
X017750Y044950
X017750Y043950
X017750Y042950
X017750Y041950
X017750Y040950
X017750Y039950
X017750Y038950
X014774Y038063
X014774Y039063
X014774Y040063
X014774Y041063
X014774Y042063
X014774Y043063
X014774Y044063
X014774Y045063
X017750Y057950
X017750Y056950
X017750Y055950
X017750Y054950
X017750Y053950
X017750Y052950
X017750Y051950
X015500Y051107
X015500Y052107
X015500Y053107
X015500Y054107
X015500Y055107
X015500Y056107
X015500Y057107
X015500Y058107
X017750Y080950
X017750Y079950
X017750Y078950
X017750Y077950
X017750Y076950
X017750Y075950
X017750Y074950
X015250Y075184
X015250Y076184
X015250Y077184
X015250Y078184
X015250Y079184
X015250Y080184
X015250Y081184
M30