%MOIN*%
%OFA0B0*%
%FSLAX46Y46*%
%IPPOS*%
%LPD*%
%ADD10C,0.0039370078740157488*%
%ADD11C,0.1*%
%ADD12R,0.063779527559055124X0.07165354330708662*%
%ADD13O,0.091338582677165353X0.091338582677165353*%
%ADD14R,0.079527559055118116X0.079527559055118116*%
%ADD15O,0.079527559055118116X0.079527559055118116*%
%ADD16R,0.15039370078740158X0.05196850393700788*%
%ADD17R,0.14645669291338584X0.075590551181102361*%
%ADD18C,0.0725984251968504*%
%ADD19R,0.091338582677165353X0.091338582677165353*%
%ADD20R,0.0625984251968504X0.050787401574803152*%
%ADD21C,0.079527559055118116*%
%ADD22R,0.07165354330708662X0.063779527559055124*%
%ADD23R,0.061811023622047247X0.07165354330708662*%
%ADD24R,0.07165354330708662X0.061811023622047247*%
%ADD25R,0.036220472440944888X0.067716535433070865*%
%ADD26R,0.036220472440944888X0.091338582677165353*%
%ADD27R,0.036220472440944888X0.075590551181102361*%
%ADD28R,0.032283464566929133X0.048031496062992125*%
%ADD29C,0.07165354330708662*%
%ADD30C,0.13070866141732285*%
%ADD31C,0.091338582677165353*%
%ADD32C,0.01*%
%ADD43C,0.0078740157480314977*%
%ADD44C,0.1141732283464567*%
%ADD45R,0.29133858267716539X0.21259842519685043*%
%ADD46R,0.2283464566929134X0.21259842519685043*%
%ADD47C,0.082677165354330714*%
%ADD48C,0.13385826771653545*%
%ADD49R,0.17322834645669294X0.094488188976377951*%
%ADD50C,0.11023622047244094*%
%ADD51R,0.11023622047244094X0.11023622047244094*%
%ADD52C,0.0078740157480314977*%
%ADD53R,0.074803149606299218X0.064960629921259838*%
%ADD54R,0.082677165354330714X0.041338582677165357*%
%ADD55R,0.082677165354330714X0.082677165354330714*%
%ADD56O,0.082677165354330714X0.082677165354330714*%
%ADD57C,0.0078740157480314977*%
%ADD58R,0.074803149606299218X0.064960629921259838*%
%ADD59R,0.082677165354330714X0.082677165354330714*%
%ADD60O,0.082677165354330714X0.082677165354330714*%
%ADD61C,0.0078740157480314977*%
%ADD62R,0.082677165354330714X0.082677165354330714*%
%ADD63O,0.082677165354330714X0.082677165354330714*%
%ADD64R,0.041338582677165357X0.031496062992125991*%
%ADD65C,0.074803149606299218*%
%ADD66C,0.005905511811023622*%
%ADD67R,0.04X0.04*%
%ADD68O,0.05X0.1*%
%ADD69C,0.05*%
%ADD70C,0.035*%
%ADD71C,0.0078740157480314977*%
%ADD72R,0.1456692913385827X0.082677165354330714*%
%ADD73R,0.047244094488188976X0.0905511811023622*%
%ADD74R,0.074803149606299218X0.066929133858267723*%
%ADD75C,0.13385826771653545*%
%ADD76C,0.0078740157480314977*%
%ADD77R,0.074803149606299218X0.064960629921259838*%
%ADD78R,0.082677165354330714X0.041338582677165357*%
%ADD79R,0.082677165354330714X0.082677165354330714*%
%ADD80O,0.082677165354330714X0.082677165354330714*%
%ADD81C,0.0078740157480314977*%
%LPD*%
G01G01*
D10*
D11*
X0000728346Y0005511811D02*
X0003753937Y0003220472D03*
D12*
X0002525846Y0003181161D03*
X0002525846Y0003287460D03*
D13*
X0002394661Y0003103118D03*
X0002394661Y0002559811D03*
X0003294661Y0003103118D03*
X0003294661Y0002985007D03*
X0003294661Y0002677921D03*
X0003294661Y0002559811D03*
D14*
X0002463346Y0000511811D03*
D15*
X0002463346Y0000611811D03*
X0002463346Y0000711811D03*
X0002463346Y0000811811D03*
X0002463346Y0000911810D03*
X0002463346Y0001011811D03*
D16*
X0003653094Y0002782440D03*
X0003653094Y0002861181D03*
D17*
X0003871598Y0002687952D03*
X0003871598Y0002955669D03*
D18*
X0003562346Y0002781811D03*
X0003562346Y0002861811D03*
X0003742346Y0002861811D03*
X0003742346Y0002781811D03*
D19*
X0003662346Y0002721811D03*
X0003662346Y0002921811D03*
D14*
X0002758346Y0001121811D03*
D15*
X0002758346Y0001221811D03*
X0002758346Y0001321811D03*
X0002758346Y0001421811D03*
X0002758346Y0001521811D03*
X0002758346Y0001621811D03*
X0002758346Y0001721810D03*
X0002758346Y0001821811D03*
X0002758346Y0001921810D03*
X0002758346Y0002021811D03*
X0002758346Y0002121811D03*
X0002758346Y0002221811D03*
X0002758346Y0002321811D03*
D14*
X0002478346Y0003661810D03*
D15*
X0002478346Y0003561811D03*
X0002478346Y0003461811D03*
X0002478346Y0003361811D03*
D20*
X0003570346Y0002946614D03*
X0003570346Y0002997007D03*
D14*
X0003546346Y0003787811D03*
D15*
X0003546346Y0003687811D03*
X0003546346Y0003587811D03*
X0003546346Y0003487811D03*
X0003546346Y0003387811D03*
D12*
X0002448346Y0003180511D03*
X0002448346Y0003286811D03*
D21*
X0002602346Y0003633811D03*
X0002602346Y0003533811D03*
X0002602346Y0003433811D03*
X0002602346Y0003333811D03*
X0002602346Y0003233811D03*
X0003456677Y0003633811D03*
X0003456677Y0003533811D03*
X0003456677Y0003433811D03*
X0003456677Y0003333811D03*
X0003456677Y0003233811D03*
X0003456677Y0003133811D03*
D22*
X0003894045Y0000935410D03*
X0003787746Y0000935410D03*
D23*
X0002710846Y0000390098D03*
X0002710846Y0000488523D03*
D24*
X0002981633Y0002569310D03*
X0003080059Y0002569310D03*
D25*
X0002583346Y0002638110D03*
D26*
X0002633346Y0002649921D03*
X0002683346Y0002649921D03*
X0002733346Y0002649921D03*
X0002783346Y0002649921D03*
X0002833346Y0002649921D03*
X0002883346Y0002649921D03*
X0002933346Y0002649921D03*
X0002983346Y0002649921D03*
X0003033346Y0002649921D03*
X0003083346Y0002649921D03*
X0003133346Y0002649921D03*
X0003183346Y0002649921D03*
X0003233346Y0002649921D03*
X0003233346Y0003020000D03*
X0003183346Y0003020000D03*
X0003133346Y0003020000D03*
X0003083346Y0003020000D03*
X0003033346Y0003020000D03*
X0002983346Y0003020000D03*
X0002933346Y0003020000D03*
X0002883346Y0003020000D03*
X0002833346Y0003020000D03*
X0002783346Y0003020000D03*
X0002733346Y0003020000D03*
X0002683346Y0003020000D03*
X0002633346Y0003020000D03*
D27*
X0002583346Y0003027874D03*
D28*
X0003811946Y0001682211D03*
X0003839505Y0001682211D03*
X0003813187Y0001749811D03*
X0003840746Y0001749811D03*
D29*
X0003320767Y0000549192D03*
X0003220767Y0000549192D03*
X0003140846Y0000549192D03*
X0003040846Y0000549192D03*
D30*
X0003440846Y0000654311D03*
X0002922736Y0000654311D03*
D14*
X0002630846Y0000391810D03*
D15*
X0002530846Y0000391810D03*
X0002430846Y0000391810D03*
D29*
X0003042425Y0000653811D03*
X0003142425Y0000653811D03*
X0003222346Y0000653811D03*
X0003322346Y0000653811D03*
D30*
X0002922346Y0000548692D03*
X0003440456Y0000548692D03*
D21*
X0003330846Y0000391810D03*
D15*
X0003230846Y0000391810D03*
X0003130846Y0000391810D03*
X0003030846Y0000391810D03*
X0002930846Y0000391810D03*
D18*
X0003588346Y0002231811D03*
X0003688346Y0002231811D03*
X0003588346Y0002131810D03*
X0003688346Y0002131810D03*
X0003588346Y0002031811D03*
X0003688346Y0002031811D03*
X0003588346Y0001931811D03*
X0003688346Y0001931811D03*
X0003588346Y0001831811D03*
X0003688346Y0001831811D03*
X0003588346Y0001731811D03*
X0003688346Y0001731811D03*
X0003588346Y0001631810D03*
X0003688346Y0001631810D03*
X0003588346Y0001531811D03*
X0003688346Y0001531811D03*
X0003588346Y0001431810D03*
X0003688346Y0001431810D03*
X0003588346Y0001331811D03*
X0003688346Y0001331811D03*
X0003588346Y0001231810D03*
X0003688346Y0001231810D03*
X0003588346Y0001131811D03*
X0003688346Y0001131811D03*
X0003588346Y0001031811D03*
X0003688346Y0001031811D03*
X0003588346Y0000931811D03*
X0003688346Y0000931811D03*
X0003588346Y0000831811D03*
X0003688346Y0000831811D03*
X0003588346Y0000731810D03*
X0003688346Y0000731810D03*
X0003588346Y0000631811D03*
X0003688346Y0000631811D03*
X0003588346Y0000531810D03*
X0003688346Y0000531810D03*
X0003588346Y0000431810D03*
X0003688346Y0000431810D03*
X0003588346Y0000331810D03*
X0003688346Y0000331810D03*
X0003488346Y0000431810D03*
X0003488346Y0000331810D03*
X0003388346Y0000431810D03*
X0003388346Y0000331810D03*
D31*
X0003046881Y0002087811D03*
X0002948456Y0002087811D03*
X0003428771Y0002087811D03*
X0003330346Y0002087811D03*
D28*
X0003896105Y0003056211D03*
X0003868546Y0003056211D03*
X0003840987Y0003056211D03*
D11*
X0002492125Y0003783464D03*
X0002759842Y0000265748D03*
X0003832677Y0000220472D03*
D32*
G36*
X0002530433Y0002993188D02*
X0002367204Y0002993188D01*
X0002367204Y0003038307D01*
X0002530433Y0003038307D01*
X0002530433Y0002993188D01*
X0002530433Y0002993188D01*
G37*
X0002530433Y0002993188D02*
X0002367204Y0002993188D01*
X0002367204Y0003038307D01*
X0002530433Y0003038307D01*
X0002530433Y0002993188D01*
G36*
X0002530433Y0002607362D02*
X0002367204Y0002607362D01*
X0002367204Y0002668228D01*
X0002530433Y0002668228D01*
X0002530433Y0002607362D01*
X0002530433Y0002607362D01*
G37*
X0002530433Y0002607362D02*
X0002367204Y0002607362D01*
X0002367204Y0002668228D01*
X0002530433Y0002668228D01*
X0002530433Y0002607362D01*
G04 next file*
G04 Gerber Fmt 4.6, Leading zero omitted, Abs format (unit mm)*
G04 Created by KiCad (PCBNEW 4.0.4-stable) date 05/07/17 02:49:31*
G01G01*
G04 APERTURE LIST*
G04 APERTURE END LIST*
D43*
D44*
X-0004409448Y0006141732D02*
X0001120078Y0003631889D03*
X0001872047Y0003631889D03*
X0001120078Y0000777559D03*
X0001872047Y0000777559D03*
D45*
X0001159448Y0003818897D03*
X0001872047Y0003818897D03*
D46*
X0001088582Y0000590551D03*
X0001903543Y0000590551D03*
D47*
X0002173228Y0003622047D03*
D48*
X0000807086Y0003287401D03*
X0002185039Y0001122047D03*
D49*
X0001120078Y0003681102D03*
X0001872047Y0003681102D03*
X0001120078Y0000728346D03*
X0001872047Y0000728346D03*
D50*
X0000892859Y0002751651D03*
D51*
X0000892859Y0002889447D03*
G04 next file*
G04 Gerber Fmt 4.6, Leading zero omitted, Abs format (unit mm)*
G04 Created by KiCad (PCBNEW 4.0.4-stable) date 05/07/17 05:40:39*
G01G01*
G04 APERTURE LIST*
G04 APERTURE END LIST*
D52*
D53*
X-0004251968Y0007125984D02*
X0001848425Y0002874015D03*
X0001749999Y0002874015D03*
D54*
X0001347440Y0003080905D03*
X0001347440Y0003030905D03*
X0001347440Y0002980905D03*
X0001347440Y0002930905D03*
X0001634842Y0002930905D03*
X0001634842Y0002980905D03*
X0001634842Y0003030905D03*
X0001634842Y0003080905D03*
D55*
X0001850196Y0002781496D03*
D56*
X0001750196Y0002781496D03*
X0001650196Y0002781496D03*
X0001550196Y0002781496D03*
X0001450196Y0002781496D03*
X0001350196Y0002781496D03*
G04 next file*
G04 Gerber Fmt 4.6, Leading zero omitted, Abs format (unit mm)*
G04 Created by KiCad (PCBNEW 4.0.4-stable) date 05/07/17 06:05:31*
G01G01*
G04 APERTURE LIST*
G04 APERTURE END LIST*
D57*
D58*
X0007755905Y-0003976377D02*
X0001677165Y0000283464D03*
X0001578740Y0000283464D03*
D59*
X0001653740Y0000368110D03*
D60*
X0001753740Y0000368110D03*
X0001853740Y0000368110D03*
X0001953740Y0000368110D03*
X0002053740Y0000368110D03*
X0002153740Y0000368110D03*
D59*
X0001821259Y0000086614D03*
D60*
X0001821259Y0000186614D03*
X0001921259Y0000086614D03*
X0001921259Y0000186614D03*
X0002021259Y0000086614D03*
X0002021259Y0000186614D03*
G04 next file*
G04 Gerber Fmt 4.6, Leading zero omitted, Abs format (unit mm)*
G04 Created by KiCad (PCBNEW 4.0.4-stable) date 03/14/17 02:45:12*
G01G01*
G04 APERTURE LIST*
G04 APERTURE END LIST*
D61*
D62*
X0005511811Y-0002204724D02*
X0000111811Y0001795275D03*
D63*
X0000111811Y0001695275D03*
X0000111811Y0001595275D03*
D62*
X0000511811Y0001795275D03*
D63*
X0000511811Y0001695275D03*
X0000511811Y0001595275D03*
X0000511811Y0001495275D03*
D64*
X0000274409Y0001720866D03*
X0000274409Y0001669685D03*
X0000349212Y0001695275D03*
X0000274409Y0001695275D03*
X0000349212Y0001669685D03*
X0000349212Y0001720866D03*
D65*
X0000311810Y0001495275D03*
X0000111811Y0001495275D03*
G04 next file*
G04 Gerber Fmt 4.6, Leading zero omitted, Abs format (unit mm)*
G04 Created by KiCad (PCBNEW 4.0.4-stable) date 03/14/17 04:06:51*
G01G01*
G04 APERTURE LIST*
G04 APERTURE END LIST*
D66*
D67*
X0008425196Y-0004842519D02*
X0000375196Y0000616850D03*
X0000375196Y0000538110D03*
X0000375196Y0000695590D03*
X0000375196Y0000459370D03*
X0000375196Y0000774330D03*
X0000375196Y0000380629D03*
D68*
X0000446062Y0000286141D03*
X0000446062Y0000868818D03*
D69*
X0000375196Y0001177480D03*
X0000175196Y0000277480D03*
X0000175196Y0000177480D03*
X0000275196Y0000177480D03*
X0000275196Y0000277480D03*
X0000275196Y0000077480D03*
X0000175196Y0000477480D03*
X0000275196Y0001277480D03*
X0000175196Y0001077480D03*
X0000175196Y0000877480D03*
X0000275196Y0001177480D03*
D70*
X0000275196Y0000537480D03*
X0000175196Y0000747480D03*
G04 next file*
G04 Gerber Fmt 4.6, Leading zero omitted, Abs format (unit mm)*
G04 Created by KiCad (PCBNEW 4.0.4-stable) date 05/07/17 07:19:11*
G01G01*
G04 APERTURE LIST*
G04 APERTURE END LIST*
D71*
D72*
X-0005511811Y0005826771D02*
X0000409448Y0002009842D03*
X0000192913Y0002009842D03*
D73*
X0000263779Y0002114173D03*
X0000338582Y0002114173D03*
X0000301181Y0002232283D03*
D74*
X0000246062Y0002329724D03*
X0000352362Y0002329724D03*
D75*
X0000125984Y0002304133D03*
X0000128937Y0002135826D03*
X0000466535Y0002307086D03*
X0000465551Y0002132874D03*
G04 next file*
G04 Gerber Fmt 4.6, Leading zero omitted, Abs format (unit mm)*
G04 Created by KiCad (PCBNEW 4.0.4-stable) date 05/07/17 05:40:39*
G01G01*
G04 APERTURE LIST*
G04 APERTURE END LIST*
D76*
D77*
X0006850393Y-0003976377D02*
X0000750000Y0000275590D03*
X0000848425Y0000275590D03*
D78*
X0001250984Y0000068700D03*
X0001250984Y0000118700D03*
X0001250984Y0000168700D03*
X0001250984Y0000218700D03*
X0000963582Y0000218700D03*
X0000963582Y0000168700D03*
X0000963582Y0000118700D03*
X0000963582Y0000068700D03*
D79*
X0000748228Y0000368110D03*
D80*
X0000848228Y0000368110D03*
X0000948228Y0000368110D03*
X0001048228Y0000368110D03*
X0001148228Y0000368110D03*
X0001248228Y0000368110D03*
G04 next file*
G04 Gerber Fmt 4.6, Leading zero omitted, Abs format (unit mm)*
G04 Created by KiCad (PCBNEW 4.0.4-stable) date 05/08/17 19:25:46*
G01G01*
G04 APERTURE LIST*
G04 APERTURE END LIST*
D81*
M02*