%TF.GenerationSoftware,KiCad,Pcbnew,4.0.4-stable*%
%TF.CreationDate,2017-03-14T03:12:31+02:00*%
%TF.ProjectId,keypad_prototype,6B65797061645F70726F746F74797065,rev?*%
%TF.FileFunction,Soldermask,Bot*%
%FSLAX46Y46*%
G04 Gerber Fmt 4.6, Leading zero omitted, Abs format (unit mm)*
G04 Created by KiCad (PCBNEW 4.0.4-stable) date 03/14/17 03:12:31*
%MOMM*%
%LPD*%
G01*
G04 APERTURE LIST*
%ADD10C,0.100000*%
%ADD11R,1.450000X1.800000*%
%ADD12C,1.100000*%
%ADD13R,1.800000X1.450000*%
%ADD14C,1.924000*%
G04 APERTURE END LIST*
D10*
D11*
X150839000Y-149203000D03*
X150839000Y-152803000D03*
X149389000Y-149203000D03*
X149389000Y-152803000D03*
D12*
X151014000Y-151003000D03*
X149214000Y-151003000D03*
D11*
X186219000Y-160423000D03*
X186219000Y-156823000D03*
X187669000Y-160423000D03*
X187669000Y-156823000D03*
D12*
X186044000Y-158623000D03*
X187844000Y-158623000D03*
D13*
X178413000Y-162724000D03*
X182013000Y-162724000D03*
X178413000Y-164174000D03*
X182013000Y-164174000D03*
D12*
X180213000Y-162549000D03*
X180213000Y-164349000D03*
D11*
X150839000Y-122787000D03*
X150839000Y-126387000D03*
X149389000Y-122787000D03*
X149389000Y-126387000D03*
D12*
X151014000Y-124587000D03*
X149214000Y-124587000D03*
D11*
X150839000Y-113262000D03*
X150839000Y-116862000D03*
X149389000Y-113262000D03*
X149389000Y-116862000D03*
D12*
X151014000Y-115062000D03*
X149214000Y-115062000D03*
D14*
X151041100Y-110083600D03*
X151041100Y-107543600D03*
X186601100Y-153263600D03*
X186601100Y-150723600D03*
X186601100Y-148183600D03*
X186601100Y-145643600D03*
X186601100Y-143103600D03*
X151041100Y-130403600D03*
X151041100Y-132943600D03*
X151041100Y-135483600D03*
X151041100Y-155803600D03*
X151041100Y-158343600D03*
X151041100Y-160883600D03*
X186601100Y-107543600D03*
X186601100Y-110083600D03*
X186601100Y-112623600D03*
X186601100Y-115163600D03*
X186601100Y-122783600D03*
M02*
