%TF.GenerationSoftware,KiCad,Pcbnew,4.0.4-stable*%
%TF.CreationDate,2017-01-23T22:58:05+02:00*%
%TF.ProjectId,keypad_prototype,6B65797061645F70726F746F74797065,rev?*%
%TF.FileFunction,Legend,Top*%
%FSLAX46Y46*%
G04 Gerber Fmt 4.6, Leading zero omitted, Abs format (unit mm)*
G04 Created by KiCad (PCBNEW 4.0.4-stable) date 01/23/17 22:58:05*
%MOMM*%
%LPD*%
G01*
G04 APERTURE LIST*
%ADD10C,0.100000*%
%ADD11C,0.150000*%
G04 APERTURE END LIST*
D10*
D11*
X169910000Y-121793000D02*
G75*
G03X169910000Y-121793000I-1000000J0D01*
G01*
X167710000Y-119993000D02*
X170110000Y-119993000D01*
X167110000Y-120593000D02*
X167710000Y-119993000D01*
X167110000Y-122993000D02*
X167110000Y-120593000D01*
X167710000Y-123593000D02*
X167110000Y-122993000D01*
X170110000Y-123593000D02*
X167710000Y-123593000D01*
X170710000Y-122993000D02*
X170110000Y-123593000D01*
X170710000Y-120593000D02*
X170710000Y-122993000D01*
X170110000Y-119993000D02*
X170710000Y-120593000D01*
X167460000Y-119093000D02*
X170360000Y-119093000D01*
X167010000Y-119543000D02*
X167460000Y-119093000D01*
X166210000Y-122793000D02*
X166210000Y-120793000D01*
X167460000Y-124493000D02*
X167010000Y-124043000D01*
X170360000Y-124493000D02*
X167460000Y-124493000D01*
X170810000Y-124043000D02*
X170360000Y-124493000D01*
X171610000Y-120793000D02*
X171610000Y-122793000D01*
X170360000Y-119093000D02*
X170810000Y-119543000D01*
X161020000Y-115570000D02*
G75*
G03X161020000Y-115570000I-1000000J0D01*
G01*
X158820000Y-113770000D02*
X161220000Y-113770000D01*
X158220000Y-114370000D02*
X158820000Y-113770000D01*
X158220000Y-116770000D02*
X158220000Y-114370000D01*
X158820000Y-117370000D02*
X158220000Y-116770000D01*
X161220000Y-117370000D02*
X158820000Y-117370000D01*
X161820000Y-116770000D02*
X161220000Y-117370000D01*
X161820000Y-114370000D02*
X161820000Y-116770000D01*
X161220000Y-113770000D02*
X161820000Y-114370000D01*
X158570000Y-112870000D02*
X161470000Y-112870000D01*
X158120000Y-113320000D02*
X158570000Y-112870000D01*
X157320000Y-116570000D02*
X157320000Y-114570000D01*
X158570000Y-118270000D02*
X158120000Y-117820000D01*
X161470000Y-118270000D02*
X158570000Y-118270000D01*
X161920000Y-117820000D02*
X161470000Y-118270000D01*
X162720000Y-114570000D02*
X162720000Y-116570000D01*
X161470000Y-112870000D02*
X161920000Y-113320000D01*
X180070000Y-153670000D02*
G75*
G03X180070000Y-153670000I-1000000J0D01*
G01*
X177870000Y-151870000D02*
X180270000Y-151870000D01*
X177270000Y-152470000D02*
X177870000Y-151870000D01*
X177270000Y-154870000D02*
X177270000Y-152470000D01*
X177870000Y-155470000D02*
X177270000Y-154870000D01*
X180270000Y-155470000D02*
X177870000Y-155470000D01*
X180870000Y-154870000D02*
X180270000Y-155470000D01*
X180870000Y-152470000D02*
X180870000Y-154870000D01*
X180270000Y-151870000D02*
X180870000Y-152470000D01*
X177620000Y-150970000D02*
X180520000Y-150970000D01*
X177170000Y-151420000D02*
X177620000Y-150970000D01*
X176370000Y-154670000D02*
X176370000Y-152670000D01*
X177620000Y-156370000D02*
X177170000Y-155920000D01*
X180520000Y-156370000D02*
X177620000Y-156370000D01*
X180970000Y-155920000D02*
X180520000Y-156370000D01*
X181770000Y-152670000D02*
X181770000Y-154670000D01*
X180520000Y-150970000D02*
X180970000Y-151420000D01*
X159750000Y-153670000D02*
G75*
G03X159750000Y-153670000I-1000000J0D01*
G01*
X157550000Y-151870000D02*
X159950000Y-151870000D01*
X156950000Y-152470000D02*
X157550000Y-151870000D01*
X156950000Y-154870000D02*
X156950000Y-152470000D01*
X157550000Y-155470000D02*
X156950000Y-154870000D01*
X159950000Y-155470000D02*
X157550000Y-155470000D01*
X160550000Y-154870000D02*
X159950000Y-155470000D01*
X160550000Y-152470000D02*
X160550000Y-154870000D01*
X159950000Y-151870000D02*
X160550000Y-152470000D01*
X157300000Y-150970000D02*
X160200000Y-150970000D01*
X156850000Y-151420000D02*
X157300000Y-150970000D01*
X156050000Y-154670000D02*
X156050000Y-152670000D01*
X157300000Y-156370000D02*
X156850000Y-155920000D01*
X160200000Y-156370000D02*
X157300000Y-156370000D01*
X160650000Y-155920000D02*
X160200000Y-156370000D01*
X161450000Y-152670000D02*
X161450000Y-154670000D01*
X160200000Y-150970000D02*
X160650000Y-151420000D01*
X169910000Y-153670000D02*
G75*
G03X169910000Y-153670000I-1000000J0D01*
G01*
X167710000Y-151870000D02*
X170110000Y-151870000D01*
X167110000Y-152470000D02*
X167710000Y-151870000D01*
X167110000Y-154870000D02*
X167110000Y-152470000D01*
X167710000Y-155470000D02*
X167110000Y-154870000D01*
X170110000Y-155470000D02*
X167710000Y-155470000D01*
X170710000Y-154870000D02*
X170110000Y-155470000D01*
X170710000Y-152470000D02*
X170710000Y-154870000D01*
X170110000Y-151870000D02*
X170710000Y-152470000D01*
X167460000Y-150970000D02*
X170360000Y-150970000D01*
X167010000Y-151420000D02*
X167460000Y-150970000D01*
X166210000Y-154670000D02*
X166210000Y-152670000D01*
X167460000Y-156370000D02*
X167010000Y-155920000D01*
X170360000Y-156370000D02*
X167460000Y-156370000D01*
X170810000Y-155920000D02*
X170360000Y-156370000D01*
X171610000Y-152670000D02*
X171610000Y-154670000D01*
X170360000Y-150970000D02*
X170810000Y-151420000D01*
X159750000Y-134620000D02*
G75*
G03X159750000Y-134620000I-1000000J0D01*
G01*
X157550000Y-132820000D02*
X159950000Y-132820000D01*
X156950000Y-133420000D02*
X157550000Y-132820000D01*
X156950000Y-135820000D02*
X156950000Y-133420000D01*
X157550000Y-136420000D02*
X156950000Y-135820000D01*
X159950000Y-136420000D02*
X157550000Y-136420000D01*
X160550000Y-135820000D02*
X159950000Y-136420000D01*
X160550000Y-133420000D02*
X160550000Y-135820000D01*
X159950000Y-132820000D02*
X160550000Y-133420000D01*
X157300000Y-131920000D02*
X160200000Y-131920000D01*
X156850000Y-132370000D02*
X157300000Y-131920000D01*
X156050000Y-135620000D02*
X156050000Y-133620000D01*
X157300000Y-137320000D02*
X156850000Y-136870000D01*
X160200000Y-137320000D02*
X157300000Y-137320000D01*
X160650000Y-136870000D02*
X160200000Y-137320000D01*
X161450000Y-133620000D02*
X161450000Y-135620000D01*
X160200000Y-131920000D02*
X160650000Y-132370000D01*
X169910000Y-134620000D02*
G75*
G03X169910000Y-134620000I-1000000J0D01*
G01*
X167710000Y-132820000D02*
X170110000Y-132820000D01*
X167110000Y-133420000D02*
X167710000Y-132820000D01*
X167110000Y-135820000D02*
X167110000Y-133420000D01*
X167710000Y-136420000D02*
X167110000Y-135820000D01*
X170110000Y-136420000D02*
X167710000Y-136420000D01*
X170710000Y-135820000D02*
X170110000Y-136420000D01*
X170710000Y-133420000D02*
X170710000Y-135820000D01*
X170110000Y-132820000D02*
X170710000Y-133420000D01*
X167460000Y-131920000D02*
X170360000Y-131920000D01*
X167010000Y-132370000D02*
X167460000Y-131920000D01*
X166210000Y-135620000D02*
X166210000Y-133620000D01*
X167460000Y-137320000D02*
X167010000Y-136870000D01*
X170360000Y-137320000D02*
X167460000Y-137320000D01*
X170810000Y-136870000D02*
X170360000Y-137320000D01*
X171610000Y-133620000D02*
X171610000Y-135620000D01*
X170360000Y-131920000D02*
X170810000Y-132370000D01*
X180070000Y-134620000D02*
G75*
G03X180070000Y-134620000I-1000000J0D01*
G01*
X177870000Y-132820000D02*
X180270000Y-132820000D01*
X177270000Y-133420000D02*
X177870000Y-132820000D01*
X177270000Y-135820000D02*
X177270000Y-133420000D01*
X177870000Y-136420000D02*
X177270000Y-135820000D01*
X180270000Y-136420000D02*
X177870000Y-136420000D01*
X180870000Y-135820000D02*
X180270000Y-136420000D01*
X180870000Y-133420000D02*
X180870000Y-135820000D01*
X180270000Y-132820000D02*
X180870000Y-133420000D01*
X177620000Y-131920000D02*
X180520000Y-131920000D01*
X177170000Y-132370000D02*
X177620000Y-131920000D01*
X176370000Y-135620000D02*
X176370000Y-133620000D01*
X177620000Y-137320000D02*
X177170000Y-136870000D01*
X180520000Y-137320000D02*
X177620000Y-137320000D01*
X180970000Y-136870000D02*
X180520000Y-137320000D01*
X181770000Y-133620000D02*
X181770000Y-135620000D01*
X180520000Y-131920000D02*
X180970000Y-132370000D01*
X159750000Y-140970000D02*
G75*
G03X159750000Y-140970000I-1000000J0D01*
G01*
X157550000Y-139170000D02*
X159950000Y-139170000D01*
X156950000Y-139770000D02*
X157550000Y-139170000D01*
X156950000Y-142170000D02*
X156950000Y-139770000D01*
X157550000Y-142770000D02*
X156950000Y-142170000D01*
X159950000Y-142770000D02*
X157550000Y-142770000D01*
X160550000Y-142170000D02*
X159950000Y-142770000D01*
X160550000Y-139770000D02*
X160550000Y-142170000D01*
X159950000Y-139170000D02*
X160550000Y-139770000D01*
X157300000Y-138270000D02*
X160200000Y-138270000D01*
X156850000Y-138720000D02*
X157300000Y-138270000D01*
X156050000Y-141970000D02*
X156050000Y-139970000D01*
X157300000Y-143670000D02*
X156850000Y-143220000D01*
X160200000Y-143670000D02*
X157300000Y-143670000D01*
X160650000Y-143220000D02*
X160200000Y-143670000D01*
X161450000Y-139970000D02*
X161450000Y-141970000D01*
X160200000Y-138270000D02*
X160650000Y-138720000D01*
X169910000Y-140970000D02*
G75*
G03X169910000Y-140970000I-1000000J0D01*
G01*
X167710000Y-139170000D02*
X170110000Y-139170000D01*
X167110000Y-139770000D02*
X167710000Y-139170000D01*
X167110000Y-142170000D02*
X167110000Y-139770000D01*
X167710000Y-142770000D02*
X167110000Y-142170000D01*
X170110000Y-142770000D02*
X167710000Y-142770000D01*
X170710000Y-142170000D02*
X170110000Y-142770000D01*
X170710000Y-139770000D02*
X170710000Y-142170000D01*
X170110000Y-139170000D02*
X170710000Y-139770000D01*
X167460000Y-138270000D02*
X170360000Y-138270000D01*
X167010000Y-138720000D02*
X167460000Y-138270000D01*
X166210000Y-141970000D02*
X166210000Y-139970000D01*
X167460000Y-143670000D02*
X167010000Y-143220000D01*
X170360000Y-143670000D02*
X167460000Y-143670000D01*
X170810000Y-143220000D02*
X170360000Y-143670000D01*
X171610000Y-139970000D02*
X171610000Y-141970000D01*
X170360000Y-138270000D02*
X170810000Y-138720000D01*
X180070000Y-140970000D02*
G75*
G03X180070000Y-140970000I-1000000J0D01*
G01*
X177870000Y-139170000D02*
X180270000Y-139170000D01*
X177270000Y-139770000D02*
X177870000Y-139170000D01*
X177270000Y-142170000D02*
X177270000Y-139770000D01*
X177870000Y-142770000D02*
X177270000Y-142170000D01*
X180270000Y-142770000D02*
X177870000Y-142770000D01*
X180870000Y-142170000D02*
X180270000Y-142770000D01*
X180870000Y-139770000D02*
X180870000Y-142170000D01*
X180270000Y-139170000D02*
X180870000Y-139770000D01*
X177620000Y-138270000D02*
X180520000Y-138270000D01*
X177170000Y-138720000D02*
X177620000Y-138270000D01*
X176370000Y-141970000D02*
X176370000Y-139970000D01*
X177620000Y-143670000D02*
X177170000Y-143220000D01*
X180520000Y-143670000D02*
X177620000Y-143670000D01*
X180970000Y-143220000D02*
X180520000Y-143670000D01*
X181770000Y-139970000D02*
X181770000Y-141970000D01*
X180520000Y-138270000D02*
X180970000Y-138720000D01*
X159750000Y-147320000D02*
G75*
G03X159750000Y-147320000I-1000000J0D01*
G01*
X157550000Y-145520000D02*
X159950000Y-145520000D01*
X156950000Y-146120000D02*
X157550000Y-145520000D01*
X156950000Y-148520000D02*
X156950000Y-146120000D01*
X157550000Y-149120000D02*
X156950000Y-148520000D01*
X159950000Y-149120000D02*
X157550000Y-149120000D01*
X160550000Y-148520000D02*
X159950000Y-149120000D01*
X160550000Y-146120000D02*
X160550000Y-148520000D01*
X159950000Y-145520000D02*
X160550000Y-146120000D01*
X157300000Y-144620000D02*
X160200000Y-144620000D01*
X156850000Y-145070000D02*
X157300000Y-144620000D01*
X156050000Y-148320000D02*
X156050000Y-146320000D01*
X157300000Y-150020000D02*
X156850000Y-149570000D01*
X160200000Y-150020000D02*
X157300000Y-150020000D01*
X160650000Y-149570000D02*
X160200000Y-150020000D01*
X161450000Y-146320000D02*
X161450000Y-148320000D01*
X160200000Y-144620000D02*
X160650000Y-145070000D01*
X169910000Y-147320000D02*
G75*
G03X169910000Y-147320000I-1000000J0D01*
G01*
X167710000Y-145520000D02*
X170110000Y-145520000D01*
X167110000Y-146120000D02*
X167710000Y-145520000D01*
X167110000Y-148520000D02*
X167110000Y-146120000D01*
X167710000Y-149120000D02*
X167110000Y-148520000D01*
X170110000Y-149120000D02*
X167710000Y-149120000D01*
X170710000Y-148520000D02*
X170110000Y-149120000D01*
X170710000Y-146120000D02*
X170710000Y-148520000D01*
X170110000Y-145520000D02*
X170710000Y-146120000D01*
X167460000Y-144620000D02*
X170360000Y-144620000D01*
X167010000Y-145070000D02*
X167460000Y-144620000D01*
X166210000Y-148320000D02*
X166210000Y-146320000D01*
X167460000Y-150020000D02*
X167010000Y-149570000D01*
X170360000Y-150020000D02*
X167460000Y-150020000D01*
X170810000Y-149570000D02*
X170360000Y-150020000D01*
X171610000Y-146320000D02*
X171610000Y-148320000D01*
X170360000Y-144620000D02*
X170810000Y-145070000D01*
X180070000Y-147320000D02*
G75*
G03X180070000Y-147320000I-1000000J0D01*
G01*
X177870000Y-145520000D02*
X180270000Y-145520000D01*
X177270000Y-146120000D02*
X177870000Y-145520000D01*
X177270000Y-148520000D02*
X177270000Y-146120000D01*
X177870000Y-149120000D02*
X177270000Y-148520000D01*
X180270000Y-149120000D02*
X177870000Y-149120000D01*
X180870000Y-148520000D02*
X180270000Y-149120000D01*
X180870000Y-146120000D02*
X180870000Y-148520000D01*
X180270000Y-145520000D02*
X180870000Y-146120000D01*
X177620000Y-144620000D02*
X180520000Y-144620000D01*
X177170000Y-145070000D02*
X177620000Y-144620000D01*
X176370000Y-148320000D02*
X176370000Y-146320000D01*
X177620000Y-150020000D02*
X177170000Y-149570000D01*
X180520000Y-150020000D02*
X177620000Y-150020000D01*
X180970000Y-149570000D02*
X180520000Y-150020000D01*
X181770000Y-146320000D02*
X181770000Y-148320000D01*
X180520000Y-144620000D02*
X180970000Y-145070000D01*
X169910000Y-115570000D02*
G75*
G03X169910000Y-115570000I-1000000J0D01*
G01*
X167710000Y-113770000D02*
X170110000Y-113770000D01*
X167110000Y-114370000D02*
X167710000Y-113770000D01*
X167110000Y-116770000D02*
X167110000Y-114370000D01*
X167710000Y-117370000D02*
X167110000Y-116770000D01*
X170110000Y-117370000D02*
X167710000Y-117370000D01*
X170710000Y-116770000D02*
X170110000Y-117370000D01*
X170710000Y-114370000D02*
X170710000Y-116770000D01*
X170110000Y-113770000D02*
X170710000Y-114370000D01*
X167460000Y-112870000D02*
X170360000Y-112870000D01*
X167010000Y-113320000D02*
X167460000Y-112870000D01*
X166210000Y-116570000D02*
X166210000Y-114570000D01*
X167460000Y-118270000D02*
X167010000Y-117820000D01*
X170360000Y-118270000D02*
X167460000Y-118270000D01*
X170810000Y-117820000D02*
X170360000Y-118270000D01*
X171610000Y-114570000D02*
X171610000Y-116570000D01*
X170360000Y-112870000D02*
X170810000Y-113320000D01*
X178800000Y-115570000D02*
G75*
G03X178800000Y-115570000I-1000000J0D01*
G01*
X176600000Y-113770000D02*
X179000000Y-113770000D01*
X176000000Y-114370000D02*
X176600000Y-113770000D01*
X176000000Y-116770000D02*
X176000000Y-114370000D01*
X176600000Y-117370000D02*
X176000000Y-116770000D01*
X179000000Y-117370000D02*
X176600000Y-117370000D01*
X179600000Y-116770000D02*
X179000000Y-117370000D01*
X179600000Y-114370000D02*
X179600000Y-116770000D01*
X179000000Y-113770000D02*
X179600000Y-114370000D01*
X176350000Y-112870000D02*
X179250000Y-112870000D01*
X175900000Y-113320000D02*
X176350000Y-112870000D01*
X175100000Y-116570000D02*
X175100000Y-114570000D01*
X176350000Y-118270000D02*
X175900000Y-117820000D01*
X179250000Y-118270000D02*
X176350000Y-118270000D01*
X179700000Y-117820000D02*
X179250000Y-118270000D01*
X180500000Y-114570000D02*
X180500000Y-116570000D01*
X179250000Y-112870000D02*
X179700000Y-113320000D01*
X169910000Y-109347000D02*
G75*
G03X169910000Y-109347000I-1000000J0D01*
G01*
X170110000Y-111147000D02*
X167710000Y-111147000D01*
X170710000Y-110547000D02*
X170110000Y-111147000D01*
X170710000Y-108147000D02*
X170710000Y-110547000D01*
X170110000Y-107547000D02*
X170710000Y-108147000D01*
X167710000Y-107547000D02*
X170110000Y-107547000D01*
X167110000Y-108147000D02*
X167710000Y-107547000D01*
X167110000Y-110547000D02*
X167110000Y-108147000D01*
X167710000Y-111147000D02*
X167110000Y-110547000D01*
X170360000Y-112047000D02*
X167460000Y-112047000D01*
X170810000Y-111597000D02*
X170360000Y-112047000D01*
X171610000Y-108347000D02*
X171610000Y-110347000D01*
X170360000Y-106647000D02*
X170810000Y-107097000D01*
X167460000Y-106647000D02*
X170360000Y-106647000D01*
X167010000Y-107097000D02*
X167460000Y-106647000D01*
X166210000Y-110347000D02*
X166210000Y-108347000D01*
X167460000Y-112047000D02*
X167010000Y-111597000D01*
X185501100Y-165003600D02*
G75*
G03X188501100Y-162003600I0J3000000D01*
G01*
X148501100Y-162003600D02*
G75*
G03X151501100Y-165003600I3000000J0D01*
G01*
X173501100Y-163003600D02*
G75*
G03X163501100Y-163003600I-5000000J0D01*
G01*
X185501100Y-165003600D02*
X173501100Y-165003600D01*
X173501100Y-165003600D02*
X173501100Y-163003600D01*
X151501100Y-165003600D02*
X163501100Y-165003600D01*
X163501100Y-165003600D02*
X163501100Y-163003600D01*
X148501100Y-105003600D02*
X148501100Y-162003600D01*
X148501100Y-105003600D02*
X188501100Y-105003600D01*
X188501100Y-105003600D02*
X188501100Y-162003600D01*
X158880000Y-108650000D02*
X156080000Y-108650000D01*
X156080000Y-108650000D02*
X156080000Y-107250000D01*
X156080000Y-107250000D02*
X158880000Y-107250000D01*
X158880000Y-107250000D02*
X158880000Y-108650000D01*
X154480000Y-109700000D02*
X154480000Y-109050000D01*
X154480000Y-106200000D02*
X154480000Y-106850000D01*
X160480000Y-106850000D02*
X160480000Y-106200000D01*
X160480000Y-109700000D02*
X160480000Y-109050000D01*
X154480000Y-109700000D02*
X160480000Y-109700000D01*
X160480000Y-106200000D02*
X154480000Y-106200000D01*
X178940000Y-107250000D02*
X181740000Y-107250000D01*
X181740000Y-107250000D02*
X181740000Y-108650000D01*
X181740000Y-108650000D02*
X178940000Y-108650000D01*
X178940000Y-108650000D02*
X178940000Y-107250000D01*
X183340000Y-106200000D02*
X183340000Y-106850000D01*
X183340000Y-109700000D02*
X183340000Y-109050000D01*
X177340000Y-109050000D02*
X177340000Y-109700000D01*
X177340000Y-106200000D02*
X177340000Y-106850000D01*
X183340000Y-106200000D02*
X177340000Y-106200000D01*
X177340000Y-109700000D02*
X183340000Y-109700000D01*
X158620000Y-128332000D02*
X161420000Y-128332000D01*
X161420000Y-128332000D02*
X161420000Y-129732000D01*
X161420000Y-129732000D02*
X158620000Y-129732000D01*
X158620000Y-129732000D02*
X158620000Y-128332000D01*
X163020000Y-127282000D02*
X163020000Y-127932000D01*
X163020000Y-130782000D02*
X163020000Y-130132000D01*
X157020000Y-130132000D02*
X157020000Y-130782000D01*
X157020000Y-127282000D02*
X157020000Y-127932000D01*
X163020000Y-127282000D02*
X157020000Y-127282000D01*
X157020000Y-130782000D02*
X163020000Y-130782000D01*
X176400000Y-128332000D02*
X179200000Y-128332000D01*
X179200000Y-128332000D02*
X179200000Y-129732000D01*
X179200000Y-129732000D02*
X176400000Y-129732000D01*
X176400000Y-129732000D02*
X176400000Y-128332000D01*
X180800000Y-127282000D02*
X180800000Y-127932000D01*
X180800000Y-130782000D02*
X180800000Y-130132000D01*
X174800000Y-130132000D02*
X174800000Y-130782000D01*
X174800000Y-127282000D02*
X174800000Y-127932000D01*
X180800000Y-127282000D02*
X174800000Y-127282000D01*
X174800000Y-130782000D02*
X180800000Y-130782000D01*
X156080000Y-160590000D02*
X158880000Y-160590000D01*
X158880000Y-160590000D02*
X158880000Y-161990000D01*
X158880000Y-161990000D02*
X156080000Y-161990000D01*
X156080000Y-161990000D02*
X156080000Y-160590000D01*
X160480000Y-159540000D02*
X160480000Y-160190000D01*
X160480000Y-163040000D02*
X160480000Y-162390000D01*
X154480000Y-162390000D02*
X154480000Y-163040000D01*
X154480000Y-159540000D02*
X154480000Y-160190000D01*
X160480000Y-159540000D02*
X154480000Y-159540000D01*
X154480000Y-163040000D02*
X160480000Y-163040000D01*
X178940000Y-160590000D02*
X181740000Y-160590000D01*
X181740000Y-160590000D02*
X181740000Y-161990000D01*
X181740000Y-161990000D02*
X178940000Y-161990000D01*
X178940000Y-161990000D02*
X178940000Y-160590000D01*
X183340000Y-159540000D02*
X183340000Y-160190000D01*
X183340000Y-163040000D02*
X183340000Y-162390000D01*
X177340000Y-162390000D02*
X177340000Y-163040000D01*
X177340000Y-159540000D02*
X177340000Y-160190000D01*
X183340000Y-159540000D02*
X177340000Y-159540000D01*
X177340000Y-163040000D02*
X183340000Y-163040000D01*
X156080000Y-122236000D02*
X158880000Y-122236000D01*
X158880000Y-122236000D02*
X158880000Y-123636000D01*
X158880000Y-123636000D02*
X156080000Y-123636000D01*
X156080000Y-123636000D02*
X156080000Y-122236000D01*
X160480000Y-121186000D02*
X160480000Y-121836000D01*
X160480000Y-124686000D02*
X160480000Y-124036000D01*
X154480000Y-124036000D02*
X154480000Y-124686000D01*
X154480000Y-121186000D02*
X154480000Y-121836000D01*
X160480000Y-121186000D02*
X154480000Y-121186000D01*
X154480000Y-124686000D02*
X160480000Y-124686000D01*
X178940000Y-122236000D02*
X181740000Y-122236000D01*
X181740000Y-122236000D02*
X181740000Y-123636000D01*
X181740000Y-123636000D02*
X178940000Y-123636000D01*
X178940000Y-123636000D02*
X178940000Y-122236000D01*
X183340000Y-121186000D02*
X183340000Y-121836000D01*
X183340000Y-124686000D02*
X183340000Y-124036000D01*
X177340000Y-124036000D02*
X177340000Y-124686000D01*
X177340000Y-121186000D02*
X177340000Y-121836000D01*
X183340000Y-121186000D02*
X177340000Y-121186000D01*
X177340000Y-124686000D02*
X183340000Y-124686000D01*
X166806857Y-126055381D02*
X166806857Y-125055381D01*
X167044952Y-125055381D01*
X167187810Y-125103000D01*
X167283048Y-125198238D01*
X167330667Y-125293476D01*
X167378286Y-125483952D01*
X167378286Y-125626810D01*
X167330667Y-125817286D01*
X167283048Y-125912524D01*
X167187810Y-126007762D01*
X167044952Y-126055381D01*
X166806857Y-126055381D01*
X167997333Y-125055381D02*
X168187810Y-125055381D01*
X168283048Y-125103000D01*
X168378286Y-125198238D01*
X168425905Y-125388714D01*
X168425905Y-125722048D01*
X168378286Y-125912524D01*
X168283048Y-126007762D01*
X168187810Y-126055381D01*
X167997333Y-126055381D01*
X167902095Y-126007762D01*
X167806857Y-125912524D01*
X167759238Y-125722048D01*
X167759238Y-125388714D01*
X167806857Y-125198238D01*
X167902095Y-125103000D01*
X167997333Y-125055381D01*
X168759238Y-125055381D02*
X168997333Y-126055381D01*
X169187810Y-125341095D01*
X169378286Y-126055381D01*
X169616381Y-125055381D01*
X169997333Y-126055381D02*
X169997333Y-125055381D01*
X170568762Y-126055381D01*
X170568762Y-125055381D01*
X171568762Y-126055381D02*
X170997333Y-126055381D01*
X171283047Y-126055381D02*
X171283047Y-125055381D01*
X171187809Y-125198238D01*
X171092571Y-125293476D01*
X170997333Y-125341095D01*
X158591429Y-112422381D02*
X158115238Y-112422381D01*
X158115238Y-111422381D01*
X158924762Y-111898571D02*
X159258096Y-111898571D01*
X159400953Y-112422381D02*
X158924762Y-112422381D01*
X158924762Y-111422381D01*
X159400953Y-111422381D01*
X160162858Y-111898571D02*
X159829524Y-111898571D01*
X159829524Y-112422381D02*
X159829524Y-111422381D01*
X160305715Y-111422381D01*
X160543810Y-111422381D02*
X161115239Y-111422381D01*
X160829524Y-112422381D02*
X160829524Y-111422381D01*
X161972382Y-112422381D02*
X161400953Y-112422381D01*
X161686667Y-112422381D02*
X161686667Y-111422381D01*
X161591429Y-111565238D01*
X161496191Y-111660476D01*
X161400953Y-111708095D01*
X177808095Y-150522381D02*
X177808095Y-149522381D01*
X178379524Y-150522381D01*
X178379524Y-149522381D01*
X178808095Y-149855714D02*
X179522381Y-149855714D01*
X179093809Y-149427143D02*
X178808095Y-150712857D01*
X179427143Y-150284286D02*
X178712857Y-150284286D01*
X179141429Y-150712857D02*
X179427143Y-149427143D01*
X180379524Y-150522381D02*
X179808095Y-150522381D01*
X180093809Y-150522381D02*
X180093809Y-149522381D01*
X179998571Y-149665238D01*
X179903333Y-149760476D01*
X179808095Y-149808095D01*
X157607143Y-150566381D02*
X157607143Y-149566381D01*
X158178572Y-150566381D01*
X158178572Y-149566381D01*
X158797619Y-149566381D02*
X158797619Y-149804476D01*
X158559524Y-149709238D02*
X158797619Y-149804476D01*
X159035715Y-149709238D01*
X158654762Y-149994952D02*
X158797619Y-149804476D01*
X158940477Y-149994952D01*
X159940477Y-150566381D02*
X159369048Y-150566381D01*
X159654762Y-150566381D02*
X159654762Y-149566381D01*
X159559524Y-149709238D01*
X159464286Y-149804476D01*
X159369048Y-149852095D01*
X168148095Y-150522381D02*
X168148095Y-149522381D01*
X168719524Y-150522381D01*
X168719524Y-149522381D01*
X169386190Y-149522381D02*
X169481429Y-149522381D01*
X169576667Y-149570000D01*
X169624286Y-149617619D01*
X169671905Y-149712857D01*
X169719524Y-149903333D01*
X169719524Y-150141429D01*
X169671905Y-150331905D01*
X169624286Y-150427143D01*
X169576667Y-150474762D01*
X169481429Y-150522381D01*
X169386190Y-150522381D01*
X169290952Y-150474762D01*
X169243333Y-150427143D01*
X169195714Y-150331905D01*
X169148095Y-150141429D01*
X169148095Y-149903333D01*
X169195714Y-149712857D01*
X169243333Y-149617619D01*
X169290952Y-149570000D01*
X169386190Y-149522381D01*
X157988095Y-131472381D02*
X157988095Y-130472381D01*
X158559524Y-131472381D01*
X158559524Y-130472381D01*
X159559524Y-131472381D02*
X158988095Y-131472381D01*
X159273809Y-131472381D02*
X159273809Y-130472381D01*
X159178571Y-130615238D01*
X159083333Y-130710476D01*
X158988095Y-130758095D01*
X168148095Y-131472381D02*
X168148095Y-130472381D01*
X168719524Y-131472381D01*
X168719524Y-130472381D01*
X169148095Y-130567619D02*
X169195714Y-130520000D01*
X169290952Y-130472381D01*
X169529048Y-130472381D01*
X169624286Y-130520000D01*
X169671905Y-130567619D01*
X169719524Y-130662857D01*
X169719524Y-130758095D01*
X169671905Y-130900952D01*
X169100476Y-131472381D01*
X169719524Y-131472381D01*
X178308095Y-131472381D02*
X178308095Y-130472381D01*
X178879524Y-131472381D01*
X178879524Y-130472381D01*
X179260476Y-130472381D02*
X179879524Y-130472381D01*
X179546190Y-130853333D01*
X179689048Y-130853333D01*
X179784286Y-130900952D01*
X179831905Y-130948571D01*
X179879524Y-131043810D01*
X179879524Y-131281905D01*
X179831905Y-131377143D01*
X179784286Y-131424762D01*
X179689048Y-131472381D01*
X179403333Y-131472381D01*
X179308095Y-131424762D01*
X179260476Y-131377143D01*
X157988095Y-137822381D02*
X157988095Y-136822381D01*
X158559524Y-137822381D01*
X158559524Y-136822381D01*
X159464286Y-137155714D02*
X159464286Y-137822381D01*
X159226190Y-136774762D02*
X158988095Y-137489048D01*
X159607143Y-137489048D01*
X168148095Y-137822381D02*
X168148095Y-136822381D01*
X168719524Y-137822381D01*
X168719524Y-136822381D01*
X169671905Y-136822381D02*
X169195714Y-136822381D01*
X169148095Y-137298571D01*
X169195714Y-137250952D01*
X169290952Y-137203333D01*
X169529048Y-137203333D01*
X169624286Y-137250952D01*
X169671905Y-137298571D01*
X169719524Y-137393810D01*
X169719524Y-137631905D01*
X169671905Y-137727143D01*
X169624286Y-137774762D01*
X169529048Y-137822381D01*
X169290952Y-137822381D01*
X169195714Y-137774762D01*
X169148095Y-137727143D01*
X178308095Y-137822381D02*
X178308095Y-136822381D01*
X178879524Y-137822381D01*
X178879524Y-136822381D01*
X179784286Y-136822381D02*
X179593809Y-136822381D01*
X179498571Y-136870000D01*
X179450952Y-136917619D01*
X179355714Y-137060476D01*
X179308095Y-137250952D01*
X179308095Y-137631905D01*
X179355714Y-137727143D01*
X179403333Y-137774762D01*
X179498571Y-137822381D01*
X179689048Y-137822381D01*
X179784286Y-137774762D01*
X179831905Y-137727143D01*
X179879524Y-137631905D01*
X179879524Y-137393810D01*
X179831905Y-137298571D01*
X179784286Y-137250952D01*
X179689048Y-137203333D01*
X179498571Y-137203333D01*
X179403333Y-137250952D01*
X179355714Y-137298571D01*
X179308095Y-137393810D01*
X157734095Y-151455381D02*
X157734095Y-150455381D01*
X158305524Y-151455381D01*
X158305524Y-150455381D01*
X158686476Y-150455381D02*
X159353143Y-150455381D01*
X158924571Y-151455381D01*
X168148095Y-144172381D02*
X168148095Y-143172381D01*
X168719524Y-144172381D01*
X168719524Y-143172381D01*
X169338571Y-143600952D02*
X169243333Y-143553333D01*
X169195714Y-143505714D01*
X169148095Y-143410476D01*
X169148095Y-143362857D01*
X169195714Y-143267619D01*
X169243333Y-143220000D01*
X169338571Y-143172381D01*
X169529048Y-143172381D01*
X169624286Y-143220000D01*
X169671905Y-143267619D01*
X169719524Y-143362857D01*
X169719524Y-143410476D01*
X169671905Y-143505714D01*
X169624286Y-143553333D01*
X169529048Y-143600952D01*
X169338571Y-143600952D01*
X169243333Y-143648571D01*
X169195714Y-143696190D01*
X169148095Y-143791429D01*
X169148095Y-143981905D01*
X169195714Y-144077143D01*
X169243333Y-144124762D01*
X169338571Y-144172381D01*
X169529048Y-144172381D01*
X169624286Y-144124762D01*
X169671905Y-144077143D01*
X169719524Y-143981905D01*
X169719524Y-143791429D01*
X169671905Y-143696190D01*
X169624286Y-143648571D01*
X169529048Y-143600952D01*
X178308095Y-144172381D02*
X178308095Y-143172381D01*
X178879524Y-144172381D01*
X178879524Y-143172381D01*
X179403333Y-144172381D02*
X179593809Y-144172381D01*
X179689048Y-144124762D01*
X179736667Y-144077143D01*
X179831905Y-143934286D01*
X179879524Y-143743810D01*
X179879524Y-143362857D01*
X179831905Y-143267619D01*
X179784286Y-143220000D01*
X179689048Y-143172381D01*
X179498571Y-143172381D01*
X179403333Y-143220000D01*
X179355714Y-143267619D01*
X179308095Y-143362857D01*
X179308095Y-143600952D01*
X179355714Y-143696190D01*
X179403333Y-143743810D01*
X179498571Y-143791429D01*
X179689048Y-143791429D01*
X179784286Y-143743810D01*
X179831905Y-143696190D01*
X179879524Y-143600952D01*
X167584571Y-118832381D02*
X167775048Y-118832381D01*
X167870286Y-118880000D01*
X167965524Y-118975238D01*
X168013143Y-119165714D01*
X168013143Y-119499048D01*
X167965524Y-119689524D01*
X167870286Y-119784762D01*
X167775048Y-119832381D01*
X167584571Y-119832381D01*
X167489333Y-119784762D01*
X167394095Y-119689524D01*
X167346476Y-119499048D01*
X167346476Y-119165714D01*
X167394095Y-118975238D01*
X167489333Y-118880000D01*
X167584571Y-118832381D01*
X168441714Y-119832381D02*
X168441714Y-118832381D01*
X169013143Y-119832381D02*
X168584571Y-119260952D01*
X169013143Y-118832381D02*
X168441714Y-119403810D01*
X169965524Y-119832381D02*
X169394095Y-119832381D01*
X169679809Y-119832381D02*
X169679809Y-118832381D01*
X169584571Y-118975238D01*
X169489333Y-119070476D01*
X169394095Y-119118095D01*
X175990477Y-112422381D02*
X175657143Y-111946190D01*
X175419048Y-112422381D02*
X175419048Y-111422381D01*
X175800001Y-111422381D01*
X175895239Y-111470000D01*
X175942858Y-111517619D01*
X175990477Y-111612857D01*
X175990477Y-111755714D01*
X175942858Y-111850952D01*
X175895239Y-111898571D01*
X175800001Y-111946190D01*
X175419048Y-111946190D01*
X176419048Y-112422381D02*
X176419048Y-111422381D01*
X177419048Y-111470000D02*
X177323810Y-111422381D01*
X177180953Y-111422381D01*
X177038095Y-111470000D01*
X176942857Y-111565238D01*
X176895238Y-111660476D01*
X176847619Y-111850952D01*
X176847619Y-111993810D01*
X176895238Y-112184286D01*
X176942857Y-112279524D01*
X177038095Y-112374762D01*
X177180953Y-112422381D01*
X177276191Y-112422381D01*
X177419048Y-112374762D01*
X177466667Y-112327143D01*
X177466667Y-111993810D01*
X177276191Y-111993810D01*
X177895238Y-112422381D02*
X177895238Y-111422381D01*
X177895238Y-111898571D02*
X178466667Y-111898571D01*
X178466667Y-112422381D02*
X178466667Y-111422381D01*
X178800000Y-111422381D02*
X179371429Y-111422381D01*
X179085714Y-112422381D02*
X179085714Y-111422381D01*
X180228572Y-112422381D02*
X179657143Y-112422381D01*
X179942857Y-112422381D02*
X179942857Y-111422381D01*
X179847619Y-111565238D01*
X179752381Y-111660476D01*
X179657143Y-111708095D01*
X167648095Y-105243381D02*
X167648095Y-106052905D01*
X167695714Y-106148143D01*
X167743333Y-106195762D01*
X167838571Y-106243381D01*
X168029048Y-106243381D01*
X168124286Y-106195762D01*
X168171905Y-106148143D01*
X168219524Y-106052905D01*
X168219524Y-105243381D01*
X168695714Y-106243381D02*
X168695714Y-105243381D01*
X169076667Y-105243381D01*
X169171905Y-105291000D01*
X169219524Y-105338619D01*
X169267143Y-105433857D01*
X169267143Y-105576714D01*
X169219524Y-105671952D01*
X169171905Y-105719571D01*
X169076667Y-105767190D01*
X168695714Y-105767190D01*
X170219524Y-106243381D02*
X169648095Y-106243381D01*
X169933809Y-106243381D02*
X169933809Y-105243381D01*
X169838571Y-105386238D01*
X169743333Y-105481476D01*
X169648095Y-105529095D01*
X152233334Y-106148143D02*
X152185715Y-106195762D01*
X152042858Y-106243381D01*
X151947620Y-106243381D01*
X151804762Y-106195762D01*
X151709524Y-106100524D01*
X151661905Y-106005286D01*
X151614286Y-105814810D01*
X151614286Y-105671952D01*
X151661905Y-105481476D01*
X151709524Y-105386238D01*
X151804762Y-105291000D01*
X151947620Y-105243381D01*
X152042858Y-105243381D01*
X152185715Y-105291000D01*
X152233334Y-105338619D01*
X153185715Y-106243381D02*
X152614286Y-106243381D01*
X152900000Y-106243381D02*
X152900000Y-105243381D01*
X152804762Y-105386238D01*
X152709524Y-105481476D01*
X152614286Y-105529095D01*
X185253334Y-106275143D02*
X185205715Y-106322762D01*
X185062858Y-106370381D01*
X184967620Y-106370381D01*
X184824762Y-106322762D01*
X184729524Y-106227524D01*
X184681905Y-106132286D01*
X184634286Y-105941810D01*
X184634286Y-105798952D01*
X184681905Y-105608476D01*
X184729524Y-105513238D01*
X184824762Y-105418000D01*
X184967620Y-105370381D01*
X185062858Y-105370381D01*
X185205715Y-105418000D01*
X185253334Y-105465619D01*
X185634286Y-105465619D02*
X185681905Y-105418000D01*
X185777143Y-105370381D01*
X186015239Y-105370381D01*
X186110477Y-105418000D01*
X186158096Y-105465619D01*
X186205715Y-105560857D01*
X186205715Y-105656095D01*
X186158096Y-105798952D01*
X185586667Y-106370381D01*
X186205715Y-106370381D01*
X159853334Y-126976143D02*
X159805715Y-127023762D01*
X159662858Y-127071381D01*
X159567620Y-127071381D01*
X159424762Y-127023762D01*
X159329524Y-126928524D01*
X159281905Y-126833286D01*
X159234286Y-126642810D01*
X159234286Y-126499952D01*
X159281905Y-126309476D01*
X159329524Y-126214238D01*
X159424762Y-126119000D01*
X159567620Y-126071381D01*
X159662858Y-126071381D01*
X159805715Y-126119000D01*
X159853334Y-126166619D01*
X160186667Y-126071381D02*
X160805715Y-126071381D01*
X160472381Y-126452333D01*
X160615239Y-126452333D01*
X160710477Y-126499952D01*
X160758096Y-126547571D01*
X160805715Y-126642810D01*
X160805715Y-126880905D01*
X160758096Y-126976143D01*
X160710477Y-127023762D01*
X160615239Y-127071381D01*
X160329524Y-127071381D01*
X160234286Y-127023762D01*
X160186667Y-126976143D01*
X177506334Y-126849143D02*
X177458715Y-126896762D01*
X177315858Y-126944381D01*
X177220620Y-126944381D01*
X177077762Y-126896762D01*
X176982524Y-126801524D01*
X176934905Y-126706286D01*
X176887286Y-126515810D01*
X176887286Y-126372952D01*
X176934905Y-126182476D01*
X176982524Y-126087238D01*
X177077762Y-125992000D01*
X177220620Y-125944381D01*
X177315858Y-125944381D01*
X177458715Y-125992000D01*
X177506334Y-126039619D01*
X178363477Y-126277714D02*
X178363477Y-126944381D01*
X178125381Y-125896762D02*
X177887286Y-126611048D01*
X178506334Y-126611048D01*
X157186334Y-158853143D02*
X157138715Y-158900762D01*
X156995858Y-158948381D01*
X156900620Y-158948381D01*
X156757762Y-158900762D01*
X156662524Y-158805524D01*
X156614905Y-158710286D01*
X156567286Y-158519810D01*
X156567286Y-158376952D01*
X156614905Y-158186476D01*
X156662524Y-158091238D01*
X156757762Y-157996000D01*
X156900620Y-157948381D01*
X156995858Y-157948381D01*
X157138715Y-157996000D01*
X157186334Y-158043619D01*
X158091096Y-157948381D02*
X157614905Y-157948381D01*
X157567286Y-158424571D01*
X157614905Y-158376952D01*
X157710143Y-158329333D01*
X157948239Y-158329333D01*
X158043477Y-158376952D01*
X158091096Y-158424571D01*
X158138715Y-158519810D01*
X158138715Y-158757905D01*
X158091096Y-158853143D01*
X158043477Y-158900762D01*
X157948239Y-158948381D01*
X157710143Y-158948381D01*
X157614905Y-158900762D01*
X157567286Y-158853143D01*
X180046334Y-158853143D02*
X179998715Y-158900762D01*
X179855858Y-158948381D01*
X179760620Y-158948381D01*
X179617762Y-158900762D01*
X179522524Y-158805524D01*
X179474905Y-158710286D01*
X179427286Y-158519810D01*
X179427286Y-158376952D01*
X179474905Y-158186476D01*
X179522524Y-158091238D01*
X179617762Y-157996000D01*
X179760620Y-157948381D01*
X179855858Y-157948381D01*
X179998715Y-157996000D01*
X180046334Y-158043619D01*
X180903477Y-157948381D02*
X180713000Y-157948381D01*
X180617762Y-157996000D01*
X180570143Y-158043619D01*
X180474905Y-158186476D01*
X180427286Y-158376952D01*
X180427286Y-158757905D01*
X180474905Y-158853143D01*
X180522524Y-158900762D01*
X180617762Y-158948381D01*
X180808239Y-158948381D01*
X180903477Y-158900762D01*
X180951096Y-158853143D01*
X180998715Y-158757905D01*
X180998715Y-158519810D01*
X180951096Y-158424571D01*
X180903477Y-158376952D01*
X180808239Y-158329333D01*
X180617762Y-158329333D01*
X180522524Y-158376952D01*
X180474905Y-158424571D01*
X180427286Y-158519810D01*
X155337143Y-119769000D02*
X155241905Y-119721381D01*
X155099048Y-119721381D01*
X154956190Y-119769000D01*
X154860952Y-119864238D01*
X154813333Y-119959476D01*
X154765714Y-120149952D01*
X154765714Y-120292810D01*
X154813333Y-120483286D01*
X154860952Y-120578524D01*
X154956190Y-120673762D01*
X155099048Y-120721381D01*
X155194286Y-120721381D01*
X155337143Y-120673762D01*
X155384762Y-120626143D01*
X155384762Y-120292810D01*
X155194286Y-120292810D01*
X156384762Y-120721381D02*
X156051428Y-120245190D01*
X155813333Y-120721381D02*
X155813333Y-119721381D01*
X156194286Y-119721381D01*
X156289524Y-119769000D01*
X156337143Y-119816619D01*
X156384762Y-119911857D01*
X156384762Y-120054714D01*
X156337143Y-120149952D01*
X156289524Y-120197571D01*
X156194286Y-120245190D01*
X155813333Y-120245190D01*
X156813333Y-120197571D02*
X157146667Y-120197571D01*
X157289524Y-120721381D02*
X156813333Y-120721381D01*
X156813333Y-119721381D01*
X157289524Y-119721381D01*
X157718095Y-120197571D02*
X158051429Y-120197571D01*
X158194286Y-120721381D02*
X157718095Y-120721381D01*
X157718095Y-119721381D01*
X158194286Y-119721381D01*
X158622857Y-120721381D02*
X158622857Y-119721381D01*
X159194286Y-120721381D01*
X159194286Y-119721381D01*
X160194286Y-120721381D02*
X159622857Y-120721381D01*
X159908571Y-120721381D02*
X159908571Y-119721381D01*
X159813333Y-119864238D01*
X159718095Y-119959476D01*
X159622857Y-120007095D01*
X179093953Y-120721381D02*
X178760619Y-120245190D01*
X178522524Y-120721381D02*
X178522524Y-119721381D01*
X178903477Y-119721381D01*
X178998715Y-119769000D01*
X179046334Y-119816619D01*
X179093953Y-119911857D01*
X179093953Y-120054714D01*
X179046334Y-120149952D01*
X178998715Y-120197571D01*
X178903477Y-120245190D01*
X178522524Y-120245190D01*
X179522524Y-120197571D02*
X179855858Y-120197571D01*
X179998715Y-120721381D02*
X179522524Y-120721381D01*
X179522524Y-119721381D01*
X179998715Y-119721381D01*
X180427286Y-120721381D02*
X180427286Y-119721381D01*
X180665381Y-119721381D01*
X180808239Y-119769000D01*
X180903477Y-119864238D01*
X180951096Y-119959476D01*
X180998715Y-120149952D01*
X180998715Y-120292810D01*
X180951096Y-120483286D01*
X180903477Y-120578524D01*
X180808239Y-120673762D01*
X180665381Y-120721381D01*
X180427286Y-120721381D01*
X181951096Y-120721381D02*
X181379667Y-120721381D01*
X181665381Y-120721381D02*
X181665381Y-119721381D01*
X181570143Y-119864238D01*
X181474905Y-119959476D01*
X181379667Y-120007095D01*
M02*
