%TF.GenerationSoftware,KiCad,Pcbnew,4.0.6*%
%TF.CreationDate,2017-06-24T23:54:36+03:00*%
%TF.ProjectId,keypad_prototype,6B65797061645F70726F746F74797065,rev?*%
%TF.FileFunction,Copper,L2,Bot,Signal*%
%FSLAX46Y46*%
G04 Gerber Fmt 4.6, Leading zero omitted, Abs format (unit mm)*
G04 Created by KiCad (PCBNEW 4.0.6) date 06/24/17 23:54:36*
%MOMM*%
%LPD*%
G01*
G04 APERTURE LIST*
%ADD10C,0.100000*%
%ADD11R,1.050000X1.400000*%
%ADD12R,1.400000X1.050000*%
%ADD13C,1.524000*%
%ADD14C,0.600000*%
%ADD15C,0.250000*%
G04 APERTURE END LIST*
D10*
D11*
X150839000Y-149203000D03*
X150839000Y-152803000D03*
X149389000Y-149203000D03*
X149389000Y-152803000D03*
X186219000Y-160423000D03*
X186219000Y-156823000D03*
X187669000Y-160423000D03*
X187669000Y-156823000D03*
D12*
X178413000Y-162724000D03*
X182013000Y-162724000D03*
X178413000Y-164174000D03*
X182013000Y-164174000D03*
D11*
X150839000Y-122787000D03*
X150839000Y-126387000D03*
X149389000Y-122787000D03*
X149389000Y-126387000D03*
X150839000Y-113262000D03*
X150839000Y-116862000D03*
X149389000Y-113262000D03*
X149389000Y-116862000D03*
D13*
X151041100Y-110083600D03*
X151041100Y-107543600D03*
X186601100Y-153263600D03*
X186601100Y-150723600D03*
X186601100Y-148183600D03*
X186601100Y-145643600D03*
X186601100Y-143103600D03*
X151041100Y-130403600D03*
X151041100Y-132943600D03*
X151041100Y-135483600D03*
X151041100Y-155803600D03*
X151041100Y-158343600D03*
X151041100Y-160883600D03*
X186601100Y-107543600D03*
X186601100Y-110083600D03*
X186601100Y-112623600D03*
X186601100Y-115163600D03*
X186601100Y-122783600D03*
D14*
X159000000Y-108000000D03*
X159893000Y-151130000D03*
X160401000Y-145542000D03*
X180594000Y-151765000D03*
X170561000Y-119943000D03*
X170561000Y-113665000D03*
X167259000Y-119943000D03*
X167259000Y-132842000D03*
X167259000Y-113792000D03*
X156972000Y-122936000D03*
X159131000Y-122174000D03*
X155702000Y-107950000D03*
X180848000Y-132770000D03*
X180721000Y-139065000D03*
X177927000Y-107950000D03*
X177165000Y-132770000D03*
X177927000Y-122936000D03*
X159385000Y-130429000D03*
X158496000Y-151765000D03*
X180975000Y-147066000D03*
X177673000Y-147193000D03*
X170561000Y-145470000D03*
X170434000Y-151892000D03*
X158369000Y-113720000D03*
X157988000Y-129032000D03*
X167386000Y-123571000D03*
X157353000Y-136525000D03*
X162306000Y-129032000D03*
X180467000Y-136525000D03*
X180086000Y-129032000D03*
X160274000Y-136470000D03*
X177673000Y-153543000D03*
X180975000Y-153543000D03*
X170434000Y-139065000D03*
X177673000Y-161036000D03*
X177673000Y-145415000D03*
X175514000Y-129032000D03*
X170561000Y-111197000D03*
X176149000Y-113792000D03*
X155575000Y-122936000D03*
X179070000Y-138430000D03*
X155702000Y-162179000D03*
X158115000Y-160528000D03*
X158115000Y-139192000D03*
X156845000Y-132770000D03*
X156845000Y-139192000D03*
X179451000Y-161290000D03*
X179705000Y-155575000D03*
X167259000Y-155575000D03*
X159639000Y-161163000D03*
X179451000Y-117420000D03*
X182372000Y-123063000D03*
X161798000Y-117420000D03*
X159766000Y-122936000D03*
X182753000Y-160020000D03*
X180594000Y-160147000D03*
X180467000Y-149098000D03*
X157099000Y-149225000D03*
X157099000Y-155520000D03*
X159131000Y-153670000D03*
X167259000Y-136525000D03*
X156337000Y-153670000D03*
X160274000Y-142875000D03*
X167132000Y-149225000D03*
X167259000Y-142875000D03*
D15*
X160855000Y-109855000D02*
X159000000Y-108000000D01*
X163322000Y-109855000D02*
X160855000Y-109855000D01*
X167259000Y-122301000D02*
X167259000Y-122428000D01*
X168402000Y-125222000D02*
X167259000Y-126365000D01*
X168402000Y-123571000D02*
X168402000Y-125222000D01*
X167259000Y-122428000D02*
X168402000Y-123571000D01*
X160401000Y-148844000D02*
X160020000Y-149225000D01*
X160401000Y-145542000D02*
X160401000Y-148844000D01*
X160020000Y-151003000D02*
X159893000Y-151130000D01*
X160020000Y-149225000D02*
X160020000Y-151003000D01*
X161544000Y-144145000D02*
X161544000Y-144399000D01*
X161544000Y-144399000D02*
X160401000Y-145542000D01*
X167259000Y-132842000D02*
X164084000Y-132842000D01*
X161544000Y-135382000D02*
X161544000Y-144145000D01*
X164084000Y-132842000D02*
X161544000Y-135382000D01*
X186601100Y-148183600D02*
X183019700Y-151765000D01*
X183019700Y-151765000D02*
X180594000Y-151765000D01*
X170561000Y-113665000D02*
X170561000Y-119943000D01*
X167259000Y-132842000D02*
X167259000Y-126365000D01*
X167259000Y-122301000D02*
X167259000Y-119943000D01*
X163322000Y-109855000D02*
X167259000Y-113792000D01*
X155702000Y-107950000D02*
X157099000Y-107950000D01*
X159131000Y-109982000D02*
X157099000Y-107950000D01*
X159131000Y-122174000D02*
X159131000Y-109982000D01*
X151041100Y-130403600D02*
X151041100Y-130136900D01*
X151041100Y-130136900D02*
X156972000Y-124206000D01*
X156972000Y-124206000D02*
X156972000Y-122936000D01*
X156972000Y-122936000D02*
X156972000Y-122174000D01*
X149389000Y-121375000D02*
X149389000Y-122787000D01*
X149987000Y-120777000D02*
X149389000Y-121375000D01*
X155575000Y-120777000D02*
X149987000Y-120777000D01*
X156972000Y-122174000D02*
X155575000Y-120777000D01*
X149389000Y-113262000D02*
X149389000Y-112485000D01*
X151892000Y-111760000D02*
X155702000Y-107950000D01*
X150114000Y-111760000D02*
X151892000Y-111760000D01*
X149389000Y-112485000D02*
X150114000Y-111760000D01*
X182013000Y-162724000D02*
X182013000Y-159363000D01*
X184553000Y-156823000D02*
X186219000Y-156823000D01*
X182013000Y-159363000D02*
X184553000Y-156823000D01*
X186219000Y-156823000D02*
X186219000Y-153645700D01*
X186219000Y-153645700D02*
X186601100Y-153263600D01*
X180721000Y-139065000D02*
X185166000Y-139065000D01*
X187960000Y-151904700D02*
X186601100Y-153263600D01*
X187960000Y-141859000D02*
X187960000Y-151904700D01*
X185166000Y-139065000D02*
X187960000Y-141859000D01*
X181864000Y-137922000D02*
X180721000Y-139065000D01*
X181864000Y-133786000D02*
X181864000Y-137922000D01*
X181864000Y-133786000D02*
X180848000Y-132770000D01*
X177927000Y-122936000D02*
X177927000Y-107950000D01*
X177165000Y-123698000D02*
X177927000Y-122936000D01*
X177165000Y-123698000D02*
X177165000Y-132770000D01*
X150839000Y-116862000D02*
X155227000Y-116862000D01*
X155227000Y-116862000D02*
X158369000Y-113720000D01*
X158242000Y-151130000D02*
X158242000Y-151511000D01*
X158242000Y-151511000D02*
X158496000Y-151765000D01*
X159385000Y-130429000D02*
X159131000Y-130683000D01*
X159131000Y-130683000D02*
X159131000Y-143510000D01*
X159131000Y-143510000D02*
X158877000Y-143510000D01*
X158623000Y-143764000D02*
X158623000Y-148209000D01*
X158877000Y-143510000D02*
X158623000Y-143764000D01*
X158496000Y-148209000D02*
X158242000Y-148463000D01*
X158242000Y-148463000D02*
X158242000Y-151130000D01*
X158623000Y-148209000D02*
X158496000Y-148209000D01*
X170561000Y-145470000D02*
X172284000Y-147193000D01*
X185178700Y-147066000D02*
X186601100Y-145643600D01*
X180975000Y-147066000D02*
X185178700Y-147066000D01*
X172284000Y-147193000D02*
X177673000Y-147193000D01*
X170561000Y-151765000D02*
X170434000Y-151892000D01*
X170561000Y-151765000D02*
X170561000Y-145470000D01*
X158369000Y-128651000D02*
X158369000Y-113720000D01*
X158369000Y-128651000D02*
X157988000Y-129032000D01*
X165989000Y-125349000D02*
X165989000Y-124968000D01*
X162306000Y-129032000D02*
X165989000Y-125349000D01*
X165989000Y-124968000D02*
X167386000Y-123571000D01*
X151041100Y-135483600D02*
X156311600Y-135483600D01*
X156311600Y-135483600D02*
X157353000Y-136525000D01*
X180086000Y-136144000D02*
X180467000Y-136525000D01*
X180086000Y-129032000D02*
X180086000Y-136144000D01*
X160274000Y-136470000D02*
X160274000Y-131064000D01*
X162306000Y-129032000D02*
X160274000Y-131064000D01*
X184035700Y-153289000D02*
X183781700Y-153543000D01*
X186601100Y-150723600D02*
X184035700Y-153289000D01*
X183781700Y-153543000D02*
X180975000Y-153543000D01*
X177673000Y-149987000D02*
X177673000Y-149733000D01*
X178689000Y-146431000D02*
X177673000Y-145415000D01*
X178689000Y-148717000D02*
X178689000Y-146431000D01*
X177673000Y-149733000D02*
X178689000Y-148717000D01*
X170434000Y-139065000D02*
X170434000Y-141351000D01*
X170434000Y-141351000D02*
X174498000Y-145415000D01*
X174498000Y-145415000D02*
X177673000Y-145415000D01*
X175514000Y-136779000D02*
X173228000Y-139065000D01*
X173228000Y-139065000D02*
X170434000Y-139065000D01*
X175514000Y-136779000D02*
X175514000Y-129032000D01*
X177673000Y-161036000D02*
X177673000Y-153543000D01*
X177673000Y-153543000D02*
X177673000Y-153289000D01*
X177673000Y-153289000D02*
X177673000Y-149987000D01*
X176149000Y-113792000D02*
X176149000Y-128397000D01*
X176149000Y-128397000D02*
X175514000Y-129032000D01*
X173228000Y-113792000D02*
X176149000Y-113792000D01*
X170633000Y-111197000D02*
X173228000Y-113792000D01*
X170633000Y-111197000D02*
X170561000Y-111197000D01*
X150839000Y-126387000D02*
X152124000Y-126387000D01*
X152124000Y-126387000D02*
X155575000Y-122936000D01*
X158115000Y-147193000D02*
X158115000Y-147828000D01*
X157734000Y-154178000D02*
X158115000Y-154559000D01*
X157734000Y-148209000D02*
X157734000Y-154178000D01*
X158115000Y-147828000D02*
X157734000Y-148209000D01*
X179197000Y-139700000D02*
X180340000Y-140843000D01*
X179070000Y-138430000D02*
X179070000Y-139573000D01*
X179070000Y-139573000D02*
X179197000Y-139700000D01*
X184340500Y-140843000D02*
X186601100Y-143103600D01*
X180340000Y-140843000D02*
X184340500Y-140843000D01*
X150839000Y-152803000D02*
X150839000Y-153707000D01*
X155067000Y-162814000D02*
X155702000Y-162179000D01*
X150876000Y-162814000D02*
X155067000Y-162814000D01*
X149479000Y-161417000D02*
X150876000Y-162814000D01*
X149479000Y-155067000D02*
X149479000Y-161417000D01*
X150839000Y-153707000D02*
X149479000Y-155067000D01*
X156845000Y-133604000D02*
X158242000Y-135001000D01*
X158242000Y-139065000D02*
X158115000Y-139192000D01*
X158242000Y-135001000D02*
X158242000Y-139065000D01*
X150839000Y-126387000D02*
X150839000Y-128180000D01*
X156210000Y-134239000D02*
X156845000Y-133604000D01*
X150368000Y-134239000D02*
X156210000Y-134239000D01*
X149225000Y-133096000D02*
X150368000Y-134239000D01*
X149225000Y-129794000D02*
X149225000Y-133096000D01*
X150839000Y-128180000D02*
X149225000Y-129794000D01*
X158115000Y-160528000D02*
X158115000Y-154559000D01*
X158115000Y-147193000D02*
X158115000Y-139192000D01*
X156845000Y-133604000D02*
X156845000Y-132770000D01*
X178413000Y-164174000D02*
X178980000Y-164174000D01*
X178980000Y-164174000D02*
X179451000Y-163703000D01*
X179451000Y-163703000D02*
X179451000Y-161290000D01*
X179451000Y-161290000D02*
X179451000Y-155829000D01*
X179451000Y-155829000D02*
X179705000Y-155575000D01*
X159639000Y-161163000D02*
X161671000Y-161163000D01*
X161671000Y-161163000D02*
X167259000Y-155575000D01*
X159639000Y-161163000D02*
X151320500Y-161163000D01*
X151320500Y-161163000D02*
X151041100Y-160883600D01*
X159766000Y-122936000D02*
X159766000Y-129159000D01*
X152666700Y-131318000D02*
X151041100Y-132943600D01*
X157607000Y-131318000D02*
X152666700Y-131318000D01*
X159766000Y-129159000D02*
X157607000Y-131318000D01*
X179451000Y-120142000D02*
X182372000Y-123063000D01*
X179451000Y-120142000D02*
X179451000Y-117420000D01*
X161798000Y-120904000D02*
X159766000Y-122936000D01*
X161798000Y-120904000D02*
X161798000Y-117420000D01*
X187669000Y-160423000D02*
X187669000Y-159983000D01*
X187669000Y-159983000D02*
X187071000Y-159385000D01*
X187071000Y-159385000D02*
X183388000Y-159385000D01*
X183388000Y-159385000D02*
X182753000Y-160020000D01*
X180594000Y-160147000D02*
X180594000Y-154686000D01*
X180594000Y-154686000D02*
X179578000Y-153670000D01*
X179578000Y-153670000D02*
X179578000Y-149987000D01*
X179578000Y-149987000D02*
X180467000Y-149098000D01*
X149389000Y-149203000D02*
X149389000Y-148426000D01*
X155702000Y-147828000D02*
X157099000Y-149225000D01*
X149987000Y-147828000D02*
X155702000Y-147828000D01*
X149389000Y-148426000D02*
X149987000Y-147828000D01*
X157099000Y-149225000D02*
X157099000Y-155520000D01*
X151041100Y-158343600D02*
X154275400Y-158343600D01*
X154275400Y-158343600D02*
X157099000Y-155520000D01*
X159639000Y-148209000D02*
X159385000Y-148209000D01*
X159131000Y-148463000D02*
X159131000Y-153670000D01*
X159385000Y-148209000D02*
X159131000Y-148463000D01*
X159639000Y-147193000D02*
X159639000Y-148209000D01*
X160401000Y-144272000D02*
X160401000Y-144399000D01*
X159639000Y-145161000D02*
X159639000Y-147193000D01*
X160401000Y-144399000D02*
X159639000Y-145161000D01*
X167259000Y-136525000D02*
X168529000Y-137795000D01*
X168529000Y-141605000D02*
X167259000Y-142875000D01*
X168529000Y-137795000D02*
X168529000Y-141605000D01*
X151041100Y-155803600D02*
X153174700Y-153670000D01*
X153174700Y-153670000D02*
X156337000Y-153670000D01*
X160401000Y-143002000D02*
X160274000Y-142875000D01*
X160401000Y-144272000D02*
X160401000Y-143002000D01*
X167132000Y-149225000D02*
X167259000Y-149098000D01*
X167259000Y-149098000D02*
X167259000Y-142875000D01*
M02*
