G04 #@! TF.FileFunction,Copper,L1,Top,Signal*
%FSLAX46Y46*%
G04 Gerber Fmt 4.6, Leading zero omitted, Abs format (unit mm)*
G04 Created by KiCad (PCBNEW 4.0.4-stable) date 12/08/16 18:12:57*
%MOMM*%
%LPD*%
G01*
G04 APERTURE LIST*
%ADD10C,0.100000*%
%ADD11R,1.800000X1.100000*%
%ADD12C,1.524000*%
%ADD13R,2.000000X1.600000*%
%ADD14C,0.600000*%
%ADD15C,0.250000*%
G04 APERTURE END LIST*
D10*
D11*
X165810000Y-121340000D03*
X172010000Y-121340000D03*
X165810000Y-125040000D03*
X172010000Y-125040000D03*
X154380000Y-113720000D03*
X160580000Y-113720000D03*
X154380000Y-117420000D03*
X160580000Y-117420000D03*
X175970000Y-151820000D03*
X182170000Y-151820000D03*
X175970000Y-155520000D03*
X182170000Y-155520000D03*
X155650000Y-151820000D03*
X161850000Y-151820000D03*
X155650000Y-155520000D03*
X161850000Y-155520000D03*
X165810000Y-151820000D03*
X172010000Y-151820000D03*
X165810000Y-155520000D03*
X172010000Y-155520000D03*
X155650000Y-132770000D03*
X161850000Y-132770000D03*
X155650000Y-136470000D03*
X161850000Y-136470000D03*
X165810000Y-132770000D03*
X172010000Y-132770000D03*
X165810000Y-136470000D03*
X172010000Y-136470000D03*
X175970000Y-132770000D03*
X182170000Y-132770000D03*
X175970000Y-136470000D03*
X182170000Y-136470000D03*
X155650000Y-139120000D03*
X161850000Y-139120000D03*
X155650000Y-142820000D03*
X161850000Y-142820000D03*
X165810000Y-139120000D03*
X172010000Y-139120000D03*
X165810000Y-142820000D03*
X172010000Y-142820000D03*
X175970000Y-139120000D03*
X182170000Y-139120000D03*
X175970000Y-142820000D03*
X182170000Y-142820000D03*
X161850000Y-149170000D03*
X155650000Y-149170000D03*
X161850000Y-145470000D03*
X155650000Y-145470000D03*
X165810000Y-145470000D03*
X172010000Y-145470000D03*
X165810000Y-149170000D03*
X172010000Y-149170000D03*
X175970000Y-145470000D03*
X182170000Y-145470000D03*
X175970000Y-149170000D03*
X182170000Y-149170000D03*
X165810000Y-113720000D03*
X172010000Y-113720000D03*
X165810000Y-117420000D03*
X172010000Y-117420000D03*
X177240000Y-113720000D03*
X183440000Y-113720000D03*
X177240000Y-117420000D03*
X183440000Y-117420000D03*
D12*
X151041100Y-154533600D03*
X151041100Y-151993600D03*
X151041100Y-149453600D03*
X151041100Y-146913600D03*
X151041100Y-144373600D03*
X185331100Y-139293600D03*
X185331100Y-141833600D03*
X185331100Y-144373600D03*
X185331100Y-146913600D03*
X185331100Y-149453600D03*
X185331100Y-151993600D03*
X151041100Y-115163600D03*
X151041100Y-112623600D03*
D11*
X172010000Y-109800000D03*
X165810000Y-109800000D03*
X172010000Y-106100000D03*
X165810000Y-106100000D03*
D13*
X154780000Y-107950000D03*
X160180000Y-107950000D03*
X183040000Y-107950000D03*
X177640000Y-107950000D03*
X162720000Y-129032000D03*
X157320000Y-129032000D03*
X180500000Y-129032000D03*
X175100000Y-129032000D03*
X160180000Y-161290000D03*
X154780000Y-161290000D03*
X183040000Y-161290000D03*
X177640000Y-161290000D03*
X160180000Y-122936000D03*
X154780000Y-122936000D03*
X183040000Y-122936000D03*
X177640000Y-122936000D03*
D14*
X164338000Y-150749000D03*
X164338000Y-132715000D03*
X164338000Y-149225000D03*
X169926000Y-132842000D03*
X169926000Y-121412000D03*
X169926000Y-113792000D03*
X163195000Y-107950000D03*
X163195000Y-113792000D03*
X150368000Y-108077000D03*
X187198000Y-108966000D03*
X179451000Y-153924000D03*
X179451000Y-122809000D03*
X179451000Y-132842000D03*
X179451000Y-139192000D03*
X179451000Y-107950000D03*
X157607000Y-128905000D03*
X157607000Y-113792000D03*
X157607000Y-146939000D03*
X170434000Y-151892000D03*
X170434000Y-145542000D03*
X187452000Y-138430000D03*
X162720000Y-129032000D03*
X163195000Y-136525000D03*
X163449000Y-125095000D03*
X180500000Y-129032000D03*
X180467000Y-136525000D03*
X180467000Y-124968000D03*
X174498000Y-153035000D03*
X174498000Y-113792000D03*
X174498000Y-128905000D03*
X174498000Y-139065000D03*
X174498000Y-145415000D03*
X174498000Y-159893000D03*
X174498000Y-109855000D03*
X154178000Y-124460000D03*
X153162000Y-139065000D03*
X153162000Y-134239000D03*
X153162000Y-161290000D03*
X183896000Y-163703000D03*
X162179000Y-117475000D03*
X162179000Y-122936000D03*
X185039000Y-117602000D03*
X185039000Y-122809000D03*
X149860000Y-156083000D03*
X160020000Y-155448000D03*
X160020000Y-145470000D03*
X160020000Y-147828000D03*
X167894000Y-142820000D03*
X167894000Y-136470000D03*
X167894000Y-149098000D03*
D15*
X175970000Y-151820000D02*
X182170000Y-151820000D01*
X155650000Y-149170000D02*
X161850000Y-149170000D01*
X165810000Y-132770000D02*
X165882000Y-132842000D01*
X165882000Y-132842000D02*
X169926000Y-132842000D01*
X165810000Y-121340000D02*
X172010000Y-121340000D01*
X172010000Y-113720000D02*
X165810000Y-113720000D01*
X151041100Y-149453600D02*
X151324700Y-149170000D01*
X151324700Y-149170000D02*
X155650000Y-149170000D01*
X174899000Y-150749000D02*
X175970000Y-151820000D01*
X164338000Y-150749000D02*
X174899000Y-150749000D01*
X165810000Y-132770000D02*
X165755000Y-132715000D01*
X165755000Y-132715000D02*
X164338000Y-132715000D01*
X164338000Y-149225000D02*
X161905000Y-149225000D01*
X161905000Y-149225000D02*
X161850000Y-149170000D01*
X172010000Y-132770000D02*
X169998000Y-132770000D01*
X169998000Y-132770000D02*
X169926000Y-132842000D01*
X172010000Y-113720000D02*
X169998000Y-113720000D01*
X169998000Y-121340000D02*
X172010000Y-121340000D01*
X169926000Y-121412000D02*
X169998000Y-121340000D01*
X169998000Y-113720000D02*
X169926000Y-113792000D01*
X160180000Y-107950000D02*
X163195000Y-107950000D01*
X163195000Y-113792000D02*
X163267000Y-113720000D01*
X163267000Y-113720000D02*
X165810000Y-113720000D01*
X165810000Y-106100000D02*
X172010000Y-106100000D01*
X150495000Y-107950000D02*
X154780000Y-107950000D01*
X150368000Y-108077000D02*
X150495000Y-107950000D01*
X183040000Y-107950000D02*
X186182000Y-107950000D01*
X186182000Y-107950000D02*
X187198000Y-108966000D01*
X172010000Y-106100000D02*
X181190000Y-106100000D01*
X181190000Y-106100000D02*
X183040000Y-107950000D01*
X165810000Y-106100000D02*
X156630000Y-106100000D01*
X156630000Y-106100000D02*
X154780000Y-107950000D01*
X175970000Y-139120000D02*
X176042000Y-139192000D01*
X176042000Y-139192000D02*
X179451000Y-139192000D01*
X175970000Y-132770000D02*
X176042000Y-132842000D01*
X176042000Y-132842000D02*
X179451000Y-132842000D01*
X151041100Y-154533600D02*
X151650700Y-153924000D01*
X151650700Y-153924000D02*
X179451000Y-153924000D01*
X177640000Y-122936000D02*
X177767000Y-122809000D01*
X177767000Y-122809000D02*
X179451000Y-122809000D01*
X182170000Y-132770000D02*
X182098000Y-132842000D01*
X182098000Y-132842000D02*
X179451000Y-132842000D01*
X182170000Y-139120000D02*
X182098000Y-139192000D01*
X182098000Y-139192000D02*
X179451000Y-139192000D01*
X177640000Y-107950000D02*
X179451000Y-107950000D01*
X165810000Y-151820000D02*
X172010000Y-151820000D01*
X155650000Y-151820000D02*
X161850000Y-151820000D01*
X165810000Y-145470000D02*
X165882000Y-145542000D01*
X165882000Y-145542000D02*
X170434000Y-145542000D01*
X157607000Y-128905000D02*
X157480000Y-129032000D01*
X157480000Y-129032000D02*
X157320000Y-129032000D01*
X157607000Y-113792000D02*
X157607000Y-113720000D01*
X157607000Y-113720000D02*
X157607000Y-113792000D01*
X157607000Y-113792000D02*
X157607000Y-113720000D01*
X154380000Y-113720000D02*
X157607000Y-113720000D01*
X157607000Y-113720000D02*
X160580000Y-113720000D01*
X157320000Y-129032000D02*
X157226000Y-128938000D01*
X157226000Y-113792000D02*
X154452000Y-113792000D01*
X154452000Y-113792000D02*
X154380000Y-113720000D01*
X157607000Y-146939000D02*
X157607000Y-146913600D01*
X157607000Y-146913600D02*
X157607000Y-146939000D01*
X157607000Y-146939000D02*
X157607000Y-146913600D01*
X151041100Y-146913600D02*
X157607000Y-146913600D01*
X157607000Y-146913600D02*
X164366400Y-146913600D01*
X164366400Y-146913600D02*
X165810000Y-145470000D01*
X172010000Y-151820000D02*
X171938000Y-151892000D01*
X171938000Y-151892000D02*
X170434000Y-151892000D01*
X170434000Y-145542000D02*
X171938000Y-145542000D01*
X171938000Y-145542000D02*
X172010000Y-145470000D01*
X161850000Y-151820000D02*
X165810000Y-151820000D01*
X182170000Y-136470000D02*
X185492000Y-136470000D01*
X185492000Y-136470000D02*
X187452000Y-138430000D01*
X155650000Y-136470000D02*
X161850000Y-136470000D01*
X165810000Y-125040000D02*
X165755000Y-125095000D01*
X165755000Y-125095000D02*
X163449000Y-125095000D01*
X163195000Y-136525000D02*
X161905000Y-136525000D01*
X161905000Y-136525000D02*
X161850000Y-136470000D01*
X175970000Y-136470000D02*
X176025000Y-136525000D01*
X176025000Y-136525000D02*
X180467000Y-136525000D01*
X172010000Y-125040000D02*
X172082000Y-124968000D01*
X172082000Y-124968000D02*
X180467000Y-124968000D01*
X180467000Y-136525000D02*
X182115000Y-136525000D01*
X182115000Y-136525000D02*
X182170000Y-136470000D01*
X165810000Y-125040000D02*
X172010000Y-125040000D01*
X175970000Y-145470000D02*
X182170000Y-145470000D01*
X165810000Y-139120000D02*
X172010000Y-139120000D01*
X177240000Y-113720000D02*
X183440000Y-113720000D01*
X165810000Y-109800000D02*
X172010000Y-109800000D01*
X151041100Y-151993600D02*
X152082500Y-153035000D01*
X152082500Y-153035000D02*
X174498000Y-153035000D01*
X174498000Y-113792000D02*
X177168000Y-113792000D01*
X177168000Y-113792000D02*
X177240000Y-113720000D01*
X174498000Y-128905000D02*
X174973000Y-128905000D01*
X174973000Y-128905000D02*
X175100000Y-129032000D01*
X172010000Y-139120000D02*
X172065000Y-139065000D01*
X172065000Y-139065000D02*
X174498000Y-139065000D01*
X175970000Y-145470000D02*
X175915000Y-145415000D01*
X175915000Y-145415000D02*
X174498000Y-145415000D01*
X172010000Y-109800000D02*
X174443000Y-109800000D01*
X176243000Y-159893000D02*
X177640000Y-161290000D01*
X174498000Y-159893000D02*
X176243000Y-159893000D01*
X174443000Y-109800000D02*
X174498000Y-109855000D01*
X155650000Y-132770000D02*
X161850000Y-132770000D01*
X155650000Y-139120000D02*
X161850000Y-139120000D01*
X154780000Y-123858000D02*
X154780000Y-122936000D01*
X154178000Y-124460000D02*
X154780000Y-123858000D01*
X155650000Y-139120000D02*
X153217000Y-139120000D01*
X153217000Y-139120000D02*
X153162000Y-139065000D01*
X155650000Y-132770000D02*
X154631000Y-132770000D01*
X154631000Y-132770000D02*
X153162000Y-134239000D01*
X154780000Y-161290000D02*
X153162000Y-161290000D01*
X183040000Y-162847000D02*
X183040000Y-161290000D01*
X183896000Y-163703000D02*
X183040000Y-162847000D01*
X160180000Y-161290000D02*
X165810000Y-155660000D01*
X165810000Y-155660000D02*
X165810000Y-155520000D01*
X182170000Y-155520000D02*
X185331100Y-152358900D01*
X185331100Y-152358900D02*
X185331100Y-151993600D01*
X182170000Y-155520000D02*
X183040000Y-156390000D01*
X183040000Y-156390000D02*
X183040000Y-161290000D01*
X175970000Y-155520000D02*
X182170000Y-155520000D01*
X172010000Y-155520000D02*
X175970000Y-155520000D01*
X172010000Y-155520000D02*
X165810000Y-155520000D01*
X183440000Y-117420000D02*
X177240000Y-117420000D01*
X165810000Y-117420000D02*
X172010000Y-117420000D01*
X154380000Y-117420000D02*
X160580000Y-117420000D01*
X160180000Y-122936000D02*
X162179000Y-122936000D01*
X162179000Y-117475000D02*
X162179000Y-117420000D01*
X162179000Y-117420000D02*
X162179000Y-117475000D01*
X162179000Y-117475000D02*
X162179000Y-117420000D01*
X183040000Y-122936000D02*
X184912000Y-122936000D01*
X185039000Y-117602000D02*
X183622000Y-117602000D01*
X184912000Y-122936000D02*
X185039000Y-122809000D01*
X183622000Y-117602000D02*
X183440000Y-117420000D01*
X172010000Y-117420000D02*
X177240000Y-117420000D01*
X160580000Y-117420000D02*
X162179000Y-117420000D01*
X162179000Y-117420000D02*
X165810000Y-117420000D01*
X155087000Y-156083000D02*
X155650000Y-155520000D01*
X149860000Y-156083000D02*
X155087000Y-156083000D01*
X160020000Y-155448000D02*
X160020000Y-155520000D01*
X160020000Y-155520000D02*
X160020000Y-155448000D01*
X160020000Y-155448000D02*
X160020000Y-155520000D01*
X175970000Y-149170000D02*
X174628000Y-147828000D01*
X160020000Y-147828000D02*
X174628000Y-147828000D01*
X155650000Y-155520000D02*
X160020000Y-155520000D01*
X160020000Y-155520000D02*
X161850000Y-155520000D01*
X182170000Y-149170000D02*
X182453600Y-149453600D01*
X182453600Y-149453600D02*
X185331100Y-149453600D01*
X175970000Y-149170000D02*
X182170000Y-149170000D01*
X155650000Y-145470000D02*
X160020000Y-145470000D01*
X160020000Y-145470000D02*
X161850000Y-145470000D01*
X167894000Y-149098000D02*
X167894000Y-149170000D01*
X167894000Y-149170000D02*
X167894000Y-149098000D01*
X167894000Y-149098000D02*
X167894000Y-149170000D01*
X182170000Y-142820000D02*
X183333000Y-142820000D01*
X183642000Y-145224500D02*
X185331100Y-146913600D01*
X183642000Y-143129000D02*
X183642000Y-145224500D01*
X183333000Y-142820000D02*
X183642000Y-143129000D01*
X165810000Y-149170000D02*
X167894000Y-149170000D01*
X167894000Y-149170000D02*
X172010000Y-149170000D01*
X175970000Y-142820000D02*
X182170000Y-142820000D01*
X172010000Y-142820000D02*
X175970000Y-142820000D01*
X161850000Y-142820000D02*
X165810000Y-142820000D01*
X165810000Y-142820000D02*
X167894000Y-142820000D01*
X167894000Y-142820000D02*
X172010000Y-142820000D01*
X155650000Y-142820000D02*
X161850000Y-142820000D01*
X165810000Y-136470000D02*
X167894000Y-136470000D01*
X167894000Y-136470000D02*
X172010000Y-136470000D01*
M02*
