G04 #@! TF.FileFunction,Legend,Bot*
%FSLAX46Y46*%
G04 Gerber Fmt 4.6, Leading zero omitted, Abs format (unit mm)*
G04 Created by KiCad (PCBNEW 4.0.4-stable) date 12/08/16 18:12:57*
%MOMM*%
%LPD*%
G01*
G04 APERTURE LIST*
%ADD10C,0.100000*%
%ADD11C,0.150000*%
G04 APERTURE END LIST*
D10*
D11*
X148818000Y-158662000D02*
X148268000Y-158662000D01*
X148268000Y-158662000D02*
X148268000Y-160362000D01*
X148268000Y-160362000D02*
X148818000Y-160362000D01*
X151918000Y-161262000D02*
X151918000Y-157762000D01*
X148818000Y-157762000D02*
X148818000Y-161262000D01*
X188240000Y-158330000D02*
X188790000Y-158330000D01*
X188790000Y-158330000D02*
X188790000Y-156630000D01*
X188790000Y-156630000D02*
X188240000Y-156630000D01*
X185140000Y-155730000D02*
X185140000Y-159230000D01*
X188240000Y-159230000D02*
X188240000Y-155730000D01*
X179490000Y-164745000D02*
X179490000Y-165295000D01*
X179490000Y-165295000D02*
X181190000Y-165295000D01*
X181190000Y-165295000D02*
X181190000Y-164745000D01*
X182090000Y-161645000D02*
X178590000Y-161645000D01*
X178590000Y-164745000D02*
X182090000Y-164745000D01*
X148818000Y-130214000D02*
X148268000Y-130214000D01*
X148268000Y-130214000D02*
X148268000Y-131914000D01*
X148268000Y-131914000D02*
X148818000Y-131914000D01*
X151918000Y-132814000D02*
X151918000Y-129314000D01*
X148818000Y-129314000D02*
X148818000Y-132814000D01*
X148818000Y-119546000D02*
X148268000Y-119546000D01*
X148268000Y-119546000D02*
X148268000Y-121246000D01*
X148268000Y-121246000D02*
X148818000Y-121246000D01*
X151918000Y-122146000D02*
X151918000Y-118646000D01*
X148818000Y-118646000D02*
X148818000Y-122146000D01*
X152320381Y-156773905D02*
X152320381Y-156964382D01*
X152368000Y-157059620D01*
X152463238Y-157154858D01*
X152653714Y-157202477D01*
X152987048Y-157202477D01*
X153177524Y-157154858D01*
X153272762Y-157059620D01*
X153320381Y-156964382D01*
X153320381Y-156773905D01*
X153272762Y-156678667D01*
X153177524Y-156583429D01*
X152987048Y-156535810D01*
X152653714Y-156535810D01*
X152463238Y-156583429D01*
X152368000Y-156678667D01*
X152320381Y-156773905D01*
X153320381Y-157631048D02*
X152320381Y-157631048D01*
X152320381Y-158012001D01*
X152368000Y-158107239D01*
X152415619Y-158154858D01*
X152510857Y-158202477D01*
X152653714Y-158202477D01*
X152748952Y-158154858D01*
X152796571Y-158107239D01*
X152844190Y-158012001D01*
X152844190Y-157631048D01*
X152320381Y-158488191D02*
X152320381Y-159059620D01*
X153320381Y-158773905D02*
X152320381Y-158773905D01*
X153320381Y-159392953D02*
X152320381Y-159392953D01*
X152320381Y-160059619D02*
X152320381Y-160250096D01*
X152368000Y-160345334D01*
X152463238Y-160440572D01*
X152653714Y-160488191D01*
X152987048Y-160488191D01*
X153177524Y-160440572D01*
X153272762Y-160345334D01*
X153320381Y-160250096D01*
X153320381Y-160059619D01*
X153272762Y-159964381D01*
X153177524Y-159869143D01*
X152987048Y-159821524D01*
X152653714Y-159821524D01*
X152463238Y-159869143D01*
X152368000Y-159964381D01*
X152320381Y-160059619D01*
X153320381Y-160916762D02*
X152320381Y-160916762D01*
X153320381Y-161488191D01*
X152320381Y-161488191D01*
X153320381Y-162488191D02*
X153320381Y-161916762D01*
X153320381Y-162202476D02*
X152320381Y-162202476D01*
X152463238Y-162107238D01*
X152558476Y-162012000D01*
X152606095Y-161916762D01*
X184642381Y-154789524D02*
X183642381Y-154789524D01*
X183642381Y-155170477D01*
X183690000Y-155265715D01*
X183737619Y-155313334D01*
X183832857Y-155360953D01*
X183975714Y-155360953D01*
X184070952Y-155313334D01*
X184118571Y-155265715D01*
X184166190Y-155170477D01*
X184166190Y-154789524D01*
X184642381Y-155789524D02*
X183642381Y-155789524D01*
X184118571Y-155789524D02*
X184118571Y-156360953D01*
X184642381Y-156360953D02*
X183642381Y-156360953D01*
X183642381Y-157027619D02*
X183642381Y-157218096D01*
X183690000Y-157313334D01*
X183785238Y-157408572D01*
X183975714Y-157456191D01*
X184309048Y-157456191D01*
X184499524Y-157408572D01*
X184594762Y-157313334D01*
X184642381Y-157218096D01*
X184642381Y-157027619D01*
X184594762Y-156932381D01*
X184499524Y-156837143D01*
X184309048Y-156789524D01*
X183975714Y-156789524D01*
X183785238Y-156837143D01*
X183690000Y-156932381D01*
X183642381Y-157027619D01*
X183642381Y-157741905D02*
X183642381Y-158313334D01*
X184642381Y-158027619D02*
X183642381Y-158027619D01*
X183642381Y-158837143D02*
X183642381Y-159027620D01*
X183690000Y-159122858D01*
X183785238Y-159218096D01*
X183975714Y-159265715D01*
X184309048Y-159265715D01*
X184499524Y-159218096D01*
X184594762Y-159122858D01*
X184642381Y-159027620D01*
X184642381Y-158837143D01*
X184594762Y-158741905D01*
X184499524Y-158646667D01*
X184309048Y-158599048D01*
X183975714Y-158599048D01*
X183785238Y-158646667D01*
X183690000Y-158741905D01*
X183642381Y-158837143D01*
X184642381Y-160218096D02*
X184642381Y-159646667D01*
X184642381Y-159932381D02*
X183642381Y-159932381D01*
X183785238Y-159837143D01*
X183880476Y-159741905D01*
X183928095Y-159646667D01*
X183030476Y-161147381D02*
X183030476Y-160147381D01*
X182649523Y-160147381D01*
X182554285Y-160195000D01*
X182506666Y-160242619D01*
X182459047Y-160337857D01*
X182459047Y-160480714D01*
X182506666Y-160575952D01*
X182554285Y-160623571D01*
X182649523Y-160671190D01*
X183030476Y-160671190D01*
X182030476Y-161147381D02*
X182030476Y-160147381D01*
X182030476Y-160623571D02*
X181459047Y-160623571D01*
X181459047Y-161147381D02*
X181459047Y-160147381D01*
X180792381Y-160147381D02*
X180601904Y-160147381D01*
X180506666Y-160195000D01*
X180411428Y-160290238D01*
X180363809Y-160480714D01*
X180363809Y-160814048D01*
X180411428Y-161004524D01*
X180506666Y-161099762D01*
X180601904Y-161147381D01*
X180792381Y-161147381D01*
X180887619Y-161099762D01*
X180982857Y-161004524D01*
X181030476Y-160814048D01*
X181030476Y-160480714D01*
X180982857Y-160290238D01*
X180887619Y-160195000D01*
X180792381Y-160147381D01*
X180078095Y-160147381D02*
X179506666Y-160147381D01*
X179792381Y-161147381D02*
X179792381Y-160147381D01*
X178982857Y-160147381D02*
X178792380Y-160147381D01*
X178697142Y-160195000D01*
X178601904Y-160290238D01*
X178554285Y-160480714D01*
X178554285Y-160814048D01*
X178601904Y-161004524D01*
X178697142Y-161099762D01*
X178792380Y-161147381D01*
X178982857Y-161147381D01*
X179078095Y-161099762D01*
X179173333Y-161004524D01*
X179220952Y-160814048D01*
X179220952Y-160480714D01*
X179173333Y-160290238D01*
X179078095Y-160195000D01*
X178982857Y-160147381D01*
X178173333Y-160242619D02*
X178125714Y-160195000D01*
X178030476Y-160147381D01*
X177792380Y-160147381D01*
X177697142Y-160195000D01*
X177649523Y-160242619D01*
X177601904Y-160337857D01*
X177601904Y-160433095D01*
X177649523Y-160575952D01*
X178220952Y-161147381D01*
X177601904Y-161147381D01*
X152320381Y-126825905D02*
X153320381Y-127159238D01*
X152320381Y-127492572D01*
X152320381Y-128016381D02*
X152320381Y-128206858D01*
X152368000Y-128302096D01*
X152463238Y-128397334D01*
X152653714Y-128444953D01*
X152987048Y-128444953D01*
X153177524Y-128397334D01*
X153272762Y-128302096D01*
X153320381Y-128206858D01*
X153320381Y-128016381D01*
X153272762Y-127921143D01*
X153177524Y-127825905D01*
X152987048Y-127778286D01*
X152653714Y-127778286D01*
X152463238Y-127825905D01*
X152368000Y-127921143D01*
X152320381Y-128016381D01*
X153320381Y-129349715D02*
X153320381Y-128873524D01*
X152320381Y-128873524D01*
X153415619Y-129444953D02*
X153415619Y-130206858D01*
X153320381Y-130444953D02*
X152320381Y-130444953D01*
X152320381Y-130683048D01*
X152368000Y-130825906D01*
X152463238Y-130921144D01*
X152558476Y-130968763D01*
X152748952Y-131016382D01*
X152891810Y-131016382D01*
X153082286Y-130968763D01*
X153177524Y-130921144D01*
X153272762Y-130825906D01*
X153320381Y-130683048D01*
X153320381Y-130444953D01*
X152320381Y-131635429D02*
X152320381Y-131825906D01*
X152368000Y-131921144D01*
X152463238Y-132016382D01*
X152653714Y-132064001D01*
X152987048Y-132064001D01*
X153177524Y-132016382D01*
X153272762Y-131921144D01*
X153320381Y-131825906D01*
X153320381Y-131635429D01*
X153272762Y-131540191D01*
X153177524Y-131444953D01*
X152987048Y-131397334D01*
X152653714Y-131397334D01*
X152463238Y-131444953D01*
X152368000Y-131540191D01*
X152320381Y-131635429D01*
X152320381Y-132397334D02*
X153320381Y-132635429D01*
X152606095Y-132825906D01*
X153320381Y-133016382D01*
X152320381Y-133254477D01*
X153320381Y-133635429D02*
X152320381Y-133635429D01*
X153320381Y-134206858D01*
X152320381Y-134206858D01*
X153320381Y-135206858D02*
X153320381Y-134635429D01*
X153320381Y-134921143D02*
X152320381Y-134921143D01*
X152463238Y-134825905D01*
X152558476Y-134730667D01*
X152606095Y-134635429D01*
X152320381Y-117253143D02*
X153320381Y-117586476D01*
X152320381Y-117919810D01*
X152320381Y-118443619D02*
X152320381Y-118634096D01*
X152368000Y-118729334D01*
X152463238Y-118824572D01*
X152653714Y-118872191D01*
X152987048Y-118872191D01*
X153177524Y-118824572D01*
X153272762Y-118729334D01*
X153320381Y-118634096D01*
X153320381Y-118443619D01*
X153272762Y-118348381D01*
X153177524Y-118253143D01*
X152987048Y-118205524D01*
X152653714Y-118205524D01*
X152463238Y-118253143D01*
X152368000Y-118348381D01*
X152320381Y-118443619D01*
X153320381Y-119776953D02*
X153320381Y-119300762D01*
X152320381Y-119300762D01*
X153415619Y-119872191D02*
X153415619Y-120634096D01*
X152320381Y-120872191D02*
X153129905Y-120872191D01*
X153225143Y-120919810D01*
X153272762Y-120967429D01*
X153320381Y-121062667D01*
X153320381Y-121253144D01*
X153272762Y-121348382D01*
X153225143Y-121396001D01*
X153129905Y-121443620D01*
X152320381Y-121443620D01*
X153320381Y-121919810D02*
X152320381Y-121919810D01*
X152320381Y-122300763D01*
X152368000Y-122396001D01*
X152415619Y-122443620D01*
X152510857Y-122491239D01*
X152653714Y-122491239D01*
X152748952Y-122443620D01*
X152796571Y-122396001D01*
X152844190Y-122300763D01*
X152844190Y-121919810D01*
X153320381Y-123443620D02*
X153320381Y-122872191D01*
X153320381Y-123157905D02*
X152320381Y-123157905D01*
X152463238Y-123062667D01*
X152558476Y-122967429D01*
X152606095Y-122872191D01*
M02*
