M48
;DRILL file {KiCad 4.0.4-stable} date 12/08/16 18:10:12
;FORMAT={-:-/ absolute / metric / decimal}
FMAT,2
METRIC,TZ
T1C0.400
T2C0.762
T3C0.700
%
G90
G05
M71
T1
X149.86Y-156.083
X150.368Y-108.077
X153.162Y-134.239
X153.162Y-139.065
X153.162Y-161.29
X154.178Y-124.46
X157.607Y-113.792
X157.607Y-128.905
X157.607Y-146.939
X160.02Y-145.47
X160.02Y-147.828
X160.02Y-155.448
X162.179Y-117.475
X162.179Y-122.936
X162.72Y-129.032
X163.195Y-107.95
X163.195Y-113.792
X163.195Y-136.525
X163.449Y-125.095
X164.338Y-132.715
X164.338Y-149.225
X164.338Y-150.749
X167.894Y-136.47
X167.894Y-142.82
X167.894Y-149.098
X169.926Y-113.792
X169.926Y-121.412
X169.926Y-132.842
X170.434Y-145.542
X170.434Y-151.892
X174.498Y-109.855
X174.498Y-113.792
X174.498Y-128.905
X174.498Y-139.065
X174.498Y-145.415
X174.498Y-153.035
X174.498Y-159.893
X179.451Y-107.95
X179.451Y-122.809
X179.451Y-132.842
X179.451Y-139.192
X179.451Y-153.924
X180.467Y-124.968
X180.467Y-136.525
X180.5Y-129.032
X183.896Y-163.703
X185.039Y-117.602
X185.039Y-122.809
X187.198Y-108.966
X187.452Y-138.43
T2
X151.041Y-112.624
X151.041Y-115.164
X151.041Y-144.374
X151.041Y-146.914
X151.041Y-149.454
X151.041Y-151.994
X151.041Y-154.534
X185.331Y-139.294
X185.331Y-141.834
X185.331Y-144.374
X185.331Y-146.914
X185.331Y-149.454
X185.331Y-151.994
T3
X149.468Y-120.396
X149.468Y-131.064
X149.468Y-159.512
X151.268Y-120.396
X151.268Y-131.064
X151.268Y-159.512
X180.34Y-162.295
X180.34Y-164.095
X185.79Y-157.48
X187.59Y-157.48
T0
M30
