%TF.GenerationSoftware,KiCad,Pcbnew,4.0.6*%
%TF.CreationDate,2017-06-24T23:54:36+03:00*%
%TF.ProjectId,keypad_prototype,6B65797061645F70726F746F74797065,rev?*%
%TF.FileFunction,Legend,Top*%
%FSLAX46Y46*%
G04 Gerber Fmt 4.6, Leading zero omitted, Abs format (unit mm)*
G04 Created by KiCad (PCBNEW 4.0.6) date 06/24/17 23:54:36*
%MOMM*%
%LPD*%
G01*
G04 APERTURE LIST*
%ADD10C,0.100000*%
%ADD11C,0.300000*%
%ADD12C,0.150000*%
%ADD13C,0.010000*%
G04 APERTURE END LIST*
D10*
D11*
X153353429Y-140462715D02*
X153353429Y-141462715D01*
X151853429Y-140462715D01*
X151853429Y-141462715D01*
X151924857Y-142605571D02*
X151853429Y-142462714D01*
X151853429Y-142177000D01*
X151924857Y-142034143D01*
X152067714Y-141962714D01*
X152639143Y-141962714D01*
X152782000Y-142034143D01*
X152853429Y-142177000D01*
X152853429Y-142462714D01*
X152782000Y-142605571D01*
X152639143Y-142677000D01*
X152496286Y-142677000D01*
X152353429Y-141962714D01*
X151853429Y-143319857D02*
X152853429Y-143319857D01*
X152567714Y-143319857D02*
X152710571Y-143391285D01*
X152782000Y-143462714D01*
X152853429Y-143605571D01*
X152853429Y-143748428D01*
X151853429Y-144462714D02*
X151924857Y-144319856D01*
X151996286Y-144248428D01*
X152139143Y-144176999D01*
X152567714Y-144176999D01*
X152710571Y-144248428D01*
X152782000Y-144319856D01*
X152853429Y-144462714D01*
X152853429Y-144676999D01*
X152782000Y-144819856D01*
X152710571Y-144891285D01*
X152567714Y-144962714D01*
X152139143Y-144962714D01*
X151996286Y-144891285D01*
X151924857Y-144819856D01*
X151853429Y-144676999D01*
X151853429Y-144462714D01*
X151853429Y-145605571D02*
X153353429Y-145605571D01*
X153353429Y-146176999D01*
X153282000Y-146319857D01*
X153210571Y-146391285D01*
X153067714Y-146462714D01*
X152853429Y-146462714D01*
X152710571Y-146391285D01*
X152639143Y-146319857D01*
X152567714Y-146176999D01*
X152567714Y-145605571D01*
X151853429Y-147105571D02*
X153353429Y-147105571D01*
X151853429Y-147748428D02*
X152639143Y-147748428D01*
X152782000Y-147676999D01*
X152853429Y-147534142D01*
X152853429Y-147319857D01*
X152782000Y-147176999D01*
X152710571Y-147105571D01*
X151853429Y-148677000D02*
X151924857Y-148534142D01*
X151996286Y-148462714D01*
X152139143Y-148391285D01*
X152567714Y-148391285D01*
X152710571Y-148462714D01*
X152782000Y-148534142D01*
X152853429Y-148677000D01*
X152853429Y-148891285D01*
X152782000Y-149034142D01*
X152710571Y-149105571D01*
X152567714Y-149177000D01*
X152139143Y-149177000D01*
X151996286Y-149105571D01*
X151924857Y-149034142D01*
X151853429Y-148891285D01*
X151853429Y-148677000D01*
X152853429Y-149819857D02*
X151853429Y-149819857D01*
X152710571Y-149819857D02*
X152782000Y-149891285D01*
X152853429Y-150034143D01*
X152853429Y-150248428D01*
X152782000Y-150391285D01*
X152639143Y-150462714D01*
X151853429Y-150462714D01*
X151924857Y-151748428D02*
X151853429Y-151605571D01*
X151853429Y-151319857D01*
X151924857Y-151177000D01*
X152067714Y-151105571D01*
X152639143Y-151105571D01*
X152782000Y-151177000D01*
X152853429Y-151319857D01*
X152853429Y-151605571D01*
X152782000Y-151748428D01*
X152639143Y-151819857D01*
X152496286Y-151819857D01*
X152353429Y-151105571D01*
X150732000Y-143212714D02*
X150803429Y-143069857D01*
X150803429Y-142855571D01*
X150732000Y-142641286D01*
X150589143Y-142498428D01*
X150446286Y-142427000D01*
X150160571Y-142355571D01*
X149946286Y-142355571D01*
X149660571Y-142427000D01*
X149517714Y-142498428D01*
X149374857Y-142641286D01*
X149303429Y-142855571D01*
X149303429Y-142998428D01*
X149374857Y-143212714D01*
X149446286Y-143284143D01*
X149946286Y-143284143D01*
X149946286Y-142998428D01*
X149303429Y-144569857D02*
X150089143Y-144569857D01*
X150232000Y-144498428D01*
X150303429Y-144355571D01*
X150303429Y-144069857D01*
X150232000Y-143927000D01*
X149374857Y-144569857D02*
X149303429Y-144427000D01*
X149303429Y-144069857D01*
X149374857Y-143927000D01*
X149517714Y-143855571D01*
X149660571Y-143855571D01*
X149803429Y-143927000D01*
X149874857Y-144069857D01*
X149874857Y-144427000D01*
X149946286Y-144569857D01*
X149303429Y-145284143D02*
X150303429Y-145284143D01*
X150160571Y-145284143D02*
X150232000Y-145355571D01*
X150303429Y-145498429D01*
X150303429Y-145712714D01*
X150232000Y-145855571D01*
X150089143Y-145927000D01*
X149303429Y-145927000D01*
X150089143Y-145927000D02*
X150232000Y-145998429D01*
X150303429Y-146141286D01*
X150303429Y-146355571D01*
X150232000Y-146498429D01*
X150089143Y-146569857D01*
X149303429Y-146569857D01*
X149303429Y-147284143D02*
X150303429Y-147284143D01*
X150160571Y-147284143D02*
X150232000Y-147355571D01*
X150303429Y-147498429D01*
X150303429Y-147712714D01*
X150232000Y-147855571D01*
X150089143Y-147927000D01*
X149303429Y-147927000D01*
X150089143Y-147927000D02*
X150232000Y-147998429D01*
X150303429Y-148141286D01*
X150303429Y-148355571D01*
X150232000Y-148498429D01*
X150089143Y-148569857D01*
X149303429Y-148569857D01*
X149303429Y-149927000D02*
X150089143Y-149927000D01*
X150232000Y-149855571D01*
X150303429Y-149712714D01*
X150303429Y-149427000D01*
X150232000Y-149284143D01*
X149374857Y-149927000D02*
X149303429Y-149784143D01*
X149303429Y-149427000D01*
X149374857Y-149284143D01*
X149517714Y-149212714D01*
X149660571Y-149212714D01*
X149803429Y-149284143D01*
X149874857Y-149427000D01*
X149874857Y-149784143D01*
X149946286Y-149927000D01*
D12*
X169910000Y-121793000D02*
G75*
G03X169910000Y-121793000I-1000000J0D01*
G01*
X167710000Y-119993000D02*
X170110000Y-119993000D01*
X167110000Y-120593000D02*
X167710000Y-119993000D01*
X167110000Y-122993000D02*
X167110000Y-120593000D01*
X167710000Y-123593000D02*
X167110000Y-122993000D01*
X170110000Y-123593000D02*
X167710000Y-123593000D01*
X170710000Y-122993000D02*
X170110000Y-123593000D01*
X170710000Y-120593000D02*
X170710000Y-122993000D01*
X170110000Y-119993000D02*
X170710000Y-120593000D01*
X167460000Y-119093000D02*
X170360000Y-119093000D01*
X167010000Y-119543000D02*
X167460000Y-119093000D01*
X166210000Y-122793000D02*
X166210000Y-120793000D01*
X167460000Y-124493000D02*
X167010000Y-124043000D01*
X170360000Y-124493000D02*
X167460000Y-124493000D01*
X170810000Y-124043000D02*
X170360000Y-124493000D01*
X171610000Y-120793000D02*
X171610000Y-122793000D01*
X170360000Y-119093000D02*
X170810000Y-119543000D01*
X161020000Y-115570000D02*
G75*
G03X161020000Y-115570000I-1000000J0D01*
G01*
X158820000Y-113770000D02*
X161220000Y-113770000D01*
X158220000Y-114370000D02*
X158820000Y-113770000D01*
X158220000Y-116770000D02*
X158220000Y-114370000D01*
X158820000Y-117370000D02*
X158220000Y-116770000D01*
X161220000Y-117370000D02*
X158820000Y-117370000D01*
X161820000Y-116770000D02*
X161220000Y-117370000D01*
X161820000Y-114370000D02*
X161820000Y-116770000D01*
X161220000Y-113770000D02*
X161820000Y-114370000D01*
X158570000Y-112870000D02*
X161470000Y-112870000D01*
X158120000Y-113320000D02*
X158570000Y-112870000D01*
X157320000Y-116570000D02*
X157320000Y-114570000D01*
X158570000Y-118270000D02*
X158120000Y-117820000D01*
X161470000Y-118270000D02*
X158570000Y-118270000D01*
X161920000Y-117820000D02*
X161470000Y-118270000D01*
X162720000Y-114570000D02*
X162720000Y-116570000D01*
X161470000Y-112870000D02*
X161920000Y-113320000D01*
X180070000Y-153670000D02*
G75*
G03X180070000Y-153670000I-1000000J0D01*
G01*
X177870000Y-151870000D02*
X180270000Y-151870000D01*
X177270000Y-152470000D02*
X177870000Y-151870000D01*
X177270000Y-154870000D02*
X177270000Y-152470000D01*
X177870000Y-155470000D02*
X177270000Y-154870000D01*
X180270000Y-155470000D02*
X177870000Y-155470000D01*
X180870000Y-154870000D02*
X180270000Y-155470000D01*
X180870000Y-152470000D02*
X180870000Y-154870000D01*
X180270000Y-151870000D02*
X180870000Y-152470000D01*
X177620000Y-150970000D02*
X180520000Y-150970000D01*
X177170000Y-151420000D02*
X177620000Y-150970000D01*
X176370000Y-154670000D02*
X176370000Y-152670000D01*
X177620000Y-156370000D02*
X177170000Y-155920000D01*
X180520000Y-156370000D02*
X177620000Y-156370000D01*
X180970000Y-155920000D02*
X180520000Y-156370000D01*
X181770000Y-152670000D02*
X181770000Y-154670000D01*
X180520000Y-150970000D02*
X180970000Y-151420000D01*
X159750000Y-153670000D02*
G75*
G03X159750000Y-153670000I-1000000J0D01*
G01*
X157550000Y-151870000D02*
X159950000Y-151870000D01*
X156950000Y-152470000D02*
X157550000Y-151870000D01*
X156950000Y-154870000D02*
X156950000Y-152470000D01*
X157550000Y-155470000D02*
X156950000Y-154870000D01*
X159950000Y-155470000D02*
X157550000Y-155470000D01*
X160550000Y-154870000D02*
X159950000Y-155470000D01*
X160550000Y-152470000D02*
X160550000Y-154870000D01*
X159950000Y-151870000D02*
X160550000Y-152470000D01*
X157300000Y-150970000D02*
X160200000Y-150970000D01*
X156850000Y-151420000D02*
X157300000Y-150970000D01*
X156050000Y-154670000D02*
X156050000Y-152670000D01*
X157300000Y-156370000D02*
X156850000Y-155920000D01*
X160200000Y-156370000D02*
X157300000Y-156370000D01*
X160650000Y-155920000D02*
X160200000Y-156370000D01*
X161450000Y-152670000D02*
X161450000Y-154670000D01*
X160200000Y-150970000D02*
X160650000Y-151420000D01*
X169910000Y-153670000D02*
G75*
G03X169910000Y-153670000I-1000000J0D01*
G01*
X167710000Y-151870000D02*
X170110000Y-151870000D01*
X167110000Y-152470000D02*
X167710000Y-151870000D01*
X167110000Y-154870000D02*
X167110000Y-152470000D01*
X167710000Y-155470000D02*
X167110000Y-154870000D01*
X170110000Y-155470000D02*
X167710000Y-155470000D01*
X170710000Y-154870000D02*
X170110000Y-155470000D01*
X170710000Y-152470000D02*
X170710000Y-154870000D01*
X170110000Y-151870000D02*
X170710000Y-152470000D01*
X167460000Y-150970000D02*
X170360000Y-150970000D01*
X167010000Y-151420000D02*
X167460000Y-150970000D01*
X166210000Y-154670000D02*
X166210000Y-152670000D01*
X167460000Y-156370000D02*
X167010000Y-155920000D01*
X170360000Y-156370000D02*
X167460000Y-156370000D01*
X170810000Y-155920000D02*
X170360000Y-156370000D01*
X171610000Y-152670000D02*
X171610000Y-154670000D01*
X170360000Y-150970000D02*
X170810000Y-151420000D01*
X159750000Y-134620000D02*
G75*
G03X159750000Y-134620000I-1000000J0D01*
G01*
X157550000Y-132820000D02*
X159950000Y-132820000D01*
X156950000Y-133420000D02*
X157550000Y-132820000D01*
X156950000Y-135820000D02*
X156950000Y-133420000D01*
X157550000Y-136420000D02*
X156950000Y-135820000D01*
X159950000Y-136420000D02*
X157550000Y-136420000D01*
X160550000Y-135820000D02*
X159950000Y-136420000D01*
X160550000Y-133420000D02*
X160550000Y-135820000D01*
X159950000Y-132820000D02*
X160550000Y-133420000D01*
X157300000Y-131920000D02*
X160200000Y-131920000D01*
X156850000Y-132370000D02*
X157300000Y-131920000D01*
X156050000Y-135620000D02*
X156050000Y-133620000D01*
X157300000Y-137320000D02*
X156850000Y-136870000D01*
X160200000Y-137320000D02*
X157300000Y-137320000D01*
X160650000Y-136870000D02*
X160200000Y-137320000D01*
X161450000Y-133620000D02*
X161450000Y-135620000D01*
X160200000Y-131920000D02*
X160650000Y-132370000D01*
X169910000Y-134620000D02*
G75*
G03X169910000Y-134620000I-1000000J0D01*
G01*
X167710000Y-132820000D02*
X170110000Y-132820000D01*
X167110000Y-133420000D02*
X167710000Y-132820000D01*
X167110000Y-135820000D02*
X167110000Y-133420000D01*
X167710000Y-136420000D02*
X167110000Y-135820000D01*
X170110000Y-136420000D02*
X167710000Y-136420000D01*
X170710000Y-135820000D02*
X170110000Y-136420000D01*
X170710000Y-133420000D02*
X170710000Y-135820000D01*
X170110000Y-132820000D02*
X170710000Y-133420000D01*
X167460000Y-131920000D02*
X170360000Y-131920000D01*
X167010000Y-132370000D02*
X167460000Y-131920000D01*
X166210000Y-135620000D02*
X166210000Y-133620000D01*
X167460000Y-137320000D02*
X167010000Y-136870000D01*
X170360000Y-137320000D02*
X167460000Y-137320000D01*
X170810000Y-136870000D02*
X170360000Y-137320000D01*
X171610000Y-133620000D02*
X171610000Y-135620000D01*
X170360000Y-131920000D02*
X170810000Y-132370000D01*
X180070000Y-134620000D02*
G75*
G03X180070000Y-134620000I-1000000J0D01*
G01*
X177870000Y-132820000D02*
X180270000Y-132820000D01*
X177270000Y-133420000D02*
X177870000Y-132820000D01*
X177270000Y-135820000D02*
X177270000Y-133420000D01*
X177870000Y-136420000D02*
X177270000Y-135820000D01*
X180270000Y-136420000D02*
X177870000Y-136420000D01*
X180870000Y-135820000D02*
X180270000Y-136420000D01*
X180870000Y-133420000D02*
X180870000Y-135820000D01*
X180270000Y-132820000D02*
X180870000Y-133420000D01*
X177620000Y-131920000D02*
X180520000Y-131920000D01*
X177170000Y-132370000D02*
X177620000Y-131920000D01*
X176370000Y-135620000D02*
X176370000Y-133620000D01*
X177620000Y-137320000D02*
X177170000Y-136870000D01*
X180520000Y-137320000D02*
X177620000Y-137320000D01*
X180970000Y-136870000D02*
X180520000Y-137320000D01*
X181770000Y-133620000D02*
X181770000Y-135620000D01*
X180520000Y-131920000D02*
X180970000Y-132370000D01*
X159750000Y-140970000D02*
G75*
G03X159750000Y-140970000I-1000000J0D01*
G01*
X157550000Y-139170000D02*
X159950000Y-139170000D01*
X156950000Y-139770000D02*
X157550000Y-139170000D01*
X156950000Y-142170000D02*
X156950000Y-139770000D01*
X157550000Y-142770000D02*
X156950000Y-142170000D01*
X159950000Y-142770000D02*
X157550000Y-142770000D01*
X160550000Y-142170000D02*
X159950000Y-142770000D01*
X160550000Y-139770000D02*
X160550000Y-142170000D01*
X159950000Y-139170000D02*
X160550000Y-139770000D01*
X157300000Y-138270000D02*
X160200000Y-138270000D01*
X156850000Y-138720000D02*
X157300000Y-138270000D01*
X156050000Y-141970000D02*
X156050000Y-139970000D01*
X157300000Y-143670000D02*
X156850000Y-143220000D01*
X160200000Y-143670000D02*
X157300000Y-143670000D01*
X160650000Y-143220000D02*
X160200000Y-143670000D01*
X161450000Y-139970000D02*
X161450000Y-141970000D01*
X160200000Y-138270000D02*
X160650000Y-138720000D01*
X169910000Y-140970000D02*
G75*
G03X169910000Y-140970000I-1000000J0D01*
G01*
X167710000Y-139170000D02*
X170110000Y-139170000D01*
X167110000Y-139770000D02*
X167710000Y-139170000D01*
X167110000Y-142170000D02*
X167110000Y-139770000D01*
X167710000Y-142770000D02*
X167110000Y-142170000D01*
X170110000Y-142770000D02*
X167710000Y-142770000D01*
X170710000Y-142170000D02*
X170110000Y-142770000D01*
X170710000Y-139770000D02*
X170710000Y-142170000D01*
X170110000Y-139170000D02*
X170710000Y-139770000D01*
X167460000Y-138270000D02*
X170360000Y-138270000D01*
X167010000Y-138720000D02*
X167460000Y-138270000D01*
X166210000Y-141970000D02*
X166210000Y-139970000D01*
X167460000Y-143670000D02*
X167010000Y-143220000D01*
X170360000Y-143670000D02*
X167460000Y-143670000D01*
X170810000Y-143220000D02*
X170360000Y-143670000D01*
X171610000Y-139970000D02*
X171610000Y-141970000D01*
X170360000Y-138270000D02*
X170810000Y-138720000D01*
X180070000Y-140970000D02*
G75*
G03X180070000Y-140970000I-1000000J0D01*
G01*
X177870000Y-139170000D02*
X180270000Y-139170000D01*
X177270000Y-139770000D02*
X177870000Y-139170000D01*
X177270000Y-142170000D02*
X177270000Y-139770000D01*
X177870000Y-142770000D02*
X177270000Y-142170000D01*
X180270000Y-142770000D02*
X177870000Y-142770000D01*
X180870000Y-142170000D02*
X180270000Y-142770000D01*
X180870000Y-139770000D02*
X180870000Y-142170000D01*
X180270000Y-139170000D02*
X180870000Y-139770000D01*
X177620000Y-138270000D02*
X180520000Y-138270000D01*
X177170000Y-138720000D02*
X177620000Y-138270000D01*
X176370000Y-141970000D02*
X176370000Y-139970000D01*
X177620000Y-143670000D02*
X177170000Y-143220000D01*
X180520000Y-143670000D02*
X177620000Y-143670000D01*
X180970000Y-143220000D02*
X180520000Y-143670000D01*
X181770000Y-139970000D02*
X181770000Y-141970000D01*
X180520000Y-138270000D02*
X180970000Y-138720000D01*
X159750000Y-147320000D02*
G75*
G03X159750000Y-147320000I-1000000J0D01*
G01*
X157550000Y-145520000D02*
X159950000Y-145520000D01*
X156950000Y-146120000D02*
X157550000Y-145520000D01*
X156950000Y-148520000D02*
X156950000Y-146120000D01*
X157550000Y-149120000D02*
X156950000Y-148520000D01*
X159950000Y-149120000D02*
X157550000Y-149120000D01*
X160550000Y-148520000D02*
X159950000Y-149120000D01*
X160550000Y-146120000D02*
X160550000Y-148520000D01*
X159950000Y-145520000D02*
X160550000Y-146120000D01*
X157300000Y-144620000D02*
X160200000Y-144620000D01*
X156850000Y-145070000D02*
X157300000Y-144620000D01*
X156050000Y-148320000D02*
X156050000Y-146320000D01*
X157300000Y-150020000D02*
X156850000Y-149570000D01*
X160200000Y-150020000D02*
X157300000Y-150020000D01*
X160650000Y-149570000D02*
X160200000Y-150020000D01*
X161450000Y-146320000D02*
X161450000Y-148320000D01*
X160200000Y-144620000D02*
X160650000Y-145070000D01*
X169910000Y-147320000D02*
G75*
G03X169910000Y-147320000I-1000000J0D01*
G01*
X167710000Y-145520000D02*
X170110000Y-145520000D01*
X167110000Y-146120000D02*
X167710000Y-145520000D01*
X167110000Y-148520000D02*
X167110000Y-146120000D01*
X167710000Y-149120000D02*
X167110000Y-148520000D01*
X170110000Y-149120000D02*
X167710000Y-149120000D01*
X170710000Y-148520000D02*
X170110000Y-149120000D01*
X170710000Y-146120000D02*
X170710000Y-148520000D01*
X170110000Y-145520000D02*
X170710000Y-146120000D01*
X167460000Y-144620000D02*
X170360000Y-144620000D01*
X167010000Y-145070000D02*
X167460000Y-144620000D01*
X166210000Y-148320000D02*
X166210000Y-146320000D01*
X167460000Y-150020000D02*
X167010000Y-149570000D01*
X170360000Y-150020000D02*
X167460000Y-150020000D01*
X170810000Y-149570000D02*
X170360000Y-150020000D01*
X171610000Y-146320000D02*
X171610000Y-148320000D01*
X170360000Y-144620000D02*
X170810000Y-145070000D01*
X180070000Y-147320000D02*
G75*
G03X180070000Y-147320000I-1000000J0D01*
G01*
X177870000Y-145520000D02*
X180270000Y-145520000D01*
X177270000Y-146120000D02*
X177870000Y-145520000D01*
X177270000Y-148520000D02*
X177270000Y-146120000D01*
X177870000Y-149120000D02*
X177270000Y-148520000D01*
X180270000Y-149120000D02*
X177870000Y-149120000D01*
X180870000Y-148520000D02*
X180270000Y-149120000D01*
X180870000Y-146120000D02*
X180870000Y-148520000D01*
X180270000Y-145520000D02*
X180870000Y-146120000D01*
X177620000Y-144620000D02*
X180520000Y-144620000D01*
X177170000Y-145070000D02*
X177620000Y-144620000D01*
X176370000Y-148320000D02*
X176370000Y-146320000D01*
X177620000Y-150020000D02*
X177170000Y-149570000D01*
X180520000Y-150020000D02*
X177620000Y-150020000D01*
X180970000Y-149570000D02*
X180520000Y-150020000D01*
X181770000Y-146320000D02*
X181770000Y-148320000D01*
X180520000Y-144620000D02*
X180970000Y-145070000D01*
X169910000Y-115570000D02*
G75*
G03X169910000Y-115570000I-1000000J0D01*
G01*
X167710000Y-113770000D02*
X170110000Y-113770000D01*
X167110000Y-114370000D02*
X167710000Y-113770000D01*
X167110000Y-116770000D02*
X167110000Y-114370000D01*
X167710000Y-117370000D02*
X167110000Y-116770000D01*
X170110000Y-117370000D02*
X167710000Y-117370000D01*
X170710000Y-116770000D02*
X170110000Y-117370000D01*
X170710000Y-114370000D02*
X170710000Y-116770000D01*
X170110000Y-113770000D02*
X170710000Y-114370000D01*
X167460000Y-112870000D02*
X170360000Y-112870000D01*
X167010000Y-113320000D02*
X167460000Y-112870000D01*
X166210000Y-116570000D02*
X166210000Y-114570000D01*
X167460000Y-118270000D02*
X167010000Y-117820000D01*
X170360000Y-118270000D02*
X167460000Y-118270000D01*
X170810000Y-117820000D02*
X170360000Y-118270000D01*
X171610000Y-114570000D02*
X171610000Y-116570000D01*
X170360000Y-112870000D02*
X170810000Y-113320000D01*
X178800000Y-115570000D02*
G75*
G03X178800000Y-115570000I-1000000J0D01*
G01*
X176600000Y-113770000D02*
X179000000Y-113770000D01*
X176000000Y-114370000D02*
X176600000Y-113770000D01*
X176000000Y-116770000D02*
X176000000Y-114370000D01*
X176600000Y-117370000D02*
X176000000Y-116770000D01*
X179000000Y-117370000D02*
X176600000Y-117370000D01*
X179600000Y-116770000D02*
X179000000Y-117370000D01*
X179600000Y-114370000D02*
X179600000Y-116770000D01*
X179000000Y-113770000D02*
X179600000Y-114370000D01*
X176350000Y-112870000D02*
X179250000Y-112870000D01*
X175900000Y-113320000D02*
X176350000Y-112870000D01*
X175100000Y-116570000D02*
X175100000Y-114570000D01*
X176350000Y-118270000D02*
X175900000Y-117820000D01*
X179250000Y-118270000D02*
X176350000Y-118270000D01*
X179700000Y-117820000D02*
X179250000Y-118270000D01*
X180500000Y-114570000D02*
X180500000Y-116570000D01*
X179250000Y-112870000D02*
X179700000Y-113320000D01*
X169910000Y-109347000D02*
G75*
G03X169910000Y-109347000I-1000000J0D01*
G01*
X170110000Y-111147000D02*
X167710000Y-111147000D01*
X170710000Y-110547000D02*
X170110000Y-111147000D01*
X170710000Y-108147000D02*
X170710000Y-110547000D01*
X170110000Y-107547000D02*
X170710000Y-108147000D01*
X167710000Y-107547000D02*
X170110000Y-107547000D01*
X167110000Y-108147000D02*
X167710000Y-107547000D01*
X167110000Y-110547000D02*
X167110000Y-108147000D01*
X167710000Y-111147000D02*
X167110000Y-110547000D01*
X170360000Y-112047000D02*
X167460000Y-112047000D01*
X170810000Y-111597000D02*
X170360000Y-112047000D01*
X171610000Y-108347000D02*
X171610000Y-110347000D01*
X170360000Y-106647000D02*
X170810000Y-107097000D01*
X167460000Y-106647000D02*
X170360000Y-106647000D01*
X167010000Y-107097000D02*
X167460000Y-106647000D01*
X166210000Y-110347000D02*
X166210000Y-108347000D01*
X167460000Y-112047000D02*
X167010000Y-111597000D01*
X158880000Y-108650000D02*
X156080000Y-108650000D01*
X156080000Y-108650000D02*
X156080000Y-107250000D01*
X156080000Y-107250000D02*
X158880000Y-107250000D01*
X158880000Y-107250000D02*
X158880000Y-108650000D01*
X154480000Y-109700000D02*
X154480000Y-109050000D01*
X154480000Y-106200000D02*
X154480000Y-106850000D01*
X160480000Y-106850000D02*
X160480000Y-106200000D01*
X160480000Y-109700000D02*
X160480000Y-109050000D01*
X154480000Y-109700000D02*
X160480000Y-109700000D01*
X160480000Y-106200000D02*
X154480000Y-106200000D01*
X178940000Y-107250000D02*
X181740000Y-107250000D01*
X181740000Y-107250000D02*
X181740000Y-108650000D01*
X181740000Y-108650000D02*
X178940000Y-108650000D01*
X178940000Y-108650000D02*
X178940000Y-107250000D01*
X183340000Y-106200000D02*
X183340000Y-106850000D01*
X183340000Y-109700000D02*
X183340000Y-109050000D01*
X177340000Y-109050000D02*
X177340000Y-109700000D01*
X177340000Y-106200000D02*
X177340000Y-106850000D01*
X183340000Y-106200000D02*
X177340000Y-106200000D01*
X177340000Y-109700000D02*
X183340000Y-109700000D01*
X158620000Y-128332000D02*
X161420000Y-128332000D01*
X161420000Y-128332000D02*
X161420000Y-129732000D01*
X161420000Y-129732000D02*
X158620000Y-129732000D01*
X158620000Y-129732000D02*
X158620000Y-128332000D01*
X163020000Y-127282000D02*
X163020000Y-127932000D01*
X163020000Y-130782000D02*
X163020000Y-130132000D01*
X157020000Y-130132000D02*
X157020000Y-130782000D01*
X157020000Y-127282000D02*
X157020000Y-127932000D01*
X163020000Y-127282000D02*
X157020000Y-127282000D01*
X157020000Y-130782000D02*
X163020000Y-130782000D01*
X176400000Y-128332000D02*
X179200000Y-128332000D01*
X179200000Y-128332000D02*
X179200000Y-129732000D01*
X179200000Y-129732000D02*
X176400000Y-129732000D01*
X176400000Y-129732000D02*
X176400000Y-128332000D01*
X180800000Y-127282000D02*
X180800000Y-127932000D01*
X180800000Y-130782000D02*
X180800000Y-130132000D01*
X174800000Y-130132000D02*
X174800000Y-130782000D01*
X174800000Y-127282000D02*
X174800000Y-127932000D01*
X180800000Y-127282000D02*
X174800000Y-127282000D01*
X174800000Y-130782000D02*
X180800000Y-130782000D01*
X156080000Y-160590000D02*
X158880000Y-160590000D01*
X158880000Y-160590000D02*
X158880000Y-161990000D01*
X158880000Y-161990000D02*
X156080000Y-161990000D01*
X156080000Y-161990000D02*
X156080000Y-160590000D01*
X160480000Y-159540000D02*
X160480000Y-160190000D01*
X160480000Y-163040000D02*
X160480000Y-162390000D01*
X154480000Y-162390000D02*
X154480000Y-163040000D01*
X154480000Y-159540000D02*
X154480000Y-160190000D01*
X160480000Y-159540000D02*
X154480000Y-159540000D01*
X154480000Y-163040000D02*
X160480000Y-163040000D01*
X178940000Y-160590000D02*
X181740000Y-160590000D01*
X181740000Y-160590000D02*
X181740000Y-161990000D01*
X181740000Y-161990000D02*
X178940000Y-161990000D01*
X178940000Y-161990000D02*
X178940000Y-160590000D01*
X183340000Y-159540000D02*
X183340000Y-160190000D01*
X183340000Y-163040000D02*
X183340000Y-162390000D01*
X177340000Y-162390000D02*
X177340000Y-163040000D01*
X177340000Y-159540000D02*
X177340000Y-160190000D01*
X183340000Y-159540000D02*
X177340000Y-159540000D01*
X177340000Y-163040000D02*
X183340000Y-163040000D01*
X156080000Y-122236000D02*
X158880000Y-122236000D01*
X158880000Y-122236000D02*
X158880000Y-123636000D01*
X158880000Y-123636000D02*
X156080000Y-123636000D01*
X156080000Y-123636000D02*
X156080000Y-122236000D01*
X160480000Y-121186000D02*
X160480000Y-121836000D01*
X160480000Y-124686000D02*
X160480000Y-124036000D01*
X154480000Y-124036000D02*
X154480000Y-124686000D01*
X154480000Y-121186000D02*
X154480000Y-121836000D01*
X160480000Y-121186000D02*
X154480000Y-121186000D01*
X154480000Y-124686000D02*
X160480000Y-124686000D01*
X178940000Y-122236000D02*
X181740000Y-122236000D01*
X181740000Y-122236000D02*
X181740000Y-123636000D01*
X181740000Y-123636000D02*
X178940000Y-123636000D01*
X178940000Y-123636000D02*
X178940000Y-122236000D01*
X183340000Y-121186000D02*
X183340000Y-121836000D01*
X183340000Y-124686000D02*
X183340000Y-124036000D01*
X177340000Y-124036000D02*
X177340000Y-124686000D01*
X177340000Y-121186000D02*
X177340000Y-121836000D01*
X183340000Y-121186000D02*
X177340000Y-121186000D01*
X177340000Y-124686000D02*
X183340000Y-124686000D01*
X185501100Y-165003600D02*
G75*
G03X188501100Y-162003600I0J3000000D01*
G01*
X148501100Y-162003600D02*
G75*
G03X151501100Y-165003600I3000000J0D01*
G01*
X173501100Y-163003600D02*
G75*
G03X163501100Y-163003600I-5000000J0D01*
G01*
X185501100Y-165003600D02*
X173501100Y-165003600D01*
X173501100Y-165003600D02*
X173501100Y-163003600D01*
X151501100Y-165003600D02*
X163501100Y-165003600D01*
X163501100Y-165003600D02*
X163501100Y-163003600D01*
X148501100Y-105003600D02*
X148501100Y-162003600D01*
X148501100Y-105003600D02*
X188501100Y-105003600D01*
X188501100Y-105003600D02*
X188501100Y-162003600D01*
D13*
G36*
X187606214Y-130329214D02*
X184122785Y-130329214D01*
X184122785Y-129186214D01*
X184177214Y-129186214D01*
X184177214Y-129718405D01*
X184177611Y-129853891D01*
X184178735Y-129977480D01*
X184180482Y-130084551D01*
X184182749Y-130170481D01*
X184185435Y-130230649D01*
X184188436Y-130260434D01*
X184189309Y-130262690D01*
X184209861Y-130265760D01*
X184262076Y-130268544D01*
X184341334Y-130270938D01*
X184443012Y-130272839D01*
X184562488Y-130274145D01*
X184695142Y-130274754D01*
X184733595Y-130274785D01*
X185265785Y-130274785D01*
X185265785Y-129186214D01*
X185320214Y-129186214D01*
X185320214Y-130274785D01*
X186408786Y-130274785D01*
X186408786Y-129186214D01*
X186463214Y-129186214D01*
X186463214Y-130275325D01*
X187002964Y-130270520D01*
X187542714Y-130265714D01*
X187547520Y-129725964D01*
X187552325Y-129186214D01*
X186463214Y-129186214D01*
X186408786Y-129186214D01*
X185320214Y-129186214D01*
X185265785Y-129186214D01*
X184177214Y-129186214D01*
X184122785Y-129186214D01*
X184122785Y-128043214D01*
X184177214Y-128043214D01*
X184177214Y-129131786D01*
X185265785Y-129131786D01*
X185265785Y-128043214D01*
X185320214Y-128043214D01*
X185320214Y-129131786D01*
X186408786Y-129131786D01*
X186408786Y-128043214D01*
X186463214Y-128043214D01*
X186463214Y-129131786D01*
X187551785Y-129131786D01*
X187551785Y-128043214D01*
X186463214Y-128043214D01*
X186408786Y-128043214D01*
X185320214Y-128043214D01*
X185265785Y-128043214D01*
X184177214Y-128043214D01*
X184122785Y-128043214D01*
X184122785Y-127988785D01*
X184176674Y-127988785D01*
X185265785Y-127988785D01*
X185265785Y-126900214D01*
X185320214Y-126900214D01*
X185320214Y-127988785D01*
X186408786Y-127988785D01*
X186463214Y-127988785D01*
X187552325Y-127988785D01*
X187547520Y-127449035D01*
X187542714Y-126909286D01*
X186463214Y-126899674D01*
X186463214Y-127988785D01*
X186408786Y-127988785D01*
X186408786Y-126900214D01*
X185320214Y-126900214D01*
X185265785Y-126900214D01*
X185265785Y-126899674D01*
X184726035Y-126904480D01*
X184186286Y-126909286D01*
X184181480Y-127449035D01*
X184176674Y-127988785D01*
X184122785Y-127988785D01*
X184122785Y-126845785D01*
X187606214Y-126845785D01*
X187606214Y-130329214D01*
X187606214Y-130329214D01*
G37*
X187606214Y-130329214D02*
X184122785Y-130329214D01*
X184122785Y-129186214D01*
X184177214Y-129186214D01*
X184177214Y-129718405D01*
X184177611Y-129853891D01*
X184178735Y-129977480D01*
X184180482Y-130084551D01*
X184182749Y-130170481D01*
X184185435Y-130230649D01*
X184188436Y-130260434D01*
X184189309Y-130262690D01*
X184209861Y-130265760D01*
X184262076Y-130268544D01*
X184341334Y-130270938D01*
X184443012Y-130272839D01*
X184562488Y-130274145D01*
X184695142Y-130274754D01*
X184733595Y-130274785D01*
X185265785Y-130274785D01*
X185265785Y-129186214D01*
X185320214Y-129186214D01*
X185320214Y-130274785D01*
X186408786Y-130274785D01*
X186408786Y-129186214D01*
X186463214Y-129186214D01*
X186463214Y-130275325D01*
X187002964Y-130270520D01*
X187542714Y-130265714D01*
X187547520Y-129725964D01*
X187552325Y-129186214D01*
X186463214Y-129186214D01*
X186408786Y-129186214D01*
X185320214Y-129186214D01*
X185265785Y-129186214D01*
X184177214Y-129186214D01*
X184122785Y-129186214D01*
X184122785Y-128043214D01*
X184177214Y-128043214D01*
X184177214Y-129131786D01*
X185265785Y-129131786D01*
X185265785Y-128043214D01*
X185320214Y-128043214D01*
X185320214Y-129131786D01*
X186408786Y-129131786D01*
X186408786Y-128043214D01*
X186463214Y-128043214D01*
X186463214Y-129131786D01*
X187551785Y-129131786D01*
X187551785Y-128043214D01*
X186463214Y-128043214D01*
X186408786Y-128043214D01*
X185320214Y-128043214D01*
X185265785Y-128043214D01*
X184177214Y-128043214D01*
X184122785Y-128043214D01*
X184122785Y-127988785D01*
X184176674Y-127988785D01*
X185265785Y-127988785D01*
X185265785Y-126900214D01*
X185320214Y-126900214D01*
X185320214Y-127988785D01*
X186408786Y-127988785D01*
X186463214Y-127988785D01*
X187552325Y-127988785D01*
X187547520Y-127449035D01*
X187542714Y-126909286D01*
X186463214Y-126899674D01*
X186463214Y-127988785D01*
X186408786Y-127988785D01*
X186408786Y-126900214D01*
X185320214Y-126900214D01*
X185265785Y-126900214D01*
X185265785Y-126899674D01*
X184726035Y-126904480D01*
X184186286Y-126909286D01*
X184181480Y-127449035D01*
X184176674Y-127988785D01*
X184122785Y-127988785D01*
X184122785Y-126845785D01*
X187606214Y-126845785D01*
X187606214Y-130329214D01*
G36*
X184795908Y-129282162D02*
X184873609Y-129298992D01*
X184943148Y-129333002D01*
X185016508Y-129390275D01*
X185083488Y-129460610D01*
X185133884Y-129533804D01*
X185153007Y-129578390D01*
X185174640Y-129709906D01*
X185162152Y-129835213D01*
X185117455Y-129949787D01*
X185042457Y-130049104D01*
X184939069Y-130128639D01*
X184915180Y-130141760D01*
X184842049Y-130165727D01*
X184749959Y-130176655D01*
X184654009Y-130174022D01*
X184569298Y-130157308D01*
X184559766Y-130154025D01*
X184467270Y-130103125D01*
X184384102Y-130026192D01*
X184320015Y-129933476D01*
X184295281Y-129876060D01*
X184271016Y-129752454D01*
X184279143Y-129635391D01*
X184315871Y-129528652D01*
X184377411Y-129436019D01*
X184459974Y-129361272D01*
X184559771Y-129308193D01*
X184673012Y-129280563D01*
X184795908Y-129282162D01*
X184795908Y-129282162D01*
G37*
X184795908Y-129282162D02*
X184873609Y-129298992D01*
X184943148Y-129333002D01*
X185016508Y-129390275D01*
X185083488Y-129460610D01*
X185133884Y-129533804D01*
X185153007Y-129578390D01*
X185174640Y-129709906D01*
X185162152Y-129835213D01*
X185117455Y-129949787D01*
X185042457Y-130049104D01*
X184939069Y-130128639D01*
X184915180Y-130141760D01*
X184842049Y-130165727D01*
X184749959Y-130176655D01*
X184654009Y-130174022D01*
X184569298Y-130157308D01*
X184559766Y-130154025D01*
X184467270Y-130103125D01*
X184384102Y-130026192D01*
X184320015Y-129933476D01*
X184295281Y-129876060D01*
X184271016Y-129752454D01*
X184279143Y-129635391D01*
X184315871Y-129528652D01*
X184377411Y-129436019D01*
X184459974Y-129361272D01*
X184559771Y-129308193D01*
X184673012Y-129280563D01*
X184795908Y-129282162D01*
G36*
X185963484Y-129288845D02*
X186055132Y-129319588D01*
X186159464Y-129385663D01*
X186237112Y-129470586D01*
X186288365Y-129568934D01*
X186313512Y-129675280D01*
X186312839Y-129784202D01*
X186286637Y-129890274D01*
X186235193Y-129988071D01*
X186158795Y-130072171D01*
X186057731Y-130137146D01*
X186010651Y-130156501D01*
X185890202Y-130180742D01*
X185768014Y-130171699D01*
X185711932Y-130155528D01*
X185602022Y-130097708D01*
X185515742Y-130016960D01*
X185454571Y-129919095D01*
X185419987Y-129809925D01*
X185413468Y-129695261D01*
X185436494Y-129580915D01*
X185490542Y-129472698D01*
X185526418Y-129426360D01*
X185617063Y-129349323D01*
X185725367Y-129299666D01*
X185843462Y-129278977D01*
X185963484Y-129288845D01*
X185963484Y-129288845D01*
G37*
X185963484Y-129288845D02*
X186055132Y-129319588D01*
X186159464Y-129385663D01*
X186237112Y-129470586D01*
X186288365Y-129568934D01*
X186313512Y-129675280D01*
X186312839Y-129784202D01*
X186286637Y-129890274D01*
X186235193Y-129988071D01*
X186158795Y-130072171D01*
X186057731Y-130137146D01*
X186010651Y-130156501D01*
X185890202Y-130180742D01*
X185768014Y-130171699D01*
X185711932Y-130155528D01*
X185602022Y-130097708D01*
X185515742Y-130016960D01*
X185454571Y-129919095D01*
X185419987Y-129809925D01*
X185413468Y-129695261D01*
X185436494Y-129580915D01*
X185490542Y-129472698D01*
X185526418Y-129426360D01*
X185617063Y-129349323D01*
X185725367Y-129299666D01*
X185843462Y-129278977D01*
X185963484Y-129288845D01*
G36*
X187106096Y-129288484D02*
X187217198Y-129328584D01*
X187312608Y-129394943D01*
X187387685Y-129484579D01*
X187437787Y-129594510D01*
X187455804Y-129684703D01*
X187451766Y-129806088D01*
X187416963Y-129916885D01*
X187356191Y-130013315D01*
X187274248Y-130091601D01*
X187175931Y-130147964D01*
X187066036Y-130178627D01*
X186949361Y-130179810D01*
X186855599Y-130157434D01*
X186746324Y-130100463D01*
X186659164Y-130018397D01*
X186596798Y-129916782D01*
X186561902Y-129801165D01*
X186557155Y-129677091D01*
X186575992Y-129578390D01*
X186610002Y-129508851D01*
X186667275Y-129435491D01*
X186737610Y-129368512D01*
X186810804Y-129318116D01*
X186855390Y-129298992D01*
X186983946Y-129277626D01*
X187106096Y-129288484D01*
X187106096Y-129288484D01*
G37*
X187106096Y-129288484D02*
X187217198Y-129328584D01*
X187312608Y-129394943D01*
X187387685Y-129484579D01*
X187437787Y-129594510D01*
X187455804Y-129684703D01*
X187451766Y-129806088D01*
X187416963Y-129916885D01*
X187356191Y-130013315D01*
X187274248Y-130091601D01*
X187175931Y-130147964D01*
X187066036Y-130178627D01*
X186949361Y-130179810D01*
X186855599Y-130157434D01*
X186746324Y-130100463D01*
X186659164Y-130018397D01*
X186596798Y-129916782D01*
X186561902Y-129801165D01*
X186557155Y-129677091D01*
X186575992Y-129578390D01*
X186610002Y-129508851D01*
X186667275Y-129435491D01*
X186737610Y-129368512D01*
X186810804Y-129318116D01*
X186855390Y-129298992D01*
X186983946Y-129277626D01*
X187106096Y-129288484D01*
G36*
X187043909Y-128138771D02*
X187166220Y-128166020D01*
X187270164Y-128220645D01*
X187353534Y-128297535D01*
X187414121Y-128391576D01*
X187449720Y-128497658D01*
X187458122Y-128610667D01*
X187437121Y-128725491D01*
X187384509Y-128837019D01*
X187360315Y-128871599D01*
X187278676Y-128950281D01*
X187176653Y-129005230D01*
X187062952Y-129034404D01*
X186946274Y-129035763D01*
X186835325Y-129007267D01*
X186817000Y-128998987D01*
X186712382Y-128931513D01*
X186635437Y-128847666D01*
X186584916Y-128752175D01*
X186559572Y-128649774D01*
X186558158Y-128545191D01*
X186579424Y-128443158D01*
X186622124Y-128348406D01*
X186685008Y-128265666D01*
X186766830Y-128199669D01*
X186866342Y-128155144D01*
X186982295Y-128136824D01*
X187043909Y-128138771D01*
X187043909Y-128138771D01*
G37*
X187043909Y-128138771D02*
X187166220Y-128166020D01*
X187270164Y-128220645D01*
X187353534Y-128297535D01*
X187414121Y-128391576D01*
X187449720Y-128497658D01*
X187458122Y-128610667D01*
X187437121Y-128725491D01*
X187384509Y-128837019D01*
X187360315Y-128871599D01*
X187278676Y-128950281D01*
X187176653Y-129005230D01*
X187062952Y-129034404D01*
X186946274Y-129035763D01*
X186835325Y-129007267D01*
X186817000Y-128998987D01*
X186712382Y-128931513D01*
X186635437Y-128847666D01*
X186584916Y-128752175D01*
X186559572Y-128649774D01*
X186558158Y-128545191D01*
X186579424Y-128443158D01*
X186622124Y-128348406D01*
X186685008Y-128265666D01*
X186766830Y-128199669D01*
X186866342Y-128155144D01*
X186982295Y-128136824D01*
X187043909Y-128138771D01*
G36*
X185942308Y-127000249D02*
X186057179Y-127035961D01*
X186156416Y-127099752D01*
X186235413Y-127187806D01*
X186289563Y-127296304D01*
X186313229Y-127408091D01*
X186308027Y-127530933D01*
X186272437Y-127641578D01*
X186211251Y-127736675D01*
X186129264Y-127812875D01*
X186031270Y-127866826D01*
X185922063Y-127895179D01*
X185806435Y-127894583D01*
X185689182Y-127861688D01*
X185674000Y-127854832D01*
X185569830Y-127788490D01*
X185492798Y-127704454D01*
X185442057Y-127607826D01*
X185416759Y-127503707D01*
X185416060Y-127397199D01*
X185439112Y-127293403D01*
X185485069Y-127197422D01*
X185553085Y-127114356D01*
X185642314Y-127049308D01*
X185751908Y-127007379D01*
X185816411Y-126996433D01*
X185942308Y-127000249D01*
X185942308Y-127000249D01*
G37*
X185942308Y-127000249D02*
X186057179Y-127035961D01*
X186156416Y-127099752D01*
X186235413Y-127187806D01*
X186289563Y-127296304D01*
X186313229Y-127408091D01*
X186308027Y-127530933D01*
X186272437Y-127641578D01*
X186211251Y-127736675D01*
X186129264Y-127812875D01*
X186031270Y-127866826D01*
X185922063Y-127895179D01*
X185806435Y-127894583D01*
X185689182Y-127861688D01*
X185674000Y-127854832D01*
X185569830Y-127788490D01*
X185492798Y-127704454D01*
X185442057Y-127607826D01*
X185416759Y-127503707D01*
X185416060Y-127397199D01*
X185439112Y-127293403D01*
X185485069Y-127197422D01*
X185553085Y-127114356D01*
X185642314Y-127049308D01*
X185751908Y-127007379D01*
X185816411Y-126996433D01*
X185942308Y-127000249D01*
D12*
X166806857Y-126055381D02*
X166806857Y-125055381D01*
X167044952Y-125055381D01*
X167187810Y-125103000D01*
X167283048Y-125198238D01*
X167330667Y-125293476D01*
X167378286Y-125483952D01*
X167378286Y-125626810D01*
X167330667Y-125817286D01*
X167283048Y-125912524D01*
X167187810Y-126007762D01*
X167044952Y-126055381D01*
X166806857Y-126055381D01*
X167997333Y-125055381D02*
X168187810Y-125055381D01*
X168283048Y-125103000D01*
X168378286Y-125198238D01*
X168425905Y-125388714D01*
X168425905Y-125722048D01*
X168378286Y-125912524D01*
X168283048Y-126007762D01*
X168187810Y-126055381D01*
X167997333Y-126055381D01*
X167902095Y-126007762D01*
X167806857Y-125912524D01*
X167759238Y-125722048D01*
X167759238Y-125388714D01*
X167806857Y-125198238D01*
X167902095Y-125103000D01*
X167997333Y-125055381D01*
X168759238Y-125055381D02*
X168997333Y-126055381D01*
X169187810Y-125341095D01*
X169378286Y-126055381D01*
X169616381Y-125055381D01*
X169997333Y-126055381D02*
X169997333Y-125055381D01*
X170568762Y-126055381D01*
X170568762Y-125055381D01*
X171568762Y-126055381D02*
X170997333Y-126055381D01*
X171283047Y-126055381D02*
X171283047Y-125055381D01*
X171187809Y-125198238D01*
X171092571Y-125293476D01*
X170997333Y-125341095D01*
X158591429Y-112422381D02*
X158115238Y-112422381D01*
X158115238Y-111422381D01*
X158924762Y-111898571D02*
X159258096Y-111898571D01*
X159400953Y-112422381D02*
X158924762Y-112422381D01*
X158924762Y-111422381D01*
X159400953Y-111422381D01*
X160162858Y-111898571D02*
X159829524Y-111898571D01*
X159829524Y-112422381D02*
X159829524Y-111422381D01*
X160305715Y-111422381D01*
X160543810Y-111422381D02*
X161115239Y-111422381D01*
X160829524Y-112422381D02*
X160829524Y-111422381D01*
X161972382Y-112422381D02*
X161400953Y-112422381D01*
X161686667Y-112422381D02*
X161686667Y-111422381D01*
X161591429Y-111565238D01*
X161496191Y-111660476D01*
X161400953Y-111708095D01*
X177808095Y-150522381D02*
X177808095Y-149522381D01*
X178379524Y-150522381D01*
X178379524Y-149522381D01*
X178808095Y-149855714D02*
X179522381Y-149855714D01*
X179093809Y-149427143D02*
X178808095Y-150712857D01*
X179427143Y-150284286D02*
X178712857Y-150284286D01*
X179141429Y-150712857D02*
X179427143Y-149427143D01*
X180379524Y-150522381D02*
X179808095Y-150522381D01*
X180093809Y-150522381D02*
X180093809Y-149522381D01*
X179998571Y-149665238D01*
X179903333Y-149760476D01*
X179808095Y-149808095D01*
X157607143Y-150566381D02*
X157607143Y-149566381D01*
X158178572Y-150566381D01*
X158178572Y-149566381D01*
X158797619Y-149566381D02*
X158797619Y-149804476D01*
X158559524Y-149709238D02*
X158797619Y-149804476D01*
X159035715Y-149709238D01*
X158654762Y-149994952D02*
X158797619Y-149804476D01*
X158940477Y-149994952D01*
X159940477Y-150566381D02*
X159369048Y-150566381D01*
X159654762Y-150566381D02*
X159654762Y-149566381D01*
X159559524Y-149709238D01*
X159464286Y-149804476D01*
X159369048Y-149852095D01*
X168148095Y-150522381D02*
X168148095Y-149522381D01*
X168719524Y-150522381D01*
X168719524Y-149522381D01*
X169386190Y-149522381D02*
X169481429Y-149522381D01*
X169576667Y-149570000D01*
X169624286Y-149617619D01*
X169671905Y-149712857D01*
X169719524Y-149903333D01*
X169719524Y-150141429D01*
X169671905Y-150331905D01*
X169624286Y-150427143D01*
X169576667Y-150474762D01*
X169481429Y-150522381D01*
X169386190Y-150522381D01*
X169290952Y-150474762D01*
X169243333Y-150427143D01*
X169195714Y-150331905D01*
X169148095Y-150141429D01*
X169148095Y-149903333D01*
X169195714Y-149712857D01*
X169243333Y-149617619D01*
X169290952Y-149570000D01*
X169386190Y-149522381D01*
X157988095Y-131472381D02*
X157988095Y-130472381D01*
X158559524Y-131472381D01*
X158559524Y-130472381D01*
X159559524Y-131472381D02*
X158988095Y-131472381D01*
X159273809Y-131472381D02*
X159273809Y-130472381D01*
X159178571Y-130615238D01*
X159083333Y-130710476D01*
X158988095Y-130758095D01*
X168148095Y-131472381D02*
X168148095Y-130472381D01*
X168719524Y-131472381D01*
X168719524Y-130472381D01*
X169148095Y-130567619D02*
X169195714Y-130520000D01*
X169290952Y-130472381D01*
X169529048Y-130472381D01*
X169624286Y-130520000D01*
X169671905Y-130567619D01*
X169719524Y-130662857D01*
X169719524Y-130758095D01*
X169671905Y-130900952D01*
X169100476Y-131472381D01*
X169719524Y-131472381D01*
X178308095Y-131472381D02*
X178308095Y-130472381D01*
X178879524Y-131472381D01*
X178879524Y-130472381D01*
X179260476Y-130472381D02*
X179879524Y-130472381D01*
X179546190Y-130853333D01*
X179689048Y-130853333D01*
X179784286Y-130900952D01*
X179831905Y-130948571D01*
X179879524Y-131043810D01*
X179879524Y-131281905D01*
X179831905Y-131377143D01*
X179784286Y-131424762D01*
X179689048Y-131472381D01*
X179403333Y-131472381D01*
X179308095Y-131424762D01*
X179260476Y-131377143D01*
X157988095Y-137822381D02*
X157988095Y-136822381D01*
X158559524Y-137822381D01*
X158559524Y-136822381D01*
X159464286Y-137155714D02*
X159464286Y-137822381D01*
X159226190Y-136774762D02*
X158988095Y-137489048D01*
X159607143Y-137489048D01*
X168148095Y-137822381D02*
X168148095Y-136822381D01*
X168719524Y-137822381D01*
X168719524Y-136822381D01*
X169671905Y-136822381D02*
X169195714Y-136822381D01*
X169148095Y-137298571D01*
X169195714Y-137250952D01*
X169290952Y-137203333D01*
X169529048Y-137203333D01*
X169624286Y-137250952D01*
X169671905Y-137298571D01*
X169719524Y-137393810D01*
X169719524Y-137631905D01*
X169671905Y-137727143D01*
X169624286Y-137774762D01*
X169529048Y-137822381D01*
X169290952Y-137822381D01*
X169195714Y-137774762D01*
X169148095Y-137727143D01*
X178308095Y-137822381D02*
X178308095Y-136822381D01*
X178879524Y-137822381D01*
X178879524Y-136822381D01*
X179784286Y-136822381D02*
X179593809Y-136822381D01*
X179498571Y-136870000D01*
X179450952Y-136917619D01*
X179355714Y-137060476D01*
X179308095Y-137250952D01*
X179308095Y-137631905D01*
X179355714Y-137727143D01*
X179403333Y-137774762D01*
X179498571Y-137822381D01*
X179689048Y-137822381D01*
X179784286Y-137774762D01*
X179831905Y-137727143D01*
X179879524Y-137631905D01*
X179879524Y-137393810D01*
X179831905Y-137298571D01*
X179784286Y-137250952D01*
X179689048Y-137203333D01*
X179498571Y-137203333D01*
X179403333Y-137250952D01*
X179355714Y-137298571D01*
X179308095Y-137393810D01*
X157988095Y-144152881D02*
X157988095Y-143152881D01*
X158559524Y-144152881D01*
X158559524Y-143152881D01*
X158940476Y-143152881D02*
X159607143Y-143152881D01*
X159178571Y-144152881D01*
X168148095Y-144172381D02*
X168148095Y-143172381D01*
X168719524Y-144172381D01*
X168719524Y-143172381D01*
X169338571Y-143600952D02*
X169243333Y-143553333D01*
X169195714Y-143505714D01*
X169148095Y-143410476D01*
X169148095Y-143362857D01*
X169195714Y-143267619D01*
X169243333Y-143220000D01*
X169338571Y-143172381D01*
X169529048Y-143172381D01*
X169624286Y-143220000D01*
X169671905Y-143267619D01*
X169719524Y-143362857D01*
X169719524Y-143410476D01*
X169671905Y-143505714D01*
X169624286Y-143553333D01*
X169529048Y-143600952D01*
X169338571Y-143600952D01*
X169243333Y-143648571D01*
X169195714Y-143696190D01*
X169148095Y-143791429D01*
X169148095Y-143981905D01*
X169195714Y-144077143D01*
X169243333Y-144124762D01*
X169338571Y-144172381D01*
X169529048Y-144172381D01*
X169624286Y-144124762D01*
X169671905Y-144077143D01*
X169719524Y-143981905D01*
X169719524Y-143791429D01*
X169671905Y-143696190D01*
X169624286Y-143648571D01*
X169529048Y-143600952D01*
X178308095Y-144172381D02*
X178308095Y-143172381D01*
X178879524Y-144172381D01*
X178879524Y-143172381D01*
X179403333Y-144172381D02*
X179593809Y-144172381D01*
X179689048Y-144124762D01*
X179736667Y-144077143D01*
X179831905Y-143934286D01*
X179879524Y-143743810D01*
X179879524Y-143362857D01*
X179831905Y-143267619D01*
X179784286Y-143220000D01*
X179689048Y-143172381D01*
X179498571Y-143172381D01*
X179403333Y-143220000D01*
X179355714Y-143267619D01*
X179308095Y-143362857D01*
X179308095Y-143600952D01*
X179355714Y-143696190D01*
X179403333Y-143743810D01*
X179498571Y-143791429D01*
X179689048Y-143791429D01*
X179784286Y-143743810D01*
X179831905Y-143696190D01*
X179879524Y-143600952D01*
X167838571Y-115022381D02*
X168029048Y-115022381D01*
X168124286Y-115070000D01*
X168219524Y-115165238D01*
X168267143Y-115355714D01*
X168267143Y-115689048D01*
X168219524Y-115879524D01*
X168124286Y-115974762D01*
X168029048Y-116022381D01*
X167838571Y-116022381D01*
X167743333Y-115974762D01*
X167648095Y-115879524D01*
X167600476Y-115689048D01*
X167600476Y-115355714D01*
X167648095Y-115165238D01*
X167743333Y-115070000D01*
X167838571Y-115022381D01*
X168695714Y-116022381D02*
X168695714Y-115022381D01*
X169267143Y-116022381D02*
X168838571Y-115450952D01*
X169267143Y-115022381D02*
X168695714Y-115593810D01*
X170219524Y-116022381D02*
X169648095Y-116022381D01*
X169933809Y-116022381D02*
X169933809Y-115022381D01*
X169838571Y-115165238D01*
X169743333Y-115260476D01*
X169648095Y-115308095D01*
X175990477Y-112422381D02*
X175657143Y-111946190D01*
X175419048Y-112422381D02*
X175419048Y-111422381D01*
X175800001Y-111422381D01*
X175895239Y-111470000D01*
X175942858Y-111517619D01*
X175990477Y-111612857D01*
X175990477Y-111755714D01*
X175942858Y-111850952D01*
X175895239Y-111898571D01*
X175800001Y-111946190D01*
X175419048Y-111946190D01*
X176419048Y-112422381D02*
X176419048Y-111422381D01*
X177419048Y-111470000D02*
X177323810Y-111422381D01*
X177180953Y-111422381D01*
X177038095Y-111470000D01*
X176942857Y-111565238D01*
X176895238Y-111660476D01*
X176847619Y-111850952D01*
X176847619Y-111993810D01*
X176895238Y-112184286D01*
X176942857Y-112279524D01*
X177038095Y-112374762D01*
X177180953Y-112422381D01*
X177276191Y-112422381D01*
X177419048Y-112374762D01*
X177466667Y-112327143D01*
X177466667Y-111993810D01*
X177276191Y-111993810D01*
X177895238Y-112422381D02*
X177895238Y-111422381D01*
X177895238Y-111898571D02*
X178466667Y-111898571D01*
X178466667Y-112422381D02*
X178466667Y-111422381D01*
X178800000Y-111422381D02*
X179371429Y-111422381D01*
X179085714Y-112422381D02*
X179085714Y-111422381D01*
X180228572Y-112422381D02*
X179657143Y-112422381D01*
X179942857Y-112422381D02*
X179942857Y-111422381D01*
X179847619Y-111565238D01*
X179752381Y-111660476D01*
X179657143Y-111708095D01*
X167648095Y-105243381D02*
X167648095Y-106052905D01*
X167695714Y-106148143D01*
X167743333Y-106195762D01*
X167838571Y-106243381D01*
X168029048Y-106243381D01*
X168124286Y-106195762D01*
X168171905Y-106148143D01*
X168219524Y-106052905D01*
X168219524Y-105243381D01*
X168695714Y-106243381D02*
X168695714Y-105243381D01*
X169076667Y-105243381D01*
X169171905Y-105291000D01*
X169219524Y-105338619D01*
X169267143Y-105433857D01*
X169267143Y-105576714D01*
X169219524Y-105671952D01*
X169171905Y-105719571D01*
X169076667Y-105767190D01*
X168695714Y-105767190D01*
X170219524Y-106243381D02*
X169648095Y-106243381D01*
X169933809Y-106243381D02*
X169933809Y-105243381D01*
X169838571Y-105386238D01*
X169743333Y-105481476D01*
X169648095Y-105529095D01*
X152233334Y-106148143D02*
X152185715Y-106195762D01*
X152042858Y-106243381D01*
X151947620Y-106243381D01*
X151804762Y-106195762D01*
X151709524Y-106100524D01*
X151661905Y-106005286D01*
X151614286Y-105814810D01*
X151614286Y-105671952D01*
X151661905Y-105481476D01*
X151709524Y-105386238D01*
X151804762Y-105291000D01*
X151947620Y-105243381D01*
X152042858Y-105243381D01*
X152185715Y-105291000D01*
X152233334Y-105338619D01*
X153185715Y-106243381D02*
X152614286Y-106243381D01*
X152900000Y-106243381D02*
X152900000Y-105243381D01*
X152804762Y-105386238D01*
X152709524Y-105481476D01*
X152614286Y-105529095D01*
X185253334Y-106275143D02*
X185205715Y-106322762D01*
X185062858Y-106370381D01*
X184967620Y-106370381D01*
X184824762Y-106322762D01*
X184729524Y-106227524D01*
X184681905Y-106132286D01*
X184634286Y-105941810D01*
X184634286Y-105798952D01*
X184681905Y-105608476D01*
X184729524Y-105513238D01*
X184824762Y-105418000D01*
X184967620Y-105370381D01*
X185062858Y-105370381D01*
X185205715Y-105418000D01*
X185253334Y-105465619D01*
X185634286Y-105465619D02*
X185681905Y-105418000D01*
X185777143Y-105370381D01*
X186015239Y-105370381D01*
X186110477Y-105418000D01*
X186158096Y-105465619D01*
X186205715Y-105560857D01*
X186205715Y-105656095D01*
X186158096Y-105798952D01*
X185586667Y-106370381D01*
X186205715Y-106370381D01*
X159853334Y-126976143D02*
X159805715Y-127023762D01*
X159662858Y-127071381D01*
X159567620Y-127071381D01*
X159424762Y-127023762D01*
X159329524Y-126928524D01*
X159281905Y-126833286D01*
X159234286Y-126642810D01*
X159234286Y-126499952D01*
X159281905Y-126309476D01*
X159329524Y-126214238D01*
X159424762Y-126119000D01*
X159567620Y-126071381D01*
X159662858Y-126071381D01*
X159805715Y-126119000D01*
X159853334Y-126166619D01*
X160186667Y-126071381D02*
X160805715Y-126071381D01*
X160472381Y-126452333D01*
X160615239Y-126452333D01*
X160710477Y-126499952D01*
X160758096Y-126547571D01*
X160805715Y-126642810D01*
X160805715Y-126880905D01*
X160758096Y-126976143D01*
X160710477Y-127023762D01*
X160615239Y-127071381D01*
X160329524Y-127071381D01*
X160234286Y-127023762D01*
X160186667Y-126976143D01*
X177506334Y-126849143D02*
X177458715Y-126896762D01*
X177315858Y-126944381D01*
X177220620Y-126944381D01*
X177077762Y-126896762D01*
X176982524Y-126801524D01*
X176934905Y-126706286D01*
X176887286Y-126515810D01*
X176887286Y-126372952D01*
X176934905Y-126182476D01*
X176982524Y-126087238D01*
X177077762Y-125992000D01*
X177220620Y-125944381D01*
X177315858Y-125944381D01*
X177458715Y-125992000D01*
X177506334Y-126039619D01*
X178363477Y-126277714D02*
X178363477Y-126944381D01*
X178125381Y-125896762D02*
X177887286Y-126611048D01*
X178506334Y-126611048D01*
X157186334Y-158853143D02*
X157138715Y-158900762D01*
X156995858Y-158948381D01*
X156900620Y-158948381D01*
X156757762Y-158900762D01*
X156662524Y-158805524D01*
X156614905Y-158710286D01*
X156567286Y-158519810D01*
X156567286Y-158376952D01*
X156614905Y-158186476D01*
X156662524Y-158091238D01*
X156757762Y-157996000D01*
X156900620Y-157948381D01*
X156995858Y-157948381D01*
X157138715Y-157996000D01*
X157186334Y-158043619D01*
X158091096Y-157948381D02*
X157614905Y-157948381D01*
X157567286Y-158424571D01*
X157614905Y-158376952D01*
X157710143Y-158329333D01*
X157948239Y-158329333D01*
X158043477Y-158376952D01*
X158091096Y-158424571D01*
X158138715Y-158519810D01*
X158138715Y-158757905D01*
X158091096Y-158853143D01*
X158043477Y-158900762D01*
X157948239Y-158948381D01*
X157710143Y-158948381D01*
X157614905Y-158900762D01*
X157567286Y-158853143D01*
X180046334Y-158853143D02*
X179998715Y-158900762D01*
X179855858Y-158948381D01*
X179760620Y-158948381D01*
X179617762Y-158900762D01*
X179522524Y-158805524D01*
X179474905Y-158710286D01*
X179427286Y-158519810D01*
X179427286Y-158376952D01*
X179474905Y-158186476D01*
X179522524Y-158091238D01*
X179617762Y-157996000D01*
X179760620Y-157948381D01*
X179855858Y-157948381D01*
X179998715Y-157996000D01*
X180046334Y-158043619D01*
X180903477Y-157948381D02*
X180713000Y-157948381D01*
X180617762Y-157996000D01*
X180570143Y-158043619D01*
X180474905Y-158186476D01*
X180427286Y-158376952D01*
X180427286Y-158757905D01*
X180474905Y-158853143D01*
X180522524Y-158900762D01*
X180617762Y-158948381D01*
X180808239Y-158948381D01*
X180903477Y-158900762D01*
X180951096Y-158853143D01*
X180998715Y-158757905D01*
X180998715Y-158519810D01*
X180951096Y-158424571D01*
X180903477Y-158376952D01*
X180808239Y-158329333D01*
X180617762Y-158329333D01*
X180522524Y-158376952D01*
X180474905Y-158424571D01*
X180427286Y-158519810D01*
X155337143Y-119769000D02*
X155241905Y-119721381D01*
X155099048Y-119721381D01*
X154956190Y-119769000D01*
X154860952Y-119864238D01*
X154813333Y-119959476D01*
X154765714Y-120149952D01*
X154765714Y-120292810D01*
X154813333Y-120483286D01*
X154860952Y-120578524D01*
X154956190Y-120673762D01*
X155099048Y-120721381D01*
X155194286Y-120721381D01*
X155337143Y-120673762D01*
X155384762Y-120626143D01*
X155384762Y-120292810D01*
X155194286Y-120292810D01*
X156384762Y-120721381D02*
X156051428Y-120245190D01*
X155813333Y-120721381D02*
X155813333Y-119721381D01*
X156194286Y-119721381D01*
X156289524Y-119769000D01*
X156337143Y-119816619D01*
X156384762Y-119911857D01*
X156384762Y-120054714D01*
X156337143Y-120149952D01*
X156289524Y-120197571D01*
X156194286Y-120245190D01*
X155813333Y-120245190D01*
X156813333Y-120197571D02*
X157146667Y-120197571D01*
X157289524Y-120721381D02*
X156813333Y-120721381D01*
X156813333Y-119721381D01*
X157289524Y-119721381D01*
X157718095Y-120197571D02*
X158051429Y-120197571D01*
X158194286Y-120721381D02*
X157718095Y-120721381D01*
X157718095Y-119721381D01*
X158194286Y-119721381D01*
X158622857Y-120721381D02*
X158622857Y-119721381D01*
X159194286Y-120721381D01*
X159194286Y-119721381D01*
X160194286Y-120721381D02*
X159622857Y-120721381D01*
X159908571Y-120721381D02*
X159908571Y-119721381D01*
X159813333Y-119864238D01*
X159718095Y-119959476D01*
X159622857Y-120007095D01*
X179093953Y-120721381D02*
X178760619Y-120245190D01*
X178522524Y-120721381D02*
X178522524Y-119721381D01*
X178903477Y-119721381D01*
X178998715Y-119769000D01*
X179046334Y-119816619D01*
X179093953Y-119911857D01*
X179093953Y-120054714D01*
X179046334Y-120149952D01*
X178998715Y-120197571D01*
X178903477Y-120245190D01*
X178522524Y-120245190D01*
X179522524Y-120197571D02*
X179855858Y-120197571D01*
X179998715Y-120721381D02*
X179522524Y-120721381D01*
X179522524Y-119721381D01*
X179998715Y-119721381D01*
X180427286Y-120721381D02*
X180427286Y-119721381D01*
X180665381Y-119721381D01*
X180808239Y-119769000D01*
X180903477Y-119864238D01*
X180951096Y-119959476D01*
X180998715Y-120149952D01*
X180998715Y-120292810D01*
X180951096Y-120483286D01*
X180903477Y-120578524D01*
X180808239Y-120673762D01*
X180665381Y-120721381D01*
X180427286Y-120721381D01*
X181951096Y-120721381D02*
X181379667Y-120721381D01*
X181665381Y-120721381D02*
X181665381Y-119721381D01*
X181570143Y-119864238D01*
X181474905Y-119959476D01*
X181379667Y-120007095D01*
M02*
