M48
;DRILL file {KiCad 4.0.4-stable} date 01/23/17 22:53:40
;FORMAT={-:-/ absolute / metric / decimal}
FMAT,2
METRIC,TZ
T1C0.400
T2C0.762
T3C0.700
%
G90
G05
M71
T1
X155.575Y-122.936
X155.702Y-107.95
X155.702Y-162.179
X156.337Y-153.67
X156.845Y-132.77
X156.845Y-139.192
X156.972Y-122.936
X157.099Y-149.225
X157.099Y-155.52
X157.353Y-136.525
X157.988Y-129.032
X158.115Y-139.192
X158.115Y-160.528
X158.369Y-113.72
X158.496Y-151.765
X159.131Y-122.174
X159.131Y-153.67
X159.385Y-130.429
X159.639Y-161.163
X159.766Y-122.936
X159.893Y-151.13
X160.274Y-136.47
X160.274Y-142.875
X160.401Y-145.542
X161.798Y-117.42
X162.306Y-129.032
X163.322Y-107.95
X167.132Y-149.225
X167.259Y-113.792
X167.259Y-119.943
X167.259Y-132.842
X167.259Y-136.525
X167.259Y-142.875
X167.259Y-155.575
X167.386Y-123.571
X170.434Y-139.065
X170.434Y-151.892
X170.561Y-111.197
X170.561Y-113.665
X170.561Y-119.943
X170.561Y-145.47
X175.514Y-129.032
X176.149Y-113.792
X177.165Y-132.77
X177.673Y-145.415
X177.673Y-147.193
X177.673Y-153.543
X177.673Y-161.036
X177.927Y-107.95
X177.927Y-122.936
X179.07Y-138.43
X179.451Y-117.42
X179.451Y-161.29
X179.705Y-155.575
X180.086Y-129.032
X180.467Y-136.525
X180.467Y-149.098
X180.594Y-151.765
X180.594Y-160.147
X180.721Y-139.065
X180.848Y-132.77
X180.975Y-147.066
X180.975Y-153.543
X182.372Y-123.063
X182.753Y-160.02
T2
X151.041Y-107.544
X151.041Y-110.084
X151.041Y-130.404
X151.041Y-132.944
X151.041Y-135.484
X151.041Y-155.804
X151.041Y-158.344
X151.041Y-160.884
X186.601Y-107.544
X186.601Y-110.084
X186.601Y-112.624
X186.601Y-115.164
X186.601Y-122.784
X186.601Y-143.104
X186.601Y-145.644
X186.601Y-148.184
X186.601Y-150.724
X186.601Y-153.264
T3
X149.214Y-115.062
X149.214Y-124.587
X149.214Y-151.003
X151.014Y-115.062
X151.014Y-124.587
X151.014Y-151.003
X180.213Y-162.549
X180.213Y-164.349
X186.044Y-158.623
X187.844Y-158.623
T0
M30
