G04 #@! TF.FileFunction,Soldermask,Bot*
%FSLAX46Y46*%
G04 Gerber Fmt 4.6, Leading zero omitted, Abs format (unit mm)*
G04 Created by KiCad (PCBNEW 4.0.4-stable) date 12/08/16 18:12:57*
%MOMM*%
%LPD*%
G01*
G04 APERTURE LIST*
%ADD10C,0.100000*%
%ADD11R,1.450000X1.800000*%
%ADD12C,1.100000*%
%ADD13R,1.800000X1.450000*%
%ADD14C,1.924000*%
G04 APERTURE END LIST*
D10*
D11*
X151093000Y-157712000D03*
X151093000Y-161312000D03*
X149643000Y-157712000D03*
X149643000Y-161312000D03*
D12*
X151268000Y-159512000D03*
X149468000Y-159512000D03*
D11*
X185965000Y-159280000D03*
X185965000Y-155680000D03*
X187415000Y-159280000D03*
X187415000Y-155680000D03*
D12*
X185790000Y-157480000D03*
X187590000Y-157480000D03*
D13*
X178540000Y-162470000D03*
X182140000Y-162470000D03*
X178540000Y-163920000D03*
X182140000Y-163920000D03*
D12*
X180340000Y-162295000D03*
X180340000Y-164095000D03*
D14*
X151041100Y-154533600D03*
X151041100Y-151993600D03*
X151041100Y-149453600D03*
X151041100Y-146913600D03*
X151041100Y-144373600D03*
X185331100Y-139293600D03*
X185331100Y-141833600D03*
X185331100Y-144373600D03*
X185331100Y-146913600D03*
X185331100Y-149453600D03*
X185331100Y-151993600D03*
X151041100Y-115163600D03*
X151041100Y-112623600D03*
D11*
X151093000Y-129264000D03*
X151093000Y-132864000D03*
X149643000Y-129264000D03*
X149643000Y-132864000D03*
D12*
X151268000Y-131064000D03*
X149468000Y-131064000D03*
D11*
X151093000Y-118596000D03*
X151093000Y-122196000D03*
X149643000Y-118596000D03*
X149643000Y-122196000D03*
D12*
X151268000Y-120396000D03*
X149468000Y-120396000D03*
M02*
