%TF.GenerationSoftware,KiCad,Pcbnew,4.0.4-stable*%
%TF.CreationDate,2017-03-25T04:02:18+02:00*%
%TF.ProjectId,front_prototype,66726F6E745F70726F746F747970652E,rev?*%
%TF.FileFunction,Soldermask,Top*%
%FSLAX46Y46*%
G04 Gerber Fmt 4.6, Leading zero omitted, Abs format (unit mm)*
G04 Created by KiCad (PCBNEW 4.0.4-stable) date 03/25/17 04:02:18*
%MOMM*%
%LPD*%
G01*
G04 APERTURE LIST*
%ADD10C,0.100000*%
%ADD11C,2.540000*%
%ADD12R,1.900000X1.700000*%
%ADD13R,2.127200X2.432000*%
%ADD14O,2.127200X2.432000*%
%ADD15R,2.100000X2.100000*%
%ADD16O,2.100000X2.100000*%
%ADD17C,2.800000*%
%ADD18R,2.800000X2.800000*%
%ADD19C,1.900000*%
%ADD20R,2.400000X1.400000*%
%ADD21R,1.650000X1.900000*%
%ADD22R,1.650000X2.400000*%
%ADD23R,1.500000X1.150000*%
%ADD24R,1.600000X1.150000*%
%ADD25R,1.900000X1.650000*%
%ADD26R,1.150000X1.600000*%
%ADD27R,1.600000X1.300000*%
%ADD28C,1.924000*%
%ADD29R,1.200000X2.300000*%
%ADD30R,1.200000X2.100000*%
%ADD31R,1.200000X1.700000*%
%ADD32C,1.700000*%
G04 APERTURE END LIST*
D10*
D11*
X46024800Y-137439400D03*
X78816200Y-137083800D03*
X70789800Y-41884600D03*
D12*
X67674500Y-124079000D03*
X70374500Y-124079000D03*
X67674500Y-122110500D03*
X70374500Y-122110500D03*
X66755000Y-91440000D03*
X64055000Y-91440000D03*
X66755000Y-93345000D03*
X64055000Y-93345000D03*
X66755000Y-95250000D03*
X64055000Y-95250000D03*
X66755000Y-97155000D03*
X64055000Y-97155000D03*
X66755000Y-99060000D03*
X64055000Y-99060000D03*
X66755000Y-100965000D03*
X64055000Y-100965000D03*
D13*
X53340000Y-73279000D03*
D14*
X55880000Y-73279000D03*
X58420000Y-73279000D03*
X60960000Y-73279000D03*
X63500000Y-73279000D03*
X66040000Y-73279000D03*
X68580000Y-73279000D03*
X71120000Y-73279000D03*
D15*
X77470000Y-56959500D03*
D16*
X74930000Y-56959500D03*
X72390000Y-56959500D03*
X69850000Y-56959500D03*
D15*
X77470000Y-67246500D03*
D16*
X74930000Y-67246500D03*
X72390000Y-67246500D03*
D17*
X63444000Y-136398000D03*
D18*
X59944000Y-136398000D03*
D19*
X53848000Y-114427000D03*
X53848000Y-119307000D03*
D15*
X44450000Y-54610000D03*
D16*
X44450000Y-52070000D03*
X44450000Y-49530000D03*
X44450000Y-46990000D03*
D20*
X54987800Y-44831000D03*
D21*
X63842900Y-118115400D03*
X63842900Y-115615400D03*
X50927000Y-66274000D03*
X50927000Y-63774000D03*
D22*
X79095600Y-48494000D03*
X79095600Y-45994000D03*
X72898000Y-45994000D03*
X72898000Y-48494000D03*
D23*
X77876400Y-50190400D03*
D24*
X79776400Y-50190400D03*
X74102000Y-50165000D03*
X72202000Y-50165000D03*
D25*
X59537600Y-121767600D03*
X57037600Y-121767600D03*
D26*
X45618400Y-59624000D03*
X45618400Y-57724000D03*
D24*
X45798700Y-56667400D03*
X47698700Y-56667400D03*
D26*
X47853600Y-57724000D03*
X47853600Y-59624000D03*
D15*
X53340000Y-46990000D03*
D16*
X55880000Y-46990000D03*
X58420000Y-46990000D03*
X60960000Y-46990000D03*
X63500000Y-46990000D03*
X66040000Y-46990000D03*
X68580000Y-46990000D03*
X71120000Y-46990000D03*
D15*
X44040000Y-114300000D03*
D16*
X44040000Y-116840000D03*
X44040000Y-119380000D03*
X44040000Y-121920000D03*
X44040000Y-124460000D03*
X44040000Y-127000000D03*
D15*
X54610000Y-49022000D03*
D16*
X57150000Y-49022000D03*
X59690000Y-49022000D03*
X62230000Y-49022000D03*
X64770000Y-49022000D03*
X67310000Y-49022000D03*
X69850000Y-49022000D03*
D11*
X44704000Y-43992800D03*
D27*
X74846000Y-46990000D03*
X77046000Y-46990000D03*
X74846000Y-45720000D03*
X77046000Y-45720000D03*
D28*
X72644000Y-83312000D03*
X75184000Y-83312000D03*
X72644000Y-85852000D03*
X75184000Y-85852000D03*
X72644000Y-88392000D03*
X75184000Y-88392000D03*
X72644000Y-90932000D03*
X75184000Y-90932000D03*
X72644000Y-93472000D03*
X75184000Y-93472000D03*
X72644000Y-96012000D03*
X75184000Y-96012000D03*
X72644000Y-98552000D03*
X75184000Y-98552000D03*
X72644000Y-101092000D03*
X75184000Y-101092000D03*
X72644000Y-103632000D03*
X75184000Y-103632000D03*
X72644000Y-106172000D03*
X75184000Y-106172000D03*
X72644000Y-108712000D03*
X75184000Y-108712000D03*
X72644000Y-111252000D03*
X75184000Y-111252000D03*
X72644000Y-113792000D03*
X75184000Y-113792000D03*
X72644000Y-116332000D03*
X75184000Y-116332000D03*
X72644000Y-118872000D03*
X75184000Y-118872000D03*
X72644000Y-121412000D03*
X75184000Y-121412000D03*
X72644000Y-123952000D03*
X75184000Y-123952000D03*
X72644000Y-126492000D03*
X75184000Y-126492000D03*
X72644000Y-129032000D03*
X75184000Y-129032000D03*
X72644000Y-131572000D03*
X75184000Y-131572000D03*
X70104000Y-129032000D03*
X70104000Y-131572000D03*
X67564000Y-129032000D03*
X67564000Y-131572000D03*
X44040000Y-85080000D03*
X44040000Y-82540000D03*
X79600000Y-128260000D03*
X79600000Y-125720000D03*
X79600000Y-123180000D03*
X79600000Y-120640000D03*
X79600000Y-118100000D03*
X44040000Y-105400000D03*
X44040000Y-107940000D03*
X44040000Y-110480000D03*
X44040000Y-130800000D03*
X44040000Y-133340000D03*
X44040000Y-135880000D03*
X79600000Y-82540000D03*
X79600000Y-85080000D03*
X79600000Y-87620000D03*
X79600000Y-90160000D03*
X79600000Y-97780000D03*
D29*
X76266000Y-62436000D03*
X78166000Y-62436000D03*
X77216000Y-59436000D03*
X72674400Y-62484000D03*
X74574400Y-62484000D03*
X73624400Y-59484000D03*
D30*
X75006200Y-44170600D03*
X76906200Y-44170600D03*
D31*
X75956200Y-41040000D03*
D32*
X75946000Y-42578000D03*
D19*
X73196000Y-52078000D03*
X78696000Y-52078000D03*
X75946000Y-52578000D03*
X72696000Y-43878000D03*
X79196000Y-43878000D03*
D32*
X75946000Y-49578000D03*
M02*
