%TF.GenerationSoftware,KiCad,Pcbnew,4.0.4-stable*%
%TF.CreationDate,2017-01-23T20:12:27+02:00*%
%TF.ProjectId,front_prototype,66726F6E745F70726F746F747970652E,rev?*%
%TF.FileFunction,Legend,Bot*%
%FSLAX46Y46*%
G04 Gerber Fmt 4.6, Leading zero omitted, Abs format (unit mm)*
G04 Created by KiCad (PCBNEW 4.0.4-stable) date 01/23/17 20:12:27*
%MOMM*%
%LPD*%
G01*
G04 APERTURE LIST*
%ADD10C,0.100000*%
%ADD11C,0.120000*%
%ADD12C,0.150000*%
%ADD13C,0.152400*%
G04 APERTURE END LIST*
D10*
D11*
X44140000Y-68582000D02*
X45070000Y-68582000D01*
X47300000Y-68582000D02*
X46370000Y-68582000D01*
X47300000Y-68582000D02*
X47300000Y-71742000D01*
X44140000Y-68582000D02*
X44140000Y-70042000D01*
D12*
X51029500Y-119562500D02*
X51029500Y-118562500D01*
X52729500Y-118562500D02*
X52729500Y-119562500D01*
X52729500Y-114244500D02*
X52729500Y-115244500D01*
X51029500Y-115244500D02*
X51029500Y-114244500D01*
X43548300Y-63394120D02*
X43548300Y-63244260D01*
X43548300Y-64242480D02*
X43548300Y-64443140D01*
X43548300Y-63394120D02*
X44297600Y-63394120D01*
X43548300Y-63394120D02*
X42847260Y-63394120D01*
X43548300Y-63394120D02*
X42847260Y-64242480D01*
X42847260Y-64242480D02*
X44249340Y-64242480D01*
X44249340Y-64242480D02*
X43548300Y-63394120D01*
X57271500Y-122941500D02*
X57271500Y-122716500D01*
X64521500Y-122941500D02*
X64521500Y-122616500D01*
X64521500Y-115691500D02*
X64521500Y-116016500D01*
X57271500Y-115691500D02*
X57271500Y-116016500D01*
X57271500Y-122941500D02*
X57596500Y-122941500D01*
X57271500Y-115691500D02*
X57596500Y-115691500D01*
X64521500Y-115691500D02*
X64196500Y-115691500D01*
X64521500Y-122941500D02*
X64196500Y-122941500D01*
X57271500Y-122716500D02*
X55846500Y-122716500D01*
X55459600Y-132095800D02*
X55459600Y-130895800D01*
X53709600Y-130895800D02*
X53709600Y-132095800D01*
X45685000Y-72785000D02*
X44485000Y-72785000D01*
X44485000Y-74535000D02*
X45685000Y-74535000D01*
X46447000Y-78373000D02*
X45247000Y-78373000D01*
X45247000Y-80123000D02*
X46447000Y-80123000D01*
X66333000Y-119372000D02*
X66333000Y-118372000D01*
X68033000Y-118372000D02*
X68033000Y-119372000D01*
X58000000Y-66302000D02*
X58000000Y-67302000D01*
X56300000Y-67302000D02*
X56300000Y-66302000D01*
X68238000Y-120642000D02*
X68238000Y-119642000D01*
X69938000Y-119642000D02*
X69938000Y-120642000D01*
D13*
X64389000Y-87884000D02*
X65151000Y-87884000D01*
X65151000Y-87884000D02*
X65151000Y-103886000D01*
X65151000Y-103886000D02*
X64389000Y-103886000D01*
D11*
X75843500Y-62111000D02*
X75843500Y-63111000D01*
X74143500Y-63111000D02*
X74143500Y-62111000D01*
X78360000Y-60960000D02*
X78360000Y-63500000D01*
X76580000Y-63500000D02*
X76580000Y-60960000D01*
X76580000Y-63500000D02*
X78360000Y-63500000D01*
X78360000Y-60960000D02*
X76580000Y-60960000D01*
X71563500Y-63627000D02*
X71563500Y-61087000D01*
X73343500Y-61087000D02*
X73343500Y-63627000D01*
X73343500Y-61087000D02*
X71563500Y-61087000D01*
X71563500Y-63627000D02*
X73343500Y-63627000D01*
X48570000Y-84199000D02*
X47640000Y-84199000D01*
X45410000Y-84199000D02*
X46340000Y-84199000D01*
X45410000Y-84199000D02*
X45410000Y-81039000D01*
X48570000Y-84199000D02*
X48570000Y-82739000D01*
D12*
X78986000Y-53744500D02*
X77986000Y-53744500D01*
X77986000Y-55094500D02*
X78986000Y-55094500D01*
X73525000Y-53744500D02*
X72525000Y-53744500D01*
X72525000Y-55094500D02*
X73525000Y-55094500D01*
X76462000Y-60238000D02*
X77462000Y-60238000D01*
X77462000Y-58888000D02*
X76462000Y-58888000D01*
X73461500Y-58888000D02*
X72461500Y-58888000D01*
X72461500Y-60238000D02*
X73461500Y-60238000D01*
D11*
X56373000Y-113742000D02*
G75*
G03X51323000Y-113742000I-2525000J0D01*
G01*
X56373000Y-119992000D02*
G75*
G02X51323000Y-119992000I-2525000J0D01*
G01*
X51323000Y-113742000D02*
X51323000Y-119992000D01*
X56373000Y-113742000D02*
X56373000Y-119992000D01*
X66295000Y-80278000D02*
X66295000Y-86078000D01*
X69595000Y-80278000D02*
X69595000Y-86078000D01*
X66295000Y-80278000D02*
X69595000Y-80278000D01*
X44950000Y-64600000D02*
X44950000Y-63600000D01*
X46650000Y-63600000D02*
X46650000Y-64600000D01*
D12*
X44946600Y-60106000D02*
X44946600Y-61306000D01*
X46696600Y-61306000D02*
X46696600Y-60106000D01*
M02*
