%TF.GenerationSoftware,KiCad,Pcbnew,4.0.4-stable*%
%TF.CreationDate,2016-12-08T20:54:20+02:00*%
%TF.ProjectId,front_prototype,66726F6E745F70726F746F747970652E,rev?*%
%TF.FileFunction,Copper,L1,Top,Signal*%
%FSLAX46Y46*%
G04 Gerber Fmt 4.6, Leading zero omitted, Abs format (unit mm)*
G04 Created by KiCad (PCBNEW 4.0.4-stable) date 12/08/16 20:54:20*
%MOMM*%
%LPD*%
G01*
G04 APERTURE LIST*
%ADD10C,0.100000*%
%ADD11C,1.524000*%
%ADD12O,2.499360X1.998980*%
%ADD13R,1.727200X2.032000*%
%ADD14O,1.727200X2.032000*%
%ADD15R,1.000000X1.250000*%
%ADD16R,1.250000X1.000000*%
%ADD17C,2.400000*%
%ADD18R,2.400000X2.400000*%
%ADD19C,1.324000*%
%ADD20C,0.600000*%
%ADD21C,0.250000*%
%ADD22C,0.200000*%
G04 APERTURE END LIST*
D10*
D11*
X72644000Y-83312000D03*
X75184000Y-83312000D03*
X72644000Y-85852000D03*
X75184000Y-85852000D03*
X72644000Y-88392000D03*
X75184000Y-88392000D03*
X72644000Y-90932000D03*
X75184000Y-90932000D03*
X72644000Y-93472000D03*
X75184000Y-93472000D03*
X72644000Y-96012000D03*
X75184000Y-96012000D03*
X72644000Y-98552000D03*
X75184000Y-98552000D03*
X72644000Y-101092000D03*
X75184000Y-101092000D03*
X72644000Y-103632000D03*
X75184000Y-103632000D03*
X72644000Y-106172000D03*
X75184000Y-106172000D03*
X72644000Y-108712000D03*
X75184000Y-108712000D03*
X72644000Y-111252000D03*
X75184000Y-111252000D03*
X72644000Y-113792000D03*
X75184000Y-113792000D03*
X72644000Y-116332000D03*
X75184000Y-116332000D03*
X72644000Y-118872000D03*
X75184000Y-118872000D03*
X72644000Y-121412000D03*
X75184000Y-121412000D03*
X72644000Y-123952000D03*
X75184000Y-123952000D03*
X72644000Y-126492000D03*
X75184000Y-126492000D03*
X72644000Y-129032000D03*
X75184000Y-129032000D03*
X72644000Y-131572000D03*
X75184000Y-131572000D03*
X70104000Y-129032000D03*
X70104000Y-131572000D03*
X67564000Y-129032000D03*
X67564000Y-131572000D03*
D12*
X53721000Y-126337060D03*
X53721000Y-131218940D03*
D13*
X52451000Y-74803000D03*
D14*
X54991000Y-74803000D03*
X57531000Y-74803000D03*
X60071000Y-74803000D03*
X62611000Y-74803000D03*
X65151000Y-74803000D03*
X67691000Y-74803000D03*
X70231000Y-74803000D03*
D11*
X44040000Y-129530000D03*
X44040000Y-126990000D03*
X44040000Y-124450000D03*
X44040000Y-121910000D03*
X44040000Y-119370000D03*
X78330000Y-114290000D03*
X78330000Y-116830000D03*
X78330000Y-119370000D03*
X78330000Y-121910000D03*
X78330000Y-124450000D03*
X78330000Y-126990000D03*
X44040000Y-90160000D03*
X44040000Y-87620000D03*
D15*
X58055000Y-119380000D03*
X60055000Y-119380000D03*
D16*
X56261000Y-61484000D03*
X56261000Y-63484000D03*
X49276000Y-89265000D03*
X49276000Y-87265000D03*
D17*
X63190000Y-136525000D03*
D18*
X59690000Y-136525000D03*
D19*
X78111800Y-50985800D03*
X72611800Y-50985800D03*
X75361800Y-51485800D03*
X78611800Y-42985800D03*
X72111800Y-42985800D03*
D13*
X52451000Y-49276000D03*
D14*
X54991000Y-49276000D03*
X57531000Y-49276000D03*
X60071000Y-49276000D03*
X62611000Y-49276000D03*
X65151000Y-49276000D03*
X67691000Y-49276000D03*
X70231000Y-49276000D03*
D20*
X56769000Y-107950000D03*
X50546000Y-90424000D03*
X56388000Y-57277000D03*
X57150000Y-118491000D03*
X64135000Y-116078000D03*
X78613000Y-77851000D03*
X78486000Y-63246000D03*
X76073000Y-56642000D03*
X46355000Y-82296000D03*
X57220000Y-123825000D03*
X58801000Y-123825000D03*
X43180000Y-52070000D03*
X43180000Y-50800000D03*
X43180000Y-49530000D03*
X43180000Y-48260000D03*
X43180000Y-46990000D03*
X43180000Y-45720000D03*
X43180000Y-44450000D03*
X43180000Y-43180000D03*
X44450000Y-41910000D03*
X45720000Y-41910000D03*
X46990000Y-41910000D03*
X48260000Y-41910000D03*
X49530000Y-41910000D03*
X50800000Y-41910000D03*
X52070000Y-41910000D03*
X53340000Y-41910000D03*
X54610000Y-41910000D03*
X55880000Y-41910000D03*
X57150000Y-41910000D03*
X58420000Y-41910000D03*
X59690000Y-41910000D03*
X60960000Y-41910000D03*
X62230000Y-41910000D03*
X63500000Y-41910000D03*
X64770000Y-41910000D03*
X66040000Y-41910000D03*
X73660000Y-41910000D03*
X74930000Y-41910000D03*
X76200000Y-41910000D03*
X80010000Y-45085000D03*
X80010000Y-46990000D03*
X80010000Y-48260000D03*
X80010000Y-49530000D03*
X80010000Y-50800000D03*
X80010000Y-52070000D03*
X52451000Y-44450000D03*
X57531000Y-44450000D03*
X54991000Y-44450000D03*
X69850000Y-102235000D03*
X68580000Y-102235000D03*
X67310000Y-100965000D03*
X66040000Y-99695000D03*
X64770000Y-96520000D03*
X64770000Y-94615000D03*
X64770000Y-92710000D03*
X64770000Y-90805000D03*
X64770000Y-88900000D03*
X64770000Y-86995000D03*
X64770000Y-85090000D03*
X64770000Y-83185000D03*
X64770000Y-81280000D03*
X65405000Y-80010000D03*
X66675000Y-78740000D03*
X67945000Y-77470000D03*
X69215000Y-76835000D03*
X71120000Y-73025000D03*
X71120000Y-71755000D03*
X71120000Y-70485000D03*
X71120000Y-66802000D03*
X72390000Y-67310000D03*
X73660000Y-68580000D03*
X73660000Y-69850000D03*
X73660000Y-71120000D03*
X73660000Y-72390000D03*
X73660000Y-73660000D03*
X73660000Y-74930000D03*
X73660000Y-76200000D03*
X73660000Y-77470000D03*
X72390000Y-78740000D03*
X71120000Y-78740000D03*
X69850000Y-78740000D03*
X68580000Y-80010000D03*
X67310000Y-81280000D03*
X67310000Y-82550000D03*
X67310000Y-83820000D03*
X67310000Y-85090000D03*
X67310000Y-86360000D03*
X67310000Y-87630000D03*
X67310000Y-88900000D03*
X67310000Y-90170000D03*
X67310000Y-91440000D03*
X67310000Y-92710000D03*
X67310000Y-93980000D03*
X67310000Y-95250000D03*
X67310000Y-96520000D03*
X67310000Y-97790000D03*
X68580000Y-99060000D03*
X69850000Y-100076000D03*
X54610000Y-138430000D03*
X55880000Y-138430000D03*
X57150000Y-138430000D03*
X58420000Y-138684000D03*
X59690000Y-138684000D03*
X60960000Y-138684000D03*
X62230000Y-138684000D03*
X63500000Y-138684000D03*
X64770000Y-138684000D03*
X66040000Y-138430000D03*
X67310000Y-138430000D03*
X68580000Y-138430000D03*
X69850000Y-138430000D03*
X76200000Y-138430000D03*
X77470000Y-138430000D03*
X78740000Y-138430000D03*
X80010000Y-137160000D03*
X80010000Y-135890000D03*
X80010000Y-134620000D03*
X80010000Y-133350000D03*
X80010000Y-132080000D03*
X80010000Y-128270000D03*
X80010000Y-129540000D03*
X80010000Y-130810000D03*
X49530000Y-138430000D03*
X43180000Y-132080000D03*
X43180000Y-133350000D03*
X43180000Y-134620000D03*
X43180000Y-135890000D03*
X43180000Y-137160000D03*
X44450000Y-138430000D03*
X45720000Y-138430000D03*
X46990000Y-138430000D03*
X48260000Y-138430000D03*
X53340000Y-138430000D03*
X43180000Y-94488000D03*
X43180000Y-116840000D03*
X43180000Y-115570000D03*
X43180000Y-114300000D03*
X43180000Y-113030000D03*
X43180000Y-111760000D03*
X43180000Y-110490000D03*
X43180000Y-109220000D03*
X43180000Y-107950000D03*
X43180000Y-106680000D03*
X43180000Y-105410000D03*
X43180000Y-104140000D03*
X43180000Y-102870000D03*
X43180000Y-101600000D03*
X43180000Y-100330000D03*
X43180000Y-99060000D03*
X43180000Y-97790000D03*
X43180000Y-96520000D03*
X71247000Y-104902000D03*
X56515000Y-67945000D03*
X59690000Y-109728000D03*
X51181000Y-67437000D03*
X43053000Y-83058000D03*
X60452000Y-115443000D03*
X62484000Y-117221000D03*
X64008000Y-118237000D03*
X64008000Y-119253000D03*
X64008000Y-120269000D03*
X60960000Y-121285000D03*
X53721000Y-53340000D03*
X53721000Y-72771000D03*
X65024000Y-107315000D03*
X64389000Y-98425000D03*
X69342000Y-43561000D03*
X68961000Y-72898000D03*
X63881000Y-72771000D03*
X69850000Y-105283000D03*
X64008000Y-53721000D03*
X64135000Y-99314000D03*
X66421000Y-72898000D03*
X67183000Y-44704000D03*
X64262000Y-106680000D03*
X58801000Y-72771000D03*
X58801000Y-53721000D03*
X61341000Y-72771000D03*
X61595000Y-53721000D03*
X63373000Y-112268000D03*
X76454000Y-112522000D03*
X78486000Y-90678000D03*
X68580000Y-88773000D03*
X77343000Y-75438000D03*
X74168000Y-78867000D03*
X73914000Y-92329000D03*
X71247000Y-97282000D03*
X69977000Y-98552000D03*
X69215000Y-94488000D03*
X79629000Y-95631000D03*
X77724000Y-96012000D03*
X47752000Y-68199000D03*
X56388000Y-82169000D03*
X79629000Y-123190000D03*
D21*
X49276000Y-90160000D02*
X49276000Y-89789000D01*
X49276000Y-89789000D02*
X49276000Y-89265000D01*
X49276000Y-90160000D02*
X49276000Y-90170000D01*
X49276000Y-90170000D02*
X49276000Y-90160000D01*
X60960000Y-109093000D02*
X59817000Y-107950000D01*
X59817000Y-107950000D02*
X56769000Y-107950000D01*
X66421000Y-107823000D02*
X65151000Y-109093000D01*
X72644000Y-103632000D02*
X68961000Y-103632000D01*
X68961000Y-103632000D02*
X66421000Y-106172000D01*
X66421000Y-106172000D02*
X66421000Y-107823000D01*
X65151000Y-109093000D02*
X60960000Y-109093000D01*
X50282000Y-90160000D02*
X50546000Y-90424000D01*
X50282000Y-90160000D02*
X49276000Y-90160000D01*
X49276000Y-90160000D02*
X48905000Y-90160000D01*
X48905000Y-90160000D02*
X44040000Y-90160000D01*
X56261000Y-61484000D02*
X56261000Y-57404000D01*
X56261000Y-57404000D02*
X56388000Y-57277000D01*
X57150000Y-118491000D02*
X57166000Y-118491000D01*
X57166000Y-118491000D02*
X58055000Y-119380000D01*
X59055000Y-116586000D02*
X57150000Y-118491000D01*
X61087000Y-116586000D02*
X59055000Y-116586000D01*
X61595000Y-116078000D02*
X61087000Y-116586000D01*
X64135000Y-116078000D02*
X61595000Y-116078000D01*
X72644000Y-83312000D02*
X72771000Y-83312000D01*
X72771000Y-83312000D02*
X74041000Y-84582000D01*
X74041000Y-84582000D02*
X76708000Y-84582000D01*
X76708000Y-84582000D02*
X78613000Y-82677000D01*
X78613000Y-82677000D02*
X78613000Y-77851000D01*
X78486000Y-63246000D02*
X78486000Y-59055000D01*
X78486000Y-59055000D02*
X76073000Y-56642000D01*
X46355000Y-87845000D02*
X44040000Y-90160000D01*
X46355000Y-82296000D02*
X46355000Y-87845000D01*
X58801000Y-123825000D02*
X57220000Y-123825000D01*
X66040000Y-41910000D02*
X66675000Y-41275000D01*
X43180000Y-52070000D02*
X43180000Y-50800000D01*
X43180000Y-49530000D02*
X43180000Y-48260000D01*
X43180000Y-46990000D02*
X43180000Y-45720000D01*
X43180000Y-44450000D02*
X43180000Y-43180000D01*
X44450000Y-41910000D02*
X45720000Y-41910000D01*
X46990000Y-41910000D02*
X48260000Y-41910000D01*
X49530000Y-41910000D02*
X50800000Y-41910000D01*
X52070000Y-41910000D02*
X53340000Y-41910000D01*
X54610000Y-41910000D02*
X55880000Y-41910000D01*
X57150000Y-41910000D02*
X58420000Y-41910000D01*
X59690000Y-41910000D02*
X60960000Y-41910000D01*
X62230000Y-41910000D02*
X63500000Y-41910000D01*
X64770000Y-41910000D02*
X66040000Y-41910000D01*
X73660000Y-41910000D02*
X74930000Y-41910000D01*
X76200000Y-41910000D02*
X76200000Y-43180000D01*
X76200000Y-43180000D02*
X78105000Y-45085000D01*
X78105000Y-45085000D02*
X80010000Y-45085000D01*
X80010000Y-46990000D02*
X80010000Y-48260000D01*
X80010000Y-49530000D02*
X80010000Y-50800000D01*
X73025000Y-41275000D02*
X73660000Y-41910000D01*
X66675000Y-41275000D02*
X73025000Y-41275000D01*
X72644000Y-113792000D02*
X70104000Y-113792000D01*
X72390000Y-67310000D02*
X72390000Y-69215000D01*
X68580000Y-102235000D02*
X67310000Y-100965000D01*
X66040000Y-99695000D02*
X66040000Y-97790000D01*
X66040000Y-97790000D02*
X64770000Y-96520000D01*
X64770000Y-94615000D02*
X64770000Y-92710000D01*
X64770000Y-90805000D02*
X64770000Y-88900000D01*
X64770000Y-86995000D02*
X64770000Y-85090000D01*
X64770000Y-83185000D02*
X64770000Y-81280000D01*
X65405000Y-80010000D02*
X66675000Y-78740000D01*
X67945000Y-77470000D02*
X68580000Y-77470000D01*
X68580000Y-77470000D02*
X69215000Y-76835000D01*
X71120000Y-73025000D02*
X71120000Y-71755000D01*
X69850000Y-102235000D02*
X71120000Y-102235000D01*
X72390000Y-69215000D02*
X71120000Y-70485000D01*
X72136000Y-67056000D02*
X71120000Y-66802000D01*
X72390000Y-67310000D02*
X72136000Y-67056000D01*
X73660000Y-69850000D02*
X73660000Y-68580000D01*
X73660000Y-72390000D02*
X73660000Y-71120000D01*
X73660000Y-74930000D02*
X73660000Y-73660000D01*
X73660000Y-77470000D02*
X73660000Y-76200000D01*
X71120000Y-78740000D02*
X72390000Y-78740000D01*
X68580000Y-80010000D02*
X69850000Y-78740000D01*
X67310000Y-82550000D02*
X67310000Y-81280000D01*
X67310000Y-85090000D02*
X67310000Y-83820000D01*
X67310000Y-87630000D02*
X67310000Y-86360000D01*
X67310000Y-90170000D02*
X67310000Y-88900000D01*
X67310000Y-92710000D02*
X67310000Y-91440000D01*
X67310000Y-95250000D02*
X67310000Y-93980000D01*
X67310000Y-97790000D02*
X67310000Y-96520000D01*
X69850000Y-100076000D02*
X68580000Y-99060000D01*
X72611800Y-50985800D02*
X72611800Y-67088200D01*
X72611800Y-67088200D02*
X72390000Y-67310000D01*
X55880000Y-138430000D02*
X54610000Y-138430000D01*
X58420000Y-138430000D02*
X57150000Y-138430000D01*
X60960000Y-138430000D02*
X59690000Y-138430000D01*
X63500000Y-138430000D02*
X62230000Y-138430000D01*
X66040000Y-138430000D02*
X64770000Y-138430000D01*
X68580000Y-138430000D02*
X67310000Y-138430000D01*
X78740000Y-138430000D02*
X77470000Y-138430000D01*
X80010000Y-135890000D02*
X80010000Y-137160000D01*
X80010000Y-133350000D02*
X80010000Y-134620000D01*
X80010000Y-128270000D02*
X80010000Y-132080000D01*
X80010000Y-130810000D02*
X80010000Y-129540000D01*
X43180000Y-133350000D02*
X43180000Y-132080000D01*
X43180000Y-135890000D02*
X43180000Y-134620000D01*
X44450000Y-138430000D02*
X43180000Y-137160000D01*
X46990000Y-138430000D02*
X45720000Y-138430000D01*
X49530000Y-138430000D02*
X48260000Y-138430000D01*
X43180000Y-94488000D02*
X43180000Y-96520000D01*
X43180000Y-115570000D02*
X43180000Y-116840000D01*
X43180000Y-113030000D02*
X43180000Y-114300000D01*
X43180000Y-110490000D02*
X43180000Y-111760000D01*
X43180000Y-107950000D02*
X43180000Y-109220000D01*
X43180000Y-105410000D02*
X43180000Y-106680000D01*
X43180000Y-102870000D02*
X43180000Y-104140000D01*
X43180000Y-100330000D02*
X43180000Y-101600000D01*
X43180000Y-97790000D02*
X43180000Y-99060000D01*
X75184000Y-106172000D02*
X73914000Y-104902000D01*
X73914000Y-104902000D02*
X71247000Y-104902000D01*
X56261000Y-63484000D02*
X56261000Y-67691000D01*
X56261000Y-67691000D02*
X56515000Y-67945000D01*
X72644000Y-93472000D02*
X69977000Y-93472000D01*
X69977000Y-93472000D02*
X69342000Y-92837000D01*
X78330000Y-114290000D02*
X76718000Y-114290000D01*
X60833000Y-115062000D02*
X60452000Y-115443000D01*
X75946000Y-115062000D02*
X60833000Y-115062000D01*
X76718000Y-114290000D02*
X75946000Y-115062000D01*
X77685000Y-117475000D02*
X78330000Y-116830000D01*
X62738000Y-117475000D02*
X77685000Y-117475000D01*
X62484000Y-117221000D02*
X62738000Y-117475000D01*
X77558000Y-120142000D02*
X78330000Y-119370000D01*
X65913000Y-120142000D02*
X77558000Y-120142000D01*
X64008000Y-118237000D02*
X65913000Y-120142000D01*
X76972000Y-121910000D02*
X78330000Y-121910000D01*
X76200000Y-122682000D02*
X76972000Y-121910000D01*
X67437000Y-122682000D02*
X76200000Y-122682000D01*
X64008000Y-119253000D02*
X67437000Y-122682000D01*
X76835000Y-125945000D02*
X78330000Y-124450000D01*
X76835000Y-127000000D02*
X76835000Y-125945000D01*
X76073000Y-127762000D02*
X76835000Y-127000000D01*
X72009000Y-127762000D02*
X76073000Y-127762000D01*
X70739000Y-126492000D02*
X72009000Y-127762000D01*
X70231000Y-126492000D02*
X70739000Y-126492000D01*
X64008000Y-120269000D02*
X70231000Y-126492000D01*
X78330000Y-128172000D02*
X78330000Y-126990000D01*
X76200000Y-130302000D02*
X78330000Y-128172000D01*
X69469000Y-130302000D02*
X76200000Y-130302000D01*
X68834000Y-129667000D02*
X69469000Y-130302000D01*
X68834000Y-126619000D02*
X68834000Y-129667000D01*
X64389000Y-122174000D02*
X68834000Y-126619000D01*
X61849000Y-122174000D02*
X64389000Y-122174000D01*
X60960000Y-121285000D02*
X61849000Y-122174000D01*
X53721000Y-72771000D02*
X53721000Y-53340000D01*
X65024000Y-107315000D02*
X65024000Y-106172000D01*
X65024000Y-106172000D02*
X65024000Y-106299000D01*
X65024000Y-99314000D02*
X65024000Y-99060000D01*
X65024000Y-106172000D02*
X65024000Y-99314000D01*
X65024000Y-99060000D02*
X64389000Y-98425000D01*
X68961000Y-45212000D02*
X68961000Y-43942000D01*
X68961000Y-43942000D02*
X69342000Y-43561000D01*
X68961000Y-56769000D02*
X68961000Y-51689000D01*
X68961000Y-72898000D02*
X68961000Y-68961000D01*
X68961000Y-68961000D02*
X68961000Y-56769000D01*
X68961000Y-51689000D02*
X68961000Y-45212000D01*
X73914000Y-109982000D02*
X71247000Y-109982000D01*
X71247000Y-109982000D02*
X70485000Y-109220000D01*
X75184000Y-111252000D02*
X73914000Y-109982000D01*
X70485000Y-105918000D02*
X69850000Y-105283000D01*
X70485000Y-109220000D02*
X70485000Y-105918000D01*
X63881000Y-53848000D02*
X64008000Y-53721000D01*
X63881000Y-72771000D02*
X63881000Y-53848000D01*
X75057000Y-111252000D02*
X75184000Y-111252000D01*
X64135000Y-106553000D02*
X64135000Y-103378000D01*
X64135000Y-99314000D02*
X64135000Y-103378000D01*
X66421000Y-45339000D02*
X66421000Y-72898000D01*
X67056000Y-44704000D02*
X66421000Y-45339000D01*
X67183000Y-44704000D02*
X67056000Y-44704000D01*
X64135000Y-106553000D02*
X64262000Y-106680000D01*
X64262000Y-106680000D02*
X64135000Y-106553000D01*
X54991000Y-49276000D02*
X54991000Y-74803000D01*
X58801000Y-53721000D02*
X58801000Y-72771000D01*
X61341000Y-54483000D02*
X61341000Y-53975000D01*
X61341000Y-72771000D02*
X61341000Y-54483000D01*
X61341000Y-53975000D02*
X61595000Y-53721000D01*
X75184000Y-85852000D02*
X77724000Y-85852000D01*
X78486000Y-86614000D02*
X78486000Y-90678000D01*
X77724000Y-85852000D02*
X78486000Y-86614000D01*
X63373000Y-112268000D02*
X63627000Y-112522000D01*
X63627000Y-112522000D02*
X76454000Y-112522000D01*
X73914000Y-92329000D02*
X73787000Y-92202000D01*
X73787000Y-92202000D02*
X72009000Y-92202000D01*
X72009000Y-92202000D02*
X68580000Y-88773000D01*
X77343000Y-75438000D02*
X74168000Y-78613000D01*
X74168000Y-78613000D02*
X74168000Y-78867000D01*
X75184000Y-103632000D02*
X73914000Y-102362000D01*
X73406000Y-97282000D02*
X71247000Y-97282000D01*
X73914000Y-97790000D02*
X73406000Y-97282000D01*
X73914000Y-102362000D02*
X73914000Y-97790000D01*
X75184000Y-103632000D02*
X75184000Y-103505000D01*
X69977000Y-98552000D02*
X70104000Y-98552000D01*
X70104000Y-98552000D02*
X70104000Y-98552000D01*
X70104000Y-98552000D02*
X72644000Y-98552000D01*
X69596000Y-94742000D02*
X69469000Y-94742000D01*
X72136000Y-94742000D02*
X69596000Y-94742000D01*
X69469000Y-94742000D02*
X69215000Y-94488000D01*
X75184000Y-108712000D02*
X75692000Y-108712000D01*
X75692000Y-108712000D02*
X76835000Y-107569000D01*
X76835000Y-107569000D02*
X76835000Y-98298000D01*
X76835000Y-98298000D02*
X75819000Y-97282000D01*
X75819000Y-97282000D02*
X74549000Y-97282000D01*
X74549000Y-97282000D02*
X73914000Y-96647000D01*
X73914000Y-96647000D02*
X73914000Y-95123000D01*
X73914000Y-95123000D02*
X73533000Y-94742000D01*
X73533000Y-94742000D02*
X72136000Y-94742000D01*
X72136000Y-94742000D02*
X72009000Y-94742000D01*
X79248000Y-96012000D02*
X79629000Y-95631000D01*
X77724000Y-96012000D02*
X79248000Y-96012000D01*
X48895000Y-81407000D02*
X49022000Y-81534000D01*
X48895000Y-81407000D02*
X47752000Y-80264000D01*
X47752000Y-80264000D02*
X47752000Y-68199000D01*
X55753000Y-81534000D02*
X56388000Y-82169000D01*
X49022000Y-81534000D02*
X55753000Y-81534000D01*
X79629000Y-123190000D02*
X78613000Y-123190000D01*
X77343000Y-123190000D02*
X78613000Y-123190000D01*
X76835000Y-123698000D02*
X77343000Y-123190000D01*
X72644000Y-123952000D02*
X73914000Y-125222000D01*
X76835000Y-124206000D02*
X76835000Y-123698000D01*
X75819000Y-125222000D02*
X76835000Y-124206000D01*
X73914000Y-125222000D02*
X75819000Y-125222000D01*
X72644000Y-123952000D02*
X72644000Y-124079000D01*
X52451000Y-74803000D02*
X52451000Y-49276000D01*
X57531000Y-74803000D02*
X57531000Y-49276000D01*
X60071000Y-49276000D02*
X60071000Y-74803000D01*
X62611000Y-74803000D02*
X62611000Y-49276000D01*
X65151000Y-49276000D02*
X65151000Y-74803000D01*
X67691000Y-74803000D02*
X67691000Y-49276000D01*
X70231000Y-49276000D02*
X70231000Y-74803000D01*
D22*
G36*
X78851969Y-40766391D02*
X80733609Y-42648031D01*
X80817000Y-43067268D01*
X80817000Y-136932732D01*
X80743789Y-137300789D01*
X78800789Y-139243789D01*
X78432733Y-139317000D01*
X44567268Y-139317000D01*
X44277854Y-139259432D01*
X42240568Y-137222146D01*
X42183000Y-136932733D01*
X42183000Y-136450000D01*
X48917000Y-136450000D01*
X49083171Y-137285398D01*
X49556386Y-137993614D01*
X50264602Y-138466829D01*
X51100000Y-138633000D01*
X51935398Y-138466829D01*
X52643614Y-137993614D01*
X53116829Y-137285398D01*
X53283000Y-136450000D01*
X53116829Y-135614602D01*
X52923324Y-135325000D01*
X57870089Y-135325000D01*
X57870089Y-137725000D01*
X57912484Y-137950311D01*
X58045643Y-138157246D01*
X58248820Y-138296071D01*
X58490000Y-138344911D01*
X60890000Y-138344911D01*
X61115311Y-138302516D01*
X61322246Y-138169357D01*
X61461071Y-137966180D01*
X61509911Y-137725000D01*
X61509911Y-137193382D01*
X61656358Y-137547812D01*
X62164513Y-138056854D01*
X62828789Y-138332686D01*
X63548056Y-138333313D01*
X64212812Y-138058642D01*
X64721854Y-137550487D01*
X64997686Y-136886211D01*
X64998066Y-136450000D01*
X71117000Y-136450000D01*
X71283171Y-137285398D01*
X71756386Y-137993614D01*
X72464602Y-138466829D01*
X73300000Y-138633000D01*
X74135398Y-138466829D01*
X74843614Y-137993614D01*
X75316829Y-137285398D01*
X75483000Y-136450000D01*
X75316829Y-135614602D01*
X74843614Y-134906386D01*
X74135398Y-134433171D01*
X73300000Y-134267000D01*
X72464602Y-134433171D01*
X71756386Y-134906386D01*
X71283171Y-135614602D01*
X71117000Y-136450000D01*
X64998066Y-136450000D01*
X64998313Y-136166944D01*
X64723642Y-135502188D01*
X64215487Y-134993146D01*
X63551211Y-134717314D01*
X62831944Y-134716687D01*
X62167188Y-134991358D01*
X61658146Y-135499513D01*
X61509911Y-135856502D01*
X61509911Y-135325000D01*
X61467516Y-135099689D01*
X61334357Y-134892754D01*
X61131180Y-134753929D01*
X60890000Y-134705089D01*
X58490000Y-134705089D01*
X58264689Y-134747484D01*
X58057754Y-134880643D01*
X57918929Y-135083820D01*
X57870089Y-135325000D01*
X52923324Y-135325000D01*
X52643614Y-134906386D01*
X51935398Y-134433171D01*
X51100000Y-134267000D01*
X50264602Y-134433171D01*
X49556386Y-134906386D01*
X49083171Y-135614602D01*
X48917000Y-136450000D01*
X42183000Y-136450000D01*
X42183000Y-131218940D01*
X51826926Y-131218940D01*
X51949289Y-131834100D01*
X52297749Y-132355607D01*
X52819256Y-132704067D01*
X53434416Y-132826430D01*
X54007584Y-132826430D01*
X54622744Y-132704067D01*
X55144251Y-132355607D01*
X55492711Y-131834100D01*
X55615074Y-131218940D01*
X55492711Y-130603780D01*
X55144251Y-130082273D01*
X54622744Y-129733813D01*
X54007584Y-129611450D01*
X53434416Y-129611450D01*
X52819256Y-129733813D01*
X52297749Y-130082273D01*
X51949289Y-130603780D01*
X51826926Y-131218940D01*
X42183000Y-131218940D01*
X42183000Y-119641314D01*
X42669763Y-119641314D01*
X42877893Y-120145029D01*
X43262944Y-120530752D01*
X43526067Y-120640011D01*
X43264971Y-120747893D01*
X42879248Y-121132944D01*
X42670238Y-121636295D01*
X42669763Y-122181314D01*
X42877893Y-122685029D01*
X43262944Y-123070752D01*
X43526067Y-123180011D01*
X43264971Y-123287893D01*
X42879248Y-123672944D01*
X42670238Y-124176295D01*
X42669763Y-124721314D01*
X42877893Y-125225029D01*
X43262944Y-125610752D01*
X43526067Y-125720011D01*
X43264971Y-125827893D01*
X42879248Y-126212944D01*
X42670238Y-126716295D01*
X42669763Y-127261314D01*
X42877893Y-127765029D01*
X43262944Y-128150752D01*
X43526067Y-128260011D01*
X43264971Y-128367893D01*
X42879248Y-128752944D01*
X42670238Y-129256295D01*
X42669763Y-129801314D01*
X42877893Y-130305029D01*
X43262944Y-130690752D01*
X43766295Y-130899762D01*
X44311314Y-130900237D01*
X44815029Y-130692107D01*
X45200752Y-130307056D01*
X45409762Y-129803705D01*
X45410237Y-129258686D01*
X45202107Y-128754971D01*
X44817056Y-128369248D01*
X44553933Y-128259989D01*
X44815029Y-128152107D01*
X45200752Y-127767056D01*
X45409762Y-127263705D01*
X45410237Y-126718686D01*
X45252553Y-126337060D01*
X51826926Y-126337060D01*
X51949289Y-126952220D01*
X52297749Y-127473727D01*
X52819256Y-127822187D01*
X53434416Y-127944550D01*
X54007584Y-127944550D01*
X54622744Y-127822187D01*
X55144251Y-127473727D01*
X55492711Y-126952220D01*
X55615074Y-126337060D01*
X55492711Y-125721900D01*
X55144251Y-125200393D01*
X54622744Y-124851933D01*
X54007584Y-124729570D01*
X53434416Y-124729570D01*
X52819256Y-124851933D01*
X52297749Y-125200393D01*
X51949289Y-125721900D01*
X51826926Y-126337060D01*
X45252553Y-126337060D01*
X45202107Y-126214971D01*
X44817056Y-125829248D01*
X44553933Y-125719989D01*
X44815029Y-125612107D01*
X45200752Y-125227056D01*
X45409762Y-124723705D01*
X45410237Y-124178686D01*
X45338398Y-124004820D01*
X56311843Y-124004820D01*
X56449786Y-124338669D01*
X56704988Y-124594316D01*
X57038595Y-124732842D01*
X57399820Y-124733157D01*
X57733669Y-124595214D01*
X57770948Y-124558000D01*
X58249735Y-124558000D01*
X58285988Y-124594316D01*
X58619595Y-124732842D01*
X58980820Y-124733157D01*
X59314669Y-124595214D01*
X59570316Y-124340012D01*
X59708842Y-124006405D01*
X59709157Y-123645180D01*
X59571214Y-123311331D01*
X59316012Y-123055684D01*
X58982405Y-122917158D01*
X58621180Y-122916843D01*
X58287331Y-123054786D01*
X58250052Y-123092000D01*
X57771265Y-123092000D01*
X57735012Y-123055684D01*
X57401405Y-122917158D01*
X57040180Y-122916843D01*
X56706331Y-123054786D01*
X56450684Y-123309988D01*
X56312158Y-123643595D01*
X56311843Y-124004820D01*
X45338398Y-124004820D01*
X45202107Y-123674971D01*
X44817056Y-123289248D01*
X44553933Y-123179989D01*
X44815029Y-123072107D01*
X45200752Y-122687056D01*
X45409762Y-122183705D01*
X45410237Y-121638686D01*
X45202107Y-121134971D01*
X44817056Y-120749248D01*
X44553933Y-120639989D01*
X44815029Y-120532107D01*
X45200752Y-120147056D01*
X45409762Y-119643705D01*
X45410237Y-119098686D01*
X45202107Y-118594971D01*
X44817056Y-118209248D01*
X44313705Y-118000238D01*
X43768686Y-117999763D01*
X43264971Y-118207893D01*
X42879248Y-118592944D01*
X42670238Y-119096295D01*
X42669763Y-119641314D01*
X42183000Y-119641314D01*
X42183000Y-108129820D01*
X55860843Y-108129820D01*
X55998786Y-108463669D01*
X56253988Y-108719316D01*
X56587595Y-108857842D01*
X56948820Y-108858157D01*
X57282669Y-108720214D01*
X57319948Y-108683000D01*
X59513382Y-108683000D01*
X60441691Y-109611309D01*
X60679493Y-109770204D01*
X60960000Y-109826000D01*
X65151000Y-109826000D01*
X65431507Y-109770204D01*
X65669309Y-109611309D01*
X66939309Y-108341309D01*
X67098204Y-108103507D01*
X67120343Y-107992204D01*
X67154000Y-107823000D01*
X67154000Y-106475618D01*
X69264619Y-104365000D01*
X71464527Y-104365000D01*
X71481893Y-104407029D01*
X71866944Y-104792752D01*
X72130067Y-104902011D01*
X71868971Y-105009893D01*
X71483248Y-105394944D01*
X71274238Y-105898295D01*
X71273763Y-106443314D01*
X71481893Y-106947029D01*
X71866944Y-107332752D01*
X72130067Y-107442011D01*
X71868971Y-107549893D01*
X71483248Y-107934944D01*
X71274238Y-108438295D01*
X71273773Y-108972155D01*
X71218000Y-108916382D01*
X71218000Y-105918000D01*
X71162204Y-105637493D01*
X71003310Y-105399691D01*
X70758112Y-105154494D01*
X70758157Y-105103180D01*
X70620214Y-104769331D01*
X70365012Y-104513684D01*
X70031405Y-104375158D01*
X69670180Y-104374843D01*
X69336331Y-104512786D01*
X69080684Y-104767988D01*
X68942158Y-105101595D01*
X68941843Y-105462820D01*
X69079786Y-105796669D01*
X69334988Y-106052316D01*
X69668595Y-106190842D01*
X69721269Y-106190888D01*
X69752000Y-106221619D01*
X69752000Y-109220000D01*
X69807796Y-109500507D01*
X69966691Y-109738309D01*
X70728691Y-110500309D01*
X70966493Y-110659204D01*
X71247000Y-110715000D01*
X71383568Y-110715000D01*
X71274238Y-110978295D01*
X71273763Y-111523314D01*
X71383542Y-111789000D01*
X64157539Y-111789000D01*
X64143214Y-111754331D01*
X63888012Y-111498684D01*
X63554405Y-111360158D01*
X63193180Y-111359843D01*
X62859331Y-111497786D01*
X62603684Y-111752988D01*
X62465158Y-112086595D01*
X62464843Y-112447820D01*
X62602786Y-112781669D01*
X62857988Y-113037316D01*
X63191595Y-113175842D01*
X63311686Y-113175947D01*
X63346493Y-113199204D01*
X63627000Y-113255000D01*
X71594130Y-113255000D01*
X71465793Y-113667514D01*
X71507841Y-114127870D01*
X71591151Y-114329000D01*
X60833000Y-114329000D01*
X60552493Y-114384796D01*
X60327859Y-114534892D01*
X60272180Y-114534843D01*
X59938331Y-114672786D01*
X59682684Y-114927988D01*
X59544158Y-115261595D01*
X59543843Y-115622820D01*
X59638951Y-115853000D01*
X59055000Y-115853000D01*
X58774493Y-115908796D01*
X58536691Y-116067691D01*
X57021494Y-117582888D01*
X56970180Y-117582843D01*
X56636331Y-117720786D01*
X56380684Y-117975988D01*
X56242158Y-118309595D01*
X56241843Y-118670820D01*
X56379786Y-119004669D01*
X56634988Y-119260316D01*
X56935089Y-119384929D01*
X56935089Y-120005000D01*
X56977484Y-120230311D01*
X57110643Y-120437246D01*
X57313820Y-120576071D01*
X57555000Y-120624911D01*
X58555000Y-120624911D01*
X58780311Y-120582516D01*
X58987246Y-120449357D01*
X59126071Y-120246180D01*
X59157551Y-120090725D01*
X59215896Y-120231582D01*
X59328418Y-120344104D01*
X59475435Y-120405000D01*
X59801000Y-120405000D01*
X59901000Y-120305000D01*
X59901000Y-119534000D01*
X60209000Y-119534000D01*
X60209000Y-120305000D01*
X60309000Y-120405000D01*
X60634565Y-120405000D01*
X60781582Y-120344104D01*
X60894104Y-120231582D01*
X60955000Y-120084565D01*
X60955000Y-119634000D01*
X60855000Y-119534000D01*
X60209000Y-119534000D01*
X59901000Y-119534000D01*
X59881000Y-119534000D01*
X59881000Y-119226000D01*
X59901000Y-119226000D01*
X59901000Y-118455000D01*
X60209000Y-118455000D01*
X60209000Y-119226000D01*
X60855000Y-119226000D01*
X60955000Y-119126000D01*
X60955000Y-118675435D01*
X60894104Y-118528418D01*
X60781582Y-118415896D01*
X60634565Y-118355000D01*
X60309000Y-118355000D01*
X60209000Y-118455000D01*
X59901000Y-118455000D01*
X59801000Y-118355000D01*
X59475435Y-118355000D01*
X59328418Y-118415896D01*
X59215896Y-118528418D01*
X59158397Y-118667234D01*
X59132516Y-118529689D01*
X58999357Y-118322754D01*
X58796180Y-118183929D01*
X58555000Y-118135089D01*
X58542529Y-118135089D01*
X59358618Y-117319000D01*
X61087000Y-117319000D01*
X61367507Y-117263204D01*
X61576085Y-117123836D01*
X61575843Y-117400820D01*
X61713786Y-117734669D01*
X61968988Y-117990316D01*
X62302595Y-118128842D01*
X62422686Y-118128947D01*
X62457493Y-118152204D01*
X62738000Y-118208000D01*
X63100025Y-118208000D01*
X63099843Y-118416820D01*
X63235608Y-118745397D01*
X63100158Y-119071595D01*
X63099843Y-119432820D01*
X63235608Y-119761397D01*
X63100158Y-120087595D01*
X63099843Y-120448820D01*
X63237786Y-120782669D01*
X63492988Y-121038316D01*
X63826595Y-121176842D01*
X63879270Y-121176888D01*
X64143382Y-121441000D01*
X62152618Y-121441000D01*
X61868112Y-121156494D01*
X61868157Y-121105180D01*
X61730214Y-120771331D01*
X61475012Y-120515684D01*
X61141405Y-120377158D01*
X60780180Y-120376843D01*
X60446331Y-120514786D01*
X60190684Y-120769988D01*
X60052158Y-121103595D01*
X60051843Y-121464820D01*
X60189786Y-121798669D01*
X60444988Y-122054316D01*
X60778595Y-122192842D01*
X60831270Y-122192888D01*
X61330691Y-122692309D01*
X61568493Y-122851204D01*
X61849000Y-122907000D01*
X64085382Y-122907000D01*
X68101000Y-126922618D01*
X68101000Y-127771568D01*
X67837705Y-127662238D01*
X67292686Y-127661763D01*
X66788971Y-127869893D01*
X66403248Y-128254944D01*
X66194238Y-128758295D01*
X66193763Y-129303314D01*
X66401893Y-129807029D01*
X66786944Y-130192752D01*
X67050067Y-130302011D01*
X66788971Y-130409893D01*
X66403248Y-130794944D01*
X66194238Y-131298295D01*
X66193763Y-131843314D01*
X66401893Y-132347029D01*
X66786944Y-132732752D01*
X67290295Y-132941762D01*
X67835314Y-132942237D01*
X68339029Y-132734107D01*
X68724752Y-132349056D01*
X68834011Y-132085933D01*
X68941893Y-132347029D01*
X69326944Y-132732752D01*
X69830295Y-132941762D01*
X70375314Y-132942237D01*
X70879029Y-132734107D01*
X71173478Y-132440170D01*
X71993619Y-132440170D01*
X72078110Y-132612882D01*
X72519514Y-132750207D01*
X72979870Y-132708159D01*
X73209890Y-132612882D01*
X73294381Y-132440170D01*
X72644000Y-131789789D01*
X71993619Y-132440170D01*
X71173478Y-132440170D01*
X71264752Y-132349056D01*
X71473762Y-131845705D01*
X71474030Y-131537700D01*
X71507841Y-131907870D01*
X71603118Y-132137890D01*
X71775830Y-132222381D01*
X72426211Y-131572000D01*
X72412069Y-131557858D01*
X72629858Y-131340069D01*
X72644000Y-131354211D01*
X72658142Y-131340069D01*
X72875931Y-131557858D01*
X72861789Y-131572000D01*
X73512170Y-132222381D01*
X73684882Y-132137890D01*
X73813868Y-131723291D01*
X73813763Y-131843314D01*
X74021893Y-132347029D01*
X74406944Y-132732752D01*
X74910295Y-132941762D01*
X75455314Y-132942237D01*
X75959029Y-132734107D01*
X76344752Y-132349056D01*
X76553762Y-131845705D01*
X76554237Y-131300686D01*
X76425893Y-130990067D01*
X76480507Y-130979204D01*
X76718309Y-130820309D01*
X78848309Y-128690309D01*
X79007204Y-128452507D01*
X79063000Y-128172000D01*
X79063000Y-128169473D01*
X79105029Y-128152107D01*
X79490752Y-127767056D01*
X79699762Y-127263705D01*
X79700237Y-126718686D01*
X79492107Y-126214971D01*
X79107056Y-125829248D01*
X78843933Y-125719989D01*
X79105029Y-125612107D01*
X79490752Y-125227056D01*
X79699762Y-124723705D01*
X79700237Y-124178686D01*
X79666912Y-124098033D01*
X79808820Y-124098157D01*
X80142669Y-123960214D01*
X80398316Y-123705012D01*
X80536842Y-123371405D01*
X80537157Y-123010180D01*
X80399214Y-122676331D01*
X80144012Y-122420684D01*
X79810405Y-122282158D01*
X79658936Y-122282026D01*
X79699762Y-122183705D01*
X79700237Y-121638686D01*
X79492107Y-121134971D01*
X79107056Y-120749248D01*
X78843933Y-120639989D01*
X79105029Y-120532107D01*
X79490752Y-120147056D01*
X79699762Y-119643705D01*
X79700237Y-119098686D01*
X79492107Y-118594971D01*
X79107056Y-118209248D01*
X78843933Y-118099989D01*
X79105029Y-117992107D01*
X79490752Y-117607056D01*
X79699762Y-117103705D01*
X79700237Y-116558686D01*
X79492107Y-116054971D01*
X79107056Y-115669248D01*
X78843933Y-115559989D01*
X79105029Y-115452107D01*
X79490752Y-115067056D01*
X79699762Y-114563705D01*
X79700237Y-114018686D01*
X79492107Y-113514971D01*
X79107056Y-113129248D01*
X78603705Y-112920238D01*
X78058686Y-112919763D01*
X77554971Y-113127893D01*
X77169248Y-113512944D01*
X77150954Y-113557000D01*
X76718000Y-113557000D01*
X76554177Y-113589586D01*
X76554237Y-113520686D01*
X76516789Y-113430055D01*
X76633820Y-113430157D01*
X76967669Y-113292214D01*
X77223316Y-113037012D01*
X77361842Y-112703405D01*
X77362157Y-112342180D01*
X77224214Y-112008331D01*
X76969012Y-111752684D01*
X76635405Y-111614158D01*
X76517076Y-111614055D01*
X76553762Y-111525705D01*
X76554237Y-110980686D01*
X76346107Y-110476971D01*
X75961056Y-110091248D01*
X75697933Y-109981989D01*
X75959029Y-109874107D01*
X76344752Y-109489056D01*
X76553762Y-108985705D01*
X76553848Y-108886770D01*
X77353309Y-108087309D01*
X77512204Y-107849507D01*
X77568000Y-107569000D01*
X77568000Y-98298000D01*
X77512204Y-98017493D01*
X77353309Y-97779691D01*
X76350010Y-96776392D01*
X76553762Y-96285705D01*
X76553843Y-96191820D01*
X76815843Y-96191820D01*
X76953786Y-96525669D01*
X77208988Y-96781316D01*
X77542595Y-96919842D01*
X77903820Y-96920157D01*
X78237669Y-96782214D01*
X78274948Y-96745000D01*
X79248000Y-96745000D01*
X79528507Y-96689204D01*
X79753140Y-96539108D01*
X79808820Y-96539157D01*
X80142669Y-96401214D01*
X80398316Y-96146012D01*
X80536842Y-95812405D01*
X80537157Y-95451180D01*
X80399214Y-95117331D01*
X80144012Y-94861684D01*
X79810405Y-94723158D01*
X79449180Y-94722843D01*
X79115331Y-94860786D01*
X78859684Y-95115988D01*
X78791995Y-95279000D01*
X78275265Y-95279000D01*
X78239012Y-95242684D01*
X77905405Y-95104158D01*
X77544180Y-95103843D01*
X77210331Y-95241786D01*
X76954684Y-95496988D01*
X76816158Y-95830595D01*
X76815843Y-96191820D01*
X76553843Y-96191820D01*
X76554237Y-95740686D01*
X76346107Y-95236971D01*
X75961056Y-94851248D01*
X75697933Y-94741989D01*
X75959029Y-94634107D01*
X76344752Y-94249056D01*
X76553762Y-93745705D01*
X76554237Y-93200686D01*
X76346107Y-92696971D01*
X75961056Y-92311248D01*
X75697933Y-92201989D01*
X75959029Y-92094107D01*
X76344752Y-91709056D01*
X76553762Y-91205705D01*
X76554237Y-90660686D01*
X76346107Y-90156971D01*
X75961056Y-89771248D01*
X75457705Y-89562238D01*
X75149700Y-89561970D01*
X75519870Y-89528159D01*
X75749890Y-89432882D01*
X75834381Y-89260170D01*
X75184000Y-88609789D01*
X74533619Y-89260170D01*
X74618110Y-89432882D01*
X75032709Y-89561868D01*
X74912686Y-89561763D01*
X74408971Y-89769893D01*
X74023248Y-90154944D01*
X73913989Y-90418067D01*
X73806107Y-90156971D01*
X73421056Y-89771248D01*
X73157933Y-89661989D01*
X73419029Y-89554107D01*
X73804752Y-89169056D01*
X74013762Y-88665705D01*
X74014030Y-88357700D01*
X74047841Y-88727870D01*
X74143118Y-88957890D01*
X74315830Y-89042381D01*
X74966211Y-88392000D01*
X75401789Y-88392000D01*
X76052170Y-89042381D01*
X76224882Y-88957890D01*
X76362207Y-88516486D01*
X76320159Y-88056130D01*
X76224882Y-87826110D01*
X76052170Y-87741619D01*
X75401789Y-88392000D01*
X74966211Y-88392000D01*
X74315830Y-87741619D01*
X74143118Y-87826110D01*
X74014132Y-88240709D01*
X74014237Y-88120686D01*
X73806107Y-87616971D01*
X73421056Y-87231248D01*
X73157933Y-87121989D01*
X73419029Y-87014107D01*
X73804752Y-86629056D01*
X73914011Y-86365933D01*
X74021893Y-86627029D01*
X74406944Y-87012752D01*
X74910295Y-87221762D01*
X75218300Y-87222030D01*
X74848130Y-87255841D01*
X74618110Y-87351118D01*
X74533619Y-87523830D01*
X75184000Y-88174211D01*
X75834381Y-87523830D01*
X75749890Y-87351118D01*
X75335291Y-87222132D01*
X75455314Y-87222237D01*
X75959029Y-87014107D01*
X76344752Y-86629056D01*
X76363046Y-86585000D01*
X77420382Y-86585000D01*
X77753000Y-86917618D01*
X77753000Y-90126735D01*
X77716684Y-90162988D01*
X77578158Y-90496595D01*
X77577843Y-90857820D01*
X77715786Y-91191669D01*
X77970988Y-91447316D01*
X78304595Y-91585842D01*
X78665820Y-91586157D01*
X78999669Y-91448214D01*
X79255316Y-91193012D01*
X79393842Y-90859405D01*
X79394157Y-90498180D01*
X79256214Y-90164331D01*
X79219000Y-90127052D01*
X79219000Y-86614000D01*
X79163204Y-86333493D01*
X79004309Y-86095691D01*
X78242309Y-85333691D01*
X78004507Y-85174796D01*
X77724000Y-85119000D01*
X77198336Y-85119000D01*
X77226309Y-85100309D01*
X79131309Y-83195309D01*
X79290204Y-82957507D01*
X79346000Y-82677000D01*
X79346000Y-78402265D01*
X79382316Y-78366012D01*
X79520842Y-78032405D01*
X79521157Y-77671180D01*
X79383214Y-77337331D01*
X79128012Y-77081684D01*
X78794405Y-76943158D01*
X78433180Y-76942843D01*
X78099331Y-77080786D01*
X77843684Y-77335988D01*
X77705158Y-77669595D01*
X77704843Y-78030820D01*
X77842786Y-78364669D01*
X77880000Y-78401948D01*
X77880000Y-82373382D01*
X76472872Y-83780510D01*
X76553762Y-83585705D01*
X76554237Y-83040686D01*
X76346107Y-82536971D01*
X75961056Y-82151248D01*
X75457705Y-81942238D01*
X74912686Y-81941763D01*
X74408971Y-82149893D01*
X74023248Y-82534944D01*
X73913989Y-82798067D01*
X73806107Y-82536971D01*
X73421056Y-82151248D01*
X72917705Y-81942238D01*
X72372686Y-81941763D01*
X71868971Y-82149893D01*
X71483248Y-82534944D01*
X71274238Y-83038295D01*
X71273763Y-83583314D01*
X71481893Y-84087029D01*
X71866944Y-84472752D01*
X72130067Y-84582011D01*
X71868971Y-84689893D01*
X71483248Y-85074944D01*
X71274238Y-85578295D01*
X71273763Y-86123314D01*
X71481893Y-86627029D01*
X71866944Y-87012752D01*
X72130067Y-87122011D01*
X71868971Y-87229893D01*
X71483248Y-87614944D01*
X71274238Y-88118295D01*
X71273763Y-88663314D01*
X71481893Y-89167029D01*
X71866944Y-89552752D01*
X72130067Y-89662011D01*
X71868971Y-89769893D01*
X71483248Y-90154944D01*
X71341039Y-90497421D01*
X69488112Y-88644494D01*
X69488157Y-88593180D01*
X69350214Y-88259331D01*
X69095012Y-88003684D01*
X68761405Y-87865158D01*
X68400180Y-87864843D01*
X68066331Y-88002786D01*
X67810684Y-88257988D01*
X67672158Y-88591595D01*
X67671843Y-88952820D01*
X67809786Y-89286669D01*
X68064988Y-89542316D01*
X68398595Y-89680842D01*
X68451270Y-89680888D01*
X71490691Y-92720309D01*
X71698747Y-92859328D01*
X71603118Y-92906110D01*
X71465793Y-93347514D01*
X71507841Y-93807870D01*
X71591151Y-94009000D01*
X69999539Y-94009000D01*
X69985214Y-93974331D01*
X69730012Y-93718684D01*
X69396405Y-93580158D01*
X69035180Y-93579843D01*
X68701331Y-93717786D01*
X68445684Y-93972988D01*
X68307158Y-94306595D01*
X68306843Y-94667820D01*
X68444786Y-95001669D01*
X68699988Y-95257316D01*
X69033595Y-95395842D01*
X69153686Y-95395947D01*
X69188493Y-95419204D01*
X69469000Y-95475000D01*
X71383568Y-95475000D01*
X71274238Y-95738295D01*
X71273763Y-96283314D01*
X71311257Y-96374056D01*
X71067180Y-96373843D01*
X70733331Y-96511786D01*
X70477684Y-96766988D01*
X70339158Y-97100595D01*
X70338843Y-97461820D01*
X70467156Y-97772363D01*
X70158405Y-97644158D01*
X69797180Y-97643843D01*
X69463331Y-97781786D01*
X69207684Y-98036988D01*
X69069158Y-98370595D01*
X69068843Y-98731820D01*
X69206786Y-99065669D01*
X69461988Y-99321316D01*
X69795595Y-99459842D01*
X70156820Y-99460157D01*
X70490669Y-99322214D01*
X70527948Y-99285000D01*
X71464527Y-99285000D01*
X71481893Y-99327029D01*
X71866944Y-99712752D01*
X72130067Y-99822011D01*
X71868971Y-99929893D01*
X71483248Y-100314944D01*
X71274238Y-100818295D01*
X71273763Y-101363314D01*
X71481893Y-101867029D01*
X71866944Y-102252752D01*
X72130067Y-102362011D01*
X71868971Y-102469893D01*
X71483248Y-102854944D01*
X71464954Y-102899000D01*
X68961000Y-102899000D01*
X68680493Y-102954796D01*
X68442690Y-103113691D01*
X65902691Y-105653691D01*
X65757000Y-105871732D01*
X65757000Y-99060000D01*
X65701204Y-98779493D01*
X65632377Y-98676486D01*
X65542310Y-98541691D01*
X65297112Y-98296494D01*
X65297157Y-98245180D01*
X65159214Y-97911331D01*
X64904012Y-97655684D01*
X64570405Y-97517158D01*
X64209180Y-97516843D01*
X63875331Y-97654786D01*
X63619684Y-97909988D01*
X63481158Y-98243595D01*
X63480843Y-98604820D01*
X63504014Y-98660899D01*
X63365684Y-98798988D01*
X63227158Y-99132595D01*
X63226843Y-99493820D01*
X63364786Y-99827669D01*
X63402000Y-99864948D01*
X63402000Y-106383379D01*
X63354158Y-106498595D01*
X63353843Y-106859820D01*
X63491786Y-107193669D01*
X63746988Y-107449316D01*
X64080595Y-107587842D01*
X64154305Y-107587906D01*
X64253786Y-107828669D01*
X64508988Y-108084316D01*
X64842595Y-108222842D01*
X64984416Y-108222966D01*
X64847382Y-108360000D01*
X61263618Y-108360000D01*
X60335309Y-107431691D01*
X60097507Y-107272796D01*
X59817000Y-107217000D01*
X57320265Y-107217000D01*
X57284012Y-107180684D01*
X56950405Y-107042158D01*
X56589180Y-107041843D01*
X56255331Y-107179786D01*
X55999684Y-107434988D01*
X55861158Y-107768595D01*
X55860843Y-108129820D01*
X42183000Y-108129820D01*
X42183000Y-87891314D01*
X42669763Y-87891314D01*
X42877893Y-88395029D01*
X43262944Y-88780752D01*
X43526067Y-88890011D01*
X43264971Y-88997893D01*
X42879248Y-89382944D01*
X42670238Y-89886295D01*
X42669763Y-90431314D01*
X42877893Y-90935029D01*
X43262944Y-91320752D01*
X43766295Y-91529762D01*
X44311314Y-91530237D01*
X44815029Y-91322107D01*
X45200752Y-90937056D01*
X45219046Y-90893000D01*
X49225726Y-90893000D01*
X49276000Y-90903000D01*
X49326274Y-90893000D01*
X49757329Y-90893000D01*
X49775786Y-90937669D01*
X50030988Y-91193316D01*
X50364595Y-91331842D01*
X50725820Y-91332157D01*
X51059669Y-91194214D01*
X51315316Y-90939012D01*
X51453842Y-90605405D01*
X51454157Y-90244180D01*
X51316214Y-89910331D01*
X51061012Y-89654684D01*
X50727405Y-89516158D01*
X50612286Y-89516058D01*
X50562507Y-89482796D01*
X50520911Y-89474522D01*
X50520911Y-88765000D01*
X50478516Y-88539689D01*
X50345357Y-88332754D01*
X50142180Y-88193929D01*
X49986725Y-88162449D01*
X50127582Y-88104104D01*
X50240104Y-87991582D01*
X50301000Y-87844565D01*
X50301000Y-87519000D01*
X50201000Y-87419000D01*
X49430000Y-87419000D01*
X49430000Y-87439000D01*
X49122000Y-87439000D01*
X49122000Y-87419000D01*
X48351000Y-87419000D01*
X48251000Y-87519000D01*
X48251000Y-87844565D01*
X48311896Y-87991582D01*
X48424418Y-88104104D01*
X48563234Y-88161603D01*
X48425689Y-88187484D01*
X48218754Y-88320643D01*
X48079929Y-88523820D01*
X48031089Y-88765000D01*
X48031089Y-89427000D01*
X45809619Y-89427000D01*
X46873309Y-88363310D01*
X47032204Y-88125507D01*
X47038114Y-88095796D01*
X47088000Y-87845000D01*
X47088000Y-86685435D01*
X48251000Y-86685435D01*
X48251000Y-87011000D01*
X48351000Y-87111000D01*
X49122000Y-87111000D01*
X49122000Y-86465000D01*
X49430000Y-86465000D01*
X49430000Y-87111000D01*
X50201000Y-87111000D01*
X50301000Y-87011000D01*
X50301000Y-86685435D01*
X50240104Y-86538418D01*
X50127582Y-86425896D01*
X49980565Y-86365000D01*
X49530000Y-86365000D01*
X49430000Y-86465000D01*
X49122000Y-86465000D01*
X49022000Y-86365000D01*
X48571435Y-86365000D01*
X48424418Y-86425896D01*
X48311896Y-86538418D01*
X48251000Y-86685435D01*
X47088000Y-86685435D01*
X47088000Y-82847265D01*
X47124316Y-82811012D01*
X47262842Y-82477405D01*
X47263157Y-82116180D01*
X47125214Y-81782331D01*
X46870012Y-81526684D01*
X46536405Y-81388158D01*
X46175180Y-81387843D01*
X45841331Y-81525786D01*
X45585684Y-81780988D01*
X45447158Y-82114595D01*
X45446843Y-82475820D01*
X45584786Y-82809669D01*
X45622000Y-82846948D01*
X45622000Y-87541381D01*
X45409884Y-87753497D01*
X45410237Y-87348686D01*
X45202107Y-86844971D01*
X44817056Y-86459248D01*
X44313705Y-86250238D01*
X43768686Y-86249763D01*
X43264971Y-86457893D01*
X42879248Y-86842944D01*
X42670238Y-87346295D01*
X42669763Y-87891314D01*
X42183000Y-87891314D01*
X42183000Y-68378820D01*
X46843843Y-68378820D01*
X46981786Y-68712669D01*
X47019000Y-68749948D01*
X47019000Y-80264000D01*
X47074796Y-80544507D01*
X47233691Y-80782309D01*
X48503691Y-82052309D01*
X48741493Y-82211204D01*
X49022000Y-82267000D01*
X55449382Y-82267000D01*
X55479888Y-82297506D01*
X55479843Y-82348820D01*
X55617786Y-82682669D01*
X55872988Y-82938316D01*
X56206595Y-83076842D01*
X56567820Y-83077157D01*
X56901669Y-82939214D01*
X57157316Y-82684012D01*
X57295842Y-82350405D01*
X57296157Y-81989180D01*
X57158214Y-81655331D01*
X56903012Y-81399684D01*
X56569405Y-81261158D01*
X56516730Y-81261112D01*
X56271309Y-81015691D01*
X56033507Y-80856796D01*
X55753000Y-80801000D01*
X49325618Y-80801000D01*
X48485000Y-79960382D01*
X48485000Y-78550000D01*
X48967000Y-78550000D01*
X49133171Y-79385398D01*
X49606386Y-80093614D01*
X50314602Y-80566829D01*
X51150000Y-80733000D01*
X51985398Y-80566829D01*
X52693614Y-80093614D01*
X53166829Y-79385398D01*
X53234176Y-79046820D01*
X73259843Y-79046820D01*
X73397786Y-79380669D01*
X73652988Y-79636316D01*
X73986595Y-79774842D01*
X74347820Y-79775157D01*
X74681669Y-79637214D01*
X74937316Y-79382012D01*
X75075842Y-79048405D01*
X75076110Y-78741508D01*
X77471506Y-76346112D01*
X77522820Y-76346157D01*
X77856669Y-76208214D01*
X78112316Y-75953012D01*
X78250842Y-75619405D01*
X78251157Y-75258180D01*
X78113214Y-74924331D01*
X77858012Y-74668684D01*
X77524405Y-74530158D01*
X77163180Y-74529843D01*
X76829331Y-74667786D01*
X76573684Y-74922988D01*
X76435158Y-75256595D01*
X76435112Y-75309270D01*
X73649691Y-78094691D01*
X73636192Y-78114893D01*
X73398684Y-78351988D01*
X73260158Y-78685595D01*
X73259843Y-79046820D01*
X53234176Y-79046820D01*
X53333000Y-78550000D01*
X53166829Y-77714602D01*
X52693614Y-77006386D01*
X51985398Y-76533171D01*
X51150000Y-76367000D01*
X50314602Y-76533171D01*
X49606386Y-77006386D01*
X49133171Y-77714602D01*
X48967000Y-78550000D01*
X48485000Y-78550000D01*
X48485000Y-68750265D01*
X48521316Y-68714012D01*
X48659842Y-68380405D01*
X48660157Y-68019180D01*
X48522214Y-67685331D01*
X48267012Y-67429684D01*
X47933405Y-67291158D01*
X47572180Y-67290843D01*
X47238331Y-67428786D01*
X46982684Y-67683988D01*
X46844158Y-68017595D01*
X46843843Y-68378820D01*
X42183000Y-68378820D01*
X42183000Y-48260000D01*
X50967489Y-48260000D01*
X50967489Y-50292000D01*
X51009884Y-50517311D01*
X51143043Y-50724246D01*
X51346220Y-50863071D01*
X51587400Y-50911911D01*
X51718000Y-50911911D01*
X51718000Y-73167089D01*
X51587400Y-73167089D01*
X51362089Y-73209484D01*
X51155154Y-73342643D01*
X51016329Y-73545820D01*
X50967489Y-73787000D01*
X50967489Y-75819000D01*
X51009884Y-76044311D01*
X51143043Y-76251246D01*
X51346220Y-76390071D01*
X51587400Y-76438911D01*
X53314600Y-76438911D01*
X53539911Y-76396516D01*
X53746846Y-76263357D01*
X53885671Y-76060180D01*
X53905764Y-75960958D01*
X53950422Y-76027794D01*
X54427843Y-76346797D01*
X54991000Y-76458816D01*
X55554157Y-76346797D01*
X56031578Y-76027794D01*
X56261000Y-75684440D01*
X56490422Y-76027794D01*
X56967843Y-76346797D01*
X57531000Y-76458816D01*
X58094157Y-76346797D01*
X58571578Y-76027794D01*
X58801000Y-75684440D01*
X59030422Y-76027794D01*
X59507843Y-76346797D01*
X60071000Y-76458816D01*
X60634157Y-76346797D01*
X61111578Y-76027794D01*
X61341000Y-75684440D01*
X61570422Y-76027794D01*
X62047843Y-76346797D01*
X62611000Y-76458816D01*
X63174157Y-76346797D01*
X63651578Y-76027794D01*
X63881000Y-75684440D01*
X64110422Y-76027794D01*
X64587843Y-76346797D01*
X65151000Y-76458816D01*
X65714157Y-76346797D01*
X66191578Y-76027794D01*
X66421000Y-75684440D01*
X66650422Y-76027794D01*
X67127843Y-76346797D01*
X67691000Y-76458816D01*
X68254157Y-76346797D01*
X68731578Y-76027794D01*
X68961000Y-75684440D01*
X69190422Y-76027794D01*
X69667843Y-76346797D01*
X70231000Y-76458816D01*
X70794157Y-76346797D01*
X71271578Y-76027794D01*
X71590581Y-75550373D01*
X71702600Y-74987216D01*
X71702600Y-74618784D01*
X71590581Y-74055627D01*
X71271578Y-73578206D01*
X70964000Y-73372689D01*
X70964000Y-56821820D01*
X75164843Y-56821820D01*
X75302786Y-57155669D01*
X75557988Y-57411316D01*
X75891595Y-57549842D01*
X75944270Y-57549888D01*
X77753000Y-59358619D01*
X77753000Y-62694735D01*
X77716684Y-62730988D01*
X77578158Y-63064595D01*
X77577843Y-63425820D01*
X77715786Y-63759669D01*
X77970988Y-64015316D01*
X78304595Y-64153842D01*
X78665820Y-64154157D01*
X78999669Y-64016214D01*
X79255316Y-63761012D01*
X79393842Y-63427405D01*
X79394157Y-63066180D01*
X79256214Y-62732331D01*
X79219000Y-62695052D01*
X79219000Y-59055000D01*
X79163204Y-58774493D01*
X79004309Y-58536690D01*
X76981112Y-56513494D01*
X76981157Y-56462180D01*
X76843214Y-56128331D01*
X76588012Y-55872684D01*
X76254405Y-55734158D01*
X75893180Y-55733843D01*
X75559331Y-55871786D01*
X75303684Y-56126988D01*
X75165158Y-56460595D01*
X75164843Y-56821820D01*
X70964000Y-56821820D01*
X70964000Y-51781059D01*
X72034330Y-51781059D01*
X72106401Y-51943422D01*
X72511339Y-52063936D01*
X72931570Y-52020312D01*
X73117199Y-51943422D01*
X73189270Y-51781059D01*
X73145521Y-51737310D01*
X74091580Y-51737310D01*
X74284518Y-52204258D01*
X74641463Y-52561826D01*
X75108073Y-52755579D01*
X75613310Y-52756020D01*
X76080258Y-52563082D01*
X76437826Y-52206137D01*
X76631579Y-51739527D01*
X76632017Y-51237310D01*
X76841580Y-51237310D01*
X77034518Y-51704258D01*
X77391463Y-52061826D01*
X77858073Y-52255579D01*
X78363310Y-52256020D01*
X78830258Y-52063082D01*
X79187826Y-51706137D01*
X79381579Y-51239527D01*
X79382020Y-50734290D01*
X79189082Y-50267342D01*
X78832137Y-49909774D01*
X78365527Y-49716021D01*
X77860290Y-49715580D01*
X77393342Y-49908518D01*
X77035774Y-50265463D01*
X76842021Y-50732073D01*
X76841580Y-51237310D01*
X76632017Y-51237310D01*
X76632020Y-51234290D01*
X76439082Y-50767342D01*
X76082137Y-50409774D01*
X75615527Y-50216021D01*
X75110290Y-50215580D01*
X74643342Y-50408518D01*
X74285774Y-50765463D01*
X74092021Y-51232073D01*
X74091580Y-51737310D01*
X73145521Y-51737310D01*
X72611800Y-51203589D01*
X72034330Y-51781059D01*
X70964000Y-51781059D01*
X70964000Y-50885339D01*
X71533664Y-50885339D01*
X71577288Y-51305570D01*
X71654178Y-51491199D01*
X71816541Y-51563270D01*
X72394011Y-50985800D01*
X72829589Y-50985800D01*
X73407059Y-51563270D01*
X73569422Y-51491199D01*
X73689936Y-51086261D01*
X73646312Y-50666030D01*
X73569422Y-50480401D01*
X73407059Y-50408330D01*
X72829589Y-50985800D01*
X72394011Y-50985800D01*
X71816541Y-50408330D01*
X71654178Y-50480401D01*
X71533664Y-50885339D01*
X70964000Y-50885339D01*
X70964000Y-50706311D01*
X71271578Y-50500794D01*
X71478882Y-50190541D01*
X72034330Y-50190541D01*
X72611800Y-50768011D01*
X73189270Y-50190541D01*
X73117199Y-50028178D01*
X72712261Y-49907664D01*
X72292030Y-49951288D01*
X72106401Y-50028178D01*
X72034330Y-50190541D01*
X71478882Y-50190541D01*
X71590581Y-50023373D01*
X71702600Y-49460216D01*
X71702600Y-49091784D01*
X71590581Y-48528627D01*
X71271578Y-48051206D01*
X70794157Y-47732203D01*
X70231000Y-47620184D01*
X69694000Y-47727000D01*
X69694000Y-44398014D01*
X69855669Y-44331214D01*
X70111316Y-44076012D01*
X70249842Y-43742405D01*
X70250157Y-43381180D01*
X70190712Y-43237310D01*
X70841580Y-43237310D01*
X71034518Y-43704258D01*
X71391463Y-44061826D01*
X71858073Y-44255579D01*
X72363310Y-44256020D01*
X72830258Y-44063082D01*
X73187826Y-43706137D01*
X73381579Y-43239527D01*
X73381580Y-43237310D01*
X77341580Y-43237310D01*
X77534518Y-43704258D01*
X77891463Y-44061826D01*
X78358073Y-44255579D01*
X78863310Y-44256020D01*
X79330258Y-44063082D01*
X79687826Y-43706137D01*
X79881579Y-43239527D01*
X79882020Y-42734290D01*
X79689082Y-42267342D01*
X79332137Y-41909774D01*
X78865527Y-41716021D01*
X78360290Y-41715580D01*
X77893342Y-41908518D01*
X77535774Y-42265463D01*
X77342021Y-42732073D01*
X77341580Y-43237310D01*
X73381580Y-43237310D01*
X73382020Y-42734290D01*
X73189082Y-42267342D01*
X72832137Y-41909774D01*
X72365527Y-41716021D01*
X71860290Y-41715580D01*
X71393342Y-41908518D01*
X71035774Y-42265463D01*
X70842021Y-42732073D01*
X70841580Y-43237310D01*
X70190712Y-43237310D01*
X70112214Y-43047331D01*
X69857012Y-42791684D01*
X69523405Y-42653158D01*
X69162180Y-42652843D01*
X68828331Y-42790786D01*
X68572684Y-43045988D01*
X68434158Y-43379595D01*
X68434108Y-43436536D01*
X68283796Y-43661493D01*
X68228000Y-43942000D01*
X68228000Y-47727000D01*
X67691000Y-47620184D01*
X67154000Y-47727000D01*
X67154000Y-45642618D01*
X67184617Y-45612002D01*
X67362820Y-45612157D01*
X67696669Y-45474214D01*
X67952316Y-45219012D01*
X68090842Y-44885405D01*
X68091157Y-44524180D01*
X67953214Y-44190331D01*
X67698012Y-43934684D01*
X67364405Y-43796158D01*
X67003180Y-43795843D01*
X66669331Y-43933786D01*
X66413684Y-44188988D01*
X66327969Y-44395412D01*
X65902691Y-44820691D01*
X65743796Y-45058493D01*
X65688000Y-45339000D01*
X65688000Y-47727000D01*
X65151000Y-47620184D01*
X64587843Y-47732203D01*
X64110422Y-48051206D01*
X63881000Y-48394560D01*
X63651578Y-48051206D01*
X63174157Y-47732203D01*
X62611000Y-47620184D01*
X62047843Y-47732203D01*
X61570422Y-48051206D01*
X61341000Y-48394560D01*
X61111578Y-48051206D01*
X60634157Y-47732203D01*
X60071000Y-47620184D01*
X59507843Y-47732203D01*
X59030422Y-48051206D01*
X58801000Y-48394560D01*
X58571578Y-48051206D01*
X58094157Y-47732203D01*
X57531000Y-47620184D01*
X56967843Y-47732203D01*
X56490422Y-48051206D01*
X56261000Y-48394560D01*
X56031578Y-48051206D01*
X55554157Y-47732203D01*
X54991000Y-47620184D01*
X54427843Y-47732203D01*
X53950422Y-48051206D01*
X53907352Y-48115664D01*
X53892116Y-48034689D01*
X53758957Y-47827754D01*
X53555780Y-47688929D01*
X53314600Y-47640089D01*
X51587400Y-47640089D01*
X51362089Y-47682484D01*
X51155154Y-47815643D01*
X51016329Y-48018820D01*
X50967489Y-48260000D01*
X42183000Y-48260000D01*
X42183000Y-43067267D01*
X42250748Y-42726674D01*
X44226674Y-40750748D01*
X44567268Y-40683000D01*
X78432733Y-40683000D01*
X78851969Y-40766391D01*
X78851969Y-40766391D01*
G37*
X78851969Y-40766391D02*
X80733609Y-42648031D01*
X80817000Y-43067268D01*
X80817000Y-136932732D01*
X80743789Y-137300789D01*
X78800789Y-139243789D01*
X78432733Y-139317000D01*
X44567268Y-139317000D01*
X44277854Y-139259432D01*
X42240568Y-137222146D01*
X42183000Y-136932733D01*
X42183000Y-136450000D01*
X48917000Y-136450000D01*
X49083171Y-137285398D01*
X49556386Y-137993614D01*
X50264602Y-138466829D01*
X51100000Y-138633000D01*
X51935398Y-138466829D01*
X52643614Y-137993614D01*
X53116829Y-137285398D01*
X53283000Y-136450000D01*
X53116829Y-135614602D01*
X52923324Y-135325000D01*
X57870089Y-135325000D01*
X57870089Y-137725000D01*
X57912484Y-137950311D01*
X58045643Y-138157246D01*
X58248820Y-138296071D01*
X58490000Y-138344911D01*
X60890000Y-138344911D01*
X61115311Y-138302516D01*
X61322246Y-138169357D01*
X61461071Y-137966180D01*
X61509911Y-137725000D01*
X61509911Y-137193382D01*
X61656358Y-137547812D01*
X62164513Y-138056854D01*
X62828789Y-138332686D01*
X63548056Y-138333313D01*
X64212812Y-138058642D01*
X64721854Y-137550487D01*
X64997686Y-136886211D01*
X64998066Y-136450000D01*
X71117000Y-136450000D01*
X71283171Y-137285398D01*
X71756386Y-137993614D01*
X72464602Y-138466829D01*
X73300000Y-138633000D01*
X74135398Y-138466829D01*
X74843614Y-137993614D01*
X75316829Y-137285398D01*
X75483000Y-136450000D01*
X75316829Y-135614602D01*
X74843614Y-134906386D01*
X74135398Y-134433171D01*
X73300000Y-134267000D01*
X72464602Y-134433171D01*
X71756386Y-134906386D01*
X71283171Y-135614602D01*
X71117000Y-136450000D01*
X64998066Y-136450000D01*
X64998313Y-136166944D01*
X64723642Y-135502188D01*
X64215487Y-134993146D01*
X63551211Y-134717314D01*
X62831944Y-134716687D01*
X62167188Y-134991358D01*
X61658146Y-135499513D01*
X61509911Y-135856502D01*
X61509911Y-135325000D01*
X61467516Y-135099689D01*
X61334357Y-134892754D01*
X61131180Y-134753929D01*
X60890000Y-134705089D01*
X58490000Y-134705089D01*
X58264689Y-134747484D01*
X58057754Y-134880643D01*
X57918929Y-135083820D01*
X57870089Y-135325000D01*
X52923324Y-135325000D01*
X52643614Y-134906386D01*
X51935398Y-134433171D01*
X51100000Y-134267000D01*
X50264602Y-134433171D01*
X49556386Y-134906386D01*
X49083171Y-135614602D01*
X48917000Y-136450000D01*
X42183000Y-136450000D01*
X42183000Y-131218940D01*
X51826926Y-131218940D01*
X51949289Y-131834100D01*
X52297749Y-132355607D01*
X52819256Y-132704067D01*
X53434416Y-132826430D01*
X54007584Y-132826430D01*
X54622744Y-132704067D01*
X55144251Y-132355607D01*
X55492711Y-131834100D01*
X55615074Y-131218940D01*
X55492711Y-130603780D01*
X55144251Y-130082273D01*
X54622744Y-129733813D01*
X54007584Y-129611450D01*
X53434416Y-129611450D01*
X52819256Y-129733813D01*
X52297749Y-130082273D01*
X51949289Y-130603780D01*
X51826926Y-131218940D01*
X42183000Y-131218940D01*
X42183000Y-119641314D01*
X42669763Y-119641314D01*
X42877893Y-120145029D01*
X43262944Y-120530752D01*
X43526067Y-120640011D01*
X43264971Y-120747893D01*
X42879248Y-121132944D01*
X42670238Y-121636295D01*
X42669763Y-122181314D01*
X42877893Y-122685029D01*
X43262944Y-123070752D01*
X43526067Y-123180011D01*
X43264971Y-123287893D01*
X42879248Y-123672944D01*
X42670238Y-124176295D01*
X42669763Y-124721314D01*
X42877893Y-125225029D01*
X43262944Y-125610752D01*
X43526067Y-125720011D01*
X43264971Y-125827893D01*
X42879248Y-126212944D01*
X42670238Y-126716295D01*
X42669763Y-127261314D01*
X42877893Y-127765029D01*
X43262944Y-128150752D01*
X43526067Y-128260011D01*
X43264971Y-128367893D01*
X42879248Y-128752944D01*
X42670238Y-129256295D01*
X42669763Y-129801314D01*
X42877893Y-130305029D01*
X43262944Y-130690752D01*
X43766295Y-130899762D01*
X44311314Y-130900237D01*
X44815029Y-130692107D01*
X45200752Y-130307056D01*
X45409762Y-129803705D01*
X45410237Y-129258686D01*
X45202107Y-128754971D01*
X44817056Y-128369248D01*
X44553933Y-128259989D01*
X44815029Y-128152107D01*
X45200752Y-127767056D01*
X45409762Y-127263705D01*
X45410237Y-126718686D01*
X45252553Y-126337060D01*
X51826926Y-126337060D01*
X51949289Y-126952220D01*
X52297749Y-127473727D01*
X52819256Y-127822187D01*
X53434416Y-127944550D01*
X54007584Y-127944550D01*
X54622744Y-127822187D01*
X55144251Y-127473727D01*
X55492711Y-126952220D01*
X55615074Y-126337060D01*
X55492711Y-125721900D01*
X55144251Y-125200393D01*
X54622744Y-124851933D01*
X54007584Y-124729570D01*
X53434416Y-124729570D01*
X52819256Y-124851933D01*
X52297749Y-125200393D01*
X51949289Y-125721900D01*
X51826926Y-126337060D01*
X45252553Y-126337060D01*
X45202107Y-126214971D01*
X44817056Y-125829248D01*
X44553933Y-125719989D01*
X44815029Y-125612107D01*
X45200752Y-125227056D01*
X45409762Y-124723705D01*
X45410237Y-124178686D01*
X45338398Y-124004820D01*
X56311843Y-124004820D01*
X56449786Y-124338669D01*
X56704988Y-124594316D01*
X57038595Y-124732842D01*
X57399820Y-124733157D01*
X57733669Y-124595214D01*
X57770948Y-124558000D01*
X58249735Y-124558000D01*
X58285988Y-124594316D01*
X58619595Y-124732842D01*
X58980820Y-124733157D01*
X59314669Y-124595214D01*
X59570316Y-124340012D01*
X59708842Y-124006405D01*
X59709157Y-123645180D01*
X59571214Y-123311331D01*
X59316012Y-123055684D01*
X58982405Y-122917158D01*
X58621180Y-122916843D01*
X58287331Y-123054786D01*
X58250052Y-123092000D01*
X57771265Y-123092000D01*
X57735012Y-123055684D01*
X57401405Y-122917158D01*
X57040180Y-122916843D01*
X56706331Y-123054786D01*
X56450684Y-123309988D01*
X56312158Y-123643595D01*
X56311843Y-124004820D01*
X45338398Y-124004820D01*
X45202107Y-123674971D01*
X44817056Y-123289248D01*
X44553933Y-123179989D01*
X44815029Y-123072107D01*
X45200752Y-122687056D01*
X45409762Y-122183705D01*
X45410237Y-121638686D01*
X45202107Y-121134971D01*
X44817056Y-120749248D01*
X44553933Y-120639989D01*
X44815029Y-120532107D01*
X45200752Y-120147056D01*
X45409762Y-119643705D01*
X45410237Y-119098686D01*
X45202107Y-118594971D01*
X44817056Y-118209248D01*
X44313705Y-118000238D01*
X43768686Y-117999763D01*
X43264971Y-118207893D01*
X42879248Y-118592944D01*
X42670238Y-119096295D01*
X42669763Y-119641314D01*
X42183000Y-119641314D01*
X42183000Y-108129820D01*
X55860843Y-108129820D01*
X55998786Y-108463669D01*
X56253988Y-108719316D01*
X56587595Y-108857842D01*
X56948820Y-108858157D01*
X57282669Y-108720214D01*
X57319948Y-108683000D01*
X59513382Y-108683000D01*
X60441691Y-109611309D01*
X60679493Y-109770204D01*
X60960000Y-109826000D01*
X65151000Y-109826000D01*
X65431507Y-109770204D01*
X65669309Y-109611309D01*
X66939309Y-108341309D01*
X67098204Y-108103507D01*
X67120343Y-107992204D01*
X67154000Y-107823000D01*
X67154000Y-106475618D01*
X69264619Y-104365000D01*
X71464527Y-104365000D01*
X71481893Y-104407029D01*
X71866944Y-104792752D01*
X72130067Y-104902011D01*
X71868971Y-105009893D01*
X71483248Y-105394944D01*
X71274238Y-105898295D01*
X71273763Y-106443314D01*
X71481893Y-106947029D01*
X71866944Y-107332752D01*
X72130067Y-107442011D01*
X71868971Y-107549893D01*
X71483248Y-107934944D01*
X71274238Y-108438295D01*
X71273773Y-108972155D01*
X71218000Y-108916382D01*
X71218000Y-105918000D01*
X71162204Y-105637493D01*
X71003310Y-105399691D01*
X70758112Y-105154494D01*
X70758157Y-105103180D01*
X70620214Y-104769331D01*
X70365012Y-104513684D01*
X70031405Y-104375158D01*
X69670180Y-104374843D01*
X69336331Y-104512786D01*
X69080684Y-104767988D01*
X68942158Y-105101595D01*
X68941843Y-105462820D01*
X69079786Y-105796669D01*
X69334988Y-106052316D01*
X69668595Y-106190842D01*
X69721269Y-106190888D01*
X69752000Y-106221619D01*
X69752000Y-109220000D01*
X69807796Y-109500507D01*
X69966691Y-109738309D01*
X70728691Y-110500309D01*
X70966493Y-110659204D01*
X71247000Y-110715000D01*
X71383568Y-110715000D01*
X71274238Y-110978295D01*
X71273763Y-111523314D01*
X71383542Y-111789000D01*
X64157539Y-111789000D01*
X64143214Y-111754331D01*
X63888012Y-111498684D01*
X63554405Y-111360158D01*
X63193180Y-111359843D01*
X62859331Y-111497786D01*
X62603684Y-111752988D01*
X62465158Y-112086595D01*
X62464843Y-112447820D01*
X62602786Y-112781669D01*
X62857988Y-113037316D01*
X63191595Y-113175842D01*
X63311686Y-113175947D01*
X63346493Y-113199204D01*
X63627000Y-113255000D01*
X71594130Y-113255000D01*
X71465793Y-113667514D01*
X71507841Y-114127870D01*
X71591151Y-114329000D01*
X60833000Y-114329000D01*
X60552493Y-114384796D01*
X60327859Y-114534892D01*
X60272180Y-114534843D01*
X59938331Y-114672786D01*
X59682684Y-114927988D01*
X59544158Y-115261595D01*
X59543843Y-115622820D01*
X59638951Y-115853000D01*
X59055000Y-115853000D01*
X58774493Y-115908796D01*
X58536691Y-116067691D01*
X57021494Y-117582888D01*
X56970180Y-117582843D01*
X56636331Y-117720786D01*
X56380684Y-117975988D01*
X56242158Y-118309595D01*
X56241843Y-118670820D01*
X56379786Y-119004669D01*
X56634988Y-119260316D01*
X56935089Y-119384929D01*
X56935089Y-120005000D01*
X56977484Y-120230311D01*
X57110643Y-120437246D01*
X57313820Y-120576071D01*
X57555000Y-120624911D01*
X58555000Y-120624911D01*
X58780311Y-120582516D01*
X58987246Y-120449357D01*
X59126071Y-120246180D01*
X59157551Y-120090725D01*
X59215896Y-120231582D01*
X59328418Y-120344104D01*
X59475435Y-120405000D01*
X59801000Y-120405000D01*
X59901000Y-120305000D01*
X59901000Y-119534000D01*
X60209000Y-119534000D01*
X60209000Y-120305000D01*
X60309000Y-120405000D01*
X60634565Y-120405000D01*
X60781582Y-120344104D01*
X60894104Y-120231582D01*
X60955000Y-120084565D01*
X60955000Y-119634000D01*
X60855000Y-119534000D01*
X60209000Y-119534000D01*
X59901000Y-119534000D01*
X59881000Y-119534000D01*
X59881000Y-119226000D01*
X59901000Y-119226000D01*
X59901000Y-118455000D01*
X60209000Y-118455000D01*
X60209000Y-119226000D01*
X60855000Y-119226000D01*
X60955000Y-119126000D01*
X60955000Y-118675435D01*
X60894104Y-118528418D01*
X60781582Y-118415896D01*
X60634565Y-118355000D01*
X60309000Y-118355000D01*
X60209000Y-118455000D01*
X59901000Y-118455000D01*
X59801000Y-118355000D01*
X59475435Y-118355000D01*
X59328418Y-118415896D01*
X59215896Y-118528418D01*
X59158397Y-118667234D01*
X59132516Y-118529689D01*
X58999357Y-118322754D01*
X58796180Y-118183929D01*
X58555000Y-118135089D01*
X58542529Y-118135089D01*
X59358618Y-117319000D01*
X61087000Y-117319000D01*
X61367507Y-117263204D01*
X61576085Y-117123836D01*
X61575843Y-117400820D01*
X61713786Y-117734669D01*
X61968988Y-117990316D01*
X62302595Y-118128842D01*
X62422686Y-118128947D01*
X62457493Y-118152204D01*
X62738000Y-118208000D01*
X63100025Y-118208000D01*
X63099843Y-118416820D01*
X63235608Y-118745397D01*
X63100158Y-119071595D01*
X63099843Y-119432820D01*
X63235608Y-119761397D01*
X63100158Y-120087595D01*
X63099843Y-120448820D01*
X63237786Y-120782669D01*
X63492988Y-121038316D01*
X63826595Y-121176842D01*
X63879270Y-121176888D01*
X64143382Y-121441000D01*
X62152618Y-121441000D01*
X61868112Y-121156494D01*
X61868157Y-121105180D01*
X61730214Y-120771331D01*
X61475012Y-120515684D01*
X61141405Y-120377158D01*
X60780180Y-120376843D01*
X60446331Y-120514786D01*
X60190684Y-120769988D01*
X60052158Y-121103595D01*
X60051843Y-121464820D01*
X60189786Y-121798669D01*
X60444988Y-122054316D01*
X60778595Y-122192842D01*
X60831270Y-122192888D01*
X61330691Y-122692309D01*
X61568493Y-122851204D01*
X61849000Y-122907000D01*
X64085382Y-122907000D01*
X68101000Y-126922618D01*
X68101000Y-127771568D01*
X67837705Y-127662238D01*
X67292686Y-127661763D01*
X66788971Y-127869893D01*
X66403248Y-128254944D01*
X66194238Y-128758295D01*
X66193763Y-129303314D01*
X66401893Y-129807029D01*
X66786944Y-130192752D01*
X67050067Y-130302011D01*
X66788971Y-130409893D01*
X66403248Y-130794944D01*
X66194238Y-131298295D01*
X66193763Y-131843314D01*
X66401893Y-132347029D01*
X66786944Y-132732752D01*
X67290295Y-132941762D01*
X67835314Y-132942237D01*
X68339029Y-132734107D01*
X68724752Y-132349056D01*
X68834011Y-132085933D01*
X68941893Y-132347029D01*
X69326944Y-132732752D01*
X69830295Y-132941762D01*
X70375314Y-132942237D01*
X70879029Y-132734107D01*
X71173478Y-132440170D01*
X71993619Y-132440170D01*
X72078110Y-132612882D01*
X72519514Y-132750207D01*
X72979870Y-132708159D01*
X73209890Y-132612882D01*
X73294381Y-132440170D01*
X72644000Y-131789789D01*
X71993619Y-132440170D01*
X71173478Y-132440170D01*
X71264752Y-132349056D01*
X71473762Y-131845705D01*
X71474030Y-131537700D01*
X71507841Y-131907870D01*
X71603118Y-132137890D01*
X71775830Y-132222381D01*
X72426211Y-131572000D01*
X72412069Y-131557858D01*
X72629858Y-131340069D01*
X72644000Y-131354211D01*
X72658142Y-131340069D01*
X72875931Y-131557858D01*
X72861789Y-131572000D01*
X73512170Y-132222381D01*
X73684882Y-132137890D01*
X73813868Y-131723291D01*
X73813763Y-131843314D01*
X74021893Y-132347029D01*
X74406944Y-132732752D01*
X74910295Y-132941762D01*
X75455314Y-132942237D01*
X75959029Y-132734107D01*
X76344752Y-132349056D01*
X76553762Y-131845705D01*
X76554237Y-131300686D01*
X76425893Y-130990067D01*
X76480507Y-130979204D01*
X76718309Y-130820309D01*
X78848309Y-128690309D01*
X79007204Y-128452507D01*
X79063000Y-128172000D01*
X79063000Y-128169473D01*
X79105029Y-128152107D01*
X79490752Y-127767056D01*
X79699762Y-127263705D01*
X79700237Y-126718686D01*
X79492107Y-126214971D01*
X79107056Y-125829248D01*
X78843933Y-125719989D01*
X79105029Y-125612107D01*
X79490752Y-125227056D01*
X79699762Y-124723705D01*
X79700237Y-124178686D01*
X79666912Y-124098033D01*
X79808820Y-124098157D01*
X80142669Y-123960214D01*
X80398316Y-123705012D01*
X80536842Y-123371405D01*
X80537157Y-123010180D01*
X80399214Y-122676331D01*
X80144012Y-122420684D01*
X79810405Y-122282158D01*
X79658936Y-122282026D01*
X79699762Y-122183705D01*
X79700237Y-121638686D01*
X79492107Y-121134971D01*
X79107056Y-120749248D01*
X78843933Y-120639989D01*
X79105029Y-120532107D01*
X79490752Y-120147056D01*
X79699762Y-119643705D01*
X79700237Y-119098686D01*
X79492107Y-118594971D01*
X79107056Y-118209248D01*
X78843933Y-118099989D01*
X79105029Y-117992107D01*
X79490752Y-117607056D01*
X79699762Y-117103705D01*
X79700237Y-116558686D01*
X79492107Y-116054971D01*
X79107056Y-115669248D01*
X78843933Y-115559989D01*
X79105029Y-115452107D01*
X79490752Y-115067056D01*
X79699762Y-114563705D01*
X79700237Y-114018686D01*
X79492107Y-113514971D01*
X79107056Y-113129248D01*
X78603705Y-112920238D01*
X78058686Y-112919763D01*
X77554971Y-113127893D01*
X77169248Y-113512944D01*
X77150954Y-113557000D01*
X76718000Y-113557000D01*
X76554177Y-113589586D01*
X76554237Y-113520686D01*
X76516789Y-113430055D01*
X76633820Y-113430157D01*
X76967669Y-113292214D01*
X77223316Y-113037012D01*
X77361842Y-112703405D01*
X77362157Y-112342180D01*
X77224214Y-112008331D01*
X76969012Y-111752684D01*
X76635405Y-111614158D01*
X76517076Y-111614055D01*
X76553762Y-111525705D01*
X76554237Y-110980686D01*
X76346107Y-110476971D01*
X75961056Y-110091248D01*
X75697933Y-109981989D01*
X75959029Y-109874107D01*
X76344752Y-109489056D01*
X76553762Y-108985705D01*
X76553848Y-108886770D01*
X77353309Y-108087309D01*
X77512204Y-107849507D01*
X77568000Y-107569000D01*
X77568000Y-98298000D01*
X77512204Y-98017493D01*
X77353309Y-97779691D01*
X76350010Y-96776392D01*
X76553762Y-96285705D01*
X76553843Y-96191820D01*
X76815843Y-96191820D01*
X76953786Y-96525669D01*
X77208988Y-96781316D01*
X77542595Y-96919842D01*
X77903820Y-96920157D01*
X78237669Y-96782214D01*
X78274948Y-96745000D01*
X79248000Y-96745000D01*
X79528507Y-96689204D01*
X79753140Y-96539108D01*
X79808820Y-96539157D01*
X80142669Y-96401214D01*
X80398316Y-96146012D01*
X80536842Y-95812405D01*
X80537157Y-95451180D01*
X80399214Y-95117331D01*
X80144012Y-94861684D01*
X79810405Y-94723158D01*
X79449180Y-94722843D01*
X79115331Y-94860786D01*
X78859684Y-95115988D01*
X78791995Y-95279000D01*
X78275265Y-95279000D01*
X78239012Y-95242684D01*
X77905405Y-95104158D01*
X77544180Y-95103843D01*
X77210331Y-95241786D01*
X76954684Y-95496988D01*
X76816158Y-95830595D01*
X76815843Y-96191820D01*
X76553843Y-96191820D01*
X76554237Y-95740686D01*
X76346107Y-95236971D01*
X75961056Y-94851248D01*
X75697933Y-94741989D01*
X75959029Y-94634107D01*
X76344752Y-94249056D01*
X76553762Y-93745705D01*
X76554237Y-93200686D01*
X76346107Y-92696971D01*
X75961056Y-92311248D01*
X75697933Y-92201989D01*
X75959029Y-92094107D01*
X76344752Y-91709056D01*
X76553762Y-91205705D01*
X76554237Y-90660686D01*
X76346107Y-90156971D01*
X75961056Y-89771248D01*
X75457705Y-89562238D01*
X75149700Y-89561970D01*
X75519870Y-89528159D01*
X75749890Y-89432882D01*
X75834381Y-89260170D01*
X75184000Y-88609789D01*
X74533619Y-89260170D01*
X74618110Y-89432882D01*
X75032709Y-89561868D01*
X74912686Y-89561763D01*
X74408971Y-89769893D01*
X74023248Y-90154944D01*
X73913989Y-90418067D01*
X73806107Y-90156971D01*
X73421056Y-89771248D01*
X73157933Y-89661989D01*
X73419029Y-89554107D01*
X73804752Y-89169056D01*
X74013762Y-88665705D01*
X74014030Y-88357700D01*
X74047841Y-88727870D01*
X74143118Y-88957890D01*
X74315830Y-89042381D01*
X74966211Y-88392000D01*
X75401789Y-88392000D01*
X76052170Y-89042381D01*
X76224882Y-88957890D01*
X76362207Y-88516486D01*
X76320159Y-88056130D01*
X76224882Y-87826110D01*
X76052170Y-87741619D01*
X75401789Y-88392000D01*
X74966211Y-88392000D01*
X74315830Y-87741619D01*
X74143118Y-87826110D01*
X74014132Y-88240709D01*
X74014237Y-88120686D01*
X73806107Y-87616971D01*
X73421056Y-87231248D01*
X73157933Y-87121989D01*
X73419029Y-87014107D01*
X73804752Y-86629056D01*
X73914011Y-86365933D01*
X74021893Y-86627029D01*
X74406944Y-87012752D01*
X74910295Y-87221762D01*
X75218300Y-87222030D01*
X74848130Y-87255841D01*
X74618110Y-87351118D01*
X74533619Y-87523830D01*
X75184000Y-88174211D01*
X75834381Y-87523830D01*
X75749890Y-87351118D01*
X75335291Y-87222132D01*
X75455314Y-87222237D01*
X75959029Y-87014107D01*
X76344752Y-86629056D01*
X76363046Y-86585000D01*
X77420382Y-86585000D01*
X77753000Y-86917618D01*
X77753000Y-90126735D01*
X77716684Y-90162988D01*
X77578158Y-90496595D01*
X77577843Y-90857820D01*
X77715786Y-91191669D01*
X77970988Y-91447316D01*
X78304595Y-91585842D01*
X78665820Y-91586157D01*
X78999669Y-91448214D01*
X79255316Y-91193012D01*
X79393842Y-90859405D01*
X79394157Y-90498180D01*
X79256214Y-90164331D01*
X79219000Y-90127052D01*
X79219000Y-86614000D01*
X79163204Y-86333493D01*
X79004309Y-86095691D01*
X78242309Y-85333691D01*
X78004507Y-85174796D01*
X77724000Y-85119000D01*
X77198336Y-85119000D01*
X77226309Y-85100309D01*
X79131309Y-83195309D01*
X79290204Y-82957507D01*
X79346000Y-82677000D01*
X79346000Y-78402265D01*
X79382316Y-78366012D01*
X79520842Y-78032405D01*
X79521157Y-77671180D01*
X79383214Y-77337331D01*
X79128012Y-77081684D01*
X78794405Y-76943158D01*
X78433180Y-76942843D01*
X78099331Y-77080786D01*
X77843684Y-77335988D01*
X77705158Y-77669595D01*
X77704843Y-78030820D01*
X77842786Y-78364669D01*
X77880000Y-78401948D01*
X77880000Y-82373382D01*
X76472872Y-83780510D01*
X76553762Y-83585705D01*
X76554237Y-83040686D01*
X76346107Y-82536971D01*
X75961056Y-82151248D01*
X75457705Y-81942238D01*
X74912686Y-81941763D01*
X74408971Y-82149893D01*
X74023248Y-82534944D01*
X73913989Y-82798067D01*
X73806107Y-82536971D01*
X73421056Y-82151248D01*
X72917705Y-81942238D01*
X72372686Y-81941763D01*
X71868971Y-82149893D01*
X71483248Y-82534944D01*
X71274238Y-83038295D01*
X71273763Y-83583314D01*
X71481893Y-84087029D01*
X71866944Y-84472752D01*
X72130067Y-84582011D01*
X71868971Y-84689893D01*
X71483248Y-85074944D01*
X71274238Y-85578295D01*
X71273763Y-86123314D01*
X71481893Y-86627029D01*
X71866944Y-87012752D01*
X72130067Y-87122011D01*
X71868971Y-87229893D01*
X71483248Y-87614944D01*
X71274238Y-88118295D01*
X71273763Y-88663314D01*
X71481893Y-89167029D01*
X71866944Y-89552752D01*
X72130067Y-89662011D01*
X71868971Y-89769893D01*
X71483248Y-90154944D01*
X71341039Y-90497421D01*
X69488112Y-88644494D01*
X69488157Y-88593180D01*
X69350214Y-88259331D01*
X69095012Y-88003684D01*
X68761405Y-87865158D01*
X68400180Y-87864843D01*
X68066331Y-88002786D01*
X67810684Y-88257988D01*
X67672158Y-88591595D01*
X67671843Y-88952820D01*
X67809786Y-89286669D01*
X68064988Y-89542316D01*
X68398595Y-89680842D01*
X68451270Y-89680888D01*
X71490691Y-92720309D01*
X71698747Y-92859328D01*
X71603118Y-92906110D01*
X71465793Y-93347514D01*
X71507841Y-93807870D01*
X71591151Y-94009000D01*
X69999539Y-94009000D01*
X69985214Y-93974331D01*
X69730012Y-93718684D01*
X69396405Y-93580158D01*
X69035180Y-93579843D01*
X68701331Y-93717786D01*
X68445684Y-93972988D01*
X68307158Y-94306595D01*
X68306843Y-94667820D01*
X68444786Y-95001669D01*
X68699988Y-95257316D01*
X69033595Y-95395842D01*
X69153686Y-95395947D01*
X69188493Y-95419204D01*
X69469000Y-95475000D01*
X71383568Y-95475000D01*
X71274238Y-95738295D01*
X71273763Y-96283314D01*
X71311257Y-96374056D01*
X71067180Y-96373843D01*
X70733331Y-96511786D01*
X70477684Y-96766988D01*
X70339158Y-97100595D01*
X70338843Y-97461820D01*
X70467156Y-97772363D01*
X70158405Y-97644158D01*
X69797180Y-97643843D01*
X69463331Y-97781786D01*
X69207684Y-98036988D01*
X69069158Y-98370595D01*
X69068843Y-98731820D01*
X69206786Y-99065669D01*
X69461988Y-99321316D01*
X69795595Y-99459842D01*
X70156820Y-99460157D01*
X70490669Y-99322214D01*
X70527948Y-99285000D01*
X71464527Y-99285000D01*
X71481893Y-99327029D01*
X71866944Y-99712752D01*
X72130067Y-99822011D01*
X71868971Y-99929893D01*
X71483248Y-100314944D01*
X71274238Y-100818295D01*
X71273763Y-101363314D01*
X71481893Y-101867029D01*
X71866944Y-102252752D01*
X72130067Y-102362011D01*
X71868971Y-102469893D01*
X71483248Y-102854944D01*
X71464954Y-102899000D01*
X68961000Y-102899000D01*
X68680493Y-102954796D01*
X68442690Y-103113691D01*
X65902691Y-105653691D01*
X65757000Y-105871732D01*
X65757000Y-99060000D01*
X65701204Y-98779493D01*
X65632377Y-98676486D01*
X65542310Y-98541691D01*
X65297112Y-98296494D01*
X65297157Y-98245180D01*
X65159214Y-97911331D01*
X64904012Y-97655684D01*
X64570405Y-97517158D01*
X64209180Y-97516843D01*
X63875331Y-97654786D01*
X63619684Y-97909988D01*
X63481158Y-98243595D01*
X63480843Y-98604820D01*
X63504014Y-98660899D01*
X63365684Y-98798988D01*
X63227158Y-99132595D01*
X63226843Y-99493820D01*
X63364786Y-99827669D01*
X63402000Y-99864948D01*
X63402000Y-106383379D01*
X63354158Y-106498595D01*
X63353843Y-106859820D01*
X63491786Y-107193669D01*
X63746988Y-107449316D01*
X64080595Y-107587842D01*
X64154305Y-107587906D01*
X64253786Y-107828669D01*
X64508988Y-108084316D01*
X64842595Y-108222842D01*
X64984416Y-108222966D01*
X64847382Y-108360000D01*
X61263618Y-108360000D01*
X60335309Y-107431691D01*
X60097507Y-107272796D01*
X59817000Y-107217000D01*
X57320265Y-107217000D01*
X57284012Y-107180684D01*
X56950405Y-107042158D01*
X56589180Y-107041843D01*
X56255331Y-107179786D01*
X55999684Y-107434988D01*
X55861158Y-107768595D01*
X55860843Y-108129820D01*
X42183000Y-108129820D01*
X42183000Y-87891314D01*
X42669763Y-87891314D01*
X42877893Y-88395029D01*
X43262944Y-88780752D01*
X43526067Y-88890011D01*
X43264971Y-88997893D01*
X42879248Y-89382944D01*
X42670238Y-89886295D01*
X42669763Y-90431314D01*
X42877893Y-90935029D01*
X43262944Y-91320752D01*
X43766295Y-91529762D01*
X44311314Y-91530237D01*
X44815029Y-91322107D01*
X45200752Y-90937056D01*
X45219046Y-90893000D01*
X49225726Y-90893000D01*
X49276000Y-90903000D01*
X49326274Y-90893000D01*
X49757329Y-90893000D01*
X49775786Y-90937669D01*
X50030988Y-91193316D01*
X50364595Y-91331842D01*
X50725820Y-91332157D01*
X51059669Y-91194214D01*
X51315316Y-90939012D01*
X51453842Y-90605405D01*
X51454157Y-90244180D01*
X51316214Y-89910331D01*
X51061012Y-89654684D01*
X50727405Y-89516158D01*
X50612286Y-89516058D01*
X50562507Y-89482796D01*
X50520911Y-89474522D01*
X50520911Y-88765000D01*
X50478516Y-88539689D01*
X50345357Y-88332754D01*
X50142180Y-88193929D01*
X49986725Y-88162449D01*
X50127582Y-88104104D01*
X50240104Y-87991582D01*
X50301000Y-87844565D01*
X50301000Y-87519000D01*
X50201000Y-87419000D01*
X49430000Y-87419000D01*
X49430000Y-87439000D01*
X49122000Y-87439000D01*
X49122000Y-87419000D01*
X48351000Y-87419000D01*
X48251000Y-87519000D01*
X48251000Y-87844565D01*
X48311896Y-87991582D01*
X48424418Y-88104104D01*
X48563234Y-88161603D01*
X48425689Y-88187484D01*
X48218754Y-88320643D01*
X48079929Y-88523820D01*
X48031089Y-88765000D01*
X48031089Y-89427000D01*
X45809619Y-89427000D01*
X46873309Y-88363310D01*
X47032204Y-88125507D01*
X47038114Y-88095796D01*
X47088000Y-87845000D01*
X47088000Y-86685435D01*
X48251000Y-86685435D01*
X48251000Y-87011000D01*
X48351000Y-87111000D01*
X49122000Y-87111000D01*
X49122000Y-86465000D01*
X49430000Y-86465000D01*
X49430000Y-87111000D01*
X50201000Y-87111000D01*
X50301000Y-87011000D01*
X50301000Y-86685435D01*
X50240104Y-86538418D01*
X50127582Y-86425896D01*
X49980565Y-86365000D01*
X49530000Y-86365000D01*
X49430000Y-86465000D01*
X49122000Y-86465000D01*
X49022000Y-86365000D01*
X48571435Y-86365000D01*
X48424418Y-86425896D01*
X48311896Y-86538418D01*
X48251000Y-86685435D01*
X47088000Y-86685435D01*
X47088000Y-82847265D01*
X47124316Y-82811012D01*
X47262842Y-82477405D01*
X47263157Y-82116180D01*
X47125214Y-81782331D01*
X46870012Y-81526684D01*
X46536405Y-81388158D01*
X46175180Y-81387843D01*
X45841331Y-81525786D01*
X45585684Y-81780988D01*
X45447158Y-82114595D01*
X45446843Y-82475820D01*
X45584786Y-82809669D01*
X45622000Y-82846948D01*
X45622000Y-87541381D01*
X45409884Y-87753497D01*
X45410237Y-87348686D01*
X45202107Y-86844971D01*
X44817056Y-86459248D01*
X44313705Y-86250238D01*
X43768686Y-86249763D01*
X43264971Y-86457893D01*
X42879248Y-86842944D01*
X42670238Y-87346295D01*
X42669763Y-87891314D01*
X42183000Y-87891314D01*
X42183000Y-68378820D01*
X46843843Y-68378820D01*
X46981786Y-68712669D01*
X47019000Y-68749948D01*
X47019000Y-80264000D01*
X47074796Y-80544507D01*
X47233691Y-80782309D01*
X48503691Y-82052309D01*
X48741493Y-82211204D01*
X49022000Y-82267000D01*
X55449382Y-82267000D01*
X55479888Y-82297506D01*
X55479843Y-82348820D01*
X55617786Y-82682669D01*
X55872988Y-82938316D01*
X56206595Y-83076842D01*
X56567820Y-83077157D01*
X56901669Y-82939214D01*
X57157316Y-82684012D01*
X57295842Y-82350405D01*
X57296157Y-81989180D01*
X57158214Y-81655331D01*
X56903012Y-81399684D01*
X56569405Y-81261158D01*
X56516730Y-81261112D01*
X56271309Y-81015691D01*
X56033507Y-80856796D01*
X55753000Y-80801000D01*
X49325618Y-80801000D01*
X48485000Y-79960382D01*
X48485000Y-78550000D01*
X48967000Y-78550000D01*
X49133171Y-79385398D01*
X49606386Y-80093614D01*
X50314602Y-80566829D01*
X51150000Y-80733000D01*
X51985398Y-80566829D01*
X52693614Y-80093614D01*
X53166829Y-79385398D01*
X53234176Y-79046820D01*
X73259843Y-79046820D01*
X73397786Y-79380669D01*
X73652988Y-79636316D01*
X73986595Y-79774842D01*
X74347820Y-79775157D01*
X74681669Y-79637214D01*
X74937316Y-79382012D01*
X75075842Y-79048405D01*
X75076110Y-78741508D01*
X77471506Y-76346112D01*
X77522820Y-76346157D01*
X77856669Y-76208214D01*
X78112316Y-75953012D01*
X78250842Y-75619405D01*
X78251157Y-75258180D01*
X78113214Y-74924331D01*
X77858012Y-74668684D01*
X77524405Y-74530158D01*
X77163180Y-74529843D01*
X76829331Y-74667786D01*
X76573684Y-74922988D01*
X76435158Y-75256595D01*
X76435112Y-75309270D01*
X73649691Y-78094691D01*
X73636192Y-78114893D01*
X73398684Y-78351988D01*
X73260158Y-78685595D01*
X73259843Y-79046820D01*
X53234176Y-79046820D01*
X53333000Y-78550000D01*
X53166829Y-77714602D01*
X52693614Y-77006386D01*
X51985398Y-76533171D01*
X51150000Y-76367000D01*
X50314602Y-76533171D01*
X49606386Y-77006386D01*
X49133171Y-77714602D01*
X48967000Y-78550000D01*
X48485000Y-78550000D01*
X48485000Y-68750265D01*
X48521316Y-68714012D01*
X48659842Y-68380405D01*
X48660157Y-68019180D01*
X48522214Y-67685331D01*
X48267012Y-67429684D01*
X47933405Y-67291158D01*
X47572180Y-67290843D01*
X47238331Y-67428786D01*
X46982684Y-67683988D01*
X46844158Y-68017595D01*
X46843843Y-68378820D01*
X42183000Y-68378820D01*
X42183000Y-48260000D01*
X50967489Y-48260000D01*
X50967489Y-50292000D01*
X51009884Y-50517311D01*
X51143043Y-50724246D01*
X51346220Y-50863071D01*
X51587400Y-50911911D01*
X51718000Y-50911911D01*
X51718000Y-73167089D01*
X51587400Y-73167089D01*
X51362089Y-73209484D01*
X51155154Y-73342643D01*
X51016329Y-73545820D01*
X50967489Y-73787000D01*
X50967489Y-75819000D01*
X51009884Y-76044311D01*
X51143043Y-76251246D01*
X51346220Y-76390071D01*
X51587400Y-76438911D01*
X53314600Y-76438911D01*
X53539911Y-76396516D01*
X53746846Y-76263357D01*
X53885671Y-76060180D01*
X53905764Y-75960958D01*
X53950422Y-76027794D01*
X54427843Y-76346797D01*
X54991000Y-76458816D01*
X55554157Y-76346797D01*
X56031578Y-76027794D01*
X56261000Y-75684440D01*
X56490422Y-76027794D01*
X56967843Y-76346797D01*
X57531000Y-76458816D01*
X58094157Y-76346797D01*
X58571578Y-76027794D01*
X58801000Y-75684440D01*
X59030422Y-76027794D01*
X59507843Y-76346797D01*
X60071000Y-76458816D01*
X60634157Y-76346797D01*
X61111578Y-76027794D01*
X61341000Y-75684440D01*
X61570422Y-76027794D01*
X62047843Y-76346797D01*
X62611000Y-76458816D01*
X63174157Y-76346797D01*
X63651578Y-76027794D01*
X63881000Y-75684440D01*
X64110422Y-76027794D01*
X64587843Y-76346797D01*
X65151000Y-76458816D01*
X65714157Y-76346797D01*
X66191578Y-76027794D01*
X66421000Y-75684440D01*
X66650422Y-76027794D01*
X67127843Y-76346797D01*
X67691000Y-76458816D01*
X68254157Y-76346797D01*
X68731578Y-76027794D01*
X68961000Y-75684440D01*
X69190422Y-76027794D01*
X69667843Y-76346797D01*
X70231000Y-76458816D01*
X70794157Y-76346797D01*
X71271578Y-76027794D01*
X71590581Y-75550373D01*
X71702600Y-74987216D01*
X71702600Y-74618784D01*
X71590581Y-74055627D01*
X71271578Y-73578206D01*
X70964000Y-73372689D01*
X70964000Y-56821820D01*
X75164843Y-56821820D01*
X75302786Y-57155669D01*
X75557988Y-57411316D01*
X75891595Y-57549842D01*
X75944270Y-57549888D01*
X77753000Y-59358619D01*
X77753000Y-62694735D01*
X77716684Y-62730988D01*
X77578158Y-63064595D01*
X77577843Y-63425820D01*
X77715786Y-63759669D01*
X77970988Y-64015316D01*
X78304595Y-64153842D01*
X78665820Y-64154157D01*
X78999669Y-64016214D01*
X79255316Y-63761012D01*
X79393842Y-63427405D01*
X79394157Y-63066180D01*
X79256214Y-62732331D01*
X79219000Y-62695052D01*
X79219000Y-59055000D01*
X79163204Y-58774493D01*
X79004309Y-58536690D01*
X76981112Y-56513494D01*
X76981157Y-56462180D01*
X76843214Y-56128331D01*
X76588012Y-55872684D01*
X76254405Y-55734158D01*
X75893180Y-55733843D01*
X75559331Y-55871786D01*
X75303684Y-56126988D01*
X75165158Y-56460595D01*
X75164843Y-56821820D01*
X70964000Y-56821820D01*
X70964000Y-51781059D01*
X72034330Y-51781059D01*
X72106401Y-51943422D01*
X72511339Y-52063936D01*
X72931570Y-52020312D01*
X73117199Y-51943422D01*
X73189270Y-51781059D01*
X73145521Y-51737310D01*
X74091580Y-51737310D01*
X74284518Y-52204258D01*
X74641463Y-52561826D01*
X75108073Y-52755579D01*
X75613310Y-52756020D01*
X76080258Y-52563082D01*
X76437826Y-52206137D01*
X76631579Y-51739527D01*
X76632017Y-51237310D01*
X76841580Y-51237310D01*
X77034518Y-51704258D01*
X77391463Y-52061826D01*
X77858073Y-52255579D01*
X78363310Y-52256020D01*
X78830258Y-52063082D01*
X79187826Y-51706137D01*
X79381579Y-51239527D01*
X79382020Y-50734290D01*
X79189082Y-50267342D01*
X78832137Y-49909774D01*
X78365527Y-49716021D01*
X77860290Y-49715580D01*
X77393342Y-49908518D01*
X77035774Y-50265463D01*
X76842021Y-50732073D01*
X76841580Y-51237310D01*
X76632017Y-51237310D01*
X76632020Y-51234290D01*
X76439082Y-50767342D01*
X76082137Y-50409774D01*
X75615527Y-50216021D01*
X75110290Y-50215580D01*
X74643342Y-50408518D01*
X74285774Y-50765463D01*
X74092021Y-51232073D01*
X74091580Y-51737310D01*
X73145521Y-51737310D01*
X72611800Y-51203589D01*
X72034330Y-51781059D01*
X70964000Y-51781059D01*
X70964000Y-50885339D01*
X71533664Y-50885339D01*
X71577288Y-51305570D01*
X71654178Y-51491199D01*
X71816541Y-51563270D01*
X72394011Y-50985800D01*
X72829589Y-50985800D01*
X73407059Y-51563270D01*
X73569422Y-51491199D01*
X73689936Y-51086261D01*
X73646312Y-50666030D01*
X73569422Y-50480401D01*
X73407059Y-50408330D01*
X72829589Y-50985800D01*
X72394011Y-50985800D01*
X71816541Y-50408330D01*
X71654178Y-50480401D01*
X71533664Y-50885339D01*
X70964000Y-50885339D01*
X70964000Y-50706311D01*
X71271578Y-50500794D01*
X71478882Y-50190541D01*
X72034330Y-50190541D01*
X72611800Y-50768011D01*
X73189270Y-50190541D01*
X73117199Y-50028178D01*
X72712261Y-49907664D01*
X72292030Y-49951288D01*
X72106401Y-50028178D01*
X72034330Y-50190541D01*
X71478882Y-50190541D01*
X71590581Y-50023373D01*
X71702600Y-49460216D01*
X71702600Y-49091784D01*
X71590581Y-48528627D01*
X71271578Y-48051206D01*
X70794157Y-47732203D01*
X70231000Y-47620184D01*
X69694000Y-47727000D01*
X69694000Y-44398014D01*
X69855669Y-44331214D01*
X70111316Y-44076012D01*
X70249842Y-43742405D01*
X70250157Y-43381180D01*
X70190712Y-43237310D01*
X70841580Y-43237310D01*
X71034518Y-43704258D01*
X71391463Y-44061826D01*
X71858073Y-44255579D01*
X72363310Y-44256020D01*
X72830258Y-44063082D01*
X73187826Y-43706137D01*
X73381579Y-43239527D01*
X73381580Y-43237310D01*
X77341580Y-43237310D01*
X77534518Y-43704258D01*
X77891463Y-44061826D01*
X78358073Y-44255579D01*
X78863310Y-44256020D01*
X79330258Y-44063082D01*
X79687826Y-43706137D01*
X79881579Y-43239527D01*
X79882020Y-42734290D01*
X79689082Y-42267342D01*
X79332137Y-41909774D01*
X78865527Y-41716021D01*
X78360290Y-41715580D01*
X77893342Y-41908518D01*
X77535774Y-42265463D01*
X77342021Y-42732073D01*
X77341580Y-43237310D01*
X73381580Y-43237310D01*
X73382020Y-42734290D01*
X73189082Y-42267342D01*
X72832137Y-41909774D01*
X72365527Y-41716021D01*
X71860290Y-41715580D01*
X71393342Y-41908518D01*
X71035774Y-42265463D01*
X70842021Y-42732073D01*
X70841580Y-43237310D01*
X70190712Y-43237310D01*
X70112214Y-43047331D01*
X69857012Y-42791684D01*
X69523405Y-42653158D01*
X69162180Y-42652843D01*
X68828331Y-42790786D01*
X68572684Y-43045988D01*
X68434158Y-43379595D01*
X68434108Y-43436536D01*
X68283796Y-43661493D01*
X68228000Y-43942000D01*
X68228000Y-47727000D01*
X67691000Y-47620184D01*
X67154000Y-47727000D01*
X67154000Y-45642618D01*
X67184617Y-45612002D01*
X67362820Y-45612157D01*
X67696669Y-45474214D01*
X67952316Y-45219012D01*
X68090842Y-44885405D01*
X68091157Y-44524180D01*
X67953214Y-44190331D01*
X67698012Y-43934684D01*
X67364405Y-43796158D01*
X67003180Y-43795843D01*
X66669331Y-43933786D01*
X66413684Y-44188988D01*
X66327969Y-44395412D01*
X65902691Y-44820691D01*
X65743796Y-45058493D01*
X65688000Y-45339000D01*
X65688000Y-47727000D01*
X65151000Y-47620184D01*
X64587843Y-47732203D01*
X64110422Y-48051206D01*
X63881000Y-48394560D01*
X63651578Y-48051206D01*
X63174157Y-47732203D01*
X62611000Y-47620184D01*
X62047843Y-47732203D01*
X61570422Y-48051206D01*
X61341000Y-48394560D01*
X61111578Y-48051206D01*
X60634157Y-47732203D01*
X60071000Y-47620184D01*
X59507843Y-47732203D01*
X59030422Y-48051206D01*
X58801000Y-48394560D01*
X58571578Y-48051206D01*
X58094157Y-47732203D01*
X57531000Y-47620184D01*
X56967843Y-47732203D01*
X56490422Y-48051206D01*
X56261000Y-48394560D01*
X56031578Y-48051206D01*
X55554157Y-47732203D01*
X54991000Y-47620184D01*
X54427843Y-47732203D01*
X53950422Y-48051206D01*
X53907352Y-48115664D01*
X53892116Y-48034689D01*
X53758957Y-47827754D01*
X53555780Y-47688929D01*
X53314600Y-47640089D01*
X51587400Y-47640089D01*
X51362089Y-47682484D01*
X51155154Y-47815643D01*
X51016329Y-48018820D01*
X50967489Y-48260000D01*
X42183000Y-48260000D01*
X42183000Y-43067267D01*
X42250748Y-42726674D01*
X44226674Y-40750748D01*
X44567268Y-40683000D01*
X78432733Y-40683000D01*
X78851969Y-40766391D01*
G36*
X75415931Y-123937858D02*
X75401789Y-123952000D01*
X75415931Y-123966142D01*
X75198142Y-124183931D01*
X75184000Y-124169789D01*
X75169858Y-124183931D01*
X74952069Y-123966142D01*
X74966211Y-123952000D01*
X74952069Y-123937858D01*
X75169858Y-123720069D01*
X75184000Y-123734211D01*
X75198142Y-123720069D01*
X75415931Y-123937858D01*
X75415931Y-123937858D01*
G37*
X75415931Y-123937858D02*
X75401789Y-123952000D01*
X75415931Y-123966142D01*
X75198142Y-124183931D01*
X75184000Y-124169789D01*
X75169858Y-124183931D01*
X74952069Y-123966142D01*
X74966211Y-123952000D01*
X74952069Y-123937858D01*
X75169858Y-123720069D01*
X75184000Y-123734211D01*
X75198142Y-123720069D01*
X75415931Y-123937858D01*
G36*
X75415931Y-118857858D02*
X75401789Y-118872000D01*
X75415931Y-118886142D01*
X75198142Y-119103931D01*
X75184000Y-119089789D01*
X75169858Y-119103931D01*
X74952069Y-118886142D01*
X74966211Y-118872000D01*
X74952069Y-118857858D01*
X75169858Y-118640069D01*
X75184000Y-118654211D01*
X75198142Y-118640069D01*
X75415931Y-118857858D01*
X75415931Y-118857858D01*
G37*
X75415931Y-118857858D02*
X75401789Y-118872000D01*
X75415931Y-118886142D01*
X75198142Y-119103931D01*
X75184000Y-119089789D01*
X75169858Y-119103931D01*
X74952069Y-118886142D01*
X74966211Y-118872000D01*
X74952069Y-118857858D01*
X75169858Y-118640069D01*
X75184000Y-118654211D01*
X75198142Y-118640069D01*
X75415931Y-118857858D01*
G36*
X72875931Y-113777858D02*
X72861789Y-113792000D01*
X72875931Y-113806142D01*
X72658142Y-114023931D01*
X72644000Y-114009789D01*
X72629858Y-114023931D01*
X72412069Y-113806142D01*
X72426211Y-113792000D01*
X72412069Y-113777858D01*
X72629858Y-113560069D01*
X72644000Y-113574211D01*
X72658142Y-113560069D01*
X72875931Y-113777858D01*
X72875931Y-113777858D01*
G37*
X72875931Y-113777858D02*
X72861789Y-113792000D01*
X72875931Y-113806142D01*
X72658142Y-114023931D01*
X72644000Y-114009789D01*
X72629858Y-114023931D01*
X72412069Y-113806142D01*
X72426211Y-113792000D01*
X72412069Y-113777858D01*
X72629858Y-113560069D01*
X72644000Y-113574211D01*
X72658142Y-113560069D01*
X72875931Y-113777858D01*
G36*
X74021893Y-104407029D02*
X74406944Y-104792752D01*
X74910295Y-105001762D01*
X75218300Y-105002030D01*
X74848130Y-105035841D01*
X74618110Y-105131118D01*
X74533619Y-105303830D01*
X75184000Y-105954211D01*
X75834381Y-105303830D01*
X75749890Y-105131118D01*
X75335291Y-105002132D01*
X75455314Y-105002237D01*
X75959029Y-104794107D01*
X76102000Y-104651385D01*
X76102000Y-105545996D01*
X76052170Y-105521619D01*
X75401789Y-106172000D01*
X76052170Y-106822381D01*
X76102000Y-106798004D01*
X76102000Y-107265382D01*
X75858655Y-107508727D01*
X75457705Y-107342238D01*
X75149700Y-107341970D01*
X75519870Y-107308159D01*
X75749890Y-107212882D01*
X75834381Y-107040170D01*
X75184000Y-106389789D01*
X74533619Y-107040170D01*
X74618110Y-107212882D01*
X75032709Y-107341868D01*
X74912686Y-107341763D01*
X74408971Y-107549893D01*
X74023248Y-107934944D01*
X73913989Y-108198067D01*
X73806107Y-107936971D01*
X73421056Y-107551248D01*
X73157933Y-107441989D01*
X73419029Y-107334107D01*
X73804752Y-106949056D01*
X74013762Y-106445705D01*
X74014030Y-106137700D01*
X74047841Y-106507870D01*
X74143118Y-106737890D01*
X74315830Y-106822381D01*
X74966211Y-106172000D01*
X74315830Y-105521619D01*
X74143118Y-105606110D01*
X74014132Y-106020709D01*
X74014237Y-105900686D01*
X73806107Y-105396971D01*
X73421056Y-105011248D01*
X73157933Y-104901989D01*
X73419029Y-104794107D01*
X73804752Y-104409056D01*
X73914011Y-104145933D01*
X74021893Y-104407029D01*
X74021893Y-104407029D01*
G37*
X74021893Y-104407029D02*
X74406944Y-104792752D01*
X74910295Y-105001762D01*
X75218300Y-105002030D01*
X74848130Y-105035841D01*
X74618110Y-105131118D01*
X74533619Y-105303830D01*
X75184000Y-105954211D01*
X75834381Y-105303830D01*
X75749890Y-105131118D01*
X75335291Y-105002132D01*
X75455314Y-105002237D01*
X75959029Y-104794107D01*
X76102000Y-104651385D01*
X76102000Y-105545996D01*
X76052170Y-105521619D01*
X75401789Y-106172000D01*
X76052170Y-106822381D01*
X76102000Y-106798004D01*
X76102000Y-107265382D01*
X75858655Y-107508727D01*
X75457705Y-107342238D01*
X75149700Y-107341970D01*
X75519870Y-107308159D01*
X75749890Y-107212882D01*
X75834381Y-107040170D01*
X75184000Y-106389789D01*
X74533619Y-107040170D01*
X74618110Y-107212882D01*
X75032709Y-107341868D01*
X74912686Y-107341763D01*
X74408971Y-107549893D01*
X74023248Y-107934944D01*
X73913989Y-108198067D01*
X73806107Y-107936971D01*
X73421056Y-107551248D01*
X73157933Y-107441989D01*
X73419029Y-107334107D01*
X73804752Y-106949056D01*
X74013762Y-106445705D01*
X74014030Y-106137700D01*
X74047841Y-106507870D01*
X74143118Y-106737890D01*
X74315830Y-106822381D01*
X74966211Y-106172000D01*
X74315830Y-105521619D01*
X74143118Y-105606110D01*
X74014132Y-106020709D01*
X74014237Y-105900686D01*
X73806107Y-105396971D01*
X73421056Y-105011248D01*
X73157933Y-104901989D01*
X73419029Y-104794107D01*
X73804752Y-104409056D01*
X73914011Y-104145933D01*
X74021893Y-104407029D01*
G36*
X75415931Y-98537858D02*
X75401789Y-98552000D01*
X76052170Y-99202381D01*
X76102000Y-99178004D01*
X76102000Y-100072438D01*
X75961056Y-99931248D01*
X75457705Y-99722238D01*
X75149700Y-99721970D01*
X75519870Y-99688159D01*
X75749890Y-99592882D01*
X75834381Y-99420170D01*
X75184000Y-98769789D01*
X75169858Y-98783931D01*
X74952069Y-98566142D01*
X74966211Y-98552000D01*
X74952069Y-98537858D01*
X75169858Y-98320069D01*
X75184000Y-98334211D01*
X75198142Y-98320069D01*
X75415931Y-98537858D01*
X75415931Y-98537858D01*
G37*
X75415931Y-98537858D02*
X75401789Y-98552000D01*
X76052170Y-99202381D01*
X76102000Y-99178004D01*
X76102000Y-100072438D01*
X75961056Y-99931248D01*
X75457705Y-99722238D01*
X75149700Y-99721970D01*
X75519870Y-99688159D01*
X75749890Y-99592882D01*
X75834381Y-99420170D01*
X75184000Y-98769789D01*
X75169858Y-98783931D01*
X74952069Y-98566142D01*
X74966211Y-98552000D01*
X74952069Y-98537858D01*
X75169858Y-98320069D01*
X75184000Y-98334211D01*
X75198142Y-98320069D01*
X75415931Y-98537858D01*
G36*
X72875931Y-93457858D02*
X72861789Y-93472000D01*
X72875931Y-93486142D01*
X72658142Y-93703931D01*
X72644000Y-93689789D01*
X72629858Y-93703931D01*
X72412069Y-93486142D01*
X72426211Y-93472000D01*
X72412069Y-93457858D01*
X72629858Y-93240069D01*
X72644000Y-93254211D01*
X72658142Y-93240069D01*
X72875931Y-93457858D01*
X72875931Y-93457858D01*
G37*
X72875931Y-93457858D02*
X72861789Y-93472000D01*
X72875931Y-93486142D01*
X72658142Y-93703931D01*
X72644000Y-93689789D01*
X72629858Y-93703931D01*
X72412069Y-93486142D01*
X72426211Y-93472000D01*
X72412069Y-93457858D01*
X72629858Y-93240069D01*
X72644000Y-93254211D01*
X72658142Y-93240069D01*
X72875931Y-93457858D01*
G36*
X56415000Y-63330000D02*
X56435000Y-63330000D01*
X56435000Y-63638000D01*
X56415000Y-63638000D01*
X56415000Y-64284000D01*
X56515000Y-64384000D01*
X56798000Y-64384000D01*
X56798000Y-73372689D01*
X56490422Y-73578206D01*
X56261000Y-73921560D01*
X56031578Y-73578206D01*
X55724000Y-73372689D01*
X55724000Y-64384000D01*
X56007000Y-64384000D01*
X56107000Y-64284000D01*
X56107000Y-63638000D01*
X56087000Y-63638000D01*
X56087000Y-63330000D01*
X56107000Y-63330000D01*
X56107000Y-63310000D01*
X56415000Y-63310000D01*
X56415000Y-63330000D01*
X56415000Y-63330000D01*
G37*
X56415000Y-63330000D02*
X56435000Y-63330000D01*
X56435000Y-63638000D01*
X56415000Y-63638000D01*
X56415000Y-64284000D01*
X56515000Y-64384000D01*
X56798000Y-64384000D01*
X56798000Y-73372689D01*
X56490422Y-73578206D01*
X56261000Y-73921560D01*
X56031578Y-73578206D01*
X55724000Y-73372689D01*
X55724000Y-64384000D01*
X56007000Y-64384000D01*
X56107000Y-64284000D01*
X56107000Y-63638000D01*
X56087000Y-63638000D01*
X56087000Y-63330000D01*
X56107000Y-63330000D01*
X56107000Y-63310000D01*
X56415000Y-63310000D01*
X56415000Y-63330000D01*
M02*
