%TF.GenerationSoftware,KiCad,Pcbnew,4.0.4-stable*%
%TF.CreationDate,2016-12-08T20:54:20+02:00*%
%TF.ProjectId,front_prototype,66726F6E745F70726F746F747970652E,rev?*%
%TF.FileFunction,Soldermask,Bot*%
%FSLAX46Y46*%
G04 Gerber Fmt 4.6, Leading zero omitted, Abs format (unit mm)*
G04 Created by KiCad (PCBNEW 4.0.4-stable) date 12/08/16 20:54:20*
%MOMM*%
%LPD*%
G01*
G04 APERTURE LIST*
%ADD10C,0.100000*%
%ADD11C,1.924000*%
%ADD12R,1.400000X1.650000*%
%ADD13R,2.099260X3.699460*%
%ADD14R,0.950000X2.000000*%
%ADD15R,2.000000X0.950000*%
%ADD16R,1.400760X0.999440*%
%ADD17R,0.999440X1.400760*%
%ADD18R,1.700000X1.900000*%
%ADD19R,1.900000X1.700000*%
%ADD20R,1.900000X1.900000*%
%ADD21O,2.899360X2.398980*%
%ADD22R,2.127200X2.432000*%
%ADD23O,2.127200X2.432000*%
%ADD24C,2.800000*%
%ADD25R,2.800000X2.800000*%
%ADD26O,1.500000X2.900000*%
%ADD27O,2.800000X1.500000*%
%ADD28C,1.724000*%
G04 APERTURE END LIST*
D10*
D11*
X72644000Y-83312000D03*
X75184000Y-83312000D03*
X72644000Y-85852000D03*
X75184000Y-85852000D03*
X72644000Y-88392000D03*
X75184000Y-88392000D03*
X72644000Y-90932000D03*
X75184000Y-90932000D03*
X72644000Y-93472000D03*
X75184000Y-93472000D03*
X72644000Y-96012000D03*
X75184000Y-96012000D03*
X72644000Y-98552000D03*
X75184000Y-98552000D03*
X72644000Y-101092000D03*
X75184000Y-101092000D03*
X72644000Y-103632000D03*
X75184000Y-103632000D03*
X72644000Y-106172000D03*
X75184000Y-106172000D03*
X72644000Y-108712000D03*
X75184000Y-108712000D03*
X72644000Y-111252000D03*
X75184000Y-111252000D03*
X72644000Y-113792000D03*
X75184000Y-113792000D03*
X72644000Y-116332000D03*
X75184000Y-116332000D03*
X72644000Y-118872000D03*
X75184000Y-118872000D03*
X72644000Y-121412000D03*
X75184000Y-121412000D03*
X72644000Y-123952000D03*
X75184000Y-123952000D03*
X72644000Y-126492000D03*
X75184000Y-126492000D03*
X72644000Y-129032000D03*
X75184000Y-129032000D03*
X72644000Y-131572000D03*
X75184000Y-131572000D03*
X70104000Y-129032000D03*
X70104000Y-131572000D03*
X67564000Y-129032000D03*
X67564000Y-131572000D03*
D12*
X57515000Y-113792000D03*
X55515000Y-113792000D03*
X58277000Y-130048000D03*
X56277000Y-130048000D03*
X58277000Y-127762000D03*
X56277000Y-127762000D03*
D13*
X43688000Y-80601820D03*
X43688000Y-75100180D03*
D14*
X61220000Y-125281000D03*
X60420000Y-125281000D03*
X59620000Y-125281000D03*
X58820000Y-125281000D03*
X58020000Y-125281000D03*
X57220000Y-125281000D03*
X56420000Y-125281000D03*
X55620000Y-125281000D03*
D15*
X54170000Y-123831000D03*
X54170000Y-123031000D03*
X54170000Y-122231000D03*
X54170000Y-121431000D03*
X54170000Y-120631000D03*
X54170000Y-119831000D03*
X54170000Y-119031000D03*
X54170000Y-118231000D03*
D14*
X55620000Y-116781000D03*
X56420000Y-116781000D03*
X57220000Y-116781000D03*
X58020000Y-116781000D03*
X58820000Y-116781000D03*
X59620000Y-116781000D03*
X60420000Y-116781000D03*
X61220000Y-116781000D03*
D15*
X62670000Y-118231000D03*
X62670000Y-119031000D03*
X62670000Y-119831000D03*
X62670000Y-120631000D03*
X62670000Y-121431000D03*
X62670000Y-122231000D03*
X62670000Y-123031000D03*
X62670000Y-123831000D03*
D16*
X45018960Y-84851240D03*
X45018960Y-83550760D03*
X43119040Y-84201000D03*
D17*
X44846240Y-92522040D03*
X43545760Y-92522040D03*
X44196000Y-94421960D03*
D18*
X61849000Y-113872000D03*
X61849000Y-111172000D03*
X59690000Y-111426000D03*
X59690000Y-114126000D03*
D19*
X65612000Y-57404000D03*
X62912000Y-57404000D03*
X65612000Y-59436000D03*
X62912000Y-59436000D03*
X65612000Y-61468000D03*
X62912000Y-61468000D03*
X65612000Y-63754000D03*
X62912000Y-63754000D03*
X65612000Y-65786000D03*
X62912000Y-65786000D03*
X65612000Y-67818000D03*
X62912000Y-67818000D03*
D18*
X65532000Y-115871000D03*
X65532000Y-118571000D03*
X47752000Y-119681000D03*
X47752000Y-122381000D03*
D19*
X46529000Y-92583000D03*
X49229000Y-92583000D03*
D20*
X66421000Y-123063000D03*
X66421000Y-125222000D03*
X66421000Y-120904000D03*
X78359000Y-82169000D03*
X78359000Y-89027000D03*
X78359000Y-84455000D03*
X78359000Y-86741000D03*
D21*
X53721000Y-126337060D03*
X53721000Y-131218940D03*
D22*
X52451000Y-74803000D03*
D23*
X54991000Y-74803000D03*
X57531000Y-74803000D03*
X60071000Y-74803000D03*
X62611000Y-74803000D03*
X65151000Y-74803000D03*
X67691000Y-74803000D03*
X70231000Y-74803000D03*
D11*
X44040000Y-129530000D03*
X44040000Y-126990000D03*
X44040000Y-124450000D03*
X44040000Y-121910000D03*
X44040000Y-119370000D03*
X78330000Y-114290000D03*
X78330000Y-116830000D03*
X78330000Y-119370000D03*
X78330000Y-121910000D03*
X78330000Y-124450000D03*
X78330000Y-126990000D03*
X44040000Y-90160000D03*
X44040000Y-87620000D03*
D20*
X51054000Y-113030000D03*
X53594000Y-112903000D03*
X51054000Y-117856000D03*
X51054000Y-115443000D03*
D12*
X55515000Y-111760000D03*
X57515000Y-111760000D03*
X55515000Y-109728000D03*
X57515000Y-109728000D03*
D24*
X63190000Y-136525000D03*
D25*
X59690000Y-136525000D03*
D26*
X44672000Y-54926000D03*
X46672000Y-54926000D03*
X48672000Y-54926000D03*
X50672000Y-54926000D03*
X52672000Y-54926000D03*
X54672000Y-54926000D03*
X56672000Y-54926000D03*
D27*
X58422000Y-57616000D03*
X58422000Y-59616000D03*
X58422000Y-61616000D03*
X58422000Y-63616000D03*
X58422000Y-65616000D03*
X58422000Y-67616000D03*
D26*
X56672000Y-70326000D03*
X54672000Y-70226000D03*
X52672000Y-70326000D03*
X50672000Y-70326000D03*
X48672000Y-70326000D03*
X46672000Y-70326000D03*
X44672000Y-70326000D03*
D28*
X78111800Y-50985800D03*
X72611800Y-50985800D03*
X75361800Y-51485800D03*
X78611800Y-42985800D03*
X72111800Y-42985800D03*
D20*
X75311000Y-54483000D03*
X78232000Y-54483000D03*
X68707000Y-41529000D03*
X75311000Y-58674000D03*
X78232000Y-58674000D03*
D22*
X52451000Y-49276000D03*
D23*
X54991000Y-49276000D03*
X57531000Y-49276000D03*
X60071000Y-49276000D03*
X62611000Y-49276000D03*
X65151000Y-49276000D03*
X67691000Y-49276000D03*
X70231000Y-49276000D03*
D22*
X52451000Y-51816000D03*
X52451000Y-46736000D03*
X54991000Y-51816000D03*
X54991000Y-46736000D03*
X57531000Y-51816000D03*
X57531000Y-46736000D03*
X60071000Y-51816000D03*
X60071000Y-46736000D03*
X62611000Y-51816000D03*
X62611000Y-46736000D03*
X65151000Y-51816000D03*
X65151000Y-46736000D03*
X67691000Y-51816000D03*
X67691000Y-46736000D03*
X70231000Y-51816000D03*
X70231000Y-46736000D03*
M02*
