M48
;DRILL file {KiCad 4.0.4-stable} date 12/08/16 20:54:26
;FORMAT={-:-/ absolute / metric / decimal}
FMAT,2
METRIC,TZ
T1C0.400
T2C0.762
T3C1.000
T4C1.016
T5C1.199
T6C1.200
%
G90
G05
M71
T1
X43.053Y-83.058
X43.18Y-43.18
X43.18Y-44.45
X43.18Y-45.72
X43.18Y-46.99
X43.18Y-48.26
X43.18Y-49.53
X43.18Y-50.8
X43.18Y-52.07
X43.18Y-94.488
X43.18Y-96.52
X43.18Y-97.79
X43.18Y-99.06
X43.18Y-100.33
X43.18Y-101.6
X43.18Y-102.87
X43.18Y-104.14
X43.18Y-105.41
X43.18Y-106.68
X43.18Y-107.95
X43.18Y-109.22
X43.18Y-110.49
X43.18Y-111.76
X43.18Y-113.03
X43.18Y-114.3
X43.18Y-115.57
X43.18Y-116.84
X43.18Y-132.08
X43.18Y-133.35
X43.18Y-134.62
X43.18Y-135.89
X43.18Y-137.16
X44.45Y-41.91
X44.45Y-138.43
X45.72Y-41.91
X45.72Y-138.43
X46.355Y-82.296
X46.99Y-41.91
X46.99Y-138.43
X47.752Y-68.199
X48.26Y-41.91
X48.26Y-138.43
X49.53Y-41.91
X49.53Y-138.43
X50.546Y-90.424
X50.8Y-41.91
X51.181Y-67.437
X52.07Y-41.91
X52.451Y-44.45
X53.34Y-41.91
X53.34Y-138.43
X53.721Y-53.34
X53.721Y-72.771
X54.61Y-41.91
X54.61Y-138.43
X54.991Y-44.45
X55.88Y-41.91
X55.88Y-138.43
X56.388Y-57.277
X56.388Y-82.169
X56.515Y-67.945
X56.769Y-107.95
X57.15Y-41.91
X57.15Y-118.491
X57.15Y-138.43
X57.22Y-123.825
X57.531Y-44.45
X58.42Y-41.91
X58.42Y-138.684
X58.801Y-53.721
X58.801Y-72.771
X58.801Y-123.825
X59.69Y-41.91
X59.69Y-109.728
X59.69Y-138.684
X60.452Y-115.443
X60.96Y-41.91
X60.96Y-121.285
X60.96Y-138.684
X61.341Y-72.771
X61.595Y-53.721
X62.23Y-41.91
X62.23Y-138.684
X62.484Y-117.221
X63.373Y-112.268
X63.5Y-41.91
X63.5Y-138.684
X63.881Y-72.771
X64.008Y-53.721
X64.008Y-118.237
X64.008Y-119.253
X64.008Y-120.269
X64.135Y-99.314
X64.135Y-116.078
X64.262Y-106.68
X64.389Y-98.425
X64.77Y-41.91
X64.77Y-81.28
X64.77Y-83.185
X64.77Y-85.09
X64.77Y-86.995
X64.77Y-88.9
X64.77Y-90.805
X64.77Y-92.71
X64.77Y-94.615
X64.77Y-96.52
X64.77Y-138.684
X65.024Y-107.315
X65.405Y-80.01
X66.04Y-41.91
X66.04Y-99.695
X66.04Y-138.43
X66.421Y-72.898
X66.675Y-78.74
X67.183Y-44.704
X67.31Y-81.28
X67.31Y-82.55
X67.31Y-83.82
X67.31Y-85.09
X67.31Y-86.36
X67.31Y-87.63
X67.31Y-88.9
X67.31Y-90.17
X67.31Y-91.44
X67.31Y-92.71
X67.31Y-93.98
X67.31Y-95.25
X67.31Y-96.52
X67.31Y-97.79
X67.31Y-100.965
X67.31Y-138.43
X67.945Y-77.47
X68.58Y-80.01
X68.58Y-88.773
X68.58Y-99.06
X68.58Y-102.235
X68.58Y-138.43
X68.961Y-72.898
X69.215Y-76.835
X69.215Y-94.488
X69.342Y-43.561
X69.85Y-78.74
X69.85Y-100.076
X69.85Y-102.235
X69.85Y-105.283
X69.85Y-138.43
X69.977Y-98.552
X71.12Y-66.802
X71.12Y-70.485
X71.12Y-71.755
X71.12Y-73.025
X71.12Y-78.74
X71.247Y-97.282
X71.247Y-104.902
X72.39Y-67.31
X72.39Y-78.74
X73.66Y-41.91
X73.66Y-68.58
X73.66Y-69.85
X73.66Y-71.12
X73.66Y-72.39
X73.66Y-73.66
X73.66Y-74.93
X73.66Y-76.2
X73.66Y-77.47
X73.914Y-92.329
X74.168Y-78.867
X74.93Y-41.91
X76.073Y-56.642
X76.2Y-41.91
X76.2Y-138.43
X76.454Y-112.522
X77.343Y-75.438
X77.47Y-138.43
X77.724Y-96.012
X78.486Y-63.246
X78.486Y-90.678
X78.613Y-77.851
X78.74Y-138.43
X79.629Y-95.631
X79.629Y-123.19
X80.01Y-45.085
X80.01Y-46.99
X80.01Y-48.26
X80.01Y-49.53
X80.01Y-50.8
X80.01Y-52.07
X80.01Y-128.27
X80.01Y-129.54
X80.01Y-130.81
X80.01Y-132.08
X80.01Y-133.35
X80.01Y-134.62
X80.01Y-135.89
X80.01Y-137.16
T2
X44.04Y-87.62
X44.04Y-90.16
X44.04Y-119.37
X44.04Y-121.91
X44.04Y-124.45
X44.04Y-126.99
X44.04Y-129.53
X67.564Y-129.032
X67.564Y-131.572
X70.104Y-129.032
X70.104Y-131.572
X72.644Y-83.312
X72.644Y-85.852
X72.644Y-88.392
X72.644Y-90.932
X72.644Y-93.472
X72.644Y-96.012
X72.644Y-98.552
X72.644Y-101.092
X72.644Y-103.632
X72.644Y-106.172
X72.644Y-108.712
X72.644Y-111.252
X72.644Y-113.792
X72.644Y-116.332
X72.644Y-118.872
X72.644Y-121.412
X72.644Y-123.952
X72.644Y-126.492
X72.644Y-129.032
X72.644Y-131.572
X75.184Y-83.312
X75.184Y-85.852
X75.184Y-88.392
X75.184Y-90.932
X75.184Y-93.472
X75.184Y-96.012
X75.184Y-98.552
X75.184Y-101.092
X75.184Y-103.632
X75.184Y-106.172
X75.184Y-108.712
X75.184Y-111.252
X75.184Y-113.792
X75.184Y-116.332
X75.184Y-118.872
X75.184Y-121.412
X75.184Y-123.952
X75.184Y-126.492
X75.184Y-129.032
X75.184Y-131.572
X78.33Y-114.29
X78.33Y-116.83
X78.33Y-119.37
X78.33Y-121.91
X78.33Y-124.45
X78.33Y-126.99
T3
X72.112Y-42.986
X72.612Y-50.986
X75.362Y-51.486
X78.112Y-50.986
X78.612Y-42.986
T4
X52.451Y-49.276
X52.451Y-74.803
X54.991Y-49.276
X54.991Y-74.803
X57.531Y-49.276
X57.531Y-74.803
X60.071Y-49.276
X60.071Y-74.803
X62.611Y-49.276
X62.611Y-74.803
X65.151Y-49.276
X65.151Y-74.803
X67.691Y-49.276
X67.691Y-74.803
X70.231Y-49.276
X70.231Y-74.803
T5
X53.721Y-126.337
X53.721Y-131.219
T6
X59.69Y-136.525
X63.19Y-136.525
T0
M30
