%TF.GenerationSoftware,KiCad,Pcbnew,4.0.4-stable*%
%TF.CreationDate,2016-12-08T20:54:20+02:00*%
%TF.ProjectId,front_prototype,66726F6E745F70726F746F747970652E,rev?*%
%TF.FileFunction,Legend,Bot*%
%FSLAX46Y46*%
G04 Gerber Fmt 4.6, Leading zero omitted, Abs format (unit mm)*
G04 Created by KiCad (PCBNEW 4.0.4-stable) date 12/08/16 20:54:20*
%MOMM*%
%LPD*%
G01*
G04 APERTURE LIST*
%ADD10C,0.100000*%
%ADD11C,0.150000*%
%ADD12C,0.152400*%
G04 APERTURE END LIST*
D10*
D11*
X56015000Y-112942000D02*
X57015000Y-112942000D01*
X57015000Y-114642000D02*
X56015000Y-114642000D01*
X56777000Y-129198000D02*
X57777000Y-129198000D01*
X57777000Y-130898000D02*
X56777000Y-130898000D01*
X56777000Y-126912000D02*
X57777000Y-126912000D01*
X57777000Y-128612000D02*
X56777000Y-128612000D01*
X43688000Y-78350580D02*
X43688000Y-78500440D01*
X43688000Y-77502220D02*
X43688000Y-77301560D01*
X43688000Y-78350580D02*
X42938700Y-78350580D01*
X43688000Y-78350580D02*
X44389040Y-78350580D01*
X43688000Y-78350580D02*
X44389040Y-77502220D01*
X44389040Y-77502220D02*
X42986960Y-77502220D01*
X42986960Y-77502220D02*
X43688000Y-78350580D01*
X62045000Y-124656000D02*
X61820000Y-124656000D01*
X62045000Y-117406000D02*
X61720000Y-117406000D01*
X54795000Y-117406000D02*
X55120000Y-117406000D01*
X54795000Y-124656000D02*
X55120000Y-124656000D01*
X62045000Y-124656000D02*
X62045000Y-124331000D01*
X54795000Y-124656000D02*
X54795000Y-124331000D01*
X54795000Y-117406000D02*
X54795000Y-117731000D01*
X62045000Y-117406000D02*
X62045000Y-117731000D01*
X61820000Y-124656000D02*
X61820000Y-126081000D01*
X43561000Y-83947000D02*
X43561000Y-83312000D01*
X43561000Y-83312000D02*
X44577000Y-83312000D01*
X44577000Y-85090000D02*
X43561000Y-85090000D01*
X43561000Y-85090000D02*
X43561000Y-84455000D01*
X43434000Y-83947000D02*
X43561000Y-83947000D01*
X43561000Y-84455000D02*
X43434000Y-84455000D01*
X44577000Y-83312000D02*
X44577000Y-85090000D01*
X43434000Y-84455000D02*
X43434000Y-83947000D01*
X43942000Y-93980000D02*
X43307000Y-93980000D01*
X43307000Y-93980000D02*
X43307000Y-92964000D01*
X45085000Y-92964000D02*
X45085000Y-93980000D01*
X45085000Y-93980000D02*
X44450000Y-93980000D01*
X43942000Y-94107000D02*
X43942000Y-93980000D01*
X44450000Y-93980000D02*
X44450000Y-94107000D01*
X43307000Y-92964000D02*
X45085000Y-92964000D01*
X44450000Y-94107000D02*
X43942000Y-94107000D01*
X60974000Y-111922000D02*
X60974000Y-113122000D01*
X62724000Y-113122000D02*
X62724000Y-111922000D01*
X60565000Y-113376000D02*
X60565000Y-112176000D01*
X58815000Y-112176000D02*
X58815000Y-113376000D01*
X63662000Y-58279000D02*
X64862000Y-58279000D01*
X64862000Y-56529000D02*
X63662000Y-56529000D01*
X63662000Y-60311000D02*
X64862000Y-60311000D01*
X64862000Y-58561000D02*
X63662000Y-58561000D01*
X63662000Y-62343000D02*
X64862000Y-62343000D01*
X64862000Y-60593000D02*
X63662000Y-60593000D01*
X63662000Y-64629000D02*
X64862000Y-64629000D01*
X64862000Y-62879000D02*
X63662000Y-62879000D01*
X63662000Y-66661000D02*
X64862000Y-66661000D01*
X64862000Y-64911000D02*
X63662000Y-64911000D01*
X63662000Y-68693000D02*
X64862000Y-68693000D01*
X64862000Y-66943000D02*
X63662000Y-66943000D01*
X66407000Y-117821000D02*
X66407000Y-116621000D01*
X64657000Y-116621000D02*
X64657000Y-117821000D01*
X48627000Y-121631000D02*
X48627000Y-120431000D01*
X46877000Y-120431000D02*
X46877000Y-121631000D01*
X48479000Y-91708000D02*
X47279000Y-91708000D01*
X47279000Y-93458000D02*
X48479000Y-93458000D01*
X52720240Y-133477000D02*
X53121560Y-133677660D01*
X53121560Y-133677660D02*
X53721000Y-133779260D01*
X53721000Y-133779260D02*
X54221380Y-133677660D01*
X54221380Y-133677660D02*
X54919880Y-133278880D01*
X54919880Y-133278880D02*
X55321200Y-132676900D01*
X55321200Y-132676900D02*
X55521860Y-132077460D01*
X55521860Y-132077460D02*
X55521860Y-125478540D01*
X55521860Y-125478540D02*
X55321200Y-124777500D01*
X55321200Y-124777500D02*
X55021480Y-124378720D01*
X55021480Y-124378720D02*
X54521100Y-123977400D01*
X54521100Y-123977400D02*
X53921660Y-123776740D01*
X53921660Y-123776740D02*
X53421280Y-123776740D01*
X53421280Y-123776740D02*
X52920900Y-123977400D01*
X52920900Y-123977400D02*
X52321460Y-124477780D01*
X52321460Y-124477780D02*
X52021740Y-124978160D01*
X52021740Y-124978160D02*
X51920140Y-125478540D01*
X51920140Y-125577600D02*
X51920140Y-132179060D01*
X51920140Y-132179060D02*
X52021740Y-132577840D01*
X52021740Y-132577840D02*
X52321460Y-133078220D01*
X52321460Y-133078220D02*
X52821840Y-133578600D01*
X51391820Y-125587760D02*
X51440080Y-125128020D01*
X51440080Y-125128020D02*
X51551840Y-124729240D01*
X51551840Y-124729240D02*
X51770280Y-124297440D01*
X51770280Y-124297440D02*
X52001420Y-124007880D01*
X52001420Y-124007880D02*
X52351940Y-123677680D01*
X52351940Y-123677680D02*
X52890420Y-123388120D01*
X52890420Y-123388120D02*
X53489860Y-123258580D01*
X53489860Y-123258580D02*
X54000400Y-123258580D01*
X54000400Y-123258580D02*
X54701440Y-123428760D01*
X54701440Y-123428760D02*
X55290720Y-123827540D01*
X55290720Y-123827540D02*
X55661560Y-124287280D01*
X55661560Y-124287280D02*
X55869840Y-124708920D01*
X55869840Y-124708920D02*
X56029860Y-125158500D01*
X56029860Y-125158500D02*
X56060340Y-125597920D01*
X55841900Y-132938520D02*
X55620920Y-133316980D01*
X55620920Y-133316980D02*
X55341520Y-133637020D01*
X55341520Y-133637020D02*
X55011320Y-133888480D01*
X55011320Y-133888480D02*
X54460140Y-134188200D01*
X54460140Y-134188200D02*
X53990240Y-134297420D01*
X53990240Y-134297420D02*
X53530500Y-134317740D01*
X53530500Y-134317740D02*
X53070760Y-134228840D01*
X53070760Y-134228840D02*
X52621180Y-134038340D01*
X52621180Y-134038340D02*
X52151280Y-133677660D01*
X52151280Y-133677660D02*
X51831240Y-133327140D01*
X51831240Y-133327140D02*
X51600100Y-132938520D01*
X51600100Y-132938520D02*
X51460400Y-132509260D01*
X51460400Y-132509260D02*
X51391820Y-132067300D01*
X56050180Y-125577600D02*
X56050180Y-132029200D01*
X56050180Y-132029200D02*
X56012080Y-132448300D01*
X56012080Y-132448300D02*
X55841900Y-132938520D01*
X51391820Y-125577600D02*
X51391820Y-132029200D01*
X57015000Y-112610000D02*
X56015000Y-112610000D01*
X56015000Y-110910000D02*
X57015000Y-110910000D01*
X57015000Y-110578000D02*
X56015000Y-110578000D01*
X56015000Y-108878000D02*
X57015000Y-108878000D01*
D12*
X57531000Y-54610000D02*
X58293000Y-54610000D01*
X58293000Y-54610000D02*
X58293000Y-70612000D01*
X58293000Y-70612000D02*
X57531000Y-70612000D01*
M02*
