%TF.GenerationSoftware,KiCad,Pcbnew,4.0.4-stable*%
%TF.CreationDate,2016-12-08T20:54:20+02:00*%
%TF.ProjectId,front_prototype,66726F6E745F70726F746F747970652E,rev?*%
%TF.FileFunction,Soldermask,Top*%
%FSLAX46Y46*%
G04 Gerber Fmt 4.6, Leading zero omitted, Abs format (unit mm)*
G04 Created by KiCad (PCBNEW 4.0.4-stable) date 12/08/16 20:54:20*
%MOMM*%
%LPD*%
G01*
G04 APERTURE LIST*
%ADD10C,0.100000*%
%ADD11C,1.924000*%
%ADD12O,2.899360X2.398980*%
%ADD13R,2.127200X2.432000*%
%ADD14O,2.127200X2.432000*%
%ADD15R,1.400000X1.650000*%
%ADD16R,1.650000X1.400000*%
%ADD17C,2.800000*%
%ADD18R,2.800000X2.800000*%
%ADD19C,1.724000*%
G04 APERTURE END LIST*
D10*
D11*
X72644000Y-83312000D03*
X75184000Y-83312000D03*
X72644000Y-85852000D03*
X75184000Y-85852000D03*
X72644000Y-88392000D03*
X75184000Y-88392000D03*
X72644000Y-90932000D03*
X75184000Y-90932000D03*
X72644000Y-93472000D03*
X75184000Y-93472000D03*
X72644000Y-96012000D03*
X75184000Y-96012000D03*
X72644000Y-98552000D03*
X75184000Y-98552000D03*
X72644000Y-101092000D03*
X75184000Y-101092000D03*
X72644000Y-103632000D03*
X75184000Y-103632000D03*
X72644000Y-106172000D03*
X75184000Y-106172000D03*
X72644000Y-108712000D03*
X75184000Y-108712000D03*
X72644000Y-111252000D03*
X75184000Y-111252000D03*
X72644000Y-113792000D03*
X75184000Y-113792000D03*
X72644000Y-116332000D03*
X75184000Y-116332000D03*
X72644000Y-118872000D03*
X75184000Y-118872000D03*
X72644000Y-121412000D03*
X75184000Y-121412000D03*
X72644000Y-123952000D03*
X75184000Y-123952000D03*
X72644000Y-126492000D03*
X75184000Y-126492000D03*
X72644000Y-129032000D03*
X75184000Y-129032000D03*
X72644000Y-131572000D03*
X75184000Y-131572000D03*
X70104000Y-129032000D03*
X70104000Y-131572000D03*
X67564000Y-129032000D03*
X67564000Y-131572000D03*
D12*
X53721000Y-126337060D03*
X53721000Y-131218940D03*
D13*
X52451000Y-74803000D03*
D14*
X54991000Y-74803000D03*
X57531000Y-74803000D03*
X60071000Y-74803000D03*
X62611000Y-74803000D03*
X65151000Y-74803000D03*
X67691000Y-74803000D03*
X70231000Y-74803000D03*
D11*
X44040000Y-129530000D03*
X44040000Y-126990000D03*
X44040000Y-124450000D03*
X44040000Y-121910000D03*
X44040000Y-119370000D03*
X78330000Y-114290000D03*
X78330000Y-116830000D03*
X78330000Y-119370000D03*
X78330000Y-121910000D03*
X78330000Y-124450000D03*
X78330000Y-126990000D03*
X44040000Y-90160000D03*
X44040000Y-87620000D03*
D15*
X58055000Y-119380000D03*
X60055000Y-119380000D03*
D16*
X56261000Y-61484000D03*
X56261000Y-63484000D03*
X49276000Y-89265000D03*
X49276000Y-87265000D03*
D17*
X63190000Y-136525000D03*
D18*
X59690000Y-136525000D03*
D19*
X78111800Y-50985800D03*
X72611800Y-50985800D03*
X75361800Y-51485800D03*
X78611800Y-42985800D03*
X72111800Y-42985800D03*
D13*
X52451000Y-49276000D03*
D14*
X54991000Y-49276000D03*
X57531000Y-49276000D03*
X60071000Y-49276000D03*
X62611000Y-49276000D03*
X65151000Y-49276000D03*
X67691000Y-49276000D03*
X70231000Y-49276000D03*
M02*
