%TF.GenerationSoftware,KiCad,Pcbnew,4.0.4-stable*%
%TF.CreationDate,2016-12-08T20:54:20+02:00*%
%TF.ProjectId,front_prototype,66726F6E745F70726F746F747970652E,rev?*%
%TF.FileFunction,Legend,Top*%
%FSLAX46Y46*%
G04 Gerber Fmt 4.6, Leading zero omitted, Abs format (unit mm)*
G04 Created by KiCad (PCBNEW 4.0.4-stable) date 12/08/16 20:54:20*
%MOMM*%
%LPD*%
G01*
G04 APERTURE LIST*
%ADD10C,0.100000*%
%ADD11C,0.150000*%
G04 APERTURE END LIST*
D10*
D11*
X52624000Y-136452000D02*
G75*
G03X52624000Y-136452000I-1500000J0D01*
G01*
X74824000Y-136452000D02*
G75*
G03X74824000Y-136452000I-1500000J0D01*
G01*
X74824000Y-78552000D02*
G75*
G03X74824000Y-78552000I-1500000J0D01*
G01*
X52624000Y-78552000D02*
G75*
G03X52624000Y-78552000I-1500000J0D01*
G01*
X51124000Y-75052000D02*
G75*
G03X47624000Y-78552000I0J-3500000D01*
G01*
X76824000Y-78552000D02*
G75*
G03X73324000Y-75052000I-3500000J0D01*
G01*
X47624000Y-136452000D02*
G75*
G03X51124000Y-139952000I3500000J0D01*
G01*
X73324000Y-139952000D02*
G75*
G03X76824000Y-136452000I0J3500000D01*
G01*
X51124000Y-75052000D02*
X73324000Y-75052000D01*
X76824000Y-78552000D02*
X76824000Y-136452000D01*
X51124000Y-139952000D02*
X73324000Y-139952000D01*
X47624000Y-136452000D02*
X47624000Y-78552000D01*
X53721000Y-73533000D02*
X71501000Y-73533000D01*
X71501000Y-73533000D02*
X71501000Y-76073000D01*
X71501000Y-76073000D02*
X53721000Y-76073000D01*
X50901000Y-73253000D02*
X52451000Y-73253000D01*
X53721000Y-73533000D02*
X53721000Y-76073000D01*
X52451000Y-76353000D02*
X50901000Y-76353000D01*
X50901000Y-76353000D02*
X50901000Y-73253000D01*
X78500000Y-140000000D02*
G75*
G03X81500000Y-137000000I0J3000000D01*
G01*
X41500000Y-137000000D02*
G75*
G03X44500000Y-140000000I3000000J0D01*
G01*
X66500000Y-138000000D02*
G75*
G03X56500000Y-138000000I-5000000J0D01*
G01*
X78500000Y-140000000D02*
X66500000Y-140000000D01*
X66500000Y-140000000D02*
X66500000Y-138000000D01*
X44500000Y-140000000D02*
X56500000Y-140000000D01*
X56500000Y-140000000D02*
X56500000Y-138000000D01*
X41500000Y-80000000D02*
X41500000Y-137000000D01*
X41500000Y-80000000D02*
X81500000Y-80000000D01*
X81500000Y-80000000D02*
X81500000Y-137000000D01*
X59555000Y-118530000D02*
X58555000Y-118530000D01*
X58555000Y-120230000D02*
X59555000Y-120230000D01*
X57111000Y-62984000D02*
X57111000Y-61984000D01*
X55411000Y-61984000D02*
X55411000Y-62984000D01*
X48426000Y-87765000D02*
X48426000Y-88765000D01*
X50126000Y-88765000D02*
X50126000Y-87765000D01*
X61440000Y-140625000D02*
X61440000Y-141025000D01*
X57940000Y-139525000D02*
X64940000Y-139525000D01*
X57940000Y-140625000D02*
X64940000Y-140625000D01*
X57940000Y-133425000D02*
X57940000Y-141025000D01*
X64940000Y-141025000D02*
X64940000Y-133425000D01*
X64940000Y-133425000D02*
X57940000Y-133425000D01*
X53721000Y-48006000D02*
X71501000Y-48006000D01*
X71501000Y-48006000D02*
X71501000Y-50546000D01*
X71501000Y-50546000D02*
X53721000Y-50546000D01*
X50901000Y-47726000D02*
X52451000Y-47726000D01*
X53721000Y-48006000D02*
X53721000Y-50546000D01*
X52451000Y-50826000D02*
X50901000Y-50826000D01*
X50901000Y-50826000D02*
X50901000Y-47726000D01*
M02*
