M48
;DRILL file {KiCad 4.0.4-stable} date 03/25/17 04:02:20
;FORMAT={-:-/ absolute / metric / decimal}
FMAT,2
METRIC,TZ
T1C0.400
T2C0.800
T3C1.000
T4C1.016
T5C1.200
T6C1.100
%
G90
G05
M71
T1
X42.5Y-43.5
X42.5Y-45.5
X42.5Y-47.5
X42.5Y-49.5
X42.5Y-51.5
X42.5Y-53.5
X42.5Y-55.5
X42.5Y-57.5
X42.5Y-58.5
X42.5Y-63.5
X42.5Y-64.5
X42.5Y-69.5
X42.5Y-71.5
X42.5Y-75.5
X42.5Y-77.5
X42.5Y-79.5
X42.5Y-81.5
X42.5Y-83.5
X42.5Y-85.5
X42.5Y-106.5
X42.5Y-108.5
X42.5Y-110.5
X42.5Y-112.5
X42.5Y-114.5
X42.5Y-116.5
X42.5Y-118.5
X42.5Y-120.5
X42.5Y-122.5
X42.5Y-124.5
X42.5Y-126.5
X42.5Y-128.5
X42.5Y-130.5
X42.5Y-132.5
X42.5Y-134.5
X42.5Y-137.
X45.Y-139.
X45.314Y-77.216
X45.5Y-41.
X47.5Y-41.
X47.625Y-113.284
X47.625Y-125.73
X48.197Y-99.949
X48.323Y-83.629
X48.323Y-88.328
X48.323Y-92.456
X48.323Y-106.934
X48.387Y-85.344
X48.387Y-96.393
X48.578Y-123.38
X49.Y-139.
X49.276Y-124.46
X49.5Y-41.
X49.759Y-65.786
X50.292Y-128.118
X50.99Y-74.993
X51.5Y-41.
X51.5Y-139.
X51.943Y-83.693
X52.324Y-67.818
X52.578Y-129.464
X52.629Y-44.577
X53.206Y-128.967
X53.213Y-40.996
X53.34Y-80.416
X53.5Y-139.
X53.634Y-128.339
X54.189Y-127.792
X54.61Y-65.532
X54.61Y-71.12
X54.7Y-116.9
X54.915Y-91.897
X55.2Y-118.9
X55.5Y-139.
X56.159Y-114.859
X56.642Y-90.932
X56.642Y-92.964
X56.642Y-95.25
X56.642Y-97.536
X56.642Y-99.568
X56.642Y-101.854
X57.Y-113.85
X57.1Y-113.
X57.15Y-72.187
X57.785Y-125.603
X57.975Y-118.808
X58.039Y-120.65
X58.102Y-91.
X58.102Y-92.964
X58.102Y-95.25
X58.102Y-97.536
X58.102Y-99.568
X58.102Y-101.854
X59.097Y-110.448
X59.157Y-119.888
X59.182Y-118.11
X59.753Y-111.633
X59.9Y-117.609
X59.919Y-79.451
X59.95Y-101.3
X60.Y-91.
X60.Y-94.
X60.Y-96.
X60.Y-98.
X60.Y-100.
X60.401Y-119.228
X60.402Y-80.048
X60.96Y-80.645
X61.Y-91.
X61.Y-94.
X61.Y-96.
X61.Y-98.
X61.Y-100.
X61.189Y-77.978
X61.277Y-111.379
X61.341Y-122.174
X62.103Y-122.174
X62.23Y-95.123
X62.23Y-97.028
X62.23Y-98.933
X62.23Y-100.838
X62.357Y-91.186
X62.357Y-93.218
X62.433Y-105.512
X62.547Y-125.285
X63.043Y-106.528
X63.182Y-121.73
X63.398Y-113.284
X63.5Y-78.003
X63.817Y-120.523
X63.881Y-118.999
X64.068Y-112.455
X64.77Y-72.187
X65.05Y-84.7
X65.05Y-86.3
X65.405Y-102.87
X65.405Y-104.14
X65.405Y-105.41
X65.659Y-89.471
X65.9Y-86.4
X65.95Y-84.65
X66.04Y-111.76
X66.04Y-113.03
X66.04Y-114.3
X66.484Y-126.682
X66.802Y-115.887
X67.Y-139.
X67.12Y-106.584
X67.183Y-77.597
X67.259Y-119.786
X67.31Y-68.199
X67.31Y-89.725
X67.31Y-102.87
X67.31Y-104.14
X67.31Y-105.41
X67.31Y-111.76
X67.31Y-113.03
X67.31Y-114.3
X68.377Y-118.262
X68.5Y-139.
X68.516Y-114.681
X68.961Y-90.424
X69.088Y-120.955
X69.215Y-93.345
X69.215Y-95.25
X69.215Y-102.87
X69.215Y-104.14
X69.342Y-91.948
X69.723Y-77.597
X69.9Y-84.5
X69.977Y-89.916
X69.977Y-90.805
X70.Y-86.35
X70.358Y-106.807
X70.485Y-68.707
X70.5Y-139.
X70.739Y-89.789
X70.9Y-86.3
X71.05Y-84.5
X71.31Y-109.728
X72.5Y-139.
X72.75Y-55.45
X73.5Y-41.
X73.914Y-115.189
X74.016Y-44.501
X74.5Y-139.
X74.613Y-53.595
X74.981Y-60.401
X75.565Y-80.645
X75.997Y-44.298
X75.997Y-54.762
X76.327Y-115.062
X76.423Y-100.33
X76.454Y-51.206
X76.5Y-139.
X76.708Y-120.904
X76.962Y-128.778
X77.279Y-53.53
X77.418Y-81.534
X77.418Y-84.074
X78.105Y-122.047
X78.5Y-41.
X78.5Y-139.
X78.803Y-119.38
X79.15Y-55.45
X80.5Y-43.5
X80.5Y-46.
X80.5Y-48.5
X80.5Y-51.
X80.5Y-53.
X80.5Y-55.5
X80.5Y-57.5
X80.5Y-59.5
X80.5Y-61.5
X80.5Y-63.5
X80.5Y-65.5
X80.5Y-67.5
X80.5Y-69.5
X80.5Y-71.5
X80.5Y-73.5
X80.5Y-75.5
X80.5Y-77.5
X80.5Y-131.
X80.5Y-133.
X80.5Y-135.
X80.5Y-137.
X80.518Y-100.457
X80.518Y-102.489
X80.518Y-104.521
X80.518Y-106.489
X80.518Y-108.521
X80.518Y-110.49
X80.518Y-112.522
X80.518Y-114.49
T2
X44.04Y-82.54
X44.04Y-135.88
X53.848Y-114.427
X53.848Y-119.307
X60.96Y-46.99
X60.96Y-73.279
X62.23Y-49.022
X63.5Y-46.99
X63.5Y-73.279
X72.644Y-83.312
X72.644Y-131.572
X75.184Y-83.312
X75.184Y-131.572
X79.6Y-82.54
X79.6Y-128.26
T3
X44.04Y-85.08
X44.04Y-105.4
X44.04Y-107.94
X44.04Y-110.48
X44.04Y-114.3
X44.04Y-116.84
X44.04Y-119.38
X44.04Y-121.92
X44.04Y-124.46
X44.04Y-127.
X44.04Y-130.8
X44.04Y-133.34
X44.45Y-46.99
X44.45Y-49.53
X44.45Y-52.07
X44.45Y-54.61
X53.34Y-46.99
X54.61Y-49.022
X55.88Y-46.99
X57.15Y-49.022
X58.42Y-46.99
X59.69Y-49.022
X64.77Y-49.022
X66.04Y-46.99
X67.31Y-49.022
X67.564Y-129.032
X67.564Y-131.572
X68.58Y-46.99
X69.85Y-49.022
X69.85Y-56.959
X70.104Y-129.032
X70.104Y-131.572
X71.12Y-46.99
X72.39Y-56.959
X72.39Y-67.246
X72.644Y-85.852
X72.644Y-88.392
X72.644Y-90.932
X72.644Y-93.472
X72.644Y-96.012
X72.644Y-98.552
X72.644Y-101.092
X72.644Y-103.632
X72.644Y-106.172
X72.644Y-108.712
X72.644Y-111.252
X72.644Y-113.792
X72.644Y-116.332
X72.644Y-118.872
X72.644Y-121.412
X72.644Y-123.952
X72.644Y-126.492
X72.644Y-129.032
X72.696Y-43.878
X73.196Y-52.078
X74.93Y-56.959
X74.93Y-67.246
X75.184Y-85.852
X75.184Y-88.392
X75.184Y-90.932
X75.184Y-93.472
X75.184Y-96.012
X75.184Y-98.552
X75.184Y-101.092
X75.184Y-103.632
X75.184Y-106.172
X75.184Y-108.712
X75.184Y-111.252
X75.184Y-113.792
X75.184Y-116.332
X75.184Y-118.872
X75.184Y-121.412
X75.184Y-123.952
X75.184Y-126.492
X75.184Y-129.032
X75.946Y-52.578
X77.47Y-56.959
X77.47Y-67.246
X78.696Y-52.078
X79.196Y-43.878
X79.6Y-85.08
X79.6Y-87.62
X79.6Y-90.16
X79.6Y-97.78
X79.6Y-118.1
X79.6Y-120.64
X79.6Y-123.18
X79.6Y-125.72
T4
X53.34Y-73.279
X55.88Y-73.279
X58.42Y-73.279
X66.04Y-73.279
X68.58Y-73.279
X71.12Y-73.279
T5
X59.944Y-136.398
X63.444Y-136.398
T6
X75.946Y-42.578
X75.946Y-49.578
T0
M30
