%TF.GenerationSoftware,KiCad,Pcbnew,4.0.4-stable*%
%TF.CreationDate,2017-03-14T03:39:13+02:00*%
%TF.ProjectId,front_prototype,66726F6E745F70726F746F747970652E,rev?*%
%TF.FileFunction,Legend,Top*%
%FSLAX46Y46*%
G04 Gerber Fmt 4.6, Leading zero omitted, Abs format (unit mm)*
G04 Created by KiCad (PCBNEW 4.0.4-stable) date 03/14/17 03:39:13*
%MOMM*%
%LPD*%
G01*
G04 APERTURE LIST*
%ADD10C,0.100000*%
%ADD11C,0.300000*%
%ADD12C,0.150000*%
%ADD13C,0.120000*%
%ADD14C,0.010000*%
G04 APERTURE END LIST*
D10*
D11*
X55563215Y-41464571D02*
X56563215Y-41464571D01*
X55563215Y-42964571D01*
X56563215Y-42964571D01*
X57706071Y-42893143D02*
X57563214Y-42964571D01*
X57277500Y-42964571D01*
X57134643Y-42893143D01*
X57063214Y-42750286D01*
X57063214Y-42178857D01*
X57134643Y-42036000D01*
X57277500Y-41964571D01*
X57563214Y-41964571D01*
X57706071Y-42036000D01*
X57777500Y-42178857D01*
X57777500Y-42321714D01*
X57063214Y-42464571D01*
X58420357Y-42964571D02*
X58420357Y-41964571D01*
X58420357Y-42250286D02*
X58491785Y-42107429D01*
X58563214Y-42036000D01*
X58706071Y-41964571D01*
X58848928Y-41964571D01*
X59563214Y-42964571D02*
X59420356Y-42893143D01*
X59348928Y-42821714D01*
X59277499Y-42678857D01*
X59277499Y-42250286D01*
X59348928Y-42107429D01*
X59420356Y-42036000D01*
X59563214Y-41964571D01*
X59777499Y-41964571D01*
X59920356Y-42036000D01*
X59991785Y-42107429D01*
X60063214Y-42250286D01*
X60063214Y-42678857D01*
X59991785Y-42821714D01*
X59920356Y-42893143D01*
X59777499Y-42964571D01*
X59563214Y-42964571D01*
X60706071Y-42964571D02*
X60706071Y-41464571D01*
X61277499Y-41464571D01*
X61420357Y-41536000D01*
X61491785Y-41607429D01*
X61563214Y-41750286D01*
X61563214Y-41964571D01*
X61491785Y-42107429D01*
X61420357Y-42178857D01*
X61277499Y-42250286D01*
X60706071Y-42250286D01*
X62206071Y-42964571D02*
X62206071Y-41464571D01*
X62848928Y-42964571D02*
X62848928Y-42178857D01*
X62777499Y-42036000D01*
X62634642Y-41964571D01*
X62420357Y-41964571D01*
X62277499Y-42036000D01*
X62206071Y-42107429D01*
X63777500Y-42964571D02*
X63634642Y-42893143D01*
X63563214Y-42821714D01*
X63491785Y-42678857D01*
X63491785Y-42250286D01*
X63563214Y-42107429D01*
X63634642Y-42036000D01*
X63777500Y-41964571D01*
X63991785Y-41964571D01*
X64134642Y-42036000D01*
X64206071Y-42107429D01*
X64277500Y-42250286D01*
X64277500Y-42678857D01*
X64206071Y-42821714D01*
X64134642Y-42893143D01*
X63991785Y-42964571D01*
X63777500Y-42964571D01*
X64920357Y-41964571D02*
X64920357Y-42964571D01*
X64920357Y-42107429D02*
X64991785Y-42036000D01*
X65134643Y-41964571D01*
X65348928Y-41964571D01*
X65491785Y-42036000D01*
X65563214Y-42178857D01*
X65563214Y-42964571D01*
X66848928Y-42893143D02*
X66706071Y-42964571D01*
X66420357Y-42964571D01*
X66277500Y-42893143D01*
X66206071Y-42750286D01*
X66206071Y-42178857D01*
X66277500Y-42036000D01*
X66420357Y-41964571D01*
X66706071Y-41964571D01*
X66848928Y-42036000D01*
X66920357Y-42178857D01*
X66920357Y-42321714D01*
X66206071Y-42464571D01*
X58313214Y-44086000D02*
X58170357Y-44014571D01*
X57956071Y-44014571D01*
X57741786Y-44086000D01*
X57598928Y-44228857D01*
X57527500Y-44371714D01*
X57456071Y-44657429D01*
X57456071Y-44871714D01*
X57527500Y-45157429D01*
X57598928Y-45300286D01*
X57741786Y-45443143D01*
X57956071Y-45514571D01*
X58098928Y-45514571D01*
X58313214Y-45443143D01*
X58384643Y-45371714D01*
X58384643Y-44871714D01*
X58098928Y-44871714D01*
X59670357Y-45514571D02*
X59670357Y-44728857D01*
X59598928Y-44586000D01*
X59456071Y-44514571D01*
X59170357Y-44514571D01*
X59027500Y-44586000D01*
X59670357Y-45443143D02*
X59527500Y-45514571D01*
X59170357Y-45514571D01*
X59027500Y-45443143D01*
X58956071Y-45300286D01*
X58956071Y-45157429D01*
X59027500Y-45014571D01*
X59170357Y-44943143D01*
X59527500Y-44943143D01*
X59670357Y-44871714D01*
X60384643Y-45514571D02*
X60384643Y-44514571D01*
X60384643Y-44657429D02*
X60456071Y-44586000D01*
X60598929Y-44514571D01*
X60813214Y-44514571D01*
X60956071Y-44586000D01*
X61027500Y-44728857D01*
X61027500Y-45514571D01*
X61027500Y-44728857D02*
X61098929Y-44586000D01*
X61241786Y-44514571D01*
X61456071Y-44514571D01*
X61598929Y-44586000D01*
X61670357Y-44728857D01*
X61670357Y-45514571D01*
X62384643Y-45514571D02*
X62384643Y-44514571D01*
X62384643Y-44657429D02*
X62456071Y-44586000D01*
X62598929Y-44514571D01*
X62813214Y-44514571D01*
X62956071Y-44586000D01*
X63027500Y-44728857D01*
X63027500Y-45514571D01*
X63027500Y-44728857D02*
X63098929Y-44586000D01*
X63241786Y-44514571D01*
X63456071Y-44514571D01*
X63598929Y-44586000D01*
X63670357Y-44728857D01*
X63670357Y-45514571D01*
X65027500Y-45514571D02*
X65027500Y-44728857D01*
X64956071Y-44586000D01*
X64813214Y-44514571D01*
X64527500Y-44514571D01*
X64384643Y-44586000D01*
X65027500Y-45443143D02*
X64884643Y-45514571D01*
X64527500Y-45514571D01*
X64384643Y-45443143D01*
X64313214Y-45300286D01*
X64313214Y-45157429D01*
X64384643Y-45014571D01*
X64527500Y-44943143D01*
X64884643Y-44943143D01*
X65027500Y-44871714D01*
D12*
X69624500Y-124954000D02*
X68424500Y-124954000D01*
X68424500Y-123204000D02*
X69624500Y-123204000D01*
X69624500Y-122985500D02*
X68424500Y-122985500D01*
X68424500Y-121235500D02*
X69624500Y-121235500D01*
X64805000Y-90565000D02*
X66005000Y-90565000D01*
X66005000Y-92315000D02*
X64805000Y-92315000D01*
X64805000Y-92470000D02*
X66005000Y-92470000D01*
X66005000Y-94220000D02*
X64805000Y-94220000D01*
X64805000Y-94375000D02*
X66005000Y-94375000D01*
X66005000Y-96125000D02*
X64805000Y-96125000D01*
X64805000Y-96280000D02*
X66005000Y-96280000D01*
X66005000Y-98030000D02*
X64805000Y-98030000D01*
X64805000Y-98185000D02*
X66005000Y-98185000D01*
X66005000Y-99935000D02*
X64805000Y-99935000D01*
X64805000Y-100090000D02*
X66005000Y-100090000D01*
X66005000Y-101840000D02*
X64805000Y-101840000D01*
X54610000Y-72009000D02*
X72390000Y-72009000D01*
X72390000Y-72009000D02*
X72390000Y-74549000D01*
X72390000Y-74549000D02*
X54610000Y-74549000D01*
X51790000Y-71729000D02*
X53340000Y-71729000D01*
X54610000Y-72009000D02*
X54610000Y-74549000D01*
X53340000Y-74829000D02*
X51790000Y-74829000D01*
X51790000Y-74829000D02*
X51790000Y-71729000D01*
D13*
X76200000Y-55569500D02*
X68460000Y-55569500D01*
X68460000Y-55569500D02*
X68460000Y-58349500D01*
X68460000Y-58349500D02*
X76200000Y-58349500D01*
X76200000Y-58349500D02*
X76200000Y-55569500D01*
X77470000Y-55569500D02*
X78860000Y-55569500D01*
X78860000Y-55569500D02*
X78860000Y-56959500D01*
X76200000Y-65856500D02*
X71000000Y-65856500D01*
X71000000Y-65856500D02*
X71000000Y-68636500D01*
X71000000Y-68636500D02*
X76200000Y-68636500D01*
X76200000Y-68636500D02*
X76200000Y-65856500D01*
X77470000Y-65856500D02*
X78860000Y-65856500D01*
X78860000Y-65856500D02*
X78860000Y-67246500D01*
D12*
X61694000Y-140498000D02*
X61694000Y-140898000D01*
X58194000Y-139398000D02*
X65194000Y-139398000D01*
X58194000Y-140498000D02*
X65194000Y-140498000D01*
X58194000Y-133298000D02*
X58194000Y-140898000D01*
X65194000Y-140898000D02*
X65194000Y-133298000D01*
X65194000Y-133298000D02*
X58194000Y-133298000D01*
D13*
X45840000Y-53340000D02*
X45840000Y-45600000D01*
X45840000Y-45600000D02*
X43060000Y-45600000D01*
X43060000Y-45600000D02*
X43060000Y-53340000D01*
X43060000Y-53340000D02*
X45840000Y-53340000D01*
X45840000Y-54610000D02*
X45840000Y-56000000D01*
X45840000Y-56000000D02*
X44450000Y-56000000D01*
X62992900Y-116365400D02*
X62992900Y-117365400D01*
X64692900Y-117365400D02*
X64692900Y-116365400D01*
X50077000Y-64524000D02*
X50077000Y-65524000D01*
X51777000Y-65524000D02*
X51777000Y-64524000D01*
X76747000Y-45855000D02*
X76747000Y-46855000D01*
X78447000Y-46855000D02*
X78447000Y-45855000D01*
X75272000Y-46855000D02*
X75272000Y-45855000D01*
X73572000Y-45855000D02*
X73572000Y-46855000D01*
X78199500Y-49565000D02*
X78899500Y-49565000D01*
X78899500Y-50765000D02*
X78199500Y-50765000D01*
X73502000Y-50765000D02*
X72802000Y-50765000D01*
X72802000Y-49565000D02*
X73502000Y-49565000D01*
X57920000Y-122643000D02*
X58920000Y-122643000D01*
X58920000Y-120943000D02*
X57920000Y-120943000D01*
X45018400Y-59024000D02*
X45018400Y-58324000D01*
X46218400Y-58324000D02*
X46218400Y-59024000D01*
X46398700Y-56067400D02*
X47098700Y-56067400D01*
X47098700Y-57267400D02*
X46398700Y-57267400D01*
X48453600Y-58324000D02*
X48453600Y-59024000D01*
X47253600Y-59024000D02*
X47253600Y-58324000D01*
X49270400Y-47996400D02*
X48570400Y-47996400D01*
X48570400Y-46796400D02*
X49270400Y-46796400D01*
X47234400Y-47910000D02*
X47234400Y-48610000D01*
X46034400Y-48610000D02*
X46034400Y-47910000D01*
X48570400Y-48422000D02*
X49270400Y-48422000D01*
X49270400Y-49622000D02*
X48570400Y-49622000D01*
X54610000Y-48380000D02*
X72510000Y-48380000D01*
X72510000Y-48380000D02*
X72510000Y-45600000D01*
X72510000Y-45600000D02*
X54610000Y-45600000D01*
X54610000Y-45600000D02*
X54610000Y-48380000D01*
X53340000Y-48380000D02*
X51950000Y-48380000D01*
X51950000Y-48380000D02*
X51950000Y-46990000D01*
X42650000Y-115570000D02*
X42650000Y-128390000D01*
X42650000Y-128390000D02*
X45430000Y-128390000D01*
X45430000Y-128390000D02*
X45430000Y-115570000D01*
X45430000Y-115570000D02*
X42650000Y-115570000D01*
X42650000Y-114300000D02*
X42650000Y-112910000D01*
X42650000Y-112910000D02*
X44040000Y-112910000D01*
X55880000Y-50412000D02*
X71240000Y-50412000D01*
X71240000Y-50412000D02*
X71240000Y-47632000D01*
X71240000Y-47632000D02*
X55880000Y-47632000D01*
X55880000Y-47632000D02*
X55880000Y-50412000D01*
X54610000Y-50412000D02*
X53220000Y-50412000D01*
X53220000Y-50412000D02*
X53220000Y-49022000D01*
D12*
X48244000Y-113312000D02*
X52644000Y-113312000D01*
X48244000Y-119312000D02*
X48244000Y-113312000D01*
X52644000Y-119312000D02*
X48244000Y-119312000D01*
X52644000Y-113312000D02*
X52644000Y-119312000D01*
X52624000Y-136452000D02*
G75*
G03X52624000Y-136452000I-1500000J0D01*
G01*
X75414000Y-136452000D02*
G75*
G03X75414000Y-136452000I-1500000J0D01*
G01*
X75414000Y-78552000D02*
G75*
G03X75414000Y-78552000I-1500000J0D01*
G01*
X52624000Y-78552000D02*
G75*
G03X52624000Y-78552000I-1500000J0D01*
G01*
X51124000Y-75052000D02*
G75*
G03X47624000Y-78552000I0J-3500000D01*
G01*
X77414000Y-78552000D02*
G75*
G03X73914000Y-75052000I-3500000J0D01*
G01*
X47624000Y-136452000D02*
G75*
G03X51124000Y-139952000I3500000J0D01*
G01*
X73914000Y-139952000D02*
G75*
G03X77414000Y-136452000I0J3500000D01*
G01*
X51124000Y-75052000D02*
X73914000Y-75052000D01*
X77414000Y-78552000D02*
X77414000Y-136452000D01*
X51124000Y-139952000D02*
X73914000Y-139952000D01*
X47624000Y-136452000D02*
X47624000Y-78552000D01*
X78500000Y-140000000D02*
G75*
G03X81500000Y-137000000I0J3000000D01*
G01*
X41500000Y-137000000D02*
G75*
G03X44500000Y-140000000I3000000J0D01*
G01*
X66500000Y-138000000D02*
G75*
G03X56500000Y-138000000I-5000000J0D01*
G01*
X78500000Y-140000000D02*
X66500000Y-140000000D01*
X66500000Y-140000000D02*
X66500000Y-138000000D01*
X44500000Y-140000000D02*
X56500000Y-140000000D01*
X56500000Y-140000000D02*
X56500000Y-138000000D01*
X41500000Y-80000000D02*
X41500000Y-137000000D01*
X41500000Y-80000000D02*
X81500000Y-80000000D01*
X81500000Y-80000000D02*
X81500000Y-137000000D01*
D14*
G36*
X52937057Y-69033248D02*
X52975912Y-69034362D01*
X53056995Y-69037639D01*
X53117356Y-69042154D01*
X53164494Y-69049113D01*
X53205909Y-69059724D01*
X53249102Y-69075197D01*
X53262388Y-69080505D01*
X53406185Y-69153653D01*
X53534383Y-69249211D01*
X53644695Y-69364702D01*
X53734834Y-69497649D01*
X53802513Y-69645577D01*
X53813219Y-69676947D01*
X53850108Y-69791316D01*
X53844808Y-70325130D01*
X53843360Y-70463060D01*
X53841905Y-70575908D01*
X53840262Y-70666814D01*
X53838251Y-70738917D01*
X53835693Y-70795357D01*
X53832407Y-70839275D01*
X53828214Y-70873809D01*
X53822934Y-70902099D01*
X53816386Y-70927285D01*
X53808932Y-70950882D01*
X53751826Y-71082395D01*
X53672428Y-71206047D01*
X53574860Y-71317686D01*
X53463247Y-71413159D01*
X53341712Y-71488313D01*
X53229332Y-71534501D01*
X53081966Y-71568269D01*
X52929771Y-71580158D01*
X52780812Y-71569956D01*
X52680305Y-71548872D01*
X52648555Y-71540041D01*
X52648555Y-71849945D01*
X52648361Y-71952278D01*
X52647595Y-72030064D01*
X52645983Y-72086976D01*
X52643251Y-72126689D01*
X52639126Y-72152876D01*
X52633332Y-72169211D01*
X52625597Y-72179367D01*
X52623861Y-72180922D01*
X52598604Y-72196855D01*
X52552745Y-72220681D01*
X52491923Y-72249915D01*
X52421781Y-72282072D01*
X52347958Y-72314667D01*
X52276097Y-72345215D01*
X52211839Y-72371229D01*
X52160825Y-72390225D01*
X52128695Y-72399717D01*
X52126366Y-72400101D01*
X52084074Y-72399852D01*
X52054950Y-72382537D01*
X52052283Y-72379700D01*
X52048070Y-72373721D01*
X52044365Y-72364525D01*
X52041136Y-72350379D01*
X52038350Y-72329551D01*
X52035974Y-72300308D01*
X52033977Y-72260919D01*
X52032325Y-72209650D01*
X52030987Y-72144770D01*
X52029930Y-72064546D01*
X52029121Y-71967246D01*
X52028529Y-71851138D01*
X52028120Y-71714489D01*
X52027862Y-71555567D01*
X52027723Y-71372639D01*
X52027670Y-71163974D01*
X52027666Y-71064932D01*
X52027666Y-70301555D01*
X52662666Y-70301555D01*
X52662747Y-70433172D01*
X52663311Y-70539716D01*
X52664842Y-70624337D01*
X52667821Y-70690186D01*
X52672733Y-70740411D01*
X52680060Y-70778164D01*
X52690285Y-70806592D01*
X52703891Y-70828847D01*
X52721360Y-70848078D01*
X52743176Y-70867435D01*
X52750354Y-70873495D01*
X52825419Y-70922191D01*
X52904623Y-70947494D01*
X52982837Y-70948466D01*
X53047895Y-70927889D01*
X53090400Y-70901689D01*
X53131439Y-70869462D01*
X53133120Y-70867916D01*
X53155432Y-70846670D01*
X53173351Y-70826571D01*
X53187347Y-70804392D01*
X53197891Y-70776905D01*
X53205451Y-70740880D01*
X53210498Y-70693090D01*
X53213502Y-70630307D01*
X53214932Y-70549301D01*
X53215257Y-70446845D01*
X53214949Y-70319710D01*
X53214902Y-70305873D01*
X53214384Y-70181635D01*
X53213625Y-70082322D01*
X53212430Y-70004639D01*
X53210601Y-69945289D01*
X53207939Y-69900976D01*
X53204249Y-69868403D01*
X53199332Y-69844274D01*
X53192992Y-69825292D01*
X53185114Y-69808326D01*
X53137657Y-69743598D01*
X53072750Y-69694269D01*
X52997126Y-69663059D01*
X52917517Y-69652690D01*
X52840658Y-69665883D01*
X52836446Y-69667421D01*
X52791631Y-69693178D01*
X52743268Y-69734282D01*
X52701429Y-69781362D01*
X52682629Y-69810493D01*
X52676862Y-69826703D01*
X52672260Y-69852820D01*
X52668709Y-69891656D01*
X52666094Y-69946020D01*
X52664301Y-70018721D01*
X52663216Y-70112570D01*
X52662725Y-70230377D01*
X52662666Y-70301555D01*
X52027666Y-70301555D01*
X52027666Y-69777365D01*
X52063982Y-69669043D01*
X52104824Y-69562849D01*
X52152746Y-69472207D01*
X52213559Y-69387905D01*
X52293075Y-69300727D01*
X52301824Y-69291949D01*
X52415998Y-69192068D01*
X52534612Y-69117099D01*
X52663149Y-69063752D01*
X52700745Y-69052495D01*
X52747242Y-69041735D01*
X52797331Y-69035257D01*
X52858205Y-69032586D01*
X52937057Y-69033248D01*
X52937057Y-69033248D01*
G37*
X52937057Y-69033248D02*
X52975912Y-69034362D01*
X53056995Y-69037639D01*
X53117356Y-69042154D01*
X53164494Y-69049113D01*
X53205909Y-69059724D01*
X53249102Y-69075197D01*
X53262388Y-69080505D01*
X53406185Y-69153653D01*
X53534383Y-69249211D01*
X53644695Y-69364702D01*
X53734834Y-69497649D01*
X53802513Y-69645577D01*
X53813219Y-69676947D01*
X53850108Y-69791316D01*
X53844808Y-70325130D01*
X53843360Y-70463060D01*
X53841905Y-70575908D01*
X53840262Y-70666814D01*
X53838251Y-70738917D01*
X53835693Y-70795357D01*
X53832407Y-70839275D01*
X53828214Y-70873809D01*
X53822934Y-70902099D01*
X53816386Y-70927285D01*
X53808932Y-70950882D01*
X53751826Y-71082395D01*
X53672428Y-71206047D01*
X53574860Y-71317686D01*
X53463247Y-71413159D01*
X53341712Y-71488313D01*
X53229332Y-71534501D01*
X53081966Y-71568269D01*
X52929771Y-71580158D01*
X52780812Y-71569956D01*
X52680305Y-71548872D01*
X52648555Y-71540041D01*
X52648555Y-71849945D01*
X52648361Y-71952278D01*
X52647595Y-72030064D01*
X52645983Y-72086976D01*
X52643251Y-72126689D01*
X52639126Y-72152876D01*
X52633332Y-72169211D01*
X52625597Y-72179367D01*
X52623861Y-72180922D01*
X52598604Y-72196855D01*
X52552745Y-72220681D01*
X52491923Y-72249915D01*
X52421781Y-72282072D01*
X52347958Y-72314667D01*
X52276097Y-72345215D01*
X52211839Y-72371229D01*
X52160825Y-72390225D01*
X52128695Y-72399717D01*
X52126366Y-72400101D01*
X52084074Y-72399852D01*
X52054950Y-72382537D01*
X52052283Y-72379700D01*
X52048070Y-72373721D01*
X52044365Y-72364525D01*
X52041136Y-72350379D01*
X52038350Y-72329551D01*
X52035974Y-72300308D01*
X52033977Y-72260919D01*
X52032325Y-72209650D01*
X52030987Y-72144770D01*
X52029930Y-72064546D01*
X52029121Y-71967246D01*
X52028529Y-71851138D01*
X52028120Y-71714489D01*
X52027862Y-71555567D01*
X52027723Y-71372639D01*
X52027670Y-71163974D01*
X52027666Y-71064932D01*
X52027666Y-70301555D01*
X52662666Y-70301555D01*
X52662747Y-70433172D01*
X52663311Y-70539716D01*
X52664842Y-70624337D01*
X52667821Y-70690186D01*
X52672733Y-70740411D01*
X52680060Y-70778164D01*
X52690285Y-70806592D01*
X52703891Y-70828847D01*
X52721360Y-70848078D01*
X52743176Y-70867435D01*
X52750354Y-70873495D01*
X52825419Y-70922191D01*
X52904623Y-70947494D01*
X52982837Y-70948466D01*
X53047895Y-70927889D01*
X53090400Y-70901689D01*
X53131439Y-70869462D01*
X53133120Y-70867916D01*
X53155432Y-70846670D01*
X53173351Y-70826571D01*
X53187347Y-70804392D01*
X53197891Y-70776905D01*
X53205451Y-70740880D01*
X53210498Y-70693090D01*
X53213502Y-70630307D01*
X53214932Y-70549301D01*
X53215257Y-70446845D01*
X53214949Y-70319710D01*
X53214902Y-70305873D01*
X53214384Y-70181635D01*
X53213625Y-70082322D01*
X53212430Y-70004639D01*
X53210601Y-69945289D01*
X53207939Y-69900976D01*
X53204249Y-69868403D01*
X53199332Y-69844274D01*
X53192992Y-69825292D01*
X53185114Y-69808326D01*
X53137657Y-69743598D01*
X53072750Y-69694269D01*
X52997126Y-69663059D01*
X52917517Y-69652690D01*
X52840658Y-69665883D01*
X52836446Y-69667421D01*
X52791631Y-69693178D01*
X52743268Y-69734282D01*
X52701429Y-69781362D01*
X52682629Y-69810493D01*
X52676862Y-69826703D01*
X52672260Y-69852820D01*
X52668709Y-69891656D01*
X52666094Y-69946020D01*
X52664301Y-70018721D01*
X52663216Y-70112570D01*
X52662725Y-70230377D01*
X52662666Y-70301555D01*
X52027666Y-70301555D01*
X52027666Y-69777365D01*
X52063982Y-69669043D01*
X52104824Y-69562849D01*
X52152746Y-69472207D01*
X52213559Y-69387905D01*
X52293075Y-69300727D01*
X52301824Y-69291949D01*
X52415998Y-69192068D01*
X52534612Y-69117099D01*
X52663149Y-69063752D01*
X52700745Y-69052495D01*
X52747242Y-69041735D01*
X52797331Y-69035257D01*
X52858205Y-69032586D01*
X52937057Y-69033248D01*
G36*
X57270587Y-69033719D02*
X57361423Y-69045058D01*
X57444631Y-69066512D01*
X57530208Y-69100251D01*
X57569564Y-69118755D01*
X57698491Y-69196430D01*
X57813794Y-69295386D01*
X57912318Y-69411536D01*
X57990911Y-69540791D01*
X58046419Y-69679064D01*
X58067158Y-69763731D01*
X58070699Y-69796762D01*
X58073751Y-69853151D01*
X58076321Y-69929766D01*
X58078416Y-70023476D01*
X58080043Y-70131151D01*
X58081208Y-70249659D01*
X58081917Y-70375869D01*
X58082179Y-70506651D01*
X58081999Y-70638872D01*
X58081384Y-70769402D01*
X58080341Y-70895110D01*
X58078876Y-71012865D01*
X58076997Y-71119536D01*
X58074710Y-71211991D01*
X58072021Y-71287100D01*
X58068938Y-71341731D01*
X58065468Y-71372754D01*
X58063694Y-71378302D01*
X58039383Y-71398167D01*
X57990035Y-71426793D01*
X57917178Y-71463412D01*
X57822341Y-71507256D01*
X57707050Y-71557560D01*
X57704674Y-71558572D01*
X57640855Y-71584628D01*
X57596480Y-71599498D01*
X57565764Y-71604645D01*
X57542924Y-71601536D01*
X57539607Y-71600367D01*
X57523927Y-71594385D01*
X57510525Y-71587856D01*
X57499210Y-71578655D01*
X57489790Y-71564656D01*
X57482075Y-71543733D01*
X57475874Y-71513761D01*
X57470996Y-71472612D01*
X57467250Y-71418162D01*
X57464446Y-71348284D01*
X57462392Y-71260853D01*
X57460898Y-71153742D01*
X57459772Y-71024826D01*
X57458825Y-70871978D01*
X57457864Y-70693072D01*
X57457846Y-70689611D01*
X57456917Y-70511314D01*
X57456045Y-70358992D01*
X57455013Y-70230396D01*
X57453608Y-70123282D01*
X57451614Y-70035401D01*
X57448816Y-69964507D01*
X57444999Y-69908354D01*
X57439948Y-69864693D01*
X57433449Y-69831280D01*
X57425286Y-69805866D01*
X57415244Y-69786205D01*
X57403109Y-69770051D01*
X57388666Y-69755156D01*
X57371699Y-69739273D01*
X57366454Y-69734332D01*
X57294853Y-69683677D01*
X57216765Y-69658115D01*
X57136711Y-69656752D01*
X57059215Y-69678695D01*
X56988798Y-69723048D01*
X56929985Y-69788921D01*
X56908818Y-69824743D01*
X56902803Y-69837676D01*
X56897755Y-69852724D01*
X56893589Y-69872324D01*
X56890222Y-69898916D01*
X56887567Y-69934937D01*
X56885543Y-69982823D01*
X56884063Y-70045014D01*
X56883044Y-70123947D01*
X56882402Y-70222060D01*
X56882052Y-70341791D01*
X56881909Y-70485577D01*
X56881888Y-70603463D01*
X56881627Y-70760386D01*
X56880869Y-70904060D01*
X56879652Y-71032310D01*
X56878016Y-71142960D01*
X56875998Y-71233834D01*
X56873637Y-71302758D01*
X56870972Y-71347555D01*
X56868398Y-71365311D01*
X56850772Y-71389872D01*
X56813983Y-71416380D01*
X56754256Y-71447481D01*
X56744926Y-71451853D01*
X56689075Y-71477372D01*
X56625519Y-71505762D01*
X56559467Y-71534778D01*
X56496125Y-71562176D01*
X56440701Y-71585711D01*
X56398403Y-71603139D01*
X56374438Y-71612215D01*
X56371080Y-71612994D01*
X56356294Y-71607672D01*
X56335905Y-71599642D01*
X56320727Y-71593571D01*
X56307700Y-71587121D01*
X56296672Y-71578232D01*
X56287491Y-71564844D01*
X56280004Y-71544898D01*
X56274060Y-71516334D01*
X56269506Y-71477092D01*
X56266189Y-71425113D01*
X56263958Y-71358337D01*
X56262661Y-71274704D01*
X56262144Y-71172155D01*
X56262257Y-71048630D01*
X56262847Y-70902070D01*
X56263761Y-70730414D01*
X56264312Y-70630926D01*
X56265361Y-70449221D01*
X56266408Y-70293506D01*
X56267523Y-70161547D01*
X56268778Y-70051113D01*
X56270244Y-69959970D01*
X56271991Y-69885886D01*
X56274089Y-69826628D01*
X56276611Y-69779964D01*
X56279626Y-69743661D01*
X56283205Y-69715486D01*
X56287419Y-69693206D01*
X56292339Y-69674590D01*
X56294887Y-69666555D01*
X56359066Y-69516310D01*
X56446283Y-69381436D01*
X56554792Y-69263993D01*
X56682851Y-69166040D01*
X56753606Y-69125048D01*
X56867028Y-69075041D01*
X56982827Y-69044494D01*
X57110249Y-69031263D01*
X57162123Y-69030326D01*
X57270587Y-69033719D01*
X57270587Y-69033719D01*
G37*
X57270587Y-69033719D02*
X57361423Y-69045058D01*
X57444631Y-69066512D01*
X57530208Y-69100251D01*
X57569564Y-69118755D01*
X57698491Y-69196430D01*
X57813794Y-69295386D01*
X57912318Y-69411536D01*
X57990911Y-69540791D01*
X58046419Y-69679064D01*
X58067158Y-69763731D01*
X58070699Y-69796762D01*
X58073751Y-69853151D01*
X58076321Y-69929766D01*
X58078416Y-70023476D01*
X58080043Y-70131151D01*
X58081208Y-70249659D01*
X58081917Y-70375869D01*
X58082179Y-70506651D01*
X58081999Y-70638872D01*
X58081384Y-70769402D01*
X58080341Y-70895110D01*
X58078876Y-71012865D01*
X58076997Y-71119536D01*
X58074710Y-71211991D01*
X58072021Y-71287100D01*
X58068938Y-71341731D01*
X58065468Y-71372754D01*
X58063694Y-71378302D01*
X58039383Y-71398167D01*
X57990035Y-71426793D01*
X57917178Y-71463412D01*
X57822341Y-71507256D01*
X57707050Y-71557560D01*
X57704674Y-71558572D01*
X57640855Y-71584628D01*
X57596480Y-71599498D01*
X57565764Y-71604645D01*
X57542924Y-71601536D01*
X57539607Y-71600367D01*
X57523927Y-71594385D01*
X57510525Y-71587856D01*
X57499210Y-71578655D01*
X57489790Y-71564656D01*
X57482075Y-71543733D01*
X57475874Y-71513761D01*
X57470996Y-71472612D01*
X57467250Y-71418162D01*
X57464446Y-71348284D01*
X57462392Y-71260853D01*
X57460898Y-71153742D01*
X57459772Y-71024826D01*
X57458825Y-70871978D01*
X57457864Y-70693072D01*
X57457846Y-70689611D01*
X57456917Y-70511314D01*
X57456045Y-70358992D01*
X57455013Y-70230396D01*
X57453608Y-70123282D01*
X57451614Y-70035401D01*
X57448816Y-69964507D01*
X57444999Y-69908354D01*
X57439948Y-69864693D01*
X57433449Y-69831280D01*
X57425286Y-69805866D01*
X57415244Y-69786205D01*
X57403109Y-69770051D01*
X57388666Y-69755156D01*
X57371699Y-69739273D01*
X57366454Y-69734332D01*
X57294853Y-69683677D01*
X57216765Y-69658115D01*
X57136711Y-69656752D01*
X57059215Y-69678695D01*
X56988798Y-69723048D01*
X56929985Y-69788921D01*
X56908818Y-69824743D01*
X56902803Y-69837676D01*
X56897755Y-69852724D01*
X56893589Y-69872324D01*
X56890222Y-69898916D01*
X56887567Y-69934937D01*
X56885543Y-69982823D01*
X56884063Y-70045014D01*
X56883044Y-70123947D01*
X56882402Y-70222060D01*
X56882052Y-70341791D01*
X56881909Y-70485577D01*
X56881888Y-70603463D01*
X56881627Y-70760386D01*
X56880869Y-70904060D01*
X56879652Y-71032310D01*
X56878016Y-71142960D01*
X56875998Y-71233834D01*
X56873637Y-71302758D01*
X56870972Y-71347555D01*
X56868398Y-71365311D01*
X56850772Y-71389872D01*
X56813983Y-71416380D01*
X56754256Y-71447481D01*
X56744926Y-71451853D01*
X56689075Y-71477372D01*
X56625519Y-71505762D01*
X56559467Y-71534778D01*
X56496125Y-71562176D01*
X56440701Y-71585711D01*
X56398403Y-71603139D01*
X56374438Y-71612215D01*
X56371080Y-71612994D01*
X56356294Y-71607672D01*
X56335905Y-71599642D01*
X56320727Y-71593571D01*
X56307700Y-71587121D01*
X56296672Y-71578232D01*
X56287491Y-71564844D01*
X56280004Y-71544898D01*
X56274060Y-71516334D01*
X56269506Y-71477092D01*
X56266189Y-71425113D01*
X56263958Y-71358337D01*
X56262661Y-71274704D01*
X56262144Y-71172155D01*
X56262257Y-71048630D01*
X56262847Y-70902070D01*
X56263761Y-70730414D01*
X56264312Y-70630926D01*
X56265361Y-70449221D01*
X56266408Y-70293506D01*
X56267523Y-70161547D01*
X56268778Y-70051113D01*
X56270244Y-69959970D01*
X56271991Y-69885886D01*
X56274089Y-69826628D01*
X56276611Y-69779964D01*
X56279626Y-69743661D01*
X56283205Y-69715486D01*
X56287419Y-69693206D01*
X56292339Y-69674590D01*
X56294887Y-69666555D01*
X56359066Y-69516310D01*
X56446283Y-69381436D01*
X56554792Y-69263993D01*
X56682851Y-69166040D01*
X56753606Y-69125048D01*
X56867028Y-69075041D01*
X56982827Y-69044494D01*
X57110249Y-69031263D01*
X57162123Y-69030326D01*
X57270587Y-69033719D01*
G36*
X50939985Y-69031212D02*
X51013225Y-69041123D01*
X51025777Y-69043895D01*
X51170428Y-69093022D01*
X51306288Y-69166908D01*
X51429624Y-69262544D01*
X51536702Y-69376924D01*
X51623786Y-69507040D01*
X51640719Y-69539124D01*
X51659992Y-69578675D01*
X51675850Y-69615455D01*
X51688678Y-69652740D01*
X51698862Y-69693804D01*
X51706786Y-69741922D01*
X51712838Y-69800369D01*
X51717401Y-69872417D01*
X51720861Y-69961343D01*
X51723604Y-70070421D01*
X51726015Y-70202925D01*
X51727130Y-70273333D01*
X51729151Y-70408039D01*
X51730556Y-70517846D01*
X51731223Y-70606071D01*
X51731032Y-70676031D01*
X51729860Y-70731047D01*
X51727588Y-70774434D01*
X51724093Y-70809512D01*
X51719255Y-70839598D01*
X51712952Y-70868011D01*
X51705063Y-70898068D01*
X51704186Y-70901277D01*
X51648320Y-71054162D01*
X51568723Y-71191905D01*
X51465795Y-71313996D01*
X51339941Y-71419923D01*
X51251555Y-71476688D01*
X51161427Y-71517515D01*
X51052207Y-71548890D01*
X50931836Y-71569463D01*
X50808254Y-71577887D01*
X50689404Y-71572812D01*
X50687111Y-71572561D01*
X50628272Y-71564106D01*
X50571476Y-71552802D01*
X50538944Y-71544102D01*
X50404448Y-71486202D01*
X50278718Y-71404266D01*
X50165454Y-71302020D01*
X50068355Y-71183193D01*
X49991122Y-71051509D01*
X49949837Y-70950666D01*
X49941789Y-70925547D01*
X49935222Y-70900497D01*
X49929954Y-70872346D01*
X49925801Y-70837927D01*
X49922581Y-70794071D01*
X49920109Y-70737608D01*
X49918203Y-70665371D01*
X49916679Y-70574190D01*
X49915355Y-70460897D01*
X49914873Y-70410016D01*
X50532863Y-70410016D01*
X50533048Y-70527050D01*
X50534786Y-70618090D01*
X50538099Y-70684230D01*
X50543015Y-70726565D01*
X50545036Y-70735657D01*
X50578134Y-70810210D01*
X50630323Y-70871177D01*
X50696256Y-70916128D01*
X50770585Y-70942634D01*
X50847965Y-70948263D01*
X50923048Y-70930585D01*
X50947510Y-70918603D01*
X50989924Y-70887727D01*
X51033188Y-70845876D01*
X51049815Y-70826016D01*
X51096333Y-70765028D01*
X51096333Y-70315488D01*
X51095841Y-70177963D01*
X51094401Y-70060368D01*
X51092066Y-69964438D01*
X51088889Y-69891909D01*
X51084923Y-69844518D01*
X51081356Y-69826224D01*
X51043490Y-69763227D01*
X50985236Y-69711470D01*
X50913416Y-69674708D01*
X50834855Y-69656697D01*
X50775330Y-69657792D01*
X50692456Y-69681773D01*
X50625125Y-69729198D01*
X50577969Y-69790872D01*
X50539633Y-69856288D01*
X50534203Y-70265894D01*
X50532863Y-70410016D01*
X49914873Y-70410016D01*
X49914145Y-70333195D01*
X49912969Y-70185499D01*
X49912581Y-70062684D01*
X49913350Y-69961410D01*
X49915644Y-69878341D01*
X49919831Y-69810137D01*
X49926280Y-69753459D01*
X49935359Y-69704971D01*
X49947435Y-69661332D01*
X49962877Y-69619205D01*
X49982054Y-69575252D01*
X50002512Y-69531991D01*
X50050440Y-69449507D01*
X50114919Y-69362413D01*
X50188089Y-69280264D01*
X50262089Y-69212614D01*
X50270961Y-69205688D01*
X50339130Y-69160296D01*
X50421324Y-69115570D01*
X50506624Y-69076818D01*
X50584113Y-69049349D01*
X50602444Y-69044516D01*
X50672479Y-69033278D01*
X50759093Y-69027305D01*
X50851768Y-69026611D01*
X50939985Y-69031212D01*
X50939985Y-69031212D01*
G37*
X50939985Y-69031212D02*
X51013225Y-69041123D01*
X51025777Y-69043895D01*
X51170428Y-69093022D01*
X51306288Y-69166908D01*
X51429624Y-69262544D01*
X51536702Y-69376924D01*
X51623786Y-69507040D01*
X51640719Y-69539124D01*
X51659992Y-69578675D01*
X51675850Y-69615455D01*
X51688678Y-69652740D01*
X51698862Y-69693804D01*
X51706786Y-69741922D01*
X51712838Y-69800369D01*
X51717401Y-69872417D01*
X51720861Y-69961343D01*
X51723604Y-70070421D01*
X51726015Y-70202925D01*
X51727130Y-70273333D01*
X51729151Y-70408039D01*
X51730556Y-70517846D01*
X51731223Y-70606071D01*
X51731032Y-70676031D01*
X51729860Y-70731047D01*
X51727588Y-70774434D01*
X51724093Y-70809512D01*
X51719255Y-70839598D01*
X51712952Y-70868011D01*
X51705063Y-70898068D01*
X51704186Y-70901277D01*
X51648320Y-71054162D01*
X51568723Y-71191905D01*
X51465795Y-71313996D01*
X51339941Y-71419923D01*
X51251555Y-71476688D01*
X51161427Y-71517515D01*
X51052207Y-71548890D01*
X50931836Y-71569463D01*
X50808254Y-71577887D01*
X50689404Y-71572812D01*
X50687111Y-71572561D01*
X50628272Y-71564106D01*
X50571476Y-71552802D01*
X50538944Y-71544102D01*
X50404448Y-71486202D01*
X50278718Y-71404266D01*
X50165454Y-71302020D01*
X50068355Y-71183193D01*
X49991122Y-71051509D01*
X49949837Y-70950666D01*
X49941789Y-70925547D01*
X49935222Y-70900497D01*
X49929954Y-70872346D01*
X49925801Y-70837927D01*
X49922581Y-70794071D01*
X49920109Y-70737608D01*
X49918203Y-70665371D01*
X49916679Y-70574190D01*
X49915355Y-70460897D01*
X49914873Y-70410016D01*
X50532863Y-70410016D01*
X50533048Y-70527050D01*
X50534786Y-70618090D01*
X50538099Y-70684230D01*
X50543015Y-70726565D01*
X50545036Y-70735657D01*
X50578134Y-70810210D01*
X50630323Y-70871177D01*
X50696256Y-70916128D01*
X50770585Y-70942634D01*
X50847965Y-70948263D01*
X50923048Y-70930585D01*
X50947510Y-70918603D01*
X50989924Y-70887727D01*
X51033188Y-70845876D01*
X51049815Y-70826016D01*
X51096333Y-70765028D01*
X51096333Y-70315488D01*
X51095841Y-70177963D01*
X51094401Y-70060368D01*
X51092066Y-69964438D01*
X51088889Y-69891909D01*
X51084923Y-69844518D01*
X51081356Y-69826224D01*
X51043490Y-69763227D01*
X50985236Y-69711470D01*
X50913416Y-69674708D01*
X50834855Y-69656697D01*
X50775330Y-69657792D01*
X50692456Y-69681773D01*
X50625125Y-69729198D01*
X50577969Y-69790872D01*
X50539633Y-69856288D01*
X50534203Y-70265894D01*
X50532863Y-70410016D01*
X49914873Y-70410016D01*
X49914145Y-70333195D01*
X49912969Y-70185499D01*
X49912581Y-70062684D01*
X49913350Y-69961410D01*
X49915644Y-69878341D01*
X49919831Y-69810137D01*
X49926280Y-69753459D01*
X49935359Y-69704971D01*
X49947435Y-69661332D01*
X49962877Y-69619205D01*
X49982054Y-69575252D01*
X50002512Y-69531991D01*
X50050440Y-69449507D01*
X50114919Y-69362413D01*
X50188089Y-69280264D01*
X50262089Y-69212614D01*
X50270961Y-69205688D01*
X50339130Y-69160296D01*
X50421324Y-69115570D01*
X50506624Y-69076818D01*
X50584113Y-69049349D01*
X50602444Y-69044516D01*
X50672479Y-69033278D01*
X50759093Y-69027305D01*
X50851768Y-69026611D01*
X50939985Y-69031212D01*
G36*
X55201320Y-69036329D02*
X55342478Y-69069609D01*
X55474011Y-69127330D01*
X55599010Y-69210806D01*
X55704931Y-69305481D01*
X55790558Y-69400542D01*
X55856875Y-69497329D01*
X55905648Y-69600661D01*
X55938641Y-69715355D01*
X55957622Y-69846230D01*
X55964355Y-69998104D01*
X55964421Y-70013618D01*
X55964038Y-70091124D01*
X55962256Y-70145366D01*
X55958493Y-70181290D01*
X55952164Y-70203843D01*
X55942683Y-70217972D01*
X55939972Y-70220571D01*
X55921653Y-70231325D01*
X55880615Y-70251982D01*
X55819971Y-70281083D01*
X55742836Y-70317171D01*
X55652324Y-70358786D01*
X55551550Y-70404470D01*
X55456666Y-70446962D01*
X55309160Y-70512672D01*
X55185363Y-70567936D01*
X55083198Y-70613767D01*
X55000584Y-70651183D01*
X54935443Y-70681198D01*
X54885696Y-70704829D01*
X54849263Y-70723091D01*
X54824066Y-70737001D01*
X54808025Y-70747573D01*
X54799061Y-70755824D01*
X54795096Y-70762769D01*
X54794049Y-70769425D01*
X54794009Y-70770709D01*
X54804066Y-70798633D01*
X54830873Y-70835582D01*
X54867929Y-70874577D01*
X54908738Y-70908641D01*
X54940547Y-70928049D01*
X55016624Y-70949322D01*
X55097555Y-70946404D01*
X55176050Y-70920581D01*
X55243154Y-70874691D01*
X55284853Y-70828163D01*
X55312745Y-70775176D01*
X55330421Y-70707459D01*
X55337486Y-70657496D01*
X55345198Y-70607686D01*
X55355138Y-70567453D01*
X55363211Y-70548837D01*
X55382378Y-70534611D01*
X55422559Y-70512158D01*
X55478595Y-70483805D01*
X55545325Y-70451882D01*
X55617590Y-70418716D01*
X55690231Y-70386637D01*
X55758087Y-70357974D01*
X55816000Y-70335054D01*
X55858809Y-70320206D01*
X55879870Y-70315666D01*
X55911542Y-70319003D01*
X55934345Y-70331541D01*
X55949645Y-70357066D01*
X55958806Y-70399369D01*
X55963194Y-70462237D01*
X55964174Y-70549460D01*
X55964174Y-70549611D01*
X55960644Y-70686492D01*
X55949738Y-70801785D01*
X55929774Y-70901544D01*
X55899066Y-70991824D01*
X55855930Y-71078677D01*
X55798683Y-71168160D01*
X55787834Y-71183500D01*
X55686209Y-71306448D01*
X55573203Y-71408401D01*
X55451873Y-71487029D01*
X55325276Y-71540008D01*
X55315555Y-71542911D01*
X55229127Y-71561630D01*
X55128307Y-71573622D01*
X55025393Y-71578051D01*
X54932681Y-71574078D01*
X54906333Y-71570768D01*
X54757230Y-71533833D01*
X54616647Y-71470791D01*
X54487578Y-71383208D01*
X54406385Y-71308862D01*
X54313277Y-71199643D01*
X54241502Y-71083350D01*
X54189195Y-70962443D01*
X54151388Y-70858944D01*
X54151589Y-70308611D01*
X54151693Y-70162976D01*
X54152134Y-70042306D01*
X54152198Y-70036705D01*
X54773178Y-70036705D01*
X54773375Y-70059137D01*
X54774093Y-70061696D01*
X54786902Y-70056272D01*
X54821092Y-70041313D01*
X54872258Y-70018759D01*
X54935997Y-69990549D01*
X54978704Y-69971599D01*
X55054695Y-69937799D01*
X55127305Y-69905414D01*
X55190001Y-69877364D01*
X55236249Y-69856569D01*
X55249496Y-69850565D01*
X55317493Y-69819600D01*
X55283850Y-69774827D01*
X55242332Y-69734718D01*
X55184536Y-69697479D01*
X55121053Y-69668575D01*
X55062477Y-69653471D01*
X55046637Y-69652444D01*
X54995820Y-69658354D01*
X54946231Y-69672591D01*
X54945697Y-69672813D01*
X54903991Y-69697985D01*
X54859615Y-69736551D01*
X54820212Y-69780497D01*
X54793426Y-69821808D01*
X54787134Y-69839061D01*
X54783932Y-69863002D01*
X54780460Y-69902833D01*
X54777195Y-69950457D01*
X54774610Y-69997780D01*
X54773178Y-70036705D01*
X54152198Y-70036705D01*
X54153276Y-69943342D01*
X54155484Y-69862829D01*
X54159122Y-69797507D01*
X54164556Y-69744120D01*
X54172151Y-69699410D01*
X54182270Y-69660119D01*
X54195280Y-69622989D01*
X54211545Y-69584764D01*
X54231430Y-69542186D01*
X54239267Y-69525746D01*
X54270251Y-69467453D01*
X54306686Y-69414089D01*
X54354409Y-69357963D01*
X54410998Y-69299567D01*
X54526663Y-69197030D01*
X54642985Y-69120427D01*
X54764625Y-69067758D01*
X54896243Y-69037021D01*
X55042499Y-69026215D01*
X55047444Y-69026176D01*
X55201320Y-69036329D01*
X55201320Y-69036329D01*
G37*
X55201320Y-69036329D02*
X55342478Y-69069609D01*
X55474011Y-69127330D01*
X55599010Y-69210806D01*
X55704931Y-69305481D01*
X55790558Y-69400542D01*
X55856875Y-69497329D01*
X55905648Y-69600661D01*
X55938641Y-69715355D01*
X55957622Y-69846230D01*
X55964355Y-69998104D01*
X55964421Y-70013618D01*
X55964038Y-70091124D01*
X55962256Y-70145366D01*
X55958493Y-70181290D01*
X55952164Y-70203843D01*
X55942683Y-70217972D01*
X55939972Y-70220571D01*
X55921653Y-70231325D01*
X55880615Y-70251982D01*
X55819971Y-70281083D01*
X55742836Y-70317171D01*
X55652324Y-70358786D01*
X55551550Y-70404470D01*
X55456666Y-70446962D01*
X55309160Y-70512672D01*
X55185363Y-70567936D01*
X55083198Y-70613767D01*
X55000584Y-70651183D01*
X54935443Y-70681198D01*
X54885696Y-70704829D01*
X54849263Y-70723091D01*
X54824066Y-70737001D01*
X54808025Y-70747573D01*
X54799061Y-70755824D01*
X54795096Y-70762769D01*
X54794049Y-70769425D01*
X54794009Y-70770709D01*
X54804066Y-70798633D01*
X54830873Y-70835582D01*
X54867929Y-70874577D01*
X54908738Y-70908641D01*
X54940547Y-70928049D01*
X55016624Y-70949322D01*
X55097555Y-70946404D01*
X55176050Y-70920581D01*
X55243154Y-70874691D01*
X55284853Y-70828163D01*
X55312745Y-70775176D01*
X55330421Y-70707459D01*
X55337486Y-70657496D01*
X55345198Y-70607686D01*
X55355138Y-70567453D01*
X55363211Y-70548837D01*
X55382378Y-70534611D01*
X55422559Y-70512158D01*
X55478595Y-70483805D01*
X55545325Y-70451882D01*
X55617590Y-70418716D01*
X55690231Y-70386637D01*
X55758087Y-70357974D01*
X55816000Y-70335054D01*
X55858809Y-70320206D01*
X55879870Y-70315666D01*
X55911542Y-70319003D01*
X55934345Y-70331541D01*
X55949645Y-70357066D01*
X55958806Y-70399369D01*
X55963194Y-70462237D01*
X55964174Y-70549460D01*
X55964174Y-70549611D01*
X55960644Y-70686492D01*
X55949738Y-70801785D01*
X55929774Y-70901544D01*
X55899066Y-70991824D01*
X55855930Y-71078677D01*
X55798683Y-71168160D01*
X55787834Y-71183500D01*
X55686209Y-71306448D01*
X55573203Y-71408401D01*
X55451873Y-71487029D01*
X55325276Y-71540008D01*
X55315555Y-71542911D01*
X55229127Y-71561630D01*
X55128307Y-71573622D01*
X55025393Y-71578051D01*
X54932681Y-71574078D01*
X54906333Y-71570768D01*
X54757230Y-71533833D01*
X54616647Y-71470791D01*
X54487578Y-71383208D01*
X54406385Y-71308862D01*
X54313277Y-71199643D01*
X54241502Y-71083350D01*
X54189195Y-70962443D01*
X54151388Y-70858944D01*
X54151589Y-70308611D01*
X54151693Y-70162976D01*
X54152134Y-70042306D01*
X54152198Y-70036705D01*
X54773178Y-70036705D01*
X54773375Y-70059137D01*
X54774093Y-70061696D01*
X54786902Y-70056272D01*
X54821092Y-70041313D01*
X54872258Y-70018759D01*
X54935997Y-69990549D01*
X54978704Y-69971599D01*
X55054695Y-69937799D01*
X55127305Y-69905414D01*
X55190001Y-69877364D01*
X55236249Y-69856569D01*
X55249496Y-69850565D01*
X55317493Y-69819600D01*
X55283850Y-69774827D01*
X55242332Y-69734718D01*
X55184536Y-69697479D01*
X55121053Y-69668575D01*
X55062477Y-69653471D01*
X55046637Y-69652444D01*
X54995820Y-69658354D01*
X54946231Y-69672591D01*
X54945697Y-69672813D01*
X54903991Y-69697985D01*
X54859615Y-69736551D01*
X54820212Y-69780497D01*
X54793426Y-69821808D01*
X54787134Y-69839061D01*
X54783932Y-69863002D01*
X54780460Y-69902833D01*
X54777195Y-69950457D01*
X54774610Y-69997780D01*
X54773178Y-70036705D01*
X54152198Y-70036705D01*
X54153276Y-69943342D01*
X54155484Y-69862829D01*
X54159122Y-69797507D01*
X54164556Y-69744120D01*
X54172151Y-69699410D01*
X54182270Y-69660119D01*
X54195280Y-69622989D01*
X54211545Y-69584764D01*
X54231430Y-69542186D01*
X54239267Y-69525746D01*
X54270251Y-69467453D01*
X54306686Y-69414089D01*
X54354409Y-69357963D01*
X54410998Y-69299567D01*
X54526663Y-69197030D01*
X54642985Y-69120427D01*
X54764625Y-69067758D01*
X54896243Y-69037021D01*
X55042499Y-69026215D01*
X55047444Y-69026176D01*
X55201320Y-69036329D01*
G36*
X62748953Y-69162504D02*
X62823934Y-69170675D01*
X62857944Y-69177740D01*
X62993469Y-69227427D01*
X63117961Y-69299483D01*
X63228529Y-69390673D01*
X63322280Y-69497759D01*
X63396325Y-69617506D01*
X63447770Y-69746679D01*
X63471988Y-69865009D01*
X63474568Y-69901302D01*
X63476916Y-69961108D01*
X63479020Y-70041029D01*
X63480868Y-70137670D01*
X63482445Y-70247634D01*
X63483740Y-70367526D01*
X63484738Y-70493950D01*
X63485429Y-70623509D01*
X63485797Y-70752807D01*
X63485831Y-70878448D01*
X63485518Y-70997036D01*
X63484845Y-71105176D01*
X63483798Y-71199470D01*
X63482365Y-71276522D01*
X63480533Y-71332938D01*
X63478290Y-71365319D01*
X63477708Y-71369041D01*
X63468525Y-71393448D01*
X63448944Y-71416402D01*
X63415370Y-71440214D01*
X63364209Y-71467197D01*
X63291866Y-71499662D01*
X63242306Y-71520460D01*
X63173728Y-71547794D01*
X63124962Y-71563805D01*
X63090282Y-71569183D01*
X63063962Y-71564618D01*
X63040277Y-71550798D01*
X63033598Y-71545576D01*
X63025213Y-71538330D01*
X63018394Y-71529657D01*
X63012938Y-71516710D01*
X63008637Y-71496642D01*
X63005287Y-71466607D01*
X63002682Y-71423760D01*
X63000616Y-71365252D01*
X62998883Y-71288238D01*
X62997278Y-71189872D01*
X62995595Y-71067307D01*
X62994830Y-71009014D01*
X62988145Y-70498432D01*
X62958322Y-70507816D01*
X62932713Y-70517260D01*
X62886561Y-70535571D01*
X62825266Y-70560500D01*
X62754226Y-70589795D01*
X62678837Y-70621207D01*
X62604500Y-70652485D01*
X62536611Y-70681379D01*
X62480568Y-70705638D01*
X62441771Y-70723012D01*
X62438982Y-70724316D01*
X62371962Y-70763477D01*
X62329442Y-70808186D01*
X62307724Y-70862802D01*
X62304600Y-70882760D01*
X62303732Y-70929765D01*
X62316497Y-70965253D01*
X62329820Y-70984189D01*
X62384223Y-71031485D01*
X62456905Y-71062636D01*
X62542277Y-71076562D01*
X62634751Y-71072179D01*
X62704007Y-71056652D01*
X62758180Y-71041793D01*
X62799427Y-71036760D01*
X62831631Y-71044506D01*
X62858675Y-71067984D01*
X62884442Y-71110148D01*
X62912813Y-71173952D01*
X62936458Y-71233470D01*
X62966550Y-71316397D01*
X62983246Y-71378799D01*
X62986763Y-71424870D01*
X62977317Y-71458808D01*
X62955126Y-71484807D01*
X62949666Y-71489063D01*
X62895821Y-71517719D01*
X62821168Y-71542126D01*
X62732954Y-71561114D01*
X62638425Y-71573511D01*
X62544829Y-71578146D01*
X62459411Y-71573849D01*
X62440638Y-71571312D01*
X62316236Y-71540388D01*
X62192160Y-71488396D01*
X62076319Y-71419620D01*
X61976622Y-71338349D01*
X61940225Y-71300100D01*
X61905933Y-71254518D01*
X61869607Y-71196663D01*
X61843718Y-71148222D01*
X61824904Y-71107469D01*
X61812368Y-71073252D01*
X61804841Y-71038043D01*
X61801054Y-70994312D01*
X61799740Y-70934531D01*
X61799611Y-70886434D01*
X61799908Y-70814091D01*
X61801788Y-70762232D01*
X61806729Y-70723117D01*
X61816212Y-70689010D01*
X61831716Y-70652171D01*
X61852657Y-70609038D01*
X61879237Y-70558229D01*
X61906981Y-70513275D01*
X61938345Y-70472597D01*
X61975788Y-70434618D01*
X62021765Y-70397760D01*
X62078735Y-70360447D01*
X62149154Y-70321100D01*
X62235480Y-70278143D01*
X62340169Y-70229997D01*
X62465680Y-70175086D01*
X62614468Y-70111831D01*
X62651244Y-70096355D01*
X62980767Y-69957870D01*
X62972623Y-69907686D01*
X62947232Y-69834604D01*
X62898898Y-69768671D01*
X62832752Y-69714131D01*
X62753923Y-69675231D01*
X62668848Y-69656329D01*
X62571520Y-69660146D01*
X62485176Y-69688871D01*
X62411890Y-69740633D01*
X62353736Y-69813562D01*
X62312788Y-69905786D01*
X62293448Y-69994936D01*
X62282369Y-70042223D01*
X62265090Y-70078749D01*
X62258346Y-70086744D01*
X62232541Y-70103894D01*
X62187466Y-70127448D01*
X62129756Y-70154573D01*
X62066043Y-70182433D01*
X62002964Y-70208197D01*
X61947151Y-70229030D01*
X61905241Y-70242099D01*
X61887556Y-70245111D01*
X61851606Y-70239046D01*
X61826420Y-70218590D01*
X61810552Y-70180353D01*
X61802553Y-70120946D01*
X61800920Y-70042252D01*
X61806200Y-69925188D01*
X61820939Y-69826025D01*
X61847032Y-69735473D01*
X61879002Y-69659500D01*
X61953697Y-69529591D01*
X62046309Y-69414231D01*
X62153197Y-69316634D01*
X62270715Y-69240014D01*
X62395221Y-69187583D01*
X62423034Y-69179655D01*
X62488913Y-69167977D01*
X62571693Y-69161198D01*
X62661622Y-69159359D01*
X62748953Y-69162504D01*
X62748953Y-69162504D01*
G37*
X62748953Y-69162504D02*
X62823934Y-69170675D01*
X62857944Y-69177740D01*
X62993469Y-69227427D01*
X63117961Y-69299483D01*
X63228529Y-69390673D01*
X63322280Y-69497759D01*
X63396325Y-69617506D01*
X63447770Y-69746679D01*
X63471988Y-69865009D01*
X63474568Y-69901302D01*
X63476916Y-69961108D01*
X63479020Y-70041029D01*
X63480868Y-70137670D01*
X63482445Y-70247634D01*
X63483740Y-70367526D01*
X63484738Y-70493950D01*
X63485429Y-70623509D01*
X63485797Y-70752807D01*
X63485831Y-70878448D01*
X63485518Y-70997036D01*
X63484845Y-71105176D01*
X63483798Y-71199470D01*
X63482365Y-71276522D01*
X63480533Y-71332938D01*
X63478290Y-71365319D01*
X63477708Y-71369041D01*
X63468525Y-71393448D01*
X63448944Y-71416402D01*
X63415370Y-71440214D01*
X63364209Y-71467197D01*
X63291866Y-71499662D01*
X63242306Y-71520460D01*
X63173728Y-71547794D01*
X63124962Y-71563805D01*
X63090282Y-71569183D01*
X63063962Y-71564618D01*
X63040277Y-71550798D01*
X63033598Y-71545576D01*
X63025213Y-71538330D01*
X63018394Y-71529657D01*
X63012938Y-71516710D01*
X63008637Y-71496642D01*
X63005287Y-71466607D01*
X63002682Y-71423760D01*
X63000616Y-71365252D01*
X62998883Y-71288238D01*
X62997278Y-71189872D01*
X62995595Y-71067307D01*
X62994830Y-71009014D01*
X62988145Y-70498432D01*
X62958322Y-70507816D01*
X62932713Y-70517260D01*
X62886561Y-70535571D01*
X62825266Y-70560500D01*
X62754226Y-70589795D01*
X62678837Y-70621207D01*
X62604500Y-70652485D01*
X62536611Y-70681379D01*
X62480568Y-70705638D01*
X62441771Y-70723012D01*
X62438982Y-70724316D01*
X62371962Y-70763477D01*
X62329442Y-70808186D01*
X62307724Y-70862802D01*
X62304600Y-70882760D01*
X62303732Y-70929765D01*
X62316497Y-70965253D01*
X62329820Y-70984189D01*
X62384223Y-71031485D01*
X62456905Y-71062636D01*
X62542277Y-71076562D01*
X62634751Y-71072179D01*
X62704007Y-71056652D01*
X62758180Y-71041793D01*
X62799427Y-71036760D01*
X62831631Y-71044506D01*
X62858675Y-71067984D01*
X62884442Y-71110148D01*
X62912813Y-71173952D01*
X62936458Y-71233470D01*
X62966550Y-71316397D01*
X62983246Y-71378799D01*
X62986763Y-71424870D01*
X62977317Y-71458808D01*
X62955126Y-71484807D01*
X62949666Y-71489063D01*
X62895821Y-71517719D01*
X62821168Y-71542126D01*
X62732954Y-71561114D01*
X62638425Y-71573511D01*
X62544829Y-71578146D01*
X62459411Y-71573849D01*
X62440638Y-71571312D01*
X62316236Y-71540388D01*
X62192160Y-71488396D01*
X62076319Y-71419620D01*
X61976622Y-71338349D01*
X61940225Y-71300100D01*
X61905933Y-71254518D01*
X61869607Y-71196663D01*
X61843718Y-71148222D01*
X61824904Y-71107469D01*
X61812368Y-71073252D01*
X61804841Y-71038043D01*
X61801054Y-70994312D01*
X61799740Y-70934531D01*
X61799611Y-70886434D01*
X61799908Y-70814091D01*
X61801788Y-70762232D01*
X61806729Y-70723117D01*
X61816212Y-70689010D01*
X61831716Y-70652171D01*
X61852657Y-70609038D01*
X61879237Y-70558229D01*
X61906981Y-70513275D01*
X61938345Y-70472597D01*
X61975788Y-70434618D01*
X62021765Y-70397760D01*
X62078735Y-70360447D01*
X62149154Y-70321100D01*
X62235480Y-70278143D01*
X62340169Y-70229997D01*
X62465680Y-70175086D01*
X62614468Y-70111831D01*
X62651244Y-70096355D01*
X62980767Y-69957870D01*
X62972623Y-69907686D01*
X62947232Y-69834604D01*
X62898898Y-69768671D01*
X62832752Y-69714131D01*
X62753923Y-69675231D01*
X62668848Y-69656329D01*
X62571520Y-69660146D01*
X62485176Y-69688871D01*
X62411890Y-69740633D01*
X62353736Y-69813562D01*
X62312788Y-69905786D01*
X62293448Y-69994936D01*
X62282369Y-70042223D01*
X62265090Y-70078749D01*
X62258346Y-70086744D01*
X62232541Y-70103894D01*
X62187466Y-70127448D01*
X62129756Y-70154573D01*
X62066043Y-70182433D01*
X62002964Y-70208197D01*
X61947151Y-70229030D01*
X61905241Y-70242099D01*
X61887556Y-70245111D01*
X61851606Y-70239046D01*
X61826420Y-70218590D01*
X61810552Y-70180353D01*
X61802553Y-70120946D01*
X61800920Y-70042252D01*
X61806200Y-69925188D01*
X61820939Y-69826025D01*
X61847032Y-69735473D01*
X61879002Y-69659500D01*
X61953697Y-69529591D01*
X62046309Y-69414231D01*
X62153197Y-69316634D01*
X62270715Y-69240014D01*
X62395221Y-69187583D01*
X62423034Y-69179655D01*
X62488913Y-69167977D01*
X62571693Y-69161198D01*
X62661622Y-69159359D01*
X62748953Y-69162504D01*
G36*
X67439779Y-68372187D02*
X67467804Y-68384713D01*
X67476193Y-68390300D01*
X67507555Y-68412267D01*
X67507555Y-69651758D01*
X67507536Y-69867540D01*
X67507451Y-70056968D01*
X67507263Y-70221911D01*
X67506932Y-70364236D01*
X67506419Y-70485814D01*
X67505686Y-70588511D01*
X67504692Y-70674196D01*
X67503399Y-70744738D01*
X67501768Y-70802004D01*
X67499761Y-70847865D01*
X67497337Y-70884187D01*
X67494458Y-70912839D01*
X67491085Y-70935690D01*
X67487179Y-70954608D01*
X67482700Y-70971461D01*
X67479789Y-70981145D01*
X67424573Y-71113741D01*
X67345568Y-71236774D01*
X67246602Y-71346481D01*
X67131507Y-71439095D01*
X67004113Y-71510852D01*
X66902206Y-71548892D01*
X66801018Y-71570144D01*
X66689425Y-71579539D01*
X66578785Y-71576818D01*
X66480456Y-71561726D01*
X66468592Y-71558686D01*
X66351657Y-71519938D01*
X66250775Y-71469676D01*
X66157051Y-71402659D01*
X66074023Y-71326259D01*
X65983310Y-71224123D01*
X65915883Y-71121247D01*
X65867521Y-71010571D01*
X65849152Y-70950026D01*
X65843719Y-70914829D01*
X65839030Y-70855600D01*
X65835105Y-70776525D01*
X65831964Y-70681784D01*
X65829625Y-70575561D01*
X65828108Y-70462039D01*
X65827629Y-70379166D01*
X66329277Y-70379166D01*
X66329319Y-70506056D01*
X66329575Y-70607884D01*
X66330245Y-70687808D01*
X66331528Y-70748989D01*
X66333622Y-70794586D01*
X66336725Y-70827759D01*
X66341037Y-70851668D01*
X66346755Y-70869471D01*
X66354080Y-70884329D01*
X66361846Y-70897212D01*
X66409495Y-70955959D01*
X66473432Y-71010912D01*
X66542322Y-71052510D01*
X66550169Y-71056057D01*
X66604611Y-71070675D01*
X66671825Y-71076507D01*
X66738068Y-71073160D01*
X66783442Y-71062767D01*
X66861891Y-71020907D01*
X66930187Y-70961070D01*
X66968697Y-70909323D01*
X67006611Y-70844833D01*
X67006611Y-70365055D01*
X67006602Y-70229806D01*
X67006201Y-70119638D01*
X67004847Y-70031413D01*
X67001977Y-69961992D01*
X66997031Y-69908233D01*
X66989447Y-69866999D01*
X66978663Y-69835149D01*
X66964117Y-69809544D01*
X66945249Y-69787044D01*
X66921497Y-69764511D01*
X66895030Y-69741210D01*
X66816477Y-69688915D01*
X66728358Y-69658850D01*
X66637102Y-69652105D01*
X66549141Y-69669770D01*
X66526833Y-69678846D01*
X66479987Y-69707912D01*
X66430388Y-69750693D01*
X66385369Y-69799518D01*
X66352268Y-69846716D01*
X66340339Y-69873860D01*
X66337667Y-69897252D01*
X66335228Y-69945194D01*
X66333102Y-70014012D01*
X66331368Y-70100036D01*
X66330108Y-70199593D01*
X66329402Y-70309010D01*
X66329277Y-70379166D01*
X65827629Y-70379166D01*
X65827433Y-70345400D01*
X65827620Y-70229826D01*
X65828687Y-70119501D01*
X65830654Y-70018608D01*
X65833541Y-69931328D01*
X65837367Y-69861844D01*
X65842153Y-69814340D01*
X65843812Y-69804833D01*
X65884813Y-69674151D01*
X65952587Y-69549899D01*
X66047617Y-69431236D01*
X66073781Y-69404245D01*
X66170007Y-69317915D01*
X66265893Y-69253623D01*
X66369752Y-69206543D01*
X66463064Y-69178308D01*
X66534648Y-69166385D01*
X66622202Y-69160939D01*
X66716480Y-69161681D01*
X66808239Y-69168325D01*
X66888232Y-69180585D01*
X66933865Y-69192908D01*
X66973869Y-69205359D01*
X67001789Y-69210954D01*
X67009149Y-69210109D01*
X67011464Y-69194587D01*
X67014074Y-69155010D01*
X67016799Y-69095544D01*
X67019460Y-69020353D01*
X67021875Y-68933601D01*
X67022764Y-68895123D01*
X67025002Y-68803058D01*
X67027488Y-68719200D01*
X67030050Y-68648126D01*
X67032516Y-68594417D01*
X67034714Y-68562649D01*
X67035427Y-68557364D01*
X67049639Y-68535921D01*
X67085519Y-68509461D01*
X67144507Y-68477172D01*
X67228044Y-68438244D01*
X67306047Y-68404880D01*
X67366057Y-68381657D01*
X67408249Y-68370964D01*
X67439779Y-68372187D01*
X67439779Y-68372187D01*
G37*
X67439779Y-68372187D02*
X67467804Y-68384713D01*
X67476193Y-68390300D01*
X67507555Y-68412267D01*
X67507555Y-69651758D01*
X67507536Y-69867540D01*
X67507451Y-70056968D01*
X67507263Y-70221911D01*
X67506932Y-70364236D01*
X67506419Y-70485814D01*
X67505686Y-70588511D01*
X67504692Y-70674196D01*
X67503399Y-70744738D01*
X67501768Y-70802004D01*
X67499761Y-70847865D01*
X67497337Y-70884187D01*
X67494458Y-70912839D01*
X67491085Y-70935690D01*
X67487179Y-70954608D01*
X67482700Y-70971461D01*
X67479789Y-70981145D01*
X67424573Y-71113741D01*
X67345568Y-71236774D01*
X67246602Y-71346481D01*
X67131507Y-71439095D01*
X67004113Y-71510852D01*
X66902206Y-71548892D01*
X66801018Y-71570144D01*
X66689425Y-71579539D01*
X66578785Y-71576818D01*
X66480456Y-71561726D01*
X66468592Y-71558686D01*
X66351657Y-71519938D01*
X66250775Y-71469676D01*
X66157051Y-71402659D01*
X66074023Y-71326259D01*
X65983310Y-71224123D01*
X65915883Y-71121247D01*
X65867521Y-71010571D01*
X65849152Y-70950026D01*
X65843719Y-70914829D01*
X65839030Y-70855600D01*
X65835105Y-70776525D01*
X65831964Y-70681784D01*
X65829625Y-70575561D01*
X65828108Y-70462039D01*
X65827629Y-70379166D01*
X66329277Y-70379166D01*
X66329319Y-70506056D01*
X66329575Y-70607884D01*
X66330245Y-70687808D01*
X66331528Y-70748989D01*
X66333622Y-70794586D01*
X66336725Y-70827759D01*
X66341037Y-70851668D01*
X66346755Y-70869471D01*
X66354080Y-70884329D01*
X66361846Y-70897212D01*
X66409495Y-70955959D01*
X66473432Y-71010912D01*
X66542322Y-71052510D01*
X66550169Y-71056057D01*
X66604611Y-71070675D01*
X66671825Y-71076507D01*
X66738068Y-71073160D01*
X66783442Y-71062767D01*
X66861891Y-71020907D01*
X66930187Y-70961070D01*
X66968697Y-70909323D01*
X67006611Y-70844833D01*
X67006611Y-70365055D01*
X67006602Y-70229806D01*
X67006201Y-70119638D01*
X67004847Y-70031413D01*
X67001977Y-69961992D01*
X66997031Y-69908233D01*
X66989447Y-69866999D01*
X66978663Y-69835149D01*
X66964117Y-69809544D01*
X66945249Y-69787044D01*
X66921497Y-69764511D01*
X66895030Y-69741210D01*
X66816477Y-69688915D01*
X66728358Y-69658850D01*
X66637102Y-69652105D01*
X66549141Y-69669770D01*
X66526833Y-69678846D01*
X66479987Y-69707912D01*
X66430388Y-69750693D01*
X66385369Y-69799518D01*
X66352268Y-69846716D01*
X66340339Y-69873860D01*
X66337667Y-69897252D01*
X66335228Y-69945194D01*
X66333102Y-70014012D01*
X66331368Y-70100036D01*
X66330108Y-70199593D01*
X66329402Y-70309010D01*
X66329277Y-70379166D01*
X65827629Y-70379166D01*
X65827433Y-70345400D01*
X65827620Y-70229826D01*
X65828687Y-70119501D01*
X65830654Y-70018608D01*
X65833541Y-69931328D01*
X65837367Y-69861844D01*
X65842153Y-69814340D01*
X65843812Y-69804833D01*
X65884813Y-69674151D01*
X65952587Y-69549899D01*
X66047617Y-69431236D01*
X66073781Y-69404245D01*
X66170007Y-69317915D01*
X66265893Y-69253623D01*
X66369752Y-69206543D01*
X66463064Y-69178308D01*
X66534648Y-69166385D01*
X66622202Y-69160939D01*
X66716480Y-69161681D01*
X66808239Y-69168325D01*
X66888232Y-69180585D01*
X66933865Y-69192908D01*
X66973869Y-69205359D01*
X67001789Y-69210954D01*
X67009149Y-69210109D01*
X67011464Y-69194587D01*
X67014074Y-69155010D01*
X67016799Y-69095544D01*
X67019460Y-69020353D01*
X67021875Y-68933601D01*
X67022764Y-68895123D01*
X67025002Y-68803058D01*
X67027488Y-68719200D01*
X67030050Y-68648126D01*
X67032516Y-68594417D01*
X67034714Y-68562649D01*
X67035427Y-68557364D01*
X67049639Y-68535921D01*
X67085519Y-68509461D01*
X67144507Y-68477172D01*
X67228044Y-68438244D01*
X67306047Y-68404880D01*
X67366057Y-68381657D01*
X67408249Y-68370964D01*
X67439779Y-68372187D01*
G36*
X69654725Y-69159549D02*
X69666916Y-69163751D01*
X69677127Y-69173054D01*
X69685534Y-69189432D01*
X69692312Y-69214856D01*
X69697635Y-69251302D01*
X69701680Y-69300742D01*
X69704620Y-69365148D01*
X69706632Y-69446496D01*
X69707891Y-69546756D01*
X69708571Y-69667904D01*
X69708848Y-69811911D01*
X69708896Y-69980752D01*
X69708888Y-70118286D01*
X69708804Y-70304664D01*
X69708521Y-70464977D01*
X69707989Y-70601381D01*
X69707163Y-70716033D01*
X69705995Y-70811088D01*
X69704436Y-70888703D01*
X69702440Y-70951034D01*
X69699958Y-71000238D01*
X69696943Y-71038471D01*
X69693348Y-71067890D01*
X69689124Y-71090650D01*
X69687257Y-71098340D01*
X69641011Y-71223368D01*
X69573099Y-71332420D01*
X69486312Y-71423599D01*
X69383442Y-71495010D01*
X69267282Y-71544756D01*
X69140623Y-71570942D01*
X69006258Y-71571671D01*
X68992317Y-71570250D01*
X68886539Y-71552372D01*
X68800763Y-71523634D01*
X68730245Y-71483281D01*
X68689990Y-71454680D01*
X68603245Y-71497267D01*
X68495538Y-71543260D01*
X68395924Y-71569391D01*
X68294356Y-71577422D01*
X68187902Y-71570011D01*
X68069729Y-71541973D01*
X67960598Y-71487834D01*
X67861563Y-71409302D01*
X67779338Y-71314920D01*
X67717500Y-71209988D01*
X67679793Y-71100940D01*
X67678422Y-71094611D01*
X67675807Y-71068251D01*
X67673383Y-71017112D01*
X67671164Y-70944281D01*
X67669161Y-70852847D01*
X67667388Y-70745897D01*
X67665857Y-70626521D01*
X67664580Y-70497805D01*
X67663571Y-70362839D01*
X67662840Y-70224709D01*
X67662402Y-70086506D01*
X67662269Y-69951315D01*
X67662452Y-69822227D01*
X67662966Y-69702328D01*
X67663821Y-69594708D01*
X67665031Y-69502454D01*
X67666608Y-69428654D01*
X67668565Y-69376396D01*
X67670915Y-69348769D01*
X67671333Y-69346821D01*
X67691104Y-69320378D01*
X67736128Y-69289724D01*
X67766390Y-69273860D01*
X67865326Y-69226594D01*
X67942970Y-69192506D01*
X68002530Y-69170769D01*
X68047216Y-69160554D01*
X68080238Y-69161036D01*
X68104806Y-69171386D01*
X68117974Y-69183250D01*
X68122518Y-69190969D01*
X68126492Y-69204648D01*
X68129967Y-69226315D01*
X68133014Y-69257999D01*
X68135703Y-69301729D01*
X68138107Y-69359533D01*
X68140296Y-69433440D01*
X68142341Y-69525478D01*
X68144313Y-69637678D01*
X68146283Y-69772067D01*
X68148323Y-69930674D01*
X68150442Y-70110228D01*
X68160785Y-71012512D01*
X68192788Y-71044515D01*
X68244667Y-71079302D01*
X68301953Y-71087210D01*
X68341478Y-71077100D01*
X68359327Y-71069814D01*
X68374527Y-71062445D01*
X68387307Y-71052804D01*
X68397898Y-71038699D01*
X68406531Y-71017940D01*
X68413436Y-70988339D01*
X68418846Y-70947703D01*
X68422990Y-70893844D01*
X68426099Y-70824572D01*
X68428404Y-70737695D01*
X68430136Y-70631024D01*
X68431526Y-70502370D01*
X68432805Y-70349540D01*
X68433972Y-70199472D01*
X68435249Y-70051069D01*
X68436672Y-69910149D01*
X68438201Y-69779418D01*
X68439794Y-69661582D01*
X68441410Y-69559349D01*
X68443006Y-69475425D01*
X68444541Y-69412518D01*
X68445975Y-69373333D01*
X68446847Y-69361765D01*
X68453965Y-69340261D01*
X68470662Y-69319474D01*
X68500203Y-69297393D01*
X68545857Y-69272009D01*
X68610889Y-69241313D01*
X68698565Y-69203294D01*
X68717158Y-69195454D01*
X68784030Y-69170410D01*
X68832612Y-69160556D01*
X68868262Y-69165678D01*
X68896339Y-69185565D01*
X68898840Y-69188251D01*
X68904302Y-69195285D01*
X68908990Y-69204823D01*
X68912977Y-69218985D01*
X68916337Y-69239887D01*
X68919143Y-69269647D01*
X68921466Y-69310385D01*
X68923381Y-69364218D01*
X68924960Y-69433263D01*
X68926276Y-69519640D01*
X68927403Y-69625465D01*
X68928412Y-69752858D01*
X68929377Y-69903935D01*
X68930371Y-70080816D01*
X68930519Y-70108154D01*
X68935316Y-70998361D01*
X68982024Y-71045069D01*
X69033321Y-71082524D01*
X69083846Y-71091926D01*
X69132964Y-71073249D01*
X69157289Y-71052881D01*
X69196186Y-71013984D01*
X69205593Y-70711939D01*
X69207856Y-70623729D01*
X69209924Y-70513256D01*
X69211728Y-70386480D01*
X69213201Y-70249360D01*
X69214276Y-70107855D01*
X69214885Y-69967924D01*
X69215000Y-69882361D01*
X69215000Y-69354828D01*
X69246750Y-69323185D01*
X69275393Y-69302570D01*
X69323305Y-69276058D01*
X69383632Y-69246642D01*
X69449520Y-69217314D01*
X69514117Y-69191069D01*
X69570569Y-69170899D01*
X69612023Y-69159796D01*
X69623704Y-69158555D01*
X69640379Y-69158475D01*
X69654725Y-69159549D01*
X69654725Y-69159549D01*
G37*
X69654725Y-69159549D02*
X69666916Y-69163751D01*
X69677127Y-69173054D01*
X69685534Y-69189432D01*
X69692312Y-69214856D01*
X69697635Y-69251302D01*
X69701680Y-69300742D01*
X69704620Y-69365148D01*
X69706632Y-69446496D01*
X69707891Y-69546756D01*
X69708571Y-69667904D01*
X69708848Y-69811911D01*
X69708896Y-69980752D01*
X69708888Y-70118286D01*
X69708804Y-70304664D01*
X69708521Y-70464977D01*
X69707989Y-70601381D01*
X69707163Y-70716033D01*
X69705995Y-70811088D01*
X69704436Y-70888703D01*
X69702440Y-70951034D01*
X69699958Y-71000238D01*
X69696943Y-71038471D01*
X69693348Y-71067890D01*
X69689124Y-71090650D01*
X69687257Y-71098340D01*
X69641011Y-71223368D01*
X69573099Y-71332420D01*
X69486312Y-71423599D01*
X69383442Y-71495010D01*
X69267282Y-71544756D01*
X69140623Y-71570942D01*
X69006258Y-71571671D01*
X68992317Y-71570250D01*
X68886539Y-71552372D01*
X68800763Y-71523634D01*
X68730245Y-71483281D01*
X68689990Y-71454680D01*
X68603245Y-71497267D01*
X68495538Y-71543260D01*
X68395924Y-71569391D01*
X68294356Y-71577422D01*
X68187902Y-71570011D01*
X68069729Y-71541973D01*
X67960598Y-71487834D01*
X67861563Y-71409302D01*
X67779338Y-71314920D01*
X67717500Y-71209988D01*
X67679793Y-71100940D01*
X67678422Y-71094611D01*
X67675807Y-71068251D01*
X67673383Y-71017112D01*
X67671164Y-70944281D01*
X67669161Y-70852847D01*
X67667388Y-70745897D01*
X67665857Y-70626521D01*
X67664580Y-70497805D01*
X67663571Y-70362839D01*
X67662840Y-70224709D01*
X67662402Y-70086506D01*
X67662269Y-69951315D01*
X67662452Y-69822227D01*
X67662966Y-69702328D01*
X67663821Y-69594708D01*
X67665031Y-69502454D01*
X67666608Y-69428654D01*
X67668565Y-69376396D01*
X67670915Y-69348769D01*
X67671333Y-69346821D01*
X67691104Y-69320378D01*
X67736128Y-69289724D01*
X67766390Y-69273860D01*
X67865326Y-69226594D01*
X67942970Y-69192506D01*
X68002530Y-69170769D01*
X68047216Y-69160554D01*
X68080238Y-69161036D01*
X68104806Y-69171386D01*
X68117974Y-69183250D01*
X68122518Y-69190969D01*
X68126492Y-69204648D01*
X68129967Y-69226315D01*
X68133014Y-69257999D01*
X68135703Y-69301729D01*
X68138107Y-69359533D01*
X68140296Y-69433440D01*
X68142341Y-69525478D01*
X68144313Y-69637678D01*
X68146283Y-69772067D01*
X68148323Y-69930674D01*
X68150442Y-70110228D01*
X68160785Y-71012512D01*
X68192788Y-71044515D01*
X68244667Y-71079302D01*
X68301953Y-71087210D01*
X68341478Y-71077100D01*
X68359327Y-71069814D01*
X68374527Y-71062445D01*
X68387307Y-71052804D01*
X68397898Y-71038699D01*
X68406531Y-71017940D01*
X68413436Y-70988339D01*
X68418846Y-70947703D01*
X68422990Y-70893844D01*
X68426099Y-70824572D01*
X68428404Y-70737695D01*
X68430136Y-70631024D01*
X68431526Y-70502370D01*
X68432805Y-70349540D01*
X68433972Y-70199472D01*
X68435249Y-70051069D01*
X68436672Y-69910149D01*
X68438201Y-69779418D01*
X68439794Y-69661582D01*
X68441410Y-69559349D01*
X68443006Y-69475425D01*
X68444541Y-69412518D01*
X68445975Y-69373333D01*
X68446847Y-69361765D01*
X68453965Y-69340261D01*
X68470662Y-69319474D01*
X68500203Y-69297393D01*
X68545857Y-69272009D01*
X68610889Y-69241313D01*
X68698565Y-69203294D01*
X68717158Y-69195454D01*
X68784030Y-69170410D01*
X68832612Y-69160556D01*
X68868262Y-69165678D01*
X68896339Y-69185565D01*
X68898840Y-69188251D01*
X68904302Y-69195285D01*
X68908990Y-69204823D01*
X68912977Y-69218985D01*
X68916337Y-69239887D01*
X68919143Y-69269647D01*
X68921466Y-69310385D01*
X68923381Y-69364218D01*
X68924960Y-69433263D01*
X68926276Y-69519640D01*
X68927403Y-69625465D01*
X68928412Y-69752858D01*
X68929377Y-69903935D01*
X68930371Y-70080816D01*
X68930519Y-70108154D01*
X68935316Y-70998361D01*
X68982024Y-71045069D01*
X69033321Y-71082524D01*
X69083846Y-71091926D01*
X69132964Y-71073249D01*
X69157289Y-71052881D01*
X69196186Y-71013984D01*
X69205593Y-70711939D01*
X69207856Y-70623729D01*
X69209924Y-70513256D01*
X69211728Y-70386480D01*
X69213201Y-70249360D01*
X69214276Y-70107855D01*
X69214885Y-69967924D01*
X69215000Y-69882361D01*
X69215000Y-69354828D01*
X69246750Y-69323185D01*
X69275393Y-69302570D01*
X69323305Y-69276058D01*
X69383632Y-69246642D01*
X69449520Y-69217314D01*
X69514117Y-69191069D01*
X69570569Y-69170899D01*
X69612023Y-69159796D01*
X69623704Y-69158555D01*
X69640379Y-69158475D01*
X69654725Y-69159549D01*
G36*
X70777881Y-69166558D02*
X70844360Y-69169447D01*
X70895439Y-69175081D01*
X70937509Y-69184079D01*
X70963971Y-69192343D01*
X71102576Y-69254961D01*
X71227821Y-69340369D01*
X71336409Y-69445449D01*
X71425044Y-69567085D01*
X71482960Y-69682958D01*
X71499728Y-69730616D01*
X71512026Y-69782291D01*
X71521134Y-69845353D01*
X71528333Y-69927171D01*
X71530208Y-69954871D01*
X71532828Y-70009356D01*
X71535158Y-70084860D01*
X71537187Y-70177831D01*
X71538903Y-70284721D01*
X71540297Y-70401982D01*
X71541357Y-70526062D01*
X71542073Y-70653414D01*
X71542434Y-70780487D01*
X71542429Y-70903733D01*
X71542048Y-71019601D01*
X71541280Y-71124544D01*
X71540114Y-71215011D01*
X71538540Y-71287454D01*
X71536546Y-71338322D01*
X71534457Y-71362299D01*
X71527262Y-71391467D01*
X71513064Y-71412746D01*
X71485478Y-71432449D01*
X71439362Y-71456280D01*
X71335919Y-71504605D01*
X71249744Y-71540465D01*
X71183000Y-71563040D01*
X71137845Y-71571511D01*
X71135336Y-71571555D01*
X71092644Y-71558898D01*
X71061879Y-71525658D01*
X71049468Y-71478936D01*
X71049444Y-71476693D01*
X71048083Y-71454682D01*
X71039386Y-71455450D01*
X71022842Y-71471157D01*
X70982779Y-71498549D01*
X70921132Y-71525073D01*
X70844506Y-71548465D01*
X70759504Y-71566459D01*
X70733275Y-71570477D01*
X70669261Y-71578904D01*
X70621556Y-71582970D01*
X70579640Y-71582431D01*
X70532996Y-71577041D01*
X70471105Y-71566556D01*
X70457207Y-71564050D01*
X70331064Y-71528333D01*
X70209185Y-71469577D01*
X70096995Y-71391732D01*
X69999918Y-71298747D01*
X69923380Y-71194574D01*
X69905542Y-71162333D01*
X69883941Y-71117787D01*
X69869753Y-71079563D01*
X69861067Y-71038895D01*
X69855973Y-70987021D01*
X69852749Y-70920082D01*
X69853052Y-70903078D01*
X70348071Y-70903078D01*
X70350000Y-70916650D01*
X70372466Y-70962682D01*
X70412173Y-71008979D01*
X70459806Y-71046243D01*
X70496744Y-71063134D01*
X70580537Y-71075955D01*
X70673535Y-71073293D01*
X70758881Y-71056347D01*
X70813118Y-71041846D01*
X70854531Y-71037926D01*
X70887103Y-71047557D01*
X70914819Y-71073709D01*
X70941663Y-71119351D01*
X70971620Y-71187453D01*
X70987341Y-71226632D01*
X71042388Y-71365748D01*
X71046126Y-70937343D01*
X71046853Y-70830262D01*
X71047119Y-70732543D01*
X71046947Y-70647684D01*
X71046357Y-70579182D01*
X71045372Y-70530535D01*
X71044014Y-70505242D01*
X71043386Y-70502460D01*
X71028321Y-70505032D01*
X70991978Y-70517403D01*
X70938771Y-70537696D01*
X70873115Y-70564034D01*
X70799425Y-70594538D01*
X70722116Y-70627331D01*
X70645602Y-70660536D01*
X70574298Y-70692274D01*
X70512619Y-70720667D01*
X70464979Y-70743839D01*
X70435794Y-70759911D01*
X70432068Y-70762472D01*
X70386821Y-70806575D01*
X70357469Y-70855986D01*
X70348071Y-70903078D01*
X69853052Y-70903078D01*
X69854994Y-70794097D01*
X69873727Y-70686787D01*
X69911107Y-70592512D01*
X69969293Y-70505634D01*
X70040502Y-70429801D01*
X70067829Y-70405278D01*
X70097305Y-70382189D01*
X70131690Y-70359158D01*
X70173743Y-70334812D01*
X70226221Y-70307776D01*
X70291884Y-70276676D01*
X70373491Y-70240136D01*
X70473800Y-70196783D01*
X70595570Y-70145242D01*
X70696666Y-70102882D01*
X70803030Y-70058312D01*
X70885833Y-70022714D01*
X70947528Y-69994117D01*
X70990569Y-69970553D01*
X71017411Y-69950053D01*
X71030508Y-69930649D01*
X71032313Y-69910372D01*
X71025281Y-69887253D01*
X71011867Y-69859322D01*
X71008495Y-69852713D01*
X70953486Y-69768194D01*
X70886512Y-69708794D01*
X70805380Y-69673156D01*
X70707896Y-69659924D01*
X70696666Y-69659780D01*
X70636449Y-69661238D01*
X70593107Y-69667703D01*
X70555399Y-69681730D01*
X70523210Y-69699249D01*
X70452971Y-69752003D01*
X70401174Y-69818805D01*
X70364637Y-69904458D01*
X70350075Y-69960499D01*
X70335934Y-70015497D01*
X70320052Y-70061694D01*
X70305522Y-70090309D01*
X70303504Y-70092695D01*
X70277875Y-70110551D01*
X70232378Y-70134430D01*
X70173930Y-70161461D01*
X70109449Y-70188771D01*
X70045850Y-70213491D01*
X69990051Y-70232748D01*
X69948968Y-70243671D01*
X69936363Y-70245111D01*
X69899667Y-70238794D01*
X69874343Y-70217526D01*
X69858759Y-70177830D01*
X69851284Y-70116231D01*
X69850000Y-70061118D01*
X69854626Y-69942091D01*
X69869907Y-69839948D01*
X69897947Y-69744676D01*
X69934401Y-69659500D01*
X70011948Y-69526612D01*
X70108595Y-69408106D01*
X70220426Y-69307777D01*
X70343522Y-69229421D01*
X70409644Y-69199035D01*
X70446615Y-69185459D01*
X70482303Y-69176143D01*
X70523304Y-69170307D01*
X70576214Y-69167165D01*
X70647629Y-69165936D01*
X70689611Y-69165795D01*
X70777881Y-69166558D01*
X70777881Y-69166558D01*
G37*
X70777881Y-69166558D02*
X70844360Y-69169447D01*
X70895439Y-69175081D01*
X70937509Y-69184079D01*
X70963971Y-69192343D01*
X71102576Y-69254961D01*
X71227821Y-69340369D01*
X71336409Y-69445449D01*
X71425044Y-69567085D01*
X71482960Y-69682958D01*
X71499728Y-69730616D01*
X71512026Y-69782291D01*
X71521134Y-69845353D01*
X71528333Y-69927171D01*
X71530208Y-69954871D01*
X71532828Y-70009356D01*
X71535158Y-70084860D01*
X71537187Y-70177831D01*
X71538903Y-70284721D01*
X71540297Y-70401982D01*
X71541357Y-70526062D01*
X71542073Y-70653414D01*
X71542434Y-70780487D01*
X71542429Y-70903733D01*
X71542048Y-71019601D01*
X71541280Y-71124544D01*
X71540114Y-71215011D01*
X71538540Y-71287454D01*
X71536546Y-71338322D01*
X71534457Y-71362299D01*
X71527262Y-71391467D01*
X71513064Y-71412746D01*
X71485478Y-71432449D01*
X71439362Y-71456280D01*
X71335919Y-71504605D01*
X71249744Y-71540465D01*
X71183000Y-71563040D01*
X71137845Y-71571511D01*
X71135336Y-71571555D01*
X71092644Y-71558898D01*
X71061879Y-71525658D01*
X71049468Y-71478936D01*
X71049444Y-71476693D01*
X71048083Y-71454682D01*
X71039386Y-71455450D01*
X71022842Y-71471157D01*
X70982779Y-71498549D01*
X70921132Y-71525073D01*
X70844506Y-71548465D01*
X70759504Y-71566459D01*
X70733275Y-71570477D01*
X70669261Y-71578904D01*
X70621556Y-71582970D01*
X70579640Y-71582431D01*
X70532996Y-71577041D01*
X70471105Y-71566556D01*
X70457207Y-71564050D01*
X70331064Y-71528333D01*
X70209185Y-71469577D01*
X70096995Y-71391732D01*
X69999918Y-71298747D01*
X69923380Y-71194574D01*
X69905542Y-71162333D01*
X69883941Y-71117787D01*
X69869753Y-71079563D01*
X69861067Y-71038895D01*
X69855973Y-70987021D01*
X69852749Y-70920082D01*
X69853052Y-70903078D01*
X70348071Y-70903078D01*
X70350000Y-70916650D01*
X70372466Y-70962682D01*
X70412173Y-71008979D01*
X70459806Y-71046243D01*
X70496744Y-71063134D01*
X70580537Y-71075955D01*
X70673535Y-71073293D01*
X70758881Y-71056347D01*
X70813118Y-71041846D01*
X70854531Y-71037926D01*
X70887103Y-71047557D01*
X70914819Y-71073709D01*
X70941663Y-71119351D01*
X70971620Y-71187453D01*
X70987341Y-71226632D01*
X71042388Y-71365748D01*
X71046126Y-70937343D01*
X71046853Y-70830262D01*
X71047119Y-70732543D01*
X71046947Y-70647684D01*
X71046357Y-70579182D01*
X71045372Y-70530535D01*
X71044014Y-70505242D01*
X71043386Y-70502460D01*
X71028321Y-70505032D01*
X70991978Y-70517403D01*
X70938771Y-70537696D01*
X70873115Y-70564034D01*
X70799425Y-70594538D01*
X70722116Y-70627331D01*
X70645602Y-70660536D01*
X70574298Y-70692274D01*
X70512619Y-70720667D01*
X70464979Y-70743839D01*
X70435794Y-70759911D01*
X70432068Y-70762472D01*
X70386821Y-70806575D01*
X70357469Y-70855986D01*
X70348071Y-70903078D01*
X69853052Y-70903078D01*
X69854994Y-70794097D01*
X69873727Y-70686787D01*
X69911107Y-70592512D01*
X69969293Y-70505634D01*
X70040502Y-70429801D01*
X70067829Y-70405278D01*
X70097305Y-70382189D01*
X70131690Y-70359158D01*
X70173743Y-70334812D01*
X70226221Y-70307776D01*
X70291884Y-70276676D01*
X70373491Y-70240136D01*
X70473800Y-70196783D01*
X70595570Y-70145242D01*
X70696666Y-70102882D01*
X70803030Y-70058312D01*
X70885833Y-70022714D01*
X70947528Y-69994117D01*
X70990569Y-69970553D01*
X71017411Y-69950053D01*
X71030508Y-69930649D01*
X71032313Y-69910372D01*
X71025281Y-69887253D01*
X71011867Y-69859322D01*
X71008495Y-69852713D01*
X70953486Y-69768194D01*
X70886512Y-69708794D01*
X70805380Y-69673156D01*
X70707896Y-69659924D01*
X70696666Y-69659780D01*
X70636449Y-69661238D01*
X70593107Y-69667703D01*
X70555399Y-69681730D01*
X70523210Y-69699249D01*
X70452971Y-69752003D01*
X70401174Y-69818805D01*
X70364637Y-69904458D01*
X70350075Y-69960499D01*
X70335934Y-70015497D01*
X70320052Y-70061694D01*
X70305522Y-70090309D01*
X70303504Y-70092695D01*
X70277875Y-70110551D01*
X70232378Y-70134430D01*
X70173930Y-70161461D01*
X70109449Y-70188771D01*
X70045850Y-70213491D01*
X69990051Y-70232748D01*
X69948968Y-70243671D01*
X69936363Y-70245111D01*
X69899667Y-70238794D01*
X69874343Y-70217526D01*
X69858759Y-70177830D01*
X69851284Y-70116231D01*
X69850000Y-70061118D01*
X69854626Y-69942091D01*
X69869907Y-69839948D01*
X69897947Y-69744676D01*
X69934401Y-69659500D01*
X70011948Y-69526612D01*
X70108595Y-69408106D01*
X70220426Y-69307777D01*
X70343522Y-69229421D01*
X70409644Y-69199035D01*
X70446615Y-69185459D01*
X70482303Y-69176143D01*
X70523304Y-69170307D01*
X70576214Y-69167165D01*
X70647629Y-69165936D01*
X70689611Y-69165795D01*
X70777881Y-69166558D01*
G36*
X74870193Y-69169237D02*
X75005543Y-69202335D01*
X75130743Y-69259428D01*
X75249549Y-69342092D01*
X75328527Y-69413640D01*
X75411995Y-69506402D01*
X75473813Y-69600675D01*
X75519419Y-69705888D01*
X75543289Y-69785937D01*
X75553312Y-69840217D01*
X75560252Y-69908863D01*
X75564044Y-69984746D01*
X75564626Y-70060737D01*
X75561935Y-70129707D01*
X75555907Y-70184529D01*
X75547095Y-70216889D01*
X75542280Y-70226360D01*
X75536511Y-70235057D01*
X75527605Y-70244065D01*
X75513378Y-70254466D01*
X75491647Y-70267343D01*
X75460229Y-70283781D01*
X75416941Y-70304862D01*
X75359598Y-70331669D01*
X75286018Y-70365286D01*
X75194018Y-70406797D01*
X75081413Y-70457284D01*
X74946022Y-70517831D01*
X74891194Y-70542339D01*
X74750896Y-70605427D01*
X74635284Y-70658272D01*
X74543011Y-70701535D01*
X74472734Y-70735877D01*
X74423106Y-70761961D01*
X74392783Y-70780447D01*
X74380420Y-70791998D01*
X74379976Y-70793802D01*
X74389343Y-70834418D01*
X74413061Y-70885596D01*
X74445866Y-70937604D01*
X74479529Y-70977803D01*
X74556211Y-71036404D01*
X74643885Y-71069230D01*
X74722314Y-71077356D01*
X74806908Y-71069819D01*
X74878002Y-71043814D01*
X74946328Y-70995336D01*
X74949496Y-70992573D01*
X74994279Y-70945698D01*
X75028863Y-70890134D01*
X75056829Y-70818928D01*
X75077085Y-70745035D01*
X75087745Y-70702639D01*
X75098957Y-70670796D01*
X75114927Y-70645856D01*
X75139862Y-70624173D01*
X75177966Y-70602098D01*
X75233445Y-70575982D01*
X75310506Y-70542177D01*
X75311395Y-70541790D01*
X75394733Y-70509072D01*
X75458190Y-70492904D01*
X75504650Y-70493153D01*
X75536995Y-70509684D01*
X75552654Y-70530631D01*
X75560275Y-70561751D01*
X75563787Y-70613907D01*
X75563581Y-70680277D01*
X75560051Y-70754037D01*
X75553592Y-70828363D01*
X75544595Y-70896433D01*
X75533455Y-70951422D01*
X75527220Y-70971833D01*
X75475353Y-71087352D01*
X75406857Y-71199566D01*
X75326169Y-71303199D01*
X75237728Y-71392972D01*
X75145970Y-71463610D01*
X75085222Y-71497430D01*
X74945420Y-71548095D01*
X74798068Y-71573173D01*
X74640286Y-71573108D01*
X74612500Y-71570657D01*
X74471650Y-71542794D01*
X74339340Y-71489533D01*
X74218073Y-71413044D01*
X74110355Y-71315500D01*
X74018691Y-71199072D01*
X73945585Y-71065930D01*
X73904661Y-70957119D01*
X73897710Y-70932197D01*
X73892126Y-70905057D01*
X73887772Y-70872475D01*
X73884509Y-70831230D01*
X73882203Y-70778098D01*
X73880715Y-70709858D01*
X73879910Y-70623286D01*
X73879649Y-70515160D01*
X73879797Y-70382257D01*
X73879819Y-70372111D01*
X73880364Y-70226020D01*
X73880725Y-70189215D01*
X74365170Y-70189215D01*
X74367310Y-70213647D01*
X74372909Y-70223650D01*
X74382590Y-70223805D01*
X74388236Y-70221960D01*
X74408232Y-70213601D01*
X74450024Y-70195343D01*
X74509697Y-70168925D01*
X74583334Y-70136085D01*
X74667021Y-70098561D01*
X74725388Y-70072285D01*
X74812662Y-70032669D01*
X74891526Y-69996365D01*
X74958267Y-69965125D01*
X75009171Y-69940698D01*
X75040525Y-69924834D01*
X75048770Y-69919845D01*
X75052465Y-69898544D01*
X75041456Y-69863223D01*
X75019484Y-69821223D01*
X74990289Y-69779887D01*
X74962630Y-69750791D01*
X74892619Y-69699149D01*
X74820861Y-69668996D01*
X74746324Y-69656181D01*
X74659584Y-69657135D01*
X74585151Y-69679212D01*
X74514853Y-69725217D01*
X74495085Y-69742505D01*
X74447187Y-69792666D01*
X74412980Y-69845504D01*
X74390067Y-69907399D01*
X74376052Y-69984734D01*
X74368776Y-70078731D01*
X74365866Y-70145770D01*
X74365170Y-70189215D01*
X73880725Y-70189215D01*
X73881553Y-70104820D01*
X73883764Y-70005182D01*
X73887373Y-69923776D01*
X73892758Y-69857273D01*
X73900296Y-69802342D01*
X73910366Y-69755655D01*
X73923345Y-69713881D01*
X73939609Y-69673691D01*
X73959537Y-69631756D01*
X73964983Y-69620911D01*
X74046927Y-69489099D01*
X74149914Y-69376079D01*
X74273781Y-69282014D01*
X74324922Y-69252020D01*
X74434351Y-69202445D01*
X74548640Y-69172196D01*
X74676053Y-69159323D01*
X74720933Y-69158555D01*
X74870193Y-69169237D01*
X74870193Y-69169237D01*
G37*
X74870193Y-69169237D02*
X75005543Y-69202335D01*
X75130743Y-69259428D01*
X75249549Y-69342092D01*
X75328527Y-69413640D01*
X75411995Y-69506402D01*
X75473813Y-69600675D01*
X75519419Y-69705888D01*
X75543289Y-69785937D01*
X75553312Y-69840217D01*
X75560252Y-69908863D01*
X75564044Y-69984746D01*
X75564626Y-70060737D01*
X75561935Y-70129707D01*
X75555907Y-70184529D01*
X75547095Y-70216889D01*
X75542280Y-70226360D01*
X75536511Y-70235057D01*
X75527605Y-70244065D01*
X75513378Y-70254466D01*
X75491647Y-70267343D01*
X75460229Y-70283781D01*
X75416941Y-70304862D01*
X75359598Y-70331669D01*
X75286018Y-70365286D01*
X75194018Y-70406797D01*
X75081413Y-70457284D01*
X74946022Y-70517831D01*
X74891194Y-70542339D01*
X74750896Y-70605427D01*
X74635284Y-70658272D01*
X74543011Y-70701535D01*
X74472734Y-70735877D01*
X74423106Y-70761961D01*
X74392783Y-70780447D01*
X74380420Y-70791998D01*
X74379976Y-70793802D01*
X74389343Y-70834418D01*
X74413061Y-70885596D01*
X74445866Y-70937604D01*
X74479529Y-70977803D01*
X74556211Y-71036404D01*
X74643885Y-71069230D01*
X74722314Y-71077356D01*
X74806908Y-71069819D01*
X74878002Y-71043814D01*
X74946328Y-70995336D01*
X74949496Y-70992573D01*
X74994279Y-70945698D01*
X75028863Y-70890134D01*
X75056829Y-70818928D01*
X75077085Y-70745035D01*
X75087745Y-70702639D01*
X75098957Y-70670796D01*
X75114927Y-70645856D01*
X75139862Y-70624173D01*
X75177966Y-70602098D01*
X75233445Y-70575982D01*
X75310506Y-70542177D01*
X75311395Y-70541790D01*
X75394733Y-70509072D01*
X75458190Y-70492904D01*
X75504650Y-70493153D01*
X75536995Y-70509684D01*
X75552654Y-70530631D01*
X75560275Y-70561751D01*
X75563787Y-70613907D01*
X75563581Y-70680277D01*
X75560051Y-70754037D01*
X75553592Y-70828363D01*
X75544595Y-70896433D01*
X75533455Y-70951422D01*
X75527220Y-70971833D01*
X75475353Y-71087352D01*
X75406857Y-71199566D01*
X75326169Y-71303199D01*
X75237728Y-71392972D01*
X75145970Y-71463610D01*
X75085222Y-71497430D01*
X74945420Y-71548095D01*
X74798068Y-71573173D01*
X74640286Y-71573108D01*
X74612500Y-71570657D01*
X74471650Y-71542794D01*
X74339340Y-71489533D01*
X74218073Y-71413044D01*
X74110355Y-71315500D01*
X74018691Y-71199072D01*
X73945585Y-71065930D01*
X73904661Y-70957119D01*
X73897710Y-70932197D01*
X73892126Y-70905057D01*
X73887772Y-70872475D01*
X73884509Y-70831230D01*
X73882203Y-70778098D01*
X73880715Y-70709858D01*
X73879910Y-70623286D01*
X73879649Y-70515160D01*
X73879797Y-70382257D01*
X73879819Y-70372111D01*
X73880364Y-70226020D01*
X73880725Y-70189215D01*
X74365170Y-70189215D01*
X74367310Y-70213647D01*
X74372909Y-70223650D01*
X74382590Y-70223805D01*
X74388236Y-70221960D01*
X74408232Y-70213601D01*
X74450024Y-70195343D01*
X74509697Y-70168925D01*
X74583334Y-70136085D01*
X74667021Y-70098561D01*
X74725388Y-70072285D01*
X74812662Y-70032669D01*
X74891526Y-69996365D01*
X74958267Y-69965125D01*
X75009171Y-69940698D01*
X75040525Y-69924834D01*
X75048770Y-69919845D01*
X75052465Y-69898544D01*
X75041456Y-69863223D01*
X75019484Y-69821223D01*
X74990289Y-69779887D01*
X74962630Y-69750791D01*
X74892619Y-69699149D01*
X74820861Y-69668996D01*
X74746324Y-69656181D01*
X74659584Y-69657135D01*
X74585151Y-69679212D01*
X74514853Y-69725217D01*
X74495085Y-69742505D01*
X74447187Y-69792666D01*
X74412980Y-69845504D01*
X74390067Y-69907399D01*
X74376052Y-69984734D01*
X74368776Y-70078731D01*
X74365866Y-70145770D01*
X74365170Y-70189215D01*
X73880725Y-70189215D01*
X73881553Y-70104820D01*
X73883764Y-70005182D01*
X73887373Y-69923776D01*
X73892758Y-69857273D01*
X73900296Y-69802342D01*
X73910366Y-69755655D01*
X73923345Y-69713881D01*
X73939609Y-69673691D01*
X73959537Y-69631756D01*
X73964983Y-69620911D01*
X74046927Y-69489099D01*
X74149914Y-69376079D01*
X74273781Y-69282014D01*
X74324922Y-69252020D01*
X74434351Y-69202445D01*
X74548640Y-69172196D01*
X74676053Y-69159323D01*
X74720933Y-69158555D01*
X74870193Y-69169237D01*
G36*
X60214353Y-68377956D02*
X60240333Y-68396555D01*
X60248569Y-68406034D01*
X60255027Y-68418263D01*
X60259923Y-68436518D01*
X60263472Y-68464075D01*
X60265890Y-68504211D01*
X60267391Y-68560203D01*
X60268192Y-68635326D01*
X60268507Y-68732857D01*
X60268555Y-68825876D01*
X60268555Y-69226975D01*
X60349694Y-69197249D01*
X60432747Y-69175530D01*
X60532917Y-69162713D01*
X60640472Y-69159001D01*
X60745679Y-69164595D01*
X60838809Y-69179698D01*
X60864414Y-69186555D01*
X61007992Y-69244159D01*
X61136876Y-69325060D01*
X61248977Y-69427306D01*
X61342204Y-69548944D01*
X61414470Y-69688020D01*
X61422663Y-69708428D01*
X61432601Y-69735024D01*
X61440624Y-69760436D01*
X61447039Y-69788164D01*
X61452153Y-69821709D01*
X61456274Y-69864574D01*
X61459707Y-69920259D01*
X61462762Y-69992265D01*
X61465744Y-70084095D01*
X61468962Y-70199248D01*
X61470371Y-70252166D01*
X61473220Y-70378593D01*
X61475281Y-70510083D01*
X61476580Y-70643390D01*
X61477143Y-70775270D01*
X61476994Y-70902475D01*
X61476159Y-71021761D01*
X61474663Y-71129880D01*
X61472532Y-71223587D01*
X61469790Y-71299637D01*
X61466464Y-71354783D01*
X61462577Y-71385778D01*
X61461508Y-71389407D01*
X61441555Y-71411864D01*
X61400834Y-71439702D01*
X61345592Y-71470138D01*
X61282076Y-71500391D01*
X61216536Y-71527677D01*
X61155217Y-71549215D01*
X61104368Y-71562221D01*
X61070236Y-71563914D01*
X61069853Y-71563833D01*
X61053612Y-71560115D01*
X61039787Y-71555215D01*
X61028159Y-71546973D01*
X61018505Y-71533224D01*
X61010606Y-71511806D01*
X61004239Y-71480557D01*
X60999185Y-71437314D01*
X60995223Y-71379914D01*
X60992132Y-71306196D01*
X60989691Y-71213995D01*
X60987678Y-71101150D01*
X60985874Y-70965499D01*
X60984058Y-70804877D01*
X60983070Y-70713948D01*
X60981209Y-70545623D01*
X60979513Y-70403122D01*
X60977873Y-70284048D01*
X60976178Y-70186004D01*
X60974319Y-70106594D01*
X60972186Y-70043421D01*
X60969670Y-69994088D01*
X60966661Y-69956198D01*
X60963050Y-69927354D01*
X60958726Y-69905160D01*
X60953580Y-69887219D01*
X60947503Y-69871133D01*
X60944161Y-69863222D01*
X60895058Y-69781421D01*
X60829297Y-69719118D01*
X60751419Y-69677182D01*
X60665969Y-69656484D01*
X60577488Y-69657894D01*
X60490520Y-69682283D01*
X60409607Y-69730519D01*
X60381269Y-69755404D01*
X60360222Y-69775995D01*
X60342404Y-69795167D01*
X60327519Y-69815364D01*
X60315271Y-69839027D01*
X60305365Y-69868598D01*
X60297503Y-69906520D01*
X60291391Y-69955234D01*
X60286732Y-70017183D01*
X60283230Y-70094809D01*
X60280589Y-70190554D01*
X60278513Y-70306860D01*
X60276706Y-70446169D01*
X60274873Y-70610924D01*
X60274605Y-70635442D01*
X60272951Y-70776017D01*
X60271166Y-70908706D01*
X60269303Y-71030703D01*
X60267417Y-71139198D01*
X60265559Y-71231387D01*
X60263784Y-71304461D01*
X60262144Y-71355613D01*
X60260694Y-71382036D01*
X60260374Y-71384411D01*
X60251625Y-71403464D01*
X60231014Y-71423059D01*
X60195223Y-71445101D01*
X60140936Y-71471493D01*
X60064835Y-71504138D01*
X60019537Y-71522606D01*
X59956149Y-71547718D01*
X59913055Y-71562896D01*
X59884532Y-71569147D01*
X59864856Y-71567477D01*
X59848305Y-71558893D01*
X59841499Y-71553916D01*
X59819487Y-71527836D01*
X59803524Y-71496553D01*
X59800740Y-71475140D01*
X59798250Y-71426611D01*
X59796053Y-71350847D01*
X59794149Y-71247726D01*
X59792534Y-71117127D01*
X59791209Y-70958928D01*
X59790173Y-70773010D01*
X59789423Y-70559249D01*
X59788959Y-70317527D01*
X59788780Y-70047720D01*
X59788777Y-70009965D01*
X59788777Y-68563100D01*
X59828880Y-68525689D01*
X59858539Y-68504853D01*
X59906523Y-68478327D01*
X59965878Y-68449204D01*
X60029656Y-68420577D01*
X60090903Y-68395540D01*
X60142668Y-68377184D01*
X60178001Y-68368604D01*
X60182523Y-68368333D01*
X60214353Y-68377956D01*
X60214353Y-68377956D01*
G37*
X60214353Y-68377956D02*
X60240333Y-68396555D01*
X60248569Y-68406034D01*
X60255027Y-68418263D01*
X60259923Y-68436518D01*
X60263472Y-68464075D01*
X60265890Y-68504211D01*
X60267391Y-68560203D01*
X60268192Y-68635326D01*
X60268507Y-68732857D01*
X60268555Y-68825876D01*
X60268555Y-69226975D01*
X60349694Y-69197249D01*
X60432747Y-69175530D01*
X60532917Y-69162713D01*
X60640472Y-69159001D01*
X60745679Y-69164595D01*
X60838809Y-69179698D01*
X60864414Y-69186555D01*
X61007992Y-69244159D01*
X61136876Y-69325060D01*
X61248977Y-69427306D01*
X61342204Y-69548944D01*
X61414470Y-69688020D01*
X61422663Y-69708428D01*
X61432601Y-69735024D01*
X61440624Y-69760436D01*
X61447039Y-69788164D01*
X61452153Y-69821709D01*
X61456274Y-69864574D01*
X61459707Y-69920259D01*
X61462762Y-69992265D01*
X61465744Y-70084095D01*
X61468962Y-70199248D01*
X61470371Y-70252166D01*
X61473220Y-70378593D01*
X61475281Y-70510083D01*
X61476580Y-70643390D01*
X61477143Y-70775270D01*
X61476994Y-70902475D01*
X61476159Y-71021761D01*
X61474663Y-71129880D01*
X61472532Y-71223587D01*
X61469790Y-71299637D01*
X61466464Y-71354783D01*
X61462577Y-71385778D01*
X61461508Y-71389407D01*
X61441555Y-71411864D01*
X61400834Y-71439702D01*
X61345592Y-71470138D01*
X61282076Y-71500391D01*
X61216536Y-71527677D01*
X61155217Y-71549215D01*
X61104368Y-71562221D01*
X61070236Y-71563914D01*
X61069853Y-71563833D01*
X61053612Y-71560115D01*
X61039787Y-71555215D01*
X61028159Y-71546973D01*
X61018505Y-71533224D01*
X61010606Y-71511806D01*
X61004239Y-71480557D01*
X60999185Y-71437314D01*
X60995223Y-71379914D01*
X60992132Y-71306196D01*
X60989691Y-71213995D01*
X60987678Y-71101150D01*
X60985874Y-70965499D01*
X60984058Y-70804877D01*
X60983070Y-70713948D01*
X60981209Y-70545623D01*
X60979513Y-70403122D01*
X60977873Y-70284048D01*
X60976178Y-70186004D01*
X60974319Y-70106594D01*
X60972186Y-70043421D01*
X60969670Y-69994088D01*
X60966661Y-69956198D01*
X60963050Y-69927354D01*
X60958726Y-69905160D01*
X60953580Y-69887219D01*
X60947503Y-69871133D01*
X60944161Y-69863222D01*
X60895058Y-69781421D01*
X60829297Y-69719118D01*
X60751419Y-69677182D01*
X60665969Y-69656484D01*
X60577488Y-69657894D01*
X60490520Y-69682283D01*
X60409607Y-69730519D01*
X60381269Y-69755404D01*
X60360222Y-69775995D01*
X60342404Y-69795167D01*
X60327519Y-69815364D01*
X60315271Y-69839027D01*
X60305365Y-69868598D01*
X60297503Y-69906520D01*
X60291391Y-69955234D01*
X60286732Y-70017183D01*
X60283230Y-70094809D01*
X60280589Y-70190554D01*
X60278513Y-70306860D01*
X60276706Y-70446169D01*
X60274873Y-70610924D01*
X60274605Y-70635442D01*
X60272951Y-70776017D01*
X60271166Y-70908706D01*
X60269303Y-71030703D01*
X60267417Y-71139198D01*
X60265559Y-71231387D01*
X60263784Y-71304461D01*
X60262144Y-71355613D01*
X60260694Y-71382036D01*
X60260374Y-71384411D01*
X60251625Y-71403464D01*
X60231014Y-71423059D01*
X60195223Y-71445101D01*
X60140936Y-71471493D01*
X60064835Y-71504138D01*
X60019537Y-71522606D01*
X59956149Y-71547718D01*
X59913055Y-71562896D01*
X59884532Y-71569147D01*
X59864856Y-71567477D01*
X59848305Y-71558893D01*
X59841499Y-71553916D01*
X59819487Y-71527836D01*
X59803524Y-71496553D01*
X59800740Y-71475140D01*
X59798250Y-71426611D01*
X59796053Y-71350847D01*
X59794149Y-71247726D01*
X59792534Y-71117127D01*
X59791209Y-70958928D01*
X59790173Y-70773010D01*
X59789423Y-70559249D01*
X59788959Y-70317527D01*
X59788780Y-70047720D01*
X59788777Y-70009965D01*
X59788777Y-68563100D01*
X59828880Y-68525689D01*
X59858539Y-68504853D01*
X59906523Y-68478327D01*
X59965878Y-68449204D01*
X60029656Y-68420577D01*
X60090903Y-68395540D01*
X60142668Y-68377184D01*
X60178001Y-68368604D01*
X60182523Y-68368333D01*
X60214353Y-68377956D01*
G36*
X64737114Y-69164240D02*
X64834517Y-69176128D01*
X64917637Y-69194298D01*
X64938947Y-69201125D01*
X65070029Y-69261345D01*
X65188054Y-69342843D01*
X65290450Y-69442208D01*
X65374640Y-69556030D01*
X65438051Y-69680899D01*
X65478108Y-69813403D01*
X65491996Y-69933670D01*
X65492297Y-69982905D01*
X65487677Y-70020025D01*
X65474412Y-70049058D01*
X65448778Y-70074030D01*
X65407053Y-70098971D01*
X65345513Y-70127908D01*
X65290125Y-70152063D01*
X65200840Y-70188544D01*
X65133021Y-70209842D01*
X65083548Y-70214631D01*
X65049301Y-70201586D01*
X65027160Y-70169379D01*
X65014005Y-70116686D01*
X65006715Y-70042178D01*
X65006064Y-70031329D01*
X65000264Y-69962127D01*
X64990482Y-69910456D01*
X64974145Y-69865656D01*
X64958621Y-69834862D01*
X64900181Y-69753776D01*
X64826720Y-69696021D01*
X64740382Y-69662757D01*
X64643307Y-69655146D01*
X64629119Y-69656181D01*
X64530428Y-69677960D01*
X64445187Y-69722983D01*
X64376621Y-69789165D01*
X64343223Y-69841191D01*
X64336498Y-69854758D01*
X64330812Y-69869223D01*
X64326047Y-69887014D01*
X64322087Y-69910563D01*
X64318818Y-69942299D01*
X64316121Y-69984652D01*
X64313882Y-70040053D01*
X64311984Y-70110932D01*
X64310311Y-70199719D01*
X64308747Y-70308845D01*
X64307176Y-70440738D01*
X64305481Y-70597830D01*
X64305036Y-70640222D01*
X64303334Y-70782552D01*
X64301321Y-70916573D01*
X64299067Y-71039591D01*
X64296641Y-71148915D01*
X64294111Y-71241853D01*
X64291545Y-71315712D01*
X64289014Y-71367800D01*
X64286585Y-71395426D01*
X64285666Y-71399010D01*
X64264573Y-71416993D01*
X64223211Y-71441656D01*
X64167883Y-71470161D01*
X64104891Y-71499674D01*
X64040536Y-71527358D01*
X63981120Y-71550378D01*
X63932944Y-71565896D01*
X63903261Y-71571106D01*
X63868854Y-71562347D01*
X63845722Y-71549338D01*
X63839752Y-71544129D01*
X63834674Y-71536772D01*
X63830404Y-71525061D01*
X63826857Y-71506795D01*
X63823949Y-71479770D01*
X63821594Y-71441781D01*
X63819707Y-71390627D01*
X63818205Y-71324104D01*
X63817001Y-71240007D01*
X63816013Y-71136135D01*
X63815153Y-71010283D01*
X63814339Y-70860247D01*
X63813634Y-70715191D01*
X63813021Y-70530244D01*
X63813012Y-70363155D01*
X63813588Y-70215440D01*
X63814732Y-70088616D01*
X63816425Y-69984198D01*
X63818651Y-69903701D01*
X63821391Y-69848643D01*
X63824058Y-69823266D01*
X63860099Y-69699097D01*
X63920574Y-69578928D01*
X64001695Y-69466626D01*
X64099676Y-69366059D01*
X64210729Y-69281093D01*
X64331065Y-69215598D01*
X64456898Y-69173439D01*
X64461449Y-69172413D01*
X64540354Y-69161768D01*
X64635651Y-69159248D01*
X64737114Y-69164240D01*
X64737114Y-69164240D01*
G37*
X64737114Y-69164240D02*
X64834517Y-69176128D01*
X64917637Y-69194298D01*
X64938947Y-69201125D01*
X65070029Y-69261345D01*
X65188054Y-69342843D01*
X65290450Y-69442208D01*
X65374640Y-69556030D01*
X65438051Y-69680899D01*
X65478108Y-69813403D01*
X65491996Y-69933670D01*
X65492297Y-69982905D01*
X65487677Y-70020025D01*
X65474412Y-70049058D01*
X65448778Y-70074030D01*
X65407053Y-70098971D01*
X65345513Y-70127908D01*
X65290125Y-70152063D01*
X65200840Y-70188544D01*
X65133021Y-70209842D01*
X65083548Y-70214631D01*
X65049301Y-70201586D01*
X65027160Y-70169379D01*
X65014005Y-70116686D01*
X65006715Y-70042178D01*
X65006064Y-70031329D01*
X65000264Y-69962127D01*
X64990482Y-69910456D01*
X64974145Y-69865656D01*
X64958621Y-69834862D01*
X64900181Y-69753776D01*
X64826720Y-69696021D01*
X64740382Y-69662757D01*
X64643307Y-69655146D01*
X64629119Y-69656181D01*
X64530428Y-69677960D01*
X64445187Y-69722983D01*
X64376621Y-69789165D01*
X64343223Y-69841191D01*
X64336498Y-69854758D01*
X64330812Y-69869223D01*
X64326047Y-69887014D01*
X64322087Y-69910563D01*
X64318818Y-69942299D01*
X64316121Y-69984652D01*
X64313882Y-70040053D01*
X64311984Y-70110932D01*
X64310311Y-70199719D01*
X64308747Y-70308845D01*
X64307176Y-70440738D01*
X64305481Y-70597830D01*
X64305036Y-70640222D01*
X64303334Y-70782552D01*
X64301321Y-70916573D01*
X64299067Y-71039591D01*
X64296641Y-71148915D01*
X64294111Y-71241853D01*
X64291545Y-71315712D01*
X64289014Y-71367800D01*
X64286585Y-71395426D01*
X64285666Y-71399010D01*
X64264573Y-71416993D01*
X64223211Y-71441656D01*
X64167883Y-71470161D01*
X64104891Y-71499674D01*
X64040536Y-71527358D01*
X63981120Y-71550378D01*
X63932944Y-71565896D01*
X63903261Y-71571106D01*
X63868854Y-71562347D01*
X63845722Y-71549338D01*
X63839752Y-71544129D01*
X63834674Y-71536772D01*
X63830404Y-71525061D01*
X63826857Y-71506795D01*
X63823949Y-71479770D01*
X63821594Y-71441781D01*
X63819707Y-71390627D01*
X63818205Y-71324104D01*
X63817001Y-71240007D01*
X63816013Y-71136135D01*
X63815153Y-71010283D01*
X63814339Y-70860247D01*
X63813634Y-70715191D01*
X63813021Y-70530244D01*
X63813012Y-70363155D01*
X63813588Y-70215440D01*
X63814732Y-70088616D01*
X63816425Y-69984198D01*
X63818651Y-69903701D01*
X63821391Y-69848643D01*
X63824058Y-69823266D01*
X63860099Y-69699097D01*
X63920574Y-69578928D01*
X64001695Y-69466626D01*
X64099676Y-69366059D01*
X64210729Y-69281093D01*
X64331065Y-69215598D01*
X64456898Y-69173439D01*
X64461449Y-69172413D01*
X64540354Y-69161768D01*
X64635651Y-69159248D01*
X64737114Y-69164240D01*
G36*
X72826834Y-69163746D02*
X72929776Y-69180895D01*
X73026473Y-69212363D01*
X73112807Y-69252906D01*
X73221803Y-69324601D01*
X73320447Y-69417433D01*
X73405324Y-69526220D01*
X73473022Y-69645778D01*
X73520128Y-69770923D01*
X73543229Y-69896473D01*
X73544022Y-69907752D01*
X73545379Y-69968818D01*
X73541990Y-70017181D01*
X73535227Y-70043392D01*
X73516302Y-70060485D01*
X73477132Y-70084636D01*
X73423892Y-70112974D01*
X73362753Y-70142624D01*
X73299889Y-70170714D01*
X73241473Y-70194370D01*
X73193677Y-70210719D01*
X73162675Y-70216888D01*
X73162485Y-70216889D01*
X73131621Y-70213706D01*
X73108617Y-70201520D01*
X73091607Y-70176374D01*
X73078724Y-70134311D01*
X73068101Y-70071376D01*
X73059446Y-69998419D01*
X73044358Y-69910689D01*
X73017768Y-69841457D01*
X72975472Y-69781962D01*
X72937619Y-69744406D01*
X72855636Y-69687708D01*
X72767605Y-69657481D01*
X72676916Y-69653596D01*
X72586958Y-69675926D01*
X72501119Y-69724344D01*
X72456415Y-69762511D01*
X72436643Y-69782379D01*
X72419854Y-69802033D01*
X72405775Y-69823874D01*
X72394134Y-69850304D01*
X72384659Y-69883722D01*
X72377078Y-69926530D01*
X72371117Y-69981129D01*
X72366505Y-70049920D01*
X72362970Y-70135304D01*
X72360239Y-70239682D01*
X72358040Y-70365454D01*
X72356100Y-70515022D01*
X72354466Y-70661389D01*
X72352812Y-70800523D01*
X72350976Y-70931545D01*
X72349016Y-71051657D01*
X72346992Y-71158058D01*
X72344961Y-71247949D01*
X72342982Y-71318531D01*
X72341115Y-71367004D01*
X72339418Y-71390570D01*
X72339129Y-71391968D01*
X72321696Y-71412154D01*
X72283332Y-71438370D01*
X72229948Y-71467923D01*
X72167454Y-71498124D01*
X72101760Y-71526278D01*
X72038777Y-71549696D01*
X71984414Y-71565686D01*
X71944794Y-71571555D01*
X71906812Y-71564568D01*
X71880200Y-71548146D01*
X71875815Y-71528831D01*
X71872097Y-71484304D01*
X71869026Y-71417567D01*
X71866587Y-71331622D01*
X71864762Y-71229471D01*
X71863534Y-71114117D01*
X71862885Y-70988561D01*
X71862798Y-70855806D01*
X71863257Y-70718854D01*
X71864243Y-70580706D01*
X71865739Y-70444365D01*
X71867729Y-70312832D01*
X71870194Y-70189111D01*
X71873119Y-70076202D01*
X71876484Y-69977108D01*
X71880274Y-69894832D01*
X71884471Y-69832374D01*
X71889058Y-69792738D01*
X71890322Y-69786500D01*
X71927993Y-69670149D01*
X71984416Y-69563305D01*
X72063113Y-69459980D01*
X72114810Y-69404846D01*
X72219587Y-69310610D01*
X72323990Y-69241347D01*
X72433987Y-69194579D01*
X72555543Y-69167827D01*
X72694626Y-69158609D01*
X72707500Y-69158555D01*
X72826834Y-69163746D01*
X72826834Y-69163746D01*
G37*
X72826834Y-69163746D02*
X72929776Y-69180895D01*
X73026473Y-69212363D01*
X73112807Y-69252906D01*
X73221803Y-69324601D01*
X73320447Y-69417433D01*
X73405324Y-69526220D01*
X73473022Y-69645778D01*
X73520128Y-69770923D01*
X73543229Y-69896473D01*
X73544022Y-69907752D01*
X73545379Y-69968818D01*
X73541990Y-70017181D01*
X73535227Y-70043392D01*
X73516302Y-70060485D01*
X73477132Y-70084636D01*
X73423892Y-70112974D01*
X73362753Y-70142624D01*
X73299889Y-70170714D01*
X73241473Y-70194370D01*
X73193677Y-70210719D01*
X73162675Y-70216888D01*
X73162485Y-70216889D01*
X73131621Y-70213706D01*
X73108617Y-70201520D01*
X73091607Y-70176374D01*
X73078724Y-70134311D01*
X73068101Y-70071376D01*
X73059446Y-69998419D01*
X73044358Y-69910689D01*
X73017768Y-69841457D01*
X72975472Y-69781962D01*
X72937619Y-69744406D01*
X72855636Y-69687708D01*
X72767605Y-69657481D01*
X72676916Y-69653596D01*
X72586958Y-69675926D01*
X72501119Y-69724344D01*
X72456415Y-69762511D01*
X72436643Y-69782379D01*
X72419854Y-69802033D01*
X72405775Y-69823874D01*
X72394134Y-69850304D01*
X72384659Y-69883722D01*
X72377078Y-69926530D01*
X72371117Y-69981129D01*
X72366505Y-70049920D01*
X72362970Y-70135304D01*
X72360239Y-70239682D01*
X72358040Y-70365454D01*
X72356100Y-70515022D01*
X72354466Y-70661389D01*
X72352812Y-70800523D01*
X72350976Y-70931545D01*
X72349016Y-71051657D01*
X72346992Y-71158058D01*
X72344961Y-71247949D01*
X72342982Y-71318531D01*
X72341115Y-71367004D01*
X72339418Y-71390570D01*
X72339129Y-71391968D01*
X72321696Y-71412154D01*
X72283332Y-71438370D01*
X72229948Y-71467923D01*
X72167454Y-71498124D01*
X72101760Y-71526278D01*
X72038777Y-71549696D01*
X71984414Y-71565686D01*
X71944794Y-71571555D01*
X71906812Y-71564568D01*
X71880200Y-71548146D01*
X71875815Y-71528831D01*
X71872097Y-71484304D01*
X71869026Y-71417567D01*
X71866587Y-71331622D01*
X71864762Y-71229471D01*
X71863534Y-71114117D01*
X71862885Y-70988561D01*
X71862798Y-70855806D01*
X71863257Y-70718854D01*
X71864243Y-70580706D01*
X71865739Y-70444365D01*
X71867729Y-70312832D01*
X71870194Y-70189111D01*
X71873119Y-70076202D01*
X71876484Y-69977108D01*
X71880274Y-69894832D01*
X71884471Y-69832374D01*
X71889058Y-69792738D01*
X71890322Y-69786500D01*
X71927993Y-69670149D01*
X71984416Y-69563305D01*
X72063113Y-69459980D01*
X72114810Y-69404846D01*
X72219587Y-69310610D01*
X72323990Y-69241347D01*
X72433987Y-69194579D01*
X72555543Y-69167827D01*
X72694626Y-69158609D01*
X72707500Y-69158555D01*
X72826834Y-69163746D01*
G36*
X61947777Y-51555348D02*
X62001860Y-51555412D01*
X62079351Y-51555459D01*
X62175438Y-51555490D01*
X62285307Y-51555502D01*
X62404145Y-51555497D01*
X62527139Y-51555472D01*
X62596888Y-51555448D01*
X62797713Y-51555374D01*
X62972369Y-51555344D01*
X63122909Y-51555399D01*
X63251389Y-51555583D01*
X63359861Y-51555937D01*
X63450379Y-51556506D01*
X63524996Y-51557330D01*
X63585767Y-51558453D01*
X63634745Y-51559917D01*
X63673984Y-51561764D01*
X63705536Y-51564038D01*
X63731457Y-51566781D01*
X63753799Y-51570034D01*
X63774616Y-51573842D01*
X63795963Y-51578246D01*
X63806633Y-51580507D01*
X63873484Y-51596366D01*
X63941288Y-51615231D01*
X63996367Y-51633270D01*
X64000645Y-51634879D01*
X64041846Y-51651534D01*
X64067197Y-51667415D01*
X64083432Y-51690374D01*
X64097286Y-51728264D01*
X64106232Y-51757980D01*
X64133302Y-51851039D01*
X64158270Y-51941451D01*
X64181881Y-52032637D01*
X64204880Y-52128021D01*
X64228012Y-52231025D01*
X64252025Y-52345072D01*
X64277662Y-52473584D01*
X64305669Y-52619984D01*
X64336793Y-52787694D01*
X64368526Y-52962127D01*
X64391705Y-53089274D01*
X64415321Y-53216719D01*
X64438441Y-53339568D01*
X64460129Y-53452926D01*
X64479452Y-53551895D01*
X64495474Y-53631582D01*
X64504632Y-53675147D01*
X64548253Y-53876238D01*
X64640220Y-53934320D01*
X64707088Y-53975283D01*
X64775293Y-54014183D01*
X64847575Y-54052197D01*
X64926676Y-54090504D01*
X65015337Y-54130280D01*
X65116300Y-54172703D01*
X65232307Y-54218951D01*
X65366098Y-54270202D01*
X65520415Y-54327631D01*
X65698000Y-54392418D01*
X65753352Y-54412429D01*
X66108761Y-54540703D01*
X66210790Y-54489322D01*
X66278934Y-54453466D01*
X66354329Y-54410655D01*
X66439855Y-54359092D01*
X66538396Y-54296982D01*
X66652832Y-54222532D01*
X66786047Y-54133945D01*
X66844333Y-54094759D01*
X66926281Y-54039977D01*
X67004164Y-53988751D01*
X67073705Y-53943828D01*
X67130630Y-53907956D01*
X67170662Y-53883884D01*
X67183000Y-53877134D01*
X67229598Y-53851362D01*
X67280583Y-53818451D01*
X67339606Y-53775699D01*
X67410319Y-53720407D01*
X67496375Y-53649872D01*
X67542512Y-53611232D01*
X67659545Y-53515768D01*
X67759828Y-53440682D01*
X67844945Y-53384896D01*
X67916481Y-53347330D01*
X67949020Y-53334577D01*
X68016330Y-53318897D01*
X68088974Y-53313177D01*
X68156005Y-53317613D01*
X68201607Y-53330053D01*
X68223045Y-53345124D01*
X68262077Y-53378222D01*
X68316539Y-53427220D01*
X68384269Y-53489991D01*
X68463101Y-53564410D01*
X68550872Y-53648350D01*
X68645420Y-53739685D01*
X68744579Y-53836288D01*
X68846186Y-53936034D01*
X68948078Y-54036796D01*
X69048091Y-54136447D01*
X69144061Y-54232862D01*
X69233824Y-54323914D01*
X69315217Y-54407477D01*
X69386077Y-54481425D01*
X69444239Y-54543630D01*
X69487539Y-54591968D01*
X69496887Y-54602944D01*
X69550764Y-54669003D01*
X69604362Y-54737833D01*
X69654741Y-54805314D01*
X69698966Y-54867331D01*
X69734097Y-54919764D01*
X69757197Y-54958497D01*
X69765333Y-54979212D01*
X69757470Y-55001579D01*
X69734537Y-55045591D01*
X69697517Y-55109682D01*
X69647393Y-55192285D01*
X69585148Y-55291836D01*
X69511766Y-55406767D01*
X69428229Y-55535512D01*
X69335521Y-55676504D01*
X69234624Y-55828179D01*
X69199906Y-55880000D01*
X69125827Y-55990469D01*
X69052520Y-56099948D01*
X68982436Y-56204763D01*
X68918028Y-56301241D01*
X68861746Y-56385711D01*
X68816042Y-56454499D01*
X68783368Y-56503933D01*
X68780732Y-56507944D01*
X68738966Y-56571101D01*
X68699386Y-56630162D01*
X68666306Y-56678737D01*
X68644043Y-56710434D01*
X68643139Y-56711669D01*
X68600788Y-56789948D01*
X68575774Y-56880992D01*
X68571003Y-56973311D01*
X68572667Y-56990390D01*
X68582006Y-57046316D01*
X68597141Y-57104495D01*
X68619943Y-57170151D01*
X68652282Y-57248509D01*
X68696027Y-57344793D01*
X68710622Y-57375777D01*
X68744081Y-57449641D01*
X68782717Y-57540096D01*
X68822364Y-57637103D01*
X68858858Y-57730622D01*
X68868673Y-57756777D01*
X68936575Y-57931055D01*
X69001800Y-58079599D01*
X69065760Y-58204603D01*
X69129865Y-58308258D01*
X69195525Y-58392756D01*
X69264152Y-58460289D01*
X69337156Y-58513049D01*
X69365965Y-58529481D01*
X69416834Y-58551074D01*
X69492747Y-58575575D01*
X69590754Y-58602315D01*
X69707903Y-58630623D01*
X69841243Y-58659827D01*
X69987825Y-58689258D01*
X70144698Y-58718244D01*
X70308911Y-58746116D01*
X70343888Y-58751739D01*
X70541877Y-58784210D01*
X70714773Y-58814748D01*
X70865585Y-58844054D01*
X70997317Y-58872832D01*
X71112979Y-58901784D01*
X71215576Y-58931612D01*
X71308115Y-58963019D01*
X71393602Y-58996708D01*
X71395166Y-58997370D01*
X71493944Y-59039222D01*
X71498351Y-59819694D01*
X71499033Y-59981076D01*
X71499310Y-60146457D01*
X71499201Y-60311333D01*
X71498726Y-60471205D01*
X71497905Y-60621568D01*
X71496756Y-60757921D01*
X71495301Y-60875763D01*
X71493559Y-60970591D01*
X71493262Y-60983062D01*
X71483765Y-61365958D01*
X71312466Y-61416476D01*
X71209613Y-61446033D01*
X71109020Y-61473166D01*
X71006823Y-61498698D01*
X70899157Y-61523457D01*
X70782158Y-61548266D01*
X70651961Y-61573952D01*
X70504703Y-61601340D01*
X70336518Y-61631255D01*
X70181611Y-61658022D01*
X70013090Y-61687238D01*
X69869145Y-61713065D01*
X69746420Y-61736153D01*
X69641559Y-61757150D01*
X69551205Y-61776706D01*
X69476055Y-61794466D01*
X69394853Y-61814354D01*
X69336181Y-61829396D01*
X69295409Y-61842412D01*
X69267908Y-61856224D01*
X69249046Y-61873651D01*
X69234194Y-61897516D01*
X69218721Y-61930639D01*
X69205852Y-61959090D01*
X69158139Y-62066504D01*
X69103697Y-62195993D01*
X69044427Y-62342766D01*
X68982232Y-62502027D01*
X68919015Y-62668985D01*
X68856678Y-62838844D01*
X68856479Y-62839394D01*
X68821186Y-62935763D01*
X68786422Y-63028118D01*
X68754105Y-63111557D01*
X68726151Y-63181177D01*
X68704478Y-63232075D01*
X68695146Y-63251867D01*
X68660760Y-63333787D01*
X68642712Y-63415543D01*
X68641700Y-63500016D01*
X68658421Y-63590085D01*
X68693572Y-63688632D01*
X68747851Y-63798537D01*
X68821953Y-63922680D01*
X68878185Y-64008101D01*
X68928588Y-64083585D01*
X68981040Y-64163926D01*
X69029794Y-64240215D01*
X69069101Y-64303543D01*
X69073836Y-64311389D01*
X69113796Y-64376633D01*
X69154349Y-64439786D01*
X69198936Y-64505842D01*
X69250994Y-64579795D01*
X69313962Y-64666639D01*
X69380702Y-64757118D01*
X69499152Y-64923788D01*
X69595669Y-65074714D01*
X69670081Y-65209591D01*
X69722221Y-65328117D01*
X69749181Y-65417021D01*
X69762683Y-65477116D01*
X69585647Y-65677419D01*
X69336039Y-65953997D01*
X69096487Y-66207580D01*
X68867464Y-66437704D01*
X68649445Y-66643910D01*
X68442901Y-66825736D01*
X68248307Y-66982722D01*
X68237628Y-66990879D01*
X68128570Y-67073926D01*
X68054443Y-67043120D01*
X67986206Y-67011301D01*
X67899543Y-66965405D01*
X67798817Y-66908000D01*
X67688393Y-66841656D01*
X67572633Y-66768940D01*
X67455902Y-66692421D01*
X67437000Y-66679709D01*
X67263232Y-66562220D01*
X67111768Y-66459397D01*
X66981352Y-66370361D01*
X66870730Y-66294235D01*
X66778650Y-66230141D01*
X66703855Y-66177201D01*
X66645093Y-66134538D01*
X66601110Y-66101275D01*
X66570651Y-66076532D01*
X66555951Y-66063064D01*
X66477494Y-66001070D01*
X66391511Y-65965700D01*
X66306792Y-65955643D01*
X66257042Y-65958233D01*
X66205273Y-65967434D01*
X66147024Y-65984801D01*
X66077832Y-66011889D01*
X65993233Y-66050252D01*
X65889833Y-66100911D01*
X65778651Y-66154993D01*
X65687020Y-66195489D01*
X65610627Y-66223880D01*
X65545160Y-66241645D01*
X65486304Y-66250265D01*
X65450626Y-66251666D01*
X65368363Y-66251666D01*
X65286900Y-66114083D01*
X65234912Y-66023808D01*
X65184374Y-65930573D01*
X65133955Y-65831430D01*
X65082322Y-65723429D01*
X65028143Y-65603623D01*
X64970086Y-65469062D01*
X64906819Y-65316800D01*
X64837010Y-65143886D01*
X64759328Y-64947373D01*
X64756176Y-64939333D01*
X64712758Y-64829308D01*
X64668116Y-64717560D01*
X64624545Y-64609734D01*
X64584338Y-64511475D01*
X64549791Y-64428428D01*
X64523894Y-64367833D01*
X64489333Y-64287317D01*
X64453969Y-64202423D01*
X64421877Y-64123078D01*
X64397133Y-64059208D01*
X64396455Y-64057389D01*
X64367688Y-63981350D01*
X64338792Y-63908104D01*
X64307443Y-63832152D01*
X64271317Y-63747995D01*
X64228090Y-63650134D01*
X64175439Y-63533069D01*
X64166855Y-63514111D01*
X64106296Y-63379551D01*
X64056107Y-63265795D01*
X64014398Y-63168229D01*
X63979279Y-63082236D01*
X63948860Y-63003200D01*
X63921251Y-62926507D01*
X63897284Y-62855791D01*
X63876845Y-62789882D01*
X63856447Y-62716976D01*
X63837272Y-62642255D01*
X63820503Y-62570902D01*
X63807325Y-62508101D01*
X63798920Y-62459035D01*
X63796472Y-62428886D01*
X63798257Y-62422103D01*
X63811512Y-62413303D01*
X63843386Y-62392570D01*
X63888753Y-62363228D01*
X63930388Y-62336389D01*
X64148191Y-62182354D01*
X64350095Y-62011700D01*
X64534441Y-61826682D01*
X64699567Y-61629557D01*
X64843813Y-61422579D01*
X64965520Y-61208005D01*
X65063025Y-60988089D01*
X65134668Y-60765087D01*
X65156715Y-60670722D01*
X65181025Y-60517423D01*
X65195296Y-60346136D01*
X65199519Y-60165250D01*
X65193688Y-59983156D01*
X65177794Y-59808245D01*
X65157606Y-59677945D01*
X65101409Y-59456413D01*
X65018692Y-59240955D01*
X64910910Y-59033913D01*
X64779516Y-58837629D01*
X64625966Y-58654445D01*
X64451712Y-58486703D01*
X64381944Y-58428752D01*
X64163633Y-58270444D01*
X63939704Y-58139592D01*
X63709004Y-58035783D01*
X63470381Y-57958608D01*
X63222685Y-57907653D01*
X62964764Y-57882509D01*
X62843833Y-57879501D01*
X62749400Y-57879691D01*
X62674430Y-57881526D01*
X62610173Y-57885860D01*
X62547880Y-57893546D01*
X62478804Y-57905438D01*
X62394194Y-57922387D01*
X62385444Y-57924205D01*
X62297971Y-57943478D01*
X62208626Y-57964996D01*
X62126339Y-57986493D01*
X62060039Y-58005701D01*
X62043914Y-58010909D01*
X61832364Y-58096448D01*
X61632019Y-58206713D01*
X61444277Y-58339967D01*
X61270533Y-58494476D01*
X61112183Y-58668501D01*
X60970625Y-58860306D01*
X60847253Y-59068155D01*
X60743465Y-59290312D01*
X60660657Y-59525041D01*
X60600224Y-59770603D01*
X60591623Y-59817000D01*
X60585362Y-59861745D01*
X60578442Y-59926044D01*
X60571707Y-60001268D01*
X60566050Y-60078055D01*
X60561505Y-60291588D01*
X60576687Y-60501231D01*
X60612452Y-60713079D01*
X60669654Y-60933229D01*
X60698972Y-61025709D01*
X60736035Y-61133006D01*
X60770089Y-61220520D01*
X60804735Y-61295905D01*
X60843575Y-61366814D01*
X60890210Y-61440900D01*
X60904215Y-61461862D01*
X60949554Y-61525602D01*
X61000922Y-61590609D01*
X61060597Y-61659215D01*
X61130853Y-61733755D01*
X61213966Y-61816562D01*
X61312213Y-61909968D01*
X61427870Y-62016308D01*
X61563212Y-62137913D01*
X61566777Y-62141089D01*
X61635939Y-62203511D01*
X61707068Y-62269140D01*
X61773362Y-62331606D01*
X61828016Y-62384539D01*
X61845699Y-62402229D01*
X61948232Y-62506288D01*
X61850752Y-62795005D01*
X61807908Y-62920533D01*
X61765427Y-63041921D01*
X61722196Y-63161995D01*
X61677098Y-63283579D01*
X61629017Y-63409499D01*
X61576838Y-63542580D01*
X61519445Y-63685646D01*
X61455722Y-63841523D01*
X61384554Y-64013035D01*
X61304826Y-64203009D01*
X61215420Y-64414268D01*
X61157153Y-64551277D01*
X61101835Y-64681526D01*
X61044901Y-64816241D01*
X60988473Y-64950358D01*
X60934672Y-65078814D01*
X60885620Y-65196542D01*
X60843436Y-65298480D01*
X60810244Y-65379562D01*
X60810137Y-65379824D01*
X60774110Y-65467689D01*
X60739963Y-65549281D01*
X60709653Y-65620060D01*
X60685134Y-65675484D01*
X60668361Y-65711009D01*
X60664342Y-65718490D01*
X60649889Y-65748807D01*
X60629247Y-65799530D01*
X60604907Y-65864208D01*
X60579359Y-65936392D01*
X60572913Y-65955333D01*
X60532510Y-66066809D01*
X60494763Y-66152788D01*
X60458325Y-66215708D01*
X60421846Y-66258007D01*
X60394973Y-66276972D01*
X60349129Y-66288772D01*
X60278028Y-66288651D01*
X60270679Y-66288081D01*
X60222265Y-66281646D01*
X60173826Y-66269238D01*
X60120983Y-66248864D01*
X60059361Y-66218530D01*
X59984580Y-66176244D01*
X59892263Y-66120011D01*
X59867184Y-66104327D01*
X59777807Y-66049464D01*
X59706597Y-66009108D01*
X59648845Y-65981237D01*
X59599844Y-65963827D01*
X59554887Y-65954855D01*
X59513470Y-65952317D01*
X59482311Y-65953180D01*
X59453407Y-65957802D01*
X59421546Y-65968310D01*
X59381519Y-65986835D01*
X59328113Y-66015504D01*
X59256118Y-66056448D01*
X59250036Y-66059950D01*
X59179903Y-66102035D01*
X59093882Y-66156272D01*
X58998866Y-66218158D01*
X58901751Y-66283192D01*
X58809433Y-66346870D01*
X58793944Y-66357779D01*
X58613629Y-66484411D01*
X58453772Y-66594843D01*
X58312568Y-66690221D01*
X58188213Y-66771692D01*
X58078901Y-66840403D01*
X57982829Y-66897498D01*
X57898190Y-66944124D01*
X57823182Y-66981428D01*
X57785000Y-66998549D01*
X57729966Y-67022970D01*
X57688654Y-67040784D01*
X57656339Y-67050596D01*
X57628296Y-67051011D01*
X57599799Y-67040635D01*
X57566123Y-67018074D01*
X57522543Y-66981932D01*
X57464334Y-66930816D01*
X57417927Y-66890212D01*
X57352889Y-66832338D01*
X57275782Y-66761350D01*
X57188544Y-66679204D01*
X57093111Y-66587856D01*
X56991421Y-66489262D01*
X56885411Y-66385376D01*
X56777019Y-66278155D01*
X56668181Y-66169554D01*
X56560836Y-66061529D01*
X56456920Y-65956036D01*
X56358371Y-65855029D01*
X56267125Y-65760465D01*
X56185121Y-65674300D01*
X56114296Y-65598488D01*
X56056587Y-65534986D01*
X56013930Y-65485749D01*
X55988265Y-65452732D01*
X55981395Y-65440107D01*
X55985866Y-65416703D01*
X56003341Y-65373418D01*
X56031701Y-65314202D01*
X56068826Y-65243003D01*
X56112599Y-65163771D01*
X56160901Y-65080453D01*
X56211614Y-64997000D01*
X56258443Y-64923701D01*
X56306119Y-64852392D01*
X56365569Y-64765471D01*
X56431845Y-64670059D01*
X56499997Y-64573279D01*
X56565074Y-64482250D01*
X56571273Y-64473666D01*
X56636797Y-64382246D01*
X56706884Y-64283095D01*
X56776300Y-64183711D01*
X56839809Y-64091591D01*
X56892178Y-64014235D01*
X56895038Y-64009946D01*
X56942616Y-63938565D01*
X56987644Y-63871074D01*
X57026558Y-63812809D01*
X57055796Y-63769106D01*
X57068247Y-63750554D01*
X57101602Y-63691431D01*
X57122364Y-63629359D01*
X57130164Y-63561143D01*
X57124635Y-63483591D01*
X57105407Y-63393507D01*
X57072111Y-63287700D01*
X57024379Y-63162975D01*
X56991225Y-63083722D01*
X56956443Y-63000570D01*
X56921202Y-62913019D01*
X56889230Y-62830538D01*
X56864255Y-62762593D01*
X56860610Y-62752111D01*
X56825031Y-62650138D01*
X56786842Y-62543547D01*
X56747713Y-62436739D01*
X56709310Y-62334118D01*
X56673303Y-62240086D01*
X56641359Y-62159048D01*
X56615146Y-62095406D01*
X56596332Y-62053562D01*
X56594849Y-62050604D01*
X56534110Y-61952221D01*
X56463594Y-61878960D01*
X56380176Y-61828518D01*
X56280730Y-61798588D01*
X56245526Y-61793032D01*
X56181257Y-61782959D01*
X56116530Y-61769971D01*
X56069461Y-61758019D01*
X56006029Y-61740802D01*
X55924349Y-61721941D01*
X55822480Y-61701056D01*
X55698481Y-61677769D01*
X55550410Y-61651699D01*
X55376327Y-61622468D01*
X55372000Y-61621755D01*
X55176395Y-61588551D01*
X55005824Y-61557327D01*
X54857230Y-61527352D01*
X54727557Y-61497893D01*
X54613746Y-61468218D01*
X54512740Y-61437596D01*
X54421482Y-61405293D01*
X54354041Y-61378007D01*
X54302693Y-61356043D01*
X54293755Y-61069827D01*
X54289800Y-60932955D01*
X54286044Y-60783245D01*
X54282528Y-60624046D01*
X54279295Y-60458705D01*
X54276387Y-60290570D01*
X54276328Y-60286611D01*
X54767900Y-60286611D01*
X54769564Y-60409383D01*
X54775475Y-60515627D01*
X54786151Y-60611098D01*
X54802107Y-60701551D01*
X54823860Y-60792742D01*
X54830710Y-60817930D01*
X54853585Y-60900209D01*
X54989320Y-60951278D01*
X55087905Y-60986889D01*
X55186365Y-61019135D01*
X55288292Y-61048837D01*
X55397278Y-61076817D01*
X55516917Y-61103896D01*
X55650800Y-61130894D01*
X55802522Y-61158633D01*
X55975675Y-61187934D01*
X56141055Y-61214471D01*
X56240341Y-61230439D01*
X56343737Y-61247667D01*
X56447407Y-61265456D01*
X56547515Y-61283106D01*
X56640222Y-61299919D01*
X56721694Y-61315196D01*
X56788093Y-61328236D01*
X56835583Y-61338340D01*
X56860327Y-61344810D01*
X56862849Y-61346030D01*
X56871539Y-61362498D01*
X56889016Y-61402530D01*
X56914151Y-61463263D01*
X56945817Y-61541838D01*
X56982885Y-61635394D01*
X57024229Y-61741069D01*
X57068719Y-61856003D01*
X57115229Y-61977335D01*
X57162630Y-62102205D01*
X57197437Y-62194722D01*
X57270105Y-62387290D01*
X57335259Y-62556697D01*
X57394452Y-62706511D01*
X57449235Y-62840296D01*
X57501159Y-62961621D01*
X57551777Y-63074050D01*
X57602640Y-63181151D01*
X57655299Y-63286489D01*
X57711307Y-63393632D01*
X57751623Y-63468468D01*
X57792055Y-63542770D01*
X57730192Y-63658968D01*
X57701475Y-63712138D01*
X57672432Y-63764027D01*
X57641279Y-63817448D01*
X57606233Y-63875217D01*
X57565512Y-63940145D01*
X57517332Y-64015047D01*
X57459912Y-64102736D01*
X57391467Y-64206026D01*
X57310216Y-64327731D01*
X57240776Y-64431333D01*
X57145448Y-64573836D01*
X57064339Y-64696189D01*
X56995574Y-64801422D01*
X56937276Y-64892566D01*
X56887568Y-64972654D01*
X56844573Y-65044716D01*
X56806416Y-65111784D01*
X56771220Y-65176889D01*
X56737108Y-65243062D01*
X56731984Y-65253237D01*
X56667759Y-65381116D01*
X56954741Y-65669564D01*
X57044697Y-65759420D01*
X57143142Y-65856794D01*
X57244007Y-65955750D01*
X57341225Y-66050350D01*
X57428729Y-66134658D01*
X57478075Y-66181649D01*
X57714429Y-66405287D01*
X57866131Y-66318603D01*
X57909483Y-66292650D01*
X57973050Y-66252948D01*
X58053667Y-66201548D01*
X58148165Y-66140507D01*
X58253378Y-66071876D01*
X58366141Y-65997711D01*
X58483285Y-65920065D01*
X58575222Y-65858701D01*
X58690666Y-65780948D01*
X58801399Y-65705505D01*
X58904676Y-65634302D01*
X58997757Y-65569268D01*
X59077898Y-65512331D01*
X59142358Y-65465419D01*
X59188395Y-65430463D01*
X59211296Y-65411304D01*
X59289266Y-65350115D01*
X59365945Y-65315605D01*
X59432917Y-65306301D01*
X59480925Y-65313652D01*
X59547394Y-65334558D01*
X59627230Y-65367026D01*
X59715343Y-65409063D01*
X59771438Y-65438805D01*
X59852646Y-65481420D01*
X59928668Y-65517364D01*
X59995448Y-65545059D01*
X60048930Y-65562927D01*
X60085059Y-65569393D01*
X60098256Y-65565889D01*
X60111988Y-65545525D01*
X60135925Y-65504346D01*
X60167706Y-65446811D01*
X60204971Y-65377378D01*
X60245362Y-65300503D01*
X60286517Y-65220646D01*
X60326078Y-65142262D01*
X60361686Y-65069811D01*
X60369803Y-65052917D01*
X60424583Y-64937073D01*
X60476864Y-64823768D01*
X60527670Y-64710439D01*
X60578027Y-64594522D01*
X60628961Y-64473451D01*
X60681496Y-64344663D01*
X60736658Y-64205593D01*
X60795473Y-64053677D01*
X60858965Y-63886352D01*
X60928161Y-63701052D01*
X61004085Y-63495214D01*
X61087763Y-63266272D01*
X61123368Y-63168389D01*
X61297683Y-62688611D01*
X61237617Y-62625111D01*
X61206835Y-62592667D01*
X61161557Y-62545071D01*
X61106785Y-62487574D01*
X61047521Y-62425428D01*
X61015858Y-62392254D01*
X60809842Y-62165966D01*
X60630059Y-61945454D01*
X60475603Y-61728747D01*
X60345572Y-61513869D01*
X60239060Y-61298849D01*
X60155163Y-61081712D01*
X60092977Y-60860485D01*
X60051597Y-60633195D01*
X60030119Y-60397868D01*
X60026416Y-60233277D01*
X60033019Y-60017119D01*
X60052304Y-59817498D01*
X60085708Y-59625065D01*
X60134669Y-59430472D01*
X60165200Y-59330166D01*
X60264329Y-59064670D01*
X60386856Y-58814698D01*
X60533009Y-58579931D01*
X60703015Y-58360051D01*
X60897100Y-58154740D01*
X61115492Y-57963678D01*
X61168133Y-57922522D01*
X61399694Y-57762032D01*
X61640956Y-57627958D01*
X61892104Y-57520243D01*
X62153322Y-57438829D01*
X62424794Y-57383658D01*
X62706706Y-57354673D01*
X62998134Y-57351779D01*
X63281275Y-57373851D01*
X63551009Y-57420620D01*
X63808150Y-57492404D01*
X64053508Y-57589522D01*
X64287897Y-57712292D01*
X64512129Y-57861033D01*
X64713555Y-58024091D01*
X64877215Y-58174049D01*
X65018296Y-58315530D01*
X65139580Y-58452444D01*
X65243849Y-58588697D01*
X65333884Y-58728198D01*
X65412468Y-58874854D01*
X65482381Y-59032574D01*
X65539000Y-59183794D01*
X65571981Y-59282871D01*
X65598809Y-59374803D01*
X65620206Y-59464498D01*
X65636897Y-59556865D01*
X65649607Y-59656812D01*
X65659060Y-59769248D01*
X65665979Y-59899082D01*
X65671089Y-60051222D01*
X65671966Y-60085111D01*
X65674291Y-60199712D01*
X65675627Y-60313127D01*
X65675983Y-60420013D01*
X65675368Y-60515024D01*
X65673789Y-60592818D01*
X65671256Y-60648049D01*
X65671085Y-60650377D01*
X65649862Y-60827691D01*
X65612427Y-60999148D01*
X65556847Y-61171382D01*
X65481190Y-61351024D01*
X65445259Y-61425666D01*
X65384112Y-61543561D01*
X65319990Y-61656006D01*
X65250557Y-61766105D01*
X65173480Y-61876963D01*
X65086422Y-61991687D01*
X64987049Y-62113380D01*
X64873025Y-62245149D01*
X64742016Y-62390098D01*
X64626867Y-62513953D01*
X64446396Y-62706184D01*
X64578550Y-63064286D01*
X64713867Y-63422622D01*
X64861472Y-63798084D01*
X65018600Y-64183930D01*
X65182485Y-64573416D01*
X65350359Y-64959797D01*
X65424291Y-65126006D01*
X65464682Y-65216631D01*
X65500958Y-65298959D01*
X65531587Y-65369435D01*
X65555038Y-65424509D01*
X65569779Y-65460627D01*
X65574333Y-65474001D01*
X65584241Y-65490545D01*
X65609021Y-65515990D01*
X65619413Y-65525090D01*
X65646283Y-65544169D01*
X65674354Y-65554248D01*
X65707929Y-65554525D01*
X65751310Y-65544195D01*
X65808800Y-65522454D01*
X65884702Y-65488501D01*
X65930129Y-65467061D01*
X66098228Y-65386926D01*
X66241975Y-65394803D01*
X66335963Y-65403342D01*
X66426091Y-65419319D01*
X66515269Y-65444206D01*
X66606407Y-65479471D01*
X66702416Y-65526585D01*
X66806205Y-65587018D01*
X66920684Y-65662239D01*
X67048764Y-65753718D01*
X67193354Y-65862926D01*
X67239444Y-65898632D01*
X67385512Y-66010013D01*
X67514439Y-66103135D01*
X67629004Y-66179734D01*
X67731984Y-66241545D01*
X67826156Y-66290303D01*
X67914299Y-66327745D01*
X67942581Y-66337928D01*
X68017901Y-66363842D01*
X68090811Y-66326967D01*
X68156021Y-66291805D01*
X68219119Y-66252693D01*
X68282615Y-66207384D01*
X68349018Y-66153631D01*
X68420835Y-66089186D01*
X68500577Y-66011801D01*
X68590752Y-65919228D01*
X68693869Y-65809222D01*
X68807758Y-65684693D01*
X69059562Y-65406998D01*
X69012282Y-65296638D01*
X68970620Y-65202421D01*
X68927569Y-65111863D01*
X68881165Y-65021638D01*
X68829441Y-64928421D01*
X68770434Y-64828887D01*
X68702177Y-64719711D01*
X68622706Y-64597568D01*
X68530056Y-64459133D01*
X68434177Y-64318444D01*
X68366679Y-64219658D01*
X68298926Y-64119843D01*
X68234089Y-64023716D01*
X68175338Y-63935996D01*
X68125843Y-63861400D01*
X68088774Y-63804646D01*
X68084757Y-63798394D01*
X67982107Y-63638177D01*
X68029576Y-63502061D01*
X68060835Y-63416185D01*
X68101538Y-63310883D01*
X68152169Y-63184971D01*
X68213213Y-63037266D01*
X68285153Y-62866586D01*
X68368473Y-62671748D01*
X68385515Y-62632166D01*
X68467789Y-62437984D01*
X68537914Y-62264957D01*
X68597180Y-62109425D01*
X68646872Y-61967724D01*
X68688280Y-61836191D01*
X68722689Y-61711164D01*
X68750087Y-61595000D01*
X68763679Y-61536330D01*
X68776413Y-61488190D01*
X68786451Y-61457211D01*
X68790332Y-61449700D01*
X68812774Y-61435965D01*
X68856694Y-61416096D01*
X68916572Y-61392186D01*
X68986890Y-61366327D01*
X69062127Y-61340611D01*
X69136765Y-61317128D01*
X69151956Y-61312644D01*
X69223962Y-61292408D01*
X69296644Y-61273692D01*
X69374378Y-61255581D01*
X69461542Y-61237159D01*
X69562511Y-61217511D01*
X69681662Y-61195722D01*
X69823371Y-61170875D01*
X69858531Y-61164818D01*
X70076962Y-61125732D01*
X70268776Y-61088044D01*
X70435522Y-61051375D01*
X70578747Y-61015353D01*
X70700002Y-60979600D01*
X70800834Y-60943741D01*
X70843068Y-60926101D01*
X70919536Y-60892283D01*
X70941400Y-60795614D01*
X70983211Y-60559708D01*
X71002963Y-60317260D01*
X71000678Y-60065186D01*
X70976381Y-59800403D01*
X70950234Y-59628282D01*
X70939188Y-59566226D01*
X70929597Y-59515509D01*
X70922593Y-59481922D01*
X70919523Y-59471170D01*
X70905312Y-59465713D01*
X70869345Y-59453376D01*
X70816744Y-59435879D01*
X70752633Y-59414943D01*
X70739000Y-59410534D01*
X70649107Y-59382527D01*
X70554470Y-59355214D01*
X70451885Y-59327832D01*
X70338147Y-59299617D01*
X70210053Y-59269805D01*
X70064398Y-59237631D01*
X69897979Y-59202332D01*
X69707592Y-59163144D01*
X69666555Y-59154813D01*
X69544837Y-59129982D01*
X69424728Y-59105169D01*
X69310852Y-59081351D01*
X69207829Y-59059504D01*
X69120281Y-59040607D01*
X69052831Y-59025637D01*
X69022361Y-59018573D01*
X68865000Y-58980973D01*
X68752205Y-58746348D01*
X68718000Y-58673379D01*
X68675502Y-58579834D01*
X68627146Y-58471241D01*
X68575368Y-58353127D01*
X68522601Y-58231020D01*
X68471281Y-58110448D01*
X68453468Y-58068099D01*
X68374726Y-57881741D01*
X68304430Y-57718780D01*
X68241156Y-57576172D01*
X68183481Y-57450872D01*
X68129981Y-57339838D01*
X68079232Y-57240025D01*
X68029812Y-57148389D01*
X67993138Y-57083846D01*
X67901472Y-56925971D01*
X67960106Y-56808680D01*
X68021527Y-56692382D01*
X68095158Y-56565227D01*
X68182697Y-56424462D01*
X68285842Y-56267338D01*
X68376603Y-56134000D01*
X68492706Y-55964936D01*
X68593620Y-55816393D01*
X68680794Y-55686093D01*
X68755677Y-55571761D01*
X68819717Y-55471119D01*
X68874363Y-55381890D01*
X68921062Y-55301798D01*
X68961264Y-55228566D01*
X68996416Y-55159917D01*
X68996872Y-55158993D01*
X69049690Y-55051820D01*
X68989916Y-54963800D01*
X68898182Y-54837929D01*
X68787150Y-54700996D01*
X68661018Y-54557572D01*
X68523986Y-54412227D01*
X68380251Y-54269535D01*
X68234012Y-54134065D01*
X68201356Y-54105190D01*
X68055545Y-53977432D01*
X67947356Y-54034919D01*
X67885109Y-54069042D01*
X67811409Y-54111001D01*
X67738722Y-54153655D01*
X67712166Y-54169650D01*
X67679488Y-54189655D01*
X67647165Y-54209801D01*
X67612889Y-54231638D01*
X67574355Y-54256713D01*
X67529256Y-54286577D01*
X67475285Y-54322778D01*
X67410136Y-54366865D01*
X67331503Y-54420388D01*
X67237078Y-54484895D01*
X67124556Y-54561934D01*
X66991629Y-54653057D01*
X66957222Y-54676654D01*
X66832792Y-54760766D01*
X66710413Y-54841173D01*
X66592626Y-54916370D01*
X66481969Y-54984848D01*
X66380983Y-55045103D01*
X66292208Y-55095628D01*
X66218183Y-55134916D01*
X66161449Y-55161462D01*
X66124545Y-55173758D01*
X66117869Y-55174444D01*
X66095984Y-55167696D01*
X66056896Y-55149666D01*
X66007556Y-55123673D01*
X65985402Y-55111153D01*
X65898803Y-55063324D01*
X65803002Y-55014700D01*
X65694876Y-54963896D01*
X65571304Y-54909523D01*
X65429167Y-54850194D01*
X65265343Y-54784522D01*
X65143944Y-54737077D01*
X64953981Y-54662302D01*
X64788023Y-54594409D01*
X64643080Y-54532051D01*
X64516159Y-54473880D01*
X64404270Y-54418549D01*
X64304422Y-54364710D01*
X64258512Y-54338185D01*
X64202449Y-54304518D01*
X64164827Y-54278925D01*
X64139734Y-54255215D01*
X64121258Y-54227200D01*
X64103487Y-54188691D01*
X64094010Y-54165962D01*
X64060928Y-54081271D01*
X64030087Y-53991617D01*
X64000718Y-53893825D01*
X63972051Y-53784723D01*
X63943314Y-53661138D01*
X63913738Y-53519897D01*
X63882553Y-53357827D01*
X63848989Y-53171757D01*
X63839520Y-53117574D01*
X63805466Y-52925826D01*
X63774412Y-52760390D01*
X63745923Y-52619563D01*
X63719561Y-52501646D01*
X63694888Y-52404938D01*
X63671469Y-52327737D01*
X63648865Y-52268343D01*
X63626640Y-52225055D01*
X63604357Y-52196172D01*
X63602236Y-52194129D01*
X63564378Y-52162182D01*
X63523620Y-52136077D01*
X63476779Y-52115249D01*
X63420672Y-52099135D01*
X63352115Y-52087172D01*
X63267926Y-52078795D01*
X63164920Y-52073440D01*
X63039915Y-52070545D01*
X62898778Y-52069561D01*
X62747413Y-52070010D01*
X62620477Y-52072192D01*
X62514215Y-52076405D01*
X62424871Y-52082945D01*
X62348688Y-52092108D01*
X62281911Y-52104191D01*
X62220784Y-52119489D01*
X62204219Y-52124375D01*
X62157416Y-52140479D01*
X62128510Y-52158135D01*
X62107878Y-52185154D01*
X62092681Y-52214926D01*
X62070668Y-52267168D01*
X62050144Y-52329343D01*
X62030382Y-52404707D01*
X62010654Y-52496515D01*
X61990234Y-52608025D01*
X61968394Y-52742493D01*
X61954774Y-52832393D01*
X61938437Y-52936897D01*
X61920572Y-53041670D01*
X61902381Y-53140293D01*
X61885069Y-53226344D01*
X61869839Y-53293404D01*
X61864616Y-53313411D01*
X61849727Y-53368207D01*
X61837355Y-53416828D01*
X61826416Y-53464751D01*
X61815822Y-53517455D01*
X61804487Y-53580416D01*
X61791325Y-53659114D01*
X61775250Y-53759026D01*
X61771198Y-53784500D01*
X61747436Y-53917109D01*
X61721496Y-54025827D01*
X61691823Y-54114979D01*
X61656864Y-54188888D01*
X61615064Y-54251880D01*
X61594039Y-54277327D01*
X61567973Y-54305020D01*
X61540078Y-54329168D01*
X61506207Y-54352031D01*
X61462216Y-54375870D01*
X61403957Y-54402944D01*
X61327286Y-54435513D01*
X61235153Y-54472986D01*
X61164352Y-54502046D01*
X61073255Y-54540334D01*
X60967307Y-54585511D01*
X60851954Y-54635239D01*
X60732640Y-54687176D01*
X60614812Y-54738985D01*
X60577039Y-54755718D01*
X60379631Y-54842755D01*
X60206746Y-54917688D01*
X60057568Y-54980843D01*
X59931278Y-55032541D01*
X59827062Y-55073106D01*
X59744101Y-55102862D01*
X59681579Y-55122132D01*
X59638680Y-55131239D01*
X59626241Y-55132111D01*
X59599373Y-55125292D01*
X59552452Y-55106306D01*
X59489716Y-55077360D01*
X59415402Y-55040660D01*
X59333744Y-54998412D01*
X59248979Y-54952823D01*
X59165344Y-54906100D01*
X59087075Y-54860449D01*
X59018408Y-54818077D01*
X58998555Y-54805175D01*
X58939966Y-54765671D01*
X58864249Y-54713381D01*
X58777007Y-54652243D01*
X58683842Y-54586197D01*
X58590357Y-54519184D01*
X58539944Y-54482694D01*
X58408618Y-54387676D01*
X58296492Y-54307535D01*
X58200310Y-54240059D01*
X58116811Y-54183035D01*
X58042739Y-54134251D01*
X57974835Y-54091493D01*
X57909840Y-54052549D01*
X57887323Y-54039495D01*
X57770925Y-53972550D01*
X57678998Y-54023959D01*
X57554162Y-54102355D01*
X57422962Y-54201721D01*
X57284471Y-54322943D01*
X57137762Y-54466905D01*
X56981906Y-54634492D01*
X56815977Y-54826589D01*
X56735525Y-54924025D01*
X56680883Y-54991060D01*
X56712182Y-55065113D01*
X56756459Y-55160720D01*
X56815409Y-55272460D01*
X56889578Y-55401218D01*
X56979512Y-55547879D01*
X57085758Y-55713329D01*
X57208862Y-55898453D01*
X57349370Y-56104136D01*
X57387074Y-56158575D01*
X57455167Y-56256961D01*
X57522622Y-56355001D01*
X57586504Y-56448388D01*
X57643880Y-56532816D01*
X57691814Y-56603977D01*
X57727372Y-56657563D01*
X57734973Y-56669236D01*
X57825766Y-56809598D01*
X57722374Y-57075049D01*
X57678489Y-57186945D01*
X57635472Y-57294864D01*
X57591894Y-57402166D01*
X57546330Y-57512214D01*
X57497351Y-57628368D01*
X57443530Y-57753991D01*
X57383441Y-57892444D01*
X57315656Y-58047088D01*
X57238748Y-58221285D01*
X57167821Y-58381194D01*
X56906098Y-58970333D01*
X56812854Y-58997775D01*
X56724669Y-59022776D01*
X56630321Y-59047536D01*
X56527142Y-59072624D01*
X56412463Y-59098604D01*
X56283616Y-59126042D01*
X56137934Y-59155505D01*
X55972747Y-59187558D01*
X55785389Y-59222768D01*
X55573190Y-59261699D01*
X55541333Y-59267482D01*
X55365849Y-59299774D01*
X55217125Y-59328208D01*
X55094000Y-59353052D01*
X54995314Y-59374577D01*
X54919908Y-59393050D01*
X54866622Y-59408740D01*
X54834296Y-59421917D01*
X54821769Y-59432849D01*
X54821525Y-59434401D01*
X54819858Y-59456453D01*
X54815401Y-59500444D01*
X54808805Y-59560299D01*
X54800720Y-59629944D01*
X54799449Y-59640611D01*
X54792354Y-59712259D01*
X54785441Y-59804406D01*
X54779165Y-59909331D01*
X54773980Y-60019310D01*
X54770339Y-60126623D01*
X54769966Y-60141555D01*
X54767900Y-60286611D01*
X54276328Y-60286611D01*
X54273848Y-60122989D01*
X54271720Y-59959309D01*
X54270045Y-59802877D01*
X54268866Y-59657043D01*
X54268225Y-59525152D01*
X54268166Y-59410554D01*
X54268729Y-59316595D01*
X54269959Y-59246623D01*
X54270398Y-59232657D01*
X54278388Y-59008148D01*
X54377166Y-58974639D01*
X54457841Y-58948706D01*
X54546682Y-58923075D01*
X54646321Y-58897161D01*
X54759392Y-58870377D01*
X54888529Y-58842137D01*
X55036364Y-58811853D01*
X55205531Y-58778940D01*
X55398663Y-58742810D01*
X55505715Y-58723232D01*
X55707170Y-58685557D01*
X55883629Y-58650191D01*
X56038158Y-58616445D01*
X56173824Y-58583627D01*
X56293691Y-58551045D01*
X56365199Y-58529474D01*
X56504676Y-58485578D01*
X56587588Y-58359311D01*
X56661016Y-58237855D01*
X56738354Y-58091065D01*
X56819911Y-57918292D01*
X56905998Y-57718888D01*
X56973447Y-57552166D01*
X57013784Y-57450810D01*
X57056166Y-57345781D01*
X57097720Y-57244100D01*
X57135572Y-57152783D01*
X57166850Y-57078850D01*
X57173818Y-57062727D01*
X57251660Y-56883733D01*
X57113470Y-56681727D01*
X57062881Y-56608105D01*
X57000860Y-56518358D01*
X56932228Y-56419434D01*
X56861808Y-56318280D01*
X56794421Y-56221842D01*
X56777362Y-56197500D01*
X56712712Y-56104709D01*
X56641976Y-56002128D01*
X56567051Y-55892595D01*
X56489838Y-55778953D01*
X56412232Y-55664042D01*
X56336134Y-55550704D01*
X56263440Y-55441779D01*
X56196050Y-55340109D01*
X56135861Y-55248535D01*
X56084772Y-55169897D01*
X56044681Y-55107037D01*
X56017486Y-55062796D01*
X56007816Y-55045736D01*
X55973701Y-54980529D01*
X56028323Y-54904625D01*
X56106322Y-54802158D01*
X56195496Y-54696637D01*
X56299055Y-54584549D01*
X56420211Y-54462379D01*
X56521258Y-54365145D01*
X56651507Y-54241546D01*
X56762842Y-54135249D01*
X56857091Y-54044420D01*
X56936083Y-53967226D01*
X57001647Y-53901833D01*
X57055612Y-53846406D01*
X57099806Y-53799111D01*
X57136059Y-53758115D01*
X57166199Y-53721584D01*
X57177660Y-53706889D01*
X57257541Y-53611033D01*
X57341822Y-53524795D01*
X57425378Y-53452869D01*
X57503082Y-53399951D01*
X57526228Y-53387625D01*
X57606949Y-53358780D01*
X57699117Y-53342692D01*
X57791322Y-53340465D01*
X57872153Y-53353202D01*
X57874581Y-53353916D01*
X57950689Y-53386546D01*
X58032861Y-53438748D01*
X58113502Y-53505400D01*
X58144833Y-53536206D01*
X58196287Y-53583758D01*
X58256673Y-53631319D01*
X58300055Y-53660507D01*
X58375246Y-53708707D01*
X58468537Y-53773211D01*
X58576781Y-53851746D01*
X58696831Y-53942042D01*
X58793944Y-54017068D01*
X58937398Y-54126660D01*
X59064306Y-54217946D01*
X59177941Y-54292711D01*
X59281577Y-54352742D01*
X59378486Y-54399824D01*
X59471942Y-54435744D01*
X59565218Y-54462288D01*
X59637049Y-54477120D01*
X59746376Y-54496469D01*
X60039216Y-54399822D01*
X60246072Y-54329157D01*
X60429113Y-54261270D01*
X60592376Y-54194385D01*
X60739897Y-54126730D01*
X60875714Y-54056530D01*
X61003863Y-53982012D01*
X61036566Y-53961621D01*
X61090107Y-53926833D01*
X61125840Y-53899461D01*
X61150215Y-53872500D01*
X61169683Y-53838945D01*
X61188749Y-53796364D01*
X61240589Y-53660086D01*
X61290326Y-53499012D01*
X61338118Y-53312475D01*
X61384119Y-53099804D01*
X61428487Y-52860333D01*
X61471377Y-52593391D01*
X61474731Y-52570944D01*
X61505270Y-52370047D01*
X61534133Y-52189230D01*
X61561021Y-52030227D01*
X61585636Y-51894772D01*
X61607677Y-51784599D01*
X61619547Y-51731333D01*
X61632732Y-51677698D01*
X61644697Y-51643914D01*
X61660610Y-51622344D01*
X61685635Y-51605347D01*
X61714944Y-51590281D01*
X61749059Y-51574688D01*
X61781524Y-51564500D01*
X61819689Y-51558615D01*
X61870907Y-51555929D01*
X61942527Y-51555340D01*
X61947777Y-51555348D01*
X61947777Y-51555348D01*
G37*
X61947777Y-51555348D02*
X62001860Y-51555412D01*
X62079351Y-51555459D01*
X62175438Y-51555490D01*
X62285307Y-51555502D01*
X62404145Y-51555497D01*
X62527139Y-51555472D01*
X62596888Y-51555448D01*
X62797713Y-51555374D01*
X62972369Y-51555344D01*
X63122909Y-51555399D01*
X63251389Y-51555583D01*
X63359861Y-51555937D01*
X63450379Y-51556506D01*
X63524996Y-51557330D01*
X63585767Y-51558453D01*
X63634745Y-51559917D01*
X63673984Y-51561764D01*
X63705536Y-51564038D01*
X63731457Y-51566781D01*
X63753799Y-51570034D01*
X63774616Y-51573842D01*
X63795963Y-51578246D01*
X63806633Y-51580507D01*
X63873484Y-51596366D01*
X63941288Y-51615231D01*
X63996367Y-51633270D01*
X64000645Y-51634879D01*
X64041846Y-51651534D01*
X64067197Y-51667415D01*
X64083432Y-51690374D01*
X64097286Y-51728264D01*
X64106232Y-51757980D01*
X64133302Y-51851039D01*
X64158270Y-51941451D01*
X64181881Y-52032637D01*
X64204880Y-52128021D01*
X64228012Y-52231025D01*
X64252025Y-52345072D01*
X64277662Y-52473584D01*
X64305669Y-52619984D01*
X64336793Y-52787694D01*
X64368526Y-52962127D01*
X64391705Y-53089274D01*
X64415321Y-53216719D01*
X64438441Y-53339568D01*
X64460129Y-53452926D01*
X64479452Y-53551895D01*
X64495474Y-53631582D01*
X64504632Y-53675147D01*
X64548253Y-53876238D01*
X64640220Y-53934320D01*
X64707088Y-53975283D01*
X64775293Y-54014183D01*
X64847575Y-54052197D01*
X64926676Y-54090504D01*
X65015337Y-54130280D01*
X65116300Y-54172703D01*
X65232307Y-54218951D01*
X65366098Y-54270202D01*
X65520415Y-54327631D01*
X65698000Y-54392418D01*
X65753352Y-54412429D01*
X66108761Y-54540703D01*
X66210790Y-54489322D01*
X66278934Y-54453466D01*
X66354329Y-54410655D01*
X66439855Y-54359092D01*
X66538396Y-54296982D01*
X66652832Y-54222532D01*
X66786047Y-54133945D01*
X66844333Y-54094759D01*
X66926281Y-54039977D01*
X67004164Y-53988751D01*
X67073705Y-53943828D01*
X67130630Y-53907956D01*
X67170662Y-53883884D01*
X67183000Y-53877134D01*
X67229598Y-53851362D01*
X67280583Y-53818451D01*
X67339606Y-53775699D01*
X67410319Y-53720407D01*
X67496375Y-53649872D01*
X67542512Y-53611232D01*
X67659545Y-53515768D01*
X67759828Y-53440682D01*
X67844945Y-53384896D01*
X67916481Y-53347330D01*
X67949020Y-53334577D01*
X68016330Y-53318897D01*
X68088974Y-53313177D01*
X68156005Y-53317613D01*
X68201607Y-53330053D01*
X68223045Y-53345124D01*
X68262077Y-53378222D01*
X68316539Y-53427220D01*
X68384269Y-53489991D01*
X68463101Y-53564410D01*
X68550872Y-53648350D01*
X68645420Y-53739685D01*
X68744579Y-53836288D01*
X68846186Y-53936034D01*
X68948078Y-54036796D01*
X69048091Y-54136447D01*
X69144061Y-54232862D01*
X69233824Y-54323914D01*
X69315217Y-54407477D01*
X69386077Y-54481425D01*
X69444239Y-54543630D01*
X69487539Y-54591968D01*
X69496887Y-54602944D01*
X69550764Y-54669003D01*
X69604362Y-54737833D01*
X69654741Y-54805314D01*
X69698966Y-54867331D01*
X69734097Y-54919764D01*
X69757197Y-54958497D01*
X69765333Y-54979212D01*
X69757470Y-55001579D01*
X69734537Y-55045591D01*
X69697517Y-55109682D01*
X69647393Y-55192285D01*
X69585148Y-55291836D01*
X69511766Y-55406767D01*
X69428229Y-55535512D01*
X69335521Y-55676504D01*
X69234624Y-55828179D01*
X69199906Y-55880000D01*
X69125827Y-55990469D01*
X69052520Y-56099948D01*
X68982436Y-56204763D01*
X68918028Y-56301241D01*
X68861746Y-56385711D01*
X68816042Y-56454499D01*
X68783368Y-56503933D01*
X68780732Y-56507944D01*
X68738966Y-56571101D01*
X68699386Y-56630162D01*
X68666306Y-56678737D01*
X68644043Y-56710434D01*
X68643139Y-56711669D01*
X68600788Y-56789948D01*
X68575774Y-56880992D01*
X68571003Y-56973311D01*
X68572667Y-56990390D01*
X68582006Y-57046316D01*
X68597141Y-57104495D01*
X68619943Y-57170151D01*
X68652282Y-57248509D01*
X68696027Y-57344793D01*
X68710622Y-57375777D01*
X68744081Y-57449641D01*
X68782717Y-57540096D01*
X68822364Y-57637103D01*
X68858858Y-57730622D01*
X68868673Y-57756777D01*
X68936575Y-57931055D01*
X69001800Y-58079599D01*
X69065760Y-58204603D01*
X69129865Y-58308258D01*
X69195525Y-58392756D01*
X69264152Y-58460289D01*
X69337156Y-58513049D01*
X69365965Y-58529481D01*
X69416834Y-58551074D01*
X69492747Y-58575575D01*
X69590754Y-58602315D01*
X69707903Y-58630623D01*
X69841243Y-58659827D01*
X69987825Y-58689258D01*
X70144698Y-58718244D01*
X70308911Y-58746116D01*
X70343888Y-58751739D01*
X70541877Y-58784210D01*
X70714773Y-58814748D01*
X70865585Y-58844054D01*
X70997317Y-58872832D01*
X71112979Y-58901784D01*
X71215576Y-58931612D01*
X71308115Y-58963019D01*
X71393602Y-58996708D01*
X71395166Y-58997370D01*
X71493944Y-59039222D01*
X71498351Y-59819694D01*
X71499033Y-59981076D01*
X71499310Y-60146457D01*
X71499201Y-60311333D01*
X71498726Y-60471205D01*
X71497905Y-60621568D01*
X71496756Y-60757921D01*
X71495301Y-60875763D01*
X71493559Y-60970591D01*
X71493262Y-60983062D01*
X71483765Y-61365958D01*
X71312466Y-61416476D01*
X71209613Y-61446033D01*
X71109020Y-61473166D01*
X71006823Y-61498698D01*
X70899157Y-61523457D01*
X70782158Y-61548266D01*
X70651961Y-61573952D01*
X70504703Y-61601340D01*
X70336518Y-61631255D01*
X70181611Y-61658022D01*
X70013090Y-61687238D01*
X69869145Y-61713065D01*
X69746420Y-61736153D01*
X69641559Y-61757150D01*
X69551205Y-61776706D01*
X69476055Y-61794466D01*
X69394853Y-61814354D01*
X69336181Y-61829396D01*
X69295409Y-61842412D01*
X69267908Y-61856224D01*
X69249046Y-61873651D01*
X69234194Y-61897516D01*
X69218721Y-61930639D01*
X69205852Y-61959090D01*
X69158139Y-62066504D01*
X69103697Y-62195993D01*
X69044427Y-62342766D01*
X68982232Y-62502027D01*
X68919015Y-62668985D01*
X68856678Y-62838844D01*
X68856479Y-62839394D01*
X68821186Y-62935763D01*
X68786422Y-63028118D01*
X68754105Y-63111557D01*
X68726151Y-63181177D01*
X68704478Y-63232075D01*
X68695146Y-63251867D01*
X68660760Y-63333787D01*
X68642712Y-63415543D01*
X68641700Y-63500016D01*
X68658421Y-63590085D01*
X68693572Y-63688632D01*
X68747851Y-63798537D01*
X68821953Y-63922680D01*
X68878185Y-64008101D01*
X68928588Y-64083585D01*
X68981040Y-64163926D01*
X69029794Y-64240215D01*
X69069101Y-64303543D01*
X69073836Y-64311389D01*
X69113796Y-64376633D01*
X69154349Y-64439786D01*
X69198936Y-64505842D01*
X69250994Y-64579795D01*
X69313962Y-64666639D01*
X69380702Y-64757118D01*
X69499152Y-64923788D01*
X69595669Y-65074714D01*
X69670081Y-65209591D01*
X69722221Y-65328117D01*
X69749181Y-65417021D01*
X69762683Y-65477116D01*
X69585647Y-65677419D01*
X69336039Y-65953997D01*
X69096487Y-66207580D01*
X68867464Y-66437704D01*
X68649445Y-66643910D01*
X68442901Y-66825736D01*
X68248307Y-66982722D01*
X68237628Y-66990879D01*
X68128570Y-67073926D01*
X68054443Y-67043120D01*
X67986206Y-67011301D01*
X67899543Y-66965405D01*
X67798817Y-66908000D01*
X67688393Y-66841656D01*
X67572633Y-66768940D01*
X67455902Y-66692421D01*
X67437000Y-66679709D01*
X67263232Y-66562220D01*
X67111768Y-66459397D01*
X66981352Y-66370361D01*
X66870730Y-66294235D01*
X66778650Y-66230141D01*
X66703855Y-66177201D01*
X66645093Y-66134538D01*
X66601110Y-66101275D01*
X66570651Y-66076532D01*
X66555951Y-66063064D01*
X66477494Y-66001070D01*
X66391511Y-65965700D01*
X66306792Y-65955643D01*
X66257042Y-65958233D01*
X66205273Y-65967434D01*
X66147024Y-65984801D01*
X66077832Y-66011889D01*
X65993233Y-66050252D01*
X65889833Y-66100911D01*
X65778651Y-66154993D01*
X65687020Y-66195489D01*
X65610627Y-66223880D01*
X65545160Y-66241645D01*
X65486304Y-66250265D01*
X65450626Y-66251666D01*
X65368363Y-66251666D01*
X65286900Y-66114083D01*
X65234912Y-66023808D01*
X65184374Y-65930573D01*
X65133955Y-65831430D01*
X65082322Y-65723429D01*
X65028143Y-65603623D01*
X64970086Y-65469062D01*
X64906819Y-65316800D01*
X64837010Y-65143886D01*
X64759328Y-64947373D01*
X64756176Y-64939333D01*
X64712758Y-64829308D01*
X64668116Y-64717560D01*
X64624545Y-64609734D01*
X64584338Y-64511475D01*
X64549791Y-64428428D01*
X64523894Y-64367833D01*
X64489333Y-64287317D01*
X64453969Y-64202423D01*
X64421877Y-64123078D01*
X64397133Y-64059208D01*
X64396455Y-64057389D01*
X64367688Y-63981350D01*
X64338792Y-63908104D01*
X64307443Y-63832152D01*
X64271317Y-63747995D01*
X64228090Y-63650134D01*
X64175439Y-63533069D01*
X64166855Y-63514111D01*
X64106296Y-63379551D01*
X64056107Y-63265795D01*
X64014398Y-63168229D01*
X63979279Y-63082236D01*
X63948860Y-63003200D01*
X63921251Y-62926507D01*
X63897284Y-62855791D01*
X63876845Y-62789882D01*
X63856447Y-62716976D01*
X63837272Y-62642255D01*
X63820503Y-62570902D01*
X63807325Y-62508101D01*
X63798920Y-62459035D01*
X63796472Y-62428886D01*
X63798257Y-62422103D01*
X63811512Y-62413303D01*
X63843386Y-62392570D01*
X63888753Y-62363228D01*
X63930388Y-62336389D01*
X64148191Y-62182354D01*
X64350095Y-62011700D01*
X64534441Y-61826682D01*
X64699567Y-61629557D01*
X64843813Y-61422579D01*
X64965520Y-61208005D01*
X65063025Y-60988089D01*
X65134668Y-60765087D01*
X65156715Y-60670722D01*
X65181025Y-60517423D01*
X65195296Y-60346136D01*
X65199519Y-60165250D01*
X65193688Y-59983156D01*
X65177794Y-59808245D01*
X65157606Y-59677945D01*
X65101409Y-59456413D01*
X65018692Y-59240955D01*
X64910910Y-59033913D01*
X64779516Y-58837629D01*
X64625966Y-58654445D01*
X64451712Y-58486703D01*
X64381944Y-58428752D01*
X64163633Y-58270444D01*
X63939704Y-58139592D01*
X63709004Y-58035783D01*
X63470381Y-57958608D01*
X63222685Y-57907653D01*
X62964764Y-57882509D01*
X62843833Y-57879501D01*
X62749400Y-57879691D01*
X62674430Y-57881526D01*
X62610173Y-57885860D01*
X62547880Y-57893546D01*
X62478804Y-57905438D01*
X62394194Y-57922387D01*
X62385444Y-57924205D01*
X62297971Y-57943478D01*
X62208626Y-57964996D01*
X62126339Y-57986493D01*
X62060039Y-58005701D01*
X62043914Y-58010909D01*
X61832364Y-58096448D01*
X61632019Y-58206713D01*
X61444277Y-58339967D01*
X61270533Y-58494476D01*
X61112183Y-58668501D01*
X60970625Y-58860306D01*
X60847253Y-59068155D01*
X60743465Y-59290312D01*
X60660657Y-59525041D01*
X60600224Y-59770603D01*
X60591623Y-59817000D01*
X60585362Y-59861745D01*
X60578442Y-59926044D01*
X60571707Y-60001268D01*
X60566050Y-60078055D01*
X60561505Y-60291588D01*
X60576687Y-60501231D01*
X60612452Y-60713079D01*
X60669654Y-60933229D01*
X60698972Y-61025709D01*
X60736035Y-61133006D01*
X60770089Y-61220520D01*
X60804735Y-61295905D01*
X60843575Y-61366814D01*
X60890210Y-61440900D01*
X60904215Y-61461862D01*
X60949554Y-61525602D01*
X61000922Y-61590609D01*
X61060597Y-61659215D01*
X61130853Y-61733755D01*
X61213966Y-61816562D01*
X61312213Y-61909968D01*
X61427870Y-62016308D01*
X61563212Y-62137913D01*
X61566777Y-62141089D01*
X61635939Y-62203511D01*
X61707068Y-62269140D01*
X61773362Y-62331606D01*
X61828016Y-62384539D01*
X61845699Y-62402229D01*
X61948232Y-62506288D01*
X61850752Y-62795005D01*
X61807908Y-62920533D01*
X61765427Y-63041921D01*
X61722196Y-63161995D01*
X61677098Y-63283579D01*
X61629017Y-63409499D01*
X61576838Y-63542580D01*
X61519445Y-63685646D01*
X61455722Y-63841523D01*
X61384554Y-64013035D01*
X61304826Y-64203009D01*
X61215420Y-64414268D01*
X61157153Y-64551277D01*
X61101835Y-64681526D01*
X61044901Y-64816241D01*
X60988473Y-64950358D01*
X60934672Y-65078814D01*
X60885620Y-65196542D01*
X60843436Y-65298480D01*
X60810244Y-65379562D01*
X60810137Y-65379824D01*
X60774110Y-65467689D01*
X60739963Y-65549281D01*
X60709653Y-65620060D01*
X60685134Y-65675484D01*
X60668361Y-65711009D01*
X60664342Y-65718490D01*
X60649889Y-65748807D01*
X60629247Y-65799530D01*
X60604907Y-65864208D01*
X60579359Y-65936392D01*
X60572913Y-65955333D01*
X60532510Y-66066809D01*
X60494763Y-66152788D01*
X60458325Y-66215708D01*
X60421846Y-66258007D01*
X60394973Y-66276972D01*
X60349129Y-66288772D01*
X60278028Y-66288651D01*
X60270679Y-66288081D01*
X60222265Y-66281646D01*
X60173826Y-66269238D01*
X60120983Y-66248864D01*
X60059361Y-66218530D01*
X59984580Y-66176244D01*
X59892263Y-66120011D01*
X59867184Y-66104327D01*
X59777807Y-66049464D01*
X59706597Y-66009108D01*
X59648845Y-65981237D01*
X59599844Y-65963827D01*
X59554887Y-65954855D01*
X59513470Y-65952317D01*
X59482311Y-65953180D01*
X59453407Y-65957802D01*
X59421546Y-65968310D01*
X59381519Y-65986835D01*
X59328113Y-66015504D01*
X59256118Y-66056448D01*
X59250036Y-66059950D01*
X59179903Y-66102035D01*
X59093882Y-66156272D01*
X58998866Y-66218158D01*
X58901751Y-66283192D01*
X58809433Y-66346870D01*
X58793944Y-66357779D01*
X58613629Y-66484411D01*
X58453772Y-66594843D01*
X58312568Y-66690221D01*
X58188213Y-66771692D01*
X58078901Y-66840403D01*
X57982829Y-66897498D01*
X57898190Y-66944124D01*
X57823182Y-66981428D01*
X57785000Y-66998549D01*
X57729966Y-67022970D01*
X57688654Y-67040784D01*
X57656339Y-67050596D01*
X57628296Y-67051011D01*
X57599799Y-67040635D01*
X57566123Y-67018074D01*
X57522543Y-66981932D01*
X57464334Y-66930816D01*
X57417927Y-66890212D01*
X57352889Y-66832338D01*
X57275782Y-66761350D01*
X57188544Y-66679204D01*
X57093111Y-66587856D01*
X56991421Y-66489262D01*
X56885411Y-66385376D01*
X56777019Y-66278155D01*
X56668181Y-66169554D01*
X56560836Y-66061529D01*
X56456920Y-65956036D01*
X56358371Y-65855029D01*
X56267125Y-65760465D01*
X56185121Y-65674300D01*
X56114296Y-65598488D01*
X56056587Y-65534986D01*
X56013930Y-65485749D01*
X55988265Y-65452732D01*
X55981395Y-65440107D01*
X55985866Y-65416703D01*
X56003341Y-65373418D01*
X56031701Y-65314202D01*
X56068826Y-65243003D01*
X56112599Y-65163771D01*
X56160901Y-65080453D01*
X56211614Y-64997000D01*
X56258443Y-64923701D01*
X56306119Y-64852392D01*
X56365569Y-64765471D01*
X56431845Y-64670059D01*
X56499997Y-64573279D01*
X56565074Y-64482250D01*
X56571273Y-64473666D01*
X56636797Y-64382246D01*
X56706884Y-64283095D01*
X56776300Y-64183711D01*
X56839809Y-64091591D01*
X56892178Y-64014235D01*
X56895038Y-64009946D01*
X56942616Y-63938565D01*
X56987644Y-63871074D01*
X57026558Y-63812809D01*
X57055796Y-63769106D01*
X57068247Y-63750554D01*
X57101602Y-63691431D01*
X57122364Y-63629359D01*
X57130164Y-63561143D01*
X57124635Y-63483591D01*
X57105407Y-63393507D01*
X57072111Y-63287700D01*
X57024379Y-63162975D01*
X56991225Y-63083722D01*
X56956443Y-63000570D01*
X56921202Y-62913019D01*
X56889230Y-62830538D01*
X56864255Y-62762593D01*
X56860610Y-62752111D01*
X56825031Y-62650138D01*
X56786842Y-62543547D01*
X56747713Y-62436739D01*
X56709310Y-62334118D01*
X56673303Y-62240086D01*
X56641359Y-62159048D01*
X56615146Y-62095406D01*
X56596332Y-62053562D01*
X56594849Y-62050604D01*
X56534110Y-61952221D01*
X56463594Y-61878960D01*
X56380176Y-61828518D01*
X56280730Y-61798588D01*
X56245526Y-61793032D01*
X56181257Y-61782959D01*
X56116530Y-61769971D01*
X56069461Y-61758019D01*
X56006029Y-61740802D01*
X55924349Y-61721941D01*
X55822480Y-61701056D01*
X55698481Y-61677769D01*
X55550410Y-61651699D01*
X55376327Y-61622468D01*
X55372000Y-61621755D01*
X55176395Y-61588551D01*
X55005824Y-61557327D01*
X54857230Y-61527352D01*
X54727557Y-61497893D01*
X54613746Y-61468218D01*
X54512740Y-61437596D01*
X54421482Y-61405293D01*
X54354041Y-61378007D01*
X54302693Y-61356043D01*
X54293755Y-61069827D01*
X54289800Y-60932955D01*
X54286044Y-60783245D01*
X54282528Y-60624046D01*
X54279295Y-60458705D01*
X54276387Y-60290570D01*
X54276328Y-60286611D01*
X54767900Y-60286611D01*
X54769564Y-60409383D01*
X54775475Y-60515627D01*
X54786151Y-60611098D01*
X54802107Y-60701551D01*
X54823860Y-60792742D01*
X54830710Y-60817930D01*
X54853585Y-60900209D01*
X54989320Y-60951278D01*
X55087905Y-60986889D01*
X55186365Y-61019135D01*
X55288292Y-61048837D01*
X55397278Y-61076817D01*
X55516917Y-61103896D01*
X55650800Y-61130894D01*
X55802522Y-61158633D01*
X55975675Y-61187934D01*
X56141055Y-61214471D01*
X56240341Y-61230439D01*
X56343737Y-61247667D01*
X56447407Y-61265456D01*
X56547515Y-61283106D01*
X56640222Y-61299919D01*
X56721694Y-61315196D01*
X56788093Y-61328236D01*
X56835583Y-61338340D01*
X56860327Y-61344810D01*
X56862849Y-61346030D01*
X56871539Y-61362498D01*
X56889016Y-61402530D01*
X56914151Y-61463263D01*
X56945817Y-61541838D01*
X56982885Y-61635394D01*
X57024229Y-61741069D01*
X57068719Y-61856003D01*
X57115229Y-61977335D01*
X57162630Y-62102205D01*
X57197437Y-62194722D01*
X57270105Y-62387290D01*
X57335259Y-62556697D01*
X57394452Y-62706511D01*
X57449235Y-62840296D01*
X57501159Y-62961621D01*
X57551777Y-63074050D01*
X57602640Y-63181151D01*
X57655299Y-63286489D01*
X57711307Y-63393632D01*
X57751623Y-63468468D01*
X57792055Y-63542770D01*
X57730192Y-63658968D01*
X57701475Y-63712138D01*
X57672432Y-63764027D01*
X57641279Y-63817448D01*
X57606233Y-63875217D01*
X57565512Y-63940145D01*
X57517332Y-64015047D01*
X57459912Y-64102736D01*
X57391467Y-64206026D01*
X57310216Y-64327731D01*
X57240776Y-64431333D01*
X57145448Y-64573836D01*
X57064339Y-64696189D01*
X56995574Y-64801422D01*
X56937276Y-64892566D01*
X56887568Y-64972654D01*
X56844573Y-65044716D01*
X56806416Y-65111784D01*
X56771220Y-65176889D01*
X56737108Y-65243062D01*
X56731984Y-65253237D01*
X56667759Y-65381116D01*
X56954741Y-65669564D01*
X57044697Y-65759420D01*
X57143142Y-65856794D01*
X57244007Y-65955750D01*
X57341225Y-66050350D01*
X57428729Y-66134658D01*
X57478075Y-66181649D01*
X57714429Y-66405287D01*
X57866131Y-66318603D01*
X57909483Y-66292650D01*
X57973050Y-66252948D01*
X58053667Y-66201548D01*
X58148165Y-66140507D01*
X58253378Y-66071876D01*
X58366141Y-65997711D01*
X58483285Y-65920065D01*
X58575222Y-65858701D01*
X58690666Y-65780948D01*
X58801399Y-65705505D01*
X58904676Y-65634302D01*
X58997757Y-65569268D01*
X59077898Y-65512331D01*
X59142358Y-65465419D01*
X59188395Y-65430463D01*
X59211296Y-65411304D01*
X59289266Y-65350115D01*
X59365945Y-65315605D01*
X59432917Y-65306301D01*
X59480925Y-65313652D01*
X59547394Y-65334558D01*
X59627230Y-65367026D01*
X59715343Y-65409063D01*
X59771438Y-65438805D01*
X59852646Y-65481420D01*
X59928668Y-65517364D01*
X59995448Y-65545059D01*
X60048930Y-65562927D01*
X60085059Y-65569393D01*
X60098256Y-65565889D01*
X60111988Y-65545525D01*
X60135925Y-65504346D01*
X60167706Y-65446811D01*
X60204971Y-65377378D01*
X60245362Y-65300503D01*
X60286517Y-65220646D01*
X60326078Y-65142262D01*
X60361686Y-65069811D01*
X60369803Y-65052917D01*
X60424583Y-64937073D01*
X60476864Y-64823768D01*
X60527670Y-64710439D01*
X60578027Y-64594522D01*
X60628961Y-64473451D01*
X60681496Y-64344663D01*
X60736658Y-64205593D01*
X60795473Y-64053677D01*
X60858965Y-63886352D01*
X60928161Y-63701052D01*
X61004085Y-63495214D01*
X61087763Y-63266272D01*
X61123368Y-63168389D01*
X61297683Y-62688611D01*
X61237617Y-62625111D01*
X61206835Y-62592667D01*
X61161557Y-62545071D01*
X61106785Y-62487574D01*
X61047521Y-62425428D01*
X61015858Y-62392254D01*
X60809842Y-62165966D01*
X60630059Y-61945454D01*
X60475603Y-61728747D01*
X60345572Y-61513869D01*
X60239060Y-61298849D01*
X60155163Y-61081712D01*
X60092977Y-60860485D01*
X60051597Y-60633195D01*
X60030119Y-60397868D01*
X60026416Y-60233277D01*
X60033019Y-60017119D01*
X60052304Y-59817498D01*
X60085708Y-59625065D01*
X60134669Y-59430472D01*
X60165200Y-59330166D01*
X60264329Y-59064670D01*
X60386856Y-58814698D01*
X60533009Y-58579931D01*
X60703015Y-58360051D01*
X60897100Y-58154740D01*
X61115492Y-57963678D01*
X61168133Y-57922522D01*
X61399694Y-57762032D01*
X61640956Y-57627958D01*
X61892104Y-57520243D01*
X62153322Y-57438829D01*
X62424794Y-57383658D01*
X62706706Y-57354673D01*
X62998134Y-57351779D01*
X63281275Y-57373851D01*
X63551009Y-57420620D01*
X63808150Y-57492404D01*
X64053508Y-57589522D01*
X64287897Y-57712292D01*
X64512129Y-57861033D01*
X64713555Y-58024091D01*
X64877215Y-58174049D01*
X65018296Y-58315530D01*
X65139580Y-58452444D01*
X65243849Y-58588697D01*
X65333884Y-58728198D01*
X65412468Y-58874854D01*
X65482381Y-59032574D01*
X65539000Y-59183794D01*
X65571981Y-59282871D01*
X65598809Y-59374803D01*
X65620206Y-59464498D01*
X65636897Y-59556865D01*
X65649607Y-59656812D01*
X65659060Y-59769248D01*
X65665979Y-59899082D01*
X65671089Y-60051222D01*
X65671966Y-60085111D01*
X65674291Y-60199712D01*
X65675627Y-60313127D01*
X65675983Y-60420013D01*
X65675368Y-60515024D01*
X65673789Y-60592818D01*
X65671256Y-60648049D01*
X65671085Y-60650377D01*
X65649862Y-60827691D01*
X65612427Y-60999148D01*
X65556847Y-61171382D01*
X65481190Y-61351024D01*
X65445259Y-61425666D01*
X65384112Y-61543561D01*
X65319990Y-61656006D01*
X65250557Y-61766105D01*
X65173480Y-61876963D01*
X65086422Y-61991687D01*
X64987049Y-62113380D01*
X64873025Y-62245149D01*
X64742016Y-62390098D01*
X64626867Y-62513953D01*
X64446396Y-62706184D01*
X64578550Y-63064286D01*
X64713867Y-63422622D01*
X64861472Y-63798084D01*
X65018600Y-64183930D01*
X65182485Y-64573416D01*
X65350359Y-64959797D01*
X65424291Y-65126006D01*
X65464682Y-65216631D01*
X65500958Y-65298959D01*
X65531587Y-65369435D01*
X65555038Y-65424509D01*
X65569779Y-65460627D01*
X65574333Y-65474001D01*
X65584241Y-65490545D01*
X65609021Y-65515990D01*
X65619413Y-65525090D01*
X65646283Y-65544169D01*
X65674354Y-65554248D01*
X65707929Y-65554525D01*
X65751310Y-65544195D01*
X65808800Y-65522454D01*
X65884702Y-65488501D01*
X65930129Y-65467061D01*
X66098228Y-65386926D01*
X66241975Y-65394803D01*
X66335963Y-65403342D01*
X66426091Y-65419319D01*
X66515269Y-65444206D01*
X66606407Y-65479471D01*
X66702416Y-65526585D01*
X66806205Y-65587018D01*
X66920684Y-65662239D01*
X67048764Y-65753718D01*
X67193354Y-65862926D01*
X67239444Y-65898632D01*
X67385512Y-66010013D01*
X67514439Y-66103135D01*
X67629004Y-66179734D01*
X67731984Y-66241545D01*
X67826156Y-66290303D01*
X67914299Y-66327745D01*
X67942581Y-66337928D01*
X68017901Y-66363842D01*
X68090811Y-66326967D01*
X68156021Y-66291805D01*
X68219119Y-66252693D01*
X68282615Y-66207384D01*
X68349018Y-66153631D01*
X68420835Y-66089186D01*
X68500577Y-66011801D01*
X68590752Y-65919228D01*
X68693869Y-65809222D01*
X68807758Y-65684693D01*
X69059562Y-65406998D01*
X69012282Y-65296638D01*
X68970620Y-65202421D01*
X68927569Y-65111863D01*
X68881165Y-65021638D01*
X68829441Y-64928421D01*
X68770434Y-64828887D01*
X68702177Y-64719711D01*
X68622706Y-64597568D01*
X68530056Y-64459133D01*
X68434177Y-64318444D01*
X68366679Y-64219658D01*
X68298926Y-64119843D01*
X68234089Y-64023716D01*
X68175338Y-63935996D01*
X68125843Y-63861400D01*
X68088774Y-63804646D01*
X68084757Y-63798394D01*
X67982107Y-63638177D01*
X68029576Y-63502061D01*
X68060835Y-63416185D01*
X68101538Y-63310883D01*
X68152169Y-63184971D01*
X68213213Y-63037266D01*
X68285153Y-62866586D01*
X68368473Y-62671748D01*
X68385515Y-62632166D01*
X68467789Y-62437984D01*
X68537914Y-62264957D01*
X68597180Y-62109425D01*
X68646872Y-61967724D01*
X68688280Y-61836191D01*
X68722689Y-61711164D01*
X68750087Y-61595000D01*
X68763679Y-61536330D01*
X68776413Y-61488190D01*
X68786451Y-61457211D01*
X68790332Y-61449700D01*
X68812774Y-61435965D01*
X68856694Y-61416096D01*
X68916572Y-61392186D01*
X68986890Y-61366327D01*
X69062127Y-61340611D01*
X69136765Y-61317128D01*
X69151956Y-61312644D01*
X69223962Y-61292408D01*
X69296644Y-61273692D01*
X69374378Y-61255581D01*
X69461542Y-61237159D01*
X69562511Y-61217511D01*
X69681662Y-61195722D01*
X69823371Y-61170875D01*
X69858531Y-61164818D01*
X70076962Y-61125732D01*
X70268776Y-61088044D01*
X70435522Y-61051375D01*
X70578747Y-61015353D01*
X70700002Y-60979600D01*
X70800834Y-60943741D01*
X70843068Y-60926101D01*
X70919536Y-60892283D01*
X70941400Y-60795614D01*
X70983211Y-60559708D01*
X71002963Y-60317260D01*
X71000678Y-60065186D01*
X70976381Y-59800403D01*
X70950234Y-59628282D01*
X70939188Y-59566226D01*
X70929597Y-59515509D01*
X70922593Y-59481922D01*
X70919523Y-59471170D01*
X70905312Y-59465713D01*
X70869345Y-59453376D01*
X70816744Y-59435879D01*
X70752633Y-59414943D01*
X70739000Y-59410534D01*
X70649107Y-59382527D01*
X70554470Y-59355214D01*
X70451885Y-59327832D01*
X70338147Y-59299617D01*
X70210053Y-59269805D01*
X70064398Y-59237631D01*
X69897979Y-59202332D01*
X69707592Y-59163144D01*
X69666555Y-59154813D01*
X69544837Y-59129982D01*
X69424728Y-59105169D01*
X69310852Y-59081351D01*
X69207829Y-59059504D01*
X69120281Y-59040607D01*
X69052831Y-59025637D01*
X69022361Y-59018573D01*
X68865000Y-58980973D01*
X68752205Y-58746348D01*
X68718000Y-58673379D01*
X68675502Y-58579834D01*
X68627146Y-58471241D01*
X68575368Y-58353127D01*
X68522601Y-58231020D01*
X68471281Y-58110448D01*
X68453468Y-58068099D01*
X68374726Y-57881741D01*
X68304430Y-57718780D01*
X68241156Y-57576172D01*
X68183481Y-57450872D01*
X68129981Y-57339838D01*
X68079232Y-57240025D01*
X68029812Y-57148389D01*
X67993138Y-57083846D01*
X67901472Y-56925971D01*
X67960106Y-56808680D01*
X68021527Y-56692382D01*
X68095158Y-56565227D01*
X68182697Y-56424462D01*
X68285842Y-56267338D01*
X68376603Y-56134000D01*
X68492706Y-55964936D01*
X68593620Y-55816393D01*
X68680794Y-55686093D01*
X68755677Y-55571761D01*
X68819717Y-55471119D01*
X68874363Y-55381890D01*
X68921062Y-55301798D01*
X68961264Y-55228566D01*
X68996416Y-55159917D01*
X68996872Y-55158993D01*
X69049690Y-55051820D01*
X68989916Y-54963800D01*
X68898182Y-54837929D01*
X68787150Y-54700996D01*
X68661018Y-54557572D01*
X68523986Y-54412227D01*
X68380251Y-54269535D01*
X68234012Y-54134065D01*
X68201356Y-54105190D01*
X68055545Y-53977432D01*
X67947356Y-54034919D01*
X67885109Y-54069042D01*
X67811409Y-54111001D01*
X67738722Y-54153655D01*
X67712166Y-54169650D01*
X67679488Y-54189655D01*
X67647165Y-54209801D01*
X67612889Y-54231638D01*
X67574355Y-54256713D01*
X67529256Y-54286577D01*
X67475285Y-54322778D01*
X67410136Y-54366865D01*
X67331503Y-54420388D01*
X67237078Y-54484895D01*
X67124556Y-54561934D01*
X66991629Y-54653057D01*
X66957222Y-54676654D01*
X66832792Y-54760766D01*
X66710413Y-54841173D01*
X66592626Y-54916370D01*
X66481969Y-54984848D01*
X66380983Y-55045103D01*
X66292208Y-55095628D01*
X66218183Y-55134916D01*
X66161449Y-55161462D01*
X66124545Y-55173758D01*
X66117869Y-55174444D01*
X66095984Y-55167696D01*
X66056896Y-55149666D01*
X66007556Y-55123673D01*
X65985402Y-55111153D01*
X65898803Y-55063324D01*
X65803002Y-55014700D01*
X65694876Y-54963896D01*
X65571304Y-54909523D01*
X65429167Y-54850194D01*
X65265343Y-54784522D01*
X65143944Y-54737077D01*
X64953981Y-54662302D01*
X64788023Y-54594409D01*
X64643080Y-54532051D01*
X64516159Y-54473880D01*
X64404270Y-54418549D01*
X64304422Y-54364710D01*
X64258512Y-54338185D01*
X64202449Y-54304518D01*
X64164827Y-54278925D01*
X64139734Y-54255215D01*
X64121258Y-54227200D01*
X64103487Y-54188691D01*
X64094010Y-54165962D01*
X64060928Y-54081271D01*
X64030087Y-53991617D01*
X64000718Y-53893825D01*
X63972051Y-53784723D01*
X63943314Y-53661138D01*
X63913738Y-53519897D01*
X63882553Y-53357827D01*
X63848989Y-53171757D01*
X63839520Y-53117574D01*
X63805466Y-52925826D01*
X63774412Y-52760390D01*
X63745923Y-52619563D01*
X63719561Y-52501646D01*
X63694888Y-52404938D01*
X63671469Y-52327737D01*
X63648865Y-52268343D01*
X63626640Y-52225055D01*
X63604357Y-52196172D01*
X63602236Y-52194129D01*
X63564378Y-52162182D01*
X63523620Y-52136077D01*
X63476779Y-52115249D01*
X63420672Y-52099135D01*
X63352115Y-52087172D01*
X63267926Y-52078795D01*
X63164920Y-52073440D01*
X63039915Y-52070545D01*
X62898778Y-52069561D01*
X62747413Y-52070010D01*
X62620477Y-52072192D01*
X62514215Y-52076405D01*
X62424871Y-52082945D01*
X62348688Y-52092108D01*
X62281911Y-52104191D01*
X62220784Y-52119489D01*
X62204219Y-52124375D01*
X62157416Y-52140479D01*
X62128510Y-52158135D01*
X62107878Y-52185154D01*
X62092681Y-52214926D01*
X62070668Y-52267168D01*
X62050144Y-52329343D01*
X62030382Y-52404707D01*
X62010654Y-52496515D01*
X61990234Y-52608025D01*
X61968394Y-52742493D01*
X61954774Y-52832393D01*
X61938437Y-52936897D01*
X61920572Y-53041670D01*
X61902381Y-53140293D01*
X61885069Y-53226344D01*
X61869839Y-53293404D01*
X61864616Y-53313411D01*
X61849727Y-53368207D01*
X61837355Y-53416828D01*
X61826416Y-53464751D01*
X61815822Y-53517455D01*
X61804487Y-53580416D01*
X61791325Y-53659114D01*
X61775250Y-53759026D01*
X61771198Y-53784500D01*
X61747436Y-53917109D01*
X61721496Y-54025827D01*
X61691823Y-54114979D01*
X61656864Y-54188888D01*
X61615064Y-54251880D01*
X61594039Y-54277327D01*
X61567973Y-54305020D01*
X61540078Y-54329168D01*
X61506207Y-54352031D01*
X61462216Y-54375870D01*
X61403957Y-54402944D01*
X61327286Y-54435513D01*
X61235153Y-54472986D01*
X61164352Y-54502046D01*
X61073255Y-54540334D01*
X60967307Y-54585511D01*
X60851954Y-54635239D01*
X60732640Y-54687176D01*
X60614812Y-54738985D01*
X60577039Y-54755718D01*
X60379631Y-54842755D01*
X60206746Y-54917688D01*
X60057568Y-54980843D01*
X59931278Y-55032541D01*
X59827062Y-55073106D01*
X59744101Y-55102862D01*
X59681579Y-55122132D01*
X59638680Y-55131239D01*
X59626241Y-55132111D01*
X59599373Y-55125292D01*
X59552452Y-55106306D01*
X59489716Y-55077360D01*
X59415402Y-55040660D01*
X59333744Y-54998412D01*
X59248979Y-54952823D01*
X59165344Y-54906100D01*
X59087075Y-54860449D01*
X59018408Y-54818077D01*
X58998555Y-54805175D01*
X58939966Y-54765671D01*
X58864249Y-54713381D01*
X58777007Y-54652243D01*
X58683842Y-54586197D01*
X58590357Y-54519184D01*
X58539944Y-54482694D01*
X58408618Y-54387676D01*
X58296492Y-54307535D01*
X58200310Y-54240059D01*
X58116811Y-54183035D01*
X58042739Y-54134251D01*
X57974835Y-54091493D01*
X57909840Y-54052549D01*
X57887323Y-54039495D01*
X57770925Y-53972550D01*
X57678998Y-54023959D01*
X57554162Y-54102355D01*
X57422962Y-54201721D01*
X57284471Y-54322943D01*
X57137762Y-54466905D01*
X56981906Y-54634492D01*
X56815977Y-54826589D01*
X56735525Y-54924025D01*
X56680883Y-54991060D01*
X56712182Y-55065113D01*
X56756459Y-55160720D01*
X56815409Y-55272460D01*
X56889578Y-55401218D01*
X56979512Y-55547879D01*
X57085758Y-55713329D01*
X57208862Y-55898453D01*
X57349370Y-56104136D01*
X57387074Y-56158575D01*
X57455167Y-56256961D01*
X57522622Y-56355001D01*
X57586504Y-56448388D01*
X57643880Y-56532816D01*
X57691814Y-56603977D01*
X57727372Y-56657563D01*
X57734973Y-56669236D01*
X57825766Y-56809598D01*
X57722374Y-57075049D01*
X57678489Y-57186945D01*
X57635472Y-57294864D01*
X57591894Y-57402166D01*
X57546330Y-57512214D01*
X57497351Y-57628368D01*
X57443530Y-57753991D01*
X57383441Y-57892444D01*
X57315656Y-58047088D01*
X57238748Y-58221285D01*
X57167821Y-58381194D01*
X56906098Y-58970333D01*
X56812854Y-58997775D01*
X56724669Y-59022776D01*
X56630321Y-59047536D01*
X56527142Y-59072624D01*
X56412463Y-59098604D01*
X56283616Y-59126042D01*
X56137934Y-59155505D01*
X55972747Y-59187558D01*
X55785389Y-59222768D01*
X55573190Y-59261699D01*
X55541333Y-59267482D01*
X55365849Y-59299774D01*
X55217125Y-59328208D01*
X55094000Y-59353052D01*
X54995314Y-59374577D01*
X54919908Y-59393050D01*
X54866622Y-59408740D01*
X54834296Y-59421917D01*
X54821769Y-59432849D01*
X54821525Y-59434401D01*
X54819858Y-59456453D01*
X54815401Y-59500444D01*
X54808805Y-59560299D01*
X54800720Y-59629944D01*
X54799449Y-59640611D01*
X54792354Y-59712259D01*
X54785441Y-59804406D01*
X54779165Y-59909331D01*
X54773980Y-60019310D01*
X54770339Y-60126623D01*
X54769966Y-60141555D01*
X54767900Y-60286611D01*
X54276328Y-60286611D01*
X54273848Y-60122989D01*
X54271720Y-59959309D01*
X54270045Y-59802877D01*
X54268866Y-59657043D01*
X54268225Y-59525152D01*
X54268166Y-59410554D01*
X54268729Y-59316595D01*
X54269959Y-59246623D01*
X54270398Y-59232657D01*
X54278388Y-59008148D01*
X54377166Y-58974639D01*
X54457841Y-58948706D01*
X54546682Y-58923075D01*
X54646321Y-58897161D01*
X54759392Y-58870377D01*
X54888529Y-58842137D01*
X55036364Y-58811853D01*
X55205531Y-58778940D01*
X55398663Y-58742810D01*
X55505715Y-58723232D01*
X55707170Y-58685557D01*
X55883629Y-58650191D01*
X56038158Y-58616445D01*
X56173824Y-58583627D01*
X56293691Y-58551045D01*
X56365199Y-58529474D01*
X56504676Y-58485578D01*
X56587588Y-58359311D01*
X56661016Y-58237855D01*
X56738354Y-58091065D01*
X56819911Y-57918292D01*
X56905998Y-57718888D01*
X56973447Y-57552166D01*
X57013784Y-57450810D01*
X57056166Y-57345781D01*
X57097720Y-57244100D01*
X57135572Y-57152783D01*
X57166850Y-57078850D01*
X57173818Y-57062727D01*
X57251660Y-56883733D01*
X57113470Y-56681727D01*
X57062881Y-56608105D01*
X57000860Y-56518358D01*
X56932228Y-56419434D01*
X56861808Y-56318280D01*
X56794421Y-56221842D01*
X56777362Y-56197500D01*
X56712712Y-56104709D01*
X56641976Y-56002128D01*
X56567051Y-55892595D01*
X56489838Y-55778953D01*
X56412232Y-55664042D01*
X56336134Y-55550704D01*
X56263440Y-55441779D01*
X56196050Y-55340109D01*
X56135861Y-55248535D01*
X56084772Y-55169897D01*
X56044681Y-55107037D01*
X56017486Y-55062796D01*
X56007816Y-55045736D01*
X55973701Y-54980529D01*
X56028323Y-54904625D01*
X56106322Y-54802158D01*
X56195496Y-54696637D01*
X56299055Y-54584549D01*
X56420211Y-54462379D01*
X56521258Y-54365145D01*
X56651507Y-54241546D01*
X56762842Y-54135249D01*
X56857091Y-54044420D01*
X56936083Y-53967226D01*
X57001647Y-53901833D01*
X57055612Y-53846406D01*
X57099806Y-53799111D01*
X57136059Y-53758115D01*
X57166199Y-53721584D01*
X57177660Y-53706889D01*
X57257541Y-53611033D01*
X57341822Y-53524795D01*
X57425378Y-53452869D01*
X57503082Y-53399951D01*
X57526228Y-53387625D01*
X57606949Y-53358780D01*
X57699117Y-53342692D01*
X57791322Y-53340465D01*
X57872153Y-53353202D01*
X57874581Y-53353916D01*
X57950689Y-53386546D01*
X58032861Y-53438748D01*
X58113502Y-53505400D01*
X58144833Y-53536206D01*
X58196287Y-53583758D01*
X58256673Y-53631319D01*
X58300055Y-53660507D01*
X58375246Y-53708707D01*
X58468537Y-53773211D01*
X58576781Y-53851746D01*
X58696831Y-53942042D01*
X58793944Y-54017068D01*
X58937398Y-54126660D01*
X59064306Y-54217946D01*
X59177941Y-54292711D01*
X59281577Y-54352742D01*
X59378486Y-54399824D01*
X59471942Y-54435744D01*
X59565218Y-54462288D01*
X59637049Y-54477120D01*
X59746376Y-54496469D01*
X60039216Y-54399822D01*
X60246072Y-54329157D01*
X60429113Y-54261270D01*
X60592376Y-54194385D01*
X60739897Y-54126730D01*
X60875714Y-54056530D01*
X61003863Y-53982012D01*
X61036566Y-53961621D01*
X61090107Y-53926833D01*
X61125840Y-53899461D01*
X61150215Y-53872500D01*
X61169683Y-53838945D01*
X61188749Y-53796364D01*
X61240589Y-53660086D01*
X61290326Y-53499012D01*
X61338118Y-53312475D01*
X61384119Y-53099804D01*
X61428487Y-52860333D01*
X61471377Y-52593391D01*
X61474731Y-52570944D01*
X61505270Y-52370047D01*
X61534133Y-52189230D01*
X61561021Y-52030227D01*
X61585636Y-51894772D01*
X61607677Y-51784599D01*
X61619547Y-51731333D01*
X61632732Y-51677698D01*
X61644697Y-51643914D01*
X61660610Y-51622344D01*
X61685635Y-51605347D01*
X61714944Y-51590281D01*
X61749059Y-51574688D01*
X61781524Y-51564500D01*
X61819689Y-51558615D01*
X61870907Y-51555929D01*
X61942527Y-51555340D01*
X61947777Y-51555348D01*
M02*
