%TF.GenerationSoftware,KiCad,Pcbnew,4.0.4-stable*%
%TF.CreationDate,2017-03-25T04:02:18+02:00*%
%TF.ProjectId,front_prototype,66726F6E745F70726F746F747970652E,rev?*%
%TF.FileFunction,Soldermask,Bot*%
%FSLAX46Y46*%
G04 Gerber Fmt 4.6, Leading zero omitted, Abs format (unit mm)*
G04 Created by KiCad (PCBNEW 4.0.4-stable) date 03/25/17 04:02:18*
%MOMM*%
%LPD*%
G01*
G04 APERTURE LIST*
%ADD10C,0.100000*%
%ADD11C,2.540000*%
%ADD12R,1.200000X2.300000*%
%ADD13R,2.099260X3.699460*%
%ADD14R,2.000000X0.950000*%
%ADD15R,1.800000X0.950000*%
%ADD16R,0.950000X1.800000*%
%ADD17R,0.950000X2.000000*%
%ADD18R,1.800000X0.900000*%
%ADD19R,0.900000X1.800000*%
%ADD20R,1.900000X1.700000*%
%ADD21R,1.900000X1.900000*%
%ADD22C,1.900000*%
%ADD23O,1.500000X2.900000*%
%ADD24O,2.800000X1.500000*%
%ADD25R,2.127200X2.432000*%
%ADD26O,2.127200X2.432000*%
%ADD27R,1.670000X1.370000*%
%ADD28R,2.100000X2.100000*%
%ADD29O,2.100000X2.100000*%
%ADD30C,2.800000*%
%ADD31R,2.800000X2.800000*%
%ADD32R,1.400000X0.800000*%
%ADD33R,1.400000X1.400000*%
%ADD34R,1.650000X1.900000*%
%ADD35R,1.900000X1.650000*%
%ADD36R,1.600000X1.150000*%
%ADD37R,1.150000X1.600000*%
%ADD38R,1.200000X1.000000*%
%ADD39R,1.300000X0.900000*%
%ADD40R,1.600000X1.300000*%
%ADD41R,1.300000X1.600000*%
%ADD42R,1.700000X1.900000*%
%ADD43C,1.924000*%
%ADD44R,2.900000X3.600000*%
%ADD45C,1.700000*%
G04 APERTURE END LIST*
D10*
D11*
X46024800Y-137439400D03*
X78816200Y-137083800D03*
X70789800Y-41884600D03*
D12*
X46670000Y-70842000D03*
X44770000Y-70842000D03*
X45720000Y-67842000D03*
D13*
X43548300Y-61142880D03*
X43548300Y-66644520D03*
D14*
X56646500Y-122116500D03*
X56646500Y-121316500D03*
X56646500Y-120516500D03*
X56646500Y-119716500D03*
X56646500Y-118916500D03*
X56646500Y-118116500D03*
X56646500Y-117316500D03*
D15*
X56546500Y-116516500D03*
D16*
X58096500Y-114966500D03*
D17*
X58896500Y-115066500D03*
X59696500Y-115066500D03*
X60496500Y-115066500D03*
X61296500Y-115066500D03*
X62096500Y-115066500D03*
X62896500Y-115066500D03*
D16*
X63696500Y-114966500D03*
D15*
X65246500Y-116516500D03*
D14*
X65146500Y-117316500D03*
X65146500Y-118116500D03*
X65146500Y-118916500D03*
X65146500Y-119716500D03*
X65146500Y-120516500D03*
X65146500Y-121316500D03*
D18*
X65246500Y-122116500D03*
D19*
X63696500Y-123666500D03*
D17*
X62896500Y-123566500D03*
X62096500Y-123566500D03*
X61296500Y-123566500D03*
X60496500Y-123566500D03*
X59696500Y-123566500D03*
X58896500Y-123566500D03*
X58096500Y-123566500D03*
D20*
X61007000Y-126555500D03*
X63707000Y-126555500D03*
X43735000Y-73660000D03*
X46435000Y-73660000D03*
X44497000Y-79248000D03*
X47197000Y-79248000D03*
D21*
X79650000Y-79650000D03*
X66421000Y-126682500D03*
D22*
X60071000Y-108839000D03*
D23*
X51816000Y-88200000D03*
X53816000Y-88200000D03*
X55816000Y-88200000D03*
X57816000Y-88200000D03*
X59816000Y-88200000D03*
X61816000Y-88200000D03*
X63816000Y-88200000D03*
D24*
X65566000Y-90890000D03*
X65566000Y-92890000D03*
X65566000Y-94890000D03*
X65566000Y-96890000D03*
X65566000Y-98890000D03*
X65566000Y-100890000D03*
D23*
X63816000Y-103600000D03*
X61816000Y-103500000D03*
X59816000Y-103600000D03*
X57816000Y-103600000D03*
X55816000Y-103600000D03*
X53816000Y-103600000D03*
X51816000Y-103600000D03*
D25*
X53340000Y-73279000D03*
D26*
X55880000Y-73279000D03*
X58420000Y-73279000D03*
X60960000Y-73279000D03*
X63500000Y-73279000D03*
X66040000Y-73279000D03*
X68580000Y-73279000D03*
X71120000Y-73279000D03*
D25*
X53340000Y-75819000D03*
X53340000Y-70739000D03*
X55880000Y-75819000D03*
X55880000Y-70739000D03*
X58420000Y-75819000D03*
X58420000Y-70739000D03*
X60960000Y-75819000D03*
X60960000Y-70739000D03*
X63500000Y-75819000D03*
X63500000Y-70739000D03*
X66040000Y-75819000D03*
X66040000Y-70739000D03*
X68580000Y-75819000D03*
X68580000Y-70739000D03*
X71120000Y-75819000D03*
X71120000Y-70739000D03*
D27*
X77470000Y-61590000D03*
X77470000Y-62870000D03*
X72453500Y-62997000D03*
X72453500Y-61717000D03*
D28*
X77470000Y-56959500D03*
D29*
X74930000Y-56959500D03*
X72390000Y-56959500D03*
X69850000Y-56959500D03*
D28*
X77470000Y-67246500D03*
D29*
X74930000Y-67246500D03*
X72390000Y-67246500D03*
D12*
X46040000Y-81939000D03*
X47940000Y-81939000D03*
X46990000Y-84939000D03*
D21*
X79502000Y-92964000D03*
X79502000Y-95377000D03*
D30*
X63444000Y-136398000D03*
D31*
X59944000Y-136398000D03*
D32*
X53848000Y-116867000D03*
D33*
X53848000Y-117877000D03*
D22*
X53848000Y-114427000D03*
X53848000Y-119307000D03*
D33*
X53848000Y-115827000D03*
D28*
X44450000Y-54610000D03*
D29*
X44450000Y-52070000D03*
X44450000Y-49530000D03*
X44450000Y-46990000D03*
D21*
X50368200Y-45897800D03*
D34*
X51879500Y-117812500D03*
X51879500Y-120312500D03*
X51879500Y-115994500D03*
X51879500Y-113494500D03*
X46355000Y-118090000D03*
X46355000Y-115590000D03*
X67259200Y-118384000D03*
X67259200Y-120884000D03*
D35*
X57017600Y-67767200D03*
X59517600Y-67767200D03*
D34*
X69088000Y-119603200D03*
X69088000Y-122103200D03*
X74993500Y-64109600D03*
X74993500Y-61609600D03*
D36*
X51125200Y-52324000D03*
X49225200Y-52324000D03*
D37*
X48107600Y-52390000D03*
X48107600Y-54290000D03*
D36*
X49225200Y-54305200D03*
X51125200Y-54305200D03*
X55438000Y-136398000D03*
X57338000Y-136398000D03*
X60772000Y-133858000D03*
X62672000Y-133858000D03*
X65852000Y-136398000D03*
X67752000Y-136398000D03*
D34*
X45800000Y-62850000D03*
X45800000Y-65350000D03*
X60960000Y-128544000D03*
X60960000Y-131044000D03*
D38*
X78867000Y-108751000D03*
X78867000Y-110451000D03*
D39*
X47434500Y-128143000D03*
X47434500Y-127443000D03*
X47434500Y-126743000D03*
D28*
X53340000Y-46990000D03*
D29*
X55880000Y-46990000D03*
X58420000Y-46990000D03*
X60960000Y-46990000D03*
X63500000Y-46990000D03*
X66040000Y-46990000D03*
X68580000Y-46990000D03*
X71120000Y-46990000D03*
D28*
X44040000Y-114300000D03*
D29*
X44040000Y-116840000D03*
X44040000Y-119380000D03*
X44040000Y-121920000D03*
X44040000Y-124460000D03*
X44040000Y-127000000D03*
D28*
X54610000Y-49022000D03*
D29*
X57150000Y-49022000D03*
X59690000Y-49022000D03*
X62230000Y-49022000D03*
X64770000Y-49022000D03*
X67310000Y-49022000D03*
X69850000Y-49022000D03*
D40*
X77343000Y-54546500D03*
X79543000Y-54546500D03*
X72222000Y-54546500D03*
X74422000Y-54546500D03*
X78062000Y-59563000D03*
X75862000Y-59563000D03*
X71861500Y-59563000D03*
X74061500Y-59563000D03*
D41*
X45821600Y-61806000D03*
X45821600Y-59606000D03*
D42*
X78867000Y-112505500D03*
X78867000Y-115205500D03*
D11*
X44704000Y-43992800D03*
D43*
X72644000Y-83312000D03*
X75184000Y-83312000D03*
X72644000Y-85852000D03*
X75184000Y-85852000D03*
X72644000Y-88392000D03*
X75184000Y-88392000D03*
X72644000Y-90932000D03*
X75184000Y-90932000D03*
X72644000Y-93472000D03*
X75184000Y-93472000D03*
X72644000Y-96012000D03*
X75184000Y-96012000D03*
X72644000Y-98552000D03*
X75184000Y-98552000D03*
X72644000Y-101092000D03*
X75184000Y-101092000D03*
X72644000Y-103632000D03*
X75184000Y-103632000D03*
X72644000Y-106172000D03*
X75184000Y-106172000D03*
X72644000Y-108712000D03*
X75184000Y-108712000D03*
X72644000Y-111252000D03*
X75184000Y-111252000D03*
X72644000Y-113792000D03*
X75184000Y-113792000D03*
X72644000Y-116332000D03*
X75184000Y-116332000D03*
X72644000Y-118872000D03*
X75184000Y-118872000D03*
X72644000Y-121412000D03*
X75184000Y-121412000D03*
X72644000Y-123952000D03*
X75184000Y-123952000D03*
X72644000Y-126492000D03*
X75184000Y-126492000D03*
X72644000Y-129032000D03*
X75184000Y-129032000D03*
X72644000Y-131572000D03*
X75184000Y-131572000D03*
X70104000Y-129032000D03*
X70104000Y-131572000D03*
X67564000Y-129032000D03*
X67564000Y-131572000D03*
X44040000Y-85080000D03*
X44040000Y-82540000D03*
X79600000Y-128260000D03*
X79600000Y-125720000D03*
X79600000Y-123180000D03*
X79600000Y-120640000D03*
X79600000Y-118100000D03*
X44040000Y-105400000D03*
X44040000Y-107940000D03*
X44040000Y-110480000D03*
X44040000Y-130800000D03*
X44040000Y-133340000D03*
X44040000Y-135880000D03*
X79600000Y-82540000D03*
X79600000Y-85080000D03*
X79600000Y-87620000D03*
X79600000Y-90160000D03*
X79600000Y-97780000D03*
D44*
X68021200Y-83092400D03*
X68021200Y-87392400D03*
D45*
X75946000Y-42578000D03*
D22*
X73196000Y-52078000D03*
X78696000Y-52078000D03*
X75946000Y-52578000D03*
X72696000Y-43878000D03*
X79196000Y-43878000D03*
D45*
X75946000Y-49578000D03*
M02*
