%TF.GenerationSoftware,KiCad,Pcbnew,4.0.4-stable*%
%TF.CreationDate,2017-05-07T05:40:39+03:00*%
%TF.ProjectId,spi_soicw8_programming,7370695F736F696377385F70726F6772,rev?*%
%TF.FileFunction,Copper,L1,Top,Signal*%
%FSLAX46Y46*%
G04 Gerber Fmt 4.6, Leading zero omitted, Abs format (unit mm)*
G04 Created by KiCad (PCBNEW 4.0.4-stable) date 05/07/17 05:40:39*
%MOMM*%
%LPD*%
G01*
G04 APERTURE LIST*
%ADD10C,0.200000*%
%ADD11R,1.500000X1.250000*%
%ADD12R,1.700000X0.650000*%
%ADD13R,1.700000X1.700000*%
%ADD14O,1.700000X1.700000*%
%ADD15C,0.600000*%
%ADD16C,0.400000*%
%ADD17C,0.250000*%
G04 APERTURE END LIST*
D10*
D11*
X154950000Y-108000000D03*
X152450000Y-108000000D03*
D12*
X142225000Y-102745000D03*
X142225000Y-104015000D03*
X142225000Y-105285000D03*
X142225000Y-106555000D03*
X149525000Y-106555000D03*
X149525000Y-105285000D03*
X149525000Y-104015000D03*
X149525000Y-102745000D03*
D13*
X154995000Y-110350000D03*
D14*
X152455000Y-110350000D03*
X149915000Y-110350000D03*
X147375000Y-110350000D03*
X144835000Y-110350000D03*
X142295000Y-110350000D03*
D15*
X141550000Y-107650000D03*
X151075000Y-104050000D03*
X148000000Y-104000000D03*
X143500000Y-102700000D03*
X143100000Y-105275000D03*
X148250000Y-105325000D03*
X148225000Y-108625000D03*
X150675000Y-102725000D03*
D16*
X154950000Y-108000000D02*
X154950000Y-110305000D01*
X154950000Y-110305000D02*
X154995000Y-110350000D01*
X152525000Y-106550000D02*
X149530000Y-106550000D01*
X154950000Y-108000000D02*
X154545002Y-108000000D01*
X154545002Y-108000000D02*
X153095002Y-106550000D01*
X153095002Y-106550000D02*
X152525000Y-106550000D01*
X143350000Y-106555000D02*
X144200000Y-106555000D01*
X144200000Y-106555000D02*
X149525000Y-106555000D01*
X143800000Y-106105000D02*
X143800000Y-106155000D01*
X143800000Y-106155000D02*
X144200000Y-106555000D01*
X142225000Y-106555000D02*
X143350000Y-106555000D01*
X142225000Y-104015000D02*
X143475000Y-104015000D01*
X143475000Y-104015000D02*
X143800000Y-104340000D01*
X143800000Y-104340000D02*
X143800000Y-106105000D01*
X143800000Y-106105000D02*
X143350000Y-106555000D01*
X149530000Y-106550000D02*
X149525000Y-106555000D01*
D17*
X149325000Y-107975000D02*
X149000000Y-107650000D01*
X149000000Y-107650000D02*
X141550000Y-107650000D01*
X151425000Y-107975000D02*
X149325000Y-107975000D01*
X152450000Y-108000000D02*
X151450000Y-108000000D01*
X151450000Y-108000000D02*
X151425000Y-107975000D01*
X149525000Y-104015000D02*
X151040000Y-104015000D01*
X151040000Y-104015000D02*
X151075000Y-104050000D01*
X149525000Y-104015000D02*
X148015000Y-104015000D01*
X148015000Y-104015000D02*
X148000000Y-104000000D01*
X142225000Y-102745000D02*
X143455000Y-102745000D01*
X143455000Y-102745000D02*
X143500000Y-102700000D01*
X142225000Y-105285000D02*
X143090000Y-105285000D01*
X143090000Y-105285000D02*
X143100000Y-105275000D01*
X148250000Y-105325000D02*
X149485000Y-105325000D01*
X149485000Y-105325000D02*
X149525000Y-105285000D01*
X144835000Y-110350000D02*
X146560000Y-108625000D01*
X146560000Y-108625000D02*
X148225000Y-108625000D01*
X149525000Y-102745000D02*
X150655000Y-102745000D01*
X150655000Y-102745000D02*
X150675000Y-102725000D01*
D10*
G36*
X159525000Y-116325000D02*
X157475000Y-116325000D01*
X157475000Y-111750000D01*
X157438843Y-111568225D01*
X157335876Y-111414124D01*
X157181775Y-111311157D01*
X157000000Y-111275000D01*
X156237648Y-111275000D01*
X156252836Y-111200000D01*
X156252836Y-109500000D01*
X156224944Y-109351769D01*
X156137340Y-109215628D01*
X156003671Y-109124296D01*
X155845000Y-109092164D01*
X155550000Y-109092164D01*
X155550000Y-109032836D01*
X155700000Y-109032836D01*
X155848231Y-109004944D01*
X155984372Y-108917340D01*
X156075704Y-108783671D01*
X156107836Y-108625000D01*
X156107836Y-107375000D01*
X156079944Y-107226769D01*
X155992340Y-107090628D01*
X155858671Y-106999296D01*
X155700000Y-106967164D01*
X154360694Y-106967164D01*
X153519266Y-106125736D01*
X153324612Y-105995672D01*
X153095002Y-105950000D01*
X150670153Y-105950000D01*
X150667340Y-105945628D01*
X150630848Y-105920694D01*
X150659372Y-105902340D01*
X150750704Y-105768671D01*
X150782836Y-105610000D01*
X150782836Y-104960000D01*
X150754944Y-104811769D01*
X150667340Y-104675628D01*
X150630339Y-104650347D01*
X150714104Y-104566582D01*
X150775000Y-104419565D01*
X150775000Y-104165000D01*
X150675000Y-104065000D01*
X149575000Y-104065000D01*
X149575000Y-104085000D01*
X149475000Y-104085000D01*
X149475000Y-104065000D01*
X148375000Y-104065000D01*
X148275000Y-104165000D01*
X148275000Y-104419565D01*
X148335896Y-104566582D01*
X148397692Y-104628378D01*
X148389850Y-104625122D01*
X148111372Y-104624879D01*
X147854000Y-104731223D01*
X147656915Y-104927964D01*
X147550122Y-105185150D01*
X147549879Y-105463628D01*
X147656223Y-105721000D01*
X147852964Y-105918085D01*
X147941865Y-105955000D01*
X144448528Y-105955000D01*
X144400000Y-105906472D01*
X144400000Y-104340000D01*
X144354328Y-104110390D01*
X144354328Y-104110389D01*
X144224264Y-103915736D01*
X143899264Y-103590736D01*
X143704610Y-103460672D01*
X143475000Y-103415000D01*
X143373371Y-103415000D01*
X143367340Y-103405628D01*
X143357026Y-103398581D01*
X143360150Y-103399878D01*
X143638628Y-103400121D01*
X143896000Y-103293777D01*
X144093085Y-103097036D01*
X144199878Y-102839850D01*
X144200121Y-102561372D01*
X144141708Y-102420000D01*
X148267164Y-102420000D01*
X148267164Y-103070000D01*
X148295056Y-103218231D01*
X148382660Y-103354372D01*
X148419661Y-103379653D01*
X148335896Y-103463418D01*
X148275000Y-103610435D01*
X148275000Y-103865000D01*
X148375000Y-103965000D01*
X149475000Y-103965000D01*
X149475000Y-103945000D01*
X149575000Y-103945000D01*
X149575000Y-103965000D01*
X150675000Y-103965000D01*
X150775000Y-103865000D01*
X150775000Y-103610435D01*
X150714104Y-103463418D01*
X150675687Y-103425001D01*
X150813628Y-103425121D01*
X151071000Y-103318777D01*
X151268085Y-103122036D01*
X151374878Y-102864850D01*
X151375121Y-102586372D01*
X151268777Y-102329000D01*
X151072036Y-102131915D01*
X150814850Y-102025122D01*
X150536372Y-102024879D01*
X150503947Y-102038277D01*
X150375000Y-102012164D01*
X148675000Y-102012164D01*
X148526769Y-102040056D01*
X148390628Y-102127660D01*
X148299296Y-102261329D01*
X148267164Y-102420000D01*
X144141708Y-102420000D01*
X144093777Y-102304000D01*
X143897036Y-102106915D01*
X143639850Y-102000122D01*
X143361372Y-101999879D01*
X143241285Y-102049498D01*
X143233671Y-102044296D01*
X143075000Y-102012164D01*
X141375000Y-102012164D01*
X141226769Y-102040056D01*
X141225000Y-102041194D01*
X141225000Y-101975000D01*
X159525000Y-101975000D01*
X159525000Y-116325000D01*
X159525000Y-116325000D01*
G37*
X159525000Y-116325000D02*
X157475000Y-116325000D01*
X157475000Y-111750000D01*
X157438843Y-111568225D01*
X157335876Y-111414124D01*
X157181775Y-111311157D01*
X157000000Y-111275000D01*
X156237648Y-111275000D01*
X156252836Y-111200000D01*
X156252836Y-109500000D01*
X156224944Y-109351769D01*
X156137340Y-109215628D01*
X156003671Y-109124296D01*
X155845000Y-109092164D01*
X155550000Y-109092164D01*
X155550000Y-109032836D01*
X155700000Y-109032836D01*
X155848231Y-109004944D01*
X155984372Y-108917340D01*
X156075704Y-108783671D01*
X156107836Y-108625000D01*
X156107836Y-107375000D01*
X156079944Y-107226769D01*
X155992340Y-107090628D01*
X155858671Y-106999296D01*
X155700000Y-106967164D01*
X154360694Y-106967164D01*
X153519266Y-106125736D01*
X153324612Y-105995672D01*
X153095002Y-105950000D01*
X150670153Y-105950000D01*
X150667340Y-105945628D01*
X150630848Y-105920694D01*
X150659372Y-105902340D01*
X150750704Y-105768671D01*
X150782836Y-105610000D01*
X150782836Y-104960000D01*
X150754944Y-104811769D01*
X150667340Y-104675628D01*
X150630339Y-104650347D01*
X150714104Y-104566582D01*
X150775000Y-104419565D01*
X150775000Y-104165000D01*
X150675000Y-104065000D01*
X149575000Y-104065000D01*
X149575000Y-104085000D01*
X149475000Y-104085000D01*
X149475000Y-104065000D01*
X148375000Y-104065000D01*
X148275000Y-104165000D01*
X148275000Y-104419565D01*
X148335896Y-104566582D01*
X148397692Y-104628378D01*
X148389850Y-104625122D01*
X148111372Y-104624879D01*
X147854000Y-104731223D01*
X147656915Y-104927964D01*
X147550122Y-105185150D01*
X147549879Y-105463628D01*
X147656223Y-105721000D01*
X147852964Y-105918085D01*
X147941865Y-105955000D01*
X144448528Y-105955000D01*
X144400000Y-105906472D01*
X144400000Y-104340000D01*
X144354328Y-104110390D01*
X144354328Y-104110389D01*
X144224264Y-103915736D01*
X143899264Y-103590736D01*
X143704610Y-103460672D01*
X143475000Y-103415000D01*
X143373371Y-103415000D01*
X143367340Y-103405628D01*
X143357026Y-103398581D01*
X143360150Y-103399878D01*
X143638628Y-103400121D01*
X143896000Y-103293777D01*
X144093085Y-103097036D01*
X144199878Y-102839850D01*
X144200121Y-102561372D01*
X144141708Y-102420000D01*
X148267164Y-102420000D01*
X148267164Y-103070000D01*
X148295056Y-103218231D01*
X148382660Y-103354372D01*
X148419661Y-103379653D01*
X148335896Y-103463418D01*
X148275000Y-103610435D01*
X148275000Y-103865000D01*
X148375000Y-103965000D01*
X149475000Y-103965000D01*
X149475000Y-103945000D01*
X149575000Y-103945000D01*
X149575000Y-103965000D01*
X150675000Y-103965000D01*
X150775000Y-103865000D01*
X150775000Y-103610435D01*
X150714104Y-103463418D01*
X150675687Y-103425001D01*
X150813628Y-103425121D01*
X151071000Y-103318777D01*
X151268085Y-103122036D01*
X151374878Y-102864850D01*
X151375121Y-102586372D01*
X151268777Y-102329000D01*
X151072036Y-102131915D01*
X150814850Y-102025122D01*
X150536372Y-102024879D01*
X150503947Y-102038277D01*
X150375000Y-102012164D01*
X148675000Y-102012164D01*
X148526769Y-102040056D01*
X148390628Y-102127660D01*
X148299296Y-102261329D01*
X148267164Y-102420000D01*
X144141708Y-102420000D01*
X144093777Y-102304000D01*
X143897036Y-102106915D01*
X143639850Y-102000122D01*
X143361372Y-101999879D01*
X143241285Y-102049498D01*
X143233671Y-102044296D01*
X143075000Y-102012164D01*
X141375000Y-102012164D01*
X141226769Y-102040056D01*
X141225000Y-102041194D01*
X141225000Y-101975000D01*
X159525000Y-101975000D01*
X159525000Y-116325000D01*
G36*
X151300000Y-107295435D02*
X151300000Y-107850000D01*
X151400000Y-107950000D01*
X152400000Y-107950000D01*
X152400000Y-107930000D01*
X152500000Y-107930000D01*
X152500000Y-107950000D01*
X153500000Y-107950000D01*
X153573237Y-107876763D01*
X153792164Y-108095690D01*
X153792164Y-108625000D01*
X153820056Y-108773231D01*
X153907660Y-108909372D01*
X154041329Y-109000704D01*
X154200000Y-109032836D01*
X154350000Y-109032836D01*
X154350000Y-109092164D01*
X154145000Y-109092164D01*
X153996769Y-109120056D01*
X153860628Y-109207660D01*
X153769296Y-109341329D01*
X153737164Y-109500000D01*
X153737164Y-111200000D01*
X153751276Y-111275000D01*
X153263720Y-111275000D01*
X153493826Y-111045235D01*
X153680805Y-110594772D01*
X153604004Y-110400000D01*
X152505000Y-110400000D01*
X152505000Y-110420000D01*
X152405000Y-110420000D01*
X152405000Y-110400000D01*
X151305996Y-110400000D01*
X151229195Y-110594772D01*
X151416174Y-111045235D01*
X151646280Y-111275000D01*
X150773997Y-111275000D01*
X150798883Y-111258372D01*
X151069849Y-110852843D01*
X151165000Y-110374489D01*
X151165000Y-110325511D01*
X151121183Y-110105228D01*
X151229195Y-110105228D01*
X151305996Y-110300000D01*
X152405000Y-110300000D01*
X152405000Y-109201087D01*
X152505000Y-109201087D01*
X152505000Y-110300000D01*
X153604004Y-110300000D01*
X153680805Y-110105228D01*
X153493826Y-109654765D01*
X153148695Y-109310145D01*
X152699771Y-109124199D01*
X152505000Y-109201087D01*
X152405000Y-109201087D01*
X152210229Y-109124199D01*
X151761305Y-109310145D01*
X151416174Y-109654765D01*
X151229195Y-110105228D01*
X151121183Y-110105228D01*
X151069849Y-109847157D01*
X150798883Y-109441628D01*
X150393354Y-109170662D01*
X149915000Y-109075511D01*
X149436646Y-109170662D01*
X149031117Y-109441628D01*
X148760151Y-109847157D01*
X148665000Y-110325511D01*
X148665000Y-110374489D01*
X148760151Y-110852843D01*
X149031117Y-111258372D01*
X149056003Y-111275000D01*
X148233997Y-111275000D01*
X148258883Y-111258372D01*
X148529849Y-110852843D01*
X148625000Y-110374489D01*
X148625000Y-110325511D01*
X148529849Y-109847157D01*
X148258883Y-109441628D01*
X148082520Y-109323786D01*
X148085150Y-109324878D01*
X148363628Y-109325121D01*
X148621000Y-109218777D01*
X148818085Y-109022036D01*
X148924878Y-108764850D01*
X148925121Y-108486372D01*
X148818777Y-108229000D01*
X148739915Y-108150000D01*
X151300000Y-108150000D01*
X151300000Y-108704565D01*
X151360896Y-108851582D01*
X151473418Y-108964104D01*
X151620435Y-109025000D01*
X152300000Y-109025000D01*
X152400000Y-108925000D01*
X152400000Y-108050000D01*
X152500000Y-108050000D01*
X152500000Y-108925000D01*
X152600000Y-109025000D01*
X153279565Y-109025000D01*
X153426582Y-108964104D01*
X153539104Y-108851582D01*
X153600000Y-108704565D01*
X153600000Y-108150000D01*
X153500000Y-108050000D01*
X152500000Y-108050000D01*
X152400000Y-108050000D01*
X151400000Y-108050000D01*
X151300000Y-108150000D01*
X148739915Y-108150000D01*
X148622036Y-108031915D01*
X148364850Y-107925122D01*
X148086372Y-107924879D01*
X147829000Y-108031223D01*
X147760103Y-108100000D01*
X146560000Y-108100000D01*
X146359091Y-108139963D01*
X146188769Y-108253769D01*
X145278758Y-109163780D01*
X144835000Y-109075511D01*
X144356646Y-109170662D01*
X143951117Y-109441628D01*
X143680151Y-109847157D01*
X143585000Y-110325511D01*
X143585000Y-110374489D01*
X143680151Y-110852843D01*
X143951117Y-111258372D01*
X143976003Y-111275000D01*
X143153997Y-111275000D01*
X143178883Y-111258372D01*
X143449849Y-110852843D01*
X143545000Y-110374489D01*
X143545000Y-110325511D01*
X143449849Y-109847157D01*
X143178883Y-109441628D01*
X142773354Y-109170662D01*
X142295000Y-109075511D01*
X141816646Y-109170662D01*
X141411117Y-109441628D01*
X141225000Y-109720172D01*
X141225000Y-107257460D01*
X141375000Y-107287836D01*
X143075000Y-107287836D01*
X143223231Y-107259944D01*
X143359372Y-107172340D01*
X143371220Y-107155000D01*
X148376629Y-107155000D01*
X148382660Y-107164372D01*
X148516329Y-107255704D01*
X148675000Y-107287836D01*
X150375000Y-107287836D01*
X150523231Y-107259944D01*
X150659372Y-107172340D01*
X150674636Y-107150000D01*
X151360241Y-107150000D01*
X151300000Y-107295435D01*
X151300000Y-107295435D01*
G37*
X151300000Y-107295435D02*
X151300000Y-107850000D01*
X151400000Y-107950000D01*
X152400000Y-107950000D01*
X152400000Y-107930000D01*
X152500000Y-107930000D01*
X152500000Y-107950000D01*
X153500000Y-107950000D01*
X153573237Y-107876763D01*
X153792164Y-108095690D01*
X153792164Y-108625000D01*
X153820056Y-108773231D01*
X153907660Y-108909372D01*
X154041329Y-109000704D01*
X154200000Y-109032836D01*
X154350000Y-109032836D01*
X154350000Y-109092164D01*
X154145000Y-109092164D01*
X153996769Y-109120056D01*
X153860628Y-109207660D01*
X153769296Y-109341329D01*
X153737164Y-109500000D01*
X153737164Y-111200000D01*
X153751276Y-111275000D01*
X153263720Y-111275000D01*
X153493826Y-111045235D01*
X153680805Y-110594772D01*
X153604004Y-110400000D01*
X152505000Y-110400000D01*
X152505000Y-110420000D01*
X152405000Y-110420000D01*
X152405000Y-110400000D01*
X151305996Y-110400000D01*
X151229195Y-110594772D01*
X151416174Y-111045235D01*
X151646280Y-111275000D01*
X150773997Y-111275000D01*
X150798883Y-111258372D01*
X151069849Y-110852843D01*
X151165000Y-110374489D01*
X151165000Y-110325511D01*
X151121183Y-110105228D01*
X151229195Y-110105228D01*
X151305996Y-110300000D01*
X152405000Y-110300000D01*
X152405000Y-109201087D01*
X152505000Y-109201087D01*
X152505000Y-110300000D01*
X153604004Y-110300000D01*
X153680805Y-110105228D01*
X153493826Y-109654765D01*
X153148695Y-109310145D01*
X152699771Y-109124199D01*
X152505000Y-109201087D01*
X152405000Y-109201087D01*
X152210229Y-109124199D01*
X151761305Y-109310145D01*
X151416174Y-109654765D01*
X151229195Y-110105228D01*
X151121183Y-110105228D01*
X151069849Y-109847157D01*
X150798883Y-109441628D01*
X150393354Y-109170662D01*
X149915000Y-109075511D01*
X149436646Y-109170662D01*
X149031117Y-109441628D01*
X148760151Y-109847157D01*
X148665000Y-110325511D01*
X148665000Y-110374489D01*
X148760151Y-110852843D01*
X149031117Y-111258372D01*
X149056003Y-111275000D01*
X148233997Y-111275000D01*
X148258883Y-111258372D01*
X148529849Y-110852843D01*
X148625000Y-110374489D01*
X148625000Y-110325511D01*
X148529849Y-109847157D01*
X148258883Y-109441628D01*
X148082520Y-109323786D01*
X148085150Y-109324878D01*
X148363628Y-109325121D01*
X148621000Y-109218777D01*
X148818085Y-109022036D01*
X148924878Y-108764850D01*
X148925121Y-108486372D01*
X148818777Y-108229000D01*
X148739915Y-108150000D01*
X151300000Y-108150000D01*
X151300000Y-108704565D01*
X151360896Y-108851582D01*
X151473418Y-108964104D01*
X151620435Y-109025000D01*
X152300000Y-109025000D01*
X152400000Y-108925000D01*
X152400000Y-108050000D01*
X152500000Y-108050000D01*
X152500000Y-108925000D01*
X152600000Y-109025000D01*
X153279565Y-109025000D01*
X153426582Y-108964104D01*
X153539104Y-108851582D01*
X153600000Y-108704565D01*
X153600000Y-108150000D01*
X153500000Y-108050000D01*
X152500000Y-108050000D01*
X152400000Y-108050000D01*
X151400000Y-108050000D01*
X151300000Y-108150000D01*
X148739915Y-108150000D01*
X148622036Y-108031915D01*
X148364850Y-107925122D01*
X148086372Y-107924879D01*
X147829000Y-108031223D01*
X147760103Y-108100000D01*
X146560000Y-108100000D01*
X146359091Y-108139963D01*
X146188769Y-108253769D01*
X145278758Y-109163780D01*
X144835000Y-109075511D01*
X144356646Y-109170662D01*
X143951117Y-109441628D01*
X143680151Y-109847157D01*
X143585000Y-110325511D01*
X143585000Y-110374489D01*
X143680151Y-110852843D01*
X143951117Y-111258372D01*
X143976003Y-111275000D01*
X143153997Y-111275000D01*
X143178883Y-111258372D01*
X143449849Y-110852843D01*
X143545000Y-110374489D01*
X143545000Y-110325511D01*
X143449849Y-109847157D01*
X143178883Y-109441628D01*
X142773354Y-109170662D01*
X142295000Y-109075511D01*
X141816646Y-109170662D01*
X141411117Y-109441628D01*
X141225000Y-109720172D01*
X141225000Y-107257460D01*
X141375000Y-107287836D01*
X143075000Y-107287836D01*
X143223231Y-107259944D01*
X143359372Y-107172340D01*
X143371220Y-107155000D01*
X148376629Y-107155000D01*
X148382660Y-107164372D01*
X148516329Y-107255704D01*
X148675000Y-107287836D01*
X150375000Y-107287836D01*
X150523231Y-107259944D01*
X150659372Y-107172340D01*
X150674636Y-107150000D01*
X151360241Y-107150000D01*
X151300000Y-107295435D01*
M02*
