%TF.GenerationSoftware,KiCad,Pcbnew,4.0.4-stable*%
%TF.CreationDate,2017-05-07T05:40:39+03:00*%
%TF.ProjectId,spi_soicw8_programming,7370695F736F696377385F70726F6772,rev?*%
%TF.FileFunction,Copper,L2,Bot,Signal*%
%FSLAX46Y46*%
G04 Gerber Fmt 4.6, Leading zero omitted, Abs format (unit mm)*
G04 Created by KiCad (PCBNEW 4.0.4-stable) date 05/07/17 05:40:39*
%MOMM*%
%LPD*%
G01*
G04 APERTURE LIST*
%ADD10C,0.200000*%
%ADD11R,1.700000X1.700000*%
%ADD12O,1.700000X1.700000*%
%ADD13C,0.600000*%
%ADD14C,0.250000*%
G04 APERTURE END LIST*
D10*
D11*
X154995000Y-110350000D03*
D12*
X152455000Y-110350000D03*
X149915000Y-110350000D03*
X147375000Y-110350000D03*
X144835000Y-110350000D03*
X142295000Y-110350000D03*
D13*
X141550000Y-107650000D03*
X151075000Y-104050000D03*
X148000000Y-104000000D03*
X143500000Y-102700000D03*
X143100000Y-105275000D03*
X148250000Y-105325000D03*
X148225000Y-108625000D03*
X150675000Y-102725000D03*
D14*
X143500000Y-102700000D02*
X142295000Y-103905000D01*
X142295000Y-103905000D02*
X142295000Y-110350000D01*
X143100000Y-105275000D02*
X147375000Y-109550000D01*
X147375000Y-109550000D02*
X147375000Y-110350000D01*
X148225000Y-108625000D02*
X148225000Y-105350000D01*
X148225000Y-105350000D02*
X148250000Y-105325000D01*
X150675000Y-102725000D02*
X149915000Y-103485000D01*
X149915000Y-103485000D02*
X149915000Y-110350000D01*
D10*
G36*
X159525000Y-116325000D02*
X157475000Y-116325000D01*
X157475000Y-111750000D01*
X157438843Y-111568225D01*
X157335876Y-111414124D01*
X157181775Y-111311157D01*
X157000000Y-111275000D01*
X156237648Y-111275000D01*
X156252836Y-111200000D01*
X156252836Y-109500000D01*
X156224944Y-109351769D01*
X156137340Y-109215628D01*
X156003671Y-109124296D01*
X155845000Y-109092164D01*
X154145000Y-109092164D01*
X153996769Y-109120056D01*
X153860628Y-109207660D01*
X153769296Y-109341329D01*
X153737164Y-109500000D01*
X153737164Y-111200000D01*
X153751276Y-111275000D01*
X153263720Y-111275000D01*
X153493826Y-111045235D01*
X153680805Y-110594772D01*
X153604004Y-110400000D01*
X152505000Y-110400000D01*
X152505000Y-110420000D01*
X152405000Y-110420000D01*
X152405000Y-110400000D01*
X151305996Y-110400000D01*
X151229195Y-110594772D01*
X151416174Y-111045235D01*
X151646280Y-111275000D01*
X150773997Y-111275000D01*
X150798883Y-111258372D01*
X151069849Y-110852843D01*
X151165000Y-110374489D01*
X151165000Y-110325511D01*
X151121183Y-110105228D01*
X151229195Y-110105228D01*
X151305996Y-110300000D01*
X152405000Y-110300000D01*
X152405000Y-109201087D01*
X152505000Y-109201087D01*
X152505000Y-110300000D01*
X153604004Y-110300000D01*
X153680805Y-110105228D01*
X153493826Y-109654765D01*
X153148695Y-109310145D01*
X152699771Y-109124199D01*
X152505000Y-109201087D01*
X152405000Y-109201087D01*
X152210229Y-109124199D01*
X151761305Y-109310145D01*
X151416174Y-109654765D01*
X151229195Y-110105228D01*
X151121183Y-110105228D01*
X151069849Y-109847157D01*
X150798883Y-109441628D01*
X150440000Y-109201830D01*
X150440000Y-103702462D01*
X150717425Y-103425037D01*
X150813628Y-103425121D01*
X151071000Y-103318777D01*
X151268085Y-103122036D01*
X151374878Y-102864850D01*
X151375121Y-102586372D01*
X151268777Y-102329000D01*
X151072036Y-102131915D01*
X150814850Y-102025122D01*
X150536372Y-102024879D01*
X150279000Y-102131223D01*
X150081915Y-102327964D01*
X149975122Y-102585150D01*
X149975037Y-102682501D01*
X149543769Y-103113769D01*
X149429963Y-103284091D01*
X149390000Y-103485000D01*
X149390000Y-109201830D01*
X149031117Y-109441628D01*
X148760151Y-109847157D01*
X148665000Y-110325511D01*
X148665000Y-110374489D01*
X148760151Y-110852843D01*
X149031117Y-111258372D01*
X149056003Y-111275000D01*
X148233997Y-111275000D01*
X148258883Y-111258372D01*
X148529849Y-110852843D01*
X148625000Y-110374489D01*
X148625000Y-110325511D01*
X148529849Y-109847157D01*
X148258883Y-109441628D01*
X148082520Y-109323786D01*
X148085150Y-109324878D01*
X148363628Y-109325121D01*
X148621000Y-109218777D01*
X148818085Y-109022036D01*
X148924878Y-108764850D01*
X148925121Y-108486372D01*
X148818777Y-108229000D01*
X148750000Y-108160103D01*
X148750000Y-105814959D01*
X148843085Y-105722036D01*
X148949878Y-105464850D01*
X148950121Y-105186372D01*
X148843777Y-104929000D01*
X148647036Y-104731915D01*
X148389850Y-104625122D01*
X148111372Y-104624879D01*
X147854000Y-104731223D01*
X147656915Y-104927964D01*
X147550122Y-105185150D01*
X147549879Y-105463628D01*
X147656223Y-105721000D01*
X147700000Y-105764854D01*
X147700000Y-108159998D01*
X147631915Y-108227964D01*
X147525122Y-108485150D01*
X147524879Y-108763628D01*
X147631223Y-109021000D01*
X147762604Y-109152611D01*
X147709512Y-109142050D01*
X143800037Y-105232575D01*
X143800121Y-105136372D01*
X143693777Y-104879000D01*
X143497036Y-104681915D01*
X143239850Y-104575122D01*
X142961372Y-104574879D01*
X142820000Y-104633293D01*
X142820000Y-104122462D01*
X143542425Y-103400037D01*
X143638628Y-103400121D01*
X143896000Y-103293777D01*
X144093085Y-103097036D01*
X144199878Y-102839850D01*
X144200121Y-102561372D01*
X144093777Y-102304000D01*
X143897036Y-102106915D01*
X143639850Y-102000122D01*
X143361372Y-101999879D01*
X143104000Y-102106223D01*
X142906915Y-102302964D01*
X142800122Y-102560150D01*
X142800037Y-102657501D01*
X141923769Y-103533769D01*
X141809963Y-103704091D01*
X141770000Y-103905000D01*
X141770000Y-109201830D01*
X141411117Y-109441628D01*
X141225000Y-109720172D01*
X141225000Y-101975000D01*
X159525000Y-101975000D01*
X159525000Y-116325000D01*
X159525000Y-116325000D01*
G37*
X159525000Y-116325000D02*
X157475000Y-116325000D01*
X157475000Y-111750000D01*
X157438843Y-111568225D01*
X157335876Y-111414124D01*
X157181775Y-111311157D01*
X157000000Y-111275000D01*
X156237648Y-111275000D01*
X156252836Y-111200000D01*
X156252836Y-109500000D01*
X156224944Y-109351769D01*
X156137340Y-109215628D01*
X156003671Y-109124296D01*
X155845000Y-109092164D01*
X154145000Y-109092164D01*
X153996769Y-109120056D01*
X153860628Y-109207660D01*
X153769296Y-109341329D01*
X153737164Y-109500000D01*
X153737164Y-111200000D01*
X153751276Y-111275000D01*
X153263720Y-111275000D01*
X153493826Y-111045235D01*
X153680805Y-110594772D01*
X153604004Y-110400000D01*
X152505000Y-110400000D01*
X152505000Y-110420000D01*
X152405000Y-110420000D01*
X152405000Y-110400000D01*
X151305996Y-110400000D01*
X151229195Y-110594772D01*
X151416174Y-111045235D01*
X151646280Y-111275000D01*
X150773997Y-111275000D01*
X150798883Y-111258372D01*
X151069849Y-110852843D01*
X151165000Y-110374489D01*
X151165000Y-110325511D01*
X151121183Y-110105228D01*
X151229195Y-110105228D01*
X151305996Y-110300000D01*
X152405000Y-110300000D01*
X152405000Y-109201087D01*
X152505000Y-109201087D01*
X152505000Y-110300000D01*
X153604004Y-110300000D01*
X153680805Y-110105228D01*
X153493826Y-109654765D01*
X153148695Y-109310145D01*
X152699771Y-109124199D01*
X152505000Y-109201087D01*
X152405000Y-109201087D01*
X152210229Y-109124199D01*
X151761305Y-109310145D01*
X151416174Y-109654765D01*
X151229195Y-110105228D01*
X151121183Y-110105228D01*
X151069849Y-109847157D01*
X150798883Y-109441628D01*
X150440000Y-109201830D01*
X150440000Y-103702462D01*
X150717425Y-103425037D01*
X150813628Y-103425121D01*
X151071000Y-103318777D01*
X151268085Y-103122036D01*
X151374878Y-102864850D01*
X151375121Y-102586372D01*
X151268777Y-102329000D01*
X151072036Y-102131915D01*
X150814850Y-102025122D01*
X150536372Y-102024879D01*
X150279000Y-102131223D01*
X150081915Y-102327964D01*
X149975122Y-102585150D01*
X149975037Y-102682501D01*
X149543769Y-103113769D01*
X149429963Y-103284091D01*
X149390000Y-103485000D01*
X149390000Y-109201830D01*
X149031117Y-109441628D01*
X148760151Y-109847157D01*
X148665000Y-110325511D01*
X148665000Y-110374489D01*
X148760151Y-110852843D01*
X149031117Y-111258372D01*
X149056003Y-111275000D01*
X148233997Y-111275000D01*
X148258883Y-111258372D01*
X148529849Y-110852843D01*
X148625000Y-110374489D01*
X148625000Y-110325511D01*
X148529849Y-109847157D01*
X148258883Y-109441628D01*
X148082520Y-109323786D01*
X148085150Y-109324878D01*
X148363628Y-109325121D01*
X148621000Y-109218777D01*
X148818085Y-109022036D01*
X148924878Y-108764850D01*
X148925121Y-108486372D01*
X148818777Y-108229000D01*
X148750000Y-108160103D01*
X148750000Y-105814959D01*
X148843085Y-105722036D01*
X148949878Y-105464850D01*
X148950121Y-105186372D01*
X148843777Y-104929000D01*
X148647036Y-104731915D01*
X148389850Y-104625122D01*
X148111372Y-104624879D01*
X147854000Y-104731223D01*
X147656915Y-104927964D01*
X147550122Y-105185150D01*
X147549879Y-105463628D01*
X147656223Y-105721000D01*
X147700000Y-105764854D01*
X147700000Y-108159998D01*
X147631915Y-108227964D01*
X147525122Y-108485150D01*
X147524879Y-108763628D01*
X147631223Y-109021000D01*
X147762604Y-109152611D01*
X147709512Y-109142050D01*
X143800037Y-105232575D01*
X143800121Y-105136372D01*
X143693777Y-104879000D01*
X143497036Y-104681915D01*
X143239850Y-104575122D01*
X142961372Y-104574879D01*
X142820000Y-104633293D01*
X142820000Y-104122462D01*
X143542425Y-103400037D01*
X143638628Y-103400121D01*
X143896000Y-103293777D01*
X144093085Y-103097036D01*
X144199878Y-102839850D01*
X144200121Y-102561372D01*
X144093777Y-102304000D01*
X143897036Y-102106915D01*
X143639850Y-102000122D01*
X143361372Y-101999879D01*
X143104000Y-102106223D01*
X142906915Y-102302964D01*
X142800122Y-102560150D01*
X142800037Y-102657501D01*
X141923769Y-103533769D01*
X141809963Y-103704091D01*
X141770000Y-103905000D01*
X141770000Y-109201830D01*
X141411117Y-109441628D01*
X141225000Y-109720172D01*
X141225000Y-101975000D01*
X159525000Y-101975000D01*
X159525000Y-116325000D01*
M02*
