%TF.GenerationSoftware,KiCad,Pcbnew,4.0.4-stable*%
%TF.CreationDate,2017-05-07T06:05:31+03:00*%
%TF.ProjectId,atmega_isp_programming,61746D6567615F6973705F70726F6772,rev?*%
%TF.FileFunction,Copper,L2,Bot,Signal*%
%FSLAX46Y46*%
G04 Gerber Fmt 4.6, Leading zero omitted, Abs format (unit mm)*
G04 Created by KiCad (PCBNEW 4.0.4-stable) date 05/07/17 06:05:31*
%MOMM*%
%LPD*%
G01*
G04 APERTURE LIST*
%ADD10C,0.200000*%
%ADD11R,1.700000X1.700000*%
%ADD12O,1.700000X1.700000*%
%ADD13C,0.250000*%
G04 APERTURE END LIST*
D10*
D11*
X154995000Y-110350000D03*
D12*
X152455000Y-110350000D03*
X149915000Y-110350000D03*
X147375000Y-110350000D03*
X144835000Y-110350000D03*
X142295000Y-110350000D03*
D11*
X150740000Y-103200000D03*
D12*
X150740000Y-105740000D03*
X148200000Y-103200000D03*
X148200000Y-105740000D03*
X145660000Y-103200000D03*
X145660000Y-105740000D03*
D13*
X150740000Y-103200000D02*
X149500000Y-104440000D01*
X149500000Y-104440000D02*
X147360000Y-104440000D01*
X147360000Y-104440000D02*
X146950000Y-104850000D01*
X146950000Y-104850000D02*
X146950000Y-109925000D01*
X146950000Y-109925000D02*
X147375000Y-110350000D01*
X148200000Y-105740000D02*
X148200000Y-108635000D01*
X148200000Y-108635000D02*
X149915000Y-110350000D01*
D10*
G36*
X159525000Y-116325000D02*
X157475000Y-116325000D01*
X157475000Y-111750000D01*
X157438843Y-111568225D01*
X157335876Y-111414124D01*
X157181775Y-111311157D01*
X157000000Y-111275000D01*
X156237648Y-111275000D01*
X156252836Y-111200000D01*
X156252836Y-109500000D01*
X156224944Y-109351769D01*
X156137340Y-109215628D01*
X156003671Y-109124296D01*
X155845000Y-109092164D01*
X154145000Y-109092164D01*
X153996769Y-109120056D01*
X153860628Y-109207660D01*
X153769296Y-109341329D01*
X153737164Y-109500000D01*
X153737164Y-111200000D01*
X153751276Y-111275000D01*
X153263720Y-111275000D01*
X153493826Y-111045235D01*
X153680805Y-110594772D01*
X153604004Y-110400000D01*
X152505000Y-110400000D01*
X152505000Y-110420000D01*
X152405000Y-110420000D01*
X152405000Y-110400000D01*
X151305996Y-110400000D01*
X151229195Y-110594772D01*
X151416174Y-111045235D01*
X151646280Y-111275000D01*
X150773997Y-111275000D01*
X150798883Y-111258372D01*
X151069849Y-110852843D01*
X151165000Y-110374489D01*
X151165000Y-110325511D01*
X151121183Y-110105228D01*
X151229195Y-110105228D01*
X151305996Y-110300000D01*
X152405000Y-110300000D01*
X152405000Y-109201087D01*
X152505000Y-109201087D01*
X152505000Y-110300000D01*
X153604004Y-110300000D01*
X153680805Y-110105228D01*
X153493826Y-109654765D01*
X153148695Y-109310145D01*
X152699771Y-109124199D01*
X152505000Y-109201087D01*
X152405000Y-109201087D01*
X152210229Y-109124199D01*
X151761305Y-109310145D01*
X151416174Y-109654765D01*
X151229195Y-110105228D01*
X151121183Y-110105228D01*
X151069849Y-109847157D01*
X150798883Y-109441628D01*
X150393354Y-109170662D01*
X149915000Y-109075511D01*
X149471242Y-109163780D01*
X148725000Y-108417538D01*
X148725000Y-106888170D01*
X149083883Y-106648372D01*
X149354849Y-106242843D01*
X149450000Y-105764489D01*
X149450000Y-105715511D01*
X149490000Y-105715511D01*
X149490000Y-105764489D01*
X149585151Y-106242843D01*
X149856117Y-106648372D01*
X150261646Y-106919338D01*
X150740000Y-107014489D01*
X151218354Y-106919338D01*
X151623883Y-106648372D01*
X151894849Y-106242843D01*
X151990000Y-105764489D01*
X151990000Y-105715511D01*
X151894849Y-105237157D01*
X151623883Y-104831628D01*
X151218354Y-104560662D01*
X150740000Y-104465511D01*
X150261646Y-104560662D01*
X149856117Y-104831628D01*
X149585151Y-105237157D01*
X149490000Y-105715511D01*
X149450000Y-105715511D01*
X149354849Y-105237157D01*
X149172999Y-104965000D01*
X149500000Y-104965000D01*
X149700909Y-104925037D01*
X149871231Y-104811231D01*
X150224626Y-104457836D01*
X151590000Y-104457836D01*
X151738231Y-104429944D01*
X151874372Y-104342340D01*
X151965704Y-104208671D01*
X151997836Y-104050000D01*
X151997836Y-102350000D01*
X151969944Y-102201769D01*
X151882340Y-102065628D01*
X151749701Y-101975000D01*
X159525000Y-101975000D01*
X159525000Y-116325000D01*
X159525000Y-116325000D01*
G37*
X159525000Y-116325000D02*
X157475000Y-116325000D01*
X157475000Y-111750000D01*
X157438843Y-111568225D01*
X157335876Y-111414124D01*
X157181775Y-111311157D01*
X157000000Y-111275000D01*
X156237648Y-111275000D01*
X156252836Y-111200000D01*
X156252836Y-109500000D01*
X156224944Y-109351769D01*
X156137340Y-109215628D01*
X156003671Y-109124296D01*
X155845000Y-109092164D01*
X154145000Y-109092164D01*
X153996769Y-109120056D01*
X153860628Y-109207660D01*
X153769296Y-109341329D01*
X153737164Y-109500000D01*
X153737164Y-111200000D01*
X153751276Y-111275000D01*
X153263720Y-111275000D01*
X153493826Y-111045235D01*
X153680805Y-110594772D01*
X153604004Y-110400000D01*
X152505000Y-110400000D01*
X152505000Y-110420000D01*
X152405000Y-110420000D01*
X152405000Y-110400000D01*
X151305996Y-110400000D01*
X151229195Y-110594772D01*
X151416174Y-111045235D01*
X151646280Y-111275000D01*
X150773997Y-111275000D01*
X150798883Y-111258372D01*
X151069849Y-110852843D01*
X151165000Y-110374489D01*
X151165000Y-110325511D01*
X151121183Y-110105228D01*
X151229195Y-110105228D01*
X151305996Y-110300000D01*
X152405000Y-110300000D01*
X152405000Y-109201087D01*
X152505000Y-109201087D01*
X152505000Y-110300000D01*
X153604004Y-110300000D01*
X153680805Y-110105228D01*
X153493826Y-109654765D01*
X153148695Y-109310145D01*
X152699771Y-109124199D01*
X152505000Y-109201087D01*
X152405000Y-109201087D01*
X152210229Y-109124199D01*
X151761305Y-109310145D01*
X151416174Y-109654765D01*
X151229195Y-110105228D01*
X151121183Y-110105228D01*
X151069849Y-109847157D01*
X150798883Y-109441628D01*
X150393354Y-109170662D01*
X149915000Y-109075511D01*
X149471242Y-109163780D01*
X148725000Y-108417538D01*
X148725000Y-106888170D01*
X149083883Y-106648372D01*
X149354849Y-106242843D01*
X149450000Y-105764489D01*
X149450000Y-105715511D01*
X149490000Y-105715511D01*
X149490000Y-105764489D01*
X149585151Y-106242843D01*
X149856117Y-106648372D01*
X150261646Y-106919338D01*
X150740000Y-107014489D01*
X151218354Y-106919338D01*
X151623883Y-106648372D01*
X151894849Y-106242843D01*
X151990000Y-105764489D01*
X151990000Y-105715511D01*
X151894849Y-105237157D01*
X151623883Y-104831628D01*
X151218354Y-104560662D01*
X150740000Y-104465511D01*
X150261646Y-104560662D01*
X149856117Y-104831628D01*
X149585151Y-105237157D01*
X149490000Y-105715511D01*
X149450000Y-105715511D01*
X149354849Y-105237157D01*
X149172999Y-104965000D01*
X149500000Y-104965000D01*
X149700909Y-104925037D01*
X149871231Y-104811231D01*
X150224626Y-104457836D01*
X151590000Y-104457836D01*
X151738231Y-104429944D01*
X151874372Y-104342340D01*
X151965704Y-104208671D01*
X151997836Y-104050000D01*
X151997836Y-102350000D01*
X151969944Y-102201769D01*
X151882340Y-102065628D01*
X151749701Y-101975000D01*
X159525000Y-101975000D01*
X159525000Y-116325000D01*
G36*
X145181646Y-102020662D02*
X144776117Y-102291628D01*
X144505151Y-102697157D01*
X144410000Y-103175511D01*
X144410000Y-103224489D01*
X144505151Y-103702843D01*
X144776117Y-104108372D01*
X145181646Y-104379338D01*
X145660000Y-104474489D01*
X146138354Y-104379338D01*
X146543883Y-104108372D01*
X146814849Y-103702843D01*
X146910000Y-103224489D01*
X146910000Y-103175511D01*
X146814849Y-102697157D01*
X146543883Y-102291628D01*
X146138354Y-102020662D01*
X145908797Y-101975000D01*
X147951203Y-101975000D01*
X147721646Y-102020662D01*
X147316117Y-102291628D01*
X147045151Y-102697157D01*
X146950000Y-103175511D01*
X146950000Y-103224489D01*
X147045151Y-103702843D01*
X147207216Y-103945390D01*
X147159091Y-103954963D01*
X146988769Y-104068769D01*
X146578769Y-104478769D01*
X146464963Y-104649091D01*
X146438053Y-104784378D01*
X146353695Y-104700145D01*
X145904771Y-104514199D01*
X145710000Y-104591087D01*
X145710000Y-105690000D01*
X145730000Y-105690000D01*
X145730000Y-105790000D01*
X145710000Y-105790000D01*
X145710000Y-106888913D01*
X145904771Y-106965801D01*
X146353695Y-106779855D01*
X146425000Y-106708656D01*
X146425000Y-109540579D01*
X146220151Y-109847157D01*
X146125000Y-110325511D01*
X146125000Y-110374489D01*
X146220151Y-110852843D01*
X146491117Y-111258372D01*
X146516003Y-111275000D01*
X145693997Y-111275000D01*
X145718883Y-111258372D01*
X145989849Y-110852843D01*
X146085000Y-110374489D01*
X146085000Y-110325511D01*
X145989849Y-109847157D01*
X145718883Y-109441628D01*
X145313354Y-109170662D01*
X144835000Y-109075511D01*
X144356646Y-109170662D01*
X143951117Y-109441628D01*
X143680151Y-109847157D01*
X143585000Y-110325511D01*
X143585000Y-110374489D01*
X143680151Y-110852843D01*
X143951117Y-111258372D01*
X143976003Y-111275000D01*
X143153997Y-111275000D01*
X143178883Y-111258372D01*
X143449849Y-110852843D01*
X143545000Y-110374489D01*
X143545000Y-110325511D01*
X143449849Y-109847157D01*
X143178883Y-109441628D01*
X142773354Y-109170662D01*
X142295000Y-109075511D01*
X141816646Y-109170662D01*
X141411117Y-109441628D01*
X141225000Y-109720172D01*
X141225000Y-105984772D01*
X144434195Y-105984772D01*
X144621174Y-106435235D01*
X144966305Y-106779855D01*
X145415229Y-106965801D01*
X145610000Y-106888913D01*
X145610000Y-105790000D01*
X144510996Y-105790000D01*
X144434195Y-105984772D01*
X141225000Y-105984772D01*
X141225000Y-105495228D01*
X144434195Y-105495228D01*
X144510996Y-105690000D01*
X145610000Y-105690000D01*
X145610000Y-104591087D01*
X145415229Y-104514199D01*
X144966305Y-104700145D01*
X144621174Y-105044765D01*
X144434195Y-105495228D01*
X141225000Y-105495228D01*
X141225000Y-101975000D01*
X145411203Y-101975000D01*
X145181646Y-102020662D01*
X145181646Y-102020662D01*
G37*
X145181646Y-102020662D02*
X144776117Y-102291628D01*
X144505151Y-102697157D01*
X144410000Y-103175511D01*
X144410000Y-103224489D01*
X144505151Y-103702843D01*
X144776117Y-104108372D01*
X145181646Y-104379338D01*
X145660000Y-104474489D01*
X146138354Y-104379338D01*
X146543883Y-104108372D01*
X146814849Y-103702843D01*
X146910000Y-103224489D01*
X146910000Y-103175511D01*
X146814849Y-102697157D01*
X146543883Y-102291628D01*
X146138354Y-102020662D01*
X145908797Y-101975000D01*
X147951203Y-101975000D01*
X147721646Y-102020662D01*
X147316117Y-102291628D01*
X147045151Y-102697157D01*
X146950000Y-103175511D01*
X146950000Y-103224489D01*
X147045151Y-103702843D01*
X147207216Y-103945390D01*
X147159091Y-103954963D01*
X146988769Y-104068769D01*
X146578769Y-104478769D01*
X146464963Y-104649091D01*
X146438053Y-104784378D01*
X146353695Y-104700145D01*
X145904771Y-104514199D01*
X145710000Y-104591087D01*
X145710000Y-105690000D01*
X145730000Y-105690000D01*
X145730000Y-105790000D01*
X145710000Y-105790000D01*
X145710000Y-106888913D01*
X145904771Y-106965801D01*
X146353695Y-106779855D01*
X146425000Y-106708656D01*
X146425000Y-109540579D01*
X146220151Y-109847157D01*
X146125000Y-110325511D01*
X146125000Y-110374489D01*
X146220151Y-110852843D01*
X146491117Y-111258372D01*
X146516003Y-111275000D01*
X145693997Y-111275000D01*
X145718883Y-111258372D01*
X145989849Y-110852843D01*
X146085000Y-110374489D01*
X146085000Y-110325511D01*
X145989849Y-109847157D01*
X145718883Y-109441628D01*
X145313354Y-109170662D01*
X144835000Y-109075511D01*
X144356646Y-109170662D01*
X143951117Y-109441628D01*
X143680151Y-109847157D01*
X143585000Y-110325511D01*
X143585000Y-110374489D01*
X143680151Y-110852843D01*
X143951117Y-111258372D01*
X143976003Y-111275000D01*
X143153997Y-111275000D01*
X143178883Y-111258372D01*
X143449849Y-110852843D01*
X143545000Y-110374489D01*
X143545000Y-110325511D01*
X143449849Y-109847157D01*
X143178883Y-109441628D01*
X142773354Y-109170662D01*
X142295000Y-109075511D01*
X141816646Y-109170662D01*
X141411117Y-109441628D01*
X141225000Y-109720172D01*
X141225000Y-105984772D01*
X144434195Y-105984772D01*
X144621174Y-106435235D01*
X144966305Y-106779855D01*
X145415229Y-106965801D01*
X145610000Y-106888913D01*
X145610000Y-105790000D01*
X144510996Y-105790000D01*
X144434195Y-105984772D01*
X141225000Y-105984772D01*
X141225000Y-105495228D01*
X144434195Y-105495228D01*
X144510996Y-105690000D01*
X145610000Y-105690000D01*
X145610000Y-104591087D01*
X145415229Y-104514199D01*
X144966305Y-104700145D01*
X144621174Y-105044765D01*
X144434195Y-105495228D01*
X141225000Y-105495228D01*
X141225000Y-101975000D01*
X145411203Y-101975000D01*
X145181646Y-102020662D01*
M02*
