%TF.GenerationSoftware,KiCad,Pcbnew,4.0.6*%
%TF.CreationDate,2017-07-08T13:22:26+03:00*%
%TF.ProjectId,crypto-eeprom,63727970746F2D656570726F6D2E6B69,rev?*%
%TF.FileFunction,Legend,Bot*%
%FSLAX46Y46*%
G04 Gerber Fmt 4.6, Leading zero omitted, Abs format (unit mm)*
G04 Created by KiCad (PCBNEW 4.0.6) date 07/08/17 13:22:26*
%MOMM*%
%LPD*%
G01*
G04 APERTURE LIST*
%ADD10C,0.100000*%
%ADD11C,0.200000*%
G04 APERTURE END LIST*
D10*
D11*
X143528572Y-108400000D02*
X144100001Y-108400000D01*
X143414287Y-107971429D02*
X143814287Y-109471429D01*
X144214287Y-107971429D01*
X144442858Y-109471429D02*
X145128572Y-109471429D01*
X144785715Y-107971429D02*
X144785715Y-109471429D01*
X145471429Y-108042857D02*
X145642858Y-107971429D01*
X145928572Y-107971429D01*
X146042858Y-108042857D01*
X146100001Y-108114286D01*
X146157144Y-108257143D01*
X146157144Y-108400000D01*
X146100001Y-108542857D01*
X146042858Y-108614286D01*
X145928572Y-108685714D01*
X145700001Y-108757143D01*
X145585715Y-108828571D01*
X145528572Y-108900000D01*
X145471429Y-109042857D01*
X145471429Y-109185714D01*
X145528572Y-109328571D01*
X145585715Y-109400000D01*
X145700001Y-109471429D01*
X145985715Y-109471429D01*
X146157144Y-109400000D01*
X146671429Y-107971429D02*
X146671429Y-109471429D01*
X146671429Y-108757143D02*
X147357144Y-108757143D01*
X147357144Y-107971429D02*
X147357144Y-109471429D01*
X147871429Y-108400000D02*
X148442858Y-108400000D01*
X147757144Y-107971429D02*
X148157144Y-109471429D01*
X148557144Y-107971429D01*
X148900000Y-109328571D02*
X148957143Y-109400000D01*
X149071429Y-109471429D01*
X149357143Y-109471429D01*
X149471429Y-109400000D01*
X149528572Y-109328571D01*
X149585715Y-109185714D01*
X149585715Y-109042857D01*
X149528572Y-108828571D01*
X148842858Y-107971429D01*
X149585715Y-107971429D01*
X150328572Y-109471429D02*
X150442857Y-109471429D01*
X150557143Y-109400000D01*
X150614286Y-109328571D01*
X150671429Y-109185714D01*
X150728572Y-108900000D01*
X150728572Y-108542857D01*
X150671429Y-108257143D01*
X150614286Y-108114286D01*
X150557143Y-108042857D01*
X150442857Y-107971429D01*
X150328572Y-107971429D01*
X150214286Y-108042857D01*
X150157143Y-108114286D01*
X150100000Y-108257143D01*
X150042857Y-108542857D01*
X150042857Y-108900000D01*
X150100000Y-109185714D01*
X150157143Y-109328571D01*
X150214286Y-109400000D01*
X150328572Y-109471429D01*
X151757143Y-108971429D02*
X151757143Y-107971429D01*
X151471429Y-109542857D02*
X151185714Y-108471429D01*
X151928572Y-108471429D01*
X143128573Y-107021429D02*
X143928573Y-107021429D01*
X143128573Y-105521429D01*
X143928573Y-105521429D01*
X144842858Y-105592857D02*
X144728572Y-105521429D01*
X144500001Y-105521429D01*
X144385715Y-105592857D01*
X144328572Y-105735714D01*
X144328572Y-106307143D01*
X144385715Y-106450000D01*
X144500001Y-106521429D01*
X144728572Y-106521429D01*
X144842858Y-106450000D01*
X144900001Y-106307143D01*
X144900001Y-106164286D01*
X144328572Y-106021429D01*
X145414286Y-105521429D02*
X145414286Y-106521429D01*
X145414286Y-106235714D02*
X145471429Y-106378571D01*
X145528572Y-106450000D01*
X145642858Y-106521429D01*
X145757143Y-106521429D01*
X146328572Y-105521429D02*
X146214286Y-105592857D01*
X146157143Y-105664286D01*
X146100000Y-105807143D01*
X146100000Y-106235714D01*
X146157143Y-106378571D01*
X146214286Y-106450000D01*
X146328572Y-106521429D01*
X146500000Y-106521429D01*
X146614286Y-106450000D01*
X146671429Y-106378571D01*
X146728572Y-106235714D01*
X146728572Y-105807143D01*
X146671429Y-105664286D01*
X146614286Y-105592857D01*
X146500000Y-105521429D01*
X146328572Y-105521429D01*
X147242857Y-105521429D02*
X147242857Y-107021429D01*
X147700000Y-107021429D01*
X147814286Y-106950000D01*
X147871429Y-106878571D01*
X147928572Y-106735714D01*
X147928572Y-106521429D01*
X147871429Y-106378571D01*
X147814286Y-106307143D01*
X147700000Y-106235714D01*
X147242857Y-106235714D01*
X148442857Y-105521429D02*
X148442857Y-107021429D01*
X148957143Y-105521429D02*
X148957143Y-106307143D01*
X148900000Y-106450000D01*
X148785714Y-106521429D01*
X148614286Y-106521429D01*
X148500000Y-106450000D01*
X148442857Y-106378571D01*
X149700000Y-105521429D02*
X149585714Y-105592857D01*
X149528571Y-105664286D01*
X149471428Y-105807143D01*
X149471428Y-106235714D01*
X149528571Y-106378571D01*
X149585714Y-106450000D01*
X149700000Y-106521429D01*
X149871428Y-106521429D01*
X149985714Y-106450000D01*
X150042857Y-106378571D01*
X150100000Y-106235714D01*
X150100000Y-105807143D01*
X150042857Y-105664286D01*
X149985714Y-105592857D01*
X149871428Y-105521429D01*
X149700000Y-105521429D01*
X150614285Y-106521429D02*
X150614285Y-105521429D01*
X150614285Y-106378571D02*
X150671428Y-106450000D01*
X150785714Y-106521429D01*
X150957142Y-106521429D01*
X151071428Y-106450000D01*
X151128571Y-106307143D01*
X151128571Y-105521429D01*
X152157142Y-105592857D02*
X152042856Y-105521429D01*
X151814285Y-105521429D01*
X151699999Y-105592857D01*
X151642856Y-105735714D01*
X151642856Y-106307143D01*
X151699999Y-106450000D01*
X151814285Y-106521429D01*
X152042856Y-106521429D01*
X152157142Y-106450000D01*
X152214285Y-106307143D01*
X152214285Y-106164286D01*
X151642856Y-106021429D01*
X145642857Y-103071429D02*
X145642857Y-104071429D01*
X145642857Y-103928571D02*
X145700000Y-104000000D01*
X145814286Y-104071429D01*
X145985714Y-104071429D01*
X146100000Y-104000000D01*
X146157143Y-103857143D01*
X146157143Y-103071429D01*
X146157143Y-103857143D02*
X146214286Y-104000000D01*
X146328572Y-104071429D01*
X146500000Y-104071429D01*
X146614286Y-104000000D01*
X146671429Y-103857143D01*
X146671429Y-103071429D01*
X147414286Y-103071429D02*
X147300000Y-103142857D01*
X147242857Y-103214286D01*
X147185714Y-103357143D01*
X147185714Y-103785714D01*
X147242857Y-103928571D01*
X147300000Y-104000000D01*
X147414286Y-104071429D01*
X147585714Y-104071429D01*
X147700000Y-104000000D01*
X147757143Y-103928571D01*
X147814286Y-103785714D01*
X147814286Y-103357143D01*
X147757143Y-103214286D01*
X147700000Y-103142857D01*
X147585714Y-103071429D01*
X147414286Y-103071429D01*
X148842857Y-103071429D02*
X148842857Y-104571429D01*
X148842857Y-103142857D02*
X148728571Y-103071429D01*
X148500000Y-103071429D01*
X148385714Y-103142857D01*
X148328571Y-103214286D01*
X148271428Y-103357143D01*
X148271428Y-103785714D01*
X148328571Y-103928571D01*
X148385714Y-104000000D01*
X148500000Y-104071429D01*
X148728571Y-104071429D01*
X148842857Y-104000000D01*
M02*
