%TF.GenerationSoftware,KiCad,Pcbnew,4.0.6*%
%TF.CreationDate,2017-07-08T13:22:26+03:00*%
%TF.ProjectId,crypto-eeprom,63727970746F2D656570726F6D2E6B69,rev?*%
%TF.FileFunction,Copper,L1,Top,Signal*%
%FSLAX46Y46*%
G04 Gerber Fmt 4.6, Leading zero omitted, Abs format (unit mm)*
G04 Created by KiCad (PCBNEW 4.0.6) date 07/08/17 13:22:26*
%MOMM*%
%LPD*%
G01*
G04 APERTURE LIST*
%ADD10C,0.100000*%
%ADD11R,1.200000X0.750000*%
%ADD12R,1.700000X1.700000*%
%ADD13O,1.700000X1.700000*%
%ADD14R,1.550000X0.600000*%
%ADD15C,1.000000*%
%ADD16C,0.250000*%
%ADD17C,0.160000*%
G04 APERTURE END LIST*
D10*
D11*
X149200000Y-103500000D03*
X147300000Y-103500000D03*
D12*
X153370000Y-111500000D03*
D13*
X150830000Y-111500000D03*
X148290000Y-111500000D03*
X145750000Y-111500000D03*
X143210000Y-111500000D03*
D14*
X145500000Y-104940000D03*
X145500000Y-106210000D03*
X145500000Y-107480000D03*
X145500000Y-108750000D03*
X150900000Y-108750000D03*
X150900000Y-107480000D03*
X150900000Y-106210000D03*
X150900000Y-104940000D03*
D15*
X149200000Y-103500000D02*
X149460000Y-103500000D01*
X149460000Y-103500000D02*
X150900000Y-104940000D01*
X148500000Y-102250000D02*
X149200000Y-102950000D01*
X149200000Y-102950000D02*
X149200000Y-103500000D01*
X145854998Y-102250000D02*
X148500000Y-102250000D01*
X143210000Y-111500000D02*
X143210000Y-104894998D01*
X143210000Y-104894998D02*
X145854998Y-102250000D01*
D16*
X145750000Y-111500000D02*
X145750000Y-109000000D01*
X145750000Y-109000000D02*
X145500000Y-108750000D01*
X152250000Y-107750000D02*
X151980000Y-107480000D01*
X151980000Y-107480000D02*
X150900000Y-107480000D01*
X152250000Y-110080000D02*
X152250000Y-107750000D01*
X150830000Y-111500000D02*
X152250000Y-110080000D01*
X149500000Y-108750000D02*
X148290000Y-109960000D01*
X148290000Y-109960000D02*
X148290000Y-111500000D01*
X150900000Y-108750000D02*
X149500000Y-108750000D01*
D17*
G36*
X146370000Y-103247500D02*
X146452500Y-103330000D01*
X147130000Y-103330000D01*
X147130000Y-103310000D01*
X147470000Y-103310000D01*
X147470000Y-103330000D01*
X148147500Y-103330000D01*
X148230000Y-103247500D01*
X148230000Y-103153798D01*
X148263535Y-103187332D01*
X148263535Y-103875000D01*
X148286546Y-103997291D01*
X148358819Y-104109607D01*
X148469096Y-104184956D01*
X148600000Y-104211465D01*
X148799528Y-104211465D01*
X148882373Y-104266820D01*
X149095395Y-104309193D01*
X149788535Y-105002332D01*
X149788535Y-105240000D01*
X149811546Y-105362291D01*
X149883819Y-105474607D01*
X149994096Y-105549956D01*
X150117500Y-105574946D01*
X150002709Y-105596546D01*
X149890393Y-105668819D01*
X149815044Y-105779096D01*
X149788535Y-105910000D01*
X149788535Y-106510000D01*
X149811546Y-106632291D01*
X149883819Y-106744607D01*
X149994096Y-106819956D01*
X150117500Y-106844946D01*
X150002709Y-106866546D01*
X149890393Y-106938819D01*
X149815044Y-107049096D01*
X149788535Y-107180000D01*
X149788535Y-107780000D01*
X149811546Y-107902291D01*
X149883819Y-108014607D01*
X149994096Y-108089956D01*
X150117500Y-108114946D01*
X150002709Y-108136546D01*
X149890393Y-108208819D01*
X149831508Y-108295000D01*
X149500000Y-108295000D01*
X149325879Y-108329635D01*
X149178266Y-108428266D01*
X149178264Y-108428269D01*
X147968266Y-109638266D01*
X147869635Y-109785879D01*
X147834999Y-109960000D01*
X147835000Y-109960005D01*
X147835000Y-110388999D01*
X147455614Y-110642496D01*
X147199822Y-111025316D01*
X147185961Y-111095000D01*
X146847145Y-111095000D01*
X146656809Y-110744927D01*
X146298828Y-110455383D01*
X146100574Y-110373280D01*
X145920000Y-110415746D01*
X145920000Y-111095000D01*
X145580000Y-111095000D01*
X145580000Y-110415746D01*
X145399426Y-110373280D01*
X145201172Y-110455383D01*
X144843191Y-110744927D01*
X144652855Y-111095000D01*
X144314039Y-111095000D01*
X144300178Y-111025316D01*
X144044386Y-110642496D01*
X144040000Y-110639565D01*
X144040000Y-108982500D01*
X144395000Y-108982500D01*
X144395000Y-109115641D01*
X144445240Y-109236930D01*
X144538070Y-109329761D01*
X144659359Y-109380000D01*
X145247500Y-109380000D01*
X145330000Y-109297500D01*
X145330000Y-108900000D01*
X145670000Y-108900000D01*
X145670000Y-109297500D01*
X145752500Y-109380000D01*
X146340641Y-109380000D01*
X146461930Y-109329761D01*
X146554760Y-109236930D01*
X146605000Y-109115641D01*
X146605000Y-108982500D01*
X146522500Y-108900000D01*
X145670000Y-108900000D01*
X145330000Y-108900000D01*
X144477500Y-108900000D01*
X144395000Y-108982500D01*
X144040000Y-108982500D01*
X144040000Y-108384359D01*
X144395000Y-108384359D01*
X144395000Y-108517500D01*
X144477500Y-108600000D01*
X145330000Y-108600000D01*
X145330000Y-108202500D01*
X145670000Y-108202500D01*
X145670000Y-108600000D01*
X146522500Y-108600000D01*
X146605000Y-108517500D01*
X146605000Y-108384359D01*
X146554760Y-108263070D01*
X146461930Y-108170239D01*
X146340641Y-108120000D01*
X145752500Y-108120000D01*
X145670000Y-108202500D01*
X145330000Y-108202500D01*
X145247500Y-108120000D01*
X144659359Y-108120000D01*
X144538070Y-108170239D01*
X144445240Y-108263070D01*
X144395000Y-108384359D01*
X144040000Y-108384359D01*
X144040000Y-105238796D01*
X144388535Y-104890261D01*
X144388535Y-105240000D01*
X144411546Y-105362291D01*
X144483819Y-105474607D01*
X144594096Y-105549956D01*
X144717500Y-105574946D01*
X144602709Y-105596546D01*
X144490393Y-105668819D01*
X144415044Y-105779096D01*
X144388535Y-105910000D01*
X144388535Y-106510000D01*
X144411546Y-106632291D01*
X144483819Y-106744607D01*
X144594096Y-106819956D01*
X144717500Y-106844946D01*
X144602709Y-106866546D01*
X144490393Y-106938819D01*
X144415044Y-107049096D01*
X144388535Y-107180000D01*
X144388535Y-107780000D01*
X144411546Y-107902291D01*
X144483819Y-108014607D01*
X144594096Y-108089956D01*
X144725000Y-108116465D01*
X146275000Y-108116465D01*
X146397291Y-108093454D01*
X146509607Y-108021181D01*
X146584956Y-107910904D01*
X146611465Y-107780000D01*
X146611465Y-107180000D01*
X146588454Y-107057709D01*
X146516181Y-106945393D01*
X146405904Y-106870044D01*
X146282500Y-106845054D01*
X146397291Y-106823454D01*
X146509607Y-106751181D01*
X146584956Y-106640904D01*
X146611465Y-106510000D01*
X146611465Y-105910000D01*
X146588454Y-105787709D01*
X146516181Y-105675393D01*
X146405904Y-105600044D01*
X146282500Y-105575054D01*
X146397291Y-105553454D01*
X146509607Y-105481181D01*
X146584956Y-105370904D01*
X146611465Y-105240000D01*
X146611465Y-104640000D01*
X146588454Y-104517709D01*
X146516181Y-104405393D01*
X146405904Y-104330044D01*
X146275000Y-104303535D01*
X144975261Y-104303535D01*
X145526296Y-103752500D01*
X146370000Y-103752500D01*
X146370000Y-103940641D01*
X146420240Y-104061930D01*
X146513070Y-104154761D01*
X146634359Y-104205000D01*
X147047500Y-104205000D01*
X147130000Y-104122500D01*
X147130000Y-103670000D01*
X147470000Y-103670000D01*
X147470000Y-104122500D01*
X147552500Y-104205000D01*
X147965641Y-104205000D01*
X148086930Y-104154761D01*
X148179760Y-104061930D01*
X148230000Y-103940641D01*
X148230000Y-103752500D01*
X148147500Y-103670000D01*
X147470000Y-103670000D01*
X147130000Y-103670000D01*
X146452500Y-103670000D01*
X146370000Y-103752500D01*
X145526296Y-103752500D01*
X146198796Y-103080000D01*
X146370000Y-103080000D01*
X146370000Y-103247500D01*
X146370000Y-103247500D01*
G37*
X146370000Y-103247500D02*
X146452500Y-103330000D01*
X147130000Y-103330000D01*
X147130000Y-103310000D01*
X147470000Y-103310000D01*
X147470000Y-103330000D01*
X148147500Y-103330000D01*
X148230000Y-103247500D01*
X148230000Y-103153798D01*
X148263535Y-103187332D01*
X148263535Y-103875000D01*
X148286546Y-103997291D01*
X148358819Y-104109607D01*
X148469096Y-104184956D01*
X148600000Y-104211465D01*
X148799528Y-104211465D01*
X148882373Y-104266820D01*
X149095395Y-104309193D01*
X149788535Y-105002332D01*
X149788535Y-105240000D01*
X149811546Y-105362291D01*
X149883819Y-105474607D01*
X149994096Y-105549956D01*
X150117500Y-105574946D01*
X150002709Y-105596546D01*
X149890393Y-105668819D01*
X149815044Y-105779096D01*
X149788535Y-105910000D01*
X149788535Y-106510000D01*
X149811546Y-106632291D01*
X149883819Y-106744607D01*
X149994096Y-106819956D01*
X150117500Y-106844946D01*
X150002709Y-106866546D01*
X149890393Y-106938819D01*
X149815044Y-107049096D01*
X149788535Y-107180000D01*
X149788535Y-107780000D01*
X149811546Y-107902291D01*
X149883819Y-108014607D01*
X149994096Y-108089956D01*
X150117500Y-108114946D01*
X150002709Y-108136546D01*
X149890393Y-108208819D01*
X149831508Y-108295000D01*
X149500000Y-108295000D01*
X149325879Y-108329635D01*
X149178266Y-108428266D01*
X149178264Y-108428269D01*
X147968266Y-109638266D01*
X147869635Y-109785879D01*
X147834999Y-109960000D01*
X147835000Y-109960005D01*
X147835000Y-110388999D01*
X147455614Y-110642496D01*
X147199822Y-111025316D01*
X147185961Y-111095000D01*
X146847145Y-111095000D01*
X146656809Y-110744927D01*
X146298828Y-110455383D01*
X146100574Y-110373280D01*
X145920000Y-110415746D01*
X145920000Y-111095000D01*
X145580000Y-111095000D01*
X145580000Y-110415746D01*
X145399426Y-110373280D01*
X145201172Y-110455383D01*
X144843191Y-110744927D01*
X144652855Y-111095000D01*
X144314039Y-111095000D01*
X144300178Y-111025316D01*
X144044386Y-110642496D01*
X144040000Y-110639565D01*
X144040000Y-108982500D01*
X144395000Y-108982500D01*
X144395000Y-109115641D01*
X144445240Y-109236930D01*
X144538070Y-109329761D01*
X144659359Y-109380000D01*
X145247500Y-109380000D01*
X145330000Y-109297500D01*
X145330000Y-108900000D01*
X145670000Y-108900000D01*
X145670000Y-109297500D01*
X145752500Y-109380000D01*
X146340641Y-109380000D01*
X146461930Y-109329761D01*
X146554760Y-109236930D01*
X146605000Y-109115641D01*
X146605000Y-108982500D01*
X146522500Y-108900000D01*
X145670000Y-108900000D01*
X145330000Y-108900000D01*
X144477500Y-108900000D01*
X144395000Y-108982500D01*
X144040000Y-108982500D01*
X144040000Y-108384359D01*
X144395000Y-108384359D01*
X144395000Y-108517500D01*
X144477500Y-108600000D01*
X145330000Y-108600000D01*
X145330000Y-108202500D01*
X145670000Y-108202500D01*
X145670000Y-108600000D01*
X146522500Y-108600000D01*
X146605000Y-108517500D01*
X146605000Y-108384359D01*
X146554760Y-108263070D01*
X146461930Y-108170239D01*
X146340641Y-108120000D01*
X145752500Y-108120000D01*
X145670000Y-108202500D01*
X145330000Y-108202500D01*
X145247500Y-108120000D01*
X144659359Y-108120000D01*
X144538070Y-108170239D01*
X144445240Y-108263070D01*
X144395000Y-108384359D01*
X144040000Y-108384359D01*
X144040000Y-105238796D01*
X144388535Y-104890261D01*
X144388535Y-105240000D01*
X144411546Y-105362291D01*
X144483819Y-105474607D01*
X144594096Y-105549956D01*
X144717500Y-105574946D01*
X144602709Y-105596546D01*
X144490393Y-105668819D01*
X144415044Y-105779096D01*
X144388535Y-105910000D01*
X144388535Y-106510000D01*
X144411546Y-106632291D01*
X144483819Y-106744607D01*
X144594096Y-106819956D01*
X144717500Y-106844946D01*
X144602709Y-106866546D01*
X144490393Y-106938819D01*
X144415044Y-107049096D01*
X144388535Y-107180000D01*
X144388535Y-107780000D01*
X144411546Y-107902291D01*
X144483819Y-108014607D01*
X144594096Y-108089956D01*
X144725000Y-108116465D01*
X146275000Y-108116465D01*
X146397291Y-108093454D01*
X146509607Y-108021181D01*
X146584956Y-107910904D01*
X146611465Y-107780000D01*
X146611465Y-107180000D01*
X146588454Y-107057709D01*
X146516181Y-106945393D01*
X146405904Y-106870044D01*
X146282500Y-106845054D01*
X146397291Y-106823454D01*
X146509607Y-106751181D01*
X146584956Y-106640904D01*
X146611465Y-106510000D01*
X146611465Y-105910000D01*
X146588454Y-105787709D01*
X146516181Y-105675393D01*
X146405904Y-105600044D01*
X146282500Y-105575054D01*
X146397291Y-105553454D01*
X146509607Y-105481181D01*
X146584956Y-105370904D01*
X146611465Y-105240000D01*
X146611465Y-104640000D01*
X146588454Y-104517709D01*
X146516181Y-104405393D01*
X146405904Y-104330044D01*
X146275000Y-104303535D01*
X144975261Y-104303535D01*
X145526296Y-103752500D01*
X146370000Y-103752500D01*
X146370000Y-103940641D01*
X146420240Y-104061930D01*
X146513070Y-104154761D01*
X146634359Y-104205000D01*
X147047500Y-104205000D01*
X147130000Y-104122500D01*
X147130000Y-103670000D01*
X147470000Y-103670000D01*
X147470000Y-104122500D01*
X147552500Y-104205000D01*
X147965641Y-104205000D01*
X148086930Y-104154761D01*
X148179760Y-104061930D01*
X148230000Y-103940641D01*
X148230000Y-103752500D01*
X148147500Y-103670000D01*
X147470000Y-103670000D01*
X147130000Y-103670000D01*
X146452500Y-103670000D01*
X146370000Y-103752500D01*
X145526296Y-103752500D01*
X146198796Y-103080000D01*
X146370000Y-103080000D01*
X146370000Y-103247500D01*
M02*
