%MOIN*%
%OFA0B0*%
%FSLAX44Y44*%
%IPPOS*%
%LPD*%
%ADD10C,0*%
D10*
X00001204Y00000810D02*
X00001204Y00000810D01*
X00001199Y00000719D01*
X00001175Y00000632D01*
X00001133Y00000553D01*
X00001074Y00000484D01*
X00001002Y00000429D01*
X00000920Y00000391D01*
X00000832Y00000372D01*
X00000742Y00000372D01*
X00000654Y00000391D01*
X00000572Y00000429D01*
X00000500Y00000484D01*
X00000441Y00000553D01*
X00000399Y00000632D01*
X00000375Y00000719D01*
X00000370Y00000810D01*
X00000385Y00000899D01*
X00000418Y00000982D01*
X00000469Y00001057D01*
X00000534Y00001119D01*
X00000612Y00001166D01*
X00000697Y00001195D01*
X00000787Y00001204D01*
X00000877Y00001195D01*
X00000962Y00001166D01*
X00001040Y00001119D01*
X00001105Y00001057D01*
X00001156Y00000982D01*
X00001189Y00000899D01*
X00001204Y00000810D01*
X00027236Y00000807D02*
X00027236Y00000807D01*
X00027109Y00000814D01*
X00026986Y00000849D01*
X00026873Y00000908D01*
X00026775Y00000991D01*
X00026698Y00001093D01*
X00026645Y00001209D01*
X00026617Y00001333D01*
X00026617Y00001461D01*
X00026645Y00001586D01*
X00026698Y00001702D01*
X00026775Y00001803D01*
X00026873Y00001886D01*
X00026986Y00001946D01*
X00027109Y00001980D01*
X00027236Y00001987D01*
X00027362Y00001966D01*
X00027481Y00001919D01*
X00027587Y00001847D01*
X00027674Y00001755D01*
X00027740Y00001645D01*
X00027781Y00001524D01*
X00027795Y00001397D01*
X00027781Y00001270D01*
X00027740Y00001149D01*
X00027674Y00001040D01*
X00027587Y00000947D01*
X00027481Y00000875D01*
X00027362Y00000828D01*
X00027236Y00000807D01*
X00036226Y00000807D02*
X00036226Y00000807D01*
X00036099Y00000814D01*
X00035976Y00000849D01*
X00035863Y00000908D01*
X00035766Y00000991D01*
X00035688Y00001093D01*
X00035635Y00001209D01*
X00035607Y00001333D01*
X00035607Y00001461D01*
X00035635Y00001586D01*
X00035688Y00001702D01*
X00035766Y00001803D01*
X00035863Y00001886D01*
X00035976Y00001946D01*
X00036099Y00001980D01*
X00036226Y00001987D01*
X00036352Y00001966D01*
X00036471Y00001919D01*
X00036577Y00001847D01*
X00036665Y00001755D01*
X00036730Y00001645D01*
X00036771Y00001524D01*
X00036785Y00001397D01*
X00036771Y00001270D01*
X00036730Y00001149D01*
X00036665Y00001040D01*
X00036577Y00000947D01*
X00036471Y00000875D01*
X00036352Y00000828D01*
X00036226Y00000807D01*
X00027256Y00023603D02*
X00027256Y00023603D01*
X00027128Y00023610D01*
X00027005Y00023644D01*
X00026892Y00023704D01*
X00026795Y00023786D01*
X00026718Y00023888D01*
X00026664Y00024004D01*
X00026637Y00024129D01*
X00026637Y00024256D01*
X00026664Y00024381D01*
X00026718Y00024497D01*
X00026795Y00024599D01*
X00026892Y00024681D01*
X00027005Y00024741D01*
X00027128Y00024775D01*
X00027256Y00024782D01*
X00027382Y00024761D01*
X00027501Y00024714D01*
X00027606Y00024643D01*
X00027694Y00024550D01*
X00027760Y00024440D01*
X00027801Y00024319D01*
X00027814Y00024192D01*
X00027801Y00024065D01*
X00027760Y00023944D01*
X00027694Y00023835D01*
X00027606Y00023742D01*
X00027501Y00023671D01*
X00027382Y00023623D01*
X00027256Y00023603D01*
X00036226Y00023607D02*
X00036226Y00023607D01*
X00036099Y00023614D01*
X00035976Y00023649D01*
X00035863Y00023708D01*
X00035766Y00023791D01*
X00035688Y00023893D01*
X00035635Y00024009D01*
X00035607Y00024133D01*
X00035607Y00024261D01*
X00035635Y00024386D01*
X00035688Y00024502D01*
X00035766Y00024603D01*
X00035863Y00024686D01*
X00035976Y00024746D01*
X00036099Y00024780D01*
X00036226Y00024787D01*
X00036352Y00024766D01*
X00036471Y00024719D01*
X00036577Y00024647D01*
X00036665Y00024555D01*
X00036730Y00024445D01*
X00036771Y00024324D01*
X00036785Y00024197D01*
X00036771Y00024070D01*
X00036730Y00023949D01*
X00036665Y00023840D01*
X00036577Y00023747D01*
X00036471Y00023675D01*
X00036352Y00023628D01*
X00036226Y00023607D01*
X00006889Y00008152D02*
X00006889Y00008152D01*
X00006888Y00008115D01*
X00006882Y00008078D01*
X00006874Y00008042D01*
X00006861Y00008007D01*
X00006846Y00007973D01*
X00006828Y00007941D01*
X00006806Y00007911D01*
X00006782Y00007882D01*
X00006755Y00007856D01*
X00006726Y00007833D01*
X00006695Y00007813D01*
X00006662Y00007796D01*
X00006628Y00007781D01*
X00006592Y00007771D01*
X00006556Y00007763D01*
X00006519Y00007759D01*
X00006482Y00007759D01*
X00006445Y00007762D01*
X00006408Y00007768D01*
X00006372Y00007778D01*
X00006175Y00007843D01*
X00006152Y00007852D01*
X00006130Y00007862D01*
X00006108Y00007873D01*
X00006087Y00007886D01*
X00006066Y00007899D01*
X00006047Y00007915D01*
X00006028Y00007931D01*
X00006011Y00007948D01*
X00005995Y00007967D01*
X00005980Y00007986D01*
X00005966Y00008007D01*
X00005953Y00008028D01*
X00005942Y00008050D01*
X00005932Y00008073D01*
X00005924Y00008096D01*
X00005917Y00008120D01*
X00005912Y00008144D01*
X00005908Y00008168D01*
X00005906Y00008193D01*
X00005905Y00008217D01*
X00005905Y00012795D01*
X00005893Y00012949D01*
X00005857Y00013099D01*
X00005798Y00013242D01*
X00005717Y00013373D01*
X00005617Y00013491D01*
X00005499Y00013591D01*
X00005368Y00013672D01*
X00005225Y00013731D01*
X00005075Y00013767D01*
X00004921Y00013779D01*
X00000984Y00013779D01*
X00000830Y00013767D01*
X00000680Y00013731D01*
X00000537Y00013672D01*
X00000405Y00013591D01*
X00000288Y00013491D01*
X00000187Y00013373D01*
X00000107Y00013242D01*
X00000048Y00013099D01*
X00000012Y00012949D01*
X00000000Y00012795D01*
X00000000Y00000984D01*
X00000012Y00000830D01*
X00000048Y00000680D01*
X00000107Y00000537D01*
X00000187Y00000405D01*
X00000288Y00000288D01*
X00000405Y00000187D01*
X00000537Y00000107D01*
X00000680Y00000048D01*
X00000830Y00000012D01*
X00000984Y00000000D01*
X00004921Y00000000D01*
X00005075Y00000012D01*
X00005225Y00000048D01*
X00005368Y00000107D01*
X00005499Y00000187D01*
X00005617Y00000288D01*
X00005717Y00000405D01*
X00005798Y00000537D01*
X00005857Y00000680D01*
X00005893Y00000830D01*
X00005905Y00000984D01*
X00005905Y00005168D01*
X00005905Y00005168D01*
X00005906Y00005192D01*
X00005908Y00005217D01*
X00005912Y00005241D01*
X00005917Y00005265D01*
X00005924Y00005289D01*
X00005932Y00005312D01*
X00005942Y00005335D01*
X00005953Y00005357D01*
X00005966Y00005378D01*
X00005980Y00005398D01*
X00005995Y00005418D01*
X00006011Y00005436D01*
X00006028Y00005454D01*
X00006047Y00005470D01*
X00006066Y00005485D01*
X00006087Y00005499D01*
X00006108Y00005512D01*
X00006130Y00005523D01*
X00006152Y00005533D01*
X00006175Y00005542D01*
X00006372Y00005606D01*
X00006408Y00005616D01*
X00006445Y00005623D01*
X00006482Y00005626D01*
X00006519Y00005626D01*
X00006556Y00005622D01*
X00006592Y00005614D01*
X00006628Y00005603D01*
X00006662Y00005589D01*
X00006695Y00005572D01*
X00006726Y00005552D01*
X00006755Y00005528D01*
X00006782Y00005503D01*
X00006806Y00005474D01*
X00006828Y00005444D01*
X00006846Y00005412D01*
X00006861Y00005378D01*
X00006874Y00005343D01*
X00006882Y00005306D01*
X00006888Y00005270D01*
X00006889Y00005233D01*
X00006889Y00001181D01*
X00006901Y00001013D01*
X00006937Y00000848D01*
X00006996Y00000690D01*
X00007077Y00000542D01*
X00007178Y00000407D01*
X00007297Y00000288D01*
X00007432Y00000187D01*
X00007580Y00000106D01*
X00007738Y00000047D01*
X00007902Y00000012D01*
X00008070Y00000000D01*
X00012795Y00000000D01*
X00012795Y00000826D01*
X00012805Y00000993D01*
X00012830Y00001158D01*
X00012868Y00001321D01*
X00012920Y00001480D01*
X00012986Y00001634D01*
X00013064Y00001781D01*
X00013154Y00001922D01*
X00013256Y00002054D01*
X00013369Y00002177D01*
X00013492Y00002291D01*
X00013624Y00002393D01*
X00013765Y00002484D01*
X00013912Y00002562D01*
X00014066Y00002628D01*
X00014224Y00002681D01*
X00014387Y00002720D01*
X00014552Y00002744D01*
X00014719Y00002755D01*
X00014886Y00002752D01*
X00015052Y00002734D01*
X00015216Y00002703D01*
X00015377Y00002658D01*
X00015534Y00002599D01*
X00015685Y00002527D01*
X00015829Y00002442D01*
X00015965Y00002346D01*
X00016093Y00002239D01*
X00016212Y00002121D01*
X00016320Y00001993D01*
X00016416Y00001857D01*
X00016501Y00001713D01*
X00016573Y00001562D01*
X00016632Y00001406D01*
X00016678Y00001245D01*
X00016710Y00001081D01*
X00016728Y00000915D01*
X00016732Y00000748D01*
X00016732Y00000000D01*
X00021456Y00000000D01*
X00021624Y00000012D01*
X00021789Y00000047D01*
X00021947Y00000106D01*
X00022095Y00000187D01*
X00022230Y00000288D01*
X00022349Y00000407D01*
X00022450Y00000542D01*
X00022531Y00000690D01*
X00022589Y00000848D01*
X00022625Y00001013D01*
X00022637Y00001181D01*
X00022637Y00003162D01*
X00022642Y00003224D01*
X00022657Y00003284D01*
X00022680Y00003341D01*
X00022712Y00003393D01*
X00022753Y00003440D01*
X00022800Y00003480D01*
X00022852Y00003513D01*
X00022909Y00003536D01*
X00022969Y00003551D01*
X00023031Y00003556D01*
X00023093Y00003551D01*
X00023153Y00003536D01*
X00023210Y00003513D01*
X00023262Y00003480D01*
X00023309Y00003440D01*
X00023350Y00003393D01*
X00023382Y00003341D01*
X00023405Y00003284D01*
X00023420Y00003224D01*
X00023425Y00003162D01*
X00023425Y00003057D01*
X00023425Y00001181D01*
X00023437Y00001013D01*
X00023473Y00000848D01*
X00023531Y00000690D01*
X00023612Y00000542D01*
X00023713Y00000407D01*
X00023832Y00000288D01*
X00023967Y00000187D01*
X00024115Y00000106D01*
X00024273Y00000047D01*
X00024438Y00000012D01*
X00024606Y00000000D01*
X00037992Y00000000D01*
X00038160Y00000012D01*
X00038324Y00000047D01*
X00038482Y00000106D01*
X00038630Y00000187D01*
X00038765Y00000288D01*
X00038884Y00000407D01*
X00038985Y00000542D01*
X00039066Y00000690D01*
X00039125Y00000848D01*
X00039161Y00001013D01*
X00039173Y00001181D01*
X00039173Y00038188D01*
X00039161Y00038357D01*
X00039125Y00038521D01*
X00039066Y00038679D01*
X00038985Y00038827D01*
X00038884Y00038962D01*
X00038765Y00039081D01*
X00038630Y00039182D01*
X00038482Y00039263D01*
X00038324Y00039322D01*
X00038160Y00039358D01*
X00037992Y00039370D01*
X00034251Y00039370D01*
X00034251Y00037795D01*
X00028346Y00037795D01*
X00028346Y00039370D01*
X00024606Y00039370D01*
X00024438Y00039358D01*
X00024273Y00039322D01*
X00024115Y00039263D01*
X00023967Y00039182D01*
X00023832Y00039081D01*
X00023713Y00038962D01*
X00023612Y00038827D01*
X00023531Y00038679D01*
X00023473Y00038521D01*
X00023437Y00038357D01*
X00023425Y00038188D01*
X00023425Y00029612D01*
X00023424Y00029583D01*
X00023420Y00029554D01*
X00023415Y00029525D01*
X00023408Y00029497D01*
X00023398Y00029469D01*
X00023387Y00029443D01*
X00023373Y00029417D01*
X00023358Y00029392D01*
X00023341Y00029369D01*
X00023322Y00029347D01*
X00023302Y00029326D01*
X00023280Y00029307D01*
X00023257Y00029289D01*
X00023232Y00029273D01*
X00023207Y00029259D01*
X00023180Y00029247D01*
X00023153Y00029237D01*
X00023125Y00029229D01*
X00023096Y00029223D01*
X00023068Y00029220D01*
X00022755Y00029190D01*
X00022722Y00029189D01*
X00022689Y00029190D01*
X00022657Y00029193D01*
X00022625Y00029200D01*
X00022593Y00029209D01*
X00022563Y00029221D01*
X00022533Y00029235D01*
X00022505Y00029251D01*
X00022478Y00029270D01*
X00022453Y00029291D01*
X00022430Y00029314D01*
X00022408Y00029339D01*
X00022389Y00029366D01*
X00022372Y00029394D01*
X00022358Y00029423D01*
X00022346Y00029454D01*
X00022337Y00029485D01*
X00022330Y00029517D01*
X00022326Y00029550D01*
X00022324Y00029582D01*
X00022324Y00031929D01*
X00020669Y00031929D01*
X00020638Y00031930D01*
X00020608Y00031933D01*
X00020578Y00031939D01*
X00020548Y00031947D01*
X00020519Y00031958D01*
X00020492Y00031971D01*
X00020465Y00031985D01*
X00020439Y00032002D01*
X00020415Y00032021D01*
X00020393Y00032041D01*
X00020372Y00032064D01*
X00020353Y00032088D01*
X00020335Y00032113D01*
X00020320Y00032139D01*
X00020307Y00032167D01*
X00020296Y00032195D01*
X00020287Y00032225D01*
X00020281Y00032255D01*
X00020277Y00032285D01*
X00020275Y00032315D01*
X00020272Y00032465D01*
X00020273Y00032496D01*
X00020276Y00032527D01*
X00020282Y00032558D01*
X00020290Y00032588D01*
X00020300Y00032618D01*
X00020313Y00032646D01*
X00020328Y00032674D01*
X00020345Y00032700D01*
X00020364Y00032725D01*
X00020385Y00032748D01*
X00020408Y00032769D01*
X00020432Y00032789D01*
X00020458Y00032806D01*
X00020485Y00032822D01*
X00020514Y00032835D01*
X00020543Y00032846D01*
X00020573Y00032855D01*
X00020604Y00032861D01*
X00020635Y00032864D01*
X00020666Y00032866D01*
X00022098Y00032866D01*
X00022098Y00038366D01*
X00015598Y00038366D01*
X00015598Y00032866D01*
X00017662Y00032866D01*
X00017693Y00032864D01*
X00017724Y00032861D01*
X00017754Y00032855D01*
X00017785Y00032846D01*
X00017814Y00032835D01*
X00017842Y00032822D01*
X00017869Y00032806D01*
X00017895Y00032789D01*
X00017920Y00032769D01*
X00017942Y00032748D01*
X00017963Y00032725D01*
X00017983Y00032700D01*
X00018000Y00032674D01*
X00018015Y00032646D01*
X00018027Y00032618D01*
X00018038Y00032588D01*
X00018046Y00032558D01*
X00018051Y00032527D01*
X00018054Y00032496D01*
X00018055Y00032465D01*
X00018053Y00032315D01*
X00018051Y00032285D01*
X00018047Y00032255D01*
X00018040Y00032225D01*
X00018032Y00032195D01*
X00018021Y00032167D01*
X00018007Y00032139D01*
X00017992Y00032113D01*
X00017975Y00032088D01*
X00017956Y00032064D01*
X00017935Y00032041D01*
X00017912Y00032021D01*
X00017888Y00032002D01*
X00017863Y00031985D01*
X00017836Y00031971D01*
X00017808Y00031958D01*
X00017779Y00031947D01*
X00017750Y00031939D01*
X00017720Y00031933D01*
X00017689Y00031930D01*
X00017659Y00031929D01*
X00010877Y00031929D01*
X00010849Y00031930D01*
X00010821Y00031933D01*
X00010793Y00031938D01*
X00010766Y00031945D01*
X00010740Y00031953D01*
X00010714Y00031964D01*
X00010688Y00031977D01*
X00010664Y00031991D01*
X00010641Y00032007D01*
X00010619Y00032024D01*
X00010599Y00032044D01*
X00010580Y00032064D01*
X00010562Y00032086D01*
X00010546Y00032109D01*
X00010532Y00032133D01*
X00010519Y00032158D01*
X00010508Y00032184D01*
X00010499Y00032211D01*
X00010492Y00032238D01*
X00010487Y00032265D01*
X00010452Y00032509D01*
X00010448Y00032543D01*
X00010448Y00032577D01*
X00010450Y00032610D01*
X00010455Y00032644D01*
X00010463Y00032677D01*
X00010474Y00032709D01*
X00010488Y00032740D01*
X00010504Y00032769D01*
X00010522Y00032797D01*
X00010543Y00032824D01*
X00010566Y00032848D01*
X00010592Y00032871D01*
X00010619Y00032891D01*
X00010647Y00032909D01*
X00010677Y00032924D01*
X00010709Y00032937D01*
X00010741Y00032947D01*
X00010774Y00032954D01*
X00010807Y00032959D01*
X00010841Y00032960D01*
X00014723Y00032960D01*
X00014723Y00036760D01*
X00002723Y00036760D01*
X00002723Y00032960D01*
X00007903Y00032960D01*
X00007937Y00032959D01*
X00007970Y00032954D01*
X00008003Y00032947D01*
X00008035Y00032937D01*
X00008067Y00032924D01*
X00008097Y00032909D01*
X00008125Y00032891D01*
X00008152Y00032871D01*
X00008178Y00032848D01*
X00008201Y00032824D01*
X00008222Y00032797D01*
X00008240Y00032769D01*
X00008257Y00032740D01*
X00008270Y00032709D01*
X00008281Y00032677D01*
X00008289Y00032644D01*
X00008294Y00032610D01*
X00008297Y00032577D01*
X00008296Y00032543D01*
X00008292Y00032509D01*
X00008257Y00032265D01*
X00008252Y00032238D01*
X00008245Y00032211D01*
X00008236Y00032184D01*
X00008225Y00032158D01*
X00008212Y00032133D01*
X00008198Y00032109D01*
X00008182Y00032086D01*
X00008164Y00032064D01*
X00008145Y00032044D01*
X00008125Y00032024D01*
X00008103Y00032007D01*
X00008080Y00031991D01*
X00008056Y00031977D01*
X00008030Y00031964D01*
X00008005Y00031953D01*
X00007978Y00031945D01*
X00007951Y00031938D01*
X00007923Y00031933D01*
X00007895Y00031930D01*
X00007867Y00031929D01*
X00002324Y00031929D01*
X00002324Y00024429D01*
X00013495Y00024429D01*
X00013547Y00024425D01*
X00013598Y00024415D01*
X00013648Y00024398D01*
X00013694Y00024375D01*
X00013737Y00024345D01*
X00013776Y00024310D01*
X00013810Y00024271D01*
X00013839Y00024227D01*
X00013861Y00024180D01*
X00013877Y00024130D01*
X00013886Y00024079D01*
X00013889Y00024027D01*
X00013884Y00023975D01*
X00013873Y00023924D01*
X00013855Y00023875D01*
X00013830Y00023829D01*
X00013800Y00023786D01*
X00013765Y00023748D01*
X00013724Y00023715D01*
X00013680Y00023687D01*
X00013643Y00023668D01*
X00013634Y00023663D01*
X00013626Y00023659D01*
X00013617Y00023655D01*
X00013608Y00023651D01*
X00013599Y00023648D01*
X00013590Y00023644D01*
X00013581Y00023641D01*
X00013572Y00023638D01*
X00013563Y00023636D01*
X00013553Y00023633D01*
X00013544Y00023631D01*
X00013535Y00023629D01*
X00013525Y00023627D01*
X00013516Y00023626D01*
X00013506Y00023624D01*
X00013496Y00023623D01*
X00013487Y00023623D01*
X00013477Y00023622D01*
X00013468Y00023622D01*
X00013458Y00023622D01*
X00006889Y00023622D01*
X00006889Y00018389D01*
X00006888Y00018362D01*
X00006886Y00018336D01*
X00006881Y00018310D01*
X00006875Y00018285D01*
X00006868Y00018260D01*
X00006858Y00018235D01*
X00006847Y00018211D01*
X00006835Y00018188D01*
X00006820Y00018166D01*
X00006805Y00018145D01*
X00006788Y00018125D01*
X00006770Y00018106D01*
X00006750Y00018088D01*
X00006730Y00018072D01*
X00006708Y00018057D01*
X00006686Y00018044D01*
X00006662Y00018032D01*
X00006638Y00018022D01*
X00006613Y00018013D01*
X00006588Y00018006D01*
X00005879Y00017834D01*
X00005845Y00017828D01*
X00005809Y00017824D01*
X00005774Y00017824D01*
X00005738Y00017826D01*
X00005703Y00017832D01*
X00005669Y00017842D01*
X00005635Y00017854D01*
X00005603Y00017869D01*
X00005572Y00017887D01*
X00005543Y00017908D01*
X00005516Y00017931D01*
X00005492Y00017956D01*
X00005469Y00017984D01*
X00005450Y00018014D01*
X00005433Y00018045D01*
X00005419Y00018078D01*
X00005408Y00018112D01*
X00005400Y00018146D01*
X00005395Y00018182D01*
X00005393Y00018217D01*
X00005393Y00019881D01*
X00000393Y00019881D01*
X00000393Y00014566D01*
X00005393Y00014566D01*
X00005393Y00015640D01*
X00005395Y00015676D01*
X00005400Y00015711D01*
X00005408Y00015746D01*
X00005419Y00015779D01*
X00005433Y00015812D01*
X00005450Y00015843D01*
X00005469Y00015873D01*
X00005492Y00015901D01*
X00005516Y00015926D01*
X00005543Y00015950D01*
X00005572Y00015970D01*
X00005603Y00015988D01*
X00005635Y00016004D01*
X00005669Y00016016D01*
X00005703Y00016025D01*
X00005738Y00016031D01*
X00005774Y00016034D01*
X00005809Y00016033D01*
X00005845Y00016030D01*
X00005879Y00016023D01*
X00006588Y00015851D01*
X00006613Y00015844D01*
X00006638Y00015836D01*
X00006662Y00015825D01*
X00006686Y00015813D01*
X00006708Y00015800D01*
X00006730Y00015785D01*
X00006750Y00015769D01*
X00006770Y00015751D01*
X00006788Y00015732D01*
X00006805Y00015712D01*
X00006820Y00015691D01*
X00006835Y00015669D01*
X00006847Y00015646D01*
X00006858Y00015622D01*
X00006868Y00015598D01*
X00006875Y00015573D01*
X00006881Y00015547D01*
X00006886Y00015521D01*
X00006888Y00015495D01*
X00006889Y00015469D01*
X00006889Y00008152D01*
X00022637Y00020484D02*
X00022637Y00020484D01*
X00022638Y00020514D01*
X00022642Y00020543D01*
X00022647Y00020572D01*
X00022655Y00020601D01*
X00022665Y00020628D01*
X00022676Y00020655D01*
X00022690Y00020682D01*
X00022706Y00020707D01*
X00022724Y00020730D01*
X00022743Y00020753D01*
X00022764Y00020773D01*
X00022786Y00020793D01*
X00022810Y00020810D01*
X00022835Y00020826D01*
X00022861Y00020839D01*
X00022888Y00020851D01*
X00022916Y00020861D01*
X00022945Y00020868D01*
X00022974Y00020874D01*
X00023003Y00020877D01*
X00023931Y00020943D01*
X00023932Y00020943D01*
X00023933Y00020944D01*
X00023935Y00020944D01*
X00023936Y00020944D01*
X00023938Y00020944D01*
X00023939Y00020944D01*
X00023941Y00020944D01*
X00023942Y00020944D01*
X00023943Y00020944D01*
X00023945Y00020944D01*
X00023946Y00020944D01*
X00023948Y00020944D01*
X00023949Y00020944D01*
X00023950Y00020944D01*
X00023952Y00020944D01*
X00023953Y00020944D01*
X00023955Y00020944D01*
X00023956Y00020944D01*
X00023957Y00020944D01*
X00023959Y00020944D01*
X00025787Y00020944D01*
X00025787Y00014094D01*
X00023425Y00014094D01*
X00023425Y00006183D01*
X00023425Y00006078D01*
X00023420Y00006017D01*
X00023405Y00005957D01*
X00023382Y00005900D01*
X00023350Y00005847D01*
X00023309Y00005800D01*
X00023262Y00005760D01*
X00023210Y00005727D01*
X00023153Y00005704D01*
X00023093Y00005689D01*
X00023031Y00005685D01*
X00022969Y00005689D01*
X00022909Y00005704D01*
X00022852Y00005727D01*
X00022800Y00005760D01*
X00022753Y00005800D01*
X00022712Y00005847D01*
X00022680Y00005900D01*
X00022657Y00005957D01*
X00022642Y00006017D01*
X00022637Y00006078D01*
X00022637Y00020484D01*
X00023425Y00023507D02*
X00023425Y00023507D01*
X00023420Y00023445D01*
X00023405Y00023385D01*
X00023382Y00023328D01*
X00023350Y00023275D01*
X00023309Y00023228D01*
X00023262Y00023188D01*
X00023210Y00023156D01*
X00023153Y00023132D01*
X00023093Y00023118D01*
X00023031Y00023113D01*
X00022969Y00023118D01*
X00022909Y00023132D01*
X00022852Y00023156D01*
X00022800Y00023188D01*
X00022753Y00023228D01*
X00022712Y00023275D01*
X00022680Y00023328D01*
X00022657Y00023385D01*
X00022642Y00023445D01*
X00022637Y00023507D01*
X00022637Y00023609D01*
X00022637Y00023622D01*
X00016536Y00023622D01*
X00016526Y00023622D01*
X00016517Y00023622D01*
X00016507Y00023623D01*
X00016498Y00023623D01*
X00016488Y00023624D01*
X00016479Y00023626D01*
X00016469Y00023627D01*
X00016460Y00023629D01*
X00016450Y00023631D01*
X00016441Y00023633D01*
X00016431Y00023636D01*
X00016422Y00023638D01*
X00016413Y00023641D01*
X00016404Y00023644D01*
X00016395Y00023648D01*
X00016386Y00023651D01*
X00016377Y00023655D01*
X00016368Y00023659D01*
X00016360Y00023663D01*
X00016351Y00023668D01*
X00016314Y00023687D01*
X00016270Y00023715D01*
X00016229Y00023748D01*
X00016194Y00023786D01*
X00016164Y00023829D01*
X00016139Y00023875D01*
X00016121Y00023924D01*
X00016110Y00023975D01*
X00016105Y00024027D01*
X00016108Y00024079D01*
X00016117Y00024130D01*
X00016133Y00024180D01*
X00016155Y00024227D01*
X00016184Y00024271D01*
X00016218Y00024310D01*
X00016257Y00024345D01*
X00016300Y00024375D01*
X00016346Y00024398D01*
X00016396Y00024415D01*
X00016447Y00024425D01*
X00016499Y00024429D01*
X00022324Y00024429D01*
X00022324Y00026662D01*
X00022326Y00026694D01*
X00022330Y00026727D01*
X00022337Y00026759D01*
X00022346Y00026790D01*
X00022358Y00026821D01*
X00022372Y00026850D01*
X00022389Y00026878D01*
X00022408Y00026905D01*
X00022430Y00026930D01*
X00022453Y00026953D01*
X00022478Y00026974D01*
X00022505Y00026993D01*
X00022533Y00027009D01*
X00022563Y00027023D01*
X00022593Y00027035D01*
X00022625Y00027044D01*
X00022657Y00027051D01*
X00022689Y00027054D01*
X00022722Y00027055D01*
X00022755Y00027054D01*
X00023068Y00027024D01*
X00023096Y00027021D01*
X00023125Y00027015D01*
X00023153Y00027007D01*
X00023180Y00026997D01*
X00023207Y00026985D01*
X00023232Y00026971D01*
X00023257Y00026955D01*
X00023280Y00026938D01*
X00023302Y00026918D01*
X00023322Y00026898D01*
X00023341Y00026875D01*
X00023358Y00026852D01*
X00023373Y00026827D01*
X00023387Y00026801D01*
X00023398Y00026775D01*
X00023408Y00026747D01*
X00023415Y00026719D01*
X00023420Y00026690D01*
X00023424Y00026662D01*
X00023425Y00026632D01*
X00023425Y00023507D01*
M02*