%
M48
METRIC,000.000
T01C0.40
T02C0.80
T03C1.00
T04C1.02
T05C1.20
T06C1.10
T10C0.70
T11C0.60
T12C0.91
T13C2.00
%
T01
X060500Y096500
X060500Y094500
X060500Y092500
X060500Y090500
X060500Y088500
X060500Y086500
X060500Y084500
X060500Y082500
X060500Y081500
X060500Y076500
X060500Y075500
X060500Y070500
X060500Y068500
X060500Y064500
X060500Y062500
X060500Y060500
X060500Y058500
X060500Y056500
X060500Y054500
X060500Y033500
X060500Y031500
X060500Y029500
X060500Y027500
X060500Y025500
X060500Y023500
X060500Y021500
X060500Y019500
X060500Y017500
X060500Y015500
X060500Y013500
X060500Y011500
X060500Y009500
X060500Y007500
X060500Y005500
X060500Y003000
X063000Y001000
X063314Y062784
X063500Y099000
X065500Y099000
X065625Y026715
X065625Y014269
X066197Y040051
X066323Y056370
X066323Y051672
X066323Y047544
X066323Y033066
X066387Y054656
X066387Y043607
X066578Y016620
X067000Y001000
X067276Y015540
X067500Y099000
X067759Y074214
X068292Y011882
X068990Y065007
X069500Y099000
X069500Y001000
X069943Y056307
X070324Y072182
X070578Y010536
X070628Y095423
X071206Y011032
X071213Y099003
X071340Y059584
X071500Y001000
X071634Y011661
X072189Y012207
X072610Y074468
X072610Y068880
X072700Y023099
X072914Y048102
X073200Y021099
X073500Y001000
X074158Y025141
X074642Y049068
X074642Y047036
X074642Y044750
X074642Y042464
X074642Y040432
X074642Y038146
X075000Y026150
X075100Y027000
X075150Y067813
X075785Y014397
X075975Y021191
X076039Y019349
X076102Y049000
X076102Y047036
X076102Y044750
X076102Y042464
X076102Y040432
X076102Y038146
X077097Y029552
X077157Y020111
X077182Y021890
X077753Y028367
X077900Y022391
X077919Y060549
X077950Y038700
X078000Y049000
X078000Y046000
X078000Y044000
X078000Y042000
X078000Y040000
X078401Y020772
X078402Y059952
X078960Y059355
X079000Y049000
X079000Y046000
X079000Y044000
X079000Y042000
X079000Y040000
X079189Y062022
X079277Y028620
X079341Y017825
X080103Y017825
X080229Y044876
X080229Y042971
X080229Y041066
X080229Y039162
X080357Y048813
X080357Y046782
X080433Y034488
X080547Y014715
X081043Y033471
X081182Y018269
X081398Y026715
X081500Y061997
X081817Y019477
X081881Y021001
X082068Y027545
X082770Y067813
X083050Y055300
X083050Y053700
X083405Y037129
X083405Y035860
X083405Y034590
X083659Y050529
X083900Y053599
X083950Y055349
X084040Y028239
X084040Y026970
X084040Y025700
X084484Y013317
X084802Y024113
X085000Y001000
X085120Y033416
X085183Y062403
X085259Y020214
X085310Y071801
X085310Y050275
X085310Y037129
X085310Y035860
X085310Y034590
X085310Y028239
X085310Y026970
X085310Y025700
X086377Y021738
X086500Y001000
X086516Y025319
X086961Y049575
X087088Y019045
X087215Y046655
X087215Y044750
X087215Y037129
X087215Y035860
X087342Y048052
X087723Y062403
X087900Y055500
X087977Y050084
X087977Y049194
X088000Y053650
X088358Y033193
X088485Y071293
X088500Y001000
X088739Y050211
X088900Y053700
X089050Y055500
X089310Y030272
X090500Y001000
X090750Y084550
X091500Y099000
X091914Y024811
X092016Y095499
X092500Y001000
X092613Y086405
X092981Y079598
X093565Y059355
X093997Y095702
X093997Y085238
X094327Y024938
X094423Y039670
X094454Y088794
X094500Y001000
X094708Y019096
X094962Y011222
X095279Y086470
X095418Y058465
X095418Y055926
X096105Y017953
X096500Y099000
X096500Y001000
X096803Y020620
X097150Y084550
X098500Y096500
X098500Y094000
X098500Y091500
X098500Y089000
X098500Y087000
X098500Y084500
X098500Y082500
X098500Y080500
X098500Y078500
X098500Y076500
X098500Y074500
X098500Y072500
X098500Y070500
X098500Y068500
X098500Y066500
X098500Y064500
X098500Y062500
X098500Y009000
X098500Y007000
X098500Y005000
X098500Y003000
X098518Y039543
X098518Y037510
X098518Y035479
X098518Y033510
X098518Y031479
X098518Y029510
X098518Y027477
X098518Y025510
X024574Y042063
X024702Y057050
X024702Y002820
X025336Y011330
X025845Y032229
X025845Y025807
X025972Y042063
X026098Y015775
X026098Y009479
X026353Y028474
X026988Y035967
X027115Y025807
X027115Y004472
X027369Y051280
X027496Y013235
X028000Y057000
X028131Y042825
X028131Y011330
X028384Y034571
X028639Y003836
X028765Y042063
X028893Y013870
X029274Y028530
X029274Y022125
X029401Y019458
X030798Y047580
X031306Y035967
X036132Y015775
X036258Y051208
X036258Y045057
X036258Y032156
X036258Y028474
X036258Y022125
X036258Y009425
X036385Y041429
X039434Y025935
X039434Y013108
X039561Y053803
X039561Y051334
X039561Y045057
X039561Y019530
X044514Y035967
X045149Y051208
X046164Y032229
X046673Y019585
X046673Y017806
X046673Y011456
X046673Y003963
X046926Y057050
X046926Y042063
X048069Y026569
X048450Y047580
X048450Y003710
X048705Y009425
X049086Y035967
X049467Y028474
X049467Y015901
X049593Y013235
X049593Y004853
X049721Y025935
X049848Y032229
X049974Y017933
X049974Y011456
X051372Y041937
X051752Y004979
X002527Y045242
X004599Y044900
X004699Y043500
X005800Y042200
X006000Y044900
X008199Y043099
X008500Y044900
X009792Y045191
X009877Y044247
X009894Y042397
X007810Y072972
X007810Y065987
X009715Y071575
X010349Y077290
X010349Y074750
X010985Y068400
X010985Y065860
X012889Y073480
X012889Y071575
X013525Y068400
X014794Y071575
X015430Y068400
X015776Y077163
X017716Y077163
X019810Y077671
X021780Y065860
X023304Y080338
X023557Y071194
X023557Y069924
X023685Y073734
X026352Y080338
X026352Y068654
X028638Y080338
X031177Y080338
X039560Y079830
X039560Y063319
X041465Y079830
X041465Y063319
X043370Y079830
X043370Y063319
X045275Y079830
X045275Y063319
X050717Y073240
X050735Y070940
X021650Y085752
X026730Y085752
X020380Y085846
X029905Y085846
X031175Y085878
X032444Y085878
X014284Y086006
X028889Y087276
X024190Y087402
X013048Y087783
X019872Y087783
X025968Y088545
X029905Y090324
X015681Y090500
X013014Y091213
X019745Y091213
X026730Y091213
X010220Y091848
X045282Y089621
X045335Y090465
X047621Y091735
X048510Y093590
X050605Y090632
X050605Y089322
X051240Y090084
T02
X062040Y057459
X062040Y004120
X071848Y025572
X071848Y020692
X078960Y093009
X078960Y066721
X080229Y090978
X081500Y093009
X081500Y066721
X090644Y056688
X090644Y008427
X093184Y056688
X093184Y008427
X097600Y057459
X097600Y011740
X020040Y057456
X020040Y004116
X055601Y057456
X055601Y011735
T03
X062040Y054920
X062040Y034599
X062040Y032060
X062040Y029519
X062040Y025700
X062040Y023159
X062040Y020620
X062040Y018080
X062040Y015540
X062040Y013000
X062040Y009199
X062040Y006659
X062450Y093009
X062450Y090470
X062450Y087930
X062450Y085390
X071340Y093009
X072610Y090978
X073880Y093009
X075150Y090978
X076420Y093009
X077690Y090978
X082770Y090978
X084040Y093009
X085310Y090978
X085564Y010967
X085564Y008427
X086580Y093009
X087850Y090978
X087850Y083041
X088104Y010967
X088104Y008427
X089120Y093009
X090390Y083041
X090390Y072754
X090644Y054147
X090644Y051608
X090644Y049068
X090644Y046528
X090644Y043988
X090644Y041447
X090644Y038908
X090644Y036367
X090644Y033828
X090644Y031287
X090644Y028748
X090644Y026208
X090644Y023668
X090644Y021128
X090644Y018587
X090644Y016047
X090644Y013507
X090644Y010967
X090696Y096122
X091196Y087922
X092930Y083041
X092930Y072754
X093184Y054147
X093184Y051608
X093184Y049068
X093184Y046528
X093184Y043988
X093184Y041447
X093184Y038908
X093184Y036367
X093184Y033828
X093184Y031287
X093184Y028748
X093184Y026208
X093184Y023668
X093184Y021128
X093184Y018587
X093184Y016047
X093184Y013507
X093184Y010967
X093946Y087422
X095470Y083041
X095470Y072754
X096696Y087922
X097196Y096122
X097600Y054920
X097600Y052379
X097600Y049840
X097600Y042220
X097600Y021900
X097600Y019360
X097600Y016819
X097600Y014280
X020040Y054916
X020040Y034596
X020040Y032055
X020040Y029515
X020040Y009195
X020040Y006656
X055601Y054916
X055601Y052376
X055601Y049836
X055601Y042215
X055601Y021895
X055601Y019355
X055601Y016816
X055601Y014276
X024955Y079195
X030034Y079195
X030034Y063955
X032573Y079195
X032573Y063955
X037655Y079195
X037655Y063955
X035620Y086259
X008315Y088673
X035620Y091340
T04
X071340Y066721
X073880Y066721
X076420Y066721
X084040Y066721
X086580Y066721
X089120Y066721
T05
X077944Y003602
X081444Y003602
T06
X093946Y097422
X093946Y090422
T10
X018214Y049938
X018214Y040413
X018214Y013997
X020014Y049938
X020014Y040413
X020014Y013997
X049212Y002450
X049212Y000651
X055044Y006377
X056843Y006377
T11
X027495Y079195
X027495Y063955
X035115Y079195
X035115Y063955
T12
X024955Y063955
T13
X047180Y077290
X047180Y065224
X053530Y077290
X053530Y065224
M30