%
M48
METRIC,000.000
T01C0.50
%
T01
X059250Y059087
X059250Y058087
X059250Y057087
X059250Y056087
X059250Y055087
X059250Y054087
X059274Y053091
X060219Y052950
X057750Y052193
X057750Y053193
X057750Y054193
X057750Y055193
X057750Y056193
X057750Y057193
X057750Y058193
X057750Y059193
X059250Y014873
X059250Y013873
X059250Y012873
X059250Y011873
X059250Y010873
X059250Y009873
X059250Y008873
X059250Y007873
X057750Y008193
X057750Y009193
X057750Y010193
X057750Y011193
X057750Y012193
X057750Y013193
X057750Y014193
X057750Y015193
X017250Y020592
X017250Y019592
X017250Y018592
X017250Y017592
X017250Y016592
X017250Y015592
X017250Y014592
X017250Y013592
X015250Y013184
X015250Y014184
X015250Y015184
X015250Y016184
X015250Y017184
X015250Y018184
X015250Y019184
X015250Y020184
X017250Y046592
X017250Y045592
X017250Y044592
X017250Y043592
X017250Y042592
X017250Y041592
X017250Y040592
X017250Y039592
X013949Y039607
X013949Y040607
X013949Y041607
X013949Y042607
X013949Y043607
X013949Y044607
X013949Y045607
X027540Y081349
X026540Y081349
X025540Y081349
X024540Y081349
X023540Y081349
X022540Y081349
X021540Y081349
X020540Y081349
X020563Y083470
X021563Y083470
X022563Y083470
X023563Y083470
X024563Y083470
X025563Y083470
X026563Y083470
X027563Y083470
X052540Y081349
X051540Y081349
X050540Y081349
X049540Y081349
X048540Y081349
X047540Y081349
X046540Y081349
X045540Y081349
X045599Y083230
X046599Y083230
X047599Y083230
X048599Y083230
X049599Y083230
X050599Y083230
X051599Y083230
X059250Y075087
X059250Y074087
X059250Y073087
X059250Y072087
X059250Y071087
X059250Y070087
X059250Y069087
X059250Y068087
X056955Y067657
X056955Y068657
X056955Y069657
X056955Y070657
X056955Y071657
X056955Y072657
X056955Y073657
X056955Y074657
X041699Y060250
X040699Y060250
X039699Y060250
X038699Y060250
X037699Y060250
X036699Y060250
X035699Y060250
X034699Y060250
X034434Y061800
X035434Y061800
X036434Y061800
X037434Y061800
X038434Y061800
X039434Y061800
X040434Y061800
X041434Y061800
M30