%TF.GenerationSoftware,KiCad,Pcbnew,4.0.4-stable*%
%TF.CreationDate,2017-03-23T19:51:40+02:00*%
%TF.ProjectId,back_prototype,6261636B5F70726F746F747970652E6B,rev?*%
%TF.FileFunction,Soldermask,Bot*%
%FSLAX46Y46*%
G04 Gerber Fmt 4.6, Leading zero omitted, Abs format (unit mm)*
G04 Created by KiCad (PCBNEW 4.0.4-stable) date 03/23/17 19:51:40*
%MOMM*%
%LPD*%
G01*
G04 APERTURE LIST*
%ADD10C,0.100000*%
%ADD11R,1.300000X0.900000*%
%ADD12R,2.300000X1.200000*%
%ADD13O,2.400000X2.400000*%
%ADD14R,2.100000X2.100000*%
%ADD15O,2.100000X2.100000*%
%ADD16C,1.924000*%
%ADD17R,1.700000X1.900000*%
%ADD18R,1.900000X1.900000*%
%ADD19R,3.700000X2.100000*%
%ADD20R,1.370000X1.670000*%
%ADD21R,1.900000X1.700000*%
%ADD22C,2.100000*%
%ADD23R,1.950000X1.000000*%
%ADD24R,2.200000X2.150000*%
%ADD25R,3.600000X2.900000*%
%ADD26O,1.600000X1.924000*%
%ADD27R,1.650000X1.650000*%
%ADD28R,1.900000X1.650000*%
%ADD29R,1.650000X1.900000*%
%ADD30R,1.600000X1.150000*%
%ADD31R,1.150000X1.600000*%
%ADD32C,1.900000*%
%ADD33C,3.400000*%
%ADD34C,2.400000*%
%ADD35R,1.924000X3.000000*%
%ADD36R,2.900000X3.600000*%
%ADD37C,0.254000*%
G04 APERTURE END LIST*
D10*
D11*
X62484000Y-60074000D03*
X62484000Y-59374000D03*
X62484000Y-58674000D03*
D12*
X56920000Y-81468000D03*
X56920000Y-79568000D03*
X59920000Y-80518000D03*
D13*
X42824400Y-61180800D03*
X42824400Y-74980800D03*
X65684400Y-61180800D03*
X65684400Y-64180800D03*
X65684400Y-71980800D03*
X65684400Y-74980800D03*
D14*
X44069000Y-127000000D03*
D15*
X44069000Y-124460000D03*
X44069000Y-121920000D03*
X44069000Y-119380000D03*
X44069000Y-116840000D03*
X44069000Y-114300000D03*
D16*
X71983600Y-69342000D03*
X71983600Y-67310000D03*
X76555600Y-67310000D03*
X76555600Y-69342000D03*
D14*
X51562000Y-111506000D03*
D15*
X51562000Y-108966000D03*
X51562000Y-106426000D03*
X51562000Y-103886000D03*
X51562000Y-101346000D03*
X51562000Y-98806000D03*
X51562000Y-96266000D03*
X51562000Y-93726000D03*
X51562000Y-91186000D03*
X51562000Y-88646000D03*
X51562000Y-86106000D03*
X51562000Y-83566000D03*
X51562000Y-81026000D03*
D17*
X78638400Y-56460400D03*
X78638400Y-59160400D03*
D18*
X79248000Y-90932000D03*
X79248000Y-93472000D03*
D14*
X44450000Y-46990000D03*
D15*
X44450000Y-49530000D03*
X44450000Y-52070000D03*
X44450000Y-54610000D03*
D19*
X69856800Y-81381600D03*
X64356800Y-81381600D03*
D20*
X56977200Y-43738800D03*
X55697200Y-43738800D03*
D14*
X71577200Y-43789600D03*
D15*
X71577200Y-46329600D03*
X71577200Y-48869600D03*
X71577200Y-51409600D03*
X71577200Y-53949600D03*
D12*
X70537200Y-77688400D03*
X70537200Y-79588400D03*
X67537200Y-78638400D03*
D21*
X64080400Y-77317600D03*
X66780400Y-77317600D03*
D17*
X76200000Y-56460400D03*
X76200000Y-59160400D03*
X73761600Y-56511200D03*
X73761600Y-59211200D03*
D18*
X70167500Y-133413500D03*
X67564000Y-133413500D03*
X46609000Y-127000000D03*
X46609000Y-116840000D03*
X46609000Y-119380000D03*
X46609000Y-114300000D03*
X47000000Y-138100000D03*
X53848000Y-114808000D03*
X53848000Y-117856000D03*
X46634400Y-121920000D03*
X46634400Y-124460000D03*
D22*
X47599600Y-47701200D03*
X47599600Y-50241200D03*
X47599600Y-52781200D03*
X47599600Y-55321200D03*
X47599600Y-57861200D03*
X69299600Y-47701200D03*
X69299600Y-50241200D03*
X69299600Y-52781200D03*
X69299600Y-55321200D03*
X69299600Y-57861200D03*
X69299600Y-60401200D03*
D21*
X57197000Y-82867500D03*
X59897000Y-82867500D03*
D23*
X57592000Y-138633200D03*
X57592000Y-137363200D03*
X57592000Y-136093200D03*
X57592000Y-134823200D03*
X62992000Y-134823200D03*
X62992000Y-136093200D03*
X62992000Y-137363200D03*
X62992000Y-138633200D03*
D24*
X54356000Y-138239500D03*
X54356000Y-134989500D03*
D25*
X52848400Y-43535600D03*
X48548400Y-43535600D03*
D18*
X47053500Y-135001000D03*
D26*
X74500000Y-51500000D03*
X76000000Y-51500000D03*
X77500000Y-51500000D03*
X74500000Y-45500000D03*
X77500000Y-45500000D03*
X76000000Y-45500000D03*
D27*
X63607000Y-119761000D03*
X61107000Y-119761000D03*
D28*
X51663600Y-45923200D03*
X49163600Y-45923200D03*
X68941000Y-44704000D03*
X66441000Y-44704000D03*
D29*
X53594000Y-84074000D03*
X53594000Y-86574000D03*
D28*
X74569000Y-43434000D03*
X77069000Y-43434000D03*
D29*
X79248000Y-85892000D03*
X79248000Y-88392000D03*
D30*
X64201000Y-55118000D03*
X66101000Y-55118000D03*
D31*
X67310000Y-55052000D03*
X67310000Y-53152000D03*
D30*
X66101000Y-53086000D03*
X64201000Y-53086000D03*
X53274000Y-55626000D03*
X51374000Y-55626000D03*
D31*
X50165000Y-55356800D03*
X50165000Y-53456800D03*
D30*
X51374000Y-53340000D03*
X53274000Y-53340000D03*
X53340000Y-51816000D03*
X51440000Y-51816000D03*
D31*
X50292000Y-51623000D03*
X50292000Y-49723000D03*
D30*
X51374000Y-49530000D03*
X53274000Y-49530000D03*
D28*
X55900000Y-132207000D03*
X58400000Y-132207000D03*
D11*
X42418000Y-134683500D03*
X42418000Y-133983500D03*
X63881000Y-60074000D03*
X63881000Y-59374000D03*
X63881000Y-58674000D03*
X61087000Y-58672500D03*
X61087000Y-59372500D03*
X61087000Y-60072500D03*
X62293500Y-132907000D03*
X62293500Y-132207000D03*
X63627000Y-132907000D03*
X63627000Y-132207000D03*
X60833000Y-132907000D03*
X60833000Y-132207000D03*
D32*
X65847500Y-126050500D03*
X63307500Y-126050500D03*
X61277500Y-126050500D03*
X58737500Y-126050500D03*
D33*
X68897500Y-123380500D03*
X55737500Y-123380500D03*
D14*
X48323500Y-130048000D03*
D15*
X45783500Y-130048000D03*
X43243500Y-130048000D03*
D32*
X58777600Y-123393200D03*
X61317600Y-123393200D03*
X63347600Y-123393200D03*
X65887600Y-123393200D03*
D33*
X55727600Y-126063200D03*
X68887600Y-126063200D03*
D22*
X66103500Y-130048000D03*
D15*
X63563500Y-130048000D03*
X61023500Y-130048000D03*
X58483500Y-130048000D03*
X55943500Y-130048000D03*
D16*
X72644000Y-83312000D03*
X75184000Y-83312000D03*
X72644000Y-85852000D03*
X75184000Y-85852000D03*
X72644000Y-88392000D03*
X75184000Y-88392000D03*
X72644000Y-90932000D03*
X75184000Y-90932000D03*
X72644000Y-93472000D03*
X75184000Y-93472000D03*
X72644000Y-96012000D03*
X75184000Y-96012000D03*
X72644000Y-98552000D03*
X75184000Y-98552000D03*
X72644000Y-101092000D03*
X75184000Y-101092000D03*
X72644000Y-103632000D03*
X75184000Y-103632000D03*
X72644000Y-106172000D03*
X75184000Y-106172000D03*
X72644000Y-108712000D03*
X75184000Y-108712000D03*
X72644000Y-111252000D03*
X75184000Y-111252000D03*
X72644000Y-113792000D03*
X75184000Y-113792000D03*
X72644000Y-116332000D03*
X75184000Y-116332000D03*
X72644000Y-118872000D03*
X75184000Y-118872000D03*
X72644000Y-121412000D03*
X75184000Y-121412000D03*
X72644000Y-123952000D03*
X75184000Y-123952000D03*
X72644000Y-126492000D03*
X75184000Y-126492000D03*
X72644000Y-129032000D03*
X75184000Y-129032000D03*
X72644000Y-131572000D03*
X75184000Y-131572000D03*
X70104000Y-129032000D03*
X70104000Y-131572000D03*
X67564000Y-129032000D03*
X67564000Y-131572000D03*
D34*
X58890800Y-86969600D03*
X56390800Y-86969600D03*
X68590800Y-86969600D03*
X66090800Y-86969600D03*
D35*
X59290800Y-119694600D03*
X65690800Y-119694600D03*
D36*
X74371200Y-70425200D03*
X74371200Y-66125200D03*
X77470000Y-82363200D03*
X77470000Y-78063200D03*
D37*
G36*
X54991000Y-70993000D02*
X47625000Y-70993000D01*
X47625000Y-64897000D01*
X54991000Y-64897000D01*
X54991000Y-70993000D01*
X54991000Y-70993000D01*
G37*
X54991000Y-70993000D02*
X47625000Y-70993000D01*
X47625000Y-64897000D01*
X54991000Y-64897000D01*
X54991000Y-70993000D01*
M02*
