%TF.GenerationSoftware,KiCad,Pcbnew,4.0.4-stable*%
%TF.CreationDate,2016-12-12T23:19:24+02:00*%
%TF.ProjectId,back_prototype,6261636B5F70726F746F747970652E6B,rev?*%
%TF.FileFunction,Copper,L2,Bot,Signal*%
%FSLAX46Y46*%
G04 Gerber Fmt 4.6, Leading zero omitted, Abs format (unit mm)*
G04 Created by KiCad (PCBNEW 4.0.4-stable) date 12/12/16 23:19:24*
%MOMM*%
%LPD*%
G01*
G04 APERTURE LIST*
%ADD10C,0.100000*%
%ADD11C,0.300000*%
%ADD12C,1.524000*%
%ADD13R,1.500000X1.500000*%
%ADD14R,2.540000X1.524000*%
%ADD15R,1.524000X2.540000*%
%ADD16C,0.250000*%
G04 APERTURE END LIST*
D10*
D11*
X71591143Y-139362571D02*
X71591143Y-137862571D01*
X71091143Y-138934000D01*
X70591143Y-137862571D01*
X70591143Y-139362571D01*
X69234000Y-139362571D02*
X69234000Y-138576857D01*
X69305429Y-138434000D01*
X69448286Y-138362571D01*
X69734000Y-138362571D01*
X69876857Y-138434000D01*
X69234000Y-139291143D02*
X69376857Y-139362571D01*
X69734000Y-139362571D01*
X69876857Y-139291143D01*
X69948286Y-139148286D01*
X69948286Y-139005429D01*
X69876857Y-138862571D01*
X69734000Y-138791143D01*
X69376857Y-138791143D01*
X69234000Y-138719714D01*
X67876857Y-139362571D02*
X67876857Y-137862571D01*
X67876857Y-139291143D02*
X68019714Y-139362571D01*
X68305428Y-139362571D01*
X68448286Y-139291143D01*
X68519714Y-139219714D01*
X68591143Y-139076857D01*
X68591143Y-138648286D01*
X68519714Y-138505429D01*
X68448286Y-138434000D01*
X68305428Y-138362571D01*
X68019714Y-138362571D01*
X67876857Y-138434000D01*
X66591143Y-139291143D02*
X66734000Y-139362571D01*
X67019714Y-139362571D01*
X67162571Y-139291143D01*
X67234000Y-139148286D01*
X67234000Y-138576857D01*
X67162571Y-138434000D01*
X67019714Y-138362571D01*
X66734000Y-138362571D01*
X66591143Y-138434000D01*
X66519714Y-138576857D01*
X66519714Y-138719714D01*
X67234000Y-138862571D01*
X64876857Y-138362571D02*
X64591143Y-139362571D01*
X64305429Y-138648286D01*
X64019714Y-139362571D01*
X63734000Y-138362571D01*
X63162571Y-139362571D02*
X63162571Y-138362571D01*
X63162571Y-137862571D02*
X63234000Y-137934000D01*
X63162571Y-138005429D01*
X63091143Y-137934000D01*
X63162571Y-137862571D01*
X63162571Y-138005429D01*
X62662571Y-138362571D02*
X62091142Y-138362571D01*
X62448285Y-137862571D02*
X62448285Y-139148286D01*
X62376857Y-139291143D01*
X62233999Y-139362571D01*
X62091142Y-139362571D01*
X61591142Y-139362571D02*
X61591142Y-137862571D01*
X60948285Y-139362571D02*
X60948285Y-138576857D01*
X61019714Y-138434000D01*
X61162571Y-138362571D01*
X61376856Y-138362571D01*
X61519714Y-138434000D01*
X61591142Y-138505429D01*
X59091142Y-139362571D02*
X59091142Y-137862571D01*
X58233999Y-139362571D02*
X58876856Y-138505429D01*
X58233999Y-137862571D02*
X59091142Y-138719714D01*
X57591142Y-139362571D02*
X57591142Y-138362571D01*
X57591142Y-137862571D02*
X57662571Y-137934000D01*
X57591142Y-138005429D01*
X57519714Y-137934000D01*
X57591142Y-137862571D01*
X57591142Y-138005429D01*
X56019713Y-139219714D02*
X56091142Y-139291143D01*
X56305428Y-139362571D01*
X56448285Y-139362571D01*
X56662570Y-139291143D01*
X56805428Y-139148286D01*
X56876856Y-139005429D01*
X56948285Y-138719714D01*
X56948285Y-138505429D01*
X56876856Y-138219714D01*
X56805428Y-138076857D01*
X56662570Y-137934000D01*
X56448285Y-137862571D01*
X56305428Y-137862571D01*
X56091142Y-137934000D01*
X56019713Y-138005429D01*
X54733999Y-139362571D02*
X54733999Y-138576857D01*
X54805428Y-138434000D01*
X54948285Y-138362571D01*
X55233999Y-138362571D01*
X55376856Y-138434000D01*
X54733999Y-139291143D02*
X54876856Y-139362571D01*
X55233999Y-139362571D01*
X55376856Y-139291143D01*
X55448285Y-139148286D01*
X55448285Y-139005429D01*
X55376856Y-138862571D01*
X55233999Y-138791143D01*
X54876856Y-138791143D01*
X54733999Y-138719714D01*
X53376856Y-139362571D02*
X53376856Y-137862571D01*
X53376856Y-139291143D02*
X53519713Y-139362571D01*
X53805427Y-139362571D01*
X53948285Y-139291143D01*
X54019713Y-139219714D01*
X54091142Y-139076857D01*
X54091142Y-138648286D01*
X54019713Y-138505429D01*
X53948285Y-138434000D01*
X53805427Y-138362571D01*
X53519713Y-138362571D01*
X53376856Y-138434000D01*
X80434571Y-41740857D02*
X78934571Y-41740857D01*
X78934571Y-42098000D01*
X79006000Y-42312285D01*
X79148857Y-42455143D01*
X79291714Y-42526571D01*
X79577429Y-42598000D01*
X79791714Y-42598000D01*
X80077429Y-42526571D01*
X80220286Y-42455143D01*
X80363143Y-42312285D01*
X80434571Y-42098000D01*
X80434571Y-41740857D01*
X80363143Y-43812285D02*
X80434571Y-43669428D01*
X80434571Y-43383714D01*
X80363143Y-43240857D01*
X80220286Y-43169428D01*
X79648857Y-43169428D01*
X79506000Y-43240857D01*
X79434571Y-43383714D01*
X79434571Y-43669428D01*
X79506000Y-43812285D01*
X79648857Y-43883714D01*
X79791714Y-43883714D01*
X79934571Y-43169428D01*
X80363143Y-44455142D02*
X80434571Y-44597999D01*
X80434571Y-44883714D01*
X80363143Y-45026571D01*
X80220286Y-45097999D01*
X80148857Y-45097999D01*
X80006000Y-45026571D01*
X79934571Y-44883714D01*
X79934571Y-44669428D01*
X79863143Y-44526571D01*
X79720286Y-44455142D01*
X79648857Y-44455142D01*
X79506000Y-44526571D01*
X79434571Y-44669428D01*
X79434571Y-44883714D01*
X79506000Y-45026571D01*
X80434571Y-45740857D02*
X79434571Y-45740857D01*
X78934571Y-45740857D02*
X79006000Y-45669428D01*
X79077429Y-45740857D01*
X79006000Y-45812285D01*
X78934571Y-45740857D01*
X79077429Y-45740857D01*
X79434571Y-47098000D02*
X80648857Y-47098000D01*
X80791714Y-47026571D01*
X80863143Y-46955143D01*
X80934571Y-46812286D01*
X80934571Y-46598000D01*
X80863143Y-46455143D01*
X80363143Y-47098000D02*
X80434571Y-46955143D01*
X80434571Y-46669429D01*
X80363143Y-46526571D01*
X80291714Y-46455143D01*
X80148857Y-46383714D01*
X79720286Y-46383714D01*
X79577429Y-46455143D01*
X79506000Y-46526571D01*
X79434571Y-46669429D01*
X79434571Y-46955143D01*
X79506000Y-47098000D01*
X79434571Y-47812286D02*
X80434571Y-47812286D01*
X79577429Y-47812286D02*
X79506000Y-47883714D01*
X79434571Y-48026572D01*
X79434571Y-48240857D01*
X79506000Y-48383714D01*
X79648857Y-48455143D01*
X80434571Y-48455143D01*
X80363143Y-49740857D02*
X80434571Y-49598000D01*
X80434571Y-49312286D01*
X80363143Y-49169429D01*
X80220286Y-49098000D01*
X79648857Y-49098000D01*
X79506000Y-49169429D01*
X79434571Y-49312286D01*
X79434571Y-49598000D01*
X79506000Y-49740857D01*
X79648857Y-49812286D01*
X79791714Y-49812286D01*
X79934571Y-49098000D01*
X80434571Y-51098000D02*
X78934571Y-51098000D01*
X80363143Y-51098000D02*
X80434571Y-50955143D01*
X80434571Y-50669429D01*
X80363143Y-50526571D01*
X80291714Y-50455143D01*
X80148857Y-50383714D01*
X79720286Y-50383714D01*
X79577429Y-50455143D01*
X79506000Y-50526571D01*
X79434571Y-50669429D01*
X79434571Y-50955143D01*
X79506000Y-51098000D01*
X80434571Y-52955143D02*
X79434571Y-52955143D01*
X78934571Y-52955143D02*
X79006000Y-52883714D01*
X79077429Y-52955143D01*
X79006000Y-53026571D01*
X78934571Y-52955143D01*
X79077429Y-52955143D01*
X79434571Y-53669429D02*
X80434571Y-53669429D01*
X79577429Y-53669429D02*
X79506000Y-53740857D01*
X79434571Y-53883715D01*
X79434571Y-54098000D01*
X79506000Y-54240857D01*
X79648857Y-54312286D01*
X80434571Y-54312286D01*
X80434571Y-56169429D02*
X78934571Y-56169429D01*
X80006000Y-56669429D01*
X78934571Y-57169429D01*
X80434571Y-57169429D01*
X80434571Y-58526572D02*
X79648857Y-58526572D01*
X79506000Y-58455143D01*
X79434571Y-58312286D01*
X79434571Y-58026572D01*
X79506000Y-57883715D01*
X80363143Y-58526572D02*
X80434571Y-58383715D01*
X80434571Y-58026572D01*
X80363143Y-57883715D01*
X80220286Y-57812286D01*
X80077429Y-57812286D01*
X79934571Y-57883715D01*
X79863143Y-58026572D01*
X79863143Y-58383715D01*
X79791714Y-58526572D01*
X80434571Y-59240858D02*
X78934571Y-59240858D01*
X79863143Y-59383715D02*
X80434571Y-59812286D01*
X79434571Y-59812286D02*
X80006000Y-59240858D01*
X80363143Y-61026572D02*
X80434571Y-60883715D01*
X80434571Y-60598001D01*
X80363143Y-60455144D01*
X80220286Y-60383715D01*
X79648857Y-60383715D01*
X79506000Y-60455144D01*
X79434571Y-60598001D01*
X79434571Y-60883715D01*
X79506000Y-61026572D01*
X79648857Y-61098001D01*
X79791714Y-61098001D01*
X79934571Y-60383715D01*
X80434571Y-62598001D02*
X79720286Y-62098001D01*
X80434571Y-61740858D02*
X78934571Y-61740858D01*
X78934571Y-62312286D01*
X79006000Y-62455144D01*
X79077429Y-62526572D01*
X79220286Y-62598001D01*
X79434571Y-62598001D01*
X79577429Y-62526572D01*
X79648857Y-62455144D01*
X79720286Y-62312286D01*
X79720286Y-61740858D01*
X80434571Y-63240858D02*
X79434571Y-63240858D01*
X78934571Y-63240858D02*
X79006000Y-63169429D01*
X79077429Y-63240858D01*
X79006000Y-63312286D01*
X78934571Y-63240858D01*
X79077429Y-63240858D01*
X79434571Y-64598001D02*
X80648857Y-64598001D01*
X80791714Y-64526572D01*
X80863143Y-64455144D01*
X80934571Y-64312287D01*
X80934571Y-64098001D01*
X80863143Y-63955144D01*
X80363143Y-64598001D02*
X80434571Y-64455144D01*
X80434571Y-64169430D01*
X80363143Y-64026572D01*
X80291714Y-63955144D01*
X80148857Y-63883715D01*
X79720286Y-63883715D01*
X79577429Y-63955144D01*
X79506000Y-64026572D01*
X79434571Y-64169430D01*
X79434571Y-64455144D01*
X79506000Y-64598001D01*
X80434571Y-65955144D02*
X79648857Y-65955144D01*
X79506000Y-65883715D01*
X79434571Y-65740858D01*
X79434571Y-65455144D01*
X79506000Y-65312287D01*
X80363143Y-65955144D02*
X80434571Y-65812287D01*
X80434571Y-65455144D01*
X80363143Y-65312287D01*
X80220286Y-65240858D01*
X80077429Y-65240858D01*
X79934571Y-65312287D01*
X79863143Y-65455144D01*
X79863143Y-65812287D01*
X79791714Y-65955144D01*
D12*
X67564000Y-136652000D03*
X70104000Y-136652000D03*
X65024000Y-136652000D03*
X80264000Y-116332000D03*
X80264000Y-121412000D03*
X80264000Y-118872000D03*
X80264000Y-126492000D03*
X80264000Y-129032000D03*
X80264000Y-123952000D03*
X80264000Y-113792000D03*
X80264000Y-131572000D03*
X80264000Y-80772000D03*
X80264000Y-78232000D03*
X80264000Y-75692000D03*
X80264000Y-85852000D03*
X80264000Y-83312000D03*
X80264000Y-90932000D03*
X80264000Y-93472000D03*
X80264000Y-88392000D03*
X80264000Y-103632000D03*
X80264000Y-108712000D03*
X80264000Y-106172000D03*
X80264000Y-98552000D03*
X80264000Y-101092000D03*
X80264000Y-96012000D03*
X80264000Y-111252000D03*
X80264000Y-68072000D03*
X80264000Y-70612000D03*
X80264000Y-73152000D03*
X75184000Y-134112000D03*
X77724000Y-134112000D03*
X80264000Y-134112000D03*
X80264000Y-136652000D03*
X77724000Y-136652000D03*
X67564000Y-90932000D03*
X67564000Y-93472000D03*
X67564000Y-96012000D03*
X67564000Y-88392000D03*
X67564000Y-85852000D03*
X67564000Y-83312000D03*
X67564000Y-113792000D03*
X67564000Y-111252000D03*
X67564000Y-103632000D03*
X67564000Y-111252000D03*
X67564000Y-108712000D03*
X67564000Y-106172000D03*
X44704000Y-134112000D03*
X44704000Y-136652000D03*
X62484000Y-136652000D03*
X62484000Y-134112000D03*
X59944000Y-134112000D03*
X57404000Y-134112000D03*
X59944000Y-136652000D03*
X57404000Y-136652000D03*
X47244000Y-136652000D03*
X47244000Y-134112000D03*
X54864000Y-134112000D03*
X54864000Y-136652000D03*
X44704000Y-131572000D03*
X62484000Y-131572000D03*
X65024000Y-131572000D03*
X59944000Y-131572000D03*
X57404000Y-131572000D03*
X47244000Y-131572000D03*
X49784000Y-131572000D03*
X54864000Y-131572000D03*
X52324000Y-131572000D03*
X47244000Y-65532000D03*
X49784000Y-65532000D03*
X72644000Y-73152000D03*
X75184000Y-73152000D03*
X72644000Y-70612000D03*
X77724000Y-73152000D03*
X75184000Y-70612000D03*
X77724000Y-68072000D03*
X77724000Y-70612000D03*
X75184000Y-68072000D03*
X72644000Y-68072000D03*
X67564000Y-68072000D03*
X70104000Y-68072000D03*
X70104000Y-70612000D03*
X67564000Y-70612000D03*
X70104000Y-73152000D03*
X67564000Y-73152000D03*
X57404000Y-73152000D03*
X59944000Y-73152000D03*
X57404000Y-70612000D03*
X59944000Y-70612000D03*
X59944000Y-68072000D03*
X57404000Y-68072000D03*
X62484000Y-68072000D03*
X65024000Y-68072000D03*
X65024000Y-70612000D03*
X62484000Y-70612000D03*
X65024000Y-73152000D03*
X62484000Y-73152000D03*
X54864000Y-73152000D03*
X52324000Y-73152000D03*
X47244000Y-73152000D03*
X49784000Y-73152000D03*
X44704000Y-73152000D03*
X49784000Y-70612000D03*
X52324000Y-70612000D03*
X52324000Y-68072000D03*
X49784000Y-68072000D03*
X44704000Y-68072000D03*
X47244000Y-68072000D03*
X47244000Y-70612000D03*
X44704000Y-70612000D03*
X54864000Y-70612000D03*
X54864000Y-68072000D03*
X47244000Y-73152000D03*
X49784000Y-73152000D03*
X54864000Y-75692000D03*
X54864000Y-78232000D03*
X44704000Y-78232000D03*
X47244000Y-78232000D03*
X47244000Y-75692000D03*
X44704000Y-75692000D03*
X49784000Y-75692000D03*
X52324000Y-75692000D03*
X44704000Y-111252000D03*
X44704000Y-113792000D03*
X67564000Y-116332000D03*
X62484000Y-113792000D03*
X65024000Y-113792000D03*
X62484000Y-111252000D03*
X65024000Y-111252000D03*
X59944000Y-111252000D03*
X57404000Y-111252000D03*
X59944000Y-113792000D03*
X57404000Y-113792000D03*
X47244000Y-113792000D03*
X49784000Y-113792000D03*
X47244000Y-111252000D03*
X49784000Y-111252000D03*
X54864000Y-111252000D03*
X52324000Y-111252000D03*
X54864000Y-113792000D03*
X52324000Y-113792000D03*
X57404000Y-123952000D03*
X59944000Y-123952000D03*
X65024000Y-123952000D03*
X62484000Y-123952000D03*
X52324000Y-129032000D03*
X54864000Y-129032000D03*
X52324000Y-126492000D03*
X54864000Y-126492000D03*
X54864000Y-123952000D03*
X52324000Y-123952000D03*
X47244000Y-123952000D03*
X49784000Y-123952000D03*
X49784000Y-126492000D03*
X47244000Y-126492000D03*
X49784000Y-129032000D03*
X47244000Y-129032000D03*
X57404000Y-129032000D03*
X59944000Y-129032000D03*
X57404000Y-126492000D03*
X59944000Y-126492000D03*
X67564000Y-126492000D03*
X65024000Y-126492000D03*
X62484000Y-126492000D03*
X65024000Y-129032000D03*
X62484000Y-129032000D03*
X44704000Y-129032000D03*
X44704000Y-126492000D03*
X44704000Y-123952000D03*
X44704000Y-116332000D03*
X44704000Y-118872000D03*
X44704000Y-121412000D03*
X67564000Y-123952000D03*
X62484000Y-121412000D03*
X65024000Y-121412000D03*
X62484000Y-118872000D03*
X67564000Y-121412000D03*
X65024000Y-118872000D03*
X67564000Y-118872000D03*
X59944000Y-118872000D03*
X57404000Y-118872000D03*
X59944000Y-121412000D03*
X57404000Y-121412000D03*
X47244000Y-121412000D03*
X49784000Y-121412000D03*
X47244000Y-118872000D03*
X49784000Y-118872000D03*
X49784000Y-116332000D03*
X47244000Y-116332000D03*
X52324000Y-116332000D03*
X54864000Y-116332000D03*
X54864000Y-118872000D03*
X52324000Y-118872000D03*
X54864000Y-121412000D03*
X52324000Y-121412000D03*
X62484000Y-116332000D03*
X65024000Y-116332000D03*
X59944000Y-116332000D03*
X57404000Y-116332000D03*
X57404000Y-96012000D03*
X59944000Y-96012000D03*
X65024000Y-96012000D03*
X62484000Y-96012000D03*
X52324000Y-101092000D03*
X54864000Y-101092000D03*
X52324000Y-98552000D03*
X54864000Y-98552000D03*
X54864000Y-96012000D03*
X52324000Y-96012000D03*
X47244000Y-96012000D03*
X49784000Y-96012000D03*
X49784000Y-98552000D03*
X47244000Y-98552000D03*
X49784000Y-101092000D03*
X47244000Y-101092000D03*
X57404000Y-101092000D03*
X59944000Y-101092000D03*
X57404000Y-98552000D03*
X59944000Y-98552000D03*
X67564000Y-98552000D03*
X65024000Y-98552000D03*
X67564000Y-101092000D03*
X62484000Y-98552000D03*
X65024000Y-101092000D03*
X62484000Y-101092000D03*
X44704000Y-101092000D03*
X44704000Y-98552000D03*
X44704000Y-96012000D03*
X44704000Y-103632000D03*
X44704000Y-106172000D03*
X44704000Y-108712000D03*
X62484000Y-108712000D03*
X65024000Y-108712000D03*
X62484000Y-106172000D03*
X65024000Y-106172000D03*
X59944000Y-106172000D03*
X57404000Y-106172000D03*
X59944000Y-108712000D03*
X57404000Y-108712000D03*
X47244000Y-108712000D03*
X49784000Y-108712000D03*
X47244000Y-106172000D03*
X49784000Y-106172000D03*
X49784000Y-103632000D03*
X47244000Y-103632000D03*
X52324000Y-103632000D03*
X54864000Y-103632000D03*
X54864000Y-106172000D03*
X52324000Y-106172000D03*
X54864000Y-108712000D03*
X52324000Y-108712000D03*
X62484000Y-103632000D03*
X65024000Y-103632000D03*
X59944000Y-103632000D03*
X57404000Y-103632000D03*
X57404000Y-88392000D03*
X59944000Y-88392000D03*
X65024000Y-88392000D03*
X62484000Y-88392000D03*
X52324000Y-93472000D03*
X54864000Y-93472000D03*
X52324000Y-90932000D03*
X54864000Y-90932000D03*
X54864000Y-88392000D03*
X52324000Y-88392000D03*
X47244000Y-88392000D03*
X49784000Y-88392000D03*
X49784000Y-90932000D03*
X47244000Y-90932000D03*
X49784000Y-93472000D03*
X47244000Y-93472000D03*
X57404000Y-93472000D03*
X59944000Y-93472000D03*
X57404000Y-90932000D03*
X59944000Y-90932000D03*
X65024000Y-90932000D03*
X62484000Y-90932000D03*
X65024000Y-93472000D03*
X62484000Y-93472000D03*
X44704000Y-93472000D03*
X44704000Y-90932000D03*
X44704000Y-88392000D03*
X44704000Y-80772000D03*
X44704000Y-83312000D03*
X44704000Y-85852000D03*
X62484000Y-85852000D03*
X65024000Y-85852000D03*
X62484000Y-83312000D03*
X65024000Y-83312000D03*
X59944000Y-83312000D03*
X57404000Y-83312000D03*
X59944000Y-85852000D03*
X57404000Y-85852000D03*
X47244000Y-85852000D03*
X49784000Y-85852000D03*
X47244000Y-83312000D03*
X49784000Y-83312000D03*
X47244000Y-80772000D03*
X54864000Y-80772000D03*
X54864000Y-83312000D03*
X52324000Y-83312000D03*
X54864000Y-85852000D03*
X52324000Y-85852000D03*
X62484000Y-80772000D03*
X65024000Y-80772000D03*
X62484000Y-78232000D03*
X65024000Y-78232000D03*
X65024000Y-75692000D03*
X62484000Y-75692000D03*
X57404000Y-75692000D03*
X59944000Y-75692000D03*
X59944000Y-78232000D03*
X57404000Y-78232000D03*
X59944000Y-80772000D03*
X57404000Y-80772000D03*
X67564000Y-80772000D03*
X70104000Y-80772000D03*
X67564000Y-78232000D03*
X70104000Y-78232000D03*
X70104000Y-75692000D03*
X67564000Y-75692000D03*
X72644000Y-75692000D03*
X75184000Y-75692000D03*
X77724000Y-78232000D03*
X77724000Y-75692000D03*
X75184000Y-78232000D03*
X77724000Y-80772000D03*
X72644000Y-78232000D03*
X77724000Y-83312000D03*
X75184000Y-80772000D03*
X72644000Y-83312000D03*
X75184000Y-83312000D03*
X72644000Y-85852000D03*
X75184000Y-85852000D03*
X72644000Y-88392000D03*
X75184000Y-88392000D03*
X72644000Y-90932000D03*
X75184000Y-90932000D03*
X72644000Y-93472000D03*
X75184000Y-93472000D03*
X72644000Y-96012000D03*
X75184000Y-96012000D03*
X72644000Y-98552000D03*
X75184000Y-98552000D03*
X72644000Y-101092000D03*
X75184000Y-101092000D03*
X72644000Y-103632000D03*
X75184000Y-103632000D03*
X72644000Y-106172000D03*
X75184000Y-106172000D03*
X72644000Y-108712000D03*
X75184000Y-108712000D03*
X72644000Y-111252000D03*
X75184000Y-111252000D03*
X72644000Y-113792000D03*
X75184000Y-113792000D03*
X72644000Y-116332000D03*
X75184000Y-116332000D03*
X72644000Y-118872000D03*
X75184000Y-118872000D03*
X72644000Y-121412000D03*
X75184000Y-121412000D03*
X72644000Y-123952000D03*
X75184000Y-123952000D03*
X72644000Y-126492000D03*
X75184000Y-126492000D03*
X72644000Y-129032000D03*
X75184000Y-129032000D03*
X72644000Y-131572000D03*
X75184000Y-131572000D03*
X70104000Y-129032000D03*
X70104000Y-131572000D03*
X67564000Y-129032000D03*
X67564000Y-131572000D03*
D13*
X70100000Y-134170000D03*
X70104000Y-111252000D03*
X70104000Y-83312000D03*
X77724000Y-113792000D03*
X70104000Y-90932000D03*
X70104000Y-96012000D03*
X77724000Y-121412000D03*
X77724000Y-126492000D03*
X77724000Y-129032000D03*
X77724000Y-131572000D03*
X70104000Y-103632000D03*
X77724000Y-116332000D03*
X65024000Y-134112000D03*
X70104000Y-93472000D03*
X70104000Y-113792000D03*
X77724000Y-88392000D03*
X77724000Y-123952000D03*
X77724000Y-90932000D03*
X77724000Y-93472000D03*
X77724000Y-85852000D03*
X67564000Y-134112000D03*
X70104000Y-85852000D03*
X70104000Y-88392000D03*
X70104000Y-106172000D03*
X70104000Y-108712000D03*
X77724000Y-118872000D03*
D12*
X77749400Y-45186600D03*
X77749400Y-42646600D03*
X77749400Y-55346600D03*
X77749400Y-52806600D03*
X77749400Y-47726600D03*
X77749400Y-50266600D03*
X77749400Y-60426600D03*
X77749400Y-57886600D03*
X77749400Y-62966600D03*
X77749400Y-65506600D03*
D14*
X53619400Y-42646600D03*
X56159400Y-42646600D03*
X66319400Y-42646600D03*
X68859400Y-42646600D03*
D12*
X75209400Y-42646600D03*
X72669400Y-42646600D03*
X70129400Y-42646600D03*
X67589400Y-42646600D03*
X65049400Y-42646600D03*
X62509400Y-42646600D03*
X59969400Y-42646600D03*
X57429400Y-42646600D03*
X54889400Y-42646600D03*
X52349400Y-42646600D03*
X49809400Y-42646600D03*
X47269400Y-42646600D03*
X44729400Y-42646600D03*
D14*
X53619400Y-45186600D03*
X56159400Y-45186600D03*
X66319400Y-45186600D03*
D15*
X59969400Y-43916600D03*
X62509400Y-43916600D03*
D14*
X68859400Y-45186600D03*
D12*
X75209400Y-45186600D03*
X72669400Y-45186600D03*
X70129400Y-45186600D03*
X67589400Y-45186600D03*
X65049400Y-45186600D03*
X62509400Y-45186600D03*
X59969400Y-45186600D03*
X57429400Y-45186600D03*
X54889400Y-45186600D03*
X52349400Y-45186600D03*
X49809400Y-45186600D03*
X47269400Y-45186600D03*
X44729400Y-45186600D03*
D14*
X53619400Y-47726600D03*
X56159400Y-47726600D03*
X66319400Y-47726600D03*
D15*
X59969400Y-46456600D03*
X62509400Y-46456600D03*
D14*
X68859400Y-47726600D03*
D12*
X75209400Y-47726600D03*
X72669400Y-47726600D03*
X70129400Y-47726600D03*
X67589400Y-47726600D03*
X65049400Y-47726600D03*
X62509400Y-47726600D03*
X59969400Y-47726600D03*
X57429400Y-47726600D03*
X54889400Y-47726600D03*
X52349400Y-47726600D03*
X49809400Y-47726600D03*
X47269400Y-47726600D03*
X44729400Y-47726600D03*
D14*
X53619400Y-50266600D03*
X56159400Y-50266600D03*
X66319400Y-50266600D03*
D15*
X59969400Y-48996600D03*
X62509400Y-48996600D03*
D14*
X68859400Y-50266600D03*
D12*
X75209400Y-50266600D03*
X72669400Y-50266600D03*
X70129400Y-50266600D03*
X67589400Y-50266600D03*
X65049400Y-50266600D03*
X62509400Y-50266600D03*
X59969400Y-50266600D03*
X57429400Y-50266600D03*
X54889400Y-50266600D03*
X52349400Y-50266600D03*
X49809400Y-50266600D03*
X47269400Y-50266600D03*
X44729400Y-50266600D03*
D14*
X53619400Y-52806600D03*
X56159400Y-52806600D03*
X66319400Y-52806600D03*
D15*
X59969400Y-51536600D03*
X62509400Y-51536600D03*
D14*
X68859400Y-52806600D03*
D12*
X75209400Y-52806600D03*
X72669400Y-52806600D03*
X70129400Y-52806600D03*
X67589400Y-52806600D03*
X65049400Y-52806600D03*
X62509400Y-52806600D03*
X59969400Y-52806600D03*
X57429400Y-52806600D03*
X54889400Y-52806600D03*
X52349400Y-52806600D03*
X49809400Y-52806600D03*
X47269400Y-52806600D03*
X44729400Y-52806600D03*
D14*
X53619400Y-55346600D03*
X56159400Y-55346600D03*
X66319400Y-55346600D03*
D15*
X59969400Y-54076600D03*
X62509400Y-54076600D03*
D14*
X68859400Y-55346600D03*
D12*
X75209400Y-55346600D03*
X72669400Y-55346600D03*
X70129400Y-55346600D03*
X67589400Y-55346600D03*
X65049400Y-55346600D03*
X62509400Y-55346600D03*
X59969400Y-55346600D03*
X57429400Y-55346600D03*
X54889400Y-55346600D03*
X52349400Y-55346600D03*
X49809400Y-55346600D03*
X47269400Y-55346600D03*
X44729400Y-55346600D03*
D14*
X53619400Y-57886600D03*
X56159400Y-57886600D03*
X66319400Y-57886600D03*
D15*
X59969400Y-56616600D03*
X62509400Y-56616600D03*
D14*
X68859400Y-57886600D03*
D12*
X75209400Y-57886600D03*
X72669400Y-57886600D03*
X70129400Y-57886600D03*
X67589400Y-57886600D03*
X65049400Y-57886600D03*
X62509400Y-57886600D03*
X59969400Y-57886600D03*
X57429400Y-57886600D03*
X54889400Y-57886600D03*
X52349400Y-57886600D03*
X49809400Y-57886600D03*
X47269400Y-57886600D03*
X44729400Y-57886600D03*
D14*
X53619400Y-60426600D03*
X56159400Y-60426600D03*
X66319400Y-60426600D03*
D15*
X59969400Y-59156600D03*
X62509400Y-59156600D03*
D14*
X68859400Y-60426600D03*
D12*
X75209400Y-60426600D03*
X72669400Y-60426600D03*
X70129400Y-60426600D03*
X67589400Y-60426600D03*
X65049400Y-60426600D03*
X62509400Y-60426600D03*
X59969400Y-60426600D03*
X57429400Y-60426600D03*
X54889400Y-60426600D03*
X52349400Y-60426600D03*
X49809400Y-60426600D03*
X47269400Y-60426600D03*
X44729400Y-60426600D03*
D14*
X53619400Y-62966600D03*
X56159400Y-62966600D03*
X66319400Y-62966600D03*
D15*
X59969400Y-61696600D03*
X62509400Y-61696600D03*
D14*
X68859400Y-62966600D03*
D12*
X75209400Y-62966600D03*
X72669400Y-62966600D03*
X70129400Y-62966600D03*
X67589400Y-62966600D03*
X65049400Y-62966600D03*
X62509400Y-62966600D03*
X59969400Y-62966600D03*
X57429400Y-62966600D03*
X54889400Y-62966600D03*
X52349400Y-62966600D03*
X49809400Y-62966600D03*
X47269400Y-62966600D03*
X44729400Y-62966600D03*
D14*
X53619400Y-65506600D03*
X56159400Y-65506600D03*
X66319400Y-65506600D03*
D15*
X59969400Y-64236600D03*
X62509400Y-64236600D03*
D14*
X68859400Y-65506600D03*
D12*
X75209400Y-65506600D03*
X72669400Y-65506600D03*
X70129400Y-65506600D03*
X67589400Y-65506600D03*
X65049400Y-65506600D03*
X62509400Y-65506600D03*
X59969400Y-65506600D03*
X57429400Y-65506600D03*
X54889400Y-65506600D03*
X52349400Y-65506600D03*
X49809400Y-65506600D03*
X47269400Y-65506600D03*
X44729400Y-65506600D03*
X72644000Y-80772000D03*
D16*
X70104000Y-83312000D02*
X72644000Y-83312000D01*
X70104000Y-103632000D02*
X72644000Y-103632000D01*
X72644000Y-131572000D02*
X72644000Y-130429000D01*
X72644000Y-130429000D02*
X73152000Y-130429000D01*
X75184000Y-123952000D02*
X73914000Y-123952000D01*
X73914000Y-123952000D02*
X73914000Y-118872000D01*
X75184000Y-118872000D02*
X73914000Y-118872000D01*
X73914000Y-118872000D02*
X73914000Y-113792000D01*
X72644000Y-113792000D02*
X73914000Y-113792000D01*
X73914000Y-113792000D02*
X73914000Y-106045000D01*
X75184000Y-98552000D02*
X73914000Y-98552000D01*
X73914000Y-98552000D02*
X73914000Y-93599000D01*
X75057000Y-106045000D02*
X73914000Y-106045000D01*
X75184000Y-106172000D02*
X75057000Y-106045000D01*
X73914000Y-106045000D02*
X73914000Y-98552000D01*
X72771000Y-93599000D02*
X73914000Y-93599000D01*
X72644000Y-93472000D02*
X72771000Y-93599000D01*
X73914000Y-93599000D02*
X73914000Y-89662000D01*
X73914000Y-89662000D02*
X75184000Y-88392000D01*
X73914000Y-129794000D02*
X73914000Y-123952000D01*
X73279000Y-130429000D02*
X73914000Y-129794000D01*
X73152000Y-130429000D02*
X73279000Y-130429000D01*
X68707000Y-130429000D02*
X72644000Y-130429000D01*
X67564000Y-131572000D02*
X68707000Y-130429000D01*
X67564000Y-131572000D02*
X67564000Y-134112000D01*
X75184000Y-118872000D02*
X77724000Y-118872000D01*
X75184000Y-123952000D02*
X77724000Y-123952000D01*
X70104000Y-113792000D02*
X72644000Y-113792000D01*
X75184000Y-88392000D02*
X77724000Y-88392000D01*
X70104000Y-93472000D02*
X72644000Y-93472000D01*
X75184000Y-83312000D02*
X75184000Y-85852000D01*
X75184000Y-85852000D02*
X77724000Y-85852000D01*
X70104000Y-85852000D02*
X72644000Y-85852000D01*
X70104000Y-88392000D02*
X72644000Y-88392000D01*
X70104000Y-90932000D02*
X72644000Y-90932000D01*
X75184000Y-90932000D02*
X77724000Y-90932000D01*
X75184000Y-93472000D02*
X77724000Y-93472000D01*
X70104000Y-96012000D02*
X72644000Y-96012000D01*
X70104000Y-108712000D02*
X72644000Y-108712000D01*
X75184000Y-113792000D02*
X77724000Y-113792000D01*
X75184000Y-116332000D02*
X77724000Y-116332000D01*
X75184000Y-121412000D02*
X77724000Y-121412000D01*
X77724000Y-126492000D02*
X75184000Y-126492000D01*
X75184000Y-129032000D02*
X77724000Y-129032000D01*
X75184000Y-131572000D02*
X77724000Y-131572000D01*
X70104000Y-131572000D02*
X70104000Y-134166000D01*
X70104000Y-134166000D02*
X70100000Y-134170000D01*
X66294000Y-132842000D02*
X65024000Y-134112000D01*
X66294000Y-130048000D02*
X66294000Y-132842000D01*
X67310000Y-129032000D02*
X66294000Y-130048000D01*
X67564000Y-129032000D02*
X67310000Y-129032000D01*
X70104000Y-106172000D02*
X72644000Y-106172000D01*
X70104000Y-111252000D02*
X72644000Y-111252000D01*
M02*
