%TF.GenerationSoftware,KiCad,Pcbnew,4.0.4-stable*%
%TF.CreationDate,2017-05-07T04:07:06+03:00*%
%TF.ProjectId,back_prototype,6261636B5F70726F746F747970652E6B,rev?*%
%TF.FileFunction,Soldermask,Top*%
%FSLAX46Y46*%
G04 Gerber Fmt 4.6, Leading zero omitted, Abs format (unit mm)*
G04 Created by KiCad (PCBNEW 4.0.4-stable) date 05/07/17 04:07:06*
%MOMM*%
%LPD*%
G01*
G04 APERTURE LIST*
%ADD10C,0.100000*%
%ADD11C,2.540000*%
%ADD12R,1.620000X1.820000*%
%ADD13O,2.320000X2.320000*%
%ADD14R,2.020000X2.020000*%
%ADD15O,2.020000X2.020000*%
%ADD16R,3.820000X1.320000*%
%ADD17R,3.720000X1.920000*%
%ADD18C,1.844000*%
%ADD19R,2.320000X2.320000*%
%ADD20R,1.590000X1.290000*%
%ADD21C,2.020000*%
%ADD22R,1.820000X1.620000*%
%ADD23R,1.570000X1.820000*%
%ADD24R,1.820000X1.570000*%
%ADD25R,0.920000X1.720000*%
%ADD26R,0.920000X2.320000*%
%ADD27R,0.920000X1.920000*%
%ADD28R,0.820000X1.220000*%
%ADD29C,1.820000*%
%ADD30C,3.320000*%
%ADD31C,2.320000*%
%ADD32C,0.254000*%
G04 APERTURE END LIST*
D10*
D11*
X76850000Y-58200000D03*
D12*
X45656500Y-59198500D03*
X45656500Y-56498500D03*
D13*
X42324400Y-61180800D03*
X42324400Y-74980800D03*
X65184400Y-61180800D03*
X65184400Y-64180800D03*
X65184400Y-71980800D03*
X65184400Y-74980800D03*
D14*
X44069000Y-127000000D03*
D15*
X44069000Y-124460000D03*
X44069000Y-121920000D03*
X44069000Y-119380000D03*
X44069000Y-116840000D03*
X44069000Y-114300000D03*
D16*
X74288600Y-69326000D03*
X74288600Y-67326000D03*
D17*
X79838600Y-71726000D03*
X79838600Y-64926000D03*
D18*
X71983600Y-69342000D03*
X71983600Y-67310000D03*
X76555600Y-67310000D03*
X76555600Y-69342000D03*
D19*
X74523600Y-70866000D03*
X74523600Y-65786000D03*
D14*
X51562000Y-111506000D03*
D15*
X51562000Y-108966000D03*
X51562000Y-106426000D03*
X51562000Y-103886000D03*
X51562000Y-101346000D03*
X51562000Y-98806000D03*
X51562000Y-96266000D03*
X51562000Y-93726000D03*
X51562000Y-91186000D03*
X51562000Y-88646000D03*
X51562000Y-86106000D03*
X51562000Y-83566000D03*
X51562000Y-81026000D03*
D14*
X44450000Y-46990000D03*
D15*
X44450000Y-49530000D03*
X44450000Y-52070000D03*
X44450000Y-54610000D03*
D20*
X72186800Y-65156000D03*
X72186800Y-63876000D03*
D14*
X71577200Y-43789600D03*
D15*
X71577200Y-46329600D03*
X71577200Y-48869600D03*
X71577200Y-51409600D03*
X71577200Y-53949600D03*
D12*
X43688000Y-59215000D03*
X43688000Y-56515000D03*
D21*
X47599600Y-47701200D03*
X47599600Y-50241200D03*
X47599600Y-52781200D03*
X47599600Y-55321200D03*
X47599600Y-57861200D03*
X69299600Y-47701200D03*
X69299600Y-50241200D03*
X69299600Y-52781200D03*
X69299600Y-55321200D03*
X69299600Y-57861200D03*
X69299600Y-60401200D03*
D22*
X80408760Y-116240560D03*
X77708760Y-116240560D03*
D23*
X50355500Y-130091500D03*
X50355500Y-127591500D03*
D24*
X57233500Y-74739500D03*
X59733500Y-74739500D03*
D25*
X47117000Y-72992000D03*
D26*
X48387000Y-72692000D03*
X49657000Y-72692000D03*
X50927000Y-72692000D03*
X52197000Y-72692000D03*
X53467000Y-72692000D03*
X54737000Y-72692000D03*
X56007000Y-72692000D03*
X57277000Y-72692000D03*
X58547000Y-72692000D03*
X59817000Y-72692000D03*
X61087000Y-72692000D03*
X62357000Y-72692000D03*
X63627000Y-72692000D03*
X63627000Y-63292000D03*
X62357000Y-63292000D03*
X61087000Y-63292000D03*
X59817000Y-63292000D03*
X58547000Y-63292000D03*
X57277000Y-63292000D03*
X56007000Y-63292000D03*
X54737000Y-63292000D03*
X53467000Y-63292000D03*
X52197000Y-63292000D03*
X50927000Y-63292000D03*
X49657000Y-63292000D03*
X48387000Y-63292000D03*
D27*
X47117000Y-63092000D03*
D28*
X78323440Y-97271840D03*
X79023440Y-97271840D03*
X78354960Y-95554800D03*
X79054960Y-95554800D03*
D29*
X65847500Y-126050500D03*
X63307500Y-126050500D03*
X61277500Y-126050500D03*
X58737500Y-126050500D03*
D30*
X68897500Y-123380500D03*
X55737500Y-123380500D03*
D14*
X48323500Y-130048000D03*
D15*
X45783500Y-130048000D03*
X43243500Y-130048000D03*
D29*
X58777600Y-123393200D03*
X61317600Y-123393200D03*
X63347600Y-123393200D03*
X65887600Y-123393200D03*
D30*
X55727600Y-126063200D03*
X68887600Y-126063200D03*
D21*
X66103500Y-130048000D03*
D15*
X63563500Y-130048000D03*
X61023500Y-130048000D03*
X58483500Y-130048000D03*
X55943500Y-130048000D03*
D18*
X72644000Y-83312000D03*
X75184000Y-83312000D03*
X72644000Y-85852000D03*
X75184000Y-85852000D03*
X72644000Y-88392000D03*
X75184000Y-88392000D03*
X72644000Y-90932000D03*
X75184000Y-90932000D03*
X72644000Y-93472000D03*
X75184000Y-93472000D03*
X72644000Y-96012000D03*
X75184000Y-96012000D03*
X72644000Y-98552000D03*
X75184000Y-98552000D03*
X72644000Y-101092000D03*
X75184000Y-101092000D03*
X72644000Y-103632000D03*
X75184000Y-103632000D03*
X72644000Y-106172000D03*
X75184000Y-106172000D03*
X72644000Y-108712000D03*
X75184000Y-108712000D03*
X72644000Y-111252000D03*
X75184000Y-111252000D03*
X72644000Y-113792000D03*
X75184000Y-113792000D03*
X72644000Y-116332000D03*
X75184000Y-116332000D03*
X72644000Y-118872000D03*
X75184000Y-118872000D03*
X72644000Y-121412000D03*
X75184000Y-121412000D03*
X72644000Y-123952000D03*
X75184000Y-123952000D03*
X72644000Y-126492000D03*
X75184000Y-126492000D03*
X72644000Y-129032000D03*
X75184000Y-129032000D03*
X72644000Y-131572000D03*
X75184000Y-131572000D03*
X70104000Y-129032000D03*
X70104000Y-131572000D03*
X67564000Y-129032000D03*
X67564000Y-131572000D03*
D31*
X58890800Y-86969600D03*
X56390800Y-86969600D03*
X68590800Y-86969600D03*
X66090800Y-86969600D03*
D28*
X80461080Y-62372240D03*
X79761080Y-62372240D03*
X79061080Y-62372240D03*
D11*
X44800000Y-43900000D03*
X51600000Y-133250000D03*
X78850000Y-134400000D03*
D32*
G36*
X45773000Y-63973000D02*
X41627000Y-63973000D01*
X41627000Y-62827000D01*
X45773000Y-62827000D01*
X45773000Y-63973000D01*
X45773000Y-63973000D01*
G37*
X45773000Y-63973000D02*
X41627000Y-63973000D01*
X41627000Y-62827000D01*
X45773000Y-62827000D01*
X45773000Y-63973000D01*
G36*
X45773000Y-73773000D02*
X41627000Y-73773000D01*
X41627000Y-72227000D01*
X45773000Y-72227000D01*
X45773000Y-73773000D01*
X45773000Y-73773000D01*
G37*
X45773000Y-73773000D02*
X41627000Y-73773000D01*
X41627000Y-72227000D01*
X45773000Y-72227000D01*
X45773000Y-73773000D01*
M02*
