M48
;DRILL file {KiCad 4.0.4-stable} date 12/12/16 23:19:36
;FORMAT={-:-/ absolute / metric / decimal}
FMAT,2
METRIC,TZ
T1C0.762
T2C1.016
%
G90
G05
M71
T1
X67.564Y-129.032
X67.564Y-131.572
X70.104Y-129.032
X70.104Y-131.572
X72.644Y-83.312
X72.644Y-85.852
X72.644Y-88.392
X72.644Y-90.932
X72.644Y-93.472
X72.644Y-96.012
X72.644Y-98.552
X72.644Y-101.092
X72.644Y-103.632
X72.644Y-106.172
X72.644Y-108.712
X72.644Y-111.252
X72.644Y-113.792
X72.644Y-116.332
X72.644Y-118.872
X72.644Y-121.412
X72.644Y-123.952
X72.644Y-126.492
X72.644Y-129.032
X72.644Y-131.572
X75.184Y-83.312
X75.184Y-85.852
X75.184Y-88.392
X75.184Y-90.932
X75.184Y-93.472
X75.184Y-96.012
X75.184Y-98.552
X75.184Y-101.092
X75.184Y-103.632
X75.184Y-106.172
X75.184Y-108.712
X75.184Y-111.252
X75.184Y-113.792
X75.184Y-116.332
X75.184Y-118.872
X75.184Y-121.412
X75.184Y-123.952
X75.184Y-126.492
X75.184Y-129.032
X75.184Y-131.572
T2
X44.704Y-68.072
X44.704Y-70.612
X44.704Y-73.152
X44.704Y-75.692
X44.704Y-78.232
X44.704Y-80.772
X44.704Y-83.312
X44.704Y-85.852
X44.704Y-88.392
X44.704Y-90.932
X44.704Y-93.472
X44.704Y-96.012
X44.704Y-98.552
X44.704Y-101.092
X44.704Y-103.632
X44.704Y-106.172
X44.704Y-108.712
X44.704Y-111.252
X44.704Y-113.792
X44.704Y-116.332
X44.704Y-118.872
X44.704Y-121.412
X44.704Y-123.952
X44.704Y-126.492
X44.704Y-129.032
X44.704Y-131.572
X44.704Y-134.112
X44.704Y-136.652
X44.729Y-42.647
X44.729Y-45.187
X44.729Y-47.727
X44.729Y-50.267
X44.729Y-52.807
X44.729Y-55.347
X44.729Y-57.887
X44.729Y-60.427
X44.729Y-62.967
X44.729Y-65.507
X47.244Y-65.532
X47.244Y-68.072
X47.244Y-70.612
X47.244Y-73.152
X47.244Y-73.152
X47.244Y-75.692
X47.244Y-78.232
X47.244Y-80.772
X47.244Y-83.312
X47.244Y-85.852
X47.244Y-88.392
X47.244Y-90.932
X47.244Y-93.472
X47.244Y-96.012
X47.244Y-98.552
X47.244Y-101.092
X47.244Y-103.632
X47.244Y-106.172
X47.244Y-108.712
X47.244Y-111.252
X47.244Y-113.792
X47.244Y-116.332
X47.244Y-118.872
X47.244Y-121.412
X47.244Y-123.952
X47.244Y-126.492
X47.244Y-129.032
X47.244Y-131.572
X47.244Y-134.112
X47.244Y-136.652
X47.269Y-42.647
X47.269Y-45.187
X47.269Y-47.727
X47.269Y-50.267
X47.269Y-52.807
X47.269Y-55.347
X47.269Y-57.887
X47.269Y-60.427
X47.269Y-62.967
X47.269Y-65.507
X49.784Y-65.532
X49.784Y-68.072
X49.784Y-70.612
X49.784Y-73.152
X49.784Y-73.152
X49.784Y-75.692
X49.784Y-83.312
X49.784Y-85.852
X49.784Y-88.392
X49.784Y-90.932
X49.784Y-93.472
X49.784Y-96.012
X49.784Y-98.552
X49.784Y-101.092
X49.784Y-103.632
X49.784Y-106.172
X49.784Y-108.712
X49.784Y-111.252
X49.784Y-113.792
X49.784Y-116.332
X49.784Y-118.872
X49.784Y-121.412
X49.784Y-123.952
X49.784Y-126.492
X49.784Y-129.032
X49.784Y-131.572
X49.809Y-42.647
X49.809Y-45.187
X49.809Y-47.727
X49.809Y-50.267
X49.809Y-52.807
X49.809Y-55.347
X49.809Y-57.887
X49.809Y-60.427
X49.809Y-62.967
X49.809Y-65.507
X52.324Y-68.072
X52.324Y-70.612
X52.324Y-73.152
X52.324Y-75.692
X52.324Y-83.312
X52.324Y-85.852
X52.324Y-88.392
X52.324Y-90.932
X52.324Y-93.472
X52.324Y-96.012
X52.324Y-98.552
X52.324Y-101.092
X52.324Y-103.632
X52.324Y-106.172
X52.324Y-108.712
X52.324Y-111.252
X52.324Y-113.792
X52.324Y-116.332
X52.324Y-118.872
X52.324Y-121.412
X52.324Y-123.952
X52.324Y-126.492
X52.324Y-129.032
X52.324Y-131.572
X52.349Y-42.647
X52.349Y-45.187
X52.349Y-47.727
X52.349Y-50.267
X52.349Y-52.807
X52.349Y-55.347
X52.349Y-57.887
X52.349Y-60.427
X52.349Y-62.967
X52.349Y-65.507
X54.864Y-68.072
X54.864Y-70.612
X54.864Y-73.152
X54.864Y-75.692
X54.864Y-78.232
X54.864Y-80.772
X54.864Y-83.312
X54.864Y-85.852
X54.864Y-88.392
X54.864Y-90.932
X54.864Y-93.472
X54.864Y-96.012
X54.864Y-98.552
X54.864Y-101.092
X54.864Y-103.632
X54.864Y-106.172
X54.864Y-108.712
X54.864Y-111.252
X54.864Y-113.792
X54.864Y-116.332
X54.864Y-118.872
X54.864Y-121.412
X54.864Y-123.952
X54.864Y-126.492
X54.864Y-129.032
X54.864Y-131.572
X54.864Y-134.112
X54.864Y-136.652
X54.889Y-42.647
X54.889Y-45.187
X54.889Y-47.727
X54.889Y-50.267
X54.889Y-52.807
X54.889Y-55.347
X54.889Y-57.887
X54.889Y-60.427
X54.889Y-62.967
X54.889Y-65.507
X57.404Y-68.072
X57.404Y-70.612
X57.404Y-73.152
X57.404Y-75.692
X57.404Y-78.232
X57.404Y-80.772
X57.404Y-83.312
X57.404Y-85.852
X57.404Y-88.392
X57.404Y-90.932
X57.404Y-93.472
X57.404Y-96.012
X57.404Y-98.552
X57.404Y-101.092
X57.404Y-103.632
X57.404Y-106.172
X57.404Y-108.712
X57.404Y-111.252
X57.404Y-113.792
X57.404Y-116.332
X57.404Y-118.872
X57.404Y-121.412
X57.404Y-123.952
X57.404Y-126.492
X57.404Y-129.032
X57.404Y-131.572
X57.404Y-134.112
X57.404Y-136.652
X57.429Y-42.647
X57.429Y-45.187
X57.429Y-47.727
X57.429Y-50.267
X57.429Y-52.807
X57.429Y-55.347
X57.429Y-57.887
X57.429Y-60.427
X57.429Y-62.967
X57.429Y-65.507
X59.944Y-68.072
X59.944Y-70.612
X59.944Y-73.152
X59.944Y-75.692
X59.944Y-78.232
X59.944Y-80.772
X59.944Y-83.312
X59.944Y-85.852
X59.944Y-88.392
X59.944Y-90.932
X59.944Y-93.472
X59.944Y-96.012
X59.944Y-98.552
X59.944Y-101.092
X59.944Y-103.632
X59.944Y-106.172
X59.944Y-108.712
X59.944Y-111.252
X59.944Y-113.792
X59.944Y-116.332
X59.944Y-118.872
X59.944Y-121.412
X59.944Y-123.952
X59.944Y-126.492
X59.944Y-129.032
X59.944Y-131.572
X59.944Y-134.112
X59.944Y-136.652
X59.969Y-42.647
X59.969Y-45.187
X59.969Y-47.727
X59.969Y-50.267
X59.969Y-52.807
X59.969Y-55.347
X59.969Y-57.887
X59.969Y-60.427
X59.969Y-62.967
X59.969Y-65.507
X62.484Y-68.072
X62.484Y-70.612
X62.484Y-73.152
X62.484Y-75.692
X62.484Y-78.232
X62.484Y-80.772
X62.484Y-83.312
X62.484Y-85.852
X62.484Y-88.392
X62.484Y-90.932
X62.484Y-93.472
X62.484Y-96.012
X62.484Y-98.552
X62.484Y-101.092
X62.484Y-103.632
X62.484Y-106.172
X62.484Y-108.712
X62.484Y-111.252
X62.484Y-113.792
X62.484Y-116.332
X62.484Y-118.872
X62.484Y-121.412
X62.484Y-123.952
X62.484Y-126.492
X62.484Y-129.032
X62.484Y-131.572
X62.484Y-134.112
X62.484Y-136.652
X62.509Y-42.647
X62.509Y-45.187
X62.509Y-47.727
X62.509Y-50.267
X62.509Y-52.807
X62.509Y-55.347
X62.509Y-57.887
X62.509Y-60.427
X62.509Y-62.967
X62.509Y-65.507
X65.024Y-68.072
X65.024Y-70.612
X65.024Y-73.152
X65.024Y-75.692
X65.024Y-78.232
X65.024Y-80.772
X65.024Y-83.312
X65.024Y-85.852
X65.024Y-88.392
X65.024Y-90.932
X65.024Y-93.472
X65.024Y-96.012
X65.024Y-98.552
X65.024Y-101.092
X65.024Y-103.632
X65.024Y-106.172
X65.024Y-108.712
X65.024Y-111.252
X65.024Y-113.792
X65.024Y-116.332
X65.024Y-118.872
X65.024Y-121.412
X65.024Y-123.952
X65.024Y-126.492
X65.024Y-129.032
X65.024Y-131.572
X65.024Y-136.652
X65.049Y-42.647
X65.049Y-45.187
X65.049Y-47.727
X65.049Y-50.267
X65.049Y-52.807
X65.049Y-55.347
X65.049Y-57.887
X65.049Y-60.427
X65.049Y-62.967
X65.049Y-65.507
X67.564Y-68.072
X67.564Y-70.612
X67.564Y-73.152
X67.564Y-75.692
X67.564Y-78.232
X67.564Y-80.772
X67.564Y-83.312
X67.564Y-85.852
X67.564Y-88.392
X67.564Y-90.932
X67.564Y-93.472
X67.564Y-96.012
X67.564Y-98.552
X67.564Y-101.092
X67.564Y-103.632
X67.564Y-106.172
X67.564Y-108.712
X67.564Y-111.252
X67.564Y-111.252
X67.564Y-113.792
X67.564Y-116.332
X67.564Y-118.872
X67.564Y-121.412
X67.564Y-123.952
X67.564Y-126.492
X67.564Y-136.652
X67.589Y-42.647
X67.589Y-45.187
X67.589Y-47.727
X67.589Y-50.267
X67.589Y-52.807
X67.589Y-55.347
X67.589Y-57.887
X67.589Y-60.427
X67.589Y-62.967
X67.589Y-65.507
X70.104Y-68.072
X70.104Y-70.612
X70.104Y-73.152
X70.104Y-75.692
X70.104Y-78.232
X70.104Y-80.772
X70.104Y-136.652
X70.129Y-42.647
X70.129Y-45.187
X70.129Y-47.727
X70.129Y-50.267
X70.129Y-52.807
X70.129Y-55.347
X70.129Y-57.887
X70.129Y-60.427
X70.129Y-62.967
X70.129Y-65.507
X72.644Y-68.072
X72.644Y-70.612
X72.644Y-73.152
X72.644Y-75.692
X72.644Y-78.232
X72.644Y-80.772
X72.669Y-42.647
X72.669Y-45.187
X72.669Y-47.727
X72.669Y-50.267
X72.669Y-52.807
X72.669Y-55.347
X72.669Y-57.887
X72.669Y-60.427
X72.669Y-62.967
X72.669Y-65.507
X75.184Y-68.072
X75.184Y-70.612
X75.184Y-73.152
X75.184Y-75.692
X75.184Y-78.232
X75.184Y-80.772
X75.184Y-134.112
X75.209Y-42.647
X75.209Y-45.187
X75.209Y-47.727
X75.209Y-50.267
X75.209Y-52.807
X75.209Y-55.347
X75.209Y-57.887
X75.209Y-60.427
X75.209Y-62.967
X75.209Y-65.507
X77.724Y-68.072
X77.724Y-70.612
X77.724Y-73.152
X77.724Y-75.692
X77.724Y-78.232
X77.724Y-80.772
X77.724Y-83.312
X77.724Y-134.112
X77.724Y-136.652
X77.749Y-42.647
X77.749Y-45.187
X77.749Y-47.727
X77.749Y-50.267
X77.749Y-52.807
X77.749Y-55.347
X77.749Y-57.887
X77.749Y-60.427
X77.749Y-62.967
X77.749Y-65.507
X80.264Y-68.072
X80.264Y-70.612
X80.264Y-73.152
X80.264Y-75.692
X80.264Y-78.232
X80.264Y-80.772
X80.264Y-83.312
X80.264Y-85.852
X80.264Y-88.392
X80.264Y-90.932
X80.264Y-93.472
X80.264Y-96.012
X80.264Y-98.552
X80.264Y-101.092
X80.264Y-103.632
X80.264Y-106.172
X80.264Y-108.712
X80.264Y-111.252
X80.264Y-113.792
X80.264Y-116.332
X80.264Y-118.872
X80.264Y-121.412
X80.264Y-123.952
X80.264Y-126.492
X80.264Y-129.032
X80.264Y-131.572
X80.264Y-134.112
X80.264Y-136.652
T0
M30
