M48
;DRILL file {KiCad 4.0.4-stable} date 01/31/17 10:33:39
;FORMAT={-:-/ absolute / metric / decimal}
FMAT,2
METRIC,TZ
T1C0.400
T2C0.762
T3C1.000
T4C1.300
T5C2.300
%
G90
G05
M71
T1
X42.4Y-77.2
X42.5Y-43.5
X42.5Y-45.5
X42.5Y-47.5
X42.5Y-49.5
X42.5Y-51.5
X42.5Y-53.5
X42.5Y-55.5
X42.5Y-57.5
X42.5Y-59.5
X42.5Y-78.5
X42.5Y-80.5
X42.5Y-83.
X42.5Y-85.5
X42.5Y-88.
X42.5Y-90.5
X42.5Y-93.
X42.5Y-95.
X42.5Y-97.
X42.5Y-99.
X42.5Y-101.
X42.5Y-103.
X42.5Y-105.
X42.5Y-107.
X42.5Y-109.
X42.5Y-111.2
X43.5Y-56.5
X43.5Y-57.5
X43.5Y-59.
X43.8Y-63.4
X44.5Y-56.5
X44.5Y-57.5
X44.8Y-131.8
X44.9Y-133.3
X44.9Y-135.7
X45.Y-41.
X45.3Y-137.6
X45.5Y-56.5
X45.5Y-57.5
X45.5Y-59.
X45.8Y-132.4
X45.9Y-61.3
X46.8Y-105.8
X46.9Y-109.2
X47.Y-41.
X48.184Y-75.965
X48.247Y-74.632
X48.4Y-95.9
X48.4Y-99.4
X48.4Y-102.9
X48.5Y-84.6
X48.5Y-86.7
X48.5Y-89.5
X48.5Y-92.7
X48.6Y-136.5
X48.6Y-137.9
X48.7Y-134.7
X49.Y-41.
X49.25Y-66.
X49.25Y-67.5
X49.3Y-68.9
X49.4Y-128.
X49.5Y-53.
X49.5Y-54.5
X49.5Y-56.
X49.5Y-57.5
X49.5Y-59.
X49.5Y-125.4
X49.5Y-126.7
X49.53Y-62.941
X49.6Y-120.5
X49.6Y-122.1
X49.7Y-123.8
X49.7Y-138.8
X49.8Y-108.1
X49.886Y-60.221
X49.9Y-111.9
X50.Y-133.4
X50.279Y-74.632
X50.7Y-128.1
X51.Y-41.
X51.Y-53.
X51.Y-54.5
X51.Y-56.
X51.Y-57.5
X51.Y-59.
X51.Y-67.
X51.Y-68.
X51.2Y-63.1
X51.3Y-122.2
X51.3Y-125.4
X51.3Y-126.8
X51.4Y-123.9
X51.5Y-49.1
X51.5Y-66.
X51.5Y-120.6
X51.9Y-138.8
X52.Y-67.5
X52.Y-69.
X52.1Y-128.
X52.2Y-66.4
X52.248Y-73.425
X52.311Y-74.632
X52.4Y-63.1
X52.5Y-54.5
X52.5Y-56.
X52.5Y-57.5
X52.5Y-59.
X52.8Y-49.4
X52.8Y-120.6
X52.8Y-122.2
X52.8Y-123.8
X53.Y-41.
X53.Y-66.
X53.Y-67.5
X53.Y-69.
X53.Y-138.3
X53.1Y-125.3
X53.1Y-127.1
X53.137Y-70.612
X53.6Y-63.1
X53.7Y-90.2
X53.8Y-49.6
X54.Y-56.
X54.Y-57.5
X54.Y-59.
X54.254Y-50.902
X54.3Y-111.3
X54.356Y-127.864
X54.6Y-48.
X54.6Y-52.6
X54.6Y-70.2
X54.6Y-72.92
X54.6Y-112.6
X54.766Y-63.1
X54.8Y-49.6
X54.8Y-66.
X54.8Y-67.8
X55.Y-41.
X55.5Y-47.2
X55.5Y-57.5
X55.5Y-59.
X55.5Y-111.7
X55.6Y-113.5
X55.6Y-115.1
X55.626Y-107.95
X55.7Y-49.6
X55.7Y-52.6
X55.8Y-110.6
X56.083Y-51.816
X56.2Y-68.8
X56.2Y-70.2
X56.236Y-62.84
X56.4Y-67.2
X56.5Y-112.6
X56.6Y-105.5
X56.9Y-93.2
X56.9Y-111.3
X56.9Y-113.7
X56.9Y-115.4
X57.Y-41.
X57.Y-43.6
X57.Y-57.5
X57.Y-59.
X57.Y-66.
X57.Y-103.5
X57.048Y-63.602
X57.3Y-101.5
X57.4Y-70.2
X57.6Y-116.7
X57.7Y-61.2
X57.8Y-112.4
X58.Y-67.8
X58.Y-108.
X58.3Y-52.4
X58.3Y-115.4
X58.5Y-58.
X58.5Y-59.
X58.5Y-62.
X58.5Y-105.1
X58.6Y-49.2
X58.725Y-56.032
X58.8Y-50.3
X58.8Y-61.2
X58.8Y-70.2
X58.8Y-103.3
X59.Y-41.
X59.1Y-45.3
X59.1Y-113.7
X59.1Y-117.2
X59.3Y-62.6
X59.3Y-96.
X59.4Y-43.6
X59.4Y-54.1
X59.4Y-79.8
X59.4Y-115.
X59.5Y-58.
X59.6Y-51.
X59.6Y-61.7
X59.6Y-63.4
X59.7Y-70.1
X59.7Y-116.3
X59.9Y-66.
X59.9Y-105.8
X59.9Y-134.8
X60.1Y-49.8
X60.1Y-92.1
X60.1Y-104.8
X60.4Y-117.2
X60.5Y-41.
X60.6Y-52.2
X60.8Y-109.
X61.Y-47.
X61.Y-97.5
X61.Y-115.2
X61.Y-119.9
X61.1Y-51.
X61.1Y-116.3
X61.1Y-118.4
X61.4Y-44.6
X61.5Y-89.6
X61.5Y-121.3
X61.6Y-87.8
X61.7Y-93.9
X61.7Y-117.2
X61.8Y-92.3
X61.8Y-98.3
X61.8Y-107.1
X61.9Y-51.7
X61.9Y-105.6
X61.9Y-119.6
X62.3Y-118.5
X62.4Y-116.3
X62.4Y-120.4
X62.5Y-41.
X62.5Y-43.7
X62.586Y-66.65
X62.6Y-75.8
X62.7Y-90.9
X62.7Y-111.
X62.789Y-57.099
X62.8Y-47.9
X62.84Y-133.833
X62.9Y-45.9
X62.9Y-117.2
X63.Y-49.5
X63.297Y-56.388
X63.4Y-119.3
X63.5Y-67.564
X63.5Y-89.3
X63.5Y-92.1
X63.703Y-65.989
X63.8Y-107.6
X63.9Y-109.1
X64.Y-117.9
X64.1Y-95.4
X64.338Y-133.807
X64.4Y-45.8
X64.4Y-113.
X64.5Y-41.
X64.5Y-43.7
X64.9Y-66.3
X64.9Y-68.7
X65.1Y-67.6
X65.171Y-138.684
X65.2Y-94.2
X65.2Y-101.7
X65.3Y-47.4
X65.4Y-51.3
X65.4Y-69.5
X65.4Y-77.2
X65.691Y-119.87
X65.7Y-109.4
X65.9Y-97.1
X66.Y-52.4
X66.Y-66.
X66.1Y-67.3
X66.218Y-79.604
X66.3Y-68.4
X66.5Y-41.
X66.7Y-95.5
X66.7Y-115.3
X66.8Y-93.1
X67.2Y-66.
X67.2Y-67.3
X67.3Y-64.9
X67.4Y-63.5
X67.5Y-72.3
X67.6Y-112.5
X67.7Y-99.6
X67.9Y-71.2
X67.9Y-94.2
X67.97Y-73.711
X68.Y-104.6
X68.1Y-91.3
X68.1Y-97.5
X68.3Y-63.5
X68.4Y-64.7
X68.4Y-66.
X68.5Y-41.
X68.5Y-139.259
X68.6Y-70.2
X68.8Y-72.
X68.8Y-112.5
X68.9Y-117.3
X69.Y-114.
X69.012Y-79.324
X69.2Y-63.6
X69.2Y-64.7
X69.2Y-69.2
X69.3Y-65.9
X69.3Y-70.6
X69.3Y-71.5
X69.3Y-100.2
X69.5Y-97.4
X69.6Y-94.4
X69.6Y-106.3
X69.8Y-92.3
X69.8Y-138.1
X70.5Y-41.
X70.5Y-74.5
X71.Y-72.5
X71.251Y-136.119
X71.4Y-74.5
X72.187Y-63.876
X72.2Y-74.5
X72.5Y-41.
X73.1Y-133.6
X73.965Y-74.828
X74.2Y-61.
X74.2Y-72.7
X74.5Y-41.
X75.1Y-73.5
X75.2Y-61.2
X75.3Y-72.5
X75.997Y-89.459
X76.066Y-87.5
X76.4Y-60.8
X76.5Y-41.
X76.8Y-62.
X76.8Y-131.3
X77.Y-63.6
X77.Y-75.3
X77.5Y-61.2
X77.5Y-64.3
X77.6Y-76.2
X77.673Y-121.412
X77.9Y-74.3
X77.9Y-134.
X78.Y-63.
X78.Y-73.3
X78.1Y-77.
X78.3Y-75.5
X78.4Y-60.6
X78.4Y-62.
X78.5Y-41.
X78.8Y-74.6
X78.9Y-138.8
X79.Y-73.4
X79.Y-76.2
X79.1Y-61.1
X79.1Y-62.3
X79.1Y-63.4
X79.172Y-137.211
X79.6Y-75.1
X80.Y-73.6
X80.Y-119.8
X80.264Y-56.
X80.5Y-128.
X80.75Y-68.75
X80.75Y-70.
X80.75Y-73.25
X80.75Y-75.
X80.75Y-77.25
X80.75Y-79.
X80.75Y-81.25
X80.75Y-83.75
X80.75Y-86.
X80.75Y-88.25
X80.75Y-90.5
X80.75Y-93.
X80.75Y-95.25
X80.75Y-97.5
X80.75Y-100.
X80.75Y-102.5
X80.75Y-105.
X80.75Y-107.75
X80.75Y-110.25
X80.75Y-112.5
X80.75Y-114.75
X80.75Y-117.
X80.75Y-119.
X80.75Y-121.
X80.75Y-123.
X80.75Y-125.
X80.75Y-127.
T2
X47.6Y-47.701
X47.6Y-50.241
X47.6Y-52.781
X47.6Y-55.321
X47.6Y-57.861
X56.391Y-86.97
X58.891Y-86.97
X66.091Y-86.97
X67.564Y-129.032
X67.564Y-131.572
X68.591Y-86.97
X69.3Y-47.701
X69.3Y-50.241
X69.3Y-52.781
X69.3Y-55.321
X69.3Y-57.861
X69.3Y-60.401
X70.104Y-129.032
X70.104Y-131.572
X71.984Y-67.31
X71.984Y-69.342
X72.644Y-83.312
X72.644Y-85.852
X72.644Y-88.392
X72.644Y-90.932
X72.644Y-93.472
X72.644Y-96.012
X72.644Y-98.552
X72.644Y-101.092
X72.644Y-103.632
X72.644Y-106.172
X72.644Y-108.712
X72.644Y-111.252
X72.644Y-113.792
X72.644Y-116.332
X72.644Y-118.872
X72.644Y-121.412
X72.644Y-123.952
X72.644Y-126.492
X72.644Y-129.032
X72.644Y-131.572
X75.184Y-83.312
X75.184Y-85.852
X75.184Y-88.392
X75.184Y-90.932
X75.184Y-93.472
X75.184Y-96.012
X75.184Y-98.552
X75.184Y-101.092
X75.184Y-103.632
X75.184Y-106.172
X75.184Y-108.712
X75.184Y-111.252
X75.184Y-113.792
X75.184Y-116.332
X75.184Y-118.872
X75.184Y-121.412
X75.184Y-123.952
X75.184Y-126.492
X75.184Y-129.032
X75.184Y-131.572
X76.556Y-67.31
X76.556Y-69.342
T3
X44.069Y-113.03
X44.069Y-115.57
X44.069Y-118.11
X44.069Y-120.65
X44.069Y-123.19
X44.069Y-125.73
X44.069Y-128.27
X44.45Y-46.99
X44.45Y-49.53
X44.45Y-52.07
X44.45Y-54.61
X45.84Y-130.
X48.38Y-130.
X52.07Y-80.823
X52.07Y-83.363
X52.07Y-85.903
X52.07Y-88.443
X52.07Y-90.983
X52.07Y-93.523
X52.07Y-96.063
X52.07Y-98.603
X52.07Y-101.143
X52.07Y-103.683
X52.07Y-106.223
X52.07Y-108.763
X52.07Y-111.303
X56.Y-130.
X58.54Y-130.
X58.625Y-126.035
X61.08Y-130.
X61.165Y-126.035
X63.195Y-126.035
X63.62Y-130.
X65.735Y-126.035
X71.577Y-43.67
X71.577Y-46.21
X71.577Y-48.75
X71.577Y-51.29
X71.577Y-53.83
T4
X42.824Y-61.181
X42.824Y-74.981
X65.684Y-61.181
X65.684Y-64.181
X65.684Y-71.981
X65.684Y-74.981
T5
X55.065Y-123.365
X68.785Y-123.365
T0
M30
