M48
;DRILL file {KiCad 4.0.4-stable} date 05/07/17 04:07:09
;FORMAT={-:-/ absolute / metric / decimal}
FMAT,2
METRIC,TZ
T1C0.400
T2C0.762
T3C0.800
T4C1.000
T5C1.300
T6C2.300
%
G90
G05
M71
T1
X42.5Y-43.5
X42.5Y-45.5
X42.5Y-47.5
X42.5Y-49.5
X42.5Y-51.5
X42.5Y-53.5
X42.5Y-55.5
X42.5Y-57.5
X42.5Y-59.5
X43.434Y-112.84
X43.815Y-80.645
X43.815Y-83.185
X43.815Y-85.725
X43.815Y-88.265
X43.815Y-90.805
X43.815Y-93.345
X43.815Y-95.885
X43.815Y-98.425
X43.815Y-100.965
X43.815Y-103.505
X43.815Y-106.045
X43.815Y-108.585
X43.815Y-111.125
X44.806Y-77.978
X45.Y-41.
X45.212Y-75.501
X45.783Y-74.93
X45.923Y-76.81
X46.418Y-74.295
X47.Y-41.
X47.041Y-75.692
X47.447Y-45.923
X47.769Y-74.27
X48.768Y-66.548
X48.768Y-67.564
X48.768Y-68.58
X48.768Y-69.596
X48.768Y-70.612
X49.Y-41.
X49.784Y-66.548
X49.784Y-67.564
X49.784Y-68.58
X49.784Y-69.596
X49.784Y-70.612
X50.8Y-66.548
X50.8Y-67.564
X50.8Y-68.58
X50.8Y-69.596
X50.8Y-70.612
X51.Y-41.
X51.816Y-66.548
X51.816Y-67.564
X51.816Y-68.58
X51.816Y-69.596
X51.816Y-70.612
X52.07Y-48.26
X52.695Y-61.549
X52.832Y-66.548
X52.832Y-67.564
X52.832Y-68.58
X52.832Y-69.596
X52.832Y-70.612
X53.Y-41.
X53.34Y-46.99
X54.61Y-45.72
X54.61Y-48.26
X54.61Y-53.34
X54.61Y-55.626
X54.727Y-77.373
X55.Y-41.
X55.118Y-102.997
X55.357Y-64.673
X55.88Y-46.99
X55.88Y-49.53
X56.261Y-59.944
X56.637Y-64.689
X56.75Y-71.231
X57.Y-41.
X57.15Y-45.72
X57.15Y-48.26
X57.287Y-76.962
X57.506Y-60.503
X57.973Y-64.689
X58.293Y-65.468
X58.42Y-44.45
X58.42Y-46.99
X58.42Y-49.53
X59.Y-41.
X59.291Y-119.695
X59.69Y-43.18
X59.69Y-45.72
X59.69Y-48.26
X59.817Y-61.661
X60.5Y-41.
X60.808Y-59.642
X60.96Y-44.45
X60.96Y-46.99
X60.96Y-49.53
X61.112Y-70.622
X61.277Y-68.516
X62.093Y-55.871
X62.23Y-43.18
X62.23Y-45.72
X62.23Y-48.26
X62.263Y-59.614
X62.367Y-70.597
X62.5Y-41.
X63.287Y-55.89
X63.5Y-44.45
X63.5Y-46.99
X63.584Y-59.667
X64.389Y-55.871
X64.5Y-41.
X64.77Y-43.18
X64.77Y-45.72
X64.77Y-48.26
X64.77Y-137.795
X65.087Y-97.155
X65.341Y-132.715
X65.691Y-119.695
X65.691Y-121.056
X65.989Y-77.927
X66.04Y-46.99
X66.5Y-41.
X67.31Y-137.795
X68.5Y-41.
X69.85Y-78.613
X69.85Y-137.795
X70.5Y-41.
X71.12Y-56.515
X71.183Y-60.325
X71.247Y-59.182
X72.136Y-76.708
X72.136Y-79.756
X72.187Y-63.876
X72.39Y-137.795
X72.5Y-41.
X73.406Y-63.881
X74.358Y-63.881
X74.5Y-41.
X74.93Y-47.625
X74.93Y-48.895
X74.93Y-50.165
X75.248Y-63.881
X75.565Y-137.795
X75.692Y-76.708
X75.692Y-79.756
X76.2Y-47.625
X76.2Y-48.895
X76.2Y-50.165
X76.479Y-70.952
X76.5Y-41.
X76.713Y-94.295
X76.772Y-131.255
X76.911Y-85.649
X77.406Y-94.742
X77.406Y-121.415
X77.406Y-132.27
X77.47Y-47.625
X77.47Y-48.895
X77.47Y-50.165
X77.734Y-67.874
X78.024Y-88.986
X78.041Y-120.84
X78.044Y-92.197
X78.105Y-137.795
X78.359Y-94.655
X78.359Y-98.339
X78.5Y-41.
X79.141Y-63.475
X79.375Y-121.92
X79.375Y-124.46
X79.375Y-127.
X79.375Y-129.54
X79.375Y-132.08
X79.375Y-136.525
X80.264Y-85.852
X80.645Y-88.265
X80.645Y-90.805
X80.645Y-93.345
X80.645Y-95.885
X80.645Y-98.425
X80.645Y-100.965
X80.645Y-103.505
X80.752Y-63.348
T2
X71.984Y-67.31
X71.984Y-69.342
X76.556Y-67.31
X76.556Y-69.342
T3
X72.644Y-83.312
X72.644Y-131.572
X75.184Y-83.312
X75.184Y-131.572
T4
X43.243Y-130.048
X44.069Y-114.3
X44.069Y-116.84
X44.069Y-119.38
X44.069Y-121.92
X44.069Y-124.46
X44.069Y-127.
X44.45Y-46.99
X44.45Y-49.53
X44.45Y-52.07
X44.45Y-54.61
X45.783Y-130.048
X47.6Y-47.701
X47.6Y-50.241
X47.6Y-52.781
X47.6Y-55.321
X47.6Y-57.861
X48.323Y-130.048
X51.562Y-81.026
X51.562Y-83.566
X51.562Y-86.106
X51.562Y-88.646
X51.562Y-91.186
X51.562Y-93.726
X51.562Y-96.266
X51.562Y-98.806
X51.562Y-101.346
X51.562Y-103.886
X51.562Y-106.426
X51.562Y-108.966
X51.562Y-111.506
X55.944Y-130.048
X56.391Y-86.97
X58.483Y-130.048
X58.737Y-126.05
X58.778Y-123.393
X58.891Y-86.97
X61.023Y-130.048
X61.277Y-126.05
X61.318Y-123.393
X63.307Y-126.05
X63.348Y-123.393
X63.563Y-130.048
X65.847Y-126.05
X65.888Y-123.393
X66.091Y-86.97
X66.103Y-130.048
X67.564Y-129.032
X67.564Y-131.572
X68.591Y-86.97
X69.3Y-47.701
X69.3Y-50.241
X69.3Y-52.781
X69.3Y-55.321
X69.3Y-57.861
X69.3Y-60.401
X70.104Y-129.032
X70.104Y-131.572
X71.577Y-43.79
X71.577Y-46.33
X71.577Y-48.87
X71.577Y-51.41
X71.577Y-53.95
X72.644Y-85.852
X72.644Y-88.392
X72.644Y-90.932
X72.644Y-93.472
X72.644Y-96.012
X72.644Y-98.552
X72.644Y-101.092
X72.644Y-103.632
X72.644Y-106.172
X72.644Y-108.712
X72.644Y-111.252
X72.644Y-113.792
X72.644Y-116.332
X72.644Y-118.872
X72.644Y-121.412
X72.644Y-123.952
X72.644Y-126.492
X72.644Y-129.032
X75.184Y-85.852
X75.184Y-88.392
X75.184Y-90.932
X75.184Y-93.472
X75.184Y-96.012
X75.184Y-98.552
X75.184Y-101.092
X75.184Y-103.632
X75.184Y-106.172
X75.184Y-108.712
X75.184Y-111.252
X75.184Y-113.792
X75.184Y-116.332
X75.184Y-118.872
X75.184Y-121.412
X75.184Y-123.952
X75.184Y-126.492
X75.184Y-129.032
T5
X42.324Y-61.181
X42.324Y-74.981
X65.184Y-61.181
X65.184Y-64.181
X65.184Y-71.981
X65.184Y-74.981
T6
X55.728Y-126.063
X55.737Y-123.38
X68.888Y-126.063
X68.897Y-123.38
T0
M30
