%TF.GenerationSoftware,KiCad,Pcbnew,4.0.4-stable*%
%TF.CreationDate,2017-01-31T10:43:41+02:00*%
%TF.ProjectId,back_prototype,6261636B5F70726F746F747970652E6B,rev?*%
%TF.FileFunction,Soldermask,Bot*%
%FSLAX46Y46*%
G04 Gerber Fmt 4.6, Leading zero omitted, Abs format (unit mm)*
G04 Created by KiCad (PCBNEW 4.0.4-stable) date 01/31/17 10:43:41*
%MOMM*%
%LPD*%
G01*
G04 APERTURE LIST*
%ADD10C,0.100000*%
%ADD11C,1.900000*%
%ADD12C,3.400000*%
%ADD13R,2.100000X2.100000*%
%ADD14O,2.100000X2.100000*%
%ADD15R,1.400000X1.900000*%
%ADD16C,1.924000*%
%ADD17R,1.700000X1.900000*%
%ADD18R,1.150000X1.200000*%
%ADD19R,1.200000X1.150000*%
%ADD20R,1.670000X1.370000*%
%ADD21R,1.900000X1.900000*%
%ADD22R,1.400000X1.650000*%
%ADD23R,1.650000X1.400000*%
%ADD24C,2.100000*%
%ADD25R,3.700000X2.100000*%
%ADD26R,1.370000X1.670000*%
%ADD27R,2.300000X1.200000*%
%ADD28R,1.900000X1.700000*%
%ADD29O,2.400000X2.400000*%
%ADD30R,1.924000X3.400000*%
%ADD31R,1.200000X2.300000*%
%ADD32R,1.950000X1.000000*%
%ADD33R,2.200000X2.150000*%
%ADD34R,3.600000X2.900000*%
%ADD35O,1.600000X1.924000*%
%ADD36C,0.254000*%
G04 APERTURE END LIST*
D10*
D11*
X65735200Y-126034800D03*
X63195200Y-126034800D03*
X61165200Y-126034800D03*
X58625200Y-126034800D03*
D12*
X68785200Y-123364800D03*
X55065200Y-123364800D03*
D13*
X52070000Y-111302800D03*
D14*
X52070000Y-108762800D03*
X52070000Y-106222800D03*
X52070000Y-103682800D03*
X52070000Y-101142800D03*
X52070000Y-98602800D03*
X52070000Y-96062800D03*
X52070000Y-93522800D03*
X52070000Y-90982800D03*
X52070000Y-88442800D03*
X52070000Y-85902800D03*
X52070000Y-83362800D03*
X52070000Y-80822800D03*
D15*
X54800000Y-77800000D03*
D16*
X71983600Y-69342000D03*
X71983600Y-67310000D03*
X76555600Y-67310000D03*
X76555600Y-69342000D03*
D17*
X78638400Y-56460400D03*
X78638400Y-59160400D03*
D18*
X55168800Y-53656800D03*
X55168800Y-55156800D03*
D19*
X56400000Y-55168800D03*
X57900000Y-55168800D03*
D10*
G36*
X58000000Y-78750000D02*
X58000000Y-76850000D01*
X59400000Y-76850000D01*
X59400000Y-78750000D01*
X58000000Y-78750000D01*
X58000000Y-78750000D01*
G37*
D15*
X56100000Y-77800000D03*
X57400000Y-77800000D03*
X60000000Y-77800000D03*
D20*
X48183800Y-75965246D03*
X48183800Y-74695246D03*
X48183800Y-73425246D03*
X50215800Y-75965246D03*
X50215800Y-74695246D03*
X50215800Y-73425246D03*
X52247800Y-73425246D03*
X52247800Y-74695246D03*
X52247800Y-75965246D03*
D21*
X67900000Y-75100000D03*
D22*
X50100000Y-45900000D03*
X48100000Y-45900000D03*
D23*
X67300000Y-51300000D03*
X67300000Y-49300000D03*
D22*
X72100000Y-133600000D03*
X74100000Y-133600000D03*
D23*
X48700000Y-81200000D03*
X48700000Y-83200000D03*
X69000000Y-45800000D03*
X69000000Y-43800000D03*
X46400000Y-74000000D03*
X46400000Y-76000000D03*
D24*
X44069000Y-128270000D03*
D14*
X44069000Y-125730000D03*
X44069000Y-123190000D03*
X44069000Y-120650000D03*
X44069000Y-118110000D03*
X44069000Y-115570000D03*
X44069000Y-113030000D03*
D21*
X79248000Y-90932000D03*
X79248000Y-93472000D03*
D13*
X44450000Y-54610000D03*
D14*
X44450000Y-52070000D03*
X44450000Y-49530000D03*
X44450000Y-46990000D03*
D19*
X63969200Y-53949600D03*
X65469200Y-53949600D03*
D18*
X67005200Y-53860000D03*
X67005200Y-55360000D03*
D19*
X65469200Y-55219600D03*
X63969200Y-55219600D03*
X57900000Y-53644800D03*
X56400000Y-53644800D03*
D18*
X57150000Y-52312000D03*
X57150000Y-50812000D03*
X57150000Y-49772000D03*
X57150000Y-48272000D03*
X57150000Y-47282800D03*
X57150000Y-45782800D03*
D22*
X56251600Y-132384800D03*
X58251600Y-132384800D03*
D23*
X79248000Y-84344000D03*
X79248000Y-86344000D03*
D25*
X69856800Y-81381600D03*
X64356800Y-81381600D03*
D26*
X53136800Y-47802800D03*
X51856800Y-47802800D03*
D20*
X67056000Y-46024800D03*
X67056000Y-44754800D03*
X67056000Y-43484800D03*
D13*
X71577200Y-53830000D03*
D14*
X71577200Y-51290000D03*
X71577200Y-48750000D03*
X71577200Y-46210000D03*
X71577200Y-43670000D03*
D27*
X70537200Y-77688400D03*
X70537200Y-79588400D03*
X67537200Y-78638400D03*
D28*
X64080400Y-77317600D03*
X66780400Y-77317600D03*
D17*
X76200000Y-56460400D03*
X76200000Y-59160400D03*
X73761600Y-56511200D03*
X73761600Y-59211200D03*
D21*
X70129400Y-133502400D03*
X66903600Y-133451600D03*
X79248000Y-88392000D03*
X78900000Y-121400000D03*
X46609000Y-115570000D03*
X46609000Y-120650000D03*
X46609000Y-123190000D03*
X46609000Y-125730000D03*
X47000000Y-138100000D03*
X53848000Y-114808000D03*
X53848000Y-117856000D03*
X46634400Y-113030000D03*
D13*
X56000000Y-130000000D03*
D14*
X58540000Y-130000000D03*
X61080000Y-130000000D03*
X63620000Y-130000000D03*
D24*
X45840000Y-130000000D03*
D14*
X48380000Y-130000000D03*
D21*
X46634400Y-118160800D03*
D16*
X72644000Y-83312000D03*
X75184000Y-83312000D03*
X72644000Y-85852000D03*
X75184000Y-85852000D03*
X72644000Y-88392000D03*
X75184000Y-88392000D03*
X72644000Y-90932000D03*
X75184000Y-90932000D03*
X72644000Y-93472000D03*
X75184000Y-93472000D03*
X72644000Y-96012000D03*
X75184000Y-96012000D03*
X72644000Y-98552000D03*
X75184000Y-98552000D03*
X72644000Y-101092000D03*
X75184000Y-101092000D03*
X72644000Y-103632000D03*
X75184000Y-103632000D03*
X72644000Y-106172000D03*
X75184000Y-106172000D03*
X72644000Y-108712000D03*
X75184000Y-108712000D03*
X72644000Y-111252000D03*
X75184000Y-111252000D03*
X72644000Y-113792000D03*
X75184000Y-113792000D03*
X72644000Y-116332000D03*
X75184000Y-116332000D03*
X72644000Y-118872000D03*
X75184000Y-118872000D03*
X72644000Y-121412000D03*
X75184000Y-121412000D03*
X72644000Y-123952000D03*
X75184000Y-123952000D03*
X72644000Y-126492000D03*
X75184000Y-126492000D03*
X72644000Y-129032000D03*
X75184000Y-129032000D03*
X72644000Y-131572000D03*
X75184000Y-131572000D03*
X70104000Y-129032000D03*
X70104000Y-131572000D03*
X67564000Y-129032000D03*
X67564000Y-131572000D03*
X47599600Y-47701200D03*
X47599600Y-50241200D03*
X47599600Y-52781200D03*
X47599600Y-55321200D03*
X47599600Y-57861200D03*
X69299600Y-47701200D03*
X69299600Y-50241200D03*
X69299600Y-52781200D03*
X69299600Y-55321200D03*
X69299600Y-57861200D03*
X69299600Y-60401200D03*
D29*
X42824400Y-61180800D03*
X42824400Y-74980800D03*
X65684400Y-61180800D03*
X65684400Y-64180800D03*
X65684400Y-71980800D03*
X65684400Y-74980800D03*
D27*
X56361200Y-82026800D03*
X56361200Y-80126800D03*
X59361200Y-81076800D03*
D28*
X56562000Y-84023200D03*
X59262000Y-84023200D03*
D16*
X58890800Y-86969600D03*
X56390800Y-86969600D03*
X68590800Y-86969600D03*
X66090800Y-86969600D03*
D30*
X59290800Y-119869600D03*
X65690800Y-119869600D03*
D20*
X42900000Y-134640000D03*
X42900000Y-133360000D03*
X52000000Y-129630000D03*
X52000000Y-130900000D03*
X52000000Y-132170000D03*
D26*
X66426000Y-136118600D03*
X65146000Y-136118600D03*
X66451400Y-138684000D03*
X65171400Y-138684000D03*
D31*
X78221800Y-129919600D03*
X80121800Y-129919600D03*
X79171800Y-132919600D03*
X76977200Y-135456800D03*
X78877200Y-135456800D03*
X77927200Y-138456800D03*
D28*
X71250800Y-136118600D03*
X68550800Y-136118600D03*
X68500000Y-138582400D03*
X71200000Y-138582400D03*
D32*
X57592000Y-138633200D03*
X57592000Y-137363200D03*
X57592000Y-136093200D03*
X57592000Y-134823200D03*
X62992000Y-134823200D03*
X62992000Y-136093200D03*
X62992000Y-137363200D03*
X62992000Y-138633200D03*
D33*
X54406800Y-138378000D03*
X54406800Y-135128000D03*
D34*
X51250000Y-43700000D03*
X46950000Y-43700000D03*
D17*
X78800000Y-119050000D03*
X78800000Y-116350000D03*
D21*
X46700000Y-134800000D03*
D15*
X61300000Y-77800000D03*
D35*
X74500000Y-51500000D03*
X76000000Y-51500000D03*
X77500000Y-51500000D03*
X74500000Y-45500000D03*
X77500000Y-45500000D03*
X76000000Y-45500000D03*
D36*
G36*
X53623000Y-69373000D02*
X48127000Y-69373000D01*
X48127000Y-66052606D01*
X48585737Y-65593869D01*
X50045980Y-64377000D01*
X53623000Y-64377000D01*
X53623000Y-69373000D01*
X53623000Y-69373000D01*
G37*
X53623000Y-69373000D02*
X48127000Y-69373000D01*
X48127000Y-66052606D01*
X48585737Y-65593869D01*
X50045980Y-64377000D01*
X53623000Y-64377000D01*
X53623000Y-69373000D01*
M02*
