%TF.GenerationSoftware,KiCad,Pcbnew,4.0.4-stable*%
%TF.CreationDate,2017-03-19T03:27:40+02:00*%
%TF.ProjectId,back_prototype,6261636B5F70726F746F747970652E6B,rev?*%
%TF.FileFunction,Legend,Bot*%
%FSLAX46Y46*%
G04 Gerber Fmt 4.6, Leading zero omitted, Abs format (unit mm)*
G04 Created by KiCad (PCBNEW 4.0.4-stable) date 03/19/17 03:27:40*
%MOMM*%
%LPD*%
G01*
G04 APERTURE LIST*
%ADD10C,0.100000*%
%ADD11C,0.300000*%
%ADD12C,0.150000*%
%ADD13C,0.120000*%
%ADD14C,0.010000*%
G04 APERTURE END LIST*
D10*
D11*
X79977371Y-99605771D02*
X78477371Y-99605771D01*
X78477371Y-99962914D01*
X78548800Y-100177199D01*
X78691657Y-100320057D01*
X78834514Y-100391485D01*
X79120229Y-100462914D01*
X79334514Y-100462914D01*
X79620229Y-100391485D01*
X79763086Y-100320057D01*
X79905943Y-100177199D01*
X79977371Y-99962914D01*
X79977371Y-99605771D01*
X79905943Y-101677199D02*
X79977371Y-101534342D01*
X79977371Y-101248628D01*
X79905943Y-101105771D01*
X79763086Y-101034342D01*
X79191657Y-101034342D01*
X79048800Y-101105771D01*
X78977371Y-101248628D01*
X78977371Y-101534342D01*
X79048800Y-101677199D01*
X79191657Y-101748628D01*
X79334514Y-101748628D01*
X79477371Y-101034342D01*
X79905943Y-102320056D02*
X79977371Y-102462913D01*
X79977371Y-102748628D01*
X79905943Y-102891485D01*
X79763086Y-102962913D01*
X79691657Y-102962913D01*
X79548800Y-102891485D01*
X79477371Y-102748628D01*
X79477371Y-102534342D01*
X79405943Y-102391485D01*
X79263086Y-102320056D01*
X79191657Y-102320056D01*
X79048800Y-102391485D01*
X78977371Y-102534342D01*
X78977371Y-102748628D01*
X79048800Y-102891485D01*
X79977371Y-103605771D02*
X78977371Y-103605771D01*
X78477371Y-103605771D02*
X78548800Y-103534342D01*
X78620229Y-103605771D01*
X78548800Y-103677199D01*
X78477371Y-103605771D01*
X78620229Y-103605771D01*
X78977371Y-104962914D02*
X80191657Y-104962914D01*
X80334514Y-104891485D01*
X80405943Y-104820057D01*
X80477371Y-104677200D01*
X80477371Y-104462914D01*
X80405943Y-104320057D01*
X79905943Y-104962914D02*
X79977371Y-104820057D01*
X79977371Y-104534343D01*
X79905943Y-104391485D01*
X79834514Y-104320057D01*
X79691657Y-104248628D01*
X79263086Y-104248628D01*
X79120229Y-104320057D01*
X79048800Y-104391485D01*
X78977371Y-104534343D01*
X78977371Y-104820057D01*
X79048800Y-104962914D01*
X78977371Y-105677200D02*
X79977371Y-105677200D01*
X79120229Y-105677200D02*
X79048800Y-105748628D01*
X78977371Y-105891486D01*
X78977371Y-106105771D01*
X79048800Y-106248628D01*
X79191657Y-106320057D01*
X79977371Y-106320057D01*
X79905943Y-107605771D02*
X79977371Y-107462914D01*
X79977371Y-107177200D01*
X79905943Y-107034343D01*
X79763086Y-106962914D01*
X79191657Y-106962914D01*
X79048800Y-107034343D01*
X78977371Y-107177200D01*
X78977371Y-107462914D01*
X79048800Y-107605771D01*
X79191657Y-107677200D01*
X79334514Y-107677200D01*
X79477371Y-106962914D01*
X79977371Y-108962914D02*
X78477371Y-108962914D01*
X79905943Y-108962914D02*
X79977371Y-108820057D01*
X79977371Y-108534343D01*
X79905943Y-108391485D01*
X79834514Y-108320057D01*
X79691657Y-108248628D01*
X79263086Y-108248628D01*
X79120229Y-108320057D01*
X79048800Y-108391485D01*
X78977371Y-108534343D01*
X78977371Y-108820057D01*
X79048800Y-108962914D01*
X79977371Y-110820057D02*
X78977371Y-110820057D01*
X78477371Y-110820057D02*
X78548800Y-110748628D01*
X78620229Y-110820057D01*
X78548800Y-110891485D01*
X78477371Y-110820057D01*
X78620229Y-110820057D01*
X78977371Y-111534343D02*
X79977371Y-111534343D01*
X79120229Y-111534343D02*
X79048800Y-111605771D01*
X78977371Y-111748629D01*
X78977371Y-111962914D01*
X79048800Y-112105771D01*
X79191657Y-112177200D01*
X79977371Y-112177200D01*
X79977371Y-114034343D02*
X78477371Y-114034343D01*
X79977371Y-114891486D02*
X79120229Y-114248629D01*
X78477371Y-114891486D02*
X79334514Y-114034343D01*
X79977371Y-115534343D02*
X78977371Y-115534343D01*
X78477371Y-115534343D02*
X78548800Y-115462914D01*
X78620229Y-115534343D01*
X78548800Y-115605771D01*
X78477371Y-115534343D01*
X78620229Y-115534343D01*
X79834514Y-117105772D02*
X79905943Y-117034343D01*
X79977371Y-116820057D01*
X79977371Y-116677200D01*
X79905943Y-116462915D01*
X79763086Y-116320057D01*
X79620229Y-116248629D01*
X79334514Y-116177200D01*
X79120229Y-116177200D01*
X78834514Y-116248629D01*
X78691657Y-116320057D01*
X78548800Y-116462915D01*
X78477371Y-116677200D01*
X78477371Y-116820057D01*
X78548800Y-117034343D01*
X78620229Y-117105772D01*
X79977371Y-118391486D02*
X79191657Y-118391486D01*
X79048800Y-118320057D01*
X78977371Y-118177200D01*
X78977371Y-117891486D01*
X79048800Y-117748629D01*
X79905943Y-118391486D02*
X79977371Y-118248629D01*
X79977371Y-117891486D01*
X79905943Y-117748629D01*
X79763086Y-117677200D01*
X79620229Y-117677200D01*
X79477371Y-117748629D01*
X79405943Y-117891486D01*
X79405943Y-118248629D01*
X79334514Y-118391486D01*
X79977371Y-119748629D02*
X78477371Y-119748629D01*
X79905943Y-119748629D02*
X79977371Y-119605772D01*
X79977371Y-119320058D01*
X79905943Y-119177200D01*
X79834514Y-119105772D01*
X79691657Y-119034343D01*
X79263086Y-119034343D01*
X79120229Y-119105772D01*
X79048800Y-119177200D01*
X78977371Y-119320058D01*
X78977371Y-119605772D01*
X79048800Y-119748629D01*
X76178856Y-40529771D02*
X75178856Y-40529771D01*
X76178856Y-42029771D01*
X75178856Y-42029771D01*
X74036000Y-41958343D02*
X74178857Y-42029771D01*
X74464571Y-42029771D01*
X74607428Y-41958343D01*
X74678857Y-41815486D01*
X74678857Y-41244057D01*
X74607428Y-41101200D01*
X74464571Y-41029771D01*
X74178857Y-41029771D01*
X74036000Y-41101200D01*
X73964571Y-41244057D01*
X73964571Y-41386914D01*
X74678857Y-41529771D01*
X73321714Y-42029771D02*
X73321714Y-41029771D01*
X73321714Y-41315486D02*
X73250286Y-41172629D01*
X73178857Y-41101200D01*
X73036000Y-41029771D01*
X72893143Y-41029771D01*
X72178857Y-42029771D02*
X72321715Y-41958343D01*
X72393143Y-41886914D01*
X72464572Y-41744057D01*
X72464572Y-41315486D01*
X72393143Y-41172629D01*
X72321715Y-41101200D01*
X72178857Y-41029771D01*
X71964572Y-41029771D01*
X71821715Y-41101200D01*
X71750286Y-41172629D01*
X71678857Y-41315486D01*
X71678857Y-41744057D01*
X71750286Y-41886914D01*
X71821715Y-41958343D01*
X71964572Y-42029771D01*
X72178857Y-42029771D01*
X71036000Y-42029771D02*
X71036000Y-40529771D01*
X70464572Y-40529771D01*
X70321714Y-40601200D01*
X70250286Y-40672629D01*
X70178857Y-40815486D01*
X70178857Y-41029771D01*
X70250286Y-41172629D01*
X70321714Y-41244057D01*
X70464572Y-41315486D01*
X71036000Y-41315486D01*
X69536000Y-42029771D02*
X69536000Y-40529771D01*
X68893143Y-42029771D02*
X68893143Y-41244057D01*
X68964572Y-41101200D01*
X69107429Y-41029771D01*
X69321714Y-41029771D01*
X69464572Y-41101200D01*
X69536000Y-41172629D01*
X67964571Y-42029771D02*
X68107429Y-41958343D01*
X68178857Y-41886914D01*
X68250286Y-41744057D01*
X68250286Y-41315486D01*
X68178857Y-41172629D01*
X68107429Y-41101200D01*
X67964571Y-41029771D01*
X67750286Y-41029771D01*
X67607429Y-41101200D01*
X67536000Y-41172629D01*
X67464571Y-41315486D01*
X67464571Y-41744057D01*
X67536000Y-41886914D01*
X67607429Y-41958343D01*
X67750286Y-42029771D01*
X67964571Y-42029771D01*
X66821714Y-41029771D02*
X66821714Y-42029771D01*
X66821714Y-41172629D02*
X66750286Y-41101200D01*
X66607428Y-41029771D01*
X66393143Y-41029771D01*
X66250286Y-41101200D01*
X66178857Y-41244057D01*
X66178857Y-42029771D01*
X64893143Y-41958343D02*
X65036000Y-42029771D01*
X65321714Y-42029771D01*
X65464571Y-41958343D01*
X65536000Y-41815486D01*
X65536000Y-41244057D01*
X65464571Y-41101200D01*
X65321714Y-41029771D01*
X65036000Y-41029771D01*
X64893143Y-41101200D01*
X64821714Y-41244057D01*
X64821714Y-41386914D01*
X65536000Y-41529771D01*
X62250286Y-40601200D02*
X62393143Y-40529771D01*
X62607429Y-40529771D01*
X62821714Y-40601200D01*
X62964572Y-40744057D01*
X63036000Y-40886914D01*
X63107429Y-41172629D01*
X63107429Y-41386914D01*
X63036000Y-41672629D01*
X62964572Y-41815486D01*
X62821714Y-41958343D01*
X62607429Y-42029771D01*
X62464572Y-42029771D01*
X62250286Y-41958343D01*
X62178857Y-41886914D01*
X62178857Y-41386914D01*
X62464572Y-41386914D01*
X60893143Y-42029771D02*
X60893143Y-41244057D01*
X60964572Y-41101200D01*
X61107429Y-41029771D01*
X61393143Y-41029771D01*
X61536000Y-41101200D01*
X60893143Y-41958343D02*
X61036000Y-42029771D01*
X61393143Y-42029771D01*
X61536000Y-41958343D01*
X61607429Y-41815486D01*
X61607429Y-41672629D01*
X61536000Y-41529771D01*
X61393143Y-41458343D01*
X61036000Y-41458343D01*
X60893143Y-41386914D01*
X60178857Y-42029771D02*
X60178857Y-41029771D01*
X60178857Y-41172629D02*
X60107429Y-41101200D01*
X59964571Y-41029771D01*
X59750286Y-41029771D01*
X59607429Y-41101200D01*
X59536000Y-41244057D01*
X59536000Y-42029771D01*
X59536000Y-41244057D02*
X59464571Y-41101200D01*
X59321714Y-41029771D01*
X59107429Y-41029771D01*
X58964571Y-41101200D01*
X58893143Y-41244057D01*
X58893143Y-42029771D01*
X58178857Y-42029771D02*
X58178857Y-41029771D01*
X58178857Y-41172629D02*
X58107429Y-41101200D01*
X57964571Y-41029771D01*
X57750286Y-41029771D01*
X57607429Y-41101200D01*
X57536000Y-41244057D01*
X57536000Y-42029771D01*
X57536000Y-41244057D02*
X57464571Y-41101200D01*
X57321714Y-41029771D01*
X57107429Y-41029771D01*
X56964571Y-41101200D01*
X56893143Y-41244057D01*
X56893143Y-42029771D01*
X55536000Y-42029771D02*
X55536000Y-41244057D01*
X55607429Y-41101200D01*
X55750286Y-41029771D01*
X56036000Y-41029771D01*
X56178857Y-41101200D01*
X55536000Y-41958343D02*
X55678857Y-42029771D01*
X56036000Y-42029771D01*
X56178857Y-41958343D01*
X56250286Y-41815486D01*
X56250286Y-41672629D01*
X56178857Y-41529771D01*
X56036000Y-41458343D01*
X55678857Y-41458343D01*
X55536000Y-41386914D01*
D12*
X61784000Y-58174000D02*
X61784000Y-60574000D01*
X63184000Y-58174000D02*
X61784000Y-58174000D01*
X63184000Y-60574000D02*
X63184000Y-58174000D01*
X61784000Y-60574000D02*
X63184000Y-60574000D01*
D13*
X59180000Y-78938000D02*
X59180000Y-79868000D01*
X59180000Y-82098000D02*
X59180000Y-81168000D01*
X59180000Y-82098000D02*
X56020000Y-82098000D01*
X59180000Y-78938000D02*
X57720000Y-78938000D01*
D12*
X41508400Y-59480800D02*
X67508400Y-59480800D01*
X41508400Y-76680800D02*
X41508400Y-59480800D01*
X67508400Y-76680800D02*
X41508400Y-76680800D01*
X67508400Y-59480800D02*
X67508400Y-76680800D01*
X79513400Y-58410400D02*
X79513400Y-57210400D01*
X77763400Y-57210400D02*
X77763400Y-58410400D01*
D13*
X64356800Y-80381600D02*
X71656800Y-80381600D01*
X71656800Y-80381600D02*
X71656800Y-82381600D01*
X71656800Y-82381600D02*
X64356800Y-82381600D01*
X57607200Y-44628800D02*
X55067200Y-44628800D01*
X55067200Y-42848800D02*
X57607200Y-42848800D01*
X55067200Y-42848800D02*
X55067200Y-44628800D01*
X57607200Y-44628800D02*
X57607200Y-42848800D01*
X68277200Y-80218400D02*
X68277200Y-79288400D01*
X68277200Y-77058400D02*
X68277200Y-77988400D01*
X68277200Y-77058400D02*
X71437200Y-77058400D01*
X68277200Y-80218400D02*
X69737200Y-80218400D01*
D12*
X66030400Y-76442600D02*
X64830400Y-76442600D01*
X64830400Y-78192600D02*
X66030400Y-78192600D01*
X77075000Y-58410400D02*
X77075000Y-57210400D01*
X75325000Y-57210400D02*
X75325000Y-58410400D01*
X74636600Y-58461200D02*
X74636600Y-57261200D01*
X72886600Y-57261200D02*
X72886600Y-58461200D01*
X59147000Y-81992500D02*
X57947000Y-81992500D01*
X57947000Y-83742500D02*
X59147000Y-83742500D01*
X58217000Y-139303200D02*
X58217000Y-139253200D01*
X62367000Y-139303200D02*
X62367000Y-139158200D01*
X62367000Y-134153200D02*
X62367000Y-134298200D01*
X58217000Y-134153200D02*
X58217000Y-134298200D01*
X58217000Y-139303200D02*
X62367000Y-139303200D01*
X58217000Y-134153200D02*
X62367000Y-134153200D01*
X58217000Y-139253200D02*
X56817000Y-139253200D01*
D13*
X55306000Y-137164500D02*
X55306000Y-136064500D01*
X53406000Y-137164500D02*
X53406000Y-136064500D01*
X55256000Y-139314500D02*
X53456000Y-139314500D01*
X54748400Y-41885600D02*
X48948400Y-41885600D01*
X54748400Y-45185600D02*
X48948400Y-45185600D01*
X54748400Y-41885600D02*
X54748400Y-45185600D01*
D12*
X78500000Y-46000000D02*
X73500000Y-46000000D01*
X73500000Y-46000000D02*
X73500000Y-51000000D01*
X73500000Y-51000000D02*
X78500000Y-51000000D01*
X78500000Y-51000000D02*
X78500000Y-46000000D01*
D13*
X61857000Y-118911000D02*
X62857000Y-118911000D01*
X62857000Y-120611000D02*
X61857000Y-120611000D01*
X49913600Y-45073200D02*
X50913600Y-45073200D01*
X50913600Y-46773200D02*
X49913600Y-46773200D01*
X67191000Y-43854000D02*
X68191000Y-43854000D01*
X68191000Y-45554000D02*
X67191000Y-45554000D01*
X48299000Y-82542000D02*
X48299000Y-81542000D01*
X49999000Y-81542000D02*
X49999000Y-82542000D01*
X76319000Y-44284000D02*
X75319000Y-44284000D01*
X75319000Y-42584000D02*
X76319000Y-42584000D01*
X78398000Y-85082000D02*
X78398000Y-84082000D01*
X80098000Y-84082000D02*
X80098000Y-85082000D01*
X64801000Y-55718000D02*
X65501000Y-55718000D01*
X65501000Y-54518000D02*
X64801000Y-54518000D01*
X67960800Y-54325000D02*
X67960800Y-53625000D01*
X66760800Y-53625000D02*
X66760800Y-54325000D01*
X65501000Y-52486000D02*
X64801000Y-52486000D01*
X64801000Y-53686000D02*
X65501000Y-53686000D01*
X52674000Y-55026000D02*
X51974000Y-55026000D01*
X51974000Y-56226000D02*
X52674000Y-56226000D01*
X50765000Y-54756800D02*
X50765000Y-54056800D01*
X49565000Y-54056800D02*
X49565000Y-54756800D01*
X51974000Y-53940000D02*
X52674000Y-53940000D01*
X52674000Y-52740000D02*
X51974000Y-52740000D01*
X52740000Y-51216000D02*
X52040000Y-51216000D01*
X52040000Y-52416000D02*
X52740000Y-52416000D01*
X50892000Y-51023000D02*
X50892000Y-50323000D01*
X49692000Y-50323000D02*
X49692000Y-51023000D01*
X51974000Y-50130000D02*
X52674000Y-50130000D01*
X52674000Y-48930000D02*
X51974000Y-48930000D01*
X57650000Y-133057000D02*
X56650000Y-133057000D01*
X56650000Y-131357000D02*
X57650000Y-131357000D01*
D12*
X43118000Y-133483500D02*
X43118000Y-135183500D01*
X41718000Y-133483500D02*
X43118000Y-133483500D01*
X41718000Y-135183500D02*
X41718000Y-133483500D01*
X41718000Y-133483500D02*
X43118000Y-133483500D01*
X41718000Y-135183500D02*
X43118000Y-135183500D01*
X63181000Y-58174000D02*
X63181000Y-60574000D01*
X64581000Y-58174000D02*
X63181000Y-58174000D01*
X64581000Y-60574000D02*
X64581000Y-58174000D01*
X63181000Y-60574000D02*
X64581000Y-60574000D01*
X61787000Y-60572500D02*
X61787000Y-58172500D01*
X60387000Y-60572500D02*
X61787000Y-60572500D01*
X60387000Y-58172500D02*
X60387000Y-60572500D01*
X61787000Y-58172500D02*
X60387000Y-58172500D01*
X62993500Y-131707000D02*
X62993500Y-133407000D01*
X61593500Y-131707000D02*
X62993500Y-131707000D01*
X61593500Y-133407000D02*
X61593500Y-131707000D01*
X61593500Y-131707000D02*
X62993500Y-131707000D01*
X61593500Y-133407000D02*
X62993500Y-133407000D01*
X64327000Y-131707000D02*
X64327000Y-133407000D01*
X62927000Y-131707000D02*
X64327000Y-131707000D01*
X62927000Y-133407000D02*
X62927000Y-131707000D01*
X62927000Y-131707000D02*
X64327000Y-131707000D01*
X62927000Y-133407000D02*
X64327000Y-133407000D01*
X61533000Y-131707000D02*
X61533000Y-133407000D01*
X60133000Y-131707000D02*
X61533000Y-131707000D01*
X60133000Y-133407000D02*
X60133000Y-131707000D01*
X60133000Y-131707000D02*
X61533000Y-131707000D01*
X60133000Y-133407000D02*
X61533000Y-133407000D01*
D13*
X69787500Y-127190500D02*
X69787500Y-124860500D01*
X54797500Y-127190500D02*
X54797500Y-124860500D01*
X69787500Y-127190500D02*
X54797500Y-127190500D01*
X69787500Y-113100500D02*
X54797500Y-113100500D01*
X69787500Y-121900500D02*
X69787500Y-113100500D01*
X54797500Y-121900500D02*
X54797500Y-113100500D01*
X54837600Y-122253200D02*
X54837600Y-124583200D01*
X69827600Y-122253200D02*
X69827600Y-124583200D01*
X54837600Y-122253200D02*
X69827600Y-122253200D01*
X54837600Y-136343200D02*
X69827600Y-136343200D01*
X54837600Y-127543200D02*
X54837600Y-136343200D01*
X69827600Y-127543200D02*
X69827600Y-136343200D01*
D12*
X55190800Y-118369600D02*
X55190800Y-85369600D01*
X69790800Y-118369600D02*
X55190800Y-118369600D01*
X69790800Y-85369600D02*
X69790800Y-118369600D01*
X55190800Y-85369600D02*
X69790800Y-85369600D01*
D14*
G36*
X62603354Y-51363668D02*
X62588783Y-51364086D01*
X62558377Y-51365315D01*
X62535742Y-51367008D01*
X62518065Y-51369618D01*
X62502534Y-51373597D01*
X62486337Y-51379399D01*
X62481355Y-51381390D01*
X62427431Y-51408820D01*
X62379357Y-51444654D01*
X62337990Y-51487963D01*
X62304188Y-51537819D01*
X62278808Y-51593292D01*
X62274793Y-51605055D01*
X62260960Y-51647944D01*
X62262947Y-51848124D01*
X62263490Y-51899848D01*
X62264036Y-51942166D01*
X62264652Y-51976255D01*
X62265406Y-52003294D01*
X62266365Y-52024459D01*
X62267598Y-52040928D01*
X62269170Y-52053879D01*
X62271150Y-52064487D01*
X62273606Y-52073932D01*
X62276401Y-52082781D01*
X62297815Y-52132099D01*
X62327590Y-52178468D01*
X62364178Y-52220333D01*
X62406033Y-52256135D01*
X62451608Y-52284318D01*
X62493751Y-52301638D01*
X62549013Y-52314301D01*
X62606086Y-52318759D01*
X62661946Y-52314934D01*
X62699636Y-52307027D01*
X62711542Y-52303716D01*
X62711542Y-52419930D01*
X62711615Y-52458304D01*
X62711902Y-52487474D01*
X62712507Y-52508816D01*
X62713531Y-52523709D01*
X62715078Y-52533529D01*
X62717251Y-52539654D01*
X62720151Y-52543463D01*
X62720803Y-52544046D01*
X62730274Y-52550021D01*
X62747471Y-52558956D01*
X62770279Y-52569918D01*
X62796583Y-52581977D01*
X62824266Y-52594201D01*
X62851214Y-52605656D01*
X62875311Y-52615411D01*
X62894441Y-52622535D01*
X62906490Y-52626094D01*
X62907363Y-52626238D01*
X62923223Y-52626145D01*
X62934144Y-52619652D01*
X62935144Y-52618588D01*
X62936724Y-52616346D01*
X62938113Y-52612897D01*
X62939324Y-52607592D01*
X62940369Y-52599782D01*
X62941260Y-52588816D01*
X62942009Y-52574045D01*
X62942628Y-52554819D01*
X62943130Y-52530489D01*
X62943527Y-52500405D01*
X62943830Y-52463918D01*
X62944052Y-52420377D01*
X62944205Y-52369134D01*
X62944302Y-52309538D01*
X62944354Y-52240940D01*
X62944374Y-52162690D01*
X62944375Y-52125550D01*
X62944375Y-51839284D01*
X62706250Y-51839284D01*
X62706220Y-51888640D01*
X62706009Y-51928594D01*
X62705435Y-51960327D01*
X62704317Y-51985020D01*
X62702475Y-52003855D01*
X62699728Y-52018012D01*
X62695893Y-52028672D01*
X62690791Y-52037018D01*
X62684240Y-52044230D01*
X62676059Y-52051488D01*
X62673368Y-52053761D01*
X62645218Y-52072022D01*
X62615517Y-52081511D01*
X62586186Y-52081875D01*
X62561790Y-52074159D01*
X62545850Y-52064334D01*
X62530461Y-52052248D01*
X62529830Y-52051669D01*
X62521463Y-52043701D01*
X62514744Y-52036164D01*
X62509495Y-52027847D01*
X62505541Y-52017540D01*
X62502706Y-52004030D01*
X62500813Y-51986109D01*
X62499687Y-51962565D01*
X62499151Y-51932188D01*
X62499029Y-51893767D01*
X62499145Y-51846092D01*
X62499162Y-51840903D01*
X62499356Y-51794313D01*
X62499641Y-51757071D01*
X62500089Y-51727940D01*
X62500775Y-51705684D01*
X62501773Y-51689066D01*
X62503157Y-51676852D01*
X62505001Y-51667803D01*
X62507378Y-51660685D01*
X62510333Y-51654322D01*
X62528129Y-51630050D01*
X62552469Y-51611551D01*
X62580828Y-51599847D01*
X62610681Y-51595959D01*
X62639504Y-51600906D01*
X62641083Y-51601483D01*
X62657889Y-51611142D01*
X62676025Y-51626556D01*
X62691714Y-51644211D01*
X62698764Y-51655135D01*
X62700927Y-51661214D01*
X62702653Y-51671008D01*
X62703984Y-51685571D01*
X62704965Y-51705958D01*
X62705637Y-51733221D01*
X62706044Y-51768414D01*
X62706228Y-51812592D01*
X62706250Y-51839284D01*
X62944375Y-51839284D01*
X62944375Y-51642712D01*
X62930757Y-51602092D01*
X62915441Y-51562269D01*
X62897471Y-51528278D01*
X62874666Y-51496665D01*
X62844847Y-51463973D01*
X62841566Y-51460681D01*
X62798751Y-51423226D01*
X62754271Y-51395113D01*
X62706070Y-51375107D01*
X62691971Y-51370886D01*
X62674535Y-51366851D01*
X62655751Y-51364422D01*
X62632924Y-51363420D01*
X62603354Y-51363668D01*
X62603354Y-51363668D01*
G37*
X62603354Y-51363668D02*
X62588783Y-51364086D01*
X62558377Y-51365315D01*
X62535742Y-51367008D01*
X62518065Y-51369618D01*
X62502534Y-51373597D01*
X62486337Y-51379399D01*
X62481355Y-51381390D01*
X62427431Y-51408820D01*
X62379357Y-51444654D01*
X62337990Y-51487963D01*
X62304188Y-51537819D01*
X62278808Y-51593292D01*
X62274793Y-51605055D01*
X62260960Y-51647944D01*
X62262947Y-51848124D01*
X62263490Y-51899848D01*
X62264036Y-51942166D01*
X62264652Y-51976255D01*
X62265406Y-52003294D01*
X62266365Y-52024459D01*
X62267598Y-52040928D01*
X62269170Y-52053879D01*
X62271150Y-52064487D01*
X62273606Y-52073932D01*
X62276401Y-52082781D01*
X62297815Y-52132099D01*
X62327590Y-52178468D01*
X62364178Y-52220333D01*
X62406033Y-52256135D01*
X62451608Y-52284318D01*
X62493751Y-52301638D01*
X62549013Y-52314301D01*
X62606086Y-52318759D01*
X62661946Y-52314934D01*
X62699636Y-52307027D01*
X62711542Y-52303716D01*
X62711542Y-52419930D01*
X62711615Y-52458304D01*
X62711902Y-52487474D01*
X62712507Y-52508816D01*
X62713531Y-52523709D01*
X62715078Y-52533529D01*
X62717251Y-52539654D01*
X62720151Y-52543463D01*
X62720803Y-52544046D01*
X62730274Y-52550021D01*
X62747471Y-52558956D01*
X62770279Y-52569918D01*
X62796583Y-52581977D01*
X62824266Y-52594201D01*
X62851214Y-52605656D01*
X62875311Y-52615411D01*
X62894441Y-52622535D01*
X62906490Y-52626094D01*
X62907363Y-52626238D01*
X62923223Y-52626145D01*
X62934144Y-52619652D01*
X62935144Y-52618588D01*
X62936724Y-52616346D01*
X62938113Y-52612897D01*
X62939324Y-52607592D01*
X62940369Y-52599782D01*
X62941260Y-52588816D01*
X62942009Y-52574045D01*
X62942628Y-52554819D01*
X62943130Y-52530489D01*
X62943527Y-52500405D01*
X62943830Y-52463918D01*
X62944052Y-52420377D01*
X62944205Y-52369134D01*
X62944302Y-52309538D01*
X62944354Y-52240940D01*
X62944374Y-52162690D01*
X62944375Y-52125550D01*
X62944375Y-51839284D01*
X62706250Y-51839284D01*
X62706220Y-51888640D01*
X62706009Y-51928594D01*
X62705435Y-51960327D01*
X62704317Y-51985020D01*
X62702475Y-52003855D01*
X62699728Y-52018012D01*
X62695893Y-52028672D01*
X62690791Y-52037018D01*
X62684240Y-52044230D01*
X62676059Y-52051488D01*
X62673368Y-52053761D01*
X62645218Y-52072022D01*
X62615517Y-52081511D01*
X62586186Y-52081875D01*
X62561790Y-52074159D01*
X62545850Y-52064334D01*
X62530461Y-52052248D01*
X62529830Y-52051669D01*
X62521463Y-52043701D01*
X62514744Y-52036164D01*
X62509495Y-52027847D01*
X62505541Y-52017540D01*
X62502706Y-52004030D01*
X62500813Y-51986109D01*
X62499687Y-51962565D01*
X62499151Y-51932188D01*
X62499029Y-51893767D01*
X62499145Y-51846092D01*
X62499162Y-51840903D01*
X62499356Y-51794313D01*
X62499641Y-51757071D01*
X62500089Y-51727940D01*
X62500775Y-51705684D01*
X62501773Y-51689066D01*
X62503157Y-51676852D01*
X62505001Y-51667803D01*
X62507378Y-51660685D01*
X62510333Y-51654322D01*
X62528129Y-51630050D01*
X62552469Y-51611551D01*
X62580828Y-51599847D01*
X62610681Y-51595959D01*
X62639504Y-51600906D01*
X62641083Y-51601483D01*
X62657889Y-51611142D01*
X62676025Y-51626556D01*
X62691714Y-51644211D01*
X62698764Y-51655135D01*
X62700927Y-51661214D01*
X62702653Y-51671008D01*
X62703984Y-51685571D01*
X62704965Y-51705958D01*
X62705637Y-51733221D01*
X62706044Y-51768414D01*
X62706228Y-51812592D01*
X62706250Y-51839284D01*
X62944375Y-51839284D01*
X62944375Y-51642712D01*
X62930757Y-51602092D01*
X62915441Y-51562269D01*
X62897471Y-51528278D01*
X62874666Y-51496665D01*
X62844847Y-51463973D01*
X62841566Y-51460681D01*
X62798751Y-51423226D01*
X62754271Y-51395113D01*
X62706070Y-51375107D01*
X62691971Y-51370886D01*
X62674535Y-51366851D01*
X62655751Y-51364422D01*
X62632924Y-51363420D01*
X62603354Y-51363668D01*
G36*
X60978280Y-51363845D02*
X60944217Y-51368097D01*
X60913014Y-51376142D01*
X60880922Y-51388795D01*
X60866164Y-51395733D01*
X60817816Y-51424862D01*
X60774578Y-51461970D01*
X60737631Y-51505526D01*
X60708159Y-51553997D01*
X60687343Y-51605849D01*
X60679566Y-51637600D01*
X60678238Y-51649986D01*
X60677094Y-51671132D01*
X60676130Y-51699862D01*
X60675344Y-51735004D01*
X60674734Y-51775382D01*
X60674297Y-51819822D01*
X60674031Y-51867151D01*
X60673933Y-51916194D01*
X60674001Y-51965777D01*
X60674231Y-52014726D01*
X60674623Y-52061867D01*
X60675172Y-52106025D01*
X60675876Y-52146026D01*
X60676734Y-52180697D01*
X60677742Y-52208863D01*
X60678898Y-52229349D01*
X60680200Y-52240983D01*
X60680865Y-52243064D01*
X60689982Y-52250513D01*
X60708487Y-52261248D01*
X60735808Y-52274980D01*
X60771373Y-52291421D01*
X60814606Y-52310285D01*
X60815498Y-52310665D01*
X60839430Y-52320436D01*
X60856070Y-52326012D01*
X60867589Y-52327942D01*
X60876154Y-52326776D01*
X60877398Y-52326338D01*
X60883278Y-52324095D01*
X60888303Y-52321646D01*
X60892547Y-52318196D01*
X60896079Y-52312946D01*
X60898972Y-52305100D01*
X60901298Y-52293861D01*
X60903127Y-52278430D01*
X60904531Y-52258011D01*
X60905583Y-52231807D01*
X60906353Y-52199020D01*
X60906914Y-52158854D01*
X60907336Y-52110510D01*
X60907691Y-52053192D01*
X60908051Y-51986102D01*
X60908058Y-51984804D01*
X60908406Y-51917943D01*
X60908734Y-51860822D01*
X60909120Y-51812599D01*
X60909647Y-51772431D01*
X60910395Y-51739476D01*
X60911444Y-51712891D01*
X60912876Y-51691833D01*
X60914770Y-51675460D01*
X60917207Y-51662930D01*
X60920268Y-51653400D01*
X60924034Y-51646027D01*
X60928584Y-51639969D01*
X60934001Y-51634384D01*
X60940363Y-51628428D01*
X60942330Y-51626575D01*
X60969180Y-51607579D01*
X60998464Y-51597994D01*
X61028484Y-51597482D01*
X61057545Y-51605711D01*
X61083951Y-51622343D01*
X61106006Y-51647046D01*
X61113943Y-51660479D01*
X61116199Y-51665329D01*
X61118092Y-51670972D01*
X61119654Y-51678322D01*
X61120917Y-51688294D01*
X61121913Y-51701802D01*
X61122672Y-51719759D01*
X61123227Y-51743081D01*
X61123609Y-51772681D01*
X61123850Y-51809473D01*
X61123981Y-51854372D01*
X61124034Y-51908292D01*
X61124042Y-51952499D01*
X61124140Y-52011345D01*
X61124425Y-52065223D01*
X61124881Y-52113317D01*
X61125494Y-52154810D01*
X61126251Y-52188888D01*
X61127136Y-52214734D01*
X61128136Y-52231533D01*
X61129101Y-52238192D01*
X61135711Y-52247402D01*
X61149507Y-52257343D01*
X61171904Y-52269006D01*
X61175403Y-52270645D01*
X61196347Y-52280215D01*
X61220181Y-52290861D01*
X61244950Y-52301742D01*
X61268703Y-52312016D01*
X61289487Y-52320842D01*
X61305349Y-52327378D01*
X61314336Y-52330781D01*
X61315595Y-52331073D01*
X61321140Y-52329077D01*
X61328786Y-52326066D01*
X61334478Y-52323790D01*
X61339363Y-52321371D01*
X61343498Y-52318037D01*
X61346941Y-52313017D01*
X61349749Y-52305537D01*
X61351978Y-52294826D01*
X61353686Y-52280110D01*
X61354929Y-52260618D01*
X61355766Y-52235577D01*
X61356253Y-52204214D01*
X61356446Y-52165759D01*
X61356404Y-52119437D01*
X61356183Y-52064476D01*
X61355840Y-52000106D01*
X61355633Y-51962798D01*
X61355240Y-51894658D01*
X61354847Y-51836265D01*
X61354429Y-51786781D01*
X61353958Y-51745368D01*
X61353409Y-51711189D01*
X61352754Y-51683408D01*
X61351967Y-51661186D01*
X61351021Y-51643687D01*
X61349891Y-51630073D01*
X61348549Y-51619507D01*
X61346968Y-51611153D01*
X61345123Y-51604171D01*
X61344168Y-51601159D01*
X61320101Y-51544816D01*
X61287394Y-51494239D01*
X61246703Y-51450198D01*
X61198681Y-51413465D01*
X61172148Y-51398093D01*
X61129615Y-51379341D01*
X61086190Y-51367886D01*
X61038407Y-51362924D01*
X61018954Y-51362573D01*
X60978280Y-51363845D01*
X60978280Y-51363845D01*
G37*
X60978280Y-51363845D02*
X60944217Y-51368097D01*
X60913014Y-51376142D01*
X60880922Y-51388795D01*
X60866164Y-51395733D01*
X60817816Y-51424862D01*
X60774578Y-51461970D01*
X60737631Y-51505526D01*
X60708159Y-51553997D01*
X60687343Y-51605849D01*
X60679566Y-51637600D01*
X60678238Y-51649986D01*
X60677094Y-51671132D01*
X60676130Y-51699862D01*
X60675344Y-51735004D01*
X60674734Y-51775382D01*
X60674297Y-51819822D01*
X60674031Y-51867151D01*
X60673933Y-51916194D01*
X60674001Y-51965777D01*
X60674231Y-52014726D01*
X60674623Y-52061867D01*
X60675172Y-52106025D01*
X60675876Y-52146026D01*
X60676734Y-52180697D01*
X60677742Y-52208863D01*
X60678898Y-52229349D01*
X60680200Y-52240983D01*
X60680865Y-52243064D01*
X60689982Y-52250513D01*
X60708487Y-52261248D01*
X60735808Y-52274980D01*
X60771373Y-52291421D01*
X60814606Y-52310285D01*
X60815498Y-52310665D01*
X60839430Y-52320436D01*
X60856070Y-52326012D01*
X60867589Y-52327942D01*
X60876154Y-52326776D01*
X60877398Y-52326338D01*
X60883278Y-52324095D01*
X60888303Y-52321646D01*
X60892547Y-52318196D01*
X60896079Y-52312946D01*
X60898972Y-52305100D01*
X60901298Y-52293861D01*
X60903127Y-52278430D01*
X60904531Y-52258011D01*
X60905583Y-52231807D01*
X60906353Y-52199020D01*
X60906914Y-52158854D01*
X60907336Y-52110510D01*
X60907691Y-52053192D01*
X60908051Y-51986102D01*
X60908058Y-51984804D01*
X60908406Y-51917943D01*
X60908734Y-51860822D01*
X60909120Y-51812599D01*
X60909647Y-51772431D01*
X60910395Y-51739476D01*
X60911444Y-51712891D01*
X60912876Y-51691833D01*
X60914770Y-51675460D01*
X60917207Y-51662930D01*
X60920268Y-51653400D01*
X60924034Y-51646027D01*
X60928584Y-51639969D01*
X60934001Y-51634384D01*
X60940363Y-51628428D01*
X60942330Y-51626575D01*
X60969180Y-51607579D01*
X60998464Y-51597994D01*
X61028484Y-51597482D01*
X61057545Y-51605711D01*
X61083951Y-51622343D01*
X61106006Y-51647046D01*
X61113943Y-51660479D01*
X61116199Y-51665329D01*
X61118092Y-51670972D01*
X61119654Y-51678322D01*
X61120917Y-51688294D01*
X61121913Y-51701802D01*
X61122672Y-51719759D01*
X61123227Y-51743081D01*
X61123609Y-51772681D01*
X61123850Y-51809473D01*
X61123981Y-51854372D01*
X61124034Y-51908292D01*
X61124042Y-51952499D01*
X61124140Y-52011345D01*
X61124425Y-52065223D01*
X61124881Y-52113317D01*
X61125494Y-52154810D01*
X61126251Y-52188888D01*
X61127136Y-52214734D01*
X61128136Y-52231533D01*
X61129101Y-52238192D01*
X61135711Y-52247402D01*
X61149507Y-52257343D01*
X61171904Y-52269006D01*
X61175403Y-52270645D01*
X61196347Y-52280215D01*
X61220181Y-52290861D01*
X61244950Y-52301742D01*
X61268703Y-52312016D01*
X61289487Y-52320842D01*
X61305349Y-52327378D01*
X61314336Y-52330781D01*
X61315595Y-52331073D01*
X61321140Y-52329077D01*
X61328786Y-52326066D01*
X61334478Y-52323790D01*
X61339363Y-52321371D01*
X61343498Y-52318037D01*
X61346941Y-52313017D01*
X61349749Y-52305537D01*
X61351978Y-52294826D01*
X61353686Y-52280110D01*
X61354929Y-52260618D01*
X61355766Y-52235577D01*
X61356253Y-52204214D01*
X61356446Y-52165759D01*
X61356404Y-52119437D01*
X61356183Y-52064476D01*
X61355840Y-52000106D01*
X61355633Y-51962798D01*
X61355240Y-51894658D01*
X61354847Y-51836265D01*
X61354429Y-51786781D01*
X61353958Y-51745368D01*
X61353409Y-51711189D01*
X61352754Y-51683408D01*
X61351967Y-51661186D01*
X61351021Y-51643687D01*
X61349891Y-51630073D01*
X61348549Y-51619507D01*
X61346968Y-51611153D01*
X61345123Y-51604171D01*
X61344168Y-51601159D01*
X61320101Y-51544816D01*
X61287394Y-51494239D01*
X61246703Y-51450198D01*
X61198681Y-51413465D01*
X61172148Y-51398093D01*
X61129615Y-51379341D01*
X61086190Y-51367886D01*
X61038407Y-51362924D01*
X61018954Y-51362573D01*
X60978280Y-51363845D01*
G36*
X63352256Y-51362905D02*
X63324791Y-51366622D01*
X63320084Y-51367661D01*
X63265840Y-51386084D01*
X63214892Y-51413791D01*
X63168641Y-51449654D01*
X63128487Y-51492547D01*
X63095831Y-51541340D01*
X63089481Y-51553372D01*
X63082253Y-51568203D01*
X63076307Y-51581996D01*
X63071496Y-51595978D01*
X63067677Y-51611377D01*
X63064705Y-51629421D01*
X63062436Y-51651339D01*
X63060725Y-51678357D01*
X63059427Y-51711704D01*
X63058399Y-51752608D01*
X63057495Y-51802297D01*
X63057077Y-51828700D01*
X63056319Y-51879215D01*
X63055792Y-51920392D01*
X63055542Y-51953477D01*
X63055613Y-51979712D01*
X63056053Y-52000343D01*
X63056905Y-52016613D01*
X63058215Y-52029767D01*
X63060030Y-52041050D01*
X63062393Y-52051704D01*
X63065352Y-52062976D01*
X63065681Y-52064179D01*
X63086630Y-52121511D01*
X63116479Y-52173165D01*
X63155077Y-52218949D01*
X63202273Y-52258671D01*
X63235417Y-52279958D01*
X63269215Y-52295268D01*
X63310173Y-52307034D01*
X63355312Y-52314749D01*
X63401655Y-52317908D01*
X63446224Y-52316005D01*
X63447084Y-52315911D01*
X63469148Y-52312740D01*
X63490447Y-52308501D01*
X63502646Y-52305238D01*
X63553082Y-52283526D01*
X63600231Y-52252800D01*
X63642705Y-52214458D01*
X63679117Y-52169898D01*
X63708080Y-52120516D01*
X63723561Y-52082700D01*
X63726579Y-52073280D01*
X63729042Y-52063887D01*
X63731017Y-52053330D01*
X63732575Y-52040423D01*
X63733783Y-52023977D01*
X63734710Y-52002803D01*
X63735424Y-51975714D01*
X63735996Y-51941522D01*
X63736492Y-51899037D01*
X63736672Y-51879956D01*
X63504927Y-51879956D01*
X63504857Y-51923844D01*
X63504206Y-51957984D01*
X63502963Y-51982787D01*
X63501120Y-51998662D01*
X63500362Y-52002072D01*
X63487950Y-52030029D01*
X63468379Y-52052892D01*
X63443654Y-52069748D01*
X63415781Y-52079688D01*
X63386764Y-52081799D01*
X63358607Y-52075170D01*
X63349434Y-52070677D01*
X63333529Y-52059098D01*
X63317305Y-52043404D01*
X63311070Y-52035956D01*
X63293625Y-52013086D01*
X63293625Y-51844508D01*
X63293810Y-51792937D01*
X63294350Y-51748838D01*
X63295226Y-51712865D01*
X63296417Y-51685666D01*
X63297904Y-51667895D01*
X63299242Y-51661034D01*
X63313442Y-51637411D01*
X63335287Y-51618002D01*
X63362219Y-51604216D01*
X63391680Y-51597462D01*
X63414001Y-51597872D01*
X63445079Y-51606865D01*
X63470328Y-51624649D01*
X63488012Y-51647777D01*
X63502388Y-51672308D01*
X63504424Y-51825910D01*
X63504927Y-51879956D01*
X63736672Y-51879956D01*
X63736946Y-51851149D01*
X63737387Y-51795763D01*
X63737532Y-51749707D01*
X63737244Y-51711729D01*
X63736384Y-51680578D01*
X63734814Y-51655002D01*
X63732395Y-51633748D01*
X63728991Y-51615564D01*
X63724462Y-51599200D01*
X63718671Y-51583402D01*
X63711480Y-51566920D01*
X63703808Y-51550697D01*
X63685835Y-51519765D01*
X63661656Y-51487105D01*
X63634217Y-51456299D01*
X63606467Y-51430931D01*
X63603140Y-51428333D01*
X63577576Y-51411311D01*
X63546754Y-51394539D01*
X63514766Y-51380007D01*
X63485708Y-51369706D01*
X63478834Y-51367894D01*
X63452571Y-51363680D01*
X63420090Y-51361440D01*
X63385337Y-51361179D01*
X63352256Y-51362905D01*
X63352256Y-51362905D01*
G37*
X63352256Y-51362905D02*
X63324791Y-51366622D01*
X63320084Y-51367661D01*
X63265840Y-51386084D01*
X63214892Y-51413791D01*
X63168641Y-51449654D01*
X63128487Y-51492547D01*
X63095831Y-51541340D01*
X63089481Y-51553372D01*
X63082253Y-51568203D01*
X63076307Y-51581996D01*
X63071496Y-51595978D01*
X63067677Y-51611377D01*
X63064705Y-51629421D01*
X63062436Y-51651339D01*
X63060725Y-51678357D01*
X63059427Y-51711704D01*
X63058399Y-51752608D01*
X63057495Y-51802297D01*
X63057077Y-51828700D01*
X63056319Y-51879215D01*
X63055792Y-51920392D01*
X63055542Y-51953477D01*
X63055613Y-51979712D01*
X63056053Y-52000343D01*
X63056905Y-52016613D01*
X63058215Y-52029767D01*
X63060030Y-52041050D01*
X63062393Y-52051704D01*
X63065352Y-52062976D01*
X63065681Y-52064179D01*
X63086630Y-52121511D01*
X63116479Y-52173165D01*
X63155077Y-52218949D01*
X63202273Y-52258671D01*
X63235417Y-52279958D01*
X63269215Y-52295268D01*
X63310173Y-52307034D01*
X63355312Y-52314749D01*
X63401655Y-52317908D01*
X63446224Y-52316005D01*
X63447084Y-52315911D01*
X63469148Y-52312740D01*
X63490447Y-52308501D01*
X63502646Y-52305238D01*
X63553082Y-52283526D01*
X63600231Y-52252800D01*
X63642705Y-52214458D01*
X63679117Y-52169898D01*
X63708080Y-52120516D01*
X63723561Y-52082700D01*
X63726579Y-52073280D01*
X63729042Y-52063887D01*
X63731017Y-52053330D01*
X63732575Y-52040423D01*
X63733783Y-52023977D01*
X63734710Y-52002803D01*
X63735424Y-51975714D01*
X63735996Y-51941522D01*
X63736492Y-51899037D01*
X63736672Y-51879956D01*
X63504927Y-51879956D01*
X63504857Y-51923844D01*
X63504206Y-51957984D01*
X63502963Y-51982787D01*
X63501120Y-51998662D01*
X63500362Y-52002072D01*
X63487950Y-52030029D01*
X63468379Y-52052892D01*
X63443654Y-52069748D01*
X63415781Y-52079688D01*
X63386764Y-52081799D01*
X63358607Y-52075170D01*
X63349434Y-52070677D01*
X63333529Y-52059098D01*
X63317305Y-52043404D01*
X63311070Y-52035956D01*
X63293625Y-52013086D01*
X63293625Y-51844508D01*
X63293810Y-51792937D01*
X63294350Y-51748838D01*
X63295226Y-51712865D01*
X63296417Y-51685666D01*
X63297904Y-51667895D01*
X63299242Y-51661034D01*
X63313442Y-51637411D01*
X63335287Y-51618002D01*
X63362219Y-51604216D01*
X63391680Y-51597462D01*
X63414001Y-51597872D01*
X63445079Y-51606865D01*
X63470328Y-51624649D01*
X63488012Y-51647777D01*
X63502388Y-51672308D01*
X63504424Y-51825910D01*
X63504927Y-51879956D01*
X63736672Y-51879956D01*
X63736946Y-51851149D01*
X63737387Y-51795763D01*
X63737532Y-51749707D01*
X63737244Y-51711729D01*
X63736384Y-51680578D01*
X63734814Y-51655002D01*
X63732395Y-51633748D01*
X63728991Y-51615564D01*
X63724462Y-51599200D01*
X63718671Y-51583402D01*
X63711480Y-51566920D01*
X63703808Y-51550697D01*
X63685835Y-51519765D01*
X63661656Y-51487105D01*
X63634217Y-51456299D01*
X63606467Y-51430931D01*
X63603140Y-51428333D01*
X63577576Y-51411311D01*
X63546754Y-51394539D01*
X63514766Y-51380007D01*
X63485708Y-51369706D01*
X63478834Y-51367894D01*
X63452571Y-51363680D01*
X63420090Y-51361440D01*
X63385337Y-51361179D01*
X63352256Y-51362905D01*
G36*
X61754255Y-51364824D02*
X61701321Y-51377304D01*
X61651996Y-51398949D01*
X61605121Y-51430252D01*
X61565401Y-51465756D01*
X61533291Y-51501403D01*
X61508422Y-51537699D01*
X61490132Y-51576448D01*
X61477760Y-51619459D01*
X61470642Y-51668537D01*
X61468117Y-51725489D01*
X61468092Y-51731307D01*
X61468236Y-51760372D01*
X61468904Y-51780712D01*
X61470315Y-51794184D01*
X61472689Y-51802641D01*
X61476244Y-51807940D01*
X61477261Y-51808915D01*
X61484130Y-51812947D01*
X61499520Y-51820693D01*
X61522261Y-51831607D01*
X61551187Y-51845140D01*
X61585129Y-51860745D01*
X61622919Y-51877877D01*
X61658500Y-51893811D01*
X61713815Y-51918452D01*
X61760239Y-51939176D01*
X61798551Y-51956363D01*
X61829531Y-51970394D01*
X61853959Y-51981650D01*
X61872614Y-51990511D01*
X61886277Y-51997360D01*
X61895725Y-52002576D01*
X61901741Y-52006540D01*
X61905102Y-52009634D01*
X61906589Y-52012239D01*
X61906982Y-52014735D01*
X61906997Y-52015216D01*
X61903225Y-52025688D01*
X61893173Y-52039543D01*
X61879277Y-52054167D01*
X61863974Y-52066941D01*
X61852045Y-52074219D01*
X61823516Y-52082196D01*
X61793167Y-52081102D01*
X61763732Y-52071418D01*
X61738567Y-52054209D01*
X61722930Y-52036761D01*
X61712471Y-52016891D01*
X61705842Y-51991498D01*
X61703193Y-51972761D01*
X61700301Y-51954083D01*
X61696573Y-51938995D01*
X61693546Y-51932014D01*
X61686358Y-51926680D01*
X61671291Y-51918259D01*
X61650277Y-51907627D01*
X61625253Y-51895656D01*
X61598154Y-51883219D01*
X61570914Y-51871189D01*
X61545468Y-51860440D01*
X61523750Y-51851845D01*
X61507697Y-51846278D01*
X61499799Y-51844575D01*
X61487922Y-51845827D01*
X61479371Y-51850528D01*
X61473633Y-51860100D01*
X61470198Y-51875964D01*
X61468552Y-51899539D01*
X61468185Y-51932248D01*
X61468185Y-51932304D01*
X61469509Y-51983635D01*
X61473598Y-52026870D01*
X61481085Y-52064279D01*
X61492601Y-52098134D01*
X61508776Y-52130704D01*
X61530244Y-52164260D01*
X61534313Y-52170013D01*
X61572422Y-52216118D01*
X61614799Y-52254351D01*
X61660298Y-52283836D01*
X61707772Y-52303703D01*
X61711417Y-52304792D01*
X61743828Y-52311812D01*
X61781635Y-52316309D01*
X61820228Y-52317969D01*
X61854995Y-52316480D01*
X61864875Y-52315238D01*
X61920789Y-52301388D01*
X61973508Y-52277747D01*
X62021909Y-52244903D01*
X62052356Y-52217024D01*
X62087272Y-52176066D01*
X62114187Y-52132456D01*
X62133802Y-52087117D01*
X62147980Y-52048304D01*
X62147904Y-51841929D01*
X62147865Y-51787316D01*
X62147700Y-51742065D01*
X62147676Y-51739965D01*
X61914809Y-51739965D01*
X61914735Y-51748377D01*
X61914465Y-51749336D01*
X61909662Y-51747302D01*
X61896841Y-51741693D01*
X61877653Y-51733235D01*
X61853751Y-51722656D01*
X61837736Y-51715550D01*
X61809240Y-51702875D01*
X61782011Y-51690731D01*
X61758500Y-51680212D01*
X61741157Y-51672414D01*
X61736189Y-51670162D01*
X61710691Y-51658550D01*
X61723306Y-51641761D01*
X61738876Y-51626720D01*
X61760549Y-51612755D01*
X61784355Y-51601916D01*
X61806321Y-51596252D01*
X61812261Y-51595867D01*
X61831318Y-51598083D01*
X61849914Y-51603422D01*
X61850114Y-51603505D01*
X61865754Y-51612945D01*
X61882395Y-51627407D01*
X61897171Y-51643887D01*
X61907215Y-51659378D01*
X61909575Y-51665848D01*
X61910776Y-51674826D01*
X61912078Y-51689763D01*
X61913302Y-51707622D01*
X61914272Y-51725368D01*
X61914809Y-51739965D01*
X62147676Y-51739965D01*
X62147272Y-51704954D01*
X62146444Y-51674761D01*
X62145079Y-51650266D01*
X62143042Y-51630245D01*
X62140194Y-51613479D01*
X62136399Y-51598745D01*
X62131520Y-51584821D01*
X62125421Y-51570487D01*
X62117964Y-51554520D01*
X62115025Y-51548355D01*
X62103406Y-51526495D01*
X62089743Y-51506484D01*
X62071847Y-51485436D01*
X62050626Y-51463538D01*
X62007252Y-51425086D01*
X61963631Y-51396360D01*
X61918016Y-51376610D01*
X61868659Y-51365083D01*
X61813813Y-51361031D01*
X61811959Y-51361016D01*
X61754255Y-51364824D01*
X61754255Y-51364824D01*
G37*
X61754255Y-51364824D02*
X61701321Y-51377304D01*
X61651996Y-51398949D01*
X61605121Y-51430252D01*
X61565401Y-51465756D01*
X61533291Y-51501403D01*
X61508422Y-51537699D01*
X61490132Y-51576448D01*
X61477760Y-51619459D01*
X61470642Y-51668537D01*
X61468117Y-51725489D01*
X61468092Y-51731307D01*
X61468236Y-51760372D01*
X61468904Y-51780712D01*
X61470315Y-51794184D01*
X61472689Y-51802641D01*
X61476244Y-51807940D01*
X61477261Y-51808915D01*
X61484130Y-51812947D01*
X61499520Y-51820693D01*
X61522261Y-51831607D01*
X61551187Y-51845140D01*
X61585129Y-51860745D01*
X61622919Y-51877877D01*
X61658500Y-51893811D01*
X61713815Y-51918452D01*
X61760239Y-51939176D01*
X61798551Y-51956363D01*
X61829531Y-51970394D01*
X61853959Y-51981650D01*
X61872614Y-51990511D01*
X61886277Y-51997360D01*
X61895725Y-52002576D01*
X61901741Y-52006540D01*
X61905102Y-52009634D01*
X61906589Y-52012239D01*
X61906982Y-52014735D01*
X61906997Y-52015216D01*
X61903225Y-52025688D01*
X61893173Y-52039543D01*
X61879277Y-52054167D01*
X61863974Y-52066941D01*
X61852045Y-52074219D01*
X61823516Y-52082196D01*
X61793167Y-52081102D01*
X61763732Y-52071418D01*
X61738567Y-52054209D01*
X61722930Y-52036761D01*
X61712471Y-52016891D01*
X61705842Y-51991498D01*
X61703193Y-51972761D01*
X61700301Y-51954083D01*
X61696573Y-51938995D01*
X61693546Y-51932014D01*
X61686358Y-51926680D01*
X61671291Y-51918259D01*
X61650277Y-51907627D01*
X61625253Y-51895656D01*
X61598154Y-51883219D01*
X61570914Y-51871189D01*
X61545468Y-51860440D01*
X61523750Y-51851845D01*
X61507697Y-51846278D01*
X61499799Y-51844575D01*
X61487922Y-51845827D01*
X61479371Y-51850528D01*
X61473633Y-51860100D01*
X61470198Y-51875964D01*
X61468552Y-51899539D01*
X61468185Y-51932248D01*
X61468185Y-51932304D01*
X61469509Y-51983635D01*
X61473598Y-52026870D01*
X61481085Y-52064279D01*
X61492601Y-52098134D01*
X61508776Y-52130704D01*
X61530244Y-52164260D01*
X61534313Y-52170013D01*
X61572422Y-52216118D01*
X61614799Y-52254351D01*
X61660298Y-52283836D01*
X61707772Y-52303703D01*
X61711417Y-52304792D01*
X61743828Y-52311812D01*
X61781635Y-52316309D01*
X61820228Y-52317969D01*
X61854995Y-52316480D01*
X61864875Y-52315238D01*
X61920789Y-52301388D01*
X61973508Y-52277747D01*
X62021909Y-52244903D01*
X62052356Y-52217024D01*
X62087272Y-52176066D01*
X62114187Y-52132456D01*
X62133802Y-52087117D01*
X62147980Y-52048304D01*
X62147904Y-51841929D01*
X62147865Y-51787316D01*
X62147700Y-51742065D01*
X62147676Y-51739965D01*
X61914809Y-51739965D01*
X61914735Y-51748377D01*
X61914465Y-51749336D01*
X61909662Y-51747302D01*
X61896841Y-51741693D01*
X61877653Y-51733235D01*
X61853751Y-51722656D01*
X61837736Y-51715550D01*
X61809240Y-51702875D01*
X61782011Y-51690731D01*
X61758500Y-51680212D01*
X61741157Y-51672414D01*
X61736189Y-51670162D01*
X61710691Y-51658550D01*
X61723306Y-51641761D01*
X61738876Y-51626720D01*
X61760549Y-51612755D01*
X61784355Y-51601916D01*
X61806321Y-51596252D01*
X61812261Y-51595867D01*
X61831318Y-51598083D01*
X61849914Y-51603422D01*
X61850114Y-51603505D01*
X61865754Y-51612945D01*
X61882395Y-51627407D01*
X61897171Y-51643887D01*
X61907215Y-51659378D01*
X61909575Y-51665848D01*
X61910776Y-51674826D01*
X61912078Y-51689763D01*
X61913302Y-51707622D01*
X61914272Y-51725368D01*
X61914809Y-51739965D01*
X62147676Y-51739965D01*
X62147272Y-51704954D01*
X62146444Y-51674761D01*
X62145079Y-51650266D01*
X62143042Y-51630245D01*
X62140194Y-51613479D01*
X62136399Y-51598745D01*
X62131520Y-51584821D01*
X62125421Y-51570487D01*
X62117964Y-51554520D01*
X62115025Y-51548355D01*
X62103406Y-51526495D01*
X62089743Y-51506484D01*
X62071847Y-51485436D01*
X62050626Y-51463538D01*
X62007252Y-51425086D01*
X61963631Y-51396360D01*
X61918016Y-51376610D01*
X61868659Y-51365083D01*
X61813813Y-51361031D01*
X61811959Y-51361016D01*
X61754255Y-51364824D01*
G36*
X58923893Y-51412139D02*
X58895775Y-51415203D01*
X58883021Y-51417853D01*
X58832199Y-51436485D01*
X58785515Y-51463507D01*
X58744052Y-51497703D01*
X58708895Y-51537860D01*
X58681129Y-51582765D01*
X58661836Y-51631205D01*
X58652755Y-51675579D01*
X58651787Y-51689189D01*
X58650907Y-51711616D01*
X58650118Y-51741586D01*
X58649425Y-51777826D01*
X58648833Y-51819063D01*
X58648348Y-51864023D01*
X58647973Y-51911431D01*
X58647715Y-51960016D01*
X58647576Y-52008503D01*
X58647564Y-52055618D01*
X58647681Y-52100089D01*
X58647933Y-52140641D01*
X58648326Y-52176001D01*
X58648863Y-52204896D01*
X58649550Y-52226052D01*
X58650392Y-52238195D01*
X58650610Y-52239591D01*
X58654053Y-52248743D01*
X58661396Y-52257351D01*
X58673987Y-52266281D01*
X58693172Y-52276399D01*
X58720300Y-52288573D01*
X58738885Y-52296373D01*
X58764602Y-52306623D01*
X58782890Y-52312627D01*
X58795895Y-52314644D01*
X58805764Y-52312932D01*
X58814647Y-52307750D01*
X58817151Y-52305791D01*
X58820296Y-52303074D01*
X58822852Y-52299822D01*
X58824899Y-52294966D01*
X58826511Y-52287441D01*
X58827768Y-52276178D01*
X58828745Y-52260110D01*
X58829519Y-52238170D01*
X58830169Y-52209290D01*
X58830771Y-52172402D01*
X58831402Y-52126440D01*
X58831689Y-52104581D01*
X58834196Y-51913112D01*
X58845380Y-51916631D01*
X58854983Y-51920173D01*
X58872290Y-51927040D01*
X58895275Y-51936388D01*
X58921916Y-51947374D01*
X58950186Y-51959153D01*
X58978063Y-51970882D01*
X59003521Y-51981717D01*
X59024537Y-51990815D01*
X59039086Y-51997330D01*
X59040132Y-51997819D01*
X59065265Y-52012504D01*
X59081210Y-52029270D01*
X59089354Y-52049751D01*
X59090525Y-52057235D01*
X59090851Y-52074862D01*
X59086064Y-52088170D01*
X59081068Y-52095271D01*
X59060667Y-52113007D01*
X59033411Y-52124689D01*
X59001396Y-52129911D01*
X58966719Y-52128267D01*
X58940748Y-52122445D01*
X58920433Y-52116873D01*
X58904965Y-52114985D01*
X58892889Y-52117890D01*
X58882747Y-52126694D01*
X58873085Y-52142506D01*
X58862445Y-52166432D01*
X58853579Y-52188751D01*
X58842294Y-52219849D01*
X58836033Y-52243250D01*
X58834714Y-52260527D01*
X58838256Y-52273253D01*
X58846578Y-52283003D01*
X58848625Y-52284599D01*
X58868818Y-52295345D01*
X58896812Y-52304498D01*
X58929893Y-52311618D01*
X58965341Y-52316267D01*
X59000439Y-52318005D01*
X59032471Y-52316394D01*
X59039511Y-52315442D01*
X59086162Y-52303846D01*
X59132690Y-52284349D01*
X59176131Y-52258558D01*
X59213517Y-52228081D01*
X59227166Y-52213738D01*
X59240025Y-52196645D01*
X59253648Y-52174949D01*
X59263356Y-52156784D01*
X59270411Y-52141501D01*
X59275112Y-52128670D01*
X59277935Y-52115466D01*
X59279355Y-52099067D01*
X59279848Y-52076649D01*
X59279896Y-52058613D01*
X59279785Y-52031484D01*
X59279080Y-52012037D01*
X59277227Y-51997369D01*
X59273671Y-51984579D01*
X59267857Y-51970764D01*
X59260004Y-51954589D01*
X59250036Y-51935536D01*
X59239633Y-51918678D01*
X59227871Y-51903424D01*
X59213830Y-51889182D01*
X59196588Y-51875360D01*
X59175225Y-51861368D01*
X59148817Y-51846613D01*
X59116445Y-51830504D01*
X59077187Y-51812449D01*
X59030120Y-51791857D01*
X58974325Y-51768137D01*
X58960534Y-51762333D01*
X58836963Y-51710402D01*
X58840017Y-51691583D01*
X58849538Y-51664177D01*
X58867664Y-51639452D01*
X58892468Y-51619000D01*
X58922029Y-51604412D01*
X58953932Y-51597324D01*
X58990430Y-51598755D01*
X59022809Y-51609527D01*
X59050292Y-51628938D01*
X59072099Y-51656286D01*
X59087455Y-51690870D01*
X59094707Y-51724301D01*
X59098862Y-51742034D01*
X59105341Y-51755731D01*
X59107871Y-51758729D01*
X59117547Y-51765161D01*
X59134450Y-51773993D01*
X59156092Y-51784165D01*
X59179984Y-51794613D01*
X59203639Y-51804274D01*
X59224569Y-51812087D01*
X59240285Y-51816987D01*
X59246917Y-51818117D01*
X59260398Y-51815842D01*
X59269843Y-51808171D01*
X59275793Y-51793833D01*
X59278793Y-51771555D01*
X59279405Y-51742045D01*
X59277425Y-51698146D01*
X59271898Y-51660960D01*
X59262113Y-51627003D01*
X59250124Y-51598513D01*
X59222114Y-51549797D01*
X59187384Y-51506537D01*
X59147302Y-51469938D01*
X59103232Y-51441205D01*
X59056542Y-51421544D01*
X59046113Y-51418571D01*
X59021408Y-51414192D01*
X58990366Y-51411649D01*
X58956642Y-51410960D01*
X58923893Y-51412139D01*
X58923893Y-51412139D01*
G37*
X58923893Y-51412139D02*
X58895775Y-51415203D01*
X58883021Y-51417853D01*
X58832199Y-51436485D01*
X58785515Y-51463507D01*
X58744052Y-51497703D01*
X58708895Y-51537860D01*
X58681129Y-51582765D01*
X58661836Y-51631205D01*
X58652755Y-51675579D01*
X58651787Y-51689189D01*
X58650907Y-51711616D01*
X58650118Y-51741586D01*
X58649425Y-51777826D01*
X58648833Y-51819063D01*
X58648348Y-51864023D01*
X58647973Y-51911431D01*
X58647715Y-51960016D01*
X58647576Y-52008503D01*
X58647564Y-52055618D01*
X58647681Y-52100089D01*
X58647933Y-52140641D01*
X58648326Y-52176001D01*
X58648863Y-52204896D01*
X58649550Y-52226052D01*
X58650392Y-52238195D01*
X58650610Y-52239591D01*
X58654053Y-52248743D01*
X58661396Y-52257351D01*
X58673987Y-52266281D01*
X58693172Y-52276399D01*
X58720300Y-52288573D01*
X58738885Y-52296373D01*
X58764602Y-52306623D01*
X58782890Y-52312627D01*
X58795895Y-52314644D01*
X58805764Y-52312932D01*
X58814647Y-52307750D01*
X58817151Y-52305791D01*
X58820296Y-52303074D01*
X58822852Y-52299822D01*
X58824899Y-52294966D01*
X58826511Y-52287441D01*
X58827768Y-52276178D01*
X58828745Y-52260110D01*
X58829519Y-52238170D01*
X58830169Y-52209290D01*
X58830771Y-52172402D01*
X58831402Y-52126440D01*
X58831689Y-52104581D01*
X58834196Y-51913112D01*
X58845380Y-51916631D01*
X58854983Y-51920173D01*
X58872290Y-51927040D01*
X58895275Y-51936388D01*
X58921916Y-51947374D01*
X58950186Y-51959153D01*
X58978063Y-51970882D01*
X59003521Y-51981717D01*
X59024537Y-51990815D01*
X59039086Y-51997330D01*
X59040132Y-51997819D01*
X59065265Y-52012504D01*
X59081210Y-52029270D01*
X59089354Y-52049751D01*
X59090525Y-52057235D01*
X59090851Y-52074862D01*
X59086064Y-52088170D01*
X59081068Y-52095271D01*
X59060667Y-52113007D01*
X59033411Y-52124689D01*
X59001396Y-52129911D01*
X58966719Y-52128267D01*
X58940748Y-52122445D01*
X58920433Y-52116873D01*
X58904965Y-52114985D01*
X58892889Y-52117890D01*
X58882747Y-52126694D01*
X58873085Y-52142506D01*
X58862445Y-52166432D01*
X58853579Y-52188751D01*
X58842294Y-52219849D01*
X58836033Y-52243250D01*
X58834714Y-52260527D01*
X58838256Y-52273253D01*
X58846578Y-52283003D01*
X58848625Y-52284599D01*
X58868818Y-52295345D01*
X58896812Y-52304498D01*
X58929893Y-52311618D01*
X58965341Y-52316267D01*
X59000439Y-52318005D01*
X59032471Y-52316394D01*
X59039511Y-52315442D01*
X59086162Y-52303846D01*
X59132690Y-52284349D01*
X59176131Y-52258558D01*
X59213517Y-52228081D01*
X59227166Y-52213738D01*
X59240025Y-52196645D01*
X59253648Y-52174949D01*
X59263356Y-52156784D01*
X59270411Y-52141501D01*
X59275112Y-52128670D01*
X59277935Y-52115466D01*
X59279355Y-52099067D01*
X59279848Y-52076649D01*
X59279896Y-52058613D01*
X59279785Y-52031484D01*
X59279080Y-52012037D01*
X59277227Y-51997369D01*
X59273671Y-51984579D01*
X59267857Y-51970764D01*
X59260004Y-51954589D01*
X59250036Y-51935536D01*
X59239633Y-51918678D01*
X59227871Y-51903424D01*
X59213830Y-51889182D01*
X59196588Y-51875360D01*
X59175225Y-51861368D01*
X59148817Y-51846613D01*
X59116445Y-51830504D01*
X59077187Y-51812449D01*
X59030120Y-51791857D01*
X58974325Y-51768137D01*
X58960534Y-51762333D01*
X58836963Y-51710402D01*
X58840017Y-51691583D01*
X58849538Y-51664177D01*
X58867664Y-51639452D01*
X58892468Y-51619000D01*
X58922029Y-51604412D01*
X58953932Y-51597324D01*
X58990430Y-51598755D01*
X59022809Y-51609527D01*
X59050292Y-51628938D01*
X59072099Y-51656286D01*
X59087455Y-51690870D01*
X59094707Y-51724301D01*
X59098862Y-51742034D01*
X59105341Y-51755731D01*
X59107871Y-51758729D01*
X59117547Y-51765161D01*
X59134450Y-51773993D01*
X59156092Y-51784165D01*
X59179984Y-51794613D01*
X59203639Y-51804274D01*
X59224569Y-51812087D01*
X59240285Y-51816987D01*
X59246917Y-51818117D01*
X59260398Y-51815842D01*
X59269843Y-51808171D01*
X59275793Y-51793833D01*
X59278793Y-51771555D01*
X59279405Y-51742045D01*
X59277425Y-51698146D01*
X59271898Y-51660960D01*
X59262113Y-51627003D01*
X59250124Y-51598513D01*
X59222114Y-51549797D01*
X59187384Y-51506537D01*
X59147302Y-51469938D01*
X59103232Y-51441205D01*
X59056542Y-51421544D01*
X59046113Y-51418571D01*
X59021408Y-51414192D01*
X58990366Y-51411649D01*
X58956642Y-51410960D01*
X58923893Y-51412139D01*
G36*
X57164833Y-51115771D02*
X57154324Y-51120468D01*
X57151178Y-51122563D01*
X57139417Y-51130800D01*
X57139417Y-51595609D01*
X57139424Y-51676528D01*
X57139456Y-51747563D01*
X57139527Y-51809417D01*
X57139651Y-51862789D01*
X57139843Y-51908380D01*
X57140118Y-51946892D01*
X57140491Y-51979024D01*
X57140976Y-52005477D01*
X57141587Y-52026952D01*
X57142340Y-52044150D01*
X57143249Y-52057770D01*
X57144329Y-52068515D01*
X57145593Y-52077084D01*
X57147058Y-52084178D01*
X57148738Y-52090498D01*
X57149829Y-52094130D01*
X57170535Y-52143853D01*
X57200162Y-52189991D01*
X57237274Y-52231131D01*
X57280435Y-52265861D01*
X57328208Y-52292770D01*
X57366423Y-52307035D01*
X57404369Y-52315004D01*
X57446216Y-52318527D01*
X57487706Y-52317507D01*
X57524579Y-52311848D01*
X57529028Y-52310708D01*
X57572879Y-52296177D01*
X57610710Y-52277329D01*
X57645856Y-52252198D01*
X57676992Y-52223547D01*
X57711009Y-52185246D01*
X57736294Y-52146668D01*
X57754430Y-52105164D01*
X57761318Y-52082460D01*
X57763356Y-52069261D01*
X57765114Y-52047050D01*
X57766586Y-52017397D01*
X57767764Y-51981869D01*
X57768641Y-51942036D01*
X57769210Y-51899465D01*
X57769389Y-51868388D01*
X57581271Y-51868388D01*
X57581256Y-51915971D01*
X57581160Y-51954157D01*
X57580908Y-51984128D01*
X57580427Y-52007071D01*
X57579642Y-52024170D01*
X57578478Y-52036610D01*
X57576862Y-52045576D01*
X57574717Y-52052252D01*
X57571970Y-52057824D01*
X57569058Y-52062655D01*
X57551190Y-52084685D01*
X57527213Y-52105292D01*
X57501380Y-52120892D01*
X57498437Y-52122222D01*
X57478021Y-52127703D01*
X57452816Y-52129891D01*
X57427975Y-52128635D01*
X57410960Y-52124738D01*
X57381541Y-52109040D01*
X57355930Y-52086602D01*
X57341489Y-52067197D01*
X57327271Y-52043013D01*
X57327271Y-51863096D01*
X57327275Y-51812377D01*
X57327425Y-51771065D01*
X57327933Y-51737980D01*
X57329009Y-51711947D01*
X57330864Y-51691788D01*
X57333708Y-51676325D01*
X57337752Y-51664381D01*
X57343206Y-51654779D01*
X57350282Y-51646342D01*
X57359189Y-51637892D01*
X57369114Y-51629154D01*
X57398571Y-51609543D01*
X57431616Y-51598269D01*
X57465837Y-51595740D01*
X57498822Y-51602364D01*
X57507188Y-51605768D01*
X57524755Y-51616667D01*
X57543355Y-51632710D01*
X57560237Y-51651020D01*
X57572650Y-51668719D01*
X57577123Y-51678898D01*
X57578125Y-51687670D01*
X57579040Y-51705648D01*
X57579837Y-51731455D01*
X57580487Y-51763714D01*
X57580960Y-51801048D01*
X57581225Y-51842079D01*
X57581271Y-51868388D01*
X57769389Y-51868388D01*
X57769463Y-51855725D01*
X57769393Y-51812385D01*
X57768993Y-51771013D01*
X57768255Y-51733178D01*
X57767172Y-51700448D01*
X57765738Y-51674392D01*
X57763943Y-51656578D01*
X57763321Y-51653013D01*
X57747945Y-51604007D01*
X57722530Y-51557413D01*
X57686894Y-51512914D01*
X57677082Y-51502792D01*
X57640998Y-51470418D01*
X57605041Y-51446309D01*
X57566093Y-51428654D01*
X57531101Y-51418066D01*
X57504257Y-51413595D01*
X57471425Y-51411552D01*
X57436070Y-51411831D01*
X57401661Y-51414322D01*
X57371663Y-51418920D01*
X57354551Y-51423541D01*
X57339549Y-51428210D01*
X57329079Y-51430308D01*
X57326319Y-51429991D01*
X57325451Y-51424170D01*
X57324472Y-51409329D01*
X57323451Y-51387029D01*
X57322453Y-51358833D01*
X57321547Y-51326301D01*
X57321214Y-51311872D01*
X57320374Y-51277347D01*
X57319442Y-51245900D01*
X57318482Y-51219248D01*
X57317557Y-51199107D01*
X57316733Y-51187194D01*
X57316465Y-51185212D01*
X57311136Y-51177171D01*
X57297681Y-51167248D01*
X57275560Y-51155140D01*
X57244234Y-51140542D01*
X57214983Y-51128030D01*
X57192479Y-51119322D01*
X57176657Y-51115312D01*
X57164833Y-51115771D01*
X57164833Y-51115771D01*
G37*
X57164833Y-51115771D02*
X57154324Y-51120468D01*
X57151178Y-51122563D01*
X57139417Y-51130800D01*
X57139417Y-51595609D01*
X57139424Y-51676528D01*
X57139456Y-51747563D01*
X57139527Y-51809417D01*
X57139651Y-51862789D01*
X57139843Y-51908380D01*
X57140118Y-51946892D01*
X57140491Y-51979024D01*
X57140976Y-52005477D01*
X57141587Y-52026952D01*
X57142340Y-52044150D01*
X57143249Y-52057770D01*
X57144329Y-52068515D01*
X57145593Y-52077084D01*
X57147058Y-52084178D01*
X57148738Y-52090498D01*
X57149829Y-52094130D01*
X57170535Y-52143853D01*
X57200162Y-52189991D01*
X57237274Y-52231131D01*
X57280435Y-52265861D01*
X57328208Y-52292770D01*
X57366423Y-52307035D01*
X57404369Y-52315004D01*
X57446216Y-52318527D01*
X57487706Y-52317507D01*
X57524579Y-52311848D01*
X57529028Y-52310708D01*
X57572879Y-52296177D01*
X57610710Y-52277329D01*
X57645856Y-52252198D01*
X57676992Y-52223547D01*
X57711009Y-52185246D01*
X57736294Y-52146668D01*
X57754430Y-52105164D01*
X57761318Y-52082460D01*
X57763356Y-52069261D01*
X57765114Y-52047050D01*
X57766586Y-52017397D01*
X57767764Y-51981869D01*
X57768641Y-51942036D01*
X57769210Y-51899465D01*
X57769389Y-51868388D01*
X57581271Y-51868388D01*
X57581256Y-51915971D01*
X57581160Y-51954157D01*
X57580908Y-51984128D01*
X57580427Y-52007071D01*
X57579642Y-52024170D01*
X57578478Y-52036610D01*
X57576862Y-52045576D01*
X57574717Y-52052252D01*
X57571970Y-52057824D01*
X57569058Y-52062655D01*
X57551190Y-52084685D01*
X57527213Y-52105292D01*
X57501380Y-52120892D01*
X57498437Y-52122222D01*
X57478021Y-52127703D01*
X57452816Y-52129891D01*
X57427975Y-52128635D01*
X57410960Y-52124738D01*
X57381541Y-52109040D01*
X57355930Y-52086602D01*
X57341489Y-52067197D01*
X57327271Y-52043013D01*
X57327271Y-51863096D01*
X57327275Y-51812377D01*
X57327425Y-51771065D01*
X57327933Y-51737980D01*
X57329009Y-51711947D01*
X57330864Y-51691788D01*
X57333708Y-51676325D01*
X57337752Y-51664381D01*
X57343206Y-51654779D01*
X57350282Y-51646342D01*
X57359189Y-51637892D01*
X57369114Y-51629154D01*
X57398571Y-51609543D01*
X57431616Y-51598269D01*
X57465837Y-51595740D01*
X57498822Y-51602364D01*
X57507188Y-51605768D01*
X57524755Y-51616667D01*
X57543355Y-51632710D01*
X57560237Y-51651020D01*
X57572650Y-51668719D01*
X57577123Y-51678898D01*
X57578125Y-51687670D01*
X57579040Y-51705648D01*
X57579837Y-51731455D01*
X57580487Y-51763714D01*
X57580960Y-51801048D01*
X57581225Y-51842079D01*
X57581271Y-51868388D01*
X57769389Y-51868388D01*
X57769463Y-51855725D01*
X57769393Y-51812385D01*
X57768993Y-51771013D01*
X57768255Y-51733178D01*
X57767172Y-51700448D01*
X57765738Y-51674392D01*
X57763943Y-51656578D01*
X57763321Y-51653013D01*
X57747945Y-51604007D01*
X57722530Y-51557413D01*
X57686894Y-51512914D01*
X57677082Y-51502792D01*
X57640998Y-51470418D01*
X57605041Y-51446309D01*
X57566093Y-51428654D01*
X57531101Y-51418066D01*
X57504257Y-51413595D01*
X57471425Y-51411552D01*
X57436070Y-51411831D01*
X57401661Y-51414322D01*
X57371663Y-51418920D01*
X57354551Y-51423541D01*
X57339549Y-51428210D01*
X57329079Y-51430308D01*
X57326319Y-51429991D01*
X57325451Y-51424170D01*
X57324472Y-51409329D01*
X57323451Y-51387029D01*
X57322453Y-51358833D01*
X57321547Y-51326301D01*
X57321214Y-51311872D01*
X57320374Y-51277347D01*
X57319442Y-51245900D01*
X57318482Y-51219248D01*
X57317557Y-51199107D01*
X57316733Y-51187194D01*
X57316465Y-51185212D01*
X57311136Y-51177171D01*
X57297681Y-51167248D01*
X57275560Y-51155140D01*
X57244234Y-51140542D01*
X57214983Y-51128030D01*
X57192479Y-51119322D01*
X57176657Y-51115312D01*
X57164833Y-51115771D01*
G36*
X56334228Y-51411031D02*
X56329657Y-51412607D01*
X56325828Y-51416096D01*
X56322675Y-51422237D01*
X56320133Y-51431771D01*
X56318137Y-51445439D01*
X56316620Y-51463978D01*
X56315518Y-51488131D01*
X56314763Y-51518636D01*
X56314291Y-51556234D01*
X56314036Y-51601664D01*
X56313932Y-51655667D01*
X56313914Y-51718982D01*
X56313917Y-51770557D01*
X56313949Y-51840449D01*
X56314055Y-51900567D01*
X56314254Y-51951718D01*
X56314564Y-51994713D01*
X56315002Y-52030358D01*
X56315587Y-52059464D01*
X56316335Y-52082838D01*
X56317266Y-52101290D01*
X56318397Y-52115627D01*
X56319745Y-52126659D01*
X56321329Y-52135194D01*
X56322029Y-52138078D01*
X56339371Y-52184963D01*
X56364838Y-52225858D01*
X56397383Y-52260050D01*
X56435960Y-52286829D01*
X56479520Y-52305484D01*
X56527017Y-52315304D01*
X56577403Y-52315577D01*
X56582632Y-52315044D01*
X56622298Y-52308340D01*
X56654464Y-52297563D01*
X56680909Y-52282431D01*
X56696004Y-52271705D01*
X56728534Y-52287676D01*
X56768924Y-52304923D01*
X56806279Y-52314722D01*
X56844367Y-52317734D01*
X56884287Y-52314955D01*
X56928602Y-52304440D01*
X56969526Y-52284138D01*
X57006664Y-52254688D01*
X57037499Y-52219295D01*
X57060688Y-52179946D01*
X57074828Y-52139053D01*
X57075342Y-52136679D01*
X57076323Y-52126794D01*
X57077232Y-52107617D01*
X57078064Y-52080306D01*
X57078815Y-52046018D01*
X57079480Y-52005912D01*
X57080054Y-51961146D01*
X57080533Y-51912877D01*
X57080911Y-51862265D01*
X57081185Y-51810466D01*
X57081349Y-51758640D01*
X57081400Y-51707944D01*
X57081331Y-51659535D01*
X57081138Y-51614573D01*
X57080817Y-51574216D01*
X57080364Y-51539620D01*
X57079772Y-51511945D01*
X57079038Y-51492349D01*
X57078157Y-51481989D01*
X57078000Y-51481258D01*
X57070586Y-51471342D01*
X57053702Y-51459847D01*
X57042354Y-51453898D01*
X57005253Y-51436173D01*
X56976137Y-51423390D01*
X56953802Y-51415239D01*
X56937044Y-51411408D01*
X56924661Y-51411589D01*
X56915448Y-51415470D01*
X56910510Y-51419919D01*
X56908806Y-51422814D01*
X56907316Y-51427943D01*
X56906013Y-51436069D01*
X56904870Y-51447950D01*
X56903862Y-51464349D01*
X56902960Y-51486025D01*
X56902139Y-51513740D01*
X56901373Y-51548255D01*
X56900633Y-51590329D01*
X56899894Y-51640725D01*
X56899129Y-51700203D01*
X56898334Y-51767536D01*
X56894456Y-52105892D01*
X56882455Y-52117894D01*
X56863000Y-52130938D01*
X56841518Y-52133904D01*
X56826696Y-52130113D01*
X56820003Y-52127381D01*
X56814303Y-52124617D01*
X56809510Y-52121002D01*
X56805539Y-52115712D01*
X56802301Y-52107928D01*
X56799712Y-52096827D01*
X56797683Y-52081589D01*
X56796129Y-52061392D01*
X56794963Y-52035415D01*
X56794099Y-52002836D01*
X56793449Y-51962834D01*
X56792928Y-51914589D01*
X56792449Y-51857278D01*
X56792011Y-51801002D01*
X56791532Y-51745351D01*
X56790998Y-51692506D01*
X56790425Y-51643482D01*
X56789828Y-51599294D01*
X56789222Y-51560956D01*
X56788623Y-51529485D01*
X56788047Y-51505895D01*
X56787510Y-51491200D01*
X56787183Y-51486862D01*
X56784514Y-51478798D01*
X56778252Y-51471003D01*
X56767174Y-51462723D01*
X56750054Y-51453204D01*
X56725667Y-51441693D01*
X56692788Y-51427436D01*
X56685816Y-51424495D01*
X56660739Y-51415104D01*
X56642521Y-51411409D01*
X56629152Y-51413330D01*
X56618623Y-51420787D01*
X56617685Y-51421795D01*
X56615637Y-51424432D01*
X56613879Y-51428009D01*
X56612384Y-51433320D01*
X56611124Y-51441158D01*
X56610072Y-51452318D01*
X56609200Y-51467595D01*
X56608482Y-51487782D01*
X56607890Y-51513674D01*
X56607397Y-51546065D01*
X56606974Y-51585750D01*
X56606596Y-51633522D01*
X56606234Y-51690176D01*
X56605861Y-51756506D01*
X56605806Y-51766758D01*
X56604007Y-52100586D01*
X56586491Y-52118101D01*
X56567255Y-52132147D01*
X56548308Y-52135673D01*
X56529889Y-52128669D01*
X56520767Y-52121031D01*
X56506180Y-52106444D01*
X56502653Y-51993177D01*
X56501804Y-51960099D01*
X56501029Y-51918671D01*
X56500352Y-51871130D01*
X56499800Y-51819710D01*
X56499397Y-51766646D01*
X56499168Y-51714172D01*
X56499125Y-51682086D01*
X56499125Y-51484261D01*
X56487219Y-51472395D01*
X56476478Y-51464664D01*
X56458511Y-51454722D01*
X56435888Y-51443691D01*
X56411180Y-51432693D01*
X56386957Y-51422851D01*
X56365787Y-51415287D01*
X56350242Y-51411124D01*
X56345861Y-51410659D01*
X56339608Y-51410628D01*
X56334228Y-51411031D01*
X56334228Y-51411031D01*
G37*
X56334228Y-51411031D02*
X56329657Y-51412607D01*
X56325828Y-51416096D01*
X56322675Y-51422237D01*
X56320133Y-51431771D01*
X56318137Y-51445439D01*
X56316620Y-51463978D01*
X56315518Y-51488131D01*
X56314763Y-51518636D01*
X56314291Y-51556234D01*
X56314036Y-51601664D01*
X56313932Y-51655667D01*
X56313914Y-51718982D01*
X56313917Y-51770557D01*
X56313949Y-51840449D01*
X56314055Y-51900567D01*
X56314254Y-51951718D01*
X56314564Y-51994713D01*
X56315002Y-52030358D01*
X56315587Y-52059464D01*
X56316335Y-52082838D01*
X56317266Y-52101290D01*
X56318397Y-52115627D01*
X56319745Y-52126659D01*
X56321329Y-52135194D01*
X56322029Y-52138078D01*
X56339371Y-52184963D01*
X56364838Y-52225858D01*
X56397383Y-52260050D01*
X56435960Y-52286829D01*
X56479520Y-52305484D01*
X56527017Y-52315304D01*
X56577403Y-52315577D01*
X56582632Y-52315044D01*
X56622298Y-52308340D01*
X56654464Y-52297563D01*
X56680909Y-52282431D01*
X56696004Y-52271705D01*
X56728534Y-52287676D01*
X56768924Y-52304923D01*
X56806279Y-52314722D01*
X56844367Y-52317734D01*
X56884287Y-52314955D01*
X56928602Y-52304440D01*
X56969526Y-52284138D01*
X57006664Y-52254688D01*
X57037499Y-52219295D01*
X57060688Y-52179946D01*
X57074828Y-52139053D01*
X57075342Y-52136679D01*
X57076323Y-52126794D01*
X57077232Y-52107617D01*
X57078064Y-52080306D01*
X57078815Y-52046018D01*
X57079480Y-52005912D01*
X57080054Y-51961146D01*
X57080533Y-51912877D01*
X57080911Y-51862265D01*
X57081185Y-51810466D01*
X57081349Y-51758640D01*
X57081400Y-51707944D01*
X57081331Y-51659535D01*
X57081138Y-51614573D01*
X57080817Y-51574216D01*
X57080364Y-51539620D01*
X57079772Y-51511945D01*
X57079038Y-51492349D01*
X57078157Y-51481989D01*
X57078000Y-51481258D01*
X57070586Y-51471342D01*
X57053702Y-51459847D01*
X57042354Y-51453898D01*
X57005253Y-51436173D01*
X56976137Y-51423390D01*
X56953802Y-51415239D01*
X56937044Y-51411408D01*
X56924661Y-51411589D01*
X56915448Y-51415470D01*
X56910510Y-51419919D01*
X56908806Y-51422814D01*
X56907316Y-51427943D01*
X56906013Y-51436069D01*
X56904870Y-51447950D01*
X56903862Y-51464349D01*
X56902960Y-51486025D01*
X56902139Y-51513740D01*
X56901373Y-51548255D01*
X56900633Y-51590329D01*
X56899894Y-51640725D01*
X56899129Y-51700203D01*
X56898334Y-51767536D01*
X56894456Y-52105892D01*
X56882455Y-52117894D01*
X56863000Y-52130938D01*
X56841518Y-52133904D01*
X56826696Y-52130113D01*
X56820003Y-52127381D01*
X56814303Y-52124617D01*
X56809510Y-52121002D01*
X56805539Y-52115712D01*
X56802301Y-52107928D01*
X56799712Y-52096827D01*
X56797683Y-52081589D01*
X56796129Y-52061392D01*
X56794963Y-52035415D01*
X56794099Y-52002836D01*
X56793449Y-51962834D01*
X56792928Y-51914589D01*
X56792449Y-51857278D01*
X56792011Y-51801002D01*
X56791532Y-51745351D01*
X56790998Y-51692506D01*
X56790425Y-51643482D01*
X56789828Y-51599294D01*
X56789222Y-51560956D01*
X56788623Y-51529485D01*
X56788047Y-51505895D01*
X56787510Y-51491200D01*
X56787183Y-51486862D01*
X56784514Y-51478798D01*
X56778252Y-51471003D01*
X56767174Y-51462723D01*
X56750054Y-51453204D01*
X56725667Y-51441693D01*
X56692788Y-51427436D01*
X56685816Y-51424495D01*
X56660739Y-51415104D01*
X56642521Y-51411409D01*
X56629152Y-51413330D01*
X56618623Y-51420787D01*
X56617685Y-51421795D01*
X56615637Y-51424432D01*
X56613879Y-51428009D01*
X56612384Y-51433320D01*
X56611124Y-51441158D01*
X56610072Y-51452318D01*
X56609200Y-51467595D01*
X56608482Y-51487782D01*
X56607890Y-51513674D01*
X56607397Y-51546065D01*
X56606974Y-51585750D01*
X56606596Y-51633522D01*
X56606234Y-51690176D01*
X56605861Y-51756506D01*
X56605806Y-51766758D01*
X56604007Y-52100586D01*
X56586491Y-52118101D01*
X56567255Y-52132147D01*
X56548308Y-52135673D01*
X56529889Y-52128669D01*
X56520767Y-52121031D01*
X56506180Y-52106444D01*
X56502653Y-51993177D01*
X56501804Y-51960099D01*
X56501029Y-51918671D01*
X56500352Y-51871130D01*
X56499800Y-51819710D01*
X56499397Y-51766646D01*
X56499168Y-51714172D01*
X56499125Y-51682086D01*
X56499125Y-51484261D01*
X56487219Y-51472395D01*
X56476478Y-51464664D01*
X56458511Y-51454722D01*
X56435888Y-51443691D01*
X56411180Y-51432693D01*
X56386957Y-51422851D01*
X56365787Y-51415287D01*
X56350242Y-51411124D01*
X56345861Y-51410659D01*
X56339608Y-51410628D01*
X56334228Y-51411031D01*
G36*
X55913045Y-51413660D02*
X55888115Y-51414743D01*
X55868961Y-51416856D01*
X55853184Y-51420230D01*
X55843261Y-51423329D01*
X55791284Y-51446811D01*
X55744318Y-51478839D01*
X55703597Y-51518244D01*
X55670359Y-51563857D01*
X55648640Y-51607309D01*
X55642352Y-51625181D01*
X55637740Y-51644559D01*
X55634325Y-51668208D01*
X55631626Y-51698890D01*
X55630922Y-51709277D01*
X55629940Y-51729709D01*
X55629066Y-51758023D01*
X55628305Y-51792887D01*
X55627662Y-51832971D01*
X55627139Y-51876943D01*
X55626741Y-51923474D01*
X55626473Y-51971230D01*
X55626338Y-52018883D01*
X55626339Y-52065100D01*
X55626482Y-52108551D01*
X55626770Y-52147904D01*
X55627207Y-52181830D01*
X55627798Y-52208995D01*
X55628545Y-52228071D01*
X55629329Y-52237062D01*
X55632027Y-52248000D01*
X55637351Y-52255980D01*
X55647696Y-52263369D01*
X55664989Y-52272305D01*
X55703781Y-52290427D01*
X55736096Y-52303875D01*
X55761125Y-52312340D01*
X55778059Y-52315517D01*
X55778999Y-52315534D01*
X55795009Y-52310787D01*
X55806546Y-52298322D01*
X55811200Y-52280801D01*
X55811209Y-52279960D01*
X55811719Y-52271706D01*
X55814980Y-52271994D01*
X55821185Y-52277884D01*
X55836208Y-52288156D01*
X55859326Y-52298103D01*
X55888061Y-52306875D01*
X55919936Y-52313622D01*
X55929772Y-52315129D01*
X55953777Y-52318289D01*
X55971667Y-52319814D01*
X55987385Y-52319612D01*
X56004877Y-52317591D01*
X56028086Y-52313659D01*
X56033298Y-52312719D01*
X56080601Y-52299325D01*
X56126306Y-52277292D01*
X56168377Y-52248100D01*
X56204781Y-52213231D01*
X56233483Y-52174166D01*
X56240172Y-52162075D01*
X56248272Y-52145371D01*
X56253593Y-52131036D01*
X56256850Y-52115786D01*
X56258760Y-52096333D01*
X56259970Y-52071231D01*
X56259857Y-52064855D01*
X56074224Y-52064855D01*
X56073500Y-52069944D01*
X56065075Y-52087206D01*
X56050185Y-52104567D01*
X56032323Y-52118541D01*
X56018471Y-52124875D01*
X55987049Y-52129684D01*
X55952175Y-52128685D01*
X55920170Y-52122330D01*
X55899831Y-52116893D01*
X55884301Y-52115423D01*
X55872087Y-52119034D01*
X55861693Y-52128841D01*
X55851627Y-52145957D01*
X55840393Y-52171495D01*
X55834498Y-52186187D01*
X55813855Y-52238356D01*
X55812453Y-52077704D01*
X55812180Y-52037549D01*
X55812081Y-52000904D01*
X55812145Y-51969082D01*
X55812367Y-51943393D01*
X55812736Y-51925151D01*
X55813245Y-51915666D01*
X55813481Y-51914623D01*
X55819130Y-51915587D01*
X55832759Y-51920226D01*
X55852711Y-51927836D01*
X55877332Y-51937713D01*
X55904966Y-51949152D01*
X55933957Y-51961450D01*
X55962650Y-51973901D01*
X55989389Y-51985803D01*
X56012518Y-51996451D01*
X56030383Y-52005140D01*
X56041328Y-52011167D01*
X56042725Y-52012127D01*
X56059692Y-52028666D01*
X56070699Y-52047195D01*
X56074224Y-52064855D01*
X56259857Y-52064855D01*
X56259128Y-52023987D01*
X56252103Y-51983745D01*
X56238085Y-51948392D01*
X56216265Y-51915813D01*
X56189562Y-51887376D01*
X56179315Y-51878180D01*
X56168261Y-51869521D01*
X56155366Y-51860885D01*
X56139597Y-51851755D01*
X56119917Y-51841616D01*
X56095294Y-51829954D01*
X56064691Y-51816251D01*
X56027075Y-51799994D01*
X55981411Y-51780666D01*
X55943500Y-51764781D01*
X55903614Y-51748067D01*
X55872563Y-51734718D01*
X55849427Y-51723994D01*
X55833287Y-51715158D01*
X55823221Y-51707470D01*
X55818310Y-51700194D01*
X55817633Y-51692590D01*
X55820270Y-51683920D01*
X55825300Y-51673446D01*
X55826565Y-51670968D01*
X55847193Y-51639273D01*
X55872308Y-51616998D01*
X55902733Y-51603634D01*
X55939289Y-51598672D01*
X55943500Y-51598618D01*
X55966082Y-51599165D01*
X55982335Y-51601589D01*
X55996476Y-51606849D01*
X56008547Y-51613419D01*
X56034886Y-51633201D01*
X56054310Y-51658252D01*
X56068012Y-51690372D01*
X56073472Y-51711387D01*
X56078775Y-51732012D01*
X56084731Y-51749335D01*
X56090180Y-51760066D01*
X56090936Y-51760961D01*
X56100547Y-51767657D01*
X56117609Y-51776612D01*
X56139526Y-51786748D01*
X56163707Y-51796990D01*
X56187557Y-51806259D01*
X56208481Y-51813481D01*
X56223887Y-51817577D01*
X56228614Y-51818117D01*
X56242375Y-51815748D01*
X56251872Y-51807772D01*
X56257716Y-51792887D01*
X56260519Y-51769787D01*
X56261000Y-51749120D01*
X56259266Y-51704484D01*
X56253535Y-51666181D01*
X56243020Y-51630454D01*
X56229350Y-51598513D01*
X56200270Y-51548680D01*
X56164027Y-51504240D01*
X56122091Y-51466617D01*
X56075929Y-51437233D01*
X56051134Y-51425839D01*
X56037270Y-51420747D01*
X56023887Y-51417254D01*
X56008511Y-51415065D01*
X55988670Y-51413887D01*
X55961889Y-51413426D01*
X55946146Y-51413374D01*
X55913045Y-51413660D01*
X55913045Y-51413660D01*
G37*
X55913045Y-51413660D02*
X55888115Y-51414743D01*
X55868961Y-51416856D01*
X55853184Y-51420230D01*
X55843261Y-51423329D01*
X55791284Y-51446811D01*
X55744318Y-51478839D01*
X55703597Y-51518244D01*
X55670359Y-51563857D01*
X55648640Y-51607309D01*
X55642352Y-51625181D01*
X55637740Y-51644559D01*
X55634325Y-51668208D01*
X55631626Y-51698890D01*
X55630922Y-51709277D01*
X55629940Y-51729709D01*
X55629066Y-51758023D01*
X55628305Y-51792887D01*
X55627662Y-51832971D01*
X55627139Y-51876943D01*
X55626741Y-51923474D01*
X55626473Y-51971230D01*
X55626338Y-52018883D01*
X55626339Y-52065100D01*
X55626482Y-52108551D01*
X55626770Y-52147904D01*
X55627207Y-52181830D01*
X55627798Y-52208995D01*
X55628545Y-52228071D01*
X55629329Y-52237062D01*
X55632027Y-52248000D01*
X55637351Y-52255980D01*
X55647696Y-52263369D01*
X55664989Y-52272305D01*
X55703781Y-52290427D01*
X55736096Y-52303875D01*
X55761125Y-52312340D01*
X55778059Y-52315517D01*
X55778999Y-52315534D01*
X55795009Y-52310787D01*
X55806546Y-52298322D01*
X55811200Y-52280801D01*
X55811209Y-52279960D01*
X55811719Y-52271706D01*
X55814980Y-52271994D01*
X55821185Y-52277884D01*
X55836208Y-52288156D01*
X55859326Y-52298103D01*
X55888061Y-52306875D01*
X55919936Y-52313622D01*
X55929772Y-52315129D01*
X55953777Y-52318289D01*
X55971667Y-52319814D01*
X55987385Y-52319612D01*
X56004877Y-52317591D01*
X56028086Y-52313659D01*
X56033298Y-52312719D01*
X56080601Y-52299325D01*
X56126306Y-52277292D01*
X56168377Y-52248100D01*
X56204781Y-52213231D01*
X56233483Y-52174166D01*
X56240172Y-52162075D01*
X56248272Y-52145371D01*
X56253593Y-52131036D01*
X56256850Y-52115786D01*
X56258760Y-52096333D01*
X56259970Y-52071231D01*
X56259857Y-52064855D01*
X56074224Y-52064855D01*
X56073500Y-52069944D01*
X56065075Y-52087206D01*
X56050185Y-52104567D01*
X56032323Y-52118541D01*
X56018471Y-52124875D01*
X55987049Y-52129684D01*
X55952175Y-52128685D01*
X55920170Y-52122330D01*
X55899831Y-52116893D01*
X55884301Y-52115423D01*
X55872087Y-52119034D01*
X55861693Y-52128841D01*
X55851627Y-52145957D01*
X55840393Y-52171495D01*
X55834498Y-52186187D01*
X55813855Y-52238356D01*
X55812453Y-52077704D01*
X55812180Y-52037549D01*
X55812081Y-52000904D01*
X55812145Y-51969082D01*
X55812367Y-51943393D01*
X55812736Y-51925151D01*
X55813245Y-51915666D01*
X55813481Y-51914623D01*
X55819130Y-51915587D01*
X55832759Y-51920226D01*
X55852711Y-51927836D01*
X55877332Y-51937713D01*
X55904966Y-51949152D01*
X55933957Y-51961450D01*
X55962650Y-51973901D01*
X55989389Y-51985803D01*
X56012518Y-51996451D01*
X56030383Y-52005140D01*
X56041328Y-52011167D01*
X56042725Y-52012127D01*
X56059692Y-52028666D01*
X56070699Y-52047195D01*
X56074224Y-52064855D01*
X56259857Y-52064855D01*
X56259128Y-52023987D01*
X56252103Y-51983745D01*
X56238085Y-51948392D01*
X56216265Y-51915813D01*
X56189562Y-51887376D01*
X56179315Y-51878180D01*
X56168261Y-51869521D01*
X56155366Y-51860885D01*
X56139597Y-51851755D01*
X56119917Y-51841616D01*
X56095294Y-51829954D01*
X56064691Y-51816251D01*
X56027075Y-51799994D01*
X55981411Y-51780666D01*
X55943500Y-51764781D01*
X55903614Y-51748067D01*
X55872563Y-51734718D01*
X55849427Y-51723994D01*
X55833287Y-51715158D01*
X55823221Y-51707470D01*
X55818310Y-51700194D01*
X55817633Y-51692590D01*
X55820270Y-51683920D01*
X55825300Y-51673446D01*
X55826565Y-51670968D01*
X55847193Y-51639273D01*
X55872308Y-51616998D01*
X55902733Y-51603634D01*
X55939289Y-51598672D01*
X55943500Y-51598618D01*
X55966082Y-51599165D01*
X55982335Y-51601589D01*
X55996476Y-51606849D01*
X56008547Y-51613419D01*
X56034886Y-51633201D01*
X56054310Y-51658252D01*
X56068012Y-51690372D01*
X56073472Y-51711387D01*
X56078775Y-51732012D01*
X56084731Y-51749335D01*
X56090180Y-51760066D01*
X56090936Y-51760961D01*
X56100547Y-51767657D01*
X56117609Y-51776612D01*
X56139526Y-51786748D01*
X56163707Y-51796990D01*
X56187557Y-51806259D01*
X56208481Y-51813481D01*
X56223887Y-51817577D01*
X56228614Y-51818117D01*
X56242375Y-51815748D01*
X56251872Y-51807772D01*
X56257716Y-51792887D01*
X56260519Y-51769787D01*
X56261000Y-51749120D01*
X56259266Y-51704484D01*
X56253535Y-51666181D01*
X56243020Y-51630454D01*
X56229350Y-51598513D01*
X56200270Y-51548680D01*
X56164027Y-51504240D01*
X56122091Y-51466617D01*
X56075929Y-51437233D01*
X56051134Y-51425839D01*
X56037270Y-51420747D01*
X56023887Y-51417254D01*
X56008511Y-51415065D01*
X55988670Y-51413887D01*
X55961889Y-51413426D01*
X55946146Y-51413374D01*
X55913045Y-51413660D01*
G36*
X54378428Y-51414664D02*
X54327672Y-51427076D01*
X54280722Y-51448486D01*
X54236169Y-51479485D01*
X54206553Y-51506315D01*
X54175252Y-51541101D01*
X54152070Y-51576453D01*
X54134968Y-51615908D01*
X54126017Y-51645927D01*
X54122258Y-51666282D01*
X54119656Y-51692024D01*
X54118234Y-51720480D01*
X54118016Y-51748977D01*
X54119025Y-51774841D01*
X54121285Y-51795399D01*
X54124590Y-51807534D01*
X54126395Y-51811085D01*
X54128559Y-51814347D01*
X54131898Y-51817725D01*
X54137233Y-51821625D01*
X54145383Y-51826454D01*
X54157164Y-51832618D01*
X54173398Y-51840523D01*
X54194901Y-51850576D01*
X54222494Y-51863183D01*
X54256994Y-51878749D01*
X54299220Y-51897682D01*
X54349992Y-51920387D01*
X54370553Y-51929577D01*
X54423164Y-51953235D01*
X54466519Y-51973052D01*
X54501121Y-51989276D01*
X54527475Y-52002154D01*
X54546086Y-52011936D01*
X54557457Y-52018868D01*
X54562093Y-52023200D01*
X54562259Y-52023876D01*
X54558747Y-52039107D01*
X54549853Y-52058299D01*
X54537551Y-52077802D01*
X54524927Y-52092876D01*
X54496171Y-52114852D01*
X54463294Y-52127162D01*
X54433883Y-52130209D01*
X54402160Y-52127382D01*
X54375500Y-52117630D01*
X54349877Y-52099451D01*
X54348689Y-52098415D01*
X54331896Y-52080837D01*
X54318927Y-52060000D01*
X54308439Y-52033298D01*
X54300843Y-52005588D01*
X54296846Y-51989690D01*
X54292641Y-51977749D01*
X54286653Y-51968396D01*
X54277302Y-51960265D01*
X54263013Y-51951987D01*
X54242208Y-51942193D01*
X54213310Y-51929517D01*
X54212977Y-51929371D01*
X54181725Y-51917102D01*
X54157929Y-51911039D01*
X54140507Y-51911133D01*
X54128377Y-51917332D01*
X54122505Y-51925187D01*
X54119647Y-51936857D01*
X54118330Y-51956415D01*
X54118408Y-51981304D01*
X54119731Y-52008964D01*
X54122153Y-52036837D01*
X54125527Y-52062363D01*
X54129705Y-52082984D01*
X54132043Y-52090638D01*
X54151493Y-52133957D01*
X54177179Y-52176038D01*
X54207437Y-52214900D01*
X54240602Y-52248565D01*
X54275012Y-52275054D01*
X54297792Y-52287737D01*
X54350218Y-52306736D01*
X54405475Y-52316140D01*
X54464643Y-52316116D01*
X54475063Y-52315197D01*
X54527882Y-52304748D01*
X54577498Y-52284775D01*
X54622973Y-52256092D01*
X54663367Y-52219513D01*
X54697741Y-52175852D01*
X54725156Y-52125924D01*
X54740503Y-52085120D01*
X54743109Y-52075774D01*
X54745203Y-52065597D01*
X54746836Y-52053379D01*
X54748059Y-52037912D01*
X54748924Y-52017987D01*
X54749482Y-51992397D01*
X54749784Y-51959932D01*
X54749882Y-51919385D01*
X54749827Y-51869547D01*
X54749818Y-51865742D01*
X54749614Y-51810958D01*
X54749479Y-51797156D01*
X54567812Y-51797156D01*
X54567009Y-51806318D01*
X54564909Y-51810069D01*
X54561279Y-51810127D01*
X54559162Y-51809435D01*
X54551663Y-51806301D01*
X54535991Y-51799454D01*
X54513614Y-51789547D01*
X54486000Y-51777232D01*
X54454618Y-51763161D01*
X54432730Y-51753307D01*
X54400002Y-51738451D01*
X54370428Y-51724837D01*
X54345400Y-51713122D01*
X54326311Y-51703962D01*
X54314554Y-51698013D01*
X54311461Y-51696142D01*
X54310076Y-51688154D01*
X54314204Y-51674909D01*
X54322444Y-51659159D01*
X54333392Y-51643658D01*
X54343764Y-51632747D01*
X54370018Y-51613381D01*
X54396927Y-51602074D01*
X54424879Y-51597268D01*
X54457406Y-51597626D01*
X54485319Y-51605905D01*
X54511680Y-51623157D01*
X54519093Y-51629640D01*
X54537055Y-51648450D01*
X54549883Y-51668264D01*
X54558475Y-51691475D01*
X54563731Y-51720475D01*
X54566459Y-51755725D01*
X54567551Y-51780864D01*
X54567812Y-51797156D01*
X54749479Y-51797156D01*
X54749168Y-51765508D01*
X54748339Y-51728144D01*
X54746986Y-51697616D01*
X54744966Y-51672678D01*
X54742139Y-51652079D01*
X54738363Y-51634571D01*
X54733496Y-51618906D01*
X54727397Y-51603835D01*
X54719924Y-51588109D01*
X54717882Y-51584042D01*
X54687153Y-51534613D01*
X54648533Y-51492230D01*
X54602083Y-51456955D01*
X54582905Y-51445708D01*
X54541869Y-51427117D01*
X54499010Y-51415774D01*
X54451231Y-51410947D01*
X54434401Y-51410659D01*
X54378428Y-51414664D01*
X54378428Y-51414664D01*
G37*
X54378428Y-51414664D02*
X54327672Y-51427076D01*
X54280722Y-51448486D01*
X54236169Y-51479485D01*
X54206553Y-51506315D01*
X54175252Y-51541101D01*
X54152070Y-51576453D01*
X54134968Y-51615908D01*
X54126017Y-51645927D01*
X54122258Y-51666282D01*
X54119656Y-51692024D01*
X54118234Y-51720480D01*
X54118016Y-51748977D01*
X54119025Y-51774841D01*
X54121285Y-51795399D01*
X54124590Y-51807534D01*
X54126395Y-51811085D01*
X54128559Y-51814347D01*
X54131898Y-51817725D01*
X54137233Y-51821625D01*
X54145383Y-51826454D01*
X54157164Y-51832618D01*
X54173398Y-51840523D01*
X54194901Y-51850576D01*
X54222494Y-51863183D01*
X54256994Y-51878749D01*
X54299220Y-51897682D01*
X54349992Y-51920387D01*
X54370553Y-51929577D01*
X54423164Y-51953235D01*
X54466519Y-51973052D01*
X54501121Y-51989276D01*
X54527475Y-52002154D01*
X54546086Y-52011936D01*
X54557457Y-52018868D01*
X54562093Y-52023200D01*
X54562259Y-52023876D01*
X54558747Y-52039107D01*
X54549853Y-52058299D01*
X54537551Y-52077802D01*
X54524927Y-52092876D01*
X54496171Y-52114852D01*
X54463294Y-52127162D01*
X54433883Y-52130209D01*
X54402160Y-52127382D01*
X54375500Y-52117630D01*
X54349877Y-52099451D01*
X54348689Y-52098415D01*
X54331896Y-52080837D01*
X54318927Y-52060000D01*
X54308439Y-52033298D01*
X54300843Y-52005588D01*
X54296846Y-51989690D01*
X54292641Y-51977749D01*
X54286653Y-51968396D01*
X54277302Y-51960265D01*
X54263013Y-51951987D01*
X54242208Y-51942193D01*
X54213310Y-51929517D01*
X54212977Y-51929371D01*
X54181725Y-51917102D01*
X54157929Y-51911039D01*
X54140507Y-51911133D01*
X54128377Y-51917332D01*
X54122505Y-51925187D01*
X54119647Y-51936857D01*
X54118330Y-51956415D01*
X54118408Y-51981304D01*
X54119731Y-52008964D01*
X54122153Y-52036837D01*
X54125527Y-52062363D01*
X54129705Y-52082984D01*
X54132043Y-52090638D01*
X54151493Y-52133957D01*
X54177179Y-52176038D01*
X54207437Y-52214900D01*
X54240602Y-52248565D01*
X54275012Y-52275054D01*
X54297792Y-52287737D01*
X54350218Y-52306736D01*
X54405475Y-52316140D01*
X54464643Y-52316116D01*
X54475063Y-52315197D01*
X54527882Y-52304748D01*
X54577498Y-52284775D01*
X54622973Y-52256092D01*
X54663367Y-52219513D01*
X54697741Y-52175852D01*
X54725156Y-52125924D01*
X54740503Y-52085120D01*
X54743109Y-52075774D01*
X54745203Y-52065597D01*
X54746836Y-52053379D01*
X54748059Y-52037912D01*
X54748924Y-52017987D01*
X54749482Y-51992397D01*
X54749784Y-51959932D01*
X54749882Y-51919385D01*
X54749827Y-51869547D01*
X54749818Y-51865742D01*
X54749614Y-51810958D01*
X54749479Y-51797156D01*
X54567812Y-51797156D01*
X54567009Y-51806318D01*
X54564909Y-51810069D01*
X54561279Y-51810127D01*
X54559162Y-51809435D01*
X54551663Y-51806301D01*
X54535991Y-51799454D01*
X54513614Y-51789547D01*
X54486000Y-51777232D01*
X54454618Y-51763161D01*
X54432730Y-51753307D01*
X54400002Y-51738451D01*
X54370428Y-51724837D01*
X54345400Y-51713122D01*
X54326311Y-51703962D01*
X54314554Y-51698013D01*
X54311461Y-51696142D01*
X54310076Y-51688154D01*
X54314204Y-51674909D01*
X54322444Y-51659159D01*
X54333392Y-51643658D01*
X54343764Y-51632747D01*
X54370018Y-51613381D01*
X54396927Y-51602074D01*
X54424879Y-51597268D01*
X54457406Y-51597626D01*
X54485319Y-51605905D01*
X54511680Y-51623157D01*
X54519093Y-51629640D01*
X54537055Y-51648450D01*
X54549883Y-51668264D01*
X54558475Y-51691475D01*
X54563731Y-51720475D01*
X54566459Y-51755725D01*
X54567551Y-51780864D01*
X54567812Y-51797156D01*
X54749479Y-51797156D01*
X54749168Y-51765508D01*
X54748339Y-51728144D01*
X54746986Y-51697616D01*
X54744966Y-51672678D01*
X54742139Y-51652079D01*
X54738363Y-51634571D01*
X54733496Y-51618906D01*
X54727397Y-51603835D01*
X54719924Y-51588109D01*
X54717882Y-51584042D01*
X54687153Y-51534613D01*
X54648533Y-51492230D01*
X54602083Y-51456955D01*
X54582905Y-51445708D01*
X54541869Y-51427117D01*
X54499010Y-51415774D01*
X54451231Y-51410947D01*
X54434401Y-51410659D01*
X54378428Y-51414664D01*
G36*
X59874368Y-51117934D02*
X59864625Y-51124909D01*
X59861537Y-51128463D01*
X59859115Y-51133049D01*
X59857279Y-51139895D01*
X59855948Y-51150229D01*
X59855042Y-51165280D01*
X59854479Y-51186276D01*
X59854178Y-51214447D01*
X59854060Y-51251022D01*
X59854042Y-51285904D01*
X59854042Y-51436316D01*
X59823615Y-51425169D01*
X59792470Y-51417024D01*
X59754906Y-51412218D01*
X59714573Y-51410826D01*
X59675121Y-51412923D01*
X59640197Y-51418587D01*
X59630595Y-51421159D01*
X59576753Y-51442760D01*
X59528422Y-51473098D01*
X59486384Y-51511440D01*
X59451424Y-51557054D01*
X59424324Y-51609208D01*
X59421252Y-51616861D01*
X59417525Y-51626834D01*
X59414516Y-51636364D01*
X59412111Y-51646762D01*
X59410193Y-51659341D01*
X59408648Y-51675415D01*
X59407360Y-51696297D01*
X59406215Y-51723300D01*
X59405096Y-51757736D01*
X59403890Y-51800918D01*
X59403361Y-51820763D01*
X59402293Y-51868173D01*
X59401520Y-51917481D01*
X59401033Y-51967472D01*
X59400822Y-52016927D01*
X59400877Y-52064629D01*
X59401191Y-52109361D01*
X59401752Y-52149905D01*
X59402551Y-52185046D01*
X59403579Y-52213564D01*
X59404826Y-52234244D01*
X59406284Y-52245867D01*
X59406685Y-52247228D01*
X59414167Y-52255649D01*
X59429438Y-52266089D01*
X59450153Y-52277502D01*
X59473972Y-52288847D01*
X59498549Y-52299079D01*
X59521544Y-52307156D01*
X59540612Y-52312033D01*
X59553412Y-52312668D01*
X59553556Y-52312638D01*
X59559646Y-52311243D01*
X59564830Y-52309406D01*
X59569191Y-52306315D01*
X59572811Y-52301159D01*
X59575773Y-52293128D01*
X59578161Y-52281409D01*
X59580056Y-52265193D01*
X59581542Y-52243668D01*
X59582701Y-52216024D01*
X59583616Y-52181449D01*
X59584371Y-52139132D01*
X59585047Y-52088262D01*
X59585729Y-52028029D01*
X59586099Y-51993931D01*
X59586797Y-51930809D01*
X59587433Y-51877371D01*
X59588048Y-51832718D01*
X59588684Y-51795952D01*
X59589381Y-51766173D01*
X59590181Y-51742483D01*
X59591124Y-51723983D01*
X59592252Y-51709774D01*
X59593607Y-51698958D01*
X59595228Y-51690635D01*
X59597158Y-51683907D01*
X59599437Y-51677875D01*
X59600690Y-51674909D01*
X59619104Y-51644233D01*
X59643764Y-51620869D01*
X59672968Y-51605144D01*
X59705012Y-51597382D01*
X59738192Y-51597911D01*
X59770805Y-51607056D01*
X59801148Y-51625145D01*
X59811775Y-51634477D01*
X59819667Y-51642198D01*
X59826349Y-51649388D01*
X59831931Y-51656962D01*
X59836524Y-51665835D01*
X59840239Y-51676925D01*
X59843187Y-51691145D01*
X59845479Y-51709413D01*
X59847226Y-51732644D01*
X59848539Y-51761754D01*
X59849530Y-51797658D01*
X59850308Y-51841273D01*
X59850985Y-51893514D01*
X59851673Y-51955297D01*
X59851773Y-51964491D01*
X59852394Y-52017207D01*
X59853063Y-52066965D01*
X59853762Y-52112714D01*
X59854469Y-52153400D01*
X59855166Y-52187970D01*
X59855831Y-52215373D01*
X59856446Y-52234555D01*
X59856990Y-52244464D01*
X59857110Y-52245355D01*
X59860391Y-52252499D01*
X59868120Y-52259848D01*
X59881542Y-52268113D01*
X59901899Y-52278010D01*
X59930437Y-52290252D01*
X59947424Y-52297178D01*
X59971194Y-52306595D01*
X59987355Y-52312286D01*
X59998051Y-52314630D01*
X60005429Y-52314004D01*
X60011636Y-52310785D01*
X60014188Y-52308919D01*
X60022443Y-52299139D01*
X60028429Y-52287408D01*
X60029473Y-52279378D01*
X60030406Y-52261180D01*
X60031230Y-52232768D01*
X60031945Y-52194098D01*
X60032550Y-52145123D01*
X60033047Y-52085798D01*
X60033436Y-52016079D01*
X60033717Y-51935919D01*
X60033891Y-51845273D01*
X60033958Y-51744095D01*
X60033959Y-51729937D01*
X60033959Y-51187363D01*
X60018920Y-51173334D01*
X60007798Y-51165520D01*
X59989804Y-51155573D01*
X59967546Y-51144652D01*
X59943629Y-51133917D01*
X59920662Y-51124528D01*
X59901250Y-51117644D01*
X59888000Y-51114427D01*
X59886304Y-51114325D01*
X59874368Y-51117934D01*
X59874368Y-51117934D01*
G37*
X59874368Y-51117934D02*
X59864625Y-51124909D01*
X59861537Y-51128463D01*
X59859115Y-51133049D01*
X59857279Y-51139895D01*
X59855948Y-51150229D01*
X59855042Y-51165280D01*
X59854479Y-51186276D01*
X59854178Y-51214447D01*
X59854060Y-51251022D01*
X59854042Y-51285904D01*
X59854042Y-51436316D01*
X59823615Y-51425169D01*
X59792470Y-51417024D01*
X59754906Y-51412218D01*
X59714573Y-51410826D01*
X59675121Y-51412923D01*
X59640197Y-51418587D01*
X59630595Y-51421159D01*
X59576753Y-51442760D01*
X59528422Y-51473098D01*
X59486384Y-51511440D01*
X59451424Y-51557054D01*
X59424324Y-51609208D01*
X59421252Y-51616861D01*
X59417525Y-51626834D01*
X59414516Y-51636364D01*
X59412111Y-51646762D01*
X59410193Y-51659341D01*
X59408648Y-51675415D01*
X59407360Y-51696297D01*
X59406215Y-51723300D01*
X59405096Y-51757736D01*
X59403890Y-51800918D01*
X59403361Y-51820763D01*
X59402293Y-51868173D01*
X59401520Y-51917481D01*
X59401033Y-51967472D01*
X59400822Y-52016927D01*
X59400877Y-52064629D01*
X59401191Y-52109361D01*
X59401752Y-52149905D01*
X59402551Y-52185046D01*
X59403579Y-52213564D01*
X59404826Y-52234244D01*
X59406284Y-52245867D01*
X59406685Y-52247228D01*
X59414167Y-52255649D01*
X59429438Y-52266089D01*
X59450153Y-52277502D01*
X59473972Y-52288847D01*
X59498549Y-52299079D01*
X59521544Y-52307156D01*
X59540612Y-52312033D01*
X59553412Y-52312668D01*
X59553556Y-52312638D01*
X59559646Y-52311243D01*
X59564830Y-52309406D01*
X59569191Y-52306315D01*
X59572811Y-52301159D01*
X59575773Y-52293128D01*
X59578161Y-52281409D01*
X59580056Y-52265193D01*
X59581542Y-52243668D01*
X59582701Y-52216024D01*
X59583616Y-52181449D01*
X59584371Y-52139132D01*
X59585047Y-52088262D01*
X59585729Y-52028029D01*
X59586099Y-51993931D01*
X59586797Y-51930809D01*
X59587433Y-51877371D01*
X59588048Y-51832718D01*
X59588684Y-51795952D01*
X59589381Y-51766173D01*
X59590181Y-51742483D01*
X59591124Y-51723983D01*
X59592252Y-51709774D01*
X59593607Y-51698958D01*
X59595228Y-51690635D01*
X59597158Y-51683907D01*
X59599437Y-51677875D01*
X59600690Y-51674909D01*
X59619104Y-51644233D01*
X59643764Y-51620869D01*
X59672968Y-51605144D01*
X59705012Y-51597382D01*
X59738192Y-51597911D01*
X59770805Y-51607056D01*
X59801148Y-51625145D01*
X59811775Y-51634477D01*
X59819667Y-51642198D01*
X59826349Y-51649388D01*
X59831931Y-51656962D01*
X59836524Y-51665835D01*
X59840239Y-51676925D01*
X59843187Y-51691145D01*
X59845479Y-51709413D01*
X59847226Y-51732644D01*
X59848539Y-51761754D01*
X59849530Y-51797658D01*
X59850308Y-51841273D01*
X59850985Y-51893514D01*
X59851673Y-51955297D01*
X59851773Y-51964491D01*
X59852394Y-52017207D01*
X59853063Y-52066965D01*
X59853762Y-52112714D01*
X59854469Y-52153400D01*
X59855166Y-52187970D01*
X59855831Y-52215373D01*
X59856446Y-52234555D01*
X59856990Y-52244464D01*
X59857110Y-52245355D01*
X59860391Y-52252499D01*
X59868120Y-52259848D01*
X59881542Y-52268113D01*
X59901899Y-52278010D01*
X59930437Y-52290252D01*
X59947424Y-52297178D01*
X59971194Y-52306595D01*
X59987355Y-52312286D01*
X59998051Y-52314630D01*
X60005429Y-52314004D01*
X60011636Y-52310785D01*
X60014188Y-52308919D01*
X60022443Y-52299139D01*
X60028429Y-52287408D01*
X60029473Y-52279378D01*
X60030406Y-52261180D01*
X60031230Y-52232768D01*
X60031945Y-52194098D01*
X60032550Y-52145123D01*
X60033047Y-52085798D01*
X60033436Y-52016079D01*
X60033717Y-51935919D01*
X60033891Y-51845273D01*
X60033958Y-51744095D01*
X60033959Y-51729937D01*
X60033959Y-51187363D01*
X60018920Y-51173334D01*
X60007798Y-51165520D01*
X59989804Y-51155573D01*
X59967546Y-51144652D01*
X59943629Y-51133917D01*
X59920662Y-51124528D01*
X59901250Y-51117644D01*
X59888000Y-51114427D01*
X59886304Y-51114325D01*
X59874368Y-51117934D01*
G36*
X58178333Y-51412790D02*
X58141806Y-51417248D01*
X58110636Y-51424062D01*
X58102645Y-51426622D01*
X58053490Y-51449205D01*
X58009230Y-51479766D01*
X57970832Y-51517028D01*
X57939260Y-51559712D01*
X57915481Y-51606537D01*
X57900460Y-51656227D01*
X57895252Y-51701326D01*
X57895139Y-51719790D01*
X57896871Y-51733710D01*
X57901846Y-51744597D01*
X57911459Y-51753962D01*
X57927105Y-51763315D01*
X57950183Y-51774166D01*
X57970953Y-51783224D01*
X58004435Y-51796904D01*
X58029867Y-51804891D01*
X58048420Y-51806687D01*
X58061262Y-51801795D01*
X58069565Y-51789718D01*
X58074498Y-51769957D01*
X58077232Y-51742017D01*
X58077476Y-51737949D01*
X58079651Y-51711998D01*
X58083319Y-51692621D01*
X58089446Y-51675821D01*
X58095267Y-51664273D01*
X58117183Y-51633866D01*
X58144730Y-51612208D01*
X58177107Y-51599734D01*
X58213510Y-51596880D01*
X58218831Y-51597268D01*
X58255840Y-51605435D01*
X58287805Y-51622319D01*
X58313517Y-51647137D01*
X58326042Y-51666647D01*
X58328563Y-51671735D01*
X58330696Y-51677159D01*
X58332483Y-51683831D01*
X58333968Y-51692661D01*
X58335194Y-51704562D01*
X58336205Y-51720445D01*
X58337044Y-51741220D01*
X58337756Y-51767800D01*
X58338384Y-51801095D01*
X58338970Y-51842017D01*
X58339559Y-51891477D01*
X58340195Y-51950386D01*
X58340362Y-51966284D01*
X58341000Y-52019657D01*
X58341755Y-52069915D01*
X58342600Y-52116047D01*
X58343510Y-52157043D01*
X58344459Y-52191895D01*
X58345421Y-52219592D01*
X58346370Y-52239125D01*
X58347281Y-52249485D01*
X58347626Y-52250829D01*
X58355536Y-52257573D01*
X58371046Y-52266821D01*
X58391794Y-52277511D01*
X58415416Y-52288578D01*
X58439549Y-52298960D01*
X58461830Y-52307592D01*
X58479896Y-52313411D01*
X58491027Y-52315365D01*
X58503930Y-52312080D01*
X58512605Y-52307202D01*
X58514843Y-52305249D01*
X58516748Y-52302490D01*
X58518349Y-52298098D01*
X58519679Y-52291248D01*
X58520769Y-52281114D01*
X58521653Y-52266868D01*
X58522360Y-52247686D01*
X58522924Y-52222739D01*
X58523375Y-52191203D01*
X58523746Y-52152251D01*
X58524068Y-52105056D01*
X58524373Y-52048793D01*
X58524638Y-51994397D01*
X58524867Y-51925042D01*
X58524871Y-51862383D01*
X58524655Y-51806990D01*
X58524226Y-51759431D01*
X58523591Y-51720274D01*
X58522756Y-51690088D01*
X58521729Y-51669441D01*
X58520729Y-51659925D01*
X58507213Y-51613362D01*
X58484535Y-51568298D01*
X58454115Y-51526185D01*
X58417372Y-51488472D01*
X58375727Y-51456610D01*
X58330601Y-51432049D01*
X58283414Y-51416240D01*
X58281707Y-51415855D01*
X58252118Y-51411863D01*
X58216381Y-51410918D01*
X58178333Y-51412790D01*
X58178333Y-51412790D01*
G37*
X58178333Y-51412790D02*
X58141806Y-51417248D01*
X58110636Y-51424062D01*
X58102645Y-51426622D01*
X58053490Y-51449205D01*
X58009230Y-51479766D01*
X57970832Y-51517028D01*
X57939260Y-51559712D01*
X57915481Y-51606537D01*
X57900460Y-51656227D01*
X57895252Y-51701326D01*
X57895139Y-51719790D01*
X57896871Y-51733710D01*
X57901846Y-51744597D01*
X57911459Y-51753962D01*
X57927105Y-51763315D01*
X57950183Y-51774166D01*
X57970953Y-51783224D01*
X58004435Y-51796904D01*
X58029867Y-51804891D01*
X58048420Y-51806687D01*
X58061262Y-51801795D01*
X58069565Y-51789718D01*
X58074498Y-51769957D01*
X58077232Y-51742017D01*
X58077476Y-51737949D01*
X58079651Y-51711998D01*
X58083319Y-51692621D01*
X58089446Y-51675821D01*
X58095267Y-51664273D01*
X58117183Y-51633866D01*
X58144730Y-51612208D01*
X58177107Y-51599734D01*
X58213510Y-51596880D01*
X58218831Y-51597268D01*
X58255840Y-51605435D01*
X58287805Y-51622319D01*
X58313517Y-51647137D01*
X58326042Y-51666647D01*
X58328563Y-51671735D01*
X58330696Y-51677159D01*
X58332483Y-51683831D01*
X58333968Y-51692661D01*
X58335194Y-51704562D01*
X58336205Y-51720445D01*
X58337044Y-51741220D01*
X58337756Y-51767800D01*
X58338384Y-51801095D01*
X58338970Y-51842017D01*
X58339559Y-51891477D01*
X58340195Y-51950386D01*
X58340362Y-51966284D01*
X58341000Y-52019657D01*
X58341755Y-52069915D01*
X58342600Y-52116047D01*
X58343510Y-52157043D01*
X58344459Y-52191895D01*
X58345421Y-52219592D01*
X58346370Y-52239125D01*
X58347281Y-52249485D01*
X58347626Y-52250829D01*
X58355536Y-52257573D01*
X58371046Y-52266821D01*
X58391794Y-52277511D01*
X58415416Y-52288578D01*
X58439549Y-52298960D01*
X58461830Y-52307592D01*
X58479896Y-52313411D01*
X58491027Y-52315365D01*
X58503930Y-52312080D01*
X58512605Y-52307202D01*
X58514843Y-52305249D01*
X58516748Y-52302490D01*
X58518349Y-52298098D01*
X58519679Y-52291248D01*
X58520769Y-52281114D01*
X58521653Y-52266868D01*
X58522360Y-52247686D01*
X58522924Y-52222739D01*
X58523375Y-52191203D01*
X58523746Y-52152251D01*
X58524068Y-52105056D01*
X58524373Y-52048793D01*
X58524638Y-51994397D01*
X58524867Y-51925042D01*
X58524871Y-51862383D01*
X58524655Y-51806990D01*
X58524226Y-51759431D01*
X58523591Y-51720274D01*
X58522756Y-51690088D01*
X58521729Y-51669441D01*
X58520729Y-51659925D01*
X58507213Y-51613362D01*
X58484535Y-51568298D01*
X58454115Y-51526185D01*
X58417372Y-51488472D01*
X58375727Y-51456610D01*
X58330601Y-51432049D01*
X58283414Y-51416240D01*
X58281707Y-51415855D01*
X58252118Y-51411863D01*
X58216381Y-51410918D01*
X58178333Y-51412790D01*
G36*
X55144687Y-51412605D02*
X55106084Y-51419036D01*
X55069823Y-51430836D01*
X55037448Y-51446040D01*
X54996574Y-51472926D01*
X54959583Y-51507738D01*
X54927754Y-51548533D01*
X54902367Y-51593367D01*
X54884702Y-51640296D01*
X54876040Y-51687378D01*
X54875742Y-51691607D01*
X54875233Y-51714507D01*
X54876504Y-51732643D01*
X54879040Y-51742472D01*
X54886137Y-51748882D01*
X54900826Y-51757939D01*
X54920791Y-51768565D01*
X54943718Y-51779684D01*
X54967292Y-51790218D01*
X54989198Y-51799089D01*
X55007121Y-51805220D01*
X55018747Y-51807533D01*
X55018819Y-51807534D01*
X55030392Y-51806340D01*
X55039019Y-51801770D01*
X55045398Y-51792341D01*
X55050229Y-51776567D01*
X55054212Y-51752966D01*
X55057458Y-51725608D01*
X55063116Y-51692709D01*
X55073087Y-51666747D01*
X55088948Y-51644436D01*
X55103143Y-51630353D01*
X55133887Y-51609091D01*
X55166898Y-51597756D01*
X55200907Y-51596299D01*
X55234641Y-51604673D01*
X55266831Y-51622829D01*
X55283595Y-51637142D01*
X55291009Y-51644592D01*
X55297305Y-51651963D01*
X55302585Y-51660153D01*
X55306950Y-51670064D01*
X55310503Y-51682596D01*
X55313346Y-51698649D01*
X55315581Y-51719124D01*
X55317311Y-51744920D01*
X55318637Y-51776939D01*
X55319661Y-51816081D01*
X55320485Y-51863246D01*
X55321213Y-51919334D01*
X55321826Y-51974221D01*
X55322446Y-52026396D01*
X55323134Y-52075530D01*
X55323869Y-52120572D01*
X55324628Y-52160472D01*
X55325390Y-52194181D01*
X55326132Y-52220649D01*
X55326832Y-52238827D01*
X55327469Y-52247664D01*
X55327577Y-52248188D01*
X55334114Y-52255758D01*
X55348501Y-52265589D01*
X55368520Y-52276672D01*
X55391955Y-52287997D01*
X55416590Y-52298555D01*
X55440209Y-52307336D01*
X55460595Y-52313332D01*
X55475452Y-52315534D01*
X55489696Y-52312913D01*
X55499675Y-52306755D01*
X55501320Y-52299512D01*
X55502714Y-52282814D01*
X55503865Y-52257788D01*
X55504780Y-52225558D01*
X55505464Y-52187252D01*
X55505925Y-52143994D01*
X55506168Y-52096911D01*
X55506201Y-52047128D01*
X55506029Y-51995770D01*
X55505659Y-51943965D01*
X55505098Y-51892837D01*
X55504352Y-51843512D01*
X55503427Y-51797117D01*
X55502331Y-51754776D01*
X55501069Y-51717616D01*
X55499647Y-51686762D01*
X55498074Y-51663341D01*
X55496354Y-51648477D01*
X55495880Y-51646138D01*
X55481753Y-51602506D01*
X55460594Y-51562440D01*
X55431083Y-51523693D01*
X55411696Y-51503018D01*
X55372405Y-51467679D01*
X55333254Y-51441706D01*
X55292005Y-51424168D01*
X55246422Y-51414135D01*
X55194265Y-51410679D01*
X55189438Y-51410659D01*
X55144687Y-51412605D01*
X55144687Y-51412605D01*
G37*
X55144687Y-51412605D02*
X55106084Y-51419036D01*
X55069823Y-51430836D01*
X55037448Y-51446040D01*
X54996574Y-51472926D01*
X54959583Y-51507738D01*
X54927754Y-51548533D01*
X54902367Y-51593367D01*
X54884702Y-51640296D01*
X54876040Y-51687378D01*
X54875742Y-51691607D01*
X54875233Y-51714507D01*
X54876504Y-51732643D01*
X54879040Y-51742472D01*
X54886137Y-51748882D01*
X54900826Y-51757939D01*
X54920791Y-51768565D01*
X54943718Y-51779684D01*
X54967292Y-51790218D01*
X54989198Y-51799089D01*
X55007121Y-51805220D01*
X55018747Y-51807533D01*
X55018819Y-51807534D01*
X55030392Y-51806340D01*
X55039019Y-51801770D01*
X55045398Y-51792341D01*
X55050229Y-51776567D01*
X55054212Y-51752966D01*
X55057458Y-51725608D01*
X55063116Y-51692709D01*
X55073087Y-51666747D01*
X55088948Y-51644436D01*
X55103143Y-51630353D01*
X55133887Y-51609091D01*
X55166898Y-51597756D01*
X55200907Y-51596299D01*
X55234641Y-51604673D01*
X55266831Y-51622829D01*
X55283595Y-51637142D01*
X55291009Y-51644592D01*
X55297305Y-51651963D01*
X55302585Y-51660153D01*
X55306950Y-51670064D01*
X55310503Y-51682596D01*
X55313346Y-51698649D01*
X55315581Y-51719124D01*
X55317311Y-51744920D01*
X55318637Y-51776939D01*
X55319661Y-51816081D01*
X55320485Y-51863246D01*
X55321213Y-51919334D01*
X55321826Y-51974221D01*
X55322446Y-52026396D01*
X55323134Y-52075530D01*
X55323869Y-52120572D01*
X55324628Y-52160472D01*
X55325390Y-52194181D01*
X55326132Y-52220649D01*
X55326832Y-52238827D01*
X55327469Y-52247664D01*
X55327577Y-52248188D01*
X55334114Y-52255758D01*
X55348501Y-52265589D01*
X55368520Y-52276672D01*
X55391955Y-52287997D01*
X55416590Y-52298555D01*
X55440209Y-52307336D01*
X55460595Y-52313332D01*
X55475452Y-52315534D01*
X55489696Y-52312913D01*
X55499675Y-52306755D01*
X55501320Y-52299512D01*
X55502714Y-52282814D01*
X55503865Y-52257788D01*
X55504780Y-52225558D01*
X55505464Y-52187252D01*
X55505925Y-52143994D01*
X55506168Y-52096911D01*
X55506201Y-52047128D01*
X55506029Y-51995770D01*
X55505659Y-51943965D01*
X55505098Y-51892837D01*
X55504352Y-51843512D01*
X55503427Y-51797117D01*
X55502331Y-51754776D01*
X55501069Y-51717616D01*
X55499647Y-51686762D01*
X55498074Y-51663341D01*
X55496354Y-51648477D01*
X55495880Y-51646138D01*
X55481753Y-51602506D01*
X55460594Y-51562440D01*
X55431083Y-51523693D01*
X55411696Y-51503018D01*
X55372405Y-51467679D01*
X55333254Y-51441706D01*
X55292005Y-51424168D01*
X55246422Y-51414135D01*
X55194265Y-51410679D01*
X55189438Y-51410659D01*
X55144687Y-51412605D01*
G36*
X59224334Y-44809456D02*
X59204053Y-44809480D01*
X59174994Y-44809498D01*
X59138961Y-44809509D01*
X59097760Y-44809514D01*
X59053196Y-44809512D01*
X59007073Y-44809502D01*
X58980917Y-44809493D01*
X58905608Y-44809466D01*
X58840112Y-44809454D01*
X58783659Y-44809475D01*
X58735479Y-44809544D01*
X58694803Y-44809677D01*
X58660858Y-44809890D01*
X58632877Y-44810199D01*
X58610088Y-44810620D01*
X58591721Y-44811169D01*
X58577006Y-44811862D01*
X58565174Y-44812715D01*
X58555454Y-44813743D01*
X58547076Y-44814963D01*
X58539269Y-44816391D01*
X58531264Y-44818043D01*
X58527263Y-44818890D01*
X58502194Y-44824837D01*
X58476767Y-44831912D01*
X58456113Y-44838677D01*
X58454509Y-44839280D01*
X58439058Y-44845526D01*
X58429551Y-44851481D01*
X58423463Y-44860091D01*
X58418268Y-44874299D01*
X58414913Y-44885443D01*
X58404762Y-44920340D01*
X58395399Y-44954244D01*
X58386545Y-44988439D01*
X58377920Y-45024208D01*
X58369246Y-45062835D01*
X58360241Y-45105602D01*
X58350627Y-45153794D01*
X58340124Y-45208694D01*
X58328453Y-45271585D01*
X58316553Y-45336998D01*
X58307861Y-45384678D01*
X58299005Y-45432470D01*
X58290335Y-45478538D01*
X58282202Y-45521047D01*
X58274956Y-45558161D01*
X58268948Y-45588044D01*
X58265513Y-45604380D01*
X58249155Y-45679790D01*
X58214668Y-45701570D01*
X58189592Y-45716931D01*
X58164015Y-45731519D01*
X58136910Y-45745774D01*
X58107247Y-45760139D01*
X58073999Y-45775055D01*
X58036138Y-45790964D01*
X57992635Y-45808307D01*
X57942464Y-45827526D01*
X57884595Y-45849062D01*
X57818000Y-45873357D01*
X57797243Y-45880861D01*
X57663965Y-45928964D01*
X57625704Y-45909696D01*
X57600150Y-45896250D01*
X57571877Y-45880196D01*
X57539805Y-45860860D01*
X57502852Y-45837569D01*
X57459938Y-45809650D01*
X57409983Y-45776430D01*
X57388125Y-45761735D01*
X57357395Y-45741192D01*
X57328189Y-45721982D01*
X57302111Y-45705136D01*
X57280764Y-45691684D01*
X57265752Y-45682657D01*
X57261125Y-45680126D01*
X57243651Y-45670461D01*
X57224532Y-45658119D01*
X57202398Y-45642088D01*
X57175881Y-45621353D01*
X57143610Y-45594902D01*
X57126308Y-45580412D01*
X57082421Y-45544613D01*
X57044815Y-45516456D01*
X57012896Y-45495536D01*
X56986070Y-45481449D01*
X56973868Y-45476667D01*
X56948627Y-45470787D01*
X56921385Y-45468642D01*
X56896249Y-45470305D01*
X56879148Y-45474970D01*
X56871109Y-45480622D01*
X56856471Y-45493034D01*
X56836048Y-45511408D01*
X56810650Y-45534947D01*
X56781087Y-45562854D01*
X56748173Y-45594332D01*
X56712718Y-45628582D01*
X56675533Y-45664808D01*
X56637431Y-45702213D01*
X56599221Y-45739999D01*
X56561716Y-45777368D01*
X56525728Y-45813524D01*
X56492066Y-45847668D01*
X56461544Y-45879004D01*
X56434972Y-45906735D01*
X56413161Y-45930062D01*
X56396923Y-45948188D01*
X56393418Y-45952304D01*
X56373214Y-45977077D01*
X56353115Y-46002888D01*
X56334222Y-46028193D01*
X56317638Y-46051449D01*
X56304464Y-46071112D01*
X56295801Y-46085637D01*
X56292750Y-46093405D01*
X56295699Y-46101792D01*
X56304299Y-46118297D01*
X56318181Y-46142331D01*
X56336978Y-46173307D01*
X56360320Y-46210639D01*
X56387838Y-46253738D01*
X56419165Y-46302017D01*
X56453930Y-46354889D01*
X56491766Y-46411767D01*
X56504785Y-46431200D01*
X56532565Y-46472626D01*
X56560055Y-46513681D01*
X56586337Y-46552986D01*
X56610490Y-46589166D01*
X56631596Y-46620842D01*
X56648735Y-46646637D01*
X56660987Y-46665175D01*
X56661976Y-46666679D01*
X56677638Y-46690363D01*
X56692481Y-46712511D01*
X56704886Y-46730727D01*
X56713234Y-46742613D01*
X56713573Y-46743076D01*
X56729455Y-46772431D01*
X56738835Y-46806572D01*
X56740624Y-46841192D01*
X56740000Y-46847597D01*
X56736498Y-46868569D01*
X56730822Y-46890386D01*
X56722272Y-46915007D01*
X56710145Y-46944391D01*
X56693740Y-46980498D01*
X56688267Y-46992117D01*
X56675720Y-47019816D01*
X56661231Y-47053736D01*
X56646364Y-47090114D01*
X56632679Y-47125184D01*
X56628998Y-47134992D01*
X56603535Y-47200346D01*
X56579075Y-47256050D01*
X56555090Y-47302926D01*
X56531051Y-47341797D01*
X56506428Y-47373484D01*
X56480693Y-47398809D01*
X56453317Y-47418594D01*
X56442514Y-47424756D01*
X56423437Y-47432853D01*
X56394970Y-47442041D01*
X56358218Y-47452069D01*
X56314287Y-47462684D01*
X56264284Y-47473635D01*
X56209316Y-47484672D01*
X56150489Y-47495542D01*
X56088909Y-47505994D01*
X56075792Y-47508102D01*
X56001547Y-47520279D01*
X55936710Y-47531731D01*
X55880156Y-47542721D01*
X55830756Y-47553512D01*
X55787383Y-47564369D01*
X55748909Y-47575555D01*
X55714207Y-47587333D01*
X55682149Y-47599966D01*
X55681563Y-47600214D01*
X55644521Y-47615909D01*
X55642869Y-47908586D01*
X55642613Y-47969104D01*
X55642509Y-48031122D01*
X55642550Y-48092950D01*
X55642728Y-48152902D01*
X55643036Y-48209288D01*
X55643467Y-48260421D01*
X55644012Y-48304611D01*
X55644666Y-48340172D01*
X55644777Y-48344849D01*
X55648338Y-48488434D01*
X55712576Y-48507379D01*
X55751145Y-48518463D01*
X55788868Y-48528637D01*
X55827192Y-48538212D01*
X55867566Y-48547497D01*
X55911441Y-48556800D01*
X55960265Y-48566432D01*
X56015487Y-48576703D01*
X56078556Y-48587921D01*
X56136646Y-48597959D01*
X56199842Y-48608915D01*
X56253821Y-48618600D01*
X56299843Y-48627258D01*
X56339166Y-48635132D01*
X56373048Y-48642465D01*
X56401230Y-48649125D01*
X56431681Y-48656583D01*
X56453682Y-48662224D01*
X56468972Y-48667105D01*
X56479285Y-48672284D01*
X56486358Y-48678819D01*
X56491928Y-48687769D01*
X56497730Y-48700190D01*
X56502556Y-48710859D01*
X56520448Y-48751139D01*
X56540864Y-48799698D01*
X56563090Y-48854737D01*
X56586413Y-48914460D01*
X56610120Y-48977070D01*
X56633496Y-49040767D01*
X56633571Y-49040973D01*
X56646805Y-49077111D01*
X56659842Y-49111744D01*
X56671961Y-49143034D01*
X56682444Y-49169142D01*
X56690571Y-49188228D01*
X56694071Y-49195650D01*
X56706965Y-49226371D01*
X56713733Y-49257029D01*
X56714113Y-49288706D01*
X56707842Y-49322482D01*
X56694661Y-49359437D01*
X56674306Y-49400652D01*
X56646518Y-49447205D01*
X56625431Y-49479238D01*
X56606530Y-49507545D01*
X56586860Y-49537672D01*
X56568578Y-49566281D01*
X56553837Y-49590029D01*
X56552062Y-49592971D01*
X56537077Y-49617438D01*
X56521869Y-49641120D01*
X56505149Y-49665891D01*
X56485627Y-49693623D01*
X56462015Y-49726190D01*
X56436987Y-49760120D01*
X56392568Y-49822621D01*
X56356375Y-49879218D01*
X56328470Y-49929797D01*
X56308917Y-49974244D01*
X56298807Y-50007583D01*
X56293744Y-50030119D01*
X56360133Y-50105232D01*
X56453736Y-50208949D01*
X56543568Y-50304043D01*
X56629451Y-50390339D01*
X56711209Y-50467667D01*
X56788662Y-50535851D01*
X56861635Y-50594721D01*
X56865640Y-50597780D01*
X56906536Y-50628923D01*
X56934334Y-50617370D01*
X56959923Y-50605438D01*
X56992422Y-50588227D01*
X57030194Y-50566700D01*
X57071603Y-50541821D01*
X57115013Y-50514553D01*
X57158787Y-50485858D01*
X57165875Y-50481091D01*
X57231038Y-50437033D01*
X57287837Y-50398474D01*
X57336743Y-50365086D01*
X57378226Y-50336538D01*
X57412757Y-50312503D01*
X57440805Y-50292651D01*
X57462840Y-50276652D01*
X57479334Y-50264178D01*
X57490756Y-50254900D01*
X57496269Y-50249849D01*
X57525690Y-50226602D01*
X57557934Y-50213338D01*
X57589703Y-50209566D01*
X57608360Y-50210538D01*
X57627773Y-50213988D01*
X57649616Y-50220501D01*
X57675563Y-50230659D01*
X57707288Y-50245045D01*
X57746063Y-50264042D01*
X57787756Y-50284323D01*
X57822118Y-50299509D01*
X57850765Y-50310155D01*
X57875315Y-50316817D01*
X57897386Y-50320050D01*
X57910765Y-50320575D01*
X57941614Y-50320575D01*
X57972163Y-50268981D01*
X57991658Y-50235128D01*
X58010610Y-50200165D01*
X58029517Y-50162987D01*
X58048880Y-50122486D01*
X58069197Y-50077559D01*
X58090968Y-50027099D01*
X58114693Y-49970000D01*
X58140871Y-49905157D01*
X58170002Y-49831465D01*
X58171184Y-49828450D01*
X58187466Y-49787191D01*
X58204207Y-49745285D01*
X58220546Y-49704850D01*
X58235624Y-49668003D01*
X58248579Y-49636861D01*
X58258290Y-49614138D01*
X58271251Y-49583944D01*
X58284512Y-49552109D01*
X58296546Y-49522355D01*
X58305826Y-49498403D01*
X58306080Y-49497721D01*
X58316867Y-49469206D01*
X58327703Y-49441739D01*
X58339459Y-49413257D01*
X58353006Y-49381699D01*
X58369216Y-49345001D01*
X58388961Y-49301101D01*
X58392180Y-49293992D01*
X58414889Y-49243532D01*
X58433710Y-49200874D01*
X58449351Y-49164286D01*
X58462521Y-49132039D01*
X58473928Y-49102400D01*
X58484281Y-49073640D01*
X58493269Y-49047122D01*
X58500933Y-49022406D01*
X58508583Y-48995066D01*
X58515773Y-48967046D01*
X58522062Y-48940289D01*
X58527003Y-48916738D01*
X58530155Y-48898338D01*
X58531073Y-48887032D01*
X58530404Y-48884489D01*
X58525433Y-48881189D01*
X58513481Y-48873414D01*
X58496468Y-48862411D01*
X58480855Y-48852346D01*
X58399179Y-48794583D01*
X58323465Y-48730588D01*
X58254335Y-48661206D01*
X58192413Y-48587284D01*
X58138320Y-48509668D01*
X58092680Y-48429202D01*
X58056116Y-48346734D01*
X58029250Y-48263108D01*
X58020982Y-48227721D01*
X58011866Y-48170234D01*
X58006514Y-48106001D01*
X58004931Y-48038169D01*
X58007117Y-47969884D01*
X58013078Y-47904292D01*
X58020648Y-47855430D01*
X58041722Y-47772355D01*
X58072741Y-47691559D01*
X58113159Y-47613918D01*
X58162432Y-47540311D01*
X58220013Y-47471617D01*
X58285358Y-47408714D01*
X58311521Y-47386982D01*
X58393388Y-47327617D01*
X58477361Y-47278547D01*
X58563874Y-47239619D01*
X58653357Y-47210678D01*
X58746243Y-47191570D01*
X58842964Y-47182141D01*
X58888313Y-47181013D01*
X58923725Y-47181084D01*
X58951839Y-47181773D01*
X58975936Y-47183398D01*
X58999295Y-47186280D01*
X59025199Y-47190739D01*
X59056928Y-47197095D01*
X59060209Y-47197777D01*
X59093011Y-47205005D01*
X59126516Y-47213074D01*
X59157373Y-47221135D01*
X59182236Y-47228338D01*
X59188283Y-47230291D01*
X59267614Y-47262368D01*
X59342743Y-47303718D01*
X59413147Y-47353688D01*
X59478301Y-47411629D01*
X59537682Y-47476888D01*
X59590766Y-47548815D01*
X59637030Y-47626759D01*
X59675951Y-47710067D01*
X59707004Y-47798091D01*
X59729666Y-47890177D01*
X59732892Y-47907575D01*
X59735239Y-47924355D01*
X59737835Y-47948467D01*
X59740360Y-47976676D01*
X59742482Y-48005471D01*
X59744186Y-48085546D01*
X59738493Y-48164162D01*
X59725081Y-48243605D01*
X59703630Y-48326161D01*
X59692636Y-48360841D01*
X59678737Y-48401078D01*
X59665967Y-48433895D01*
X59652975Y-48462165D01*
X59638410Y-48488755D01*
X59620921Y-48516538D01*
X59615670Y-48524399D01*
X59598668Y-48548301D01*
X59579404Y-48572679D01*
X59557027Y-48598406D01*
X59530681Y-48626359D01*
X59499513Y-48657411D01*
X59462670Y-48692438D01*
X59419299Y-48732316D01*
X59368546Y-48777918D01*
X59367209Y-48779109D01*
X59341273Y-48802517D01*
X59314600Y-48827128D01*
X59289740Y-48850552D01*
X59269244Y-48870402D01*
X59262613Y-48877036D01*
X59224163Y-48916058D01*
X59260718Y-49024327D01*
X59276785Y-49071400D01*
X59292715Y-49116921D01*
X59308927Y-49161948D01*
X59325839Y-49207543D01*
X59343869Y-49254763D01*
X59363436Y-49304668D01*
X59384959Y-49358318D01*
X59408854Y-49416771D01*
X59435542Y-49481089D01*
X59465441Y-49552329D01*
X59498968Y-49631551D01*
X59520818Y-49682929D01*
X59541562Y-49731772D01*
X59562913Y-49782291D01*
X59584073Y-49832585D01*
X59604248Y-49880755D01*
X59622643Y-49924904D01*
X59638462Y-49963130D01*
X59650909Y-49993536D01*
X59650949Y-49993634D01*
X59664459Y-50026584D01*
X59677264Y-50057181D01*
X59688630Y-50083723D01*
X59697825Y-50104507D01*
X59704115Y-50117829D01*
X59705622Y-50120634D01*
X59711042Y-50132003D01*
X59718783Y-50151024D01*
X59727910Y-50175278D01*
X59737491Y-50202347D01*
X59739908Y-50209450D01*
X59755059Y-50251254D01*
X59769214Y-50283496D01*
X59782878Y-50307091D01*
X59796558Y-50322953D01*
X59806635Y-50330065D01*
X59823827Y-50334490D01*
X59850490Y-50334444D01*
X59853246Y-50334231D01*
X59871401Y-50331817D01*
X59889566Y-50327164D01*
X59909382Y-50319524D01*
X59932490Y-50308149D01*
X59960533Y-50292292D01*
X59995152Y-50271205D01*
X60004556Y-50265323D01*
X60038073Y-50244749D01*
X60064776Y-50229616D01*
X60086433Y-50219164D01*
X60104809Y-50212635D01*
X60121668Y-50209271D01*
X60137199Y-50208319D01*
X60148884Y-50208643D01*
X60159723Y-50210376D01*
X60171670Y-50214317D01*
X60186681Y-50221263D01*
X60206708Y-50232014D01*
X60233706Y-50247368D01*
X60235987Y-50248682D01*
X60262287Y-50264463D01*
X60294545Y-50284802D01*
X60330176Y-50308010D01*
X60366594Y-50332397D01*
X60401213Y-50356277D01*
X60407021Y-50360368D01*
X60474639Y-50407854D01*
X60534586Y-50449266D01*
X60587537Y-50485033D01*
X60634170Y-50515585D01*
X60675162Y-50541351D01*
X60711190Y-50562762D01*
X60742929Y-50580247D01*
X60771057Y-50594236D01*
X60785375Y-50600656D01*
X60806013Y-50609814D01*
X60821505Y-50616494D01*
X60833623Y-50620174D01*
X60844139Y-50620329D01*
X60854826Y-50616439D01*
X60867454Y-50607978D01*
X60883797Y-50594425D01*
X60905625Y-50575256D01*
X60923028Y-50560030D01*
X60947417Y-50538327D01*
X60976332Y-50511706D01*
X61009046Y-50480902D01*
X61044834Y-50446646D01*
X61082967Y-50409673D01*
X61122721Y-50370716D01*
X61163368Y-50330508D01*
X61204182Y-50289783D01*
X61244437Y-50249274D01*
X61283405Y-50209714D01*
X61320361Y-50171836D01*
X61354578Y-50136375D01*
X61385330Y-50104063D01*
X61411889Y-50075633D01*
X61433530Y-50051820D01*
X61449526Y-50033356D01*
X61459151Y-50020975D01*
X61461727Y-50016240D01*
X61460050Y-50007464D01*
X61453497Y-49991232D01*
X61442863Y-49969026D01*
X61428941Y-49942327D01*
X61412526Y-49912614D01*
X61394412Y-49881370D01*
X61375395Y-49850075D01*
X61357834Y-49822588D01*
X61339956Y-49795847D01*
X61317662Y-49763252D01*
X61292808Y-49727473D01*
X61267251Y-49691180D01*
X61242848Y-49657044D01*
X61240523Y-49653825D01*
X61215952Y-49619543D01*
X61189669Y-49582361D01*
X61163638Y-49545092D01*
X61139822Y-49510547D01*
X61120184Y-49481538D01*
X61119111Y-49479930D01*
X61101269Y-49453162D01*
X61084384Y-49427853D01*
X61069791Y-49406004D01*
X61058827Y-49389615D01*
X61054158Y-49382658D01*
X61041650Y-49360487D01*
X61033864Y-49337210D01*
X61030939Y-49311629D01*
X61033012Y-49282547D01*
X61040223Y-49248766D01*
X61052709Y-49209088D01*
X61070608Y-49162316D01*
X61083041Y-49132596D01*
X61096084Y-49101414D01*
X61109300Y-49068583D01*
X61121289Y-49037652D01*
X61130655Y-49012173D01*
X61132022Y-49008242D01*
X61145364Y-48970002D01*
X61159685Y-48930030D01*
X61174358Y-48889977D01*
X61188759Y-48851494D01*
X61202262Y-48816233D01*
X61214241Y-48785843D01*
X61224071Y-48761977D01*
X61231126Y-48746286D01*
X61231682Y-48745177D01*
X61254459Y-48708283D01*
X61280903Y-48680810D01*
X61312184Y-48661894D01*
X61349477Y-48650671D01*
X61362678Y-48648587D01*
X61386779Y-48644810D01*
X61411052Y-48639940D01*
X61428702Y-48635457D01*
X61452489Y-48629001D01*
X61483119Y-48621928D01*
X61521320Y-48614096D01*
X61567820Y-48605364D01*
X61623347Y-48595587D01*
X61688628Y-48584626D01*
X61690250Y-48584358D01*
X61763602Y-48571907D01*
X61827566Y-48560198D01*
X61883289Y-48548957D01*
X61931917Y-48537910D01*
X61974596Y-48526782D01*
X62012473Y-48515299D01*
X62046695Y-48503185D01*
X62071985Y-48492953D01*
X62091240Y-48484716D01*
X62094592Y-48377385D01*
X62096075Y-48326058D01*
X62097484Y-48269917D01*
X62098802Y-48210218D01*
X62100015Y-48148215D01*
X62101105Y-48085164D01*
X62101127Y-48083679D01*
X61916788Y-48083679D01*
X61916164Y-48129719D01*
X61913947Y-48169560D01*
X61909944Y-48205362D01*
X61903960Y-48239282D01*
X61895803Y-48273478D01*
X61893234Y-48282924D01*
X61884656Y-48313779D01*
X61833755Y-48332930D01*
X61796786Y-48346284D01*
X61759863Y-48358376D01*
X61721641Y-48369514D01*
X61680771Y-48380007D01*
X61635907Y-48390161D01*
X61585700Y-48400286D01*
X61528804Y-48410688D01*
X61463872Y-48421676D01*
X61401855Y-48431627D01*
X61364622Y-48437615D01*
X61325849Y-48444075D01*
X61286973Y-48450746D01*
X61249432Y-48457365D01*
X61214667Y-48463670D01*
X61184115Y-48469399D01*
X61159215Y-48474289D01*
X61141407Y-48478078D01*
X61132128Y-48480504D01*
X61131182Y-48480961D01*
X61127923Y-48487137D01*
X61121369Y-48502149D01*
X61111944Y-48524924D01*
X61100069Y-48554390D01*
X61086168Y-48589473D01*
X61070665Y-48629101D01*
X61053981Y-48672201D01*
X61036539Y-48717701D01*
X61018764Y-48764527D01*
X61005711Y-48799221D01*
X60978461Y-48871434D01*
X60954028Y-48934962D01*
X60931831Y-48991142D01*
X60911287Y-49041311D01*
X60891816Y-49086808D01*
X60872834Y-49128969D01*
X60853760Y-49169132D01*
X60834013Y-49208634D01*
X60813010Y-49248812D01*
X60797892Y-49276876D01*
X60782730Y-49304739D01*
X60805928Y-49348313D01*
X60816697Y-49368252D01*
X60827588Y-49387710D01*
X60839271Y-49407743D01*
X60852413Y-49429407D01*
X60867683Y-49453755D01*
X60885751Y-49481843D01*
X60907283Y-49514726D01*
X60932950Y-49553460D01*
X60963419Y-49599099D01*
X60989459Y-49637950D01*
X61025207Y-49691389D01*
X61055623Y-49737271D01*
X61081410Y-49776733D01*
X61103272Y-49810913D01*
X61121912Y-49840946D01*
X61138035Y-49867969D01*
X61152344Y-49893119D01*
X61165543Y-49917534D01*
X61178335Y-49942349D01*
X61180256Y-49946164D01*
X61204341Y-49994119D01*
X61096723Y-50102287D01*
X61062989Y-50135983D01*
X61026072Y-50172498D01*
X60988248Y-50209606D01*
X60951791Y-50245082D01*
X60918977Y-50276697D01*
X60900472Y-50294319D01*
X60811839Y-50378183D01*
X60754951Y-50345676D01*
X60738694Y-50335944D01*
X60714856Y-50321056D01*
X60684625Y-50301781D01*
X60649188Y-50278890D01*
X60609733Y-50253154D01*
X60567448Y-50225342D01*
X60523518Y-50196225D01*
X60489042Y-50173213D01*
X60445750Y-50144056D01*
X60404226Y-50115765D01*
X60365497Y-50089064D01*
X60330592Y-50064676D01*
X60300539Y-50043324D01*
X60276366Y-50025733D01*
X60259102Y-50012624D01*
X60250514Y-50005439D01*
X60221276Y-49982493D01*
X60192521Y-49969552D01*
X60167406Y-49966063D01*
X60149403Y-49968820D01*
X60124478Y-49976660D01*
X60094539Y-49988835D01*
X60061497Y-50004599D01*
X60040461Y-50015752D01*
X60010008Y-50031733D01*
X59981500Y-50045212D01*
X59956457Y-50055597D01*
X59936402Y-50062298D01*
X59922853Y-50064723D01*
X59917904Y-50063409D01*
X59912755Y-50055772D01*
X59903779Y-50040330D01*
X59891861Y-50018754D01*
X59877886Y-49992717D01*
X59862740Y-49963889D01*
X59847306Y-49933942D01*
X59832471Y-49904549D01*
X59819118Y-49877379D01*
X59816074Y-49871044D01*
X59795532Y-49827603D01*
X59775926Y-49785113D01*
X59756874Y-49742615D01*
X59737990Y-49699146D01*
X59718890Y-49653744D01*
X59699189Y-49605449D01*
X59678503Y-49553298D01*
X59656448Y-49496329D01*
X59632638Y-49433582D01*
X59606690Y-49364095D01*
X59578218Y-49286905D01*
X59546839Y-49201052D01*
X59533487Y-49164346D01*
X59468119Y-48984429D01*
X59490644Y-48960617D01*
X59502187Y-48948450D01*
X59519166Y-48930602D01*
X59539706Y-48909040D01*
X59561930Y-48885736D01*
X59573803Y-48873296D01*
X59651060Y-48788437D01*
X59718478Y-48705746D01*
X59776399Y-48624480D01*
X59825161Y-48543901D01*
X59865103Y-48463269D01*
X59896564Y-48381842D01*
X59919884Y-48298882D01*
X59935402Y-48213648D01*
X59943456Y-48125401D01*
X59944844Y-48063679D01*
X59942368Y-47982620D01*
X59935136Y-47907762D01*
X59922610Y-47835600D01*
X59904250Y-47762627D01*
X59892800Y-47725013D01*
X59855627Y-47625452D01*
X59809679Y-47531712D01*
X59754872Y-47443674D01*
X59691120Y-47361219D01*
X59618338Y-47284228D01*
X59536441Y-47212580D01*
X59516701Y-47197146D01*
X59429865Y-47136962D01*
X59339392Y-47086685D01*
X59245211Y-47046292D01*
X59147255Y-47015761D01*
X59045452Y-46995072D01*
X58939736Y-46984203D01*
X58830450Y-46983118D01*
X58724272Y-46991394D01*
X58623122Y-47008933D01*
X58526694Y-47035852D01*
X58434685Y-47072271D01*
X58346789Y-47118310D01*
X58262702Y-47174088D01*
X58187167Y-47235234D01*
X58125795Y-47291469D01*
X58072889Y-47344524D01*
X58027408Y-47395867D01*
X57988307Y-47446962D01*
X57954544Y-47499275D01*
X57925075Y-47554271D01*
X57898858Y-47613416D01*
X57877625Y-47670123D01*
X57865257Y-47707277D01*
X57855197Y-47741751D01*
X57847173Y-47775387D01*
X57840914Y-47810025D01*
X57836148Y-47847505D01*
X57832603Y-47889668D01*
X57830008Y-47938356D01*
X57828092Y-47995409D01*
X57827763Y-48008117D01*
X57826891Y-48051092D01*
X57826390Y-48093623D01*
X57826257Y-48133705D01*
X57826487Y-48169334D01*
X57827079Y-48198507D01*
X57828029Y-48219219D01*
X57828093Y-48220092D01*
X57836052Y-48286584D01*
X57850090Y-48350881D01*
X57870933Y-48415468D01*
X57899304Y-48482834D01*
X57912778Y-48510825D01*
X57935708Y-48555036D01*
X57959754Y-48597202D01*
X57985791Y-48638490D01*
X58014695Y-48680062D01*
X58047342Y-48723083D01*
X58084607Y-48768718D01*
X58127366Y-48818131D01*
X58176494Y-48872487D01*
X58219675Y-48918933D01*
X58287352Y-48991019D01*
X58237794Y-49125308D01*
X58187050Y-49259683D01*
X58131698Y-49400482D01*
X58072775Y-49545174D01*
X58011319Y-49691231D01*
X57948366Y-49836124D01*
X57920641Y-49898452D01*
X57905495Y-49932437D01*
X57891891Y-49963310D01*
X57880405Y-49989739D01*
X57871611Y-50010391D01*
X57866083Y-50023935D01*
X57864375Y-50028951D01*
X57860660Y-50035155D01*
X57851367Y-50044697D01*
X57847470Y-50048109D01*
X57837394Y-50055264D01*
X57826868Y-50059043D01*
X57814277Y-50059147D01*
X57798009Y-50055273D01*
X57776450Y-50047121D01*
X57747987Y-50034388D01*
X57730952Y-50026348D01*
X57667915Y-49996298D01*
X57614010Y-49999252D01*
X57578764Y-50002453D01*
X57544966Y-50008445D01*
X57511524Y-50017777D01*
X57477348Y-50031002D01*
X57441344Y-50048670D01*
X57402424Y-50071332D01*
X57359494Y-50099540D01*
X57311464Y-50133845D01*
X57257242Y-50174798D01*
X57239959Y-50188187D01*
X57185183Y-50229955D01*
X57136836Y-50264876D01*
X57093874Y-50293600D01*
X57055256Y-50316780D01*
X57019942Y-50335064D01*
X56986888Y-50349105D01*
X56976282Y-50352923D01*
X56948038Y-50362641D01*
X56920696Y-50348813D01*
X56896243Y-50335627D01*
X56872581Y-50320960D01*
X56848770Y-50303969D01*
X56823869Y-50283812D01*
X56796937Y-50259645D01*
X56767034Y-50230626D01*
X56733218Y-50195911D01*
X56694549Y-50154659D01*
X56651841Y-50107960D01*
X56557414Y-50003825D01*
X56575145Y-49962440D01*
X56590768Y-49927108D01*
X56606912Y-49893149D01*
X56624314Y-49859315D01*
X56643710Y-49824358D01*
X56665838Y-49787033D01*
X56691434Y-49746092D01*
X56721235Y-49700288D01*
X56755979Y-49648375D01*
X56791934Y-49595617D01*
X56817246Y-49558572D01*
X56842653Y-49521141D01*
X56866967Y-49485094D01*
X56888998Y-49452199D01*
X56907559Y-49424225D01*
X56921460Y-49402943D01*
X56922966Y-49400598D01*
X56961460Y-49340517D01*
X56943659Y-49289473D01*
X56931937Y-49257270D01*
X56916674Y-49217781D01*
X56897687Y-49170564D01*
X56874796Y-49115175D01*
X56847818Y-49051170D01*
X56816573Y-48978106D01*
X56810182Y-48963263D01*
X56779330Y-48890444D01*
X56753033Y-48825559D01*
X56730808Y-48767235D01*
X56712173Y-48714097D01*
X56696645Y-48664772D01*
X56683742Y-48617887D01*
X56673468Y-48574325D01*
X56668371Y-48552324D01*
X56663596Y-48534272D01*
X56659831Y-48522654D01*
X56658376Y-48519838D01*
X56649960Y-48514687D01*
X56633490Y-48507236D01*
X56611036Y-48498270D01*
X56584667Y-48488573D01*
X56556453Y-48478929D01*
X56528464Y-48470123D01*
X56522767Y-48468442D01*
X56495765Y-48460853D01*
X56468509Y-48453835D01*
X56439358Y-48447043D01*
X56406672Y-48440135D01*
X56368809Y-48432767D01*
X56324127Y-48424596D01*
X56270986Y-48415278D01*
X56257801Y-48413007D01*
X56175889Y-48398350D01*
X56103959Y-48384217D01*
X56041430Y-48370466D01*
X55987720Y-48356958D01*
X55942250Y-48343550D01*
X55904437Y-48330103D01*
X55888600Y-48323488D01*
X55859924Y-48310806D01*
X55851725Y-48274555D01*
X55836046Y-48186091D01*
X55828639Y-48095173D01*
X55829496Y-48000645D01*
X55838607Y-47901351D01*
X55848412Y-47836806D01*
X55852555Y-47813535D01*
X55856151Y-47794516D01*
X55858778Y-47781921D01*
X55859929Y-47777889D01*
X55865258Y-47775843D01*
X55878746Y-47771216D01*
X55898471Y-47764655D01*
X55922513Y-47756804D01*
X55927625Y-47755150D01*
X55961335Y-47744648D01*
X55996824Y-47734406D01*
X56035293Y-47724137D01*
X56077945Y-47713557D01*
X56125980Y-47702377D01*
X56180601Y-47690312D01*
X56243008Y-47677075D01*
X56314403Y-47662379D01*
X56329792Y-47659255D01*
X56375437Y-47649944D01*
X56420477Y-47640639D01*
X56463181Y-47631707D01*
X56501815Y-47623514D01*
X56534645Y-47616428D01*
X56559939Y-47610814D01*
X56571365Y-47608165D01*
X56630375Y-47594065D01*
X56672673Y-47506081D01*
X56685500Y-47478717D01*
X56701437Y-47443638D01*
X56719571Y-47402916D01*
X56738987Y-47358623D01*
X56758775Y-47312833D01*
X56778020Y-47267618D01*
X56784700Y-47251737D01*
X56814228Y-47181853D01*
X56840589Y-47120743D01*
X56864317Y-47067265D01*
X56885945Y-47020277D01*
X56906007Y-46978639D01*
X56925038Y-46941210D01*
X56943571Y-46906846D01*
X56957324Y-46882643D01*
X56991698Y-46823439D01*
X56969710Y-46779455D01*
X56946678Y-46735844D01*
X56919066Y-46688160D01*
X56886239Y-46635374D01*
X56847560Y-46576452D01*
X56813524Y-46526450D01*
X56769986Y-46463051D01*
X56732143Y-46407348D01*
X56699453Y-46358485D01*
X56671371Y-46315611D01*
X56647356Y-46277870D01*
X56626864Y-46244409D01*
X56609352Y-46214375D01*
X56594276Y-46186912D01*
X56581094Y-46161169D01*
X56580923Y-46160823D01*
X56561117Y-46120633D01*
X56583532Y-46087625D01*
X56617932Y-46040424D01*
X56659569Y-45989074D01*
X56706869Y-45935290D01*
X56758256Y-45880786D01*
X56812156Y-45827276D01*
X56866996Y-45776475D01*
X56879242Y-45765647D01*
X56933921Y-45717737D01*
X56974492Y-45739295D01*
X56997834Y-45752091D01*
X57025472Y-45767826D01*
X57052730Y-45783821D01*
X57062688Y-45789819D01*
X57074942Y-45797321D01*
X57087063Y-45804876D01*
X57099917Y-45813064D01*
X57114367Y-45822468D01*
X57131279Y-45833667D01*
X57151518Y-45847242D01*
X57175949Y-45863775D01*
X57205437Y-45883846D01*
X57240846Y-45908036D01*
X57283042Y-45936926D01*
X57332889Y-45971097D01*
X57345792Y-45979945D01*
X57392453Y-46011488D01*
X57438345Y-46041640D01*
X57482516Y-46069839D01*
X57524012Y-46095518D01*
X57561882Y-46118114D01*
X57595172Y-46137061D01*
X57622932Y-46151794D01*
X57644207Y-46161748D01*
X57658046Y-46166360D01*
X57660549Y-46166617D01*
X57668756Y-46164086D01*
X57683414Y-46157325D01*
X57701917Y-46147578D01*
X57710225Y-46142883D01*
X57742699Y-46124947D01*
X57778625Y-46106713D01*
X57819172Y-46087661D01*
X57865511Y-46067271D01*
X57918813Y-46045023D01*
X57980247Y-46020396D01*
X58025771Y-46002604D01*
X58097007Y-45974564D01*
X58159242Y-45949104D01*
X58213595Y-45925719D01*
X58261191Y-45903905D01*
X58303149Y-45883156D01*
X58340592Y-45862966D01*
X58357808Y-45853020D01*
X58378832Y-45840395D01*
X58392940Y-45830797D01*
X58402350Y-45821906D01*
X58409279Y-45811400D01*
X58415943Y-45796959D01*
X58419497Y-45788436D01*
X58431902Y-45756677D01*
X58443468Y-45723057D01*
X58454481Y-45686385D01*
X58465231Y-45645471D01*
X58476008Y-45599127D01*
X58487098Y-45546162D01*
X58498793Y-45485386D01*
X58511380Y-45415609D01*
X58514930Y-45395291D01*
X58527701Y-45323385D01*
X58539346Y-45261346D01*
X58550029Y-45208537D01*
X58559915Y-45164318D01*
X58569167Y-45128052D01*
X58577949Y-45099102D01*
X58586426Y-45076829D01*
X58594760Y-45060596D01*
X58603116Y-45049765D01*
X58603912Y-45048999D01*
X58618109Y-45037019D01*
X58633393Y-45027229D01*
X58650958Y-45019419D01*
X58671998Y-45013376D01*
X58697707Y-45008890D01*
X58729278Y-45005748D01*
X58767905Y-45003740D01*
X58814782Y-45002655D01*
X58867709Y-45002286D01*
X58924471Y-45002454D01*
X58972071Y-45003272D01*
X59011920Y-45004852D01*
X59045424Y-45007305D01*
X59073992Y-45010741D01*
X59099034Y-45015272D01*
X59121956Y-45021009D01*
X59128168Y-45022841D01*
X59145719Y-45028880D01*
X59156559Y-45035501D01*
X59164296Y-45045633D01*
X59169995Y-45056798D01*
X59178250Y-45076388D01*
X59185946Y-45099704D01*
X59193357Y-45127965D01*
X59200755Y-45162394D01*
X59208412Y-45204210D01*
X59216602Y-45254635D01*
X59221710Y-45288348D01*
X59227836Y-45327537D01*
X59234536Y-45366827D01*
X59241357Y-45403810D01*
X59247849Y-45436079D01*
X59253561Y-45461227D01*
X59255519Y-45468729D01*
X59261103Y-45489278D01*
X59265742Y-45507511D01*
X59269844Y-45525482D01*
X59273817Y-45545246D01*
X59278068Y-45568856D01*
X59283003Y-45598368D01*
X59289032Y-45635835D01*
X59290551Y-45645388D01*
X59299462Y-45695116D01*
X59309189Y-45735885D01*
X59320317Y-45769317D01*
X59333426Y-45797033D01*
X59349101Y-45820655D01*
X59356986Y-45830198D01*
X59366760Y-45840583D01*
X59377221Y-45849638D01*
X59389923Y-45858212D01*
X59406419Y-45867151D01*
X59428266Y-45877304D01*
X59457018Y-45889518D01*
X59491568Y-45903570D01*
X59518118Y-45914467D01*
X59552280Y-45928826D01*
X59592010Y-45945767D01*
X59635268Y-45964415D01*
X59680010Y-45983891D01*
X59724196Y-46003320D01*
X59738361Y-46009595D01*
X59812389Y-46042233D01*
X59877220Y-46070333D01*
X59933162Y-46094016D01*
X59980521Y-46113403D01*
X60019602Y-46128615D01*
X60050712Y-46139774D01*
X60074158Y-46147000D01*
X60090245Y-46150415D01*
X60094910Y-46150742D01*
X60104986Y-46148185D01*
X60122581Y-46141065D01*
X60146107Y-46130210D01*
X60173975Y-46116448D01*
X60204596Y-46100605D01*
X60236383Y-46083509D01*
X60267746Y-46065988D01*
X60297097Y-46048869D01*
X60322847Y-46032979D01*
X60330292Y-46028141D01*
X60352263Y-46013327D01*
X60380657Y-45993718D01*
X60413373Y-45970791D01*
X60448310Y-45946024D01*
X60483366Y-45920894D01*
X60502271Y-45907211D01*
X60551519Y-45871579D01*
X60593566Y-45841526D01*
X60629634Y-45816223D01*
X60660946Y-45794839D01*
X60688723Y-45776544D01*
X60714187Y-45760510D01*
X60738560Y-45745906D01*
X60747004Y-45741011D01*
X60790654Y-45715907D01*
X60825126Y-45735185D01*
X60871940Y-45764583D01*
X60921139Y-45801846D01*
X60973074Y-45847304D01*
X61028090Y-45901290D01*
X61086535Y-45964135D01*
X61148759Y-46036171D01*
X61178929Y-46072710D01*
X61199419Y-46097848D01*
X61187682Y-46125618D01*
X61171078Y-46161470D01*
X61148972Y-46203373D01*
X61121158Y-46251657D01*
X61087433Y-46306655D01*
X61047591Y-46368699D01*
X61001427Y-46438120D01*
X60948736Y-46515251D01*
X60934597Y-46535666D01*
X60909063Y-46572561D01*
X60883767Y-46609326D01*
X60859811Y-46644346D01*
X60838295Y-46676006D01*
X60820320Y-46702692D01*
X60806986Y-46722786D01*
X60804136Y-46727164D01*
X60770088Y-46779800D01*
X60808860Y-46879344D01*
X60825317Y-46921305D01*
X60841448Y-46961774D01*
X60857790Y-47002013D01*
X60874877Y-47043280D01*
X60893244Y-47086838D01*
X60913426Y-47133947D01*
X60935960Y-47185867D01*
X60961379Y-47243858D01*
X60990220Y-47309182D01*
X61016817Y-47369148D01*
X61114964Y-47590075D01*
X61149930Y-47600366D01*
X61182999Y-47609741D01*
X61218380Y-47619026D01*
X61257072Y-47628434D01*
X61300077Y-47638177D01*
X61348394Y-47648466D01*
X61403025Y-47659515D01*
X61464970Y-47671535D01*
X61535230Y-47684738D01*
X61614804Y-47699338D01*
X61626750Y-47701506D01*
X61692557Y-47713616D01*
X61748328Y-47724278D01*
X61794500Y-47733595D01*
X61831507Y-47741667D01*
X61859785Y-47748594D01*
X61879767Y-47754478D01*
X61891889Y-47759419D01*
X61896587Y-47763519D01*
X61896678Y-47764101D01*
X61897304Y-47772370D01*
X61898975Y-47788867D01*
X61901449Y-47811312D01*
X61904480Y-47837429D01*
X61904957Y-47841429D01*
X61907618Y-47868297D01*
X61910210Y-47902853D01*
X61912563Y-47942199D01*
X61914508Y-47983442D01*
X61915873Y-48023684D01*
X61916013Y-48029284D01*
X61916788Y-48083679D01*
X62101127Y-48083679D01*
X62102057Y-48022321D01*
X62102855Y-47960941D01*
X62103483Y-47902279D01*
X62103926Y-47847591D01*
X62104166Y-47798132D01*
X62104188Y-47755158D01*
X62103977Y-47719923D01*
X62103516Y-47693684D01*
X62103351Y-47688447D01*
X62100355Y-47604256D01*
X62063313Y-47591690D01*
X62033060Y-47581965D01*
X61999745Y-47572353D01*
X61962380Y-47562636D01*
X61919978Y-47552592D01*
X61871552Y-47542002D01*
X61816114Y-47530645D01*
X61752676Y-47518303D01*
X61680252Y-47504754D01*
X61640107Y-47497412D01*
X61564562Y-47483284D01*
X61498389Y-47470022D01*
X61440441Y-47457367D01*
X61389566Y-47445060D01*
X61344616Y-47432842D01*
X61317801Y-47424753D01*
X61265497Y-47408292D01*
X61234405Y-47360942D01*
X61206869Y-47315396D01*
X61177868Y-47260350D01*
X61147284Y-47195560D01*
X61115001Y-47120783D01*
X61089708Y-47058263D01*
X61074581Y-47020254D01*
X61058688Y-46980868D01*
X61043105Y-46942738D01*
X61028911Y-46908494D01*
X61017182Y-46880769D01*
X61014569Y-46874723D01*
X60985378Y-46807600D01*
X61037199Y-46731848D01*
X61056170Y-46704240D01*
X61079428Y-46670585D01*
X61105165Y-46633488D01*
X61131572Y-46595555D01*
X61156842Y-46559391D01*
X61163239Y-46550263D01*
X61187483Y-46515466D01*
X61214009Y-46476998D01*
X61242106Y-46435923D01*
X61271061Y-46393308D01*
X61300163Y-46350216D01*
X61328700Y-46307714D01*
X61355960Y-46266868D01*
X61381232Y-46228741D01*
X61403802Y-46194401D01*
X61422961Y-46164912D01*
X61437995Y-46141339D01*
X61448193Y-46124749D01*
X61451819Y-46118351D01*
X61464612Y-46093899D01*
X61444129Y-46065435D01*
X61414880Y-46027010D01*
X61381439Y-45987439D01*
X61342605Y-45945406D01*
X61297171Y-45899593D01*
X61259279Y-45863130D01*
X61210435Y-45816780D01*
X61168685Y-45776919D01*
X61133341Y-45742858D01*
X61103719Y-45713910D01*
X61079133Y-45689388D01*
X61058896Y-45668603D01*
X61042323Y-45650867D01*
X61028728Y-45635494D01*
X61017426Y-45621794D01*
X61013128Y-45616284D01*
X60983173Y-45580338D01*
X60951567Y-45547998D01*
X60920234Y-45521026D01*
X60891095Y-45501182D01*
X60882415Y-45496560D01*
X60852145Y-45485743D01*
X60817582Y-45479710D01*
X60783005Y-45478875D01*
X60752693Y-45483651D01*
X60751782Y-45483919D01*
X60723242Y-45496155D01*
X60692427Y-45515731D01*
X60662187Y-45540725D01*
X60650438Y-45552278D01*
X60631143Y-45570109D01*
X60608498Y-45587945D01*
X60592230Y-45598891D01*
X60564033Y-45616965D01*
X60529049Y-45641154D01*
X60488458Y-45670605D01*
X60443439Y-45704466D01*
X60407021Y-45732601D01*
X60353226Y-45773698D01*
X60305636Y-45807930D01*
X60263022Y-45835967D01*
X60224159Y-45858479D01*
X60187818Y-45876134D01*
X60152772Y-45889604D01*
X60117793Y-45899558D01*
X60090857Y-45905120D01*
X60049859Y-45912376D01*
X59940044Y-45876133D01*
X59862473Y-45849634D01*
X59793833Y-45824176D01*
X59732609Y-45799095D01*
X59677289Y-45773724D01*
X59626358Y-45747399D01*
X59578302Y-45719455D01*
X59566038Y-45711808D01*
X59545960Y-45698763D01*
X59532560Y-45688498D01*
X59523420Y-45678388D01*
X59516119Y-45665805D01*
X59508969Y-45649837D01*
X59489530Y-45598732D01*
X59470878Y-45538330D01*
X59452956Y-45468378D01*
X59435706Y-45388627D01*
X59419068Y-45298825D01*
X59402984Y-45198722D01*
X59401726Y-45190304D01*
X59390274Y-45114968D01*
X59379450Y-45047161D01*
X59369367Y-44987535D01*
X59360137Y-44936740D01*
X59351871Y-44895425D01*
X59347420Y-44875450D01*
X59342476Y-44855337D01*
X59337989Y-44842668D01*
X59332022Y-44834579D01*
X59322637Y-44828205D01*
X59311646Y-44822556D01*
X59298853Y-44816708D01*
X59286679Y-44812888D01*
X59272367Y-44810681D01*
X59253160Y-44809674D01*
X59226303Y-44809453D01*
X59224334Y-44809456D01*
X59224334Y-44809456D01*
G37*
X59224334Y-44809456D02*
X59204053Y-44809480D01*
X59174994Y-44809498D01*
X59138961Y-44809509D01*
X59097760Y-44809514D01*
X59053196Y-44809512D01*
X59007073Y-44809502D01*
X58980917Y-44809493D01*
X58905608Y-44809466D01*
X58840112Y-44809454D01*
X58783659Y-44809475D01*
X58735479Y-44809544D01*
X58694803Y-44809677D01*
X58660858Y-44809890D01*
X58632877Y-44810199D01*
X58610088Y-44810620D01*
X58591721Y-44811169D01*
X58577006Y-44811862D01*
X58565174Y-44812715D01*
X58555454Y-44813743D01*
X58547076Y-44814963D01*
X58539269Y-44816391D01*
X58531264Y-44818043D01*
X58527263Y-44818890D01*
X58502194Y-44824837D01*
X58476767Y-44831912D01*
X58456113Y-44838677D01*
X58454509Y-44839280D01*
X58439058Y-44845526D01*
X58429551Y-44851481D01*
X58423463Y-44860091D01*
X58418268Y-44874299D01*
X58414913Y-44885443D01*
X58404762Y-44920340D01*
X58395399Y-44954244D01*
X58386545Y-44988439D01*
X58377920Y-45024208D01*
X58369246Y-45062835D01*
X58360241Y-45105602D01*
X58350627Y-45153794D01*
X58340124Y-45208694D01*
X58328453Y-45271585D01*
X58316553Y-45336998D01*
X58307861Y-45384678D01*
X58299005Y-45432470D01*
X58290335Y-45478538D01*
X58282202Y-45521047D01*
X58274956Y-45558161D01*
X58268948Y-45588044D01*
X58265513Y-45604380D01*
X58249155Y-45679790D01*
X58214668Y-45701570D01*
X58189592Y-45716931D01*
X58164015Y-45731519D01*
X58136910Y-45745774D01*
X58107247Y-45760139D01*
X58073999Y-45775055D01*
X58036138Y-45790964D01*
X57992635Y-45808307D01*
X57942464Y-45827526D01*
X57884595Y-45849062D01*
X57818000Y-45873357D01*
X57797243Y-45880861D01*
X57663965Y-45928964D01*
X57625704Y-45909696D01*
X57600150Y-45896250D01*
X57571877Y-45880196D01*
X57539805Y-45860860D01*
X57502852Y-45837569D01*
X57459938Y-45809650D01*
X57409983Y-45776430D01*
X57388125Y-45761735D01*
X57357395Y-45741192D01*
X57328189Y-45721982D01*
X57302111Y-45705136D01*
X57280764Y-45691684D01*
X57265752Y-45682657D01*
X57261125Y-45680126D01*
X57243651Y-45670461D01*
X57224532Y-45658119D01*
X57202398Y-45642088D01*
X57175881Y-45621353D01*
X57143610Y-45594902D01*
X57126308Y-45580412D01*
X57082421Y-45544613D01*
X57044815Y-45516456D01*
X57012896Y-45495536D01*
X56986070Y-45481449D01*
X56973868Y-45476667D01*
X56948627Y-45470787D01*
X56921385Y-45468642D01*
X56896249Y-45470305D01*
X56879148Y-45474970D01*
X56871109Y-45480622D01*
X56856471Y-45493034D01*
X56836048Y-45511408D01*
X56810650Y-45534947D01*
X56781087Y-45562854D01*
X56748173Y-45594332D01*
X56712718Y-45628582D01*
X56675533Y-45664808D01*
X56637431Y-45702213D01*
X56599221Y-45739999D01*
X56561716Y-45777368D01*
X56525728Y-45813524D01*
X56492066Y-45847668D01*
X56461544Y-45879004D01*
X56434972Y-45906735D01*
X56413161Y-45930062D01*
X56396923Y-45948188D01*
X56393418Y-45952304D01*
X56373214Y-45977077D01*
X56353115Y-46002888D01*
X56334222Y-46028193D01*
X56317638Y-46051449D01*
X56304464Y-46071112D01*
X56295801Y-46085637D01*
X56292750Y-46093405D01*
X56295699Y-46101792D01*
X56304299Y-46118297D01*
X56318181Y-46142331D01*
X56336978Y-46173307D01*
X56360320Y-46210639D01*
X56387838Y-46253738D01*
X56419165Y-46302017D01*
X56453930Y-46354889D01*
X56491766Y-46411767D01*
X56504785Y-46431200D01*
X56532565Y-46472626D01*
X56560055Y-46513681D01*
X56586337Y-46552986D01*
X56610490Y-46589166D01*
X56631596Y-46620842D01*
X56648735Y-46646637D01*
X56660987Y-46665175D01*
X56661976Y-46666679D01*
X56677638Y-46690363D01*
X56692481Y-46712511D01*
X56704886Y-46730727D01*
X56713234Y-46742613D01*
X56713573Y-46743076D01*
X56729455Y-46772431D01*
X56738835Y-46806572D01*
X56740624Y-46841192D01*
X56740000Y-46847597D01*
X56736498Y-46868569D01*
X56730822Y-46890386D01*
X56722272Y-46915007D01*
X56710145Y-46944391D01*
X56693740Y-46980498D01*
X56688267Y-46992117D01*
X56675720Y-47019816D01*
X56661231Y-47053736D01*
X56646364Y-47090114D01*
X56632679Y-47125184D01*
X56628998Y-47134992D01*
X56603535Y-47200346D01*
X56579075Y-47256050D01*
X56555090Y-47302926D01*
X56531051Y-47341797D01*
X56506428Y-47373484D01*
X56480693Y-47398809D01*
X56453317Y-47418594D01*
X56442514Y-47424756D01*
X56423437Y-47432853D01*
X56394970Y-47442041D01*
X56358218Y-47452069D01*
X56314287Y-47462684D01*
X56264284Y-47473635D01*
X56209316Y-47484672D01*
X56150489Y-47495542D01*
X56088909Y-47505994D01*
X56075792Y-47508102D01*
X56001547Y-47520279D01*
X55936710Y-47531731D01*
X55880156Y-47542721D01*
X55830756Y-47553512D01*
X55787383Y-47564369D01*
X55748909Y-47575555D01*
X55714207Y-47587333D01*
X55682149Y-47599966D01*
X55681563Y-47600214D01*
X55644521Y-47615909D01*
X55642869Y-47908586D01*
X55642613Y-47969104D01*
X55642509Y-48031122D01*
X55642550Y-48092950D01*
X55642728Y-48152902D01*
X55643036Y-48209288D01*
X55643467Y-48260421D01*
X55644012Y-48304611D01*
X55644666Y-48340172D01*
X55644777Y-48344849D01*
X55648338Y-48488434D01*
X55712576Y-48507379D01*
X55751145Y-48518463D01*
X55788868Y-48528637D01*
X55827192Y-48538212D01*
X55867566Y-48547497D01*
X55911441Y-48556800D01*
X55960265Y-48566432D01*
X56015487Y-48576703D01*
X56078556Y-48587921D01*
X56136646Y-48597959D01*
X56199842Y-48608915D01*
X56253821Y-48618600D01*
X56299843Y-48627258D01*
X56339166Y-48635132D01*
X56373048Y-48642465D01*
X56401230Y-48649125D01*
X56431681Y-48656583D01*
X56453682Y-48662224D01*
X56468972Y-48667105D01*
X56479285Y-48672284D01*
X56486358Y-48678819D01*
X56491928Y-48687769D01*
X56497730Y-48700190D01*
X56502556Y-48710859D01*
X56520448Y-48751139D01*
X56540864Y-48799698D01*
X56563090Y-48854737D01*
X56586413Y-48914460D01*
X56610120Y-48977070D01*
X56633496Y-49040767D01*
X56633571Y-49040973D01*
X56646805Y-49077111D01*
X56659842Y-49111744D01*
X56671961Y-49143034D01*
X56682444Y-49169142D01*
X56690571Y-49188228D01*
X56694071Y-49195650D01*
X56706965Y-49226371D01*
X56713733Y-49257029D01*
X56714113Y-49288706D01*
X56707842Y-49322482D01*
X56694661Y-49359437D01*
X56674306Y-49400652D01*
X56646518Y-49447205D01*
X56625431Y-49479238D01*
X56606530Y-49507545D01*
X56586860Y-49537672D01*
X56568578Y-49566281D01*
X56553837Y-49590029D01*
X56552062Y-49592971D01*
X56537077Y-49617438D01*
X56521869Y-49641120D01*
X56505149Y-49665891D01*
X56485627Y-49693623D01*
X56462015Y-49726190D01*
X56436987Y-49760120D01*
X56392568Y-49822621D01*
X56356375Y-49879218D01*
X56328470Y-49929797D01*
X56308917Y-49974244D01*
X56298807Y-50007583D01*
X56293744Y-50030119D01*
X56360133Y-50105232D01*
X56453736Y-50208949D01*
X56543568Y-50304043D01*
X56629451Y-50390339D01*
X56711209Y-50467667D01*
X56788662Y-50535851D01*
X56861635Y-50594721D01*
X56865640Y-50597780D01*
X56906536Y-50628923D01*
X56934334Y-50617370D01*
X56959923Y-50605438D01*
X56992422Y-50588227D01*
X57030194Y-50566700D01*
X57071603Y-50541821D01*
X57115013Y-50514553D01*
X57158787Y-50485858D01*
X57165875Y-50481091D01*
X57231038Y-50437033D01*
X57287837Y-50398474D01*
X57336743Y-50365086D01*
X57378226Y-50336538D01*
X57412757Y-50312503D01*
X57440805Y-50292651D01*
X57462840Y-50276652D01*
X57479334Y-50264178D01*
X57490756Y-50254900D01*
X57496269Y-50249849D01*
X57525690Y-50226602D01*
X57557934Y-50213338D01*
X57589703Y-50209566D01*
X57608360Y-50210538D01*
X57627773Y-50213988D01*
X57649616Y-50220501D01*
X57675563Y-50230659D01*
X57707288Y-50245045D01*
X57746063Y-50264042D01*
X57787756Y-50284323D01*
X57822118Y-50299509D01*
X57850765Y-50310155D01*
X57875315Y-50316817D01*
X57897386Y-50320050D01*
X57910765Y-50320575D01*
X57941614Y-50320575D01*
X57972163Y-50268981D01*
X57991658Y-50235128D01*
X58010610Y-50200165D01*
X58029517Y-50162987D01*
X58048880Y-50122486D01*
X58069197Y-50077559D01*
X58090968Y-50027099D01*
X58114693Y-49970000D01*
X58140871Y-49905157D01*
X58170002Y-49831465D01*
X58171184Y-49828450D01*
X58187466Y-49787191D01*
X58204207Y-49745285D01*
X58220546Y-49704850D01*
X58235624Y-49668003D01*
X58248579Y-49636861D01*
X58258290Y-49614138D01*
X58271251Y-49583944D01*
X58284512Y-49552109D01*
X58296546Y-49522355D01*
X58305826Y-49498403D01*
X58306080Y-49497721D01*
X58316867Y-49469206D01*
X58327703Y-49441739D01*
X58339459Y-49413257D01*
X58353006Y-49381699D01*
X58369216Y-49345001D01*
X58388961Y-49301101D01*
X58392180Y-49293992D01*
X58414889Y-49243532D01*
X58433710Y-49200874D01*
X58449351Y-49164286D01*
X58462521Y-49132039D01*
X58473928Y-49102400D01*
X58484281Y-49073640D01*
X58493269Y-49047122D01*
X58500933Y-49022406D01*
X58508583Y-48995066D01*
X58515773Y-48967046D01*
X58522062Y-48940289D01*
X58527003Y-48916738D01*
X58530155Y-48898338D01*
X58531073Y-48887032D01*
X58530404Y-48884489D01*
X58525433Y-48881189D01*
X58513481Y-48873414D01*
X58496468Y-48862411D01*
X58480855Y-48852346D01*
X58399179Y-48794583D01*
X58323465Y-48730588D01*
X58254335Y-48661206D01*
X58192413Y-48587284D01*
X58138320Y-48509668D01*
X58092680Y-48429202D01*
X58056116Y-48346734D01*
X58029250Y-48263108D01*
X58020982Y-48227721D01*
X58011866Y-48170234D01*
X58006514Y-48106001D01*
X58004931Y-48038169D01*
X58007117Y-47969884D01*
X58013078Y-47904292D01*
X58020648Y-47855430D01*
X58041722Y-47772355D01*
X58072741Y-47691559D01*
X58113159Y-47613918D01*
X58162432Y-47540311D01*
X58220013Y-47471617D01*
X58285358Y-47408714D01*
X58311521Y-47386982D01*
X58393388Y-47327617D01*
X58477361Y-47278547D01*
X58563874Y-47239619D01*
X58653357Y-47210678D01*
X58746243Y-47191570D01*
X58842964Y-47182141D01*
X58888313Y-47181013D01*
X58923725Y-47181084D01*
X58951839Y-47181773D01*
X58975936Y-47183398D01*
X58999295Y-47186280D01*
X59025199Y-47190739D01*
X59056928Y-47197095D01*
X59060209Y-47197777D01*
X59093011Y-47205005D01*
X59126516Y-47213074D01*
X59157373Y-47221135D01*
X59182236Y-47228338D01*
X59188283Y-47230291D01*
X59267614Y-47262368D01*
X59342743Y-47303718D01*
X59413147Y-47353688D01*
X59478301Y-47411629D01*
X59537682Y-47476888D01*
X59590766Y-47548815D01*
X59637030Y-47626759D01*
X59675951Y-47710067D01*
X59707004Y-47798091D01*
X59729666Y-47890177D01*
X59732892Y-47907575D01*
X59735239Y-47924355D01*
X59737835Y-47948467D01*
X59740360Y-47976676D01*
X59742482Y-48005471D01*
X59744186Y-48085546D01*
X59738493Y-48164162D01*
X59725081Y-48243605D01*
X59703630Y-48326161D01*
X59692636Y-48360841D01*
X59678737Y-48401078D01*
X59665967Y-48433895D01*
X59652975Y-48462165D01*
X59638410Y-48488755D01*
X59620921Y-48516538D01*
X59615670Y-48524399D01*
X59598668Y-48548301D01*
X59579404Y-48572679D01*
X59557027Y-48598406D01*
X59530681Y-48626359D01*
X59499513Y-48657411D01*
X59462670Y-48692438D01*
X59419299Y-48732316D01*
X59368546Y-48777918D01*
X59367209Y-48779109D01*
X59341273Y-48802517D01*
X59314600Y-48827128D01*
X59289740Y-48850552D01*
X59269244Y-48870402D01*
X59262613Y-48877036D01*
X59224163Y-48916058D01*
X59260718Y-49024327D01*
X59276785Y-49071400D01*
X59292715Y-49116921D01*
X59308927Y-49161948D01*
X59325839Y-49207543D01*
X59343869Y-49254763D01*
X59363436Y-49304668D01*
X59384959Y-49358318D01*
X59408854Y-49416771D01*
X59435542Y-49481089D01*
X59465441Y-49552329D01*
X59498968Y-49631551D01*
X59520818Y-49682929D01*
X59541562Y-49731772D01*
X59562913Y-49782291D01*
X59584073Y-49832585D01*
X59604248Y-49880755D01*
X59622643Y-49924904D01*
X59638462Y-49963130D01*
X59650909Y-49993536D01*
X59650949Y-49993634D01*
X59664459Y-50026584D01*
X59677264Y-50057181D01*
X59688630Y-50083723D01*
X59697825Y-50104507D01*
X59704115Y-50117829D01*
X59705622Y-50120634D01*
X59711042Y-50132003D01*
X59718783Y-50151024D01*
X59727910Y-50175278D01*
X59737491Y-50202347D01*
X59739908Y-50209450D01*
X59755059Y-50251254D01*
X59769214Y-50283496D01*
X59782878Y-50307091D01*
X59796558Y-50322953D01*
X59806635Y-50330065D01*
X59823827Y-50334490D01*
X59850490Y-50334444D01*
X59853246Y-50334231D01*
X59871401Y-50331817D01*
X59889566Y-50327164D01*
X59909382Y-50319524D01*
X59932490Y-50308149D01*
X59960533Y-50292292D01*
X59995152Y-50271205D01*
X60004556Y-50265323D01*
X60038073Y-50244749D01*
X60064776Y-50229616D01*
X60086433Y-50219164D01*
X60104809Y-50212635D01*
X60121668Y-50209271D01*
X60137199Y-50208319D01*
X60148884Y-50208643D01*
X60159723Y-50210376D01*
X60171670Y-50214317D01*
X60186681Y-50221263D01*
X60206708Y-50232014D01*
X60233706Y-50247368D01*
X60235987Y-50248682D01*
X60262287Y-50264463D01*
X60294545Y-50284802D01*
X60330176Y-50308010D01*
X60366594Y-50332397D01*
X60401213Y-50356277D01*
X60407021Y-50360368D01*
X60474639Y-50407854D01*
X60534586Y-50449266D01*
X60587537Y-50485033D01*
X60634170Y-50515585D01*
X60675162Y-50541351D01*
X60711190Y-50562762D01*
X60742929Y-50580247D01*
X60771057Y-50594236D01*
X60785375Y-50600656D01*
X60806013Y-50609814D01*
X60821505Y-50616494D01*
X60833623Y-50620174D01*
X60844139Y-50620329D01*
X60854826Y-50616439D01*
X60867454Y-50607978D01*
X60883797Y-50594425D01*
X60905625Y-50575256D01*
X60923028Y-50560030D01*
X60947417Y-50538327D01*
X60976332Y-50511706D01*
X61009046Y-50480902D01*
X61044834Y-50446646D01*
X61082967Y-50409673D01*
X61122721Y-50370716D01*
X61163368Y-50330508D01*
X61204182Y-50289783D01*
X61244437Y-50249274D01*
X61283405Y-50209714D01*
X61320361Y-50171836D01*
X61354578Y-50136375D01*
X61385330Y-50104063D01*
X61411889Y-50075633D01*
X61433530Y-50051820D01*
X61449526Y-50033356D01*
X61459151Y-50020975D01*
X61461727Y-50016240D01*
X61460050Y-50007464D01*
X61453497Y-49991232D01*
X61442863Y-49969026D01*
X61428941Y-49942327D01*
X61412526Y-49912614D01*
X61394412Y-49881370D01*
X61375395Y-49850075D01*
X61357834Y-49822588D01*
X61339956Y-49795847D01*
X61317662Y-49763252D01*
X61292808Y-49727473D01*
X61267251Y-49691180D01*
X61242848Y-49657044D01*
X61240523Y-49653825D01*
X61215952Y-49619543D01*
X61189669Y-49582361D01*
X61163638Y-49545092D01*
X61139822Y-49510547D01*
X61120184Y-49481538D01*
X61119111Y-49479930D01*
X61101269Y-49453162D01*
X61084384Y-49427853D01*
X61069791Y-49406004D01*
X61058827Y-49389615D01*
X61054158Y-49382658D01*
X61041650Y-49360487D01*
X61033864Y-49337210D01*
X61030939Y-49311629D01*
X61033012Y-49282547D01*
X61040223Y-49248766D01*
X61052709Y-49209088D01*
X61070608Y-49162316D01*
X61083041Y-49132596D01*
X61096084Y-49101414D01*
X61109300Y-49068583D01*
X61121289Y-49037652D01*
X61130655Y-49012173D01*
X61132022Y-49008242D01*
X61145364Y-48970002D01*
X61159685Y-48930030D01*
X61174358Y-48889977D01*
X61188759Y-48851494D01*
X61202262Y-48816233D01*
X61214241Y-48785843D01*
X61224071Y-48761977D01*
X61231126Y-48746286D01*
X61231682Y-48745177D01*
X61254459Y-48708283D01*
X61280903Y-48680810D01*
X61312184Y-48661894D01*
X61349477Y-48650671D01*
X61362678Y-48648587D01*
X61386779Y-48644810D01*
X61411052Y-48639940D01*
X61428702Y-48635457D01*
X61452489Y-48629001D01*
X61483119Y-48621928D01*
X61521320Y-48614096D01*
X61567820Y-48605364D01*
X61623347Y-48595587D01*
X61688628Y-48584626D01*
X61690250Y-48584358D01*
X61763602Y-48571907D01*
X61827566Y-48560198D01*
X61883289Y-48548957D01*
X61931917Y-48537910D01*
X61974596Y-48526782D01*
X62012473Y-48515299D01*
X62046695Y-48503185D01*
X62071985Y-48492953D01*
X62091240Y-48484716D01*
X62094592Y-48377385D01*
X62096075Y-48326058D01*
X62097484Y-48269917D01*
X62098802Y-48210218D01*
X62100015Y-48148215D01*
X62101105Y-48085164D01*
X62101127Y-48083679D01*
X61916788Y-48083679D01*
X61916164Y-48129719D01*
X61913947Y-48169560D01*
X61909944Y-48205362D01*
X61903960Y-48239282D01*
X61895803Y-48273478D01*
X61893234Y-48282924D01*
X61884656Y-48313779D01*
X61833755Y-48332930D01*
X61796786Y-48346284D01*
X61759863Y-48358376D01*
X61721641Y-48369514D01*
X61680771Y-48380007D01*
X61635907Y-48390161D01*
X61585700Y-48400286D01*
X61528804Y-48410688D01*
X61463872Y-48421676D01*
X61401855Y-48431627D01*
X61364622Y-48437615D01*
X61325849Y-48444075D01*
X61286973Y-48450746D01*
X61249432Y-48457365D01*
X61214667Y-48463670D01*
X61184115Y-48469399D01*
X61159215Y-48474289D01*
X61141407Y-48478078D01*
X61132128Y-48480504D01*
X61131182Y-48480961D01*
X61127923Y-48487137D01*
X61121369Y-48502149D01*
X61111944Y-48524924D01*
X61100069Y-48554390D01*
X61086168Y-48589473D01*
X61070665Y-48629101D01*
X61053981Y-48672201D01*
X61036539Y-48717701D01*
X61018764Y-48764527D01*
X61005711Y-48799221D01*
X60978461Y-48871434D01*
X60954028Y-48934962D01*
X60931831Y-48991142D01*
X60911287Y-49041311D01*
X60891816Y-49086808D01*
X60872834Y-49128969D01*
X60853760Y-49169132D01*
X60834013Y-49208634D01*
X60813010Y-49248812D01*
X60797892Y-49276876D01*
X60782730Y-49304739D01*
X60805928Y-49348313D01*
X60816697Y-49368252D01*
X60827588Y-49387710D01*
X60839271Y-49407743D01*
X60852413Y-49429407D01*
X60867683Y-49453755D01*
X60885751Y-49481843D01*
X60907283Y-49514726D01*
X60932950Y-49553460D01*
X60963419Y-49599099D01*
X60989459Y-49637950D01*
X61025207Y-49691389D01*
X61055623Y-49737271D01*
X61081410Y-49776733D01*
X61103272Y-49810913D01*
X61121912Y-49840946D01*
X61138035Y-49867969D01*
X61152344Y-49893119D01*
X61165543Y-49917534D01*
X61178335Y-49942349D01*
X61180256Y-49946164D01*
X61204341Y-49994119D01*
X61096723Y-50102287D01*
X61062989Y-50135983D01*
X61026072Y-50172498D01*
X60988248Y-50209606D01*
X60951791Y-50245082D01*
X60918977Y-50276697D01*
X60900472Y-50294319D01*
X60811839Y-50378183D01*
X60754951Y-50345676D01*
X60738694Y-50335944D01*
X60714856Y-50321056D01*
X60684625Y-50301781D01*
X60649188Y-50278890D01*
X60609733Y-50253154D01*
X60567448Y-50225342D01*
X60523518Y-50196225D01*
X60489042Y-50173213D01*
X60445750Y-50144056D01*
X60404226Y-50115765D01*
X60365497Y-50089064D01*
X60330592Y-50064676D01*
X60300539Y-50043324D01*
X60276366Y-50025733D01*
X60259102Y-50012624D01*
X60250514Y-50005439D01*
X60221276Y-49982493D01*
X60192521Y-49969552D01*
X60167406Y-49966063D01*
X60149403Y-49968820D01*
X60124478Y-49976660D01*
X60094539Y-49988835D01*
X60061497Y-50004599D01*
X60040461Y-50015752D01*
X60010008Y-50031733D01*
X59981500Y-50045212D01*
X59956457Y-50055597D01*
X59936402Y-50062298D01*
X59922853Y-50064723D01*
X59917904Y-50063409D01*
X59912755Y-50055772D01*
X59903779Y-50040330D01*
X59891861Y-50018754D01*
X59877886Y-49992717D01*
X59862740Y-49963889D01*
X59847306Y-49933942D01*
X59832471Y-49904549D01*
X59819118Y-49877379D01*
X59816074Y-49871044D01*
X59795532Y-49827603D01*
X59775926Y-49785113D01*
X59756874Y-49742615D01*
X59737990Y-49699146D01*
X59718890Y-49653744D01*
X59699189Y-49605449D01*
X59678503Y-49553298D01*
X59656448Y-49496329D01*
X59632638Y-49433582D01*
X59606690Y-49364095D01*
X59578218Y-49286905D01*
X59546839Y-49201052D01*
X59533487Y-49164346D01*
X59468119Y-48984429D01*
X59490644Y-48960617D01*
X59502187Y-48948450D01*
X59519166Y-48930602D01*
X59539706Y-48909040D01*
X59561930Y-48885736D01*
X59573803Y-48873296D01*
X59651060Y-48788437D01*
X59718478Y-48705746D01*
X59776399Y-48624480D01*
X59825161Y-48543901D01*
X59865103Y-48463269D01*
X59896564Y-48381842D01*
X59919884Y-48298882D01*
X59935402Y-48213648D01*
X59943456Y-48125401D01*
X59944844Y-48063679D01*
X59942368Y-47982620D01*
X59935136Y-47907762D01*
X59922610Y-47835600D01*
X59904250Y-47762627D01*
X59892800Y-47725013D01*
X59855627Y-47625452D01*
X59809679Y-47531712D01*
X59754872Y-47443674D01*
X59691120Y-47361219D01*
X59618338Y-47284228D01*
X59536441Y-47212580D01*
X59516701Y-47197146D01*
X59429865Y-47136962D01*
X59339392Y-47086685D01*
X59245211Y-47046292D01*
X59147255Y-47015761D01*
X59045452Y-46995072D01*
X58939736Y-46984203D01*
X58830450Y-46983118D01*
X58724272Y-46991394D01*
X58623122Y-47008933D01*
X58526694Y-47035852D01*
X58434685Y-47072271D01*
X58346789Y-47118310D01*
X58262702Y-47174088D01*
X58187167Y-47235234D01*
X58125795Y-47291469D01*
X58072889Y-47344524D01*
X58027408Y-47395867D01*
X57988307Y-47446962D01*
X57954544Y-47499275D01*
X57925075Y-47554271D01*
X57898858Y-47613416D01*
X57877625Y-47670123D01*
X57865257Y-47707277D01*
X57855197Y-47741751D01*
X57847173Y-47775387D01*
X57840914Y-47810025D01*
X57836148Y-47847505D01*
X57832603Y-47889668D01*
X57830008Y-47938356D01*
X57828092Y-47995409D01*
X57827763Y-48008117D01*
X57826891Y-48051092D01*
X57826390Y-48093623D01*
X57826257Y-48133705D01*
X57826487Y-48169334D01*
X57827079Y-48198507D01*
X57828029Y-48219219D01*
X57828093Y-48220092D01*
X57836052Y-48286584D01*
X57850090Y-48350881D01*
X57870933Y-48415468D01*
X57899304Y-48482834D01*
X57912778Y-48510825D01*
X57935708Y-48555036D01*
X57959754Y-48597202D01*
X57985791Y-48638490D01*
X58014695Y-48680062D01*
X58047342Y-48723083D01*
X58084607Y-48768718D01*
X58127366Y-48818131D01*
X58176494Y-48872487D01*
X58219675Y-48918933D01*
X58287352Y-48991019D01*
X58237794Y-49125308D01*
X58187050Y-49259683D01*
X58131698Y-49400482D01*
X58072775Y-49545174D01*
X58011319Y-49691231D01*
X57948366Y-49836124D01*
X57920641Y-49898452D01*
X57905495Y-49932437D01*
X57891891Y-49963310D01*
X57880405Y-49989739D01*
X57871611Y-50010391D01*
X57866083Y-50023935D01*
X57864375Y-50028951D01*
X57860660Y-50035155D01*
X57851367Y-50044697D01*
X57847470Y-50048109D01*
X57837394Y-50055264D01*
X57826868Y-50059043D01*
X57814277Y-50059147D01*
X57798009Y-50055273D01*
X57776450Y-50047121D01*
X57747987Y-50034388D01*
X57730952Y-50026348D01*
X57667915Y-49996298D01*
X57614010Y-49999252D01*
X57578764Y-50002453D01*
X57544966Y-50008445D01*
X57511524Y-50017777D01*
X57477348Y-50031002D01*
X57441344Y-50048670D01*
X57402424Y-50071332D01*
X57359494Y-50099540D01*
X57311464Y-50133845D01*
X57257242Y-50174798D01*
X57239959Y-50188187D01*
X57185183Y-50229955D01*
X57136836Y-50264876D01*
X57093874Y-50293600D01*
X57055256Y-50316780D01*
X57019942Y-50335064D01*
X56986888Y-50349105D01*
X56976282Y-50352923D01*
X56948038Y-50362641D01*
X56920696Y-50348813D01*
X56896243Y-50335627D01*
X56872581Y-50320960D01*
X56848770Y-50303969D01*
X56823869Y-50283812D01*
X56796937Y-50259645D01*
X56767034Y-50230626D01*
X56733218Y-50195911D01*
X56694549Y-50154659D01*
X56651841Y-50107960D01*
X56557414Y-50003825D01*
X56575145Y-49962440D01*
X56590768Y-49927108D01*
X56606912Y-49893149D01*
X56624314Y-49859315D01*
X56643710Y-49824358D01*
X56665838Y-49787033D01*
X56691434Y-49746092D01*
X56721235Y-49700288D01*
X56755979Y-49648375D01*
X56791934Y-49595617D01*
X56817246Y-49558572D01*
X56842653Y-49521141D01*
X56866967Y-49485094D01*
X56888998Y-49452199D01*
X56907559Y-49424225D01*
X56921460Y-49402943D01*
X56922966Y-49400598D01*
X56961460Y-49340517D01*
X56943659Y-49289473D01*
X56931937Y-49257270D01*
X56916674Y-49217781D01*
X56897687Y-49170564D01*
X56874796Y-49115175D01*
X56847818Y-49051170D01*
X56816573Y-48978106D01*
X56810182Y-48963263D01*
X56779330Y-48890444D01*
X56753033Y-48825559D01*
X56730808Y-48767235D01*
X56712173Y-48714097D01*
X56696645Y-48664772D01*
X56683742Y-48617887D01*
X56673468Y-48574325D01*
X56668371Y-48552324D01*
X56663596Y-48534272D01*
X56659831Y-48522654D01*
X56658376Y-48519838D01*
X56649960Y-48514687D01*
X56633490Y-48507236D01*
X56611036Y-48498270D01*
X56584667Y-48488573D01*
X56556453Y-48478929D01*
X56528464Y-48470123D01*
X56522767Y-48468442D01*
X56495765Y-48460853D01*
X56468509Y-48453835D01*
X56439358Y-48447043D01*
X56406672Y-48440135D01*
X56368809Y-48432767D01*
X56324127Y-48424596D01*
X56270986Y-48415278D01*
X56257801Y-48413007D01*
X56175889Y-48398350D01*
X56103959Y-48384217D01*
X56041430Y-48370466D01*
X55987720Y-48356958D01*
X55942250Y-48343550D01*
X55904437Y-48330103D01*
X55888600Y-48323488D01*
X55859924Y-48310806D01*
X55851725Y-48274555D01*
X55836046Y-48186091D01*
X55828639Y-48095173D01*
X55829496Y-48000645D01*
X55838607Y-47901351D01*
X55848412Y-47836806D01*
X55852555Y-47813535D01*
X55856151Y-47794516D01*
X55858778Y-47781921D01*
X55859929Y-47777889D01*
X55865258Y-47775843D01*
X55878746Y-47771216D01*
X55898471Y-47764655D01*
X55922513Y-47756804D01*
X55927625Y-47755150D01*
X55961335Y-47744648D01*
X55996824Y-47734406D01*
X56035293Y-47724137D01*
X56077945Y-47713557D01*
X56125980Y-47702377D01*
X56180601Y-47690312D01*
X56243008Y-47677075D01*
X56314403Y-47662379D01*
X56329792Y-47659255D01*
X56375437Y-47649944D01*
X56420477Y-47640639D01*
X56463181Y-47631707D01*
X56501815Y-47623514D01*
X56534645Y-47616428D01*
X56559939Y-47610814D01*
X56571365Y-47608165D01*
X56630375Y-47594065D01*
X56672673Y-47506081D01*
X56685500Y-47478717D01*
X56701437Y-47443638D01*
X56719571Y-47402916D01*
X56738987Y-47358623D01*
X56758775Y-47312833D01*
X56778020Y-47267618D01*
X56784700Y-47251737D01*
X56814228Y-47181853D01*
X56840589Y-47120743D01*
X56864317Y-47067265D01*
X56885945Y-47020277D01*
X56906007Y-46978639D01*
X56925038Y-46941210D01*
X56943571Y-46906846D01*
X56957324Y-46882643D01*
X56991698Y-46823439D01*
X56969710Y-46779455D01*
X56946678Y-46735844D01*
X56919066Y-46688160D01*
X56886239Y-46635374D01*
X56847560Y-46576452D01*
X56813524Y-46526450D01*
X56769986Y-46463051D01*
X56732143Y-46407348D01*
X56699453Y-46358485D01*
X56671371Y-46315611D01*
X56647356Y-46277870D01*
X56626864Y-46244409D01*
X56609352Y-46214375D01*
X56594276Y-46186912D01*
X56581094Y-46161169D01*
X56580923Y-46160823D01*
X56561117Y-46120633D01*
X56583532Y-46087625D01*
X56617932Y-46040424D01*
X56659569Y-45989074D01*
X56706869Y-45935290D01*
X56758256Y-45880786D01*
X56812156Y-45827276D01*
X56866996Y-45776475D01*
X56879242Y-45765647D01*
X56933921Y-45717737D01*
X56974492Y-45739295D01*
X56997834Y-45752091D01*
X57025472Y-45767826D01*
X57052730Y-45783821D01*
X57062688Y-45789819D01*
X57074942Y-45797321D01*
X57087063Y-45804876D01*
X57099917Y-45813064D01*
X57114367Y-45822468D01*
X57131279Y-45833667D01*
X57151518Y-45847242D01*
X57175949Y-45863775D01*
X57205437Y-45883846D01*
X57240846Y-45908036D01*
X57283042Y-45936926D01*
X57332889Y-45971097D01*
X57345792Y-45979945D01*
X57392453Y-46011488D01*
X57438345Y-46041640D01*
X57482516Y-46069839D01*
X57524012Y-46095518D01*
X57561882Y-46118114D01*
X57595172Y-46137061D01*
X57622932Y-46151794D01*
X57644207Y-46161748D01*
X57658046Y-46166360D01*
X57660549Y-46166617D01*
X57668756Y-46164086D01*
X57683414Y-46157325D01*
X57701917Y-46147578D01*
X57710225Y-46142883D01*
X57742699Y-46124947D01*
X57778625Y-46106713D01*
X57819172Y-46087661D01*
X57865511Y-46067271D01*
X57918813Y-46045023D01*
X57980247Y-46020396D01*
X58025771Y-46002604D01*
X58097007Y-45974564D01*
X58159242Y-45949104D01*
X58213595Y-45925719D01*
X58261191Y-45903905D01*
X58303149Y-45883156D01*
X58340592Y-45862966D01*
X58357808Y-45853020D01*
X58378832Y-45840395D01*
X58392940Y-45830797D01*
X58402350Y-45821906D01*
X58409279Y-45811400D01*
X58415943Y-45796959D01*
X58419497Y-45788436D01*
X58431902Y-45756677D01*
X58443468Y-45723057D01*
X58454481Y-45686385D01*
X58465231Y-45645471D01*
X58476008Y-45599127D01*
X58487098Y-45546162D01*
X58498793Y-45485386D01*
X58511380Y-45415609D01*
X58514930Y-45395291D01*
X58527701Y-45323385D01*
X58539346Y-45261346D01*
X58550029Y-45208537D01*
X58559915Y-45164318D01*
X58569167Y-45128052D01*
X58577949Y-45099102D01*
X58586426Y-45076829D01*
X58594760Y-45060596D01*
X58603116Y-45049765D01*
X58603912Y-45048999D01*
X58618109Y-45037019D01*
X58633393Y-45027229D01*
X58650958Y-45019419D01*
X58671998Y-45013376D01*
X58697707Y-45008890D01*
X58729278Y-45005748D01*
X58767905Y-45003740D01*
X58814782Y-45002655D01*
X58867709Y-45002286D01*
X58924471Y-45002454D01*
X58972071Y-45003272D01*
X59011920Y-45004852D01*
X59045424Y-45007305D01*
X59073992Y-45010741D01*
X59099034Y-45015272D01*
X59121956Y-45021009D01*
X59128168Y-45022841D01*
X59145719Y-45028880D01*
X59156559Y-45035501D01*
X59164296Y-45045633D01*
X59169995Y-45056798D01*
X59178250Y-45076388D01*
X59185946Y-45099704D01*
X59193357Y-45127965D01*
X59200755Y-45162394D01*
X59208412Y-45204210D01*
X59216602Y-45254635D01*
X59221710Y-45288348D01*
X59227836Y-45327537D01*
X59234536Y-45366827D01*
X59241357Y-45403810D01*
X59247849Y-45436079D01*
X59253561Y-45461227D01*
X59255519Y-45468729D01*
X59261103Y-45489278D01*
X59265742Y-45507511D01*
X59269844Y-45525482D01*
X59273817Y-45545246D01*
X59278068Y-45568856D01*
X59283003Y-45598368D01*
X59289032Y-45635835D01*
X59290551Y-45645388D01*
X59299462Y-45695116D01*
X59309189Y-45735885D01*
X59320317Y-45769317D01*
X59333426Y-45797033D01*
X59349101Y-45820655D01*
X59356986Y-45830198D01*
X59366760Y-45840583D01*
X59377221Y-45849638D01*
X59389923Y-45858212D01*
X59406419Y-45867151D01*
X59428266Y-45877304D01*
X59457018Y-45889518D01*
X59491568Y-45903570D01*
X59518118Y-45914467D01*
X59552280Y-45928826D01*
X59592010Y-45945767D01*
X59635268Y-45964415D01*
X59680010Y-45983891D01*
X59724196Y-46003320D01*
X59738361Y-46009595D01*
X59812389Y-46042233D01*
X59877220Y-46070333D01*
X59933162Y-46094016D01*
X59980521Y-46113403D01*
X60019602Y-46128615D01*
X60050712Y-46139774D01*
X60074158Y-46147000D01*
X60090245Y-46150415D01*
X60094910Y-46150742D01*
X60104986Y-46148185D01*
X60122581Y-46141065D01*
X60146107Y-46130210D01*
X60173975Y-46116448D01*
X60204596Y-46100605D01*
X60236383Y-46083509D01*
X60267746Y-46065988D01*
X60297097Y-46048869D01*
X60322847Y-46032979D01*
X60330292Y-46028141D01*
X60352263Y-46013327D01*
X60380657Y-45993718D01*
X60413373Y-45970791D01*
X60448310Y-45946024D01*
X60483366Y-45920894D01*
X60502271Y-45907211D01*
X60551519Y-45871579D01*
X60593566Y-45841526D01*
X60629634Y-45816223D01*
X60660946Y-45794839D01*
X60688723Y-45776544D01*
X60714187Y-45760510D01*
X60738560Y-45745906D01*
X60747004Y-45741011D01*
X60790654Y-45715907D01*
X60825126Y-45735185D01*
X60871940Y-45764583D01*
X60921139Y-45801846D01*
X60973074Y-45847304D01*
X61028090Y-45901290D01*
X61086535Y-45964135D01*
X61148759Y-46036171D01*
X61178929Y-46072710D01*
X61199419Y-46097848D01*
X61187682Y-46125618D01*
X61171078Y-46161470D01*
X61148972Y-46203373D01*
X61121158Y-46251657D01*
X61087433Y-46306655D01*
X61047591Y-46368699D01*
X61001427Y-46438120D01*
X60948736Y-46515251D01*
X60934597Y-46535666D01*
X60909063Y-46572561D01*
X60883767Y-46609326D01*
X60859811Y-46644346D01*
X60838295Y-46676006D01*
X60820320Y-46702692D01*
X60806986Y-46722786D01*
X60804136Y-46727164D01*
X60770088Y-46779800D01*
X60808860Y-46879344D01*
X60825317Y-46921305D01*
X60841448Y-46961774D01*
X60857790Y-47002013D01*
X60874877Y-47043280D01*
X60893244Y-47086838D01*
X60913426Y-47133947D01*
X60935960Y-47185867D01*
X60961379Y-47243858D01*
X60990220Y-47309182D01*
X61016817Y-47369148D01*
X61114964Y-47590075D01*
X61149930Y-47600366D01*
X61182999Y-47609741D01*
X61218380Y-47619026D01*
X61257072Y-47628434D01*
X61300077Y-47638177D01*
X61348394Y-47648466D01*
X61403025Y-47659515D01*
X61464970Y-47671535D01*
X61535230Y-47684738D01*
X61614804Y-47699338D01*
X61626750Y-47701506D01*
X61692557Y-47713616D01*
X61748328Y-47724278D01*
X61794500Y-47733595D01*
X61831507Y-47741667D01*
X61859785Y-47748594D01*
X61879767Y-47754478D01*
X61891889Y-47759419D01*
X61896587Y-47763519D01*
X61896678Y-47764101D01*
X61897304Y-47772370D01*
X61898975Y-47788867D01*
X61901449Y-47811312D01*
X61904480Y-47837429D01*
X61904957Y-47841429D01*
X61907618Y-47868297D01*
X61910210Y-47902853D01*
X61912563Y-47942199D01*
X61914508Y-47983442D01*
X61915873Y-48023684D01*
X61916013Y-48029284D01*
X61916788Y-48083679D01*
X62101127Y-48083679D01*
X62102057Y-48022321D01*
X62102855Y-47960941D01*
X62103483Y-47902279D01*
X62103926Y-47847591D01*
X62104166Y-47798132D01*
X62104188Y-47755158D01*
X62103977Y-47719923D01*
X62103516Y-47693684D01*
X62103351Y-47688447D01*
X62100355Y-47604256D01*
X62063313Y-47591690D01*
X62033060Y-47581965D01*
X61999745Y-47572353D01*
X61962380Y-47562636D01*
X61919978Y-47552592D01*
X61871552Y-47542002D01*
X61816114Y-47530645D01*
X61752676Y-47518303D01*
X61680252Y-47504754D01*
X61640107Y-47497412D01*
X61564562Y-47483284D01*
X61498389Y-47470022D01*
X61440441Y-47457367D01*
X61389566Y-47445060D01*
X61344616Y-47432842D01*
X61317801Y-47424753D01*
X61265497Y-47408292D01*
X61234405Y-47360942D01*
X61206869Y-47315396D01*
X61177868Y-47260350D01*
X61147284Y-47195560D01*
X61115001Y-47120783D01*
X61089708Y-47058263D01*
X61074581Y-47020254D01*
X61058688Y-46980868D01*
X61043105Y-46942738D01*
X61028911Y-46908494D01*
X61017182Y-46880769D01*
X61014569Y-46874723D01*
X60985378Y-46807600D01*
X61037199Y-46731848D01*
X61056170Y-46704240D01*
X61079428Y-46670585D01*
X61105165Y-46633488D01*
X61131572Y-46595555D01*
X61156842Y-46559391D01*
X61163239Y-46550263D01*
X61187483Y-46515466D01*
X61214009Y-46476998D01*
X61242106Y-46435923D01*
X61271061Y-46393308D01*
X61300163Y-46350216D01*
X61328700Y-46307714D01*
X61355960Y-46266868D01*
X61381232Y-46228741D01*
X61403802Y-46194401D01*
X61422961Y-46164912D01*
X61437995Y-46141339D01*
X61448193Y-46124749D01*
X61451819Y-46118351D01*
X61464612Y-46093899D01*
X61444129Y-46065435D01*
X61414880Y-46027010D01*
X61381439Y-45987439D01*
X61342605Y-45945406D01*
X61297171Y-45899593D01*
X61259279Y-45863130D01*
X61210435Y-45816780D01*
X61168685Y-45776919D01*
X61133341Y-45742858D01*
X61103719Y-45713910D01*
X61079133Y-45689388D01*
X61058896Y-45668603D01*
X61042323Y-45650867D01*
X61028728Y-45635494D01*
X61017426Y-45621794D01*
X61013128Y-45616284D01*
X60983173Y-45580338D01*
X60951567Y-45547998D01*
X60920234Y-45521026D01*
X60891095Y-45501182D01*
X60882415Y-45496560D01*
X60852145Y-45485743D01*
X60817582Y-45479710D01*
X60783005Y-45478875D01*
X60752693Y-45483651D01*
X60751782Y-45483919D01*
X60723242Y-45496155D01*
X60692427Y-45515731D01*
X60662187Y-45540725D01*
X60650438Y-45552278D01*
X60631143Y-45570109D01*
X60608498Y-45587945D01*
X60592230Y-45598891D01*
X60564033Y-45616965D01*
X60529049Y-45641154D01*
X60488458Y-45670605D01*
X60443439Y-45704466D01*
X60407021Y-45732601D01*
X60353226Y-45773698D01*
X60305636Y-45807930D01*
X60263022Y-45835967D01*
X60224159Y-45858479D01*
X60187818Y-45876134D01*
X60152772Y-45889604D01*
X60117793Y-45899558D01*
X60090857Y-45905120D01*
X60049859Y-45912376D01*
X59940044Y-45876133D01*
X59862473Y-45849634D01*
X59793833Y-45824176D01*
X59732609Y-45799095D01*
X59677289Y-45773724D01*
X59626358Y-45747399D01*
X59578302Y-45719455D01*
X59566038Y-45711808D01*
X59545960Y-45698763D01*
X59532560Y-45688498D01*
X59523420Y-45678388D01*
X59516119Y-45665805D01*
X59508969Y-45649837D01*
X59489530Y-45598732D01*
X59470878Y-45538330D01*
X59452956Y-45468378D01*
X59435706Y-45388627D01*
X59419068Y-45298825D01*
X59402984Y-45198722D01*
X59401726Y-45190304D01*
X59390274Y-45114968D01*
X59379450Y-45047161D01*
X59369367Y-44987535D01*
X59360137Y-44936740D01*
X59351871Y-44895425D01*
X59347420Y-44875450D01*
X59342476Y-44855337D01*
X59337989Y-44842668D01*
X59332022Y-44834579D01*
X59322637Y-44828205D01*
X59311646Y-44822556D01*
X59298853Y-44816708D01*
X59286679Y-44812888D01*
X59272367Y-44810681D01*
X59253160Y-44809674D01*
X59226303Y-44809453D01*
X59224334Y-44809456D01*
M02*
