%TF.GenerationSoftware,KiCad,Pcbnew,4.0.4-stable*%
%TF.CreationDate,2017-03-23T19:51:40+02:00*%
%TF.ProjectId,back_prototype,6261636B5F70726F746F747970652E6B,rev?*%
%TF.FileFunction,Legend,Bot*%
%FSLAX46Y46*%
G04 Gerber Fmt 4.6, Leading zero omitted, Abs format (unit mm)*
G04 Created by KiCad (PCBNEW 4.0.4-stable) date 03/23/17 19:51:40*
%MOMM*%
%LPD*%
G01*
G04 APERTURE LIST*
%ADD10C,0.100000*%
%ADD11C,0.300000*%
%ADD12C,0.150000*%
%ADD13C,0.120000*%
G04 APERTURE END LIST*
D10*
D11*
X79977371Y-99605771D02*
X78477371Y-99605771D01*
X78477371Y-99962914D01*
X78548800Y-100177199D01*
X78691657Y-100320057D01*
X78834514Y-100391485D01*
X79120229Y-100462914D01*
X79334514Y-100462914D01*
X79620229Y-100391485D01*
X79763086Y-100320057D01*
X79905943Y-100177199D01*
X79977371Y-99962914D01*
X79977371Y-99605771D01*
X79905943Y-101677199D02*
X79977371Y-101534342D01*
X79977371Y-101248628D01*
X79905943Y-101105771D01*
X79763086Y-101034342D01*
X79191657Y-101034342D01*
X79048800Y-101105771D01*
X78977371Y-101248628D01*
X78977371Y-101534342D01*
X79048800Y-101677199D01*
X79191657Y-101748628D01*
X79334514Y-101748628D01*
X79477371Y-101034342D01*
X79905943Y-102320056D02*
X79977371Y-102462913D01*
X79977371Y-102748628D01*
X79905943Y-102891485D01*
X79763086Y-102962913D01*
X79691657Y-102962913D01*
X79548800Y-102891485D01*
X79477371Y-102748628D01*
X79477371Y-102534342D01*
X79405943Y-102391485D01*
X79263086Y-102320056D01*
X79191657Y-102320056D01*
X79048800Y-102391485D01*
X78977371Y-102534342D01*
X78977371Y-102748628D01*
X79048800Y-102891485D01*
X79977371Y-103605771D02*
X78977371Y-103605771D01*
X78477371Y-103605771D02*
X78548800Y-103534342D01*
X78620229Y-103605771D01*
X78548800Y-103677199D01*
X78477371Y-103605771D01*
X78620229Y-103605771D01*
X78977371Y-104962914D02*
X80191657Y-104962914D01*
X80334514Y-104891485D01*
X80405943Y-104820057D01*
X80477371Y-104677200D01*
X80477371Y-104462914D01*
X80405943Y-104320057D01*
X79905943Y-104962914D02*
X79977371Y-104820057D01*
X79977371Y-104534343D01*
X79905943Y-104391485D01*
X79834514Y-104320057D01*
X79691657Y-104248628D01*
X79263086Y-104248628D01*
X79120229Y-104320057D01*
X79048800Y-104391485D01*
X78977371Y-104534343D01*
X78977371Y-104820057D01*
X79048800Y-104962914D01*
X78977371Y-105677200D02*
X79977371Y-105677200D01*
X79120229Y-105677200D02*
X79048800Y-105748628D01*
X78977371Y-105891486D01*
X78977371Y-106105771D01*
X79048800Y-106248628D01*
X79191657Y-106320057D01*
X79977371Y-106320057D01*
X79905943Y-107605771D02*
X79977371Y-107462914D01*
X79977371Y-107177200D01*
X79905943Y-107034343D01*
X79763086Y-106962914D01*
X79191657Y-106962914D01*
X79048800Y-107034343D01*
X78977371Y-107177200D01*
X78977371Y-107462914D01*
X79048800Y-107605771D01*
X79191657Y-107677200D01*
X79334514Y-107677200D01*
X79477371Y-106962914D01*
X79977371Y-108962914D02*
X78477371Y-108962914D01*
X79905943Y-108962914D02*
X79977371Y-108820057D01*
X79977371Y-108534343D01*
X79905943Y-108391485D01*
X79834514Y-108320057D01*
X79691657Y-108248628D01*
X79263086Y-108248628D01*
X79120229Y-108320057D01*
X79048800Y-108391485D01*
X78977371Y-108534343D01*
X78977371Y-108820057D01*
X79048800Y-108962914D01*
X79977371Y-110820057D02*
X78977371Y-110820057D01*
X78477371Y-110820057D02*
X78548800Y-110748628D01*
X78620229Y-110820057D01*
X78548800Y-110891485D01*
X78477371Y-110820057D01*
X78620229Y-110820057D01*
X78977371Y-111534343D02*
X79977371Y-111534343D01*
X79120229Y-111534343D02*
X79048800Y-111605771D01*
X78977371Y-111748629D01*
X78977371Y-111962914D01*
X79048800Y-112105771D01*
X79191657Y-112177200D01*
X79977371Y-112177200D01*
X79977371Y-114034343D02*
X78477371Y-114034343D01*
X79977371Y-114891486D02*
X79120229Y-114248629D01*
X78477371Y-114891486D02*
X79334514Y-114034343D01*
X79977371Y-115534343D02*
X78977371Y-115534343D01*
X78477371Y-115534343D02*
X78548800Y-115462914D01*
X78620229Y-115534343D01*
X78548800Y-115605771D01*
X78477371Y-115534343D01*
X78620229Y-115534343D01*
X79834514Y-117105772D02*
X79905943Y-117034343D01*
X79977371Y-116820057D01*
X79977371Y-116677200D01*
X79905943Y-116462915D01*
X79763086Y-116320057D01*
X79620229Y-116248629D01*
X79334514Y-116177200D01*
X79120229Y-116177200D01*
X78834514Y-116248629D01*
X78691657Y-116320057D01*
X78548800Y-116462915D01*
X78477371Y-116677200D01*
X78477371Y-116820057D01*
X78548800Y-117034343D01*
X78620229Y-117105772D01*
X79977371Y-118391486D02*
X79191657Y-118391486D01*
X79048800Y-118320057D01*
X78977371Y-118177200D01*
X78977371Y-117891486D01*
X79048800Y-117748629D01*
X79905943Y-118391486D02*
X79977371Y-118248629D01*
X79977371Y-117891486D01*
X79905943Y-117748629D01*
X79763086Y-117677200D01*
X79620229Y-117677200D01*
X79477371Y-117748629D01*
X79405943Y-117891486D01*
X79405943Y-118248629D01*
X79334514Y-118391486D01*
X79977371Y-119748629D02*
X78477371Y-119748629D01*
X79905943Y-119748629D02*
X79977371Y-119605772D01*
X79977371Y-119320058D01*
X79905943Y-119177200D01*
X79834514Y-119105772D01*
X79691657Y-119034343D01*
X79263086Y-119034343D01*
X79120229Y-119105772D01*
X79048800Y-119177200D01*
X78977371Y-119320058D01*
X78977371Y-119605772D01*
X79048800Y-119748629D01*
X76178856Y-40529771D02*
X75178856Y-40529771D01*
X76178856Y-42029771D01*
X75178856Y-42029771D01*
X74036000Y-41958343D02*
X74178857Y-42029771D01*
X74464571Y-42029771D01*
X74607428Y-41958343D01*
X74678857Y-41815486D01*
X74678857Y-41244057D01*
X74607428Y-41101200D01*
X74464571Y-41029771D01*
X74178857Y-41029771D01*
X74036000Y-41101200D01*
X73964571Y-41244057D01*
X73964571Y-41386914D01*
X74678857Y-41529771D01*
X73321714Y-42029771D02*
X73321714Y-41029771D01*
X73321714Y-41315486D02*
X73250286Y-41172629D01*
X73178857Y-41101200D01*
X73036000Y-41029771D01*
X72893143Y-41029771D01*
X72178857Y-42029771D02*
X72321715Y-41958343D01*
X72393143Y-41886914D01*
X72464572Y-41744057D01*
X72464572Y-41315486D01*
X72393143Y-41172629D01*
X72321715Y-41101200D01*
X72178857Y-41029771D01*
X71964572Y-41029771D01*
X71821715Y-41101200D01*
X71750286Y-41172629D01*
X71678857Y-41315486D01*
X71678857Y-41744057D01*
X71750286Y-41886914D01*
X71821715Y-41958343D01*
X71964572Y-42029771D01*
X72178857Y-42029771D01*
X71036000Y-42029771D02*
X71036000Y-40529771D01*
X70464572Y-40529771D01*
X70321714Y-40601200D01*
X70250286Y-40672629D01*
X70178857Y-40815486D01*
X70178857Y-41029771D01*
X70250286Y-41172629D01*
X70321714Y-41244057D01*
X70464572Y-41315486D01*
X71036000Y-41315486D01*
X69536000Y-42029771D02*
X69536000Y-40529771D01*
X68893143Y-42029771D02*
X68893143Y-41244057D01*
X68964572Y-41101200D01*
X69107429Y-41029771D01*
X69321714Y-41029771D01*
X69464572Y-41101200D01*
X69536000Y-41172629D01*
X67964571Y-42029771D02*
X68107429Y-41958343D01*
X68178857Y-41886914D01*
X68250286Y-41744057D01*
X68250286Y-41315486D01*
X68178857Y-41172629D01*
X68107429Y-41101200D01*
X67964571Y-41029771D01*
X67750286Y-41029771D01*
X67607429Y-41101200D01*
X67536000Y-41172629D01*
X67464571Y-41315486D01*
X67464571Y-41744057D01*
X67536000Y-41886914D01*
X67607429Y-41958343D01*
X67750286Y-42029771D01*
X67964571Y-42029771D01*
X66821714Y-41029771D02*
X66821714Y-42029771D01*
X66821714Y-41172629D02*
X66750286Y-41101200D01*
X66607428Y-41029771D01*
X66393143Y-41029771D01*
X66250286Y-41101200D01*
X66178857Y-41244057D01*
X66178857Y-42029771D01*
X64893143Y-41958343D02*
X65036000Y-42029771D01*
X65321714Y-42029771D01*
X65464571Y-41958343D01*
X65536000Y-41815486D01*
X65536000Y-41244057D01*
X65464571Y-41101200D01*
X65321714Y-41029771D01*
X65036000Y-41029771D01*
X64893143Y-41101200D01*
X64821714Y-41244057D01*
X64821714Y-41386914D01*
X65536000Y-41529771D01*
X62250286Y-40601200D02*
X62393143Y-40529771D01*
X62607429Y-40529771D01*
X62821714Y-40601200D01*
X62964572Y-40744057D01*
X63036000Y-40886914D01*
X63107429Y-41172629D01*
X63107429Y-41386914D01*
X63036000Y-41672629D01*
X62964572Y-41815486D01*
X62821714Y-41958343D01*
X62607429Y-42029771D01*
X62464572Y-42029771D01*
X62250286Y-41958343D01*
X62178857Y-41886914D01*
X62178857Y-41386914D01*
X62464572Y-41386914D01*
X60893143Y-42029771D02*
X60893143Y-41244057D01*
X60964572Y-41101200D01*
X61107429Y-41029771D01*
X61393143Y-41029771D01*
X61536000Y-41101200D01*
X60893143Y-41958343D02*
X61036000Y-42029771D01*
X61393143Y-42029771D01*
X61536000Y-41958343D01*
X61607429Y-41815486D01*
X61607429Y-41672629D01*
X61536000Y-41529771D01*
X61393143Y-41458343D01*
X61036000Y-41458343D01*
X60893143Y-41386914D01*
X60178857Y-42029771D02*
X60178857Y-41029771D01*
X60178857Y-41172629D02*
X60107429Y-41101200D01*
X59964571Y-41029771D01*
X59750286Y-41029771D01*
X59607429Y-41101200D01*
X59536000Y-41244057D01*
X59536000Y-42029771D01*
X59536000Y-41244057D02*
X59464571Y-41101200D01*
X59321714Y-41029771D01*
X59107429Y-41029771D01*
X58964571Y-41101200D01*
X58893143Y-41244057D01*
X58893143Y-42029771D01*
X58178857Y-42029771D02*
X58178857Y-41029771D01*
X58178857Y-41172629D02*
X58107429Y-41101200D01*
X57964571Y-41029771D01*
X57750286Y-41029771D01*
X57607429Y-41101200D01*
X57536000Y-41244057D01*
X57536000Y-42029771D01*
X57536000Y-41244057D02*
X57464571Y-41101200D01*
X57321714Y-41029771D01*
X57107429Y-41029771D01*
X56964571Y-41101200D01*
X56893143Y-41244057D01*
X56893143Y-42029771D01*
X55536000Y-42029771D02*
X55536000Y-41244057D01*
X55607429Y-41101200D01*
X55750286Y-41029771D01*
X56036000Y-41029771D01*
X56178857Y-41101200D01*
X55536000Y-41958343D02*
X55678857Y-42029771D01*
X56036000Y-42029771D01*
X56178857Y-41958343D01*
X56250286Y-41815486D01*
X56250286Y-41672629D01*
X56178857Y-41529771D01*
X56036000Y-41458343D01*
X55678857Y-41458343D01*
X55536000Y-41386914D01*
D12*
X61784000Y-58174000D02*
X61784000Y-60574000D01*
X63184000Y-58174000D02*
X61784000Y-58174000D01*
X63184000Y-60574000D02*
X63184000Y-58174000D01*
X61784000Y-60574000D02*
X63184000Y-60574000D01*
D13*
X59180000Y-78938000D02*
X59180000Y-79868000D01*
X59180000Y-82098000D02*
X59180000Y-81168000D01*
X59180000Y-82098000D02*
X56020000Y-82098000D01*
X59180000Y-78938000D02*
X57720000Y-78938000D01*
D12*
X41508400Y-59480800D02*
X67508400Y-59480800D01*
X41508400Y-76680800D02*
X41508400Y-59480800D01*
X67508400Y-76680800D02*
X41508400Y-76680800D01*
X67508400Y-59480800D02*
X67508400Y-76680800D01*
X79513400Y-58410400D02*
X79513400Y-57210400D01*
X77763400Y-57210400D02*
X77763400Y-58410400D01*
D13*
X64356800Y-80381600D02*
X71656800Y-80381600D01*
X71656800Y-80381600D02*
X71656800Y-82381600D01*
X71656800Y-82381600D02*
X64356800Y-82381600D01*
X57607200Y-44628800D02*
X55067200Y-44628800D01*
X55067200Y-42848800D02*
X57607200Y-42848800D01*
X55067200Y-42848800D02*
X55067200Y-44628800D01*
X57607200Y-44628800D02*
X57607200Y-42848800D01*
X68277200Y-80218400D02*
X68277200Y-79288400D01*
X68277200Y-77058400D02*
X68277200Y-77988400D01*
X68277200Y-77058400D02*
X71437200Y-77058400D01*
X68277200Y-80218400D02*
X69737200Y-80218400D01*
D12*
X66030400Y-76442600D02*
X64830400Y-76442600D01*
X64830400Y-78192600D02*
X66030400Y-78192600D01*
X77075000Y-58410400D02*
X77075000Y-57210400D01*
X75325000Y-57210400D02*
X75325000Y-58410400D01*
X74636600Y-58461200D02*
X74636600Y-57261200D01*
X72886600Y-57261200D02*
X72886600Y-58461200D01*
X59147000Y-81992500D02*
X57947000Y-81992500D01*
X57947000Y-83742500D02*
X59147000Y-83742500D01*
X58217000Y-139303200D02*
X58217000Y-139253200D01*
X62367000Y-139303200D02*
X62367000Y-139158200D01*
X62367000Y-134153200D02*
X62367000Y-134298200D01*
X58217000Y-134153200D02*
X58217000Y-134298200D01*
X58217000Y-139303200D02*
X62367000Y-139303200D01*
X58217000Y-134153200D02*
X62367000Y-134153200D01*
X58217000Y-139253200D02*
X56817000Y-139253200D01*
D13*
X55306000Y-137164500D02*
X55306000Y-136064500D01*
X53406000Y-137164500D02*
X53406000Y-136064500D01*
X55256000Y-139314500D02*
X53456000Y-139314500D01*
X54748400Y-41885600D02*
X48948400Y-41885600D01*
X54748400Y-45185600D02*
X48948400Y-45185600D01*
X54748400Y-41885600D02*
X54748400Y-45185600D01*
D12*
X78500000Y-46000000D02*
X73500000Y-46000000D01*
X73500000Y-46000000D02*
X73500000Y-51000000D01*
X73500000Y-51000000D02*
X78500000Y-51000000D01*
X78500000Y-51000000D02*
X78500000Y-46000000D01*
D13*
X61857000Y-118911000D02*
X62857000Y-118911000D01*
X62857000Y-120611000D02*
X61857000Y-120611000D01*
X49913600Y-45073200D02*
X50913600Y-45073200D01*
X50913600Y-46773200D02*
X49913600Y-46773200D01*
X67191000Y-43854000D02*
X68191000Y-43854000D01*
X68191000Y-45554000D02*
X67191000Y-45554000D01*
X52744000Y-85824000D02*
X52744000Y-84824000D01*
X54444000Y-84824000D02*
X54444000Y-85824000D01*
X76319000Y-44284000D02*
X75319000Y-44284000D01*
X75319000Y-42584000D02*
X76319000Y-42584000D01*
X78398000Y-87642000D02*
X78398000Y-86642000D01*
X80098000Y-86642000D02*
X80098000Y-87642000D01*
X64801000Y-55718000D02*
X65501000Y-55718000D01*
X65501000Y-54518000D02*
X64801000Y-54518000D01*
X67910000Y-54452000D02*
X67910000Y-53752000D01*
X66710000Y-53752000D02*
X66710000Y-54452000D01*
X65501000Y-52486000D02*
X64801000Y-52486000D01*
X64801000Y-53686000D02*
X65501000Y-53686000D01*
X52674000Y-55026000D02*
X51974000Y-55026000D01*
X51974000Y-56226000D02*
X52674000Y-56226000D01*
X50765000Y-54756800D02*
X50765000Y-54056800D01*
X49565000Y-54056800D02*
X49565000Y-54756800D01*
X51974000Y-53940000D02*
X52674000Y-53940000D01*
X52674000Y-52740000D02*
X51974000Y-52740000D01*
X52740000Y-51216000D02*
X52040000Y-51216000D01*
X52040000Y-52416000D02*
X52740000Y-52416000D01*
X50892000Y-51023000D02*
X50892000Y-50323000D01*
X49692000Y-50323000D02*
X49692000Y-51023000D01*
X51974000Y-50130000D02*
X52674000Y-50130000D01*
X52674000Y-48930000D02*
X51974000Y-48930000D01*
X57650000Y-133057000D02*
X56650000Y-133057000D01*
X56650000Y-131357000D02*
X57650000Y-131357000D01*
D12*
X43118000Y-133483500D02*
X43118000Y-135183500D01*
X41718000Y-133483500D02*
X43118000Y-133483500D01*
X41718000Y-135183500D02*
X41718000Y-133483500D01*
X41718000Y-133483500D02*
X43118000Y-133483500D01*
X41718000Y-135183500D02*
X43118000Y-135183500D01*
X63181000Y-58174000D02*
X63181000Y-60574000D01*
X64581000Y-58174000D02*
X63181000Y-58174000D01*
X64581000Y-60574000D02*
X64581000Y-58174000D01*
X63181000Y-60574000D02*
X64581000Y-60574000D01*
X61787000Y-60572500D02*
X61787000Y-58172500D01*
X60387000Y-60572500D02*
X61787000Y-60572500D01*
X60387000Y-58172500D02*
X60387000Y-60572500D01*
X61787000Y-58172500D02*
X60387000Y-58172500D01*
X62993500Y-131707000D02*
X62993500Y-133407000D01*
X61593500Y-131707000D02*
X62993500Y-131707000D01*
X61593500Y-133407000D02*
X61593500Y-131707000D01*
X61593500Y-131707000D02*
X62993500Y-131707000D01*
X61593500Y-133407000D02*
X62993500Y-133407000D01*
X64327000Y-131707000D02*
X64327000Y-133407000D01*
X62927000Y-131707000D02*
X64327000Y-131707000D01*
X62927000Y-133407000D02*
X62927000Y-131707000D01*
X62927000Y-131707000D02*
X64327000Y-131707000D01*
X62927000Y-133407000D02*
X64327000Y-133407000D01*
X61533000Y-131707000D02*
X61533000Y-133407000D01*
X60133000Y-131707000D02*
X61533000Y-131707000D01*
X60133000Y-133407000D02*
X60133000Y-131707000D01*
X60133000Y-131707000D02*
X61533000Y-131707000D01*
X60133000Y-133407000D02*
X61533000Y-133407000D01*
D13*
X69787500Y-127190500D02*
X69787500Y-124860500D01*
X54797500Y-127190500D02*
X54797500Y-124860500D01*
X69787500Y-127190500D02*
X54797500Y-127190500D01*
X69787500Y-113100500D02*
X54797500Y-113100500D01*
X69787500Y-121900500D02*
X69787500Y-113100500D01*
X54797500Y-121900500D02*
X54797500Y-113100500D01*
X54837600Y-122253200D02*
X54837600Y-124583200D01*
X69827600Y-122253200D02*
X69827600Y-124583200D01*
X54837600Y-122253200D02*
X69827600Y-122253200D01*
X54837600Y-136343200D02*
X69827600Y-136343200D01*
X54837600Y-127543200D02*
X54837600Y-136343200D01*
X69827600Y-127543200D02*
X69827600Y-136343200D01*
D12*
X55190800Y-118369600D02*
X55190800Y-85369600D01*
X69790800Y-118369600D02*
X55190800Y-118369600D01*
X69790800Y-85369600D02*
X69790800Y-118369600D01*
X55190800Y-85369600D02*
X69790800Y-85369600D01*
D13*
X76021200Y-72325200D02*
X76021200Y-66525200D01*
X72721200Y-72325200D02*
X72721200Y-66525200D01*
X76021200Y-72325200D02*
X72721200Y-72325200D01*
X79120000Y-84263200D02*
X79120000Y-78463200D01*
X75820000Y-84263200D02*
X75820000Y-78463200D01*
X79120000Y-84263200D02*
X75820000Y-84263200D01*
M02*
