%TF.GenerationSoftware,KiCad,Pcbnew,4.0.4-stable*%
%TF.CreationDate,2017-03-14T02:34:00+02:00*%
%TF.ProjectId,ltc2990_sensor,6C7463323939305F73656E736F722E6B,rev?*%
%TF.FileFunction,Legend,Top*%
%FSLAX46Y46*%
G04 Gerber Fmt 4.6, Leading zero omitted, Abs format (unit mm)*
G04 Created by KiCad (PCBNEW 4.0.4-stable) date 03/14/17 02:34:00*
%MOMM*%
%LPD*%
G01*
G04 APERTURE LIST*
%ADD10C,0.100000*%
%ADD11C,0.150000*%
G04 APERTURE END LIST*
D10*
D11*
X167600000Y-113825000D02*
X162400000Y-113825000D01*
X162400000Y-110175000D02*
X167600000Y-110175000D01*
X162400000Y-118675000D02*
X167600000Y-118675000D01*
X167600000Y-122325000D02*
X162400000Y-122325000D01*
X164600000Y-116700000D02*
X165400000Y-116700000D01*
X165400000Y-117500000D02*
X164600000Y-117500000D01*
X163400000Y-113700000D02*
X164200000Y-113700000D01*
X164200000Y-114500000D02*
X163400000Y-114500000D01*
X164200000Y-118500000D02*
X163400000Y-118500000D01*
X163400000Y-117700000D02*
X164200000Y-117700000D01*
X165800000Y-117700000D02*
X166600000Y-117700000D01*
X166600000Y-118500000D02*
X165800000Y-118500000D01*
X166600000Y-114500000D02*
X165800000Y-114500000D01*
X165800000Y-113700000D02*
X166600000Y-113700000D01*
X164700000Y-114700000D02*
X165500000Y-114700000D01*
X165500000Y-115500000D02*
X164700000Y-115500000D01*
X171299143Y-114482476D02*
X171346762Y-114530095D01*
X171394381Y-114672952D01*
X171394381Y-114768190D01*
X171346762Y-114911048D01*
X171251524Y-115006286D01*
X171156286Y-115053905D01*
X170965810Y-115101524D01*
X170822952Y-115101524D01*
X170632476Y-115053905D01*
X170537238Y-115006286D01*
X170442000Y-114911048D01*
X170394381Y-114768190D01*
X170394381Y-114672952D01*
X170442000Y-114530095D01*
X170489619Y-114482476D01*
X171394381Y-114053905D02*
X170394381Y-114053905D01*
X170870571Y-114053905D02*
X170870571Y-113482476D01*
X171394381Y-113482476D02*
X170394381Y-113482476D01*
X171394381Y-112482476D02*
X171394381Y-113053905D01*
X171394381Y-112768191D02*
X170394381Y-112768191D01*
X170537238Y-112863429D01*
X170632476Y-112958667D01*
X170680095Y-113053905D01*
X171299143Y-119308476D02*
X171346762Y-119356095D01*
X171394381Y-119498952D01*
X171394381Y-119594190D01*
X171346762Y-119737048D01*
X171251524Y-119832286D01*
X171156286Y-119879905D01*
X170965810Y-119927524D01*
X170822952Y-119927524D01*
X170632476Y-119879905D01*
X170537238Y-119832286D01*
X170442000Y-119737048D01*
X170394381Y-119594190D01*
X170394381Y-119498952D01*
X170442000Y-119356095D01*
X170489619Y-119308476D01*
X171394381Y-118879905D02*
X170394381Y-118879905D01*
X170870571Y-118879905D02*
X170870571Y-118308476D01*
X171394381Y-118308476D02*
X170394381Y-118308476D01*
X170394381Y-117641810D02*
X170394381Y-117546571D01*
X170442000Y-117451333D01*
X170489619Y-117403714D01*
X170584857Y-117356095D01*
X170775333Y-117308476D01*
X171013429Y-117308476D01*
X171203905Y-117356095D01*
X171299143Y-117403714D01*
X171346762Y-117451333D01*
X171394381Y-117546571D01*
X171394381Y-117641810D01*
X171346762Y-117737048D01*
X171299143Y-117784667D01*
X171203905Y-117832286D01*
X171013429Y-117879905D01*
X170775333Y-117879905D01*
X170584857Y-117832286D01*
X170489619Y-117784667D01*
X170442000Y-117737048D01*
X170394381Y-117641810D01*
M02*
