%TF.GenerationSoftware,KiCad,Pcbnew,4.0.4-stable*%
%TF.CreationDate,2017-05-07T02:49:31+03:00*%
%TF.ProjectId,18650_pcb,31383635305F7063622E6B696361645F,rev?*%
%TF.FileFunction,Profile,NP*%
%FSLAX46Y46*%
G04 Gerber Fmt 4.6, Leading zero omitted, Abs format (unit mm)*
G04 Created by KiCad (PCBNEW 4.0.4-stable) date 05/07/17 02:49:31*
%MOMM*%
%LPD*%
G01*
G04 APERTURE LIST*
%ADD10C,0.200000*%
%ADD11C,0.150000*%
G04 APERTURE END LIST*
D10*
D11*
X137000000Y-61250000D02*
X130000000Y-61250000D01*
X137000000Y-61250000D02*
X137000000Y-68250000D01*
X130000000Y-68250000D02*
X137000000Y-68250000D01*
X130000000Y-144000000D02*
X130000000Y-68250000D01*
X145000000Y-106000000D02*
X145000000Y-122000000D01*
X145000000Y-122000000D02*
X155000000Y-122000000D01*
X155000000Y-106000000D02*
X155000000Y-122000000D01*
X145000000Y-106000000D02*
X155000000Y-106000000D01*
X170000000Y-144000000D02*
X170000000Y-93000000D01*
X142000000Y-93000000D02*
X170000000Y-93000000D01*
X142000000Y-74000000D02*
X142000000Y-93000000D01*
X142000000Y-74000000D02*
X170000000Y-74000000D01*
X133000000Y-56000000D02*
G75*
G03X130000000Y-59000000I0J-3000000D01*
G01*
X170000000Y-59000000D02*
G75*
G03X167000000Y-56000000I-3000000J0D01*
G01*
X130000000Y-61250000D02*
X130000000Y-59000000D01*
X143000000Y-144000000D02*
X130000000Y-144000000D01*
X143000000Y-139000000D02*
X143000000Y-144000000D01*
X143000000Y-139000000D02*
X157000000Y-139000000D01*
X157000000Y-139000000D02*
X157000000Y-144000000D01*
X170000000Y-144000000D02*
X157000000Y-144000000D01*
X170000000Y-74000000D02*
X170000000Y-59000000D01*
X133000000Y-56000000D02*
X167000000Y-56000000D01*
M02*
