%TF.GenerationSoftware,KiCad,Pcbnew,4.0.6*%
%TF.CreationDate,2017-06-08T05:46:57+03:00*%
%TF.ProjectId,18650_pcb,31383635305F7063622E6B696361645F,rev?*%
%TF.FileFunction,Profile,NP*%
%FSLAX46Y46*%
G04 Gerber Fmt 4.6, Leading zero omitted, Abs format (unit mm)*
G04 Created by KiCad (PCBNEW 4.0.6) date 06/08/17 05:46:57*
%MOMM*%
%LPD*%
G01*
G04 APERTURE LIST*
%ADD10C,0.200000*%
%ADD11C,0.150000*%
G04 APERTURE END LIST*
D10*
D11*
X8671380Y-6591960D02*
X1671380Y-6591960D01*
X8671380Y-6591960D02*
X8671380Y-13591960D01*
X1671380Y-13591960D02*
X8671380Y-13591960D01*
X1671380Y-89341960D02*
X1671380Y-13591960D01*
X16671380Y-51341960D02*
X16671380Y-67341960D01*
X16671380Y-67341960D02*
X26671380Y-67341960D01*
X26671380Y-51341960D02*
X26671380Y-67341960D01*
X16671380Y-51341960D02*
X26671380Y-51341960D01*
X41671380Y-89341960D02*
X41671380Y-38341960D01*
X13671380Y-38341960D02*
X41671380Y-38341960D01*
X13671380Y-19341960D02*
X13671380Y-38341960D01*
X13671380Y-19341960D02*
X41671380Y-19341960D01*
X4671380Y-1341960D02*
G75*
G03X1671380Y-4341960I0J-3000000D01*
G01*
X41671380Y-4341960D02*
G75*
G03X38671380Y-1341960I-3000000J0D01*
G01*
X1671380Y-6591960D02*
X1671380Y-4341960D01*
X14671380Y-89341960D02*
X1671380Y-89341960D01*
X14671380Y-84341960D02*
X14671380Y-89341960D01*
X14671380Y-84341960D02*
X28671380Y-84341960D01*
X28671380Y-84341960D02*
X28671380Y-89341960D01*
X41671380Y-89341960D02*
X28671380Y-89341960D01*
X41671380Y-19341960D02*
X41671380Y-4341960D01*
X4671380Y-1341960D02*
X38671380Y-1341960D01*
M02*
